<?xml version="1.0" encoding="UTF-8"?>
<svg id="_레이어_1" data-name="레이어 1" xmlns="http://www.w3.org/2000/svg" viewBox="0 0 677.572 862.207">
  <defs>
    <style>
      .cls-1 {
        fill: #707070;
        stroke-width: 0px;
      }

      .cls-2 {
        fill: #b6eda2;
        stroke: #6ea159;
      }

      .cls-2, .cls-3, .cls-4, .cls-5, .cls-6 {
        stroke-miterlimit: 10;
      }

      .cls-3 {
        fill: none;
        stroke: #707070;
        stroke-width: 3px;
      }

      .cls-4 {
        fill: #caebfc;
        stroke: #3295c3;
      }

      .cls-7 {
        font-family: Pretendard-Bold-KSCpc-EUC-H, Pretendard;
        font-size: 26px;
        font-weight: 700;
        letter-spacing: -.025em;
      }

      .cls-5 {
        fill: #d9cfff;
        stroke: #8c7bc6;
      }

      .cls-6 {
        fill: #ffe697;
        stroke: #bb7d0c;
      }
    </style>
  </defs>
  <rect class="cls-4" x="66.302" y="110.518" width="311.223" height="73.746"/>
  <g>
    <polyline class="cls-3" points="539.094 669.659 539.094 299.888 350.144 299.888"/>
    <polygon class="cls-1" points="546.574 667.471 539.094 680.423 531.616 667.471 546.574 667.471"/>
  </g>
  <g>
    <line class="cls-3" x1="221.914" y1="183.6" x2="221.914" y2="211.961"/>
    <polygon class="cls-1" points="215.93 210.211 221.914 220.572 227.897 210.211 215.93 210.211"/>
  </g>
  <text class="cls-7" transform="translate(117.429 155.737)"><tspan x="0" y="0">반티 후보 번호(n)=0</tspan></text>
  <g>
    <line class="cls-3" x1="221.914" y1="70.967" x2="221.914" y2="101.845"/>
    <polygon class="cls-1" points="215.93 100.095 221.914 110.456 227.897 100.095 215.93 100.095"/>
  </g>
  <rect class="cls-2" x="78.574" y="1" width="287.747" height="70" rx="35" ry="35"/>
  <text class="cls-7" transform="translate(108.002 45.19)"><tspan x="0" y="0">오브젝트를 클릭했을 때</tspan></text>
  <g>
    <line class="cls-3" x1="221.914" y1="498.597" x2="221.914" y2="528.273"/>
    <polygon class="cls-1" points="215.93 526.523 221.914 536.884 227.897 526.523 215.93 526.523"/>
  </g>
  <rect class="cls-4" x="66.302" y="425.265" width="311.223" height="73.746"/>
  <text class="cls-7" transform="translate(100.923 470.492)"><tspan x="0" y="0">반티 후보 번호(n) 1 증가</tspan></text>
  <rect class="cls-2" x="412.662" y="791.207" width="252.744" height="70" rx="35" ry="35"/>
  <text class="cls-7" transform="translate(527.798 835.161)"><tspan x="0" y="0">끝</tspan></text>
  <g>
    <line class="cls-3" x1="538.946" y1="753.817" x2="538.946" y2="782.596"/>
    <polygon class="cls-1" points="532.963 780.845 538.946 791.207 544.929 780.845 532.963 780.845"/>
  </g>
  <rect class="cls-4" x="403.336" y="680.485" width="273.221" height="73.746"/>
  <text class="cls-7" transform="translate(437.553 725.714)"><tspan x="0" y="0">투표한 사람 수 1증가</tspan></text>
  <g>
    <line class="cls-3" x1="221.914" y1="376.018" x2="221.914" y2="416.592"/>
    <polygon class="cls-1" points="215.93 414.841 221.914 425.203 227.897 414.841 215.93 414.841"/>
  </g>
  <polygon class="cls-5" points="221.914 220.572 80.992 299.888 221.914 379.204 362.835 299.888 221.914 220.572"/>
  <text class="cls-7" transform="translate(161.691 277.235)"><tspan x="0" y="0">반티 리스트 </tspan><tspan x="-2.671" y="30">항목 수 만큼 </tspan><tspan x="-1.328" y="60">반복했는가?</tspan></text>
  <text class="cls-7" transform="translate(243.12 404.989)"><tspan x="0" y="0">아니요</tspan></text>
  <text class="cls-7" transform="translate(374.519 281.795)"><tspan x="0" y="0">예</tspan></text>
  <g>
    <line class="cls-3" x1="221.702" y1="622.465" x2="221.702" y2="649.213"/>
    <polygon class="cls-1" points="215.719 647.462 221.702 657.824 227.685 647.462 215.719 647.462"/>
  </g>
  <polygon class="cls-6" points="331.911 622.476 51.912 622.476 111.916 537.478 391.915 537.478 331.911 622.476"/>
  <text class="cls-7" transform="translate(132.156 572.671)"><tspan x="0" y="0">n번째 반티 후보의</tspan><tspan x="42.847" y="33">점수 입력</tspan></text>
  <g>
    <polyline class="cls-3" points="221.914 754.156 221.914 797.607 1.5 797.607 1.5 299.888 67.212 299.888"/>
    <polygon class="cls-1" points="65.461 305.871 75.823 299.888 65.461 293.905 65.461 305.871"/>
  </g>
  <rect class="cls-4" x="66.302" y="657.886" width="311.223" height="95.683"/>
  <text class="cls-7" transform="translate(97.023 697.857)"><tspan x="0" y="0">n번째 반티 후보의 점수를</tspan><tspan x="21.026" y="33">반티 총점에 누적하기</tspan></text>
</svg>