<?xml version="1.0" encoding="UTF-8"?>
<svg id="_레이어_1" data-name="레이어 1" xmlns="http://www.w3.org/2000/svg" viewBox="0 0 801.878 1027.69">
  <defs>
    <style>
      .cls-1 {
        fill: #de672b;
      }

      .cls-1, .cls-2, .cls-3, .cls-4, .cls-5 {
        stroke-width: 0px;
      }

      .cls-6 {
        font-size: 28px;
        letter-spacing: -.025em;
      }

      .cls-6, .cls-7 {
        font-family: Pretendard-Bold-KSCpc-EUC-H, Pretendard;
        font-weight: 700;
      }

      .cls-3, .cls-8 {
        fill: #ffd0a1;
      }

      .cls-7 {
        font-size: 26px;
        letter-spacing: -.025em;
      }

      .cls-9 {
        fill: #caebfc;
        stroke: #3295c3;
      }

      .cls-9, .cls-10, .cls-11, .cls-8, .cls-12 {
        stroke-miterlimit: 10;
      }

      .cls-9, .cls-11 {
        stroke-width: 2px;
      }

      .cls-10 {
        stroke: #000;
      }

      .cls-10, .cls-8, .cls-12 {
        stroke-width: 3px;
      }

      .cls-10, .cls-12 {
        fill: none;
      }

      .cls-4 {
        fill: #fff;
      }

      .cls-11 {
        fill: #ccbef4;
        stroke: #8c7bc6;
      }

      .cls-8, .cls-12 {
        stroke: #de672b;
      }

      .cls-5 {
        fill: #fff0dc;
      }
    </style>
  </defs>
  <path class="cls-4" d="m526.034,1026.19h254.344c11.046,0,20-9.352,20-20.889V52.389c0-11.537-8.954-20.889-20-20.889H21.5c-11.046,0-20,9.352-20,20.889v952.911c0,11.537,8.954,20.889,20,20.889h504.534Z"/>
  <g>
    <g>
      <g>
        <rect class="cls-5" x="327.306" y="470.13" width="443.104" height="493.732" rx="20" ry="20"/>
        <path class="cls-1" d="m750.411,965.362h-5v-3h5v3Zm-10,0h-5v-3h5v3Zm-10,0h-5v-3h5v3Zm-10,0h-5v-3h5v3Zm-10,0h-5v-3h5v3Zm-10,0h-5v-3h5v3Zm-10,0h-5v-3h5v3Zm-10,0h-5v-3h5v3Zm-10,0h-5v-3h5v3Zm-10,0h-5v-3h5v3Zm-10,0h-5v-3h5v3Zm-10,0h-5v-3h5v3Zm-10,0h-5v-3h5v3Zm-10,0h-5v-3h5v3Zm-10,0h-5v-3h5v3Zm-10,0h-5v-3h5v3Zm-10,0h-5v-3h5v3Zm-10,0h-5v-3h5v3Zm-10,0h-5v-3h5v3Zm-10,0h-5v-3h5v3Zm-10,0h-5v-3h5v3Zm-10,0h-5v-3h5v3Zm-10,0h-5v-3h5v3Zm-10,0h-5v-3h5v3Zm-10,0h-5v-3h5v3Zm-10,0h-5v-3h5v3Zm-10,0h-5v-3h5v3Zm-10,0h-5v-3h5v3Zm-10,0h-5v-3h5v3Zm-10,0h-5v-3h5v3Zm-10,0h-5v-3h5v3Zm-10,0h-5v-3h5v3Zm-10,0h-5v-3h5v3Zm-10,0h-5v-3h5v3Zm-10,0h-5v-3h5v3Zm-10,0h-5v-3h5v3Zm-10,0h-5v-3h5v3Zm-10,0h-5v-3h5v3Zm-10,0h-5v-3h5v3Zm-10,0h-5v-3h5v3Zm-10,0h-3.104c-.677,0-1.361-.032-2.033-.096l.283-2.986c.578.055,1.167.083,1.75.083h3.104v3Zm404.588-.496l-.643-2.931c1.502-.329,2.963-.85,4.341-1.546l1.354,2.677c-1.604.811-3.303,1.417-5.052,1.8Zm-414.961-.776c-1.683-.609-3.288-1.43-4.772-2.44l1.688-2.48c1.277.87,2.659,1.576,4.106,2.1l-1.021,2.821Zm424.456-4.015l-1.969-2.263c1.165-1.015,2.203-2.171,3.083-3.437l2.463,1.713c-1.021,1.469-2.225,2.81-3.577,3.986Zm-433.253-1.96c-1.191-1.341-2.214-2.826-3.037-4.413l2.662-1.382c.71,1.367,1.59,2.646,2.617,3.801l-2.242,1.993Zm439.32-6.773l-2.811-1.05c.54-1.444.896-2.954,1.059-4.487l2.982.315c-.188,1.784-.603,3.541-1.23,5.221Zm-444.21-2.671c-.362-1.573-.546-3.19-.545-4.81v-.488h3v.489c0,1.393.156,2.783.469,4.134l-2.924.675Zm445.56-7.703h-3v-5h3v5Zm-443.104-2.595h-3v-5h3v5Zm443.104-7.405h-3v-5h3v5Zm-443.104-2.595h-3v-5h3v5Zm443.104-7.405h-3v-5h3v5Zm-443.104-2.595h-3v-5h3v5Zm443.104-7.405h-3v-5h3v5Zm-443.104-2.595h-3v-5h3v5Zm443.104-7.405h-3v-5h3v5Zm-443.104-2.595h-3v-5h3v5Zm443.104-7.405h-3v-5h3v5Zm-443.104-2.595h-3v-5h3v5Zm443.104-7.405h-3v-5h3v5Zm-443.104-2.595h-3v-5h3v5Zm443.104-7.405h-3v-5h3v5Zm-443.104-2.595h-3v-5h3v5Zm443.104-7.405h-3v-5h3v5Zm-443.104-2.595h-3v-5h3v5Zm443.104-7.405h-3v-5h3v5Zm-443.104-2.595h-3v-5h3v5Zm443.104-7.405h-3v-5h3v5Zm-443.104-2.595h-3v-5h3v5Zm443.104-7.405h-3v-5h3v5Zm-443.104-2.595h-3v-5h3v5Zm443.104-7.405h-3v-5h3v5Zm-443.104-2.595h-3v-5h3v5Zm443.104-7.405h-3v-5h3v5Zm-443.104-2.595h-3v-5h3v5Zm443.104-7.405h-3v-5h3v5Zm-443.104-2.595h-3v-5h3v5Zm443.104-7.405h-3v-5h3v5Zm-443.104-2.595h-3v-5h3v5Zm443.104-7.405h-3v-5h3v5Zm-443.104-2.595h-3v-5h3v5Zm443.104-7.405h-3v-5h3v5Zm-443.104-2.595h-3v-5h3v5Zm443.104-7.405h-3v-5h3v5Zm-443.104-2.595h-3v-5h3v5Zm443.104-7.405h-3v-5h3v5Zm-443.104-2.595h-3v-5h3v5Zm443.104-7.405h-3v-5h3v5Zm-443.104-2.595h-3v-5h3v5Zm443.104-7.405h-3v-5h3v5Zm-443.104-2.595h-3v-5h3v5Zm443.104-7.405h-3v-5h3v5Zm-443.104-2.595h-3v-5h3v5Zm443.104-7.405h-3v-5h3v5Zm-443.104-2.595h-3v-5h3v5Zm443.104-7.405h-3v-5h3v5Zm-443.104-2.595h-3v-5h3v5Zm443.104-7.405h-3v-5h3v5Zm-443.104-2.595h-3v-5h3v5Zm443.104-7.405h-3v-5h3v5Zm-443.104-2.595h-3v-5h3v5Zm443.104-7.405h-3v-5h3v5Zm-443.104-2.595h-3v-5h3v5Zm443.104-7.405h-3v-5h3v5Zm-443.104-2.595h-3v-5h3v5Zm443.104-7.405h-3v-5h3v5Zm-443.104-2.595h-3v-5h3v5Zm443.104-7.405h-3v-5h3v5Zm-443.104-2.595h-3v-5h3v5Zm443.104-7.405h-3v-5h3v5Zm-443.104-2.595h-3v-5h3v5Zm443.104-7.405h-3v-5h3v5Zm-443.104-2.595h-3v-5h3v5Zm443.104-7.405h-3v-5h3v5Zm-443.104-2.595h-3v-5h3v5Zm443.104-7.405h-3v-5h3v5Zm-443.104-2.595h-3v-5h3v5Zm443.104-7.405h-3v-5h3v5Zm-443.104-2.595h-3v-5h3v5Zm443.104-7.405h-3v-5h3v5Zm-443.104-2.595h-3v-5h3v5Zm443.104-7.405h-3v-5h3v5Zm-443.104-2.595h-3v-5h3v5Zm443.104-7.405h-3v-5h3v5Zm-443.104-2.595h-3v-5h3v5Zm443.104-7.405h-3v-5h3v5Zm-443.104-2.595h-3v-5h3v5Zm443.104-7.405h-3v-5h3v5Zm-443.104-2.595h-3v-5h3v5Zm443.104-7.405h-3v-5h3v5Zm-443.104-2.595h-3v-5h3v5Zm443.104-7.405h-3v-5h3v5Zm-443.104-2.595h-3v-5h3v5Zm443.104-7.405h-3v-5h3v5Zm-443.104-2.595h-3v-5h3v5Zm443.104-7.405h-3v-5h3v5Zm-443.104-2.595h-3v-5h3v5Zm443.104-7.405h-3v-.838c0-1.288-.134-2.572-.399-3.819l2.936-.623c.308,1.451.464,2.945.464,4.442v.838Zm-443.033-2.461l-2.988-.262c.156-1.788.54-3.552,1.139-5.243l2.828,1.001c-.515,1.453-.844,2.969-.979,4.504Zm438.119-6.547c-.687-1.38-1.545-2.674-2.551-3.846l2.277-1.954c1.167,1.36,2.162,2.862,2.959,4.464l-2.686,1.336Zm-435.07-2.078l-2.492-1.67c.995-1.486,2.176-2.848,3.508-4.048l2.008,2.229c-1.148,1.035-2.165,2.208-3.023,3.489Zm429.106-4.875c-1.265-.892-2.635-1.623-4.071-2.171l1.07-2.803c1.671.638,3.262,1.487,4.729,2.523l-1.729,2.451Zm-422.3-1.255l-1.4-2.653c1.59-.838,3.278-1.474,5.019-1.888l.695,2.918c-1.496.356-2.947.903-4.313,1.624Zm413.75-2.005c-.684-.077-1.38-.116-2.072-.116h-2.755v-3h2.755c.804,0,1.614.045,2.408.135l-.336,2.981Zm-9.827-.116h-5v-3h5v3Zm-10,0h-5v-3h5v3Zm-10,0h-5v-3h5v3Zm-10,0h-5v-3h5v3Zm-10,0h-5v-3h5v3Zm-10,0h-5v-3h5v3Zm-10,0h-5v-3h5v3Zm-10,0h-5v-3h5v3Zm-10,0h-5v-3h5v3Zm-10,0h-5v-3h5v3Zm-10,0h-5v-3h5v3Zm-10,0h-5v-3h5v3Zm-10,0h-5v-3h5v3Zm-10,0h-5v-3h5v3Zm-10,0h-5v-3h5v3Zm-10,0h-5v-3h5v3Zm-10,0h-5v-3h5v3Zm-10,0h-5v-3h5v3Zm-10,0h-5v-3h5v3Zm-10,0h-5v-3h5v3Zm-10,0h-5v-3h5v3Zm-10,0h-5v-3h5v3Zm-10,0h-5v-3h5v3Zm-10,0h-5v-3h5v3Zm-10,0h-5v-3h5v3Zm-10,0h-5v-3h5v3Zm-10,0h-5v-3h5v3Zm-10,0h-5v-3h5v3Zm-10,0h-5v-3h5v3Zm-10,0h-5v-3h5v3Zm-10,0h-5v-3h5v3Zm-10,0h-5v-3h5v3Zm-10,0h-5v-3h5v3Zm-10,0h-5v-3h5v3Zm-10,0h-5v-3h5v3Zm-10,0h-5v-3h5v3Zm-10,0h-5v-3h5v3Zm-10,0h-5v-3h5v3Zm-10,0h-5v-3h5v3Zm-10,0h-5v-3h5v3Z"/>
      </g>
      <g>
        <g>
          <rect class="cls-3" x="531.623" y="933.863" width="208.788" height="60" rx="30" ry="30"/>
          <path class="cls-1" d="m710.411,995.362h-5v-3h5v3Zm-10,0h-5v-3h5v3Zm-10,0h-5v-3h5v3Zm-10,0h-5v-3h5v3Zm-10,0h-5v-3h5v3Zm-10,0h-5v-3h5v3Zm-10,0h-5v-3h5v3Zm-10,0h-5v-3h5v3Zm-10,0h-5v-3h5v3Zm-10,0h-5v-3h5v3Zm-10,0h-5v-3h5v3Zm-10,0h-5v-3h5v3Zm-10,0h-5v-3h5v3Zm-10,0h-5v-3h5v3Zm-10,0h-5v-3h5v3Zm141.2-.022l-.113-2.998c1.583-.059,3.168-.251,4.709-.569l.607,2.938c-1.704.352-3.455.563-5.203.629Zm-151.259-.002c-1.75-.07-3.5-.286-5.201-.641l.613-2.937c1.539.322,3.123.517,4.707.58l-.119,2.998Zm161.489-2.114l-1.088-2.796c1.467-.571,2.898-1.271,4.257-2.083l1.539,2.575c-1.501.897-3.085,1.673-4.708,2.304Zm-171.72-.026c-1.626-.638-3.209-1.418-4.706-2.318l1.547-2.571c1.354.814,2.785,1.52,4.255,2.096l-1.096,2.793Zm180.688-5.331l-1.943-2.285c1.203-1.023,2.329-2.154,3.347-3.362l2.295,1.933c-1.125,1.335-2.369,2.584-3.698,3.715Zm-189.646-.052c-1.326-1.134-2.567-2.387-3.688-3.724l2.299-1.928c1.015,1.21,2.139,2.345,3.339,3.371l-1.949,2.28Zm196.379-7.938l-2.582-1.527c.806-1.362,1.501-2.799,2.065-4.27l2.801,1.075c-.625,1.627-1.394,3.216-2.284,4.722Zm-203.09-.067c-.885-1.504-1.648-3.094-2.271-4.724l2.803-1.069c.562,1.475,1.253,2.912,2.054,4.272l-2.586,1.521Zm206.838-9.693l-2.941-.593c.311-1.542.494-3.127.547-4.712l2.998.099c-.058,1.75-.261,3.502-.604,5.206Zm-210.561-.07c-.338-1.703-.537-3.454-.592-5.206l2.998-.094c.05,1.587.23,3.174.536,4.715l-2.942.585Zm207.933-9.975c-.208-1.567-.55-3.125-1.016-4.631l2.867-.886c.515,1.666.892,3.389,1.123,5.122l-2.975.396Zm-205.281-.063l-2.973-.401c.233-1.729.614-3.451,1.133-5.119l2.865.892c-.47,1.508-.814,3.065-1.025,4.629Zm202.492-8.965c-.711-1.409-1.546-2.768-2.481-4.041l2.416-1.777c1.034,1.407,1.957,2.909,2.743,4.466l-2.678,1.352Zm-199.681-.059l-2.676-1.358c.79-1.554,1.716-3.055,2.754-4.461l2.414,1.782c-.94,1.272-1.778,2.63-2.492,4.037Zm194.083-7.559c-1.136-1.103-2.369-2.117-3.666-3.015l1.707-2.467c1.433.992,2.795,2.112,4.049,3.33l-2.09,2.152Zm-188.465-.049l-2.086-2.156c1.257-1.216,2.622-2.333,4.058-3.32l1.699,2.472c-1.298.893-2.533,1.904-3.671,3.004Zm180.686-5.332c-1.429-.671-2.925-1.225-4.448-1.647l.803-2.891c1.685.467,3.34,1.081,4.921,1.822l-1.275,2.716Zm-172.898-.028l-1.268-2.719c1.583-.738,3.239-1.347,4.921-1.81l.796,2.893c-1.521.418-3.018.969-4.449,1.636Zm163.79-2.5c-.98-.102-1.982-.154-2.977-.154h-1.861v-3h1.861c1.098,0,2.203.057,3.287.169l-.311,2.984Zm-154.68-.007l-.303-2.984c1.06-.108,2.142-.163,3.218-.163h1.927v3h-1.927c-.975,0-1.955.049-2.915.147Zm144.842-.147h-5v-3h5v3Zm-10,0h-5v-3h5v3Zm-10,0h-5v-3h5v3Zm-10,0h-5v-3h5v3Zm-10,0h-5v-3h5v3Zm-10,0h-5v-3h5v3Zm-10,0h-5v-3h5v3Zm-10,0h-5v-3h5v3Zm-10,0h-5v-3h5v3Zm-10,0h-5v-3h5v3Zm-10,0h-5v-3h5v3Zm-10,0h-5v-3h5v3Zm-10,0h-5v-3h5v3Zm-10,0h-5v-3h5v3Z"/>
        </g>
        <text class="cls-6" transform="translate(559.314 973.067)"><tspan x="0" y="0">안쪽 선택 구조</tspan></text>
      </g>
      <path class="cls-12" d="m526.034,1026.19h254.344c11.046,0,20-9.352,20-20.889V52.389c0-11.537-8.954-20.889-20-20.889H21.5c-11.046,0-20,9.352-20,20.889v952.911c0,11.537,8.954,20.889,20,20.889h504.534Z"/>
    </g>
    <g>
      <g>
        <polyline class="cls-10" points="399.602 98.424 158.958 98.424 158.958 541.074"/>
        <polygon class="cls-2" points="397.852 92.441 408.213 98.424 397.852 104.407 397.852 92.441"/>
      </g>
      <rect class="cls-9" x="415.267" y="61.552" width="257.219" height="73.746"/>
      <g>
        <line class="cls-10" x1="408.213" y1="577.041" x2="301.635" y2="577.041"/>
        <polygon class="cls-2" points="303.386 571.058 293.025 577.041 303.386 583.024 303.386 571.058"/>
      </g>
      <g>
        <line class="cls-10" x1="543.88" y1="135.37" x2="543.88" y2="163.91"/>
        <polygon class="cls-2" points="537.896 162.16 543.88 172.521 549.863 162.16 537.896 162.16"/>
      </g>
      <g>
        <line class="cls-10" x1="543.88" y1="437.563" x2="543.88" y2="494.593"/>
        <polygon class="cls-2" points="537.896 492.842 543.88 503.204 549.863 492.842 537.896 492.842"/>
      </g>
      <g>
        <line class="cls-10" x1="547.88" y1="777.623" x2="547.88" y2="817.202"/>
        <polygon class="cls-2" points="541.897 815.451 547.88 825.812 553.863 815.451 541.897 815.451"/>
      </g>
      <text class="cls-7" transform="translate(460.773 106.781)"><tspan x="0" y="0">‘단’을 1로 정하기</tspan></text>
      <rect class="cls-9" x="388.269" y="363.844" width="311.223" height="73.746"/>
      <text class="cls-7" transform="translate(425.371 409.071)"><tspan x="0" y="0">‘곱하는 수’를 1로 정하기</tspan></text>
      <rect class="cls-9" x="30.024" y="540.158" width="257.219" height="73.746"/>
      <text class="cls-7" transform="translate(71.15 585.395)"><tspan x="0" y="0">단에 1만큼 더하기</tspan></text>
      <g>
        <line class="cls-10" x1="543.88" y1="314.596" x2="543.88" y2="348.963"/>
        <polygon class="cls-2" points="537.896 347.213 543.88 357.574 549.863 347.213 537.896 347.213"/>
      </g>
      <polygon class="cls-11" points="543.88 177.965 402.958 246.28 543.88 314.596 684.802 246.28 543.88 177.965"/>
      <text class="cls-7" transform="translate(500.121 239.628)"><tspan x="0" y="0">9번 반복</tspan><tspan x="-6.881" y="30">하였는가?</tspan></text>
      <text class="cls-7" transform="translate(565.088 343.567)"><tspan x="0" y="0">아니요</tspan></text>
      <rect class="cls-9" x="392.269" y="705.638" width="311.223" height="73.746"/>
      <text class="cls-7" transform="translate(411.189 750.865)"><tspan x="0" y="0">‘단’x ‘곱하는 수’를 출력하기</tspan></text>
      <g>
        <line class="cls-10" x1="547.88" y1="645.357" x2="547.88" y2="688.872"/>
        <polygon class="cls-2" points="541.897 687.121 547.88 697.483 553.863 687.121 541.897 687.121"/>
      </g>
      <text class="cls-7" transform="translate(569.088 679.29)"><tspan x="0" y="0">아니요</tspan></text>
      <rect class="cls-9" x="392.269" y="832.082" width="311.223" height="73.746"/>
      <text class="cls-7" transform="translate(440.282 877.309)"><tspan x="0" y="0">‘곱하는 수’에 1 더하기</tspan></text>
      <text class="cls-7" transform="translate(357.538 561.075)"><tspan x="0" y="0">예</tspan></text>
      <g>
        <polygon class="cls-11" points="547.88 508.726 406.959 577.041 547.88 645.357 688.802 577.041 547.88 508.726"/>
        <text class="cls-7" transform="translate(504.121 570.388)"><tspan x="0" y="0">9번 반복</tspan><tspan x="-6.881" y="30">하였는가?</tspan></text>
      </g>
    </g>
  </g>
  <g>
    <rect class="cls-8" x="61.3" y="1.5" width="210" height="60" rx="30" ry="30"/>
    <text class="cls-6" transform="translate(89.597 40.704)"><tspan x="0" y="0">바깥 선택 구조</tspan></text>
  </g>
</svg>