<?xml version="1.0" encoding="UTF-8"?>
<svg id="_레이어_1" data-name="레이어 1" xmlns="http://www.w3.org/2000/svg" viewBox="0 0 760.548 612.953">
  <defs>
    <style>
      .cls-1 {
        fill: #de672b;
      }

      .cls-1, .cls-2, .cls-3, .cls-4, .cls-5 {
        stroke-width: 0px;
      }

      .cls-6 {
        font-size: 28px;
        letter-spacing: -.025em;
      }

      .cls-6, .cls-7 {
        font-family: Pretendard-Bold-KSCpc-EUC-H, Pretendard;
        font-weight: 700;
      }

      .cls-3, .cls-8 {
        fill: #ffd0a1;
      }

      .cls-7 {
        font-size: 26px;
        letter-spacing: -.025em;
      }

      .cls-9 {
        fill: #caebfc;
        stroke: #3295c3;
      }

      .cls-9, .cls-10, .cls-11, .cls-8, .cls-12 {
        stroke-miterlimit: 10;
      }

      .cls-9, .cls-11 {
        stroke-width: 2px;
      }

      .cls-10 {
        stroke: #000;
      }

      .cls-10, .cls-8, .cls-12 {
        stroke-width: 3px;
      }

      .cls-10, .cls-12 {
        fill: none;
      }

      .cls-4 {
        fill: #fff;
      }

      .cls-11 {
        fill: #ccbef4;
        stroke: #8c7bc6;
      }

      .cls-8, .cls-12 {
        stroke: #de672b;
      }

      .cls-5 {
        fill: #fff0dc;
      }
    </style>
  </defs>
  <path class="cls-4" d="m739.048,31.5H21.5c-11.046,0-20,9.353-20,20.889v505.427c0,11.537,8.954,20.889,20,20.889h717.548c11.046,0,20-9.353,20-20.889V52.389c0-11.537-8.954-20.889-20-20.889Z"/>
  <g>
    <g>
      <g>
        <rect class="cls-5" x="273.081" y="91.805" width="456" height="381.871" rx="20" ry="20"/>
        <path class="cls-1" d="m709.102,475.176h-5.021v-3h5c.406-.018.852-.015,1.272-.043l.205,2.993c-.48.033-.968.05-1.457.05Zm-10.021,0h-5v-3h5v3Zm-10,0h-5v-3h5v3Zm-10,0h-5v-3h5v3Zm-10,0h-5v-3h5v3Zm-10,0h-5v-3h5v3Zm-10,0h-5v-3h5v3Zm-10,0h-5v-3h5v3Zm-10,0h-5v-3h5v3Zm-10,0h-5v-3h5v3Zm-10,0h-5v-3h5v3Zm-10,0h-5v-3h5v3Zm-10,0h-5v-3h5v3Zm-10,0h-5v-3h5v3Zm-10,0h-5v-3h5v3Zm-10,0h-5v-3h5v3Zm-10,0h-5v-3h5v3Zm-10,0h-5v-3h5v3Zm-10,0h-5v-3h5v3Zm-10,0h-5v-3h5v3Zm-10,0h-5v-3h5v3Zm-10,0h-5v-3h5v3Zm-10,0h-5v-3h5v3Zm-10,0h-5v-3h5v3Zm-10,0h-5v-3h5v3Zm-10,0h-5v-3h5v3Zm-10,0h-5v-3h5v3Zm-10,0h-5v-3h5v3Zm-10,0h-5v-3h5v3Zm-10,0h-5v-3h5v3Zm-10,0h-5v-3h5v3Zm-10,0h-5v-3h5v3Zm-10,0h-5v-3h5v3Zm-10,0h-5v-3h5v3Zm-10,0h-5v-3h5v3Zm-10,0h-5v-3h5v3Zm-10,0h-5v-3h5v3Zm-10,0h-5v-3h5v3Zm-10,0h-5v-3h5v3Zm-10,0h-5v-3h5v3Zm-10,0h-5v-3h5v3Zm-10,0h-5v-3h5v3Zm-10.27-.429c-1.756-.357-3.465-.937-5.08-1.723l1.312-2.697c1.389.676,2.857,1.174,4.365,1.481l-.598,2.939Zm427.01-.659l-.945-2.847c1.456-.484,2.854-1.153,4.155-1.99l1.623,2.523c-1.513.972-3.139,1.75-4.833,2.313Zm-436.58-3.989c-1.367-1.155-2.591-2.478-3.636-3.933l2.438-1.75c.9,1.254,1.955,2.395,3.134,3.391l-1.936,2.292Zm445.525-1.754l-2.191-2.05c1.057-1.129,1.97-2.385,2.716-3.734l2.625,1.451c-.865,1.565-1.925,3.023-3.149,4.333Zm-451.72-6.886c-.653-1.668-1.094-3.418-1.312-5.199l2.979-.363c.187,1.531.565,3.035,1.126,4.469l-2.793,1.093Zm456.855-2.429l-2.904-.751c.384-1.487.58-3.025.583-4.572l3,.005c-.003,1.799-.231,3.588-.679,5.318Zm-455.321-7.945h-3v-5h3v5Zm456-2.375h-3v-5h3v5Zm-456-7.625h-3v-5h3v5Zm456-2.375h-3v-5h3v5Zm-456-7.625h-3v-5h3v5Zm456-2.375h-3v-5h3v5Zm-456-7.625h-3v-5h3v5Zm456-2.375h-3v-5h3v5Zm-456-7.625h-3v-5h3v5Zm456-2.375h-3v-5h3v5Zm-456-7.625h-3v-5h3v5Zm456-2.375h-3v-5h3v5Zm-456-7.625h-3v-5h3v5Zm456-2.375h-3v-5h3v5Zm-456-7.625h-3v-5h3v5Zm456-2.375h-3v-5h3v5Zm-456-7.625h-3v-5h3v5Zm456-2.375h-3v-5h3v5Zm-456-7.625h-3v-5h3v5Zm456-2.375h-3v-5h3v5Zm-456-7.625h-3v-5h3v5Zm456-2.375h-3v-5h3v5Zm-456-7.625h-3v-5h3v5Zm456-2.375h-3v-5h3v5Zm-456-7.625h-3v-5h3v5Zm456-2.375h-3v-5h3v5Zm-456-7.625h-3v-5h3v5Zm456-2.375h-3v-5h3v5Zm-456-7.625h-3v-5h3v5Zm456-2.375h-3v-5h3v5Zm-456-7.625h-3v-5h3v5Zm456-2.375h-3v-5h3v5Zm-456-7.625h-3v-5h3v5Zm456-2.375h-3v-5h3v5Zm-456-7.625h-3v-5h3v5Zm456-2.375h-3v-5h3v5Zm-456-7.625h-3v-5h3v5Zm456-2.375h-3v-5h3v5Zm-456-7.625h-3v-5h3v5Zm456-2.375h-3v-5h3v5Zm-456-7.625h-3v-5h3v5Zm456-2.375h-3v-5h3v5Zm-456-7.625h-3v-5h3v5Zm456-2.375h-3v-5h3v5Zm-456-7.625h-3v-5h3v5Zm456-2.375h-3v-5h3v5Zm-456-7.625h-3v-5h3v5Zm456-2.375h-3v-5h3v5Zm-456-7.625h-3v-5h3v5Zm456-2.375h-3v-5h3v5Zm-456-7.625h-3v-5h3v5Zm456-2.375h-3v-5h3v5Zm-456-7.625h-3v-5h3v5Zm456-2.375h-3v-5h3v5Zm-456-7.625h-3v-5h3v5Zm456-2.375h-3v-5h3v5Zm-456-7.625h-3v-5h3v5Zm456-2.375h-3v-5h3v5Zm-456-7.625h-3v-5h3v5Zm456-2.375h-3v-5h3v5Zm-456-7.625h-3v-5h3v5Zm456-2.375h-3v-5h3v5Zm-456-7.625h-3v-5h3v5Zm456-2.375h-3v-5h3v5Zm-456-7.625h-3v-5h3v5Zm456-2.375h-3v-5h3v5Zm-456-7.625h-3v-5h3v5Zm456-2.375h-3v-5h3v5Zm-455.988-7.571l-2.998-.106c.063-1.795.354-3.575.862-5.292l2.877.852c-.437,1.475-.687,3.005-.741,4.547Zm452.768-2.184c-.237-1.522-.668-3.011-1.279-4.427l2.754-1.189c.712,1.647,1.213,3.381,1.49,5.152l-2.965.464Zm-450.174-6.586l-2.574-1.54c.918-1.535,2.026-2.956,3.295-4.223l2.119,2.123c-1.093,1.092-2.049,2.316-2.84,3.64Zm446.552-1.815c-.94-1.222-2.033-2.326-3.246-3.282l1.857-2.356c1.407,1.109,2.674,2.391,3.766,3.809l-2.377,1.83Zm-440.067-4.658l-1.535-2.577c1.544-.92,3.197-1.642,4.912-2.147l.848,2.878c-1.475.434-2.896,1.055-4.225,1.846Zm432.87-1.009c-1.408-.627-2.893-1.074-4.413-1.329l.496-2.959c1.77.296,3.498.817,5.138,1.546l-1.221,2.741Zm-424.098-1.571l-.102-2.998c.245-.008.491-.013.739-.013h4.312v3h-4.312c-.213,0-.426.003-.638.011Zm414.95-.011h-5v-3h5v3Zm-10,0h-5v-3h5v3Zm-10,0h-5v-3h5v3Zm-10,0h-5v-3h5v3Zm-10,0h-5v-3h5v3Zm-10,0h-5v-3h5v3Zm-10,0h-5v-3h5v3Zm-10,0h-5v-3h5v3Zm-10,0h-5v-3h5v3Zm-10,0h-5v-3h5v3Zm-10,0h-5v-3h5v3Zm-10,0h-5v-3h5v3Zm-10,0h-5v-3h5v3Zm-10,0h-5v-3h5v3Zm-10,0h-5v-3h5v3Zm-10,0h-5v-3h5v3Zm-10,0h-5v-3h5v3Zm-10,0h-5v-3h5v3Zm-10,0h-5v-3h5v3Zm-10,0h-5v-3h5v3Zm-10,0h-5v-3h5v3Zm-10,0h-5v-3h5v3Zm-10,0h-5v-3h5v3Zm-10,0h-5v-3h5v3Zm-10,0h-5v-3h5v3Zm-10,0h-5v-3h5v3Zm-10,0h-5v-3h5v3Zm-10,0h-5v-3h5v3Zm-10,0h-5v-3h5v3Zm-10,0h-5v-3h5v3Zm-10,0h-5v-3h5v3Zm-10,0h-5v-3h5v3Zm-10,0h-5v-3h5v3Zm-10,0h-5v-3h5v3Zm-10,0h-5v-3h5v3Zm-10,0h-5v-3h5v3Zm-10,0h-5v-3h5v3Zm-10,0h-5v-3h5v3Zm-10,0h-5v-3h5v3Zm-10,0h-5v-3h5v3Zm-10,0h-5v-3h5v3Z"/>
      </g>
      <g>
        <g>
          <rect class="cls-3" x="396.687" y="443.676" width="208.788" height="60" rx="30" ry="30"/>
          <path class="cls-1" d="m575.475,505.176h-5v-3h5v3Zm-10,0h-5v-3h5v3Zm-10,0h-5v-3h5v3Zm-10,0h-5v-3h5v3Zm-10,0h-5v-3h5v3Zm-10,0h-5v-3h5v3Zm-10,0h-5v-3h5v3Zm-10,0h-5v-3h5v3Zm-10,0h-5v-3h5v3Zm-10,0h-5v-3h5v3Zm-10,0h-5v-3h5v3Zm-10,0h-5v-3h5v3Zm-10,0h-5v-3h5v3Zm-10,0h-5v-3h5v3Zm-10,0h-5v-3h5v3Zm141.2-.022l-.113-2.998c1.583-.059,3.168-.251,4.709-.569l.607,2.938c-1.704.352-3.455.563-5.203.629Zm-151.259-.002c-1.75-.07-3.5-.286-5.201-.641l.613-2.937c1.539.322,3.123.517,4.707.58l-.119,2.998Zm161.489-2.114l-1.088-2.796c1.467-.571,2.898-1.271,4.257-2.083l1.539,2.575c-1.501.897-3.085,1.673-4.708,2.304Zm-171.72-.026c-1.626-.638-3.209-1.418-4.706-2.318l1.547-2.571c1.354.814,2.785,1.52,4.255,2.096l-1.096,2.793Zm180.688-5.331l-1.943-2.285c1.203-1.023,2.329-2.154,3.347-3.362l2.295,1.933c-1.125,1.335-2.369,2.584-3.698,3.715Zm-189.646-.052c-1.326-1.134-2.567-2.387-3.688-3.724l2.299-1.928c1.015,1.21,2.139,2.345,3.339,3.371l-1.949,2.28Zm196.379-7.938l-2.582-1.527c.806-1.362,1.501-2.799,2.065-4.27l2.801,1.075c-.625,1.627-1.394,3.216-2.284,4.722Zm-203.09-.067c-.885-1.504-1.648-3.094-2.271-4.724l2.803-1.069c.562,1.475,1.253,2.912,2.054,4.272l-2.586,1.521Zm206.838-9.693l-2.941-.593c.311-1.542.494-3.127.547-4.712l2.998.099c-.058,1.75-.261,3.502-.604,5.206Zm-210.561-.07c-.338-1.703-.537-3.454-.592-5.206l2.998-.094c.05,1.587.23,3.174.536,4.715l-2.942.585Zm207.933-9.975c-.208-1.567-.55-3.125-1.016-4.631l2.867-.886c.515,1.666.892,3.389,1.123,5.122l-2.975.396Zm-205.281-.063l-2.973-.401c.233-1.729.614-3.451,1.133-5.119l2.865.892c-.47,1.508-.814,3.065-1.025,4.629Zm202.492-8.965c-.711-1.409-1.546-2.768-2.481-4.041l2.416-1.777c1.034,1.407,1.957,2.909,2.743,4.466l-2.678,1.352Zm-199.681-.059l-2.676-1.358c.79-1.554,1.716-3.055,2.754-4.461l2.414,1.782c-.94,1.272-1.778,2.63-2.492,4.037Zm194.083-7.559c-1.136-1.103-2.369-2.117-3.666-3.015l1.707-2.467c1.433.992,2.795,2.112,4.049,3.33l-2.09,2.152Zm-188.465-.049l-2.086-2.156c1.257-1.216,2.622-2.333,4.058-3.32l1.699,2.472c-1.298.893-2.533,1.904-3.671,3.004Zm180.686-5.332c-1.429-.671-2.925-1.225-4.448-1.647l.803-2.891c1.685.467,3.34,1.081,4.921,1.822l-1.275,2.716Zm-172.898-.028l-1.268-2.719c1.583-.738,3.239-1.347,4.921-1.81l.796,2.893c-1.521.418-3.018.969-4.449,1.636Zm163.79-2.5c-.98-.102-1.982-.154-2.977-.154h-1.861v-3h1.861c1.098,0,2.203.057,3.287.169l-.311,2.984Zm-154.68-.007l-.303-2.984c1.06-.108,2.142-.163,3.218-.163h1.927v3h-1.927c-.975,0-1.955.049-2.915.147Zm144.842-.147h-5v-3h5v3Zm-10,0h-5v-3h5v3Zm-10,0h-5v-3h5v3Zm-10,0h-5v-3h5v3Zm-10,0h-5v-3h5v3Zm-10,0h-5v-3h5v3Zm-10,0h-5v-3h5v3Zm-10,0h-5v-3h5v3Zm-10,0h-5v-3h5v3Zm-10,0h-5v-3h5v3Zm-10,0h-5v-3h5v3Zm-10,0h-5v-3h5v3Zm-10,0h-5v-3h5v3Zm-10,0h-5v-3h5v3Z"/>
        </g>
        <text class="cls-6" transform="translate(424.378 482.88)"><tspan x="0" y="0">안쪽 선택 구조</tspan></text>
      </g>
    </g>
    <g>
      <line class="cls-10" x1="152.449" y1="262.128" x2="152.449" y2="602.19"/>
      <polygon class="cls-2" points="144.969 600.001 152.449 612.953 159.928 600.001 144.969 600.001"/>
    </g>
    <text class="cls-7" transform="translate(64.734 297.741)"><tspan x="0" y="0">아니요</tspan></text>
    <g>
      <line class="cls-10" x1="152.449" y1="12.171" x2="152.449" y2="117.349"/>
      <polygon class="cls-2" points="144.969 115.16 152.449 128.113 159.928 115.16 144.969 115.16"/>
    </g>
    <g>
      <path class="cls-12" d="m167.242,578.705h571.806c11.046,0,20-9.352,20-20.889V52.389c0-11.537-8.954-20.889-20-20.889H167.242"/>
      <path class="cls-12" d="m137.435,31.5H21.5c-11.046,0-20,9.352-20,20.889v505.427c0,11.537,8.954,20.889,20,20.889h115.935"/>
    </g>
    <g>
      <line class="cls-10" x1="514.79" y1="259.708" x2="514.79" y2="300.936"/>
      <polygon class="cls-2" points="508.807 299.185 514.79 309.547 520.773 299.185 508.807 299.185"/>
    </g>
    <g>
      <line class="cls-10" x1="260.274" y1="198.867" x2="378.994" y2="198.867"/>
      <polygon class="cls-2" points="376.806 206.346 389.758 198.867 376.806 191.388 376.806 206.346"/>
    </g>
    <g>
      <polyline class="cls-10" points="631.736 198.45 664.597 198.45 664.597 533.676 189.078 533.676 189.078 270.739"/>
      <polygon class="cls-2" points="195.062 272.489 189.078 262.128 183.095 272.489 195.062 272.489"/>
    </g>
    <text class="cls-7" transform="translate(628.765 187.055)"><tspan x="0" y="0">아니요</tspan></text>
    <text class="cls-7" transform="translate(339.328 187.055)"><tspan x="0" y="0">예</tspan></text>
    <g>
      <polyline class="cls-10" points="415.564 365.16 227.304 365.16 227.304 246.886"/>
      <polygon class="cls-2" points="233.287 248.637 227.304 238.275 221.321 248.637 233.287 248.637"/>
    </g>
    <rect class="cls-9" x="410.528" y="330.43" width="208.998" height="66.462"/>
    <text class="cls-7" transform="translate(431.831 372.008)"><tspan x="0" y="0">‘합’에 ‘수’ 더하기</tspan></text>
    <g>
      <polygon class="cls-11" points="514.984 135.591 396.641 198.763 514.984 261.934 633.327 198.763 514.984 135.591"/>
      <text class="cls-7" transform="translate(492.699 189.609)"><tspan x="0" y="0">수가</tspan><tspan x="-28.491" y="30">짝수인가?</tspan></text>
    </g>
    <g>
      <polygon class="cls-11" points="152.274 135.591 33.931 198.763 152.274 261.934 270.617 198.763 152.274 135.591"/>
      <text class="cls-7" transform="translate(129.99 176.674)"><tspan x="0" y="0">수가</tspan><tspan x="-24.954" y="30">100 이하</tspan><tspan x="-6.67" y="60">인가?</tspan></text>
    </g>
  </g>
  <g>
    <rect class="cls-8" x="488.894" y="1.5" width="210" height="60" rx="30" ry="30"/>
    <text class="cls-6" transform="translate(517.19 40.703)"><tspan x="0" y="0">바깥 선택 구조</tspan></text>
  </g>
</svg>