<?xml version="1.0" encoding="UTF-8"?>
<svg id="_레이어_1" data-name="레이어 1" xmlns="http://www.w3.org/2000/svg" viewBox="0 0 760.548 835.725">
  <defs>
    <style>
      .cls-1 {
        fill: #de672b;
      }

      .cls-1, .cls-2, .cls-3, .cls-4, .cls-5, .cls-6 {
        stroke-width: 0px;
      }

      .cls-7 {
        font-size: 28px;
        letter-spacing: -.025em;
      }

      .cls-7, .cls-8 {
        font-family: Pretendard-Bold-KSCpc-EUC-H, Pretendard;
        font-weight: 700;
      }

      .cls-3, .cls-9 {
        fill: #ffd0a1;
      }

      .cls-8 {
        font-size: 26px;
        letter-spacing: -.025em;
      }

      .cls-4, .cls-10, .cls-11 {
        fill: none;
      }

      .cls-12 {
        fill: #caebfc;
        stroke: #3295c3;
      }

      .cls-12, .cls-10, .cls-13, .cls-9, .cls-11 {
        stroke-miterlimit: 10;
      }

      .cls-12, .cls-13 {
        stroke-width: 2px;
      }

      .cls-10 {
        stroke: #000;
      }

      .cls-10, .cls-9, .cls-11 {
        stroke-width: 3px;
      }

      .cls-5 {
        fill: #fff;
      }

      .cls-13 {
        fill: #ccbef4;
        stroke: #8c7bc6;
      }

      .cls-9, .cls-11 {
        stroke: #de672b;
      }

      .cls-6 {
        fill: #fff0dc;
      }
    </style>
  </defs>
  <path class="cls-5" d="m739.048,31.5H21.5c-11.046,0-20,9.352-20,20.889v732.501c0,11.537,8.954,20.889,20,20.889h717.548c11.046,0,20-9.352,20-20.889V52.389c0-11.537-8.954-20.889-20-20.889Z"/>
  <rect class="cls-4" x="256.429" y="666.325" width="60" height="60"/>
  <g>
    <g>
      <g>
        <rect class="cls-6" x="273.081" y="91.805" width="456" height="377.868" rx="20" ry="20"/>
        <path class="cls-1" d="m709.081,471.173h-5v-3h5c1.04,0,2.082-.088,3.099-.261l.504,2.957c-1.182.202-2.394.304-3.603.304Zm-10,0h-5v-3h5v3Zm-10,0h-5v-3h5v3Zm-10,0h-5v-3h5v3Zm-10,0h-5v-3h5v3Zm-10,0h-5v-3h5v3Zm-10,0h-5v-3h5v3Zm-10,0h-5v-3h5v3Zm-10,0h-5v-3h5v3Zm-10,0h-5v-3h5v3Zm-10,0h-5v-3h5v3Zm-10,0h-5v-3h5v3Zm-10,0h-5v-3h5v3Zm-10,0h-5v-3h5v3Zm-10,0h-5v-3h5v3Zm-10,0h-5v-3h5v3Zm-10,0h-5v-3h5v3Zm-10,0h-5v-3h5v3Zm-10,0h-5v-3h5v3Zm-10,0h-5v-3h5v3Zm-10,0h-5v-3h5v3Zm-10,0h-5v-3h5v3Zm-10,0h-5v-3h5v3Zm-10,0h-5v-3h5v3Zm-10,0h-5v-3h5v3Zm-10,0h-5v-3h5v3Zm-10,0h-5v-3h5v3Zm-10,0h-5v-3h5v3Zm-10,0h-5v-3h5v3Zm-10,0h-5v-3h5v3Zm-10,0h-5v-3h5v3Zm-10,0h-5v-3h5v3Zm-10,0h-5v-3h5v3Zm-10,0h-5v-3h5v3Zm-10,0h-5v-3h5v3Zm-10,0h-5v-3h5v3Zm-10,0h-5v-3h5v3Zm-10,0h-5v-3h5v3Zm-10,0h-5v-3h5v3Zm-10,0h-5v-3h5v3Zm-10,0h-5v-3h5v3Zm-10,0h-5v-3h5v3Zm-10.271-.429c-1.756-.357-3.465-.938-5.08-1.724l1.313-2.697c1.388.676,2.856,1.174,4.365,1.481l-.599,2.939Zm429.003-1.435l-1.225-2.738c1.403-.628,2.729-1.433,3.941-2.394l1.863,2.351c-1.408,1.116-2.949,2.052-4.58,2.781Zm-438.572-3.214c-1.369-1.157-2.592-2.48-3.635-3.934l2.438-1.749c.899,1.253,1.953,2.394,3.133,3.391l-1.936,2.292Zm446.909-3.385l-2.381-1.825c.94-1.228,1.725-2.567,2.331-3.981l2.758,1.182c-.704,1.644-1.615,3.199-2.708,4.625Zm-453.104-5.255c-.653-1.67-1.094-3.42-1.31-5.2l2.979-.361c.186,1.53.564,3.034,1.125,4.469l-2.794,1.093Zm457.287-4.528l-2.965-.454c.142-.924.213-1.866.213-2.8v-1.96h3v1.96c0,1.086-.083,2.181-.248,3.254Zm-455.751-5.846h-3v-5h3v5Zm456-4.368h-3v-5h3v5Zm-456-5.632h-3v-5h3v5Zm456-4.368h-3v-5h3v5Zm-456-5.632h-3v-5h3v5Zm456-4.368h-3v-5h3v5Zm-456-5.632h-3v-5h3v5Zm456-4.368h-3v-5h3v5Zm-456-5.632h-3v-5h3v5Zm456-4.368h-3v-5h3v5Zm-456-5.632h-3v-5h3v5Zm456-4.368h-3v-5h3v5Zm-456-5.632h-3v-5h3v5Zm456-4.368h-3v-5h3v5Zm-456-5.632h-3v-5h3v5Zm456-4.368h-3v-5h3v5Zm-456-5.632h-3v-5h3v5Zm456-4.368h-3v-5h3v5Zm-456-5.632h-3v-5h3v5Zm456-4.368h-3v-5h3v5Zm-456-5.632h-3v-5h3v5Zm456-4.368h-3v-5h3v5Zm-456-5.632h-3v-5h3v5Zm456-4.368h-3v-5h3v5Zm-456-5.632h-3v-5h3v5Zm456-4.368h-3v-5h3v5Zm-456-5.632h-3v-5h3v5Zm456-4.368h-3v-5h3v5Zm-456-5.632h-3v-5h3v5Zm456-4.368h-3v-5h3v5Zm-456-5.632h-3v-5h3v5Zm456-4.368h-3v-5h3v5Zm-456-5.632h-3v-5h3v5Zm456-4.368h-3v-5h3v5Zm-456-5.632h-3v-5h3v5Zm456-4.368h-3v-5h3v5Zm-456-5.632h-3v-5h3v5Zm456-4.368h-3v-5h3v5Zm-456-5.632h-3v-5h3v5Zm456-4.368h-3v-5h3v5Zm-456-5.632h-3v-5h3v5Zm456-4.368h-3v-5h3v5Zm-456-5.632h-3v-5h3v5Zm456-4.368h-3v-5h3v5Zm-456-5.632h-3v-5h3v5Zm456-4.368h-3v-5h3v5Zm-456-5.632h-3v-5h3v5Zm456-4.368h-3v-5h3v5Zm-456-5.632h-3v-5h3v5Zm456-4.368h-3v-5h3v5Zm-456-5.632h-3v-5h3v5Zm456-4.368h-3v-5h3v5Zm-456-5.632h-3v-5h3v5Zm456-4.368h-3v-5h3v5Zm-456-5.632h-3v-5h3v5Zm456-4.368h-3v-5h3v5Zm-456-5.632h-3v-5h3v5Zm456-4.368h-3v-5h3v5Zm-456-5.632h-3v-5h3v5Zm456-4.368h-3v-5h3v5Zm-456-5.632h-3v-5h3v5Zm456-4.368h-3v-5h3v5Zm-456-5.632h-3v-5h3v5Zm456-4.368h-3v-5h3v5Zm-456-5.632h-3v-5h3v5Zm456-4.368h-3v-5h3v5Zm-456-5.632h-3v-5h3v5Zm456-4.368h-3v-.908c0-1.266-.131-2.529-.387-3.756l2.938-.612c.297,1.427.448,2.896.449,4.367v.909Zm-455.485-5.233l-2.916-.705c.421-1.74,1.062-3.426,1.907-5.013l2.648,1.409c-.726,1.364-1.277,2.814-1.639,4.309Zm450.6-3.788c-.681-1.381-1.533-2.678-2.536-3.854l2.283-1.946c1.163,1.365,2.154,2.871,2.944,4.475l-2.691,1.325Zm-446.303-4.295l-2.222-2.017c1.205-1.327,2.571-2.502,4.061-3.492l1.66,2.499c-1.283.853-2.461,1.865-3.5,3.01Zm440.362-2.678c-1.261-.897-2.628-1.632-4.062-2.186l1.08-2.799c1.668.644,3.257,1.499,4.721,2.54l-1.738,2.445Zm-432.736-2.387l-.991-2.832c1.693-.592,3.458-.969,5.245-1.119l.251,2.989c-1.535.129-3.051.453-4.505.961Zm424.198-.904c-.705-.082-1.424-.124-2.136-.124h-2.686v-3h2.686c.827,0,1.661.048,2.481.143l-.346,2.98Zm-9.821-.124h-5v-3h5v3Zm-10,0h-5v-3h5v3Zm-10,0h-5v-3h5v3Zm-10,0h-5v-3h5v3Zm-10,0h-5v-3h5v3Zm-10,0h-5v-3h5v3Zm-10,0h-5v-3h5v3Zm-10,0h-5v-3h5v3Zm-10,0h-5v-3h5v3Zm-10,0h-5v-3h5v3Zm-10,0h-5v-3h5v3Zm-10,0h-5v-3h5v3Zm-10,0h-5v-3h5v3Zm-10,0h-5v-3h5v3Zm-10,0h-5v-3h5v3Zm-10,0h-5v-3h5v3Zm-10,0h-5v-3h5v3Zm-10,0h-5v-3h5v3Zm-10,0h-5v-3h5v3Zm-10,0h-5v-3h5v3Zm-10,0h-5v-3h5v3Zm-10,0h-5v-3h5v3Zm-10,0h-5v-3h5v3Zm-10,0h-5v-3h5v3Zm-10,0h-5v-3h5v3Zm-10,0h-5v-3h5v3Zm-10,0h-5v-3h5v3Zm-10,0h-5v-3h5v3Zm-10,0h-5v-3h5v3Zm-10,0h-5v-3h5v3Zm-10,0h-5v-3h5v3Zm-10,0h-5v-3h5v3Zm-10,0h-5v-3h5v3Zm-10,0h-5v-3h5v3Zm-10,0h-5v-3h5v3Zm-10,0h-5v-3h5v3Zm-10,0h-5v-3h5v3Zm-10,0h-5v-3h5v3Zm-10,0h-5v-3h5v3Zm-10,0h-5v-3h5v3Zm-10,0h-5v-3h5v3Z"/>
      </g>
      <g>
        <g>
          <rect class="cls-3" x="396.687" y="439.673" width="208.788" height="60" rx="30" ry="30"/>
          <path class="cls-1" d="m575.475,501.173h-5v-3h5v3Zm-10,0h-5v-3h5v3Zm-10,0h-5v-3h5v3Zm-10,0h-5v-3h5v3Zm-10,0h-5v-3h5v3Zm-10,0h-5v-3h5v3Zm-10,0h-5v-3h5v3Zm-10,0h-5v-3h5v3Zm-10,0h-5v-3h5v3Zm-10,0h-5v-3h5v3Zm-10,0h-5v-3h5v3Zm-10,0h-5v-3h5v3Zm-10,0h-5v-3h5v3Zm-10,0h-5v-3h5v3Zm-10,0h-5v-3h5v3Zm141.2-.022l-.112-2.998c1.582-.059,3.167-.251,4.709-.569l.606,2.938c-1.705.352-3.455.563-5.203.629Zm-151.258-.002c-1.75-.07-3.5-.286-5.202-.641l.613-2.937c1.54.322,3.124.517,4.708.58l-.119,2.998Zm161.49-2.114l-1.088-2.796c1.467-.571,2.899-1.272,4.256-2.083l1.539,2.575c-1.5.897-3.084,1.672-4.708,2.304Zm-171.721-.026c-1.624-.637-3.207-1.417-4.706-2.318l1.545-2.571c1.356.815,2.788,1.52,4.256,2.096l-1.096,2.793Zm180.688-5.331l-1.943-2.286c1.203-1.022,2.329-2.154,3.348-3.362l2.294,1.933c-1.125,1.335-2.369,2.585-3.698,3.715Zm-189.647-.052c-1.327-1.134-2.568-2.387-3.688-3.724l2.299-1.928c1.015,1.21,2.138,2.345,3.339,3.371l-1.949,2.28Zm196.379-7.938l-2.582-1.527c.805-1.36,1.5-2.797,2.065-4.27l2.801,1.075c-.626,1.63-1.395,3.219-2.284,4.722Zm-203.091-.067c-.886-1.507-1.65-3.097-2.271-4.725l2.804-1.068c.561,1.472,1.251,2.909,2.053,4.271l-2.586,1.521Zm206.838-9.693l-2.94-.593c.311-1.542.495-3.126.546-4.711l2.998.098c-.057,1.751-.26,3.502-.604,5.207Zm-210.561-.069c-.34-1.707-.539-3.459-.592-5.208l2.999-.091c.048,1.583.228,3.168.536,4.713l-2.942.586Zm207.932-9.976c-.208-1.566-.55-3.124-1.015-4.631l2.866-.886c.515,1.667.893,3.39,1.123,5.122l-2.974.395Zm-205.28-.062l-2.973-.402c.234-1.733.616-3.456,1.134-5.119l2.864.893c-.469,1.503-.814,3.061-1.026,4.629Zm202.491-8.965c-.711-1.409-1.546-2.768-2.482-4.041l2.417-1.777c1.034,1.407,1.957,2.909,2.743,4.466l-2.678,1.352Zm-199.681-.059l-2.675-1.358c.79-1.555,1.716-3.056,2.754-4.461l2.413,1.783c-.939,1.271-1.778,2.629-2.493,4.037Zm194.082-7.559c-1.134-1.102-2.367-2.116-3.665-3.015l1.707-2.467c1.434.993,2.796,2.113,4.048,3.33l-2.091,2.151Zm-188.463-.048l-2.086-2.156c1.256-1.215,2.621-2.332,4.056-3.32l1.701,2.472c-1.299.894-2.534,1.904-3.671,3.004Zm180.686-5.332c-1.429-.671-2.926-1.225-4.448-1.647l.802-2.891c1.684.467,3.34,1.08,4.921,1.822l-1.274,2.716Zm-172.899-.028l-1.268-2.719c1.584-.739,3.241-1.348,4.923-1.81l.795,2.893c-1.52.418-3.018.969-4.45,1.636Zm163.792-2.5c-.981-.102-1.983-.154-2.978-.154h-1.861v-3h1.861c1.097,0,2.203.057,3.287.169l-.31,2.984Zm-154.68-.007l-.304-2.984c1.06-.108,2.143-.163,3.218-.163h1.927v3h-1.927c-.974,0-1.955.049-2.915.147Zm144.842-.147h-5v-3h5v3Zm-10,0h-5v-3h5v3Zm-10,0h-5v-3h5v3Zm-10,0h-5v-3h5v3Zm-10,0h-5v-3h5v3Zm-10,0h-5v-3h5v3Zm-10,0h-5v-3h5v3Zm-10,0h-5v-3h5v3Zm-10,0h-5v-3h5v3Zm-10,0h-5v-3h5v3Zm-10,0h-5v-3h5v3Zm-10,0h-5v-3h5v3Zm-10,0h-5v-3h5v3Zm-10,0h-5v-3h5v3Z"/>
        </g>
        <text class="cls-7" transform="translate(424.377 478.88)"><tspan x="0" y="0">안쪽 선택 구조</tspan></text>
      </g>
    </g>
    <g>
      <line class="cls-10" x1="514.79" y1="259.708" x2="514.79" y2="300.936"/>
      <polygon class="cls-2" points="508.807 299.185 514.79 309.547 520.773 299.185 508.807 299.185"/>
    </g>
    <g>
      <line class="cls-10" x1="468.726" y1="644.987" x2="468.726" y2="824.962"/>
      <polygon class="cls-2" points="461.246 822.773 468.726 835.725 476.205 822.773 461.246 822.773"/>
    </g>
    <g>
      <line class="cls-10" x1="152.339" y1="728.053" x2="152.339" y2="824.962"/>
      <polygon class="cls-2" points="144.859 822.773 152.339 835.725 159.817 822.773 144.859 822.773"/>
    </g>
    <g>
      <line class="cls-10" x1="152.449" y1="262.127" x2="152.449" y2="582.87"/>
      <polygon class="cls-2" points="144.97 580.682 152.449 593.634 159.928 580.682 144.97 580.682"/>
    </g>
    <rect class="cls-12" x="348.963" y="629.832" width="240" height="66.462"/>
    <text class="cls-8" transform="translate(365.94 671.414)"><tspan x="0" y="0">모든 복제본 삭제하기</tspan></text>
    <g>
      <line class="cls-10" x1="260.274" y1="198.867" x2="378.994" y2="198.867"/>
      <polygon class="cls-2" points="376.806 206.346 389.758 198.867 376.806 191.388 376.806 206.346"/>
    </g>
    <g>
      <line class="cls-10" x1="260.274" y1="664.631" x2="332.93" y2="664.631"/>
      <polygon class="cls-2" points="330.741 672.111 343.694 664.631 330.741 657.152 330.741 672.111"/>
    </g>
    <g>
      <polyline class="cls-10" points="170.973 532.609 664.597 532.609 664.597 198.45 631.736 198.45"/>
      <polygon class="cls-2" points="173.162 540.089 160.21 532.609 173.162 525.131 173.162 540.089"/>
    </g>
    <text class="cls-8" transform="translate(64.733 310.668)"><tspan x="0" y="0">아니요</tspan></text>
    <text class="cls-8" transform="translate(64.733 752.302)"><tspan x="0" y="0">아니요</tspan></text>
    <text class="cls-8" transform="translate(293.263 648.818)"><tspan x="0" y="0">예</tspan></text>
    <text class="cls-8" transform="translate(635.585 187.055)"><tspan x="0" y="0">예</tspan></text>
    <text class="cls-8" transform="translate(339.327 187.055)"><tspan x="0" y="0">예</tspan></text>
    <g>
      <polyline class="cls-10" points="415.565 365.16 336.339 365.16 336.339 217.125"/>
      <polygon class="cls-2" points="342.322 218.876 336.339 208.515 330.356 218.876 342.322 218.876"/>
    </g>
    <rect class="cls-12" x="410.528" y="330.43" width="208.998" height="66.462"/>
    <text class="cls-8" transform="translate(433.33 372.007)"><tspan x="0" y="0">별 복제본 만들기</tspan></text>
    <g>
      <polygon class="cls-13" points="514.984 135.591 396.641 198.762 514.984 261.934 633.327 198.762 514.984 135.591"/>
      <text class="cls-8" transform="translate(489.582 185.608)"><tspan x="0" y="0">10번</tspan><tspan x="-47.196" y="30">반복하였는가?</tspan></text>
    </g>
    <g>
      <polygon class="cls-13" points="152.274 135.591 33.931 198.762 152.274 261.934 270.617 198.762 152.274 135.591"/>
      <text class="cls-8" transform="translate(119.078 189.609)"><tspan x="0" y="0">대답이</tspan><tspan x="-12.875" y="33">‘별’인가?</tspan></text>
    </g>
    <g>
      <polygon class="cls-13" points="152.274 601.582 33.931 664.753 152.274 727.925 270.617 664.753 152.274 601.582"/>
      <text class="cls-8" transform="translate(119.078 644.99)"><tspan x="0" y="0">대답이</tspan><tspan x="-6.206" y="30">‘지우기’</tspan><tspan x="4.24" y="60">인가?</tspan></text>
    </g>
    <g>
      <line class="cls-10" x1="152.449" y1="20.172" x2="152.449" y2="117.349"/>
      <polygon class="cls-2" points="144.97 115.16 152.449 128.112 159.928 115.16 144.97 115.16"/>
    </g>
    <g>
      <path class="cls-11" d="m484.705,805.78h254.344c11.046,0,20-9.352,20-20.889V52.389c0-11.537-8.954-20.889-20-20.889H167.242"/>
      <line class="cls-11" x1="167.242" y1="805.78" x2="454.898" y2="805.78"/>
      <path class="cls-11" d="m137.435,31.5H21.5c-11.046,0-20,9.352-20,20.889v732.502c0,11.537,8.954,20.889,20,20.889h115.935"/>
    </g>
  </g>
  <g>
    <rect class="cls-9" x="488.895" y="1.5" width="210" height="60" rx="30" ry="30"/>
    <text class="cls-7" transform="translate(517.191 40.704)"><tspan x="0" y="0">바깥 선택 구조</tspan></text>
  </g>
</svg>