<?xml version="1.0" encoding="UTF-8"?>
<svg id="_레이어_1" data-name="레이어 1" xmlns="http://www.w3.org/2000/svg" viewBox="0 0 361.728 602.405">
  <defs>
    <style>
      .cls-1 {
        fill: #707070;
        stroke-width: 0px;
      }

      .cls-2, .cls-3 {
        font-family: Pretendard-Bold-KSCpc-EUC-H, Pretendard;
        font-size: 26px;
        font-weight: 700;
      }

      .cls-4, .cls-3 {
        letter-spacing: -.025em;
      }

      .cls-5 {
        fill: #b6eda2;
        stroke: #6ea159;
      }

      .cls-5, .cls-6, .cls-7 {
        stroke-miterlimit: 10;
      }

      .cls-8 {
        letter-spacing: -.12em;
      }

      .cls-6 {
        fill: none;
        stroke: #707070;
        stroke-width: 3px;
      }

      .cls-9 {
        letter-spacing: -.057em;
      }

      .cls-7 {
        fill: #ffe697;
        stroke: #bb7d0c;
      }
    </style>
  </defs>
  <rect class="cls-5" x="54.492" y="531.905" width="252.744" height="70" rx="35" ry="35"/>
  <rect class="cls-5" x="54.492" y=".5" width="252.744" height="70" rx="35" ry="35"/>
  <g>
    <line class="cls-6" x1="180.653" y1="70.467" x2="180.653" y2="98.491"/>
    <polygon class="cls-1" points="174.669 96.741 180.653 107.102 186.636 96.741 174.669 96.741"/>
  </g>
  <text class="cls-3" transform="translate(158.368 44.693)"><tspan x="0" y="0">시작</tspan></text>
  <text class="cls-3" transform="translate(169.641 575.855)"><tspan x="0" y="0">끝</tspan></text>
  <g>
    <line class="cls-6" x1="180.653" y1="212.777" x2="180.653" y2="240.048"/>
    <polygon class="cls-1" points="174.669 238.297 180.653 248.659 186.636 238.297 174.669 238.297"/>
  </g>
  <g>
    <polygon class="cls-7" points="300.863 212.856 .862 212.856 60.866 107.856 360.867 107.856 300.863 212.856"/>
    <text class="cls-2" transform="translate(131.905 153.049)"><tspan class="cls-4"><tspan x="0" y="0">“안녕!”을</tspan></tspan><tspan class="cls-4" x="-32.984" y="33">2초 동안 말한다</tspan><tspan class="cls-9" x="123.844" y="33">.</tspan></text>
  </g>
  <g>
    <line class="cls-6" x1="180.653" y1="353.678" x2="180.653" y2="380.916"/>
    <polygon class="cls-1" points="174.669 379.165 180.653 389.526 186.636 379.165 174.669 379.165"/>
  </g>
  <g>
    <polygon class="cls-7" points="300.863 353.659 .862 353.659 60.866 248.659 360.867 248.659 300.863 353.659"/>
    <text class="cls-2" transform="translate(65.581 293.851)"><tspan class="cls-4" x="0" y="0">“나는 엔트리봇이야</tspan><tspan class="cls-8" x="191.877" y="0">.</tspan><tspan class="cls-4" x="196.102" y="0">”를</tspan><tspan class="cls-4" x="33.601" y="33">2초 동안 말한다</tspan><tspan class="cls-9" x="190.428" y="33">.</tspan></text>
  </g>
  <g>
    <line class="cls-6" x1="180.653" y1="494.516" x2="180.653" y2="523.294"/>
    <polygon class="cls-1" points="174.669 521.543 180.653 531.905 186.636 521.543 174.669 521.543"/>
  </g>
  <g>
    <polygon class="cls-7" points="300.863 494.526 .862 494.526 60.866 389.526 360.867 389.526 300.863 494.526"/>
    <text class="cls-2" transform="translate(100.164 434.718)"><tspan class="cls-4"><tspan x="0" y="0">“날씨가 좋아”를</tspan></tspan><tspan class="cls-4" x="-1.243" y="33">2초 동안 말한다</tspan><tspan class="cls-9" x="155.584" y="33">.</tspan></text>
  </g>
  <text class="cls-3" transform="translate(158.368 44.693)"><tspan x="0" y="0">시작</tspan></text>
</svg>