<?xml version="1.0" encoding="UTF-8"?>
<svg id="_레이어_1" data-name="레이어 1" xmlns="http://www.w3.org/2000/svg" viewBox="0 0 943.969 697.865">
  <defs>
    <style>
      .cls-1 {
        fill: #de672b;
      }

      .cls-1, .cls-2, .cls-3, .cls-4, .cls-5, .cls-6, .cls-7, .cls-8, .cls-9 {
        stroke-width: 0px;
      }

      .cls-2 {
        fill: #8c7bc6;
      }

      .cls-3 {
        fill: #ccbef4;
      }

      .cls-5 {
        fill: #ffd0a1;
      }

      .cls-6 {
        fill: #fff;
      }

      .cls-7 {
        fill: #3295c3;
      }

      .cls-8 {
        fill: #fff0dc;
      }

      .cls-9 {
        fill: #caebfc;
      }
    </style>
  </defs>
  <path class="cls-6" d="m922.469,31.5H21.5c-11.046,0-20,9.352-20,20.889v623.087c0,11.537,8.954,20.889,20,20.889h900.969c11.046,0,20-9.352,20-20.889V52.389c0-11.537-8.954-20.889-20-20.889Z"/>
  <g>
    <g>
      <rect class="cls-8" x="283.082" y="91.805" width="629.419" height="509.538" rx="20" ry="20"/>
      <path class="cls-1" d="m892.501,602.843h-5v-3h5c1.094,0,2.192-.098,3.263-.291l.531,2.953c-1.246.224-2.523.337-3.794.337Zm-10,0h-5v-3h5v3Zm-10,0h-5v-3h5v3Zm-10,0h-5v-3h5v3Zm-10,0h-5v-3h5v3Zm-10,0h-5v-3h5v3Zm-10,0h-5v-3h5v3Zm-10,0h-5v-3h5v3Zm-10,0h-5v-3h5v3Zm-10,0h-5v-3h5v3Zm-10,0h-5v-3h5v3Zm-10,0h-5v-3h5v3Zm-10,0h-5v-3h5v3Zm-10,0h-5v-3h5v3Zm-10,0h-5v-3h5v3Zm-10,0h-5v-3h5v3Zm-10,0h-5v-3h5v3Zm-10,0h-5v-3h5v3Zm-10,0h-5v-3h5v3Zm-10,0h-5v-3h5v3Zm-10,0h-5v-3h5v3Zm-10,0h-5v-3h5v3Zm-10,0h-5v-3h5v3Zm-10,0h-5v-3h5v3Zm-10,0h-5v-3h5v3Zm-10,0h-5v-3h5v3Zm-10,0h-5v-3h5v3Zm-10,0h-5v-3h5v3Zm-10,0h-5v-3h5v3Zm-10,0h-5v-3h5v3Zm-10,0h-5v-3h5v3Zm-10,0h-5v-3h5v3Zm-10,0h-5v-3h5v3Zm-10,0h-5v-3h5v3Zm-10,0h-5v-3h5v3Zm-10,0h-5v-3h5v3Zm-10,0h-5v-3h5v3Zm-10,0h-5v-3h5v3Zm-10,0h-5v-3h5v3Zm-10,0h-5v-3h5v3Zm-10,0h-5v-3h5v3Zm-10,0h-5v-3h5v3Zm-10,0h-5v-3h5v3Zm-10,0h-5v-3h5v3Zm-10,0h-5v-3h5v3Zm-10,0h-5v-3h5v3Zm-10,0h-5v-3h5v3Zm-10,0h-5v-3h5v3Zm-10,0h-5v-3h5v3Zm-10,0h-5v-3h5v3Zm-10,0h-5v-3h5v3Zm-10,0h-5v-3h5v3Zm-10,0h-5v-3h5v3Zm-10,0h-5v-3h5v3Zm-10,0h-5v-3h5v3Zm-10,0h-5v-3h5v3Zm-10,0h-5v-3h5v3Zm-10,0h-5v-3h5v3Zm-10,0h-5v-3h5v3Zm-10.043-.009c-1.796-.052-3.578-.33-5.297-.825l.831-2.883c1.477.426,3.009.665,4.553.709l-.087,2.999Zm598.954-1.936l-1.251-2.727c1.398-.642,2.717-1.459,3.92-2.43l1.884,2.334c-1.396,1.127-2.928,2.077-4.553,2.822Zm-609.177-1.011c-1.541-.907-2.97-2.006-4.246-3.267l2.108-2.134c1.1,1.087,2.331,2.034,3.659,2.815l-1.521,2.586Zm617.452-5.662l-2.397-1.804c.931-1.237,1.703-2.583,2.295-4.002l2.769,1.156c-.689,1.649-1.586,3.213-2.667,4.649Zm-625.015-1.81c-.93-1.537-1.664-3.185-2.181-4.897l2.872-.867c.444,1.473,1.076,2.89,1.875,4.212l-2.566,1.553Zm629.11-8.011l-2.969-.429c.125-.866.188-1.752.188-2.634v-2.141h3v2.141c0,1.025-.074,2.055-.219,3.062Zm-632.183-2.174c-.012-.296-.019-.593-.018-.891v-4.17h3v4.173c0,.258.005.512.015.765l-2.997.123Zm632.401-8.029h-3v-5h3v5Zm-629.419-2.032h-3v-5h3v5Zm629.419-7.968h-3v-5h3v5Zm-629.419-2.032h-3v-5h3v5Zm629.419-7.968h-3v-5h3v5Zm-629.419-2.032h-3v-5h3v5Zm629.419-7.968h-3v-5h3v5Zm-629.419-2.032h-3v-5h3v5Zm629.419-7.968h-3v-5h3v5Zm-629.419-2.032h-3v-5h3v5Zm629.419-7.968h-3v-5h3v5Zm-629.419-2.032h-3v-5h3v5Zm629.419-7.968h-3v-5h3v5Zm-629.419-2.032h-3v-5h3v5Zm629.419-7.968h-3v-5h3v5Zm-629.419-2.032h-3v-5h3v5Zm629.419-7.968h-3v-5h3v5Zm-629.419-2.032h-3v-5h3v5Zm629.419-7.968h-3v-5h3v5Zm-629.419-2.032h-3v-5h3v5Zm629.419-7.968h-3v-5h3v5Zm-629.419-2.032h-3v-5h3v5Zm629.419-7.968h-3v-5h3v5Zm-629.419-2.032h-3v-5h3v5Zm629.419-7.968h-3v-5h3v5Zm-629.419-2.032h-3v-5h3v5Zm629.419-7.968h-3v-5h3v5Zm-629.419-2.032h-3v-5h3v5Zm629.419-7.968h-3v-5h3v5Zm-629.419-2.032h-3v-5h3v5Zm629.419-7.968h-3v-5h3v5Zm-629.419-2.032h-3v-5h3v5Zm629.419-7.968h-3v-5h3v5Zm-629.419-2.032h-3v-5h3v5Zm629.419-7.968h-3v-5h3v5Zm-629.419-2.032h-3v-5h3v5Zm629.419-7.968h-3v-5h3v5Zm-629.419-2.032h-3v-5h3v5Zm629.419-7.968h-3v-5h3v5Zm-629.419-2.032h-3v-5h3v5Zm629.419-7.968h-3v-5h3v5Zm-629.419-2.032h-3v-5h3v5Zm629.419-7.968h-3v-5h3v5Zm-629.419-2.032h-3v-5h3v5Zm629.419-7.968h-3v-5h3v5Zm-629.419-2.032h-3v-5h3v5Zm629.419-7.968h-3v-5h3v5Zm-629.419-2.032h-3v-5h3v5Zm629.419-7.968h-3v-5h3v5Zm-629.419-2.032h-3v-5h3v5Zm629.419-7.968h-3v-5h3v5Zm-629.419-2.032h-3v-5h3v5Zm629.419-7.968h-3v-5h3v5Zm-629.419-2.032h-3v-5h3v5Zm629.419-7.968h-3v-5h3v5Zm-629.419-2.032h-3v-5h3v5Zm629.419-7.968h-3v-5h3v5Zm-629.419-2.032h-3v-5h3v5Zm629.419-7.968h-3v-5h3v5Zm-629.419-2.032h-3v-5h3v5Zm629.419-7.968h-3v-5h3v5Zm-629.419-2.032h-3v-5h3v5Zm629.419-7.968h-3v-5h3v5Zm-629.419-2.032h-3v-5h3v5Zm629.419-7.968h-3v-5h3v5Zm-629.419-2.032h-3v-5h3v5Zm629.419-7.968h-3v-5h3v5Zm-629.419-2.032h-3v-5h3v5Zm629.419-7.968h-3v-5h3v5Zm-629.419-2.032h-3v-5h3v5Zm629.419-7.968h-3v-5h3v5Zm-629.419-2.032h-3v-5h3v5Zm629.419-7.968h-3v-5h3v5Zm-629.419-2.032h-3v-5h3v5Zm629.419-7.968h-3v-5h3v5Zm-629.419-2.032h-3v-5h3v5Zm629.419-7.968h-3v-5h3v5Zm-629.419-2.032h-3v-5h3v5Zm629.419-7.968h-3v-5h3v5Zm-629.419-2.032h-3v-5h3v5Zm629.419-7.968h-3v-5h3v5Zm-629.419-2.032h-3v-5h3v5Zm629.419-7.968h-3v-5h3v5Zm-629.419-2.032h-3v-5h3v5Zm629.419-7.968h-3v-5h3v5Zm-629.419-2.032h-3v-5h3v5Zm629.419-7.968h-3v-5h3v5Zm-629.419-2.032h-3v-5h3v5Zm629.419-7.968h-3v-5h3v5Zm-629.419-2.032h-3v-5h3v5Zm629.419-7.968h-3v-5h3v5Zm-629.419-2.032h-3v-5h3v5Zm629.419-7.968h-3v-2.397c0-.8-.052-1.607-.156-2.399l2.975-.39c.121.921.182,1.86.181,2.79v2.396Zm-629.419-2.032h-3v-.365c0-1.666.194-3.327.576-4.938l2.919.692c-.329,1.385-.495,2.813-.495,4.246v.365Zm625.094-7.222c-.574-1.425-1.328-2.781-2.243-4.029l2.42-1.772c1.062,1.45,1.938,3.025,2.605,4.682l-2.783,1.12Zm-622.979-1.705l-2.654-1.398c.833-1.582,1.864-3.06,3.064-4.395l2.23,2.007c-1.035,1.15-1.923,2.424-2.641,3.786Zm617.572-5.685c-1.192-.987-2.501-1.822-3.891-2.482l1.286-2.71c1.614.766,3.134,1.736,4.518,2.881l-1.913,2.311Zm-611.444-1.126l-1.672-2.491c1.492-1.001,3.102-1.812,4.786-2.409l1.003,2.827c-1.448.514-2.833,1.211-4.118,2.073Zm603.174-2.793c-1.145-.222-2.321-.334-3.497-.334h-1.194v-3h1.194c1.367,0,2.735.131,4.067.389l-.57,2.945Zm-594.556-.261l-.265-2.988c.626-.056,1.267-.084,1.903-.084h3.226v3h-3.225c-.548,0-1.1.025-1.64.073Zm584.865-.073h-5v-3h5v3Zm-10,0h-5v-3h5v3Zm-10,0h-5v-3h5v3Zm-10,0h-5v-3h5v3Zm-10,0h-5v-3h5v3Zm-10,0h-5v-3h5v3Zm-10,0h-5v-3h5v3Zm-10,0h-5v-3h5v3Zm-10,0h-5v-3h5v3Zm-10,0h-5v-3h5v3Zm-10,0h-5v-3h5v3Zm-10,0h-5v-3h5v3Zm-10,0h-5v-3h5v3Zm-10,0h-5v-3h5v3Zm-10,0h-5v-3h5v3Zm-10,0h-5v-3h5v3Zm-10,0h-5v-3h5v3Zm-10,0h-5v-3h5v3Zm-10,0h-5v-3h5v3Zm-10,0h-5v-3h5v3Zm-10,0h-5v-3h5v3Zm-10,0h-5v-3h5v3Zm-10,0h-5v-3h5v3Zm-10,0h-5v-3h5v3Zm-10,0h-5v-3h5v3Zm-10,0h-5v-3h5v3Zm-10,0h-5v-3h5v3Zm-10,0h-5v-3h5v3Zm-10,0h-5v-3h5v3Zm-10,0h-5v-3h5v3Zm-10,0h-5v-3h5v3Zm-10,0h-5v-3h5v3Zm-10,0h-5v-3h5v3Zm-10,0h-5v-3h5v3Zm-10,0h-5v-3h5v3Zm-10,0h-5v-3h5v3Zm-10,0h-5v-3h5v3Zm-10,0h-5v-3h5v3Zm-10,0h-5v-3h5v3Zm-10,0h-5v-3h5v3Zm-10,0h-5v-3h5v3Zm-10,0h-5v-3h5v3Zm-10,0h-5v-3h5v3Zm-10,0h-5v-3h5v3Zm-10,0h-5v-3h5v3Zm-10,0h-5v-3h5v3Zm-10,0h-5v-3h5v3Zm-10,0h-5v-3h5v3Zm-10,0h-5v-3h5v3Zm-10,0h-5v-3h5v3Zm-10,0h-5v-3h5v3Zm-10,0h-5v-3h5v3Zm-10,0h-5v-3h5v3Zm-10,0h-5v-3h5v3Zm-10,0h-5v-3h5v3Zm-10,0h-5v-3h5v3Zm-10,0h-5v-3h5v3Zm-10,0h-5v-3h5v3Z"/>
    </g>
    <g>
      <rect class="cls-4" x="587.918" y="376.259" width="66.192" height="3"/>
      <polygon class="cls-4" points="651.922 370.279 664.874 377.759 651.922 385.238 651.922 370.279"/>
    </g>
    <g>
      <rect class="cls-4" x="476.927" y="259.708" width="3" height="41.228"/>
      <polygon class="cls-4" points="472.444 299.185 478.427 309.547 484.41 299.185 472.444 299.185"/>
    </g>
    <g>
      <rect class="cls-4" x="476.927" y="440.93" width="3" height="41.228"/>
      <polygon class="cls-4" points="472.444 480.407 478.427 490.769 484.41 480.407 472.444 480.407"/>
    </g>
    <g>
      <rect class="cls-4" x="141.948" y="262.128" width="3" height="257.332"/>
      <polygon class="cls-4" points="135.969 517.271 143.448 530.224 150.927 517.271 135.969 517.271"/>
    </g>
    <g>
      <rect class="cls-9" x="356.964" y="496.992" width="240" height="66.462"/>
      <path class="cls-7" d="m597.964,564.455h-242v-68.462h242v68.462Zm-240-2h238v-64.462h-238v64.462Z"/>
    </g>
    <g>
      <path class="cls-4" d="m395.778,538.215h-21.15v-2.666h8.912v-4.723h-6.678v-11.324h16.555v11.324h-6.652v4.723h9.014v2.666Zm-15.717-9.928h10.156v-6.195h-10.156v6.195Z"/>
      <path class="cls-4" d="m417.573,531.791h-21.125v-2.59h21.125v2.59Zm-2.184,8.684h-16.402v-6.881h3.199v4.291h13.203v2.59Zm-.127-13.152h-16.25v-8.684h16.021v2.59h-12.797v3.504h13.025v2.59Z"/>
      <path class="cls-4" d="m444.685,531.867h-21.074v-2.615h8.887v-1.955h-6.195v-8.938h3.199v2.107h9.268v-2.107h3.225v8.938h-6.246v1.955h8.938v2.615Zm-2.564,9.039h-3.225v-4.9h-12.949v-2.564h16.174v7.465Zm-3.352-16.148v-1.904h-9.268v1.904h9.268Z"/>
      <path class="cls-4" d="m457.314,533.645l-1.904,2.387c-2.057-1.219-3.415-3.288-4.189-5.764-.8,2.691-2.196,4.977-4.316,6.271l-1.955-2.387c3.402-2.082,4.672-6.246,4.672-10.156v-1.244h-3.783v-2.59h10.41v2.59h-3.504v1.244c0,3.834,1.193,7.719,4.57,9.648Zm3.377,6.195h-3.047v-11.502h-3.047v-2.615h3.047v-7.541h3.047v21.658Zm4.723,1.066h-3.072v-23.105h3.072v23.105Z"/>
      <path class="cls-4" d="m473.143,520.949h9.268v-2.311h3.225v9.445h-6.246v1.955h8.938v2.59h-21.074v-2.59h8.887v-1.955h-6.195v-9.445h3.199v2.311Zm12.797,19.551h-16.148v-6.551h3.25v3.961h12.898v2.59Zm-3.529-15.006v-2.057h-9.268v2.057h9.268Z"/>
      <path class="cls-4" d="m508.253,528.059l-1.6,2.488c-2.59-.787-4.342-2.425-5.332-4.494-1.016,2.222-2.818,3.961-5.51,4.799l-1.625-2.539c3.834-1.193,5.484-4.164,5.51-7.186v-2.133h3.25v2.412c-.025,2.793,1.6,5.484,5.307,6.652Zm4.494,12.848h-3.25v-5.611h-12.314v-2.564h15.564v8.176Zm0-17.469h3.123v2.717h-3.123v5.611h-3.25v-13.965h3.25v5.637Z"/>
      <path class="cls-4" d="m528.118,533.645l-1.904,2.387c-2.057-1.219-3.415-3.288-4.189-5.764-.8,2.691-2.196,4.977-4.316,6.271l-1.955-2.387c3.402-2.082,4.672-6.246,4.672-10.156v-1.244h-3.783v-2.59h10.41v2.59h-3.504v1.244c0,3.834,1.193,7.719,4.57,9.648Zm3.377,6.195h-3.047v-11.502h-3.047v-2.615h3.047v-7.541h3.047v21.658Zm4.723,1.066h-3.072v-23.105h3.072v23.105Z"/>
      <path class="cls-4" d="m551.513,523.844h-13.584v-2.59h5.23v-3.098h3.25v3.098h5.104v2.59Zm-.838,6.805c0,3.225-2.514,5.51-5.891,5.51-3.402,0-5.916-2.285-5.916-5.51s2.514-5.51,5.916-5.51c3.377,0,5.891,2.285,5.891,5.51Zm-8.709,0c0,1.803,1.193,2.869,2.818,2.844,1.625.025,2.793-1.041,2.793-2.844,0-1.777-1.168-2.869-2.793-2.895-1.625.025-2.818,1.117-2.818,2.895Zm14.32-3.809h3.402v2.666h-3.402v11.4h-3.199v-23.105h3.199v9.039Z"/>
      <path class="cls-4" d="m561.655,536.946l-1.701-2.59c5.967-2.818,8.595-6.475,9.115-11.604h-7.871v-2.539h11.172c0,7.008-2.463,12.822-10.715,16.732Zm17.646,3.961h-3.275v-23.105h3.275v23.105Z"/>
    </g>
    <g>
      <rect class="cls-4" x="206.91" y="197.367" width="132.567" height="3"/>
      <polygon class="cls-4" points="337.289 206.346 350.241 198.867 337.289 191.388 337.289 206.346"/>
    </g>
    <g>
      <rect class="cls-4" x="587.918" y="196.95" width="66.192" height="3"/>
      <polygon class="cls-4" points="651.922 190.971 664.874 198.45 651.922 205.929 651.922 190.971"/>
    </g>
    <g>
      <path class="cls-4" d="m68.734,299.751c-.025,5.078-2.564,8.252-6.094,8.252s-6.119-3.174-6.094-8.252c-.025-5.027,2.564-8.227,6.094-8.227s6.068,3.199,6.094,8.227Zm-9.064,0c0,3.453,1.193,5.307,2.971,5.307,1.803,0,2.971-1.854,2.996-5.307-.025-3.428-1.193-5.307-2.996-5.307-1.777,0-2.971,1.879-2.971,5.307Zm14.98-1.143h3.402v2.691h-3.402v11.705h-3.25v-23.105h3.25v8.709Z"/>
      <path class="cls-4" d="m82.683,304.524c3.123-.038,6.475-.33,9.877-.99l.406,2.666c-4.062.838-7.871,1.117-11.451,1.092h-2.031v-15.184h3.199v12.416Zm14.98,8.48h-3.225v-23.105h3.225v23.105Z"/>
      <path class="cls-4" d="m121.211,310.313h-21.15v-2.666h4.723v-5.662c-1.79-1.066-2.869-2.704-2.869-4.748,0-3.732,3.656-6.221,8.684-6.221,5.002,0,8.684,2.488,8.709,6.221-.013,1.993-1.066,3.618-2.793,4.697v5.713h4.697v2.666Zm-16.098-13.076c0,2.26,2.184,3.656,5.484,3.656,3.275,0,5.484-1.396,5.51-3.656-.025-2.336-2.234-3.656-5.51-3.656-3.301,0-5.484,1.32-5.484,3.656Zm8.125,10.41v-4.494c-.825.165-1.714.254-2.641.254s-1.803-.076-2.615-.254v4.494h5.256Z"/>
    </g>
    <g>
      <g>
        <rect class="cls-5" x="669.351" y="571.221" width="208.788" height="60" rx="30" ry="30"/>
        <path class="cls-1" d="m848.139,632.721h-5v-3h5v3Zm-10,0h-5v-3h5v3Zm-10,0h-5v-3h5v3Zm-10,0h-5v-3h5v3Zm-10,0h-5v-3h5v3Zm-10,0h-5v-3h5v3Zm-10,0h-5v-3h5v3Zm-10,0h-5v-3h5v3Zm-10,0h-5v-3h5v3Zm-10,0h-5v-3h5v3Zm-10,0h-5v-3h5v3Zm-10,0h-5v-3h5v3Zm-10,0h-5v-3h5v3Zm-10,0h-5v-3h5v3Zm-10,0h-5v-3h5v3Zm141.2-.022l-.112-2.998c1.582-.059,3.167-.251,4.709-.569l.606,2.938c-1.705.352-3.455.563-5.203.629Zm-151.258-.002c-1.75-.07-3.5-.286-5.202-.641l.613-2.937c1.54.322,3.124.517,4.708.58l-.119,2.998Zm161.49-2.114l-1.088-2.796c1.467-.571,2.899-1.272,4.256-2.083l1.539,2.575c-1.5.897-3.084,1.672-4.708,2.304Zm-171.721-.026c-1.624-.637-3.207-1.417-4.706-2.318l1.545-2.571c1.356.815,2.788,1.52,4.256,2.096l-1.096,2.793Zm180.688-5.331l-1.943-2.286c1.203-1.022,2.329-2.154,3.348-3.362l2.294,1.933c-1.125,1.335-2.369,2.585-3.698,3.715Zm-189.647-.052c-1.327-1.134-2.568-2.387-3.688-3.724l2.299-1.928c1.015,1.21,2.138,2.345,3.339,3.371l-1.949,2.28Zm196.379-7.938l-2.582-1.527c.805-1.36,1.5-2.797,2.065-4.27l2.801,1.075c-.626,1.63-1.395,3.219-2.284,4.722Zm-203.091-.067c-.886-1.507-1.65-3.097-2.271-4.725l2.804-1.068c.561,1.472,1.251,2.909,2.053,4.271l-2.586,1.521Zm206.838-9.693l-2.94-.593c.311-1.542.495-3.126.546-4.711l2.998.098c-.057,1.751-.26,3.502-.604,5.207Zm-210.561-.069c-.34-1.707-.539-3.459-.592-5.208l2.999-.091c.048,1.583.228,3.168.536,4.713l-2.942.586Zm207.932-9.976c-.208-1.566-.55-3.124-1.015-4.631l2.866-.886c.515,1.667.893,3.39,1.123,5.122l-2.974.395Zm-205.28-.062l-2.973-.402c.234-1.733.616-3.456,1.134-5.119l2.864.893c-.469,1.503-.814,3.061-1.026,4.629Zm202.491-8.965c-.711-1.409-1.546-2.768-2.482-4.041l2.417-1.777c1.034,1.407,1.957,2.909,2.743,4.466l-2.678,1.352Zm-199.681-.059l-2.675-1.358c.79-1.555,1.716-3.056,2.754-4.461l2.413,1.783c-.939,1.271-1.778,2.629-2.493,4.037Zm194.082-7.559c-1.134-1.102-2.367-2.116-3.665-3.015l1.707-2.467c1.434.993,2.796,2.113,4.048,3.33l-2.091,2.151Zm-188.463-.048l-2.086-2.156c1.256-1.215,2.621-2.332,4.056-3.32l1.701,2.472c-1.299.894-2.534,1.904-3.671,3.004Zm180.686-5.332c-1.429-.671-2.926-1.225-4.448-1.647l.802-2.891c1.684.467,3.34,1.08,4.921,1.822l-1.274,2.716Zm-172.899-.028l-1.268-2.719c1.584-.739,3.241-1.348,4.923-1.81l.795,2.893c-1.52.418-3.018.969-4.45,1.636Zm163.792-2.5c-.981-.102-1.983-.154-2.978-.154h-1.861v-3h1.861c1.097,0,2.203.057,3.287.169l-.31,2.984Zm-154.68-.007l-.304-2.984c1.06-.108,2.143-.163,3.218-.163h1.927v3h-1.927c-.974,0-1.955.049-2.915.147Zm144.842-.147h-5v-3h5v3Zm-10,0h-5v-3h5v3Zm-10,0h-5v-3h5v3Zm-10,0h-5v-3h5v3Zm-10,0h-5v-3h5v3Zm-10,0h-5v-3h5v3Zm-10,0h-5v-3h5v3Zm-10,0h-5v-3h5v3Zm-10,0h-5v-3h5v3Zm-10,0h-5v-3h5v3Zm-10,0h-5v-3h5v3Zm-10,0h-5v-3h5v3Zm-10,0h-5v-3h5v3Zm-10,0h-5v-3h5v3Z"/>
      </g>
      <g>
        <path class="cls-4" d="m711.56,595.988c0,3.637-2.98,6.316-6.781,6.316-3.828,0-6.836-2.68-6.836-6.316,0-3.691,3.008-6.316,6.836-6.316,3.801,0,6.781,2.625,6.781,6.316Zm-10.172,0c-.027,2.023,1.504,3.281,3.391,3.281,1.914,0,3.363-1.258,3.391-3.281-.027-2.078-1.477-3.309-3.391-3.281-1.887-.027-3.418,1.203-3.391,3.281Zm17.035,16.516h-17.035v-8.23h3.473v5.441h13.562v2.789Zm-.902-17.309h3.363v2.898h-3.363v8.094h-3.5v-18.129h3.5v7.137Z"/>
        <path class="cls-4" d="m743.974,602.741h-22.695v-2.762h9.598v-2.023h3.473v2.023h9.625v2.762Zm-.41-7l-1.477,2.516c-2.406-.574-3.979-1.873-4.812-3.5-.834,1.449-2.324,2.652-4.648,3.172-2.311-.547-3.828-1.75-4.676-3.172-.834,1.613-2.393,2.912-4.785,3.5l-1.449-2.516c2.926-.684,4.375-2.461,4.375-4.02h-3.309v-2.816h9.324v2.816h-2.57c.027,1.217,1.08,2.584,3.09,3.363,1.969-.766,2.98-2.133,3.008-3.363h-2.516v-2.816h9.297v2.816h-3.227c-.027,1.613,1.395,3.363,4.375,4.02Zm-2.297,17.199h-3.5v-5.414h-14.027v-2.789h17.527v8.203Z"/>
        <path class="cls-4" d="m765.543,600.062l-1.887,2.734c-2.639-.971-4.457-2.803-5.496-5.113-1.08,2.598-3.021,4.648-5.906,5.688l-1.887-2.734c4.156-1.367,5.961-4.785,5.961-8.34v-2.707h3.527v2.734c0,3.227,1.723,6.426,5.688,7.738Zm6.48,12.441h-17.09v-7.984h3.527v5.195h13.562v2.789Zm-.52-6.043h-3.473v-10.281h-4.676v-2.816h4.676v-5.277h3.473v18.375Z"/>
        <path class="cls-4" d="m784.749,592.515h-6.508v2.051h6.262v2.652h-6.262v2.188c2.762-.014,4.812-.123,7.109-.52l.355,2.789c-2.926.52-5.359.602-9.105.602h-1.695v-12.551h9.844v2.789Zm10.664,20.426h-3.473v-5.852h-13.727v-2.789h17.199v8.641Zm0-9.68h-3.309v-6.316h-2.16v6.125h-3.254v-14.547h3.254v5.633h2.16v-6.07h3.309v15.176Z"/>
        <path class="cls-4" d="m823.325,591.749c0,2.324,0,4.867-.629,8.34h3.281v2.816h-9.707v10.062h-3.5v-10.062h-9.488v-2.816h15.887c.629-3.213.684-5.646.684-7.793h-13.973v-2.789h17.445v2.242Z"/>
        <path class="cls-4" d="m849.559,610.042h-22.777v-2.816h9.625v-5.551h3.5v5.551h9.652v2.816Zm-1.996-17.281h-7.574c.287,3.281,3.377,6.33,8.723,7.109l-1.367,2.762c-4.361-.766-7.588-2.898-9.188-5.852-1.586,3.008-4.785,5.195-9.078,5.988l-1.367-2.762c5.168-.834,8.271-3.951,8.559-7.246h-7.602v-2.816h18.895v2.816Z"/>
      </g>
    </g>
    <path class="cls-4" d="m632.157,188.324h-3.047v-7.16h-2.717c-.863,2.247-2.374,3.529-4.316,3.529-3.047,0-5.027-3.199-5.027-8.404s1.98-8.354,5.027-8.354c1.93,0,3.44,1.257,4.316,3.479h2.717v-4.799h3.047v21.709Zm-12.162-12.035c-.025,3.555.736,5.307,2.082,5.281,1.346.025,2.158-1.727,2.158-5.281,0-3.529-.838-5.307-2.158-5.307-1.346,0-2.107,1.777-2.082,5.307Zm7.186,0c0,.8-.051,1.562-.152,2.26h2.082v-4.545h-2.082c.102.711.152,1.473.152,2.285Zm9.699,13.102h-3.098v-23.105h3.098v23.105Z"/>
    <path class="cls-4" d="m324.961,188.324h-3.047v-7.16h-2.717c-.863,2.247-2.374,3.529-4.316,3.529-3.047,0-5.027-3.199-5.027-8.404s1.98-8.354,5.027-8.354c1.93,0,3.44,1.257,4.316,3.479h2.717v-4.799h3.047v21.709Zm-12.162-12.035c-.025,3.555.736,5.307,2.082,5.281,1.346.025,2.158-1.727,2.158-5.281,0-3.529-.838-5.307-2.158-5.307-1.346,0-2.107,1.777-2.082,5.307Zm7.186,0c0,.8-.051,1.562-.152,2.26h2.082v-4.545h-2.082c.102.711.152,1.473.152,2.285Zm9.699,13.102h-3.098v-23.105h3.098v23.105Z"/>
    <g>
      <rect class="cls-9" x="670.87" y="165.219" width="208.998" height="66.462"/>
      <path class="cls-7" d="m880.868,232.681h-210.999v-68.462h210.999v68.462Zm-208.999-2h206.999v-64.462h-206.999v64.462Z"/>
    </g>
    <g>
      <path class="cls-4" d="m706.971,195.879c0,5.078-2.59,8.252-6.068,8.252-3.555,0-6.145-3.174-6.119-8.252-.025-5.027,2.564-8.227,6.119-8.227,3.479,0,6.068,3.199,6.068,8.227Zm-9.064,0c0,3.453,1.193,5.307,2.996,5.307,1.752,0,2.945-1.854,2.945-5.307,0-3.428-1.193-5.307-2.945-5.307-1.803,0-2.996,1.879-2.996,5.307Zm15.539,13.305h-3.275v-23.156h3.275v23.156Z"/>
      <path class="cls-4" d="m727.904,189.302h4.266v-3.25h3.225v12.924h-3.225v-2.234h-5.205v-2.641h5.205v-2.209h-4.977c-1.485,3.656-4.875,6.246-9.852,7.592l-1.244-2.514c5.027-1.32,7.896-3.885,8.455-7.008h-7.211v-2.59h10.689c0,.66-.051,1.308-.127,1.93Zm-.812,16.707c1.917-1.384,2.717-3.428,2.742-5.129v-1.143h3.148v1.143c-.025,2.412,1.295,4.672,4.393,5.637l-1.65,2.387c-2.184-.762-3.605-2.184-4.393-3.986-.749,1.803-2.095,3.377-4.215,4.215-2.158-.8-3.504-2.336-4.24-4.139-.825,1.727-2.234,3.136-4.316,3.91l-1.625-2.387c3.047-.99,4.342-3.402,4.342-5.637v-1.143h3.148v1.143c0,1.879.774,3.821,2.666,5.129Z"/>
      <path class="cls-4" d="m758.814,198.722h-21.074v-2.615h21.074v2.615Zm-1.041-6.17l-1.143,2.539c-3.986-.508-6.868-2.158-8.354-4.393-1.485,2.234-4.38,3.885-8.328,4.393l-1.168-2.539c5.154-.609,7.82-3.148,7.846-5.51v-.787h3.326v.787c0,2.311,2.666,4.926,7.82,5.51Zm-14.371,9.293h9.521v-1.955h3.225v8.988h-15.945v-8.988h3.199v1.955Zm9.521,4.494v-2.031h-9.521v2.031h9.521Z"/>
      <path class="cls-4" d="m764.004,200.652c3.123-.038,6.475-.33,9.877-.99l.406,2.666c-4.062.838-7.871,1.117-11.451,1.092h-2.031v-15.184h3.199v12.416Zm14.98,8.48h-3.225v-23.105h3.225v23.105Z"/>
      <path class="cls-4" d="m793.137,190.775h-7.617v10.131c3.352-.038,6.119-.19,9.191-.736l.355,2.717c-3.58.609-6.729.711-10.816.686h-1.955v-15.412h10.842v2.615Zm6.475,3.834h3.402v2.641h-3.402v11.934h-3.25v-23.156h3.25v8.582Z"/>
      <path class="cls-4" d="m804.065,204.892c-.025-1.168.939-2.107,2.133-2.107,1.117,0,2.107.939,2.107,2.107s-.99,2.133-2.107,2.133c-1.193,0-2.158-.965-2.133-2.133Z"/>
      <path class="cls-4" d="m835.43,198.24h-8.887v1.447h6.373v5.637h-12.873v1.27h13.482v2.387h-16.656v-5.84h12.848v-1.143h-12.873v-2.311h6.475v-1.447h-8.861v-2.361h20.973v2.361Zm-8.912-10.41h6.932v2.387h-6.525c.635,1.346,2.996,2.45,7.668,2.641l-.939,2.387c-4.291-.203-7.262-1.295-8.734-3.047-1.46,1.752-4.443,2.844-8.76,3.047l-.889-2.387c4.634-.19,6.982-1.295,7.643-2.641h-6.475v-2.387h6.881v-1.828h3.199v1.828Z"/>
      <path class="cls-4" d="m847.323,194.584h-6.982v2.463c3.44,0,5.472-.114,7.82-.559l.305,2.59c-2.691.482-5.129.559-9.598.559h-1.727v-7.465h6.932v-2.26h-6.982v-2.539h10.232v7.211Zm8.379,14.549h-3.225v-5.23h-12.695v-2.59h15.92v7.82Zm0-8.861h-3.225v-3.555h-3.834v-2.564h3.834v-2.336h-3.834v-2.564h3.834v-3.199h3.225v14.219Z"/>
    </g>
    <g>
      <g>
        <polygon class="cls-3" points="478.621 135.591 360.278 198.763 478.621 261.934 596.964 198.763 478.621 135.591"/>
        <path class="cls-2" d="m478.621,263.068l-120.466-64.305,120.466-64.305,120.466,64.305-120.466,64.305Zm-116.219-64.305l116.219,62.038,116.219-62.038-116.219-62.038-116.219,62.038Z"/>
      </g>
      <g>
        <path class="cls-4" d="m412.334,189.804l-1.244-2.564c3.161-.901,5.281-2.133,6.602-3.656l-6.145.457-.457-2.539,7.998-.254c.178-.533.305-1.092.381-1.676h-7.211v-2.59h10.689c0,6.322-3.072,10.537-10.613,12.822Zm17.85,8.887h-15.311v-8.633h15.311v8.633Zm-12.137-2.59h8.938v-3.479h-8.938v3.479Zm12.137-7.059h-3.225v-4.799h-4.164v-2.641h4.164v-5.738h3.225v13.178Z"/>
        <path class="cls-4" d="m453.655,191.76h-4.85v7.186h-3.225v-7.186h-4.824v7.186h-3.301v-7.186h-4.951v-2.615h21.15v2.615Zm-1.854-12.264h-3.047v5.104h2.844v2.59h-17.037v-2.59h2.869v-5.104h-2.996v-2.59h17.367v2.59Zm-6.246,5.104v-5.104h-4.875v5.104h4.875Z"/>
        <path class="cls-4" d="m466.208,180.385h-7.566v3.834h6.729v2.539h-6.729v4.367c3.199-.025,5.764-.14,8.633-.584l.33,2.59c-3.377.508-6.398.635-10.359.635h-1.828v-15.996h10.791v2.615Zm7.643,18.611h-3.199v-12.391h-4.062v-2.615h4.062v-8.15h3.199v23.156Z"/>
        <path class="cls-4" d="m495.453,186.986l-1.752,2.539c-2.45-.901-4.139-2.603-5.104-4.748-1.003,2.412-2.806,4.316-5.484,5.281l-1.752-2.539c3.859-1.27,5.535-4.443,5.535-7.744v-2.514h3.275v2.539c0,2.996,1.6,5.967,5.281,7.186Zm6.018,11.553h-15.869v-7.414h3.275v4.824h12.594v2.59Zm-.482-5.611h-3.225v-9.547h-4.342v-2.615h4.342v-4.9h3.225v17.062Z"/>
        <path class="cls-4" d="m513.287,179.978h-6.043v1.904h5.814v2.463h-5.814v2.031c2.564-.013,4.469-.114,6.602-.482l.33,2.59c-2.717.482-4.977.559-8.455.559h-1.574v-11.654h9.141v2.59Zm9.902,18.967h-3.225v-5.434h-12.746v-2.59h15.971v8.023Zm0-8.988h-3.072v-5.865h-2.006v5.688h-3.021v-13.508h3.021v5.23h2.006v-5.637h3.072v14.092Z"/>
        <path class="cls-4" d="m538.028,185.691c0,5.078-2.59,8.252-6.068,8.252-3.555,0-6.145-3.174-6.119-8.252-.025-5.027,2.564-8.227,6.119-8.227,3.479,0,6.068,3.199,6.068,8.227Zm-9.064,0c0,3.453,1.193,5.307,2.996,5.307,1.752,0,2.945-1.854,2.945-5.307,0-3.428-1.193-5.307-2.945-5.307-1.803,0-2.996,1.879-2.996,5.307Zm15.539,13.305h-3.275v-23.156h3.275v23.156Z"/>
        <path class="cls-4" d="m430.105,224.908l-1.828-2.488c5.472-2.742,8.404-6.424,9.014-11.578h-7.693v-2.641h10.994c-.025,6.906-2.717,12.898-10.486,16.707Zm16.656-10.207h3.275v2.666h-3.275v11.527h-3.25v-23.055h3.25v8.861Z"/>
        <path class="cls-4" d="m465.23,217.189l.203,2.387c-1.904.381-3.859.622-5.789.762v7.922h-3.225v-7.719c-2.031.089-3.948.102-5.611.127l-.406-2.641c4.088,0,9.902-.102,14.828-.838Zm-1.244-5.484c0,2.895-2.564,4.926-6.094,4.9-3.529.025-6.094-2.006-6.068-4.9-.025-2.92,2.539-4.926,6.068-4.9,3.529-.025,6.094,1.98,6.094,4.9Zm-9.039,0c0,1.447,1.219,2.285,2.945,2.26,1.777.025,3.021-.812,3.021-2.26,0-1.473-1.244-2.311-3.021-2.311-1.727,0-2.945.838-2.945,2.311Zm14.879,17.24h-3.199v-23.08h3.199v23.08Z"/>
        <path class="cls-4" d="m485.172,213.152c0,3.453-2.768,5.865-6.322,5.865s-6.322-2.412-6.322-5.865c0-3.377,2.768-5.814,6.322-5.814s6.322,2.438,6.322,5.814Zm-9.471,0c-.025,1.93,1.346,3.047,3.148,3.047,1.752,0,3.123-1.117,3.123-3.047,0-1.879-1.371-3.021-3.123-2.996-1.803-.025-3.174,1.117-3.148,2.996Zm16.428,15.387h-16.098v-7.744h3.275v5.154h12.822v2.59Zm-.609-6.068h-3.25v-16.605h3.25v16.605Z"/>
        <path class="cls-4" d="m495.567,224.908l-1.828-2.488c5.472-2.742,8.404-6.424,9.014-11.578h-7.693v-2.641h10.994c-.025,6.906-2.717,12.898-10.486,16.707Zm16.656-10.207h3.275v2.666h-3.275v11.527h-3.25v-23.055h3.25v8.861Z"/>
        <path class="cls-4" d="m522.237,215.742c1.092-.711,1.93-1.498,1.93-2.666,0-1.27-.99-2.107-2.209-2.107-1.193,0-2.285.787-2.336,2.285h-3.605c.076-3.58,2.717-5.281,5.967-5.281,3.529,0,6.043,1.854,6.043,4.977,0,2.082-1.066,3.428-2.742,4.418-1.422.863-2.057,1.676-2.082,3.453v.279h-3.352v-.279c.025-3.148.863-4.139,2.387-5.078Zm-2.768,8.963c-.025-1.168.939-2.107,2.133-2.107,1.117,0,2.107.939,2.107,2.107s-.99,2.133-2.107,2.133c-1.193,0-2.158-.965-2.133-2.133Z"/>
      </g>
    </g>
    <path class="cls-4" d="m632.157,367.321h-3.047v-7.16h-2.717c-.863,2.247-2.374,3.529-4.316,3.529-3.047,0-5.027-3.199-5.027-8.404s1.98-8.354,5.027-8.354c1.93,0,3.44,1.257,4.316,3.479h2.717v-4.799h3.047v21.709Zm-12.162-12.035c-.025,3.555.736,5.307,2.082,5.281,1.346.025,2.158-1.727,2.158-5.281,0-3.529-.838-5.307-2.158-5.307-1.346,0-2.107,1.777-2.082,5.307Zm7.186,0c0,.8-.051,1.562-.152,2.26h2.082v-4.545h-2.082c.102.711.152,1.473.152,2.285Zm9.699,13.102h-3.098v-23.105h3.098v23.105Z"/>
    <g>
      <rect class="cls-9" x="670.87" y="344.215" width="208.998" height="66.462"/>
      <path class="cls-7" d="m880.868,411.677h-210.999v-68.462h210.999v68.462Zm-208.999-2h206.999v-64.462h-206.999v64.462Z"/>
    </g>
    <g>
      <path class="cls-4" d="m706.971,374.875c0,5.078-2.59,8.252-6.068,8.252-3.555,0-6.145-3.174-6.119-8.252-.025-5.027,2.564-8.227,6.119-8.227,3.479,0,6.068,3.199,6.068,8.227Zm-9.064,0c0,3.453,1.193,5.307,2.996,5.307,1.752,0,2.945-1.854,2.945-5.307,0-3.428-1.193-5.307-2.945-5.307-1.803,0-2.996,1.879-2.996,5.307Zm15.539,13.305h-3.275v-23.156h3.275v23.156Z"/>
      <path class="cls-4" d="m727.904,368.299h4.266v-3.25h3.225v12.924h-3.225v-2.234h-5.205v-2.641h5.205v-2.209h-4.977c-1.485,3.656-4.875,6.246-9.852,7.592l-1.244-2.514c5.027-1.32,7.896-3.885,8.455-7.008h-7.211v-2.59h10.689c0,.66-.051,1.308-.127,1.93Zm-.812,16.707c1.917-1.384,2.717-3.428,2.742-5.129v-1.143h3.148v1.143c-.025,2.412,1.295,4.672,4.393,5.637l-1.65,2.387c-2.184-.762-3.605-2.184-4.393-3.986-.749,1.803-2.095,3.377-4.215,4.215-2.158-.8-3.504-2.336-4.24-4.139-.825,1.727-2.234,3.136-4.316,3.91l-1.625-2.387c3.047-.99,4.342-3.402,4.342-5.637v-1.143h3.148v1.143c0,1.879.774,3.821,2.666,5.129Z"/>
      <path class="cls-4" d="m758.814,377.719h-21.074v-2.615h21.074v2.615Zm-1.041-6.17l-1.143,2.539c-3.986-.508-6.868-2.158-8.354-4.393-1.485,2.234-4.38,3.885-8.328,4.393l-1.168-2.539c5.154-.609,7.82-3.148,7.846-5.51v-.787h3.326v.787c0,2.311,2.666,4.926,7.82,5.51Zm-14.371,9.293h9.521v-1.955h3.225v8.988h-15.945v-8.988h3.199v1.955Zm9.521,4.494v-2.031h-9.521v2.031h9.521Z"/>
      <path class="cls-4" d="m764.004,379.648c3.123-.038,6.475-.33,9.877-.99l.406,2.666c-4.062.838-7.871,1.117-11.451,1.092h-2.031v-15.184h3.199v12.416Zm14.98,8.48h-3.225v-23.105h3.225v23.105Z"/>
      <path class="cls-4" d="m793.137,369.771h-7.617v10.131c3.352-.038,6.119-.19,9.191-.736l.355,2.717c-3.58.609-6.729.711-10.816.686h-1.955v-15.412h10.842v2.615Zm6.475,3.834h3.402v2.641h-3.402v11.934h-3.25v-23.156h3.25v8.582Z"/>
      <path class="cls-4" d="m804.065,383.888c-.025-1.168.939-2.107,2.133-2.107,1.117,0,2.107.939,2.107,2.107s-.99,2.133-2.107,2.133c-1.193,0-2.158-.965-2.133-2.133Z"/>
      <path class="cls-4" d="m835.43,377.236h-8.887v1.447h6.373v5.637h-12.873v1.27h13.482v2.387h-16.656v-5.84h12.848v-1.143h-12.873v-2.311h6.475v-1.447h-8.861v-2.361h20.973v2.361Zm-8.912-10.41h6.932v2.387h-6.525c.635,1.346,2.996,2.45,7.668,2.641l-.939,2.387c-4.291-.203-7.262-1.295-8.734-3.047-1.46,1.752-4.443,2.844-8.76,3.047l-.889-2.387c4.634-.19,6.982-1.295,7.643-2.641h-6.475v-2.387h6.881v-1.828h3.199v1.828Z"/>
      <path class="cls-4" d="m847.323,373.58h-6.982v2.463c3.44,0,5.472-.114,7.82-.559l.305,2.59c-2.691.482-5.129.559-9.598.559h-1.727v-7.465h6.932v-2.26h-6.982v-2.539h10.232v7.211Zm8.379,14.549h-3.225v-5.23h-12.695v-2.59h15.92v7.82Zm0-8.861h-3.225v-3.555h-3.834v-2.564h3.834v-2.336h-3.834v-2.564h3.834v-3.199h3.225v14.219Z"/>
    </g>
    <g>
      <g>
        <polygon class="cls-3" points="478.621 314.587 360.278 377.759 478.621 440.93 596.964 377.759 478.621 314.587"/>
        <path class="cls-2" d="m478.621,442.064l-120.466-64.306,120.466-64.305,120.466,64.305-120.466,64.306Zm-116.219-64.306l116.219,62.039,116.219-62.039-116.219-62.038-116.219,62.038Z"/>
      </g>
      <g>
        <path class="cls-4" d="m412.334,368.801l-1.244-2.564c3.161-.901,5.281-2.133,6.602-3.656l-6.145.457-.457-2.539,7.998-.254c.178-.533.305-1.092.381-1.676h-7.211v-2.59h10.689c0,6.322-3.072,10.537-10.613,12.822Zm17.85,8.887h-15.311v-8.633h15.311v8.633Zm-12.137-2.59h8.938v-3.479h-8.938v3.479Zm12.137-7.059h-3.225v-4.799h-4.164v-2.641h4.164v-5.738h3.225v13.178Z"/>
        <path class="cls-4" d="m453.655,370.756h-4.85v7.186h-3.225v-7.186h-4.824v7.186h-3.301v-7.186h-4.951v-2.615h21.15v2.615Zm-1.854-12.264h-3.047v5.104h2.844v2.59h-17.037v-2.59h2.869v-5.104h-2.996v-2.59h17.367v2.59Zm-6.246,5.104v-5.104h-4.875v5.104h4.875Z"/>
        <path class="cls-4" d="m466.208,359.381h-7.566v3.834h6.729v2.539h-6.729v4.367c3.199-.025,5.764-.14,8.633-.584l.33,2.59c-3.377.508-6.398.635-10.359.635h-1.828v-15.996h10.791v2.615Zm7.643,18.611h-3.199v-12.391h-4.062v-2.615h4.062v-8.15h3.199v23.156Z"/>
        <path class="cls-4" d="m495.453,365.982l-1.752,2.539c-2.45-.901-4.139-2.603-5.104-4.748-1.003,2.412-2.806,4.316-5.484,5.281l-1.752-2.539c3.859-1.27,5.535-4.443,5.535-7.744v-2.514h3.275v2.539c0,2.996,1.6,5.967,5.281,7.186Zm6.018,11.553h-15.869v-7.414h3.275v4.824h12.594v2.59Zm-.482-5.611h-3.225v-9.547h-4.342v-2.615h4.342v-4.9h3.225v17.062Z"/>
        <path class="cls-4" d="m513.287,358.974h-6.043v1.904h5.814v2.463h-5.814v2.031c2.564-.013,4.469-.114,6.602-.482l.33,2.59c-2.717.482-4.977.559-8.455.559h-1.574v-11.654h9.141v2.59Zm9.902,18.967h-3.225v-5.434h-12.746v-2.59h15.971v8.023Zm0-8.988h-3.072v-5.865h-2.006v5.688h-3.021v-13.508h3.021v5.23h2.006v-5.637h3.072v14.092Z"/>
        <path class="cls-4" d="m538.028,364.687c0,5.078-2.59,8.252-6.068,8.252-3.555,0-6.145-3.174-6.119-8.252-.025-5.027,2.564-8.227,6.119-8.227,3.479,0,6.068,3.199,6.068,8.227Zm-9.064,0c0,3.453,1.193,5.307,2.996,5.307,1.752,0,2.945-1.854,2.945-5.307,0-3.428-1.193-5.307-2.945-5.307-1.803,0-2.996,1.879-2.996,5.307Zm15.539,13.305h-3.275v-23.156h3.275v23.156Z"/>
        <path class="cls-4" d="m430.105,403.904l-1.828-2.488c5.472-2.742,8.404-6.424,9.014-11.578h-7.693v-2.641h10.994c-.025,6.906-2.717,12.898-10.486,16.707Zm16.656-10.207h3.275v2.666h-3.275v11.527h-3.25v-23.055h3.25v8.861Z"/>
        <path class="cls-4" d="m465.23,396.185l.203,2.387c-1.904.381-3.859.622-5.789.762v7.922h-3.225v-7.719c-2.031.089-3.948.102-5.611.127l-.406-2.641c4.088,0,9.902-.102,14.828-.838Zm-1.244-5.484c0,2.895-2.564,4.926-6.094,4.9-3.529.025-6.094-2.006-6.068-4.9-.025-2.92,2.539-4.926,6.068-4.9,3.529-.025,6.094,1.98,6.094,4.9Zm-9.039,0c0,1.447,1.219,2.285,2.945,2.26,1.777.025,3.021-.812,3.021-2.26,0-1.473-1.244-2.311-3.021-2.311-1.727,0-2.945.838-2.945,2.311Zm14.879,17.24h-3.199v-23.08h3.199v23.08Z"/>
        <path class="cls-4" d="m485.172,392.148c0,3.453-2.768,5.865-6.322,5.865s-6.322-2.412-6.322-5.865c0-3.377,2.768-5.814,6.322-5.814s6.322,2.438,6.322,5.814Zm-9.471,0c-.025,1.93,1.346,3.047,3.148,3.047,1.752,0,3.123-1.117,3.123-3.047,0-1.879-1.371-3.021-3.123-2.996-1.803-.025-3.174,1.117-3.148,2.996Zm16.428,15.387h-16.098v-7.744h3.275v5.154h12.822v2.59Zm-.609-6.068h-3.25v-16.605h3.25v16.605Z"/>
        <path class="cls-4" d="m495.567,403.904l-1.828-2.488c5.472-2.742,8.404-6.424,9.014-11.578h-7.693v-2.641h10.994c-.025,6.906-2.717,12.898-10.486,16.707Zm16.656-10.207h3.275v2.666h-3.275v11.527h-3.25v-23.055h3.25v8.861Z"/>
        <path class="cls-4" d="m522.237,394.738c1.092-.711,1.93-1.498,1.93-2.666,0-1.27-.99-2.107-2.209-2.107-1.193,0-2.285.787-2.336,2.285h-3.605c.076-3.58,2.717-5.281,5.967-5.281,3.529,0,6.043,1.854,6.043,4.977,0,2.082-1.066,3.428-2.742,4.418-1.422.863-2.057,1.676-2.082,3.453v.279h-3.352v-.279c.025-3.148.863-4.139,2.387-5.078Zm-2.768,8.963c-.025-1.168.939-2.107,2.133-2.107,1.117,0,2.107.939,2.107,2.107s-.99,2.133-2.107,2.133c-1.193,0-2.158-.965-2.133-2.133Z"/>
      </g>
    </g>
    <g>
      <g>
        <polygon class="cls-3" points="143.273 135.591 24.93 198.763 143.273 261.934 261.616 198.763 143.273 135.591"/>
        <path class="cls-2" d="m143.273,263.068L22.807,198.762l120.466-64.305,120.466,64.305-120.466,64.305ZM27.054,198.762l116.219,62.038,116.219-62.038-116.219-62.038-116.219,62.038Z"/>
      </g>
      <g>
        <path class="cls-4" d="m101.372,184.465c1.854-.038,3.885-.203,6.119-.635l.33,2.793c-3.098.533-5.738.686-8.125.686h-1.574v-14.904h3.25v12.061Zm15.742,8.48h-3.123v-11.553h-2.158v10.436h-3.047v-21.607h3.047v8.557h2.158v-8.938h3.123v23.105Z"/>
        <path class="cls-4" d="m138.285,180.986l-1.752,2.539c-2.45-.901-4.139-2.603-5.104-4.748-1.003,2.412-2.806,4.316-5.484,5.281l-1.752-2.539c3.859-1.27,5.535-4.443,5.535-7.744v-2.514h3.275v2.539c0,2.996,1.6,5.967,5.281,7.186Zm6.018,11.553h-15.869v-7.414h3.275v4.824h12.594v2.59Zm-.482-5.611h-3.225v-9.547h-4.342v-2.615h4.342v-4.9h3.225v17.062Z"/>
        <path class="cls-4" d="m156.119,173.978h-6.043v1.904h5.814v2.463h-5.814v2.031c2.564-.013,4.469-.114,6.602-.482l.33,2.59c-2.717.482-4.977.559-8.455.559h-1.574v-11.654h9.141v2.59Zm9.902,18.967h-3.225v-5.434h-12.746v-2.59h15.971v8.023Zm0-8.988h-3.072v-5.865h-2.006v5.688h-3.021v-13.508h3.021v5.23h2.006v-5.637h3.072v14.092Z"/>
        <path class="cls-4" d="m180.86,179.691c0,5.078-2.59,8.252-6.068,8.252-3.555,0-6.145-3.174-6.119-8.252-.025-5.027,2.564-8.227,6.119-8.227,3.479,0,6.068,3.199,6.068,8.227Zm-9.064,0c0,3.453,1.193,5.307,2.996,5.307,1.752,0,2.945-1.854,2.945-5.307,0-3.428-1.193-5.307-2.945-5.307-1.803,0-2.996,1.879-2.996,5.307Zm15.539,13.305h-3.275v-23.156h3.275v23.156Z"/>
        <path class="cls-4" d="m94.758,221.908l-1.828-2.488c5.472-2.742,8.404-6.424,9.014-11.578h-7.693v-2.641h10.994c-.025,6.906-2.717,12.898-10.486,16.707Zm16.656-10.207h3.275v2.666h-3.275v11.527h-3.25v-23.055h3.25v8.861Z"/>
        <path class="cls-4" d="m129.883,214.189l.203,2.387c-1.904.381-3.859.622-5.789.762v7.922h-3.225v-7.719c-2.031.089-3.948.102-5.611.127l-.406-2.641c4.088,0,9.902-.102,14.828-.838Zm-1.244-5.484c0,2.895-2.564,4.926-6.094,4.9-3.529.025-6.094-2.006-6.068-4.9-.025-2.92,2.539-4.926,6.068-4.9,3.529-.025,6.094,1.98,6.094,4.9Zm-9.039,0c0,1.447,1.219,2.285,2.945,2.26,1.777.025,3.021-.812,3.021-2.26,0-1.473-1.244-2.311-3.021-2.311-1.727,0-2.945.838-2.945,2.311Zm14.879,17.24h-3.199v-23.08h3.199v23.08Z"/>
        <path class="cls-4" d="m149.825,210.152c0,3.453-2.768,5.865-6.322,5.865s-6.322-2.412-6.322-5.865c0-3.377,2.768-5.814,6.322-5.814s6.322,2.438,6.322,5.814Zm-9.471,0c-.025,1.93,1.346,3.047,3.148,3.047,1.752,0,3.123-1.117,3.123-3.047,0-1.879-1.371-3.021-3.123-2.996-1.803-.025-3.174,1.117-3.148,2.996Zm16.428,15.387h-16.098v-7.744h3.275v5.154h12.822v2.59Zm-.609-6.068h-3.25v-16.605h3.25v16.605Z"/>
        <path class="cls-4" d="m160.219,221.908l-1.828-2.488c5.472-2.742,8.404-6.424,9.014-11.578h-7.693v-2.641h10.994c-.025,6.906-2.717,12.898-10.486,16.707Zm16.656-10.207h3.275v2.666h-3.275v11.527h-3.25v-23.055h3.25v8.861Z"/>
        <path class="cls-4" d="m186.89,212.742c1.092-.711,1.93-1.498,1.93-2.666,0-1.27-.99-2.107-2.209-2.107-1.193,0-2.285.787-2.336,2.285h-3.605c.076-3.58,2.717-5.281,5.967-5.281,3.529,0,6.043,1.854,6.043,4.977,0,2.082-1.066,3.428-2.742,4.418-1.422.863-2.057,1.676-2.082,3.453v.279h-3.352v-.279c.025-3.148.863-4.139,2.387-5.078Zm-2.768,8.963c-.025-1.168.939-2.107,2.133-2.107,1.117,0,2.107.939,2.107,2.107s-.99,2.133-2.107,2.133c-1.193,0-2.158-.965-2.133-2.133Z"/>
      </g>
    </g>
    <g>
      <g>
        <polygon class="cls-3" points="143.273 538.172 24.93 601.343 143.273 664.515 261.616 601.343 143.273 538.172"/>
        <path class="cls-2" d="m143.273,665.649l-120.466-64.306,120.466-64.305,120.466,64.305-120.466,64.306Zm-116.219-64.306l116.219,62.038,116.219-62.038-116.219-62.038-116.219,62.038Z"/>
      </g>
      <g>
        <path class="cls-4" d="m120.032,576.379h-5.357v9.852c2.234-.013,4.215-.127,6.449-.533l.229,2.641c-2.818.533-5.281.609-8.328.635h-1.6v-15.209h8.607v2.615Zm10.715,17.824h-3.072v-11.604h-2.234v10.486h-2.971v-21.607h2.971v8.531h2.234v-8.912h3.072v23.105Z"/>
        <path class="cls-4" d="m143.782,575.084h-7.059v5.23c4.177-.025,6.475-.152,9.064-.736l.33,2.615c-2.895.609-5.561.736-10.689.736h-1.955v-10.436h10.309v2.59Zm-4.799,11.629h8.684v-2.133h3.25v9.344h-15.184v-9.344h3.25v2.133Zm8.684,4.621v-2.082h-8.684v2.082h8.684Zm3.25-15.234h3.123v2.666h-3.123v4.697h-3.25v-12.365h3.25v5.002Z"/>
        <path class="cls-4" d="m167.279,580.949c0,5.078-2.59,8.252-6.068,8.252-3.555,0-6.145-3.174-6.119-8.252-.025-5.027,2.564-8.227,6.119-8.227,3.479,0,6.068,3.199,6.068,8.227Zm-9.064,0c0,3.453,1.193,5.307,2.996,5.307,1.752,0,2.945-1.854,2.945-5.307,0-3.428-1.193-5.307-2.945-5.307-1.803,0-2.996,1.879-2.996,5.307Zm15.539,13.305h-3.275v-23.156h3.275v23.156Z"/>
        <path class="cls-4" d="m97.144,608.563h4.799v-5.637h3.225v15.92h-11.248v-15.92h3.225v5.637Zm4.799,7.668v-5.154h-4.799v5.154h4.799Zm9.471-6.5h3.402v2.717h-3.402v11.756h-3.25v-23.105h3.25v8.633Z"/>
        <path class="cls-4" d="m129.883,612.448l.203,2.387c-1.904.381-3.859.622-5.789.762v7.922h-3.225v-7.719c-2.031.089-3.948.102-5.611.127l-.406-2.641c4.088,0,9.902-.102,14.828-.838Zm-1.244-5.484c0,2.895-2.564,4.926-6.094,4.9-3.529.025-6.094-2.006-6.068-4.9-.025-2.92,2.539-4.926,6.068-4.9,3.529-.025,6.094,1.98,6.094,4.9Zm-9.039,0c0,1.447,1.219,2.285,2.945,2.26,1.777.025,3.021-.812,3.021-2.26,0-1.473-1.244-2.311-3.021-2.311-1.727,0-2.945.838-2.945,2.311Zm14.879,17.24h-3.199v-23.08h3.199v23.08Z"/>
        <path class="cls-4" d="m149.825,608.41c0,3.453-2.768,5.865-6.322,5.865s-6.322-2.412-6.322-5.865c0-3.377,2.768-5.814,6.322-5.814s6.322,2.438,6.322,5.814Zm-9.471,0c-.025,1.93,1.346,3.047,3.148,3.047,1.752,0,3.123-1.117,3.123-3.047,0-1.879-1.371-3.021-3.123-2.996-1.803-.025-3.174,1.117-3.148,2.996Zm16.428,15.387h-16.098v-7.744h3.275v5.154h12.822v2.59Zm-.609-6.068h-3.25v-16.605h3.25v16.605Z"/>
        <path class="cls-4" d="m160.219,620.166l-1.828-2.488c5.472-2.742,8.404-6.424,9.014-11.578h-7.693v-2.641h10.994c-.025,6.906-2.717,12.898-10.486,16.707Zm16.656-10.207h3.275v2.666h-3.275v11.527h-3.25v-23.055h3.25v8.861Z"/>
        <path class="cls-4" d="m186.89,611c1.092-.711,1.93-1.498,1.93-2.666,0-1.27-.99-2.107-2.209-2.107-1.193,0-2.285.787-2.336,2.285h-3.605c.076-3.58,2.717-5.281,5.967-5.281,3.529,0,6.043,1.854,6.043,4.977,0,2.082-1.066,3.428-2.742,4.418-1.422.863-2.057,1.676-2.082,3.453v.279h-3.352v-.279c.025-3.148.863-4.139,2.387-5.078Zm-2.768,8.963c-.025-1.168.939-2.107,2.133-2.107,1.117,0,2.107.939,2.107,2.107s-.99,2.133-2.107,2.133c-1.193,0-2.158-.965-2.133-2.133Z"/>
      </g>
    </g>
    <g>
      <rect class="cls-4" x="141.948" y="20.172" width="3" height="97.177"/>
      <polygon class="cls-4" points="135.969 115.16 143.448 128.113 150.927 115.16 135.969 115.16"/>
    </g>
    <g>
      <path class="cls-1" d="m922.469,697.865h-429.763v-3h429.763c10.201,0,18.5-8.698,18.5-19.389V52.389c0-10.691-8.299-19.389-18.5-19.389H158.241v-3h764.228c11.855,0,21.5,10.044,21.5,22.389v623.087c0,12.345-9.645,22.389-21.5,22.389Z"/>
      <path class="cls-1" d="m493.565,697.865H21.5C9.645,697.865,0,687.821,0,675.476V52.389C0,40.044,9.645,30,21.5,30h106.935v3H21.5c-10.201,0-18.5,8.698-18.5,19.389v623.087c0,10.691,8.299,19.389,18.5,19.389h472.065v3Z"/>
    </g>
    <g>
      <g>
        <rect class="cls-5" x="672.106" y="1.5" width="210" height="60" rx="30" ry="30"/>
        <path class="cls-1" d="m852.106,63h-150c-17.369,0-31.5-14.131-31.5-31.5S684.737,0,702.106,0h150c17.369,0,31.5,14.131,31.5,31.5s-14.131,31.5-31.5,31.5ZM702.106,3c-15.715,0-28.5,12.785-28.5,28.5s12.785,28.5,28.5,28.5h150c15.715,0,28.5-12.785,28.5-28.5s-12.785-28.5-28.5-28.5h-150Z"/>
      </g>
      <g>
        <path class="cls-4" d="m705.405,26.375h5.168v-6.07h3.473v17.145h-12.113v-17.145h3.473v6.07Zm5.168,8.258v-5.551h-5.168v5.551h5.168Zm10.199-7h3.664v2.926h-3.664v12.66h-3.5v-24.883h3.5v9.297Z"/>
        <path class="cls-4" d="m726.581,30.75l-2.27-2.16c2.584-1.682,3.869-3.322,4.266-6.152h-3.336v-2.789h6.699c0,5.086-1.34,8.258-5.359,11.102Zm17.938,4.375h-12.934v1.422h12.688v2.406h-12.688v1.531h13.426v2.461h-16.898v-10.309h16.406v2.488Zm-10.719-3.691l-2.406-2.105c2.666-1.928,3.924-3.842,4.32-6.891h-2.871v-2.789h6.234c-.027,5.25-1.285,8.668-5.277,11.785Zm10.582-7.902h3.363v2.844h-3.363v5.223h-3.5v-13.262h3.5v5.195Z"/>
        <path class="cls-4" d="m768.903,30.34l-1.887,2.734c-2.639-.971-4.457-2.803-5.496-5.113-1.08,2.598-3.021,4.648-5.906,5.688l-1.887-2.734c4.156-1.367,5.961-4.785,5.961-8.34v-2.707h3.527v2.734c0,3.227,1.723,6.426,5.688,7.738Zm6.48,12.441h-17.09v-7.984h3.527v5.195h13.562v2.789Zm-.52-6.043h-3.473v-10.281h-4.676v-2.816h4.676v-5.277h3.473v18.375Z"/>
        <path class="cls-4" d="m788.11,22.793h-6.508v2.051h6.262v2.652h-6.262v2.188c2.762-.014,4.812-.123,7.109-.52l.355,2.789c-2.926.52-5.359.602-9.105.602h-1.695v-12.551h9.844v2.789Zm10.664,20.426h-3.473v-5.852h-13.727v-2.789h17.199v8.641Zm0-9.68h-3.309v-6.316h-2.16v6.125h-3.254v-14.547h3.254v5.633h2.16v-6.07h3.309v15.176Z"/>
        <path class="cls-4" d="m826.686,22.028c0,2.324,0,4.867-.629,8.34h3.281v2.816h-9.707v10.062h-3.5v-10.062h-9.488v-2.816h15.887c.629-3.213.684-5.646.684-7.793h-13.973v-2.789h17.445v2.242Z"/>
        <path class="cls-4" d="m852.92,40.321h-22.777v-2.816h9.625v-5.551h3.5v5.551h9.652v2.816Zm-1.996-17.281h-7.574c.287,3.281,3.377,6.33,8.723,7.109l-1.367,2.762c-4.361-.766-7.588-2.898-9.188-5.852-1.586,3.008-4.785,5.195-9.078,5.988l-1.367-2.762c5.168-.834,8.271-3.951,8.559-7.246h-7.602v-2.816h18.895v2.816Z"/>
      </g>
    </g>
  </g>
</svg>