<?xml version="1.0" encoding="UTF-8"?>
<svg id="_레이어_1" data-name="레이어 1" xmlns="http://www.w3.org/2000/svg" viewBox="0 0 522.271 979.301">
  <defs>
    <style>
      .cls-1 {
        fill: #707070;
      }

      .cls-1, .cls-2 {
        stroke-width: 0px;
      }

      .cls-3 {
        fill: #b6eda2;
        stroke: #6ea159;
      }

      .cls-3, .cls-4, .cls-5, .cls-6 {
        stroke-miterlimit: 10;
      }

      .cls-4 {
        fill: none;
        stroke: #707070;
        stroke-width: 3px;
      }

      .cls-5 {
        fill: #caebfc;
        stroke: #3295c3;
      }

      .cls-7 {
        font-family: Pretendard-Bold-KSCpc-EUC-H, Pretendard;
        font-size: 26px;
        font-weight: 700;
        letter-spacing: -.025em;
      }

      .cls-6 {
        fill: #d9cfff;
        stroke: #8c7bc6;
      }
    </style>
  </defs>
  <g>
    <polyline class="cls-4" points="82.871 297.285 1.5 297.285 1.5 977.801 255.864 977.801 255.864 942.963"/>
    <polygon class="cls-1" points="81.12 291.301 91.481 297.285 81.12 303.267 81.12 291.301"/>
  </g>
  <g>
    <line class="cls-4" x1="257.83" y1="70.467" x2="257.83" y2="104.538"/>
    <polygon class="cls-1" points="251.846 102.788 257.83 113.149 263.813 102.788 251.846 102.788"/>
  </g>
  <g>
    <polyline class="cls-4" points="402.787 473.028 520.771 473.028 520.771 842.189 268.708 842.189"/>
    <polygon class="cls-1" points="270.459 836.205 260.098 842.189 270.459 848.172 270.459 836.205"/>
  </g>
  <g>
    <line class="cls-4" x1="257.83" y1="364.253" x2="257.83" y2="395.438"/>
    <polygon class="cls-1" points="251.846 393.688 257.83 404.049 263.813 393.688 251.846 393.688"/>
  </g>
  <g>
    <line class="cls-4" x1="257.83" y1="541.543" x2="257.83" y2="572.729"/>
    <polygon class="cls-1" points="251.846 570.978 257.83 581.339 263.813 570.978 251.846 570.978"/>
  </g>
  <g>
    <line class="cls-4" x1="257.83" y1="186.511" x2="257.614" y2="219.908"/>
    <polygon class="cls-1" points="251.642 218.118 257.558 228.518 263.608 218.196 251.642 218.118"/>
  </g>
  <g>
    <line class="cls-4" x1="258.393" y1="674.283" x2="258.393" y2="710.177"/>
    <polygon class="cls-1" points="252.409 708.426 258.393 718.788 264.376 708.426 252.409 708.426"/>
  </g>
  <g>
    <line class="cls-4" x1="258.393" y1="815.476" x2="258.393" y2="862.223"/>
    <polygon class="cls-1" points="252.409 860.472 258.393 870.834 264.376 860.472 252.409 860.472"/>
  </g>
  <polygon class="cls-6" points="257.558 228.518 90.506 296.579 257.558 364.641 424.609 296.579 257.558 228.518"/>
  <rect class="cls-3" x="131.458" y=".5" width="252.744" height="70" rx="35" ry="35"/>
  <text class="cls-7" transform="translate(168.954 44.692)"><tspan x="0" y="0">‘최댓값’ 함수 시작</tspan></text>
  <rect class="cls-5" x="142.291" y="113.195" width="230.533" height="73.746"/>
  <text class="cls-7" transform="translate(184.394 158.405)"><tspan x="0" y="0">n을 1로 정하기</tspan></text>
  <rect class="cls-5" x="132.561" y="870.062" width="251.535" height="73.746"/>
  <text class="cls-7" transform="translate(174.258 915.272)"><tspan x="0" y="0">n을 1만큼 더하기</tspan></text>
  <text class="cls-7" transform="translate(200.278 280.05)"><tspan x="0" y="0">반티 총점의</tspan><tspan x="-63.893" y="31">항목 수만큼 반복했는가?</tspan></text>
  <polygon class="cls-6" points="257.558 405.035 90.506 473.096 257.558 541.157 424.609 473.096 257.558 405.035"/>
  <g>
    <path class="cls-2" d="m148.445,459.381h4.723v-3.352h3.25v11.705h-11.197v-11.705h3.225v3.352Zm15.26,17.697h-15.818v-7.414h3.225v4.824h12.594v2.59Zm-10.537-11.883v-3.326h-4.723v3.326h4.723Zm9.699-4.291h3.123v2.666h-3.123v7.846h-3.25v-17.012h3.25v6.5Z"/>
    <path class="cls-2" d="m179.381,458.924h-8.557v3.809h7.592v2.539h-7.592v4.367c3.543-.025,6.373-.152,9.598-.66l.305,2.615c-3.631.533-6.957.635-11.121.635h-1.98v-15.945h11.756v2.641Zm6.398,18.561h-3.275v-23.105h3.275v23.105Z"/>
    <path class="cls-2" d="m214.593,468.547h-21.074v-2.59h8.912v-2.234h3.199v2.234h8.963v2.59Zm-8.963-12.111h6.932v2.564h-6.652c.432,1.6,2.806,3.085,7.744,3.377l-.965,2.463c-4.266-.305-7.211-1.549-8.658-3.402-1.46,1.854-4.405,3.098-8.633,3.402l-.99-2.463c4.938-.292,7.287-1.777,7.744-3.377h-6.602v-2.564h6.881v-1.98h3.199v1.98Zm6.449,17.113c-.025,2.564-2.996,3.936-8.049,3.936-5.078,0-8.1-1.371-8.1-3.936,0-2.539,3.021-3.91,8.1-3.91s8.023,1.371,8.049,3.91Zm-12.848,0c-.025,1.066,1.574,1.549,4.799,1.549,3.148,0,4.773-.482,4.799-1.549-.025-1.041-1.65-1.523-4.799-1.523-3.225,0-4.824.482-4.799,1.523Z"/>
    <path class="cls-2" d="m228.67,458.162h-4.596c.051,2.628,1.688,5.434,5.307,6.627l-1.6,2.564c-2.564-.851-4.33-2.526-5.332-4.621-1.029,2.311-2.869,4.151-5.586,5.027l-1.65-2.539c3.732-1.193,5.471-4.139,5.561-7.059h-4.646v-2.615h12.543v2.615Zm6.145,19.068h-15.539v-8.531h15.539v8.531Zm-12.289-2.59h9.115v-3.402h-9.115v3.402Zm12.289-6.906h-3.225v-5.383h-3.656v-2.641h3.656v-5.332h3.225v13.355Z"/>
    <path class="cls-2" d="m252.039,469.436l.254,2.336c-5.129.99-10.613,1.041-14.65,1.041l-.381-2.641c4.113.025,9.826-.051,14.777-.736Zm-.99-7.846c0,3.326-2.742,5.688-6.398,5.688s-6.424-2.361-6.424-5.688c0-3.301,2.768-5.688,6.424-5.662,3.656-.025,6.398,2.361,6.398,5.662Zm-9.598,0c-.025,1.828,1.371,2.869,3.199,2.869s3.225-1.041,3.25-2.869c-.025-1.803-1.396-2.869-3.25-2.869-1.828,0-3.225,1.066-3.199,2.869Zm15.133,15.945h-3.225v-23.156h3.225v23.156Z"/>
    <path class="cls-2" d="m268.868,475.149h-3.758v-13.787h3.58v2.412h.152c.635-1.6,2.107-2.59,4.139-2.59,2.869,0,4.773,1.955,4.748,5.18v8.785h-3.732v-8.125c0-1.701-.939-2.717-2.488-2.717-1.574,0-2.641,1.041-2.641,2.869v7.973Z"/>
    <path class="cls-2" d="m298.686,471.442h-3.225v-8.328h-4.266v4.672h-10.994v-11.883h3.25v3.555h4.545v-3.555h3.199v4.621h4.266v-6.119h3.225v17.037Zm.482,5.637h-15.869v-7.338h3.275v4.748h12.594v2.59Zm-11.172-11.832v-3.326h-4.545v3.326h4.545Z"/>
    <path class="cls-2" d="m321.498,477.485h-3.047v-11.502h-1.549v10.436h-2.996v-5.967l-1.523,1.854c-1.219-1.003-1.994-2.45-2.463-4.113-.496,1.739-1.295,3.313-2.615,4.393-1.334-1.092-2.146-2.653-2.615-4.393-.482,1.65-1.232,3.098-2.438,4.113l-1.828-2.158c2.641-2.184,2.844-6.068,2.844-9.318v-1.295h-2.031v-2.59h5.789v2.59h-.99v1.295c0,2.247.062,5.154,1.27,7.49,1.193-2.311,1.219-5.154,1.219-7.49v-1.295h-.939v-2.59h5.434v2.59h-1.701v1.295c-.025,3.161.189,6.855,2.59,9.09v-15.209h2.996v8.633h1.549v-8.963h3.047v23.105Z"/>
    <path class="cls-2" d="m341.906,459.102h-13.711v-2.514h5.256v-2.336h3.225v2.336h5.23v2.514Zm-1.168,4.951c0,2.488-2.336,4.139-5.688,4.139-3.402,0-5.738-1.65-5.738-4.139,0-2.463,2.336-4.164,5.738-4.164,3.352,0,5.688,1.701,5.688,4.164Zm6.043,9.344c0,2.539-3.047,4.088-7.795,4.088-4.85,0-7.846-1.549-7.82-4.088-.025-2.59,2.971-4.139,7.82-4.139,4.748,0,7.795,1.549,7.795,4.139Zm-14.295-9.344c-.025,1.143,1.016,1.752,2.564,1.727,1.549.025,2.615-.584,2.615-1.727,0-1.168-1.066-1.803-2.615-1.803s-2.59.635-2.564,1.803Zm1.879,9.344c-.025,1.092,1.6,1.676,4.621,1.676,2.945,0,4.545-.584,4.545-1.676,0-1.143-1.6-1.676-4.545-1.676-3.021,0-4.646.533-4.621,1.676Zm12.162-13.102h3.123v2.691h-3.123v6.068h-3.25v-14.676h3.25v5.916Z"/>
    <path class="cls-2" d="m368.425,463.418h-6.271v2.209h8.938v2.615h-21.074v-2.615h8.887v-2.209h-6.271v-8.125h15.793v8.125Zm.102,14.066h-3.225v-5.002h-12.949v-2.539h16.174v7.541Zm-12.721-16.605h9.445v-3.072h-9.445v3.072Z"/>
    <path class="cls-2" d="m202.308,505.92v-3.58l8.557-3.479v-.152l-8.557-3.453v-3.58l12.594,5.586v3.098l-12.594,5.561Z"/>
    <path class="cls-2" d="m228.053,501.35c1.892-.114,3.809-.292,5.611-.559l.254,2.361c-5.129.99-10.613,1.041-14.65,1.041l-.381-2.615c1.739-.013,3.783-.025,5.941-.102v-3.605h3.225v3.479Zm4.773-10.639h-4.723c.216,2.234,1.955,4.329,5.434,5.18l-1.473,2.514c-2.704-.686-4.57-2.184-5.611-4.113-1.028,2.019-2.869,3.593-5.586,4.291l-1.523-2.438c3.491-.927,5.18-3.098,5.408-5.434h-4.672v-2.615h4.748v-2.514h3.225v2.514h4.773v2.615Zm5.383,17.824h-3.225v-23.156h3.225v23.156Z"/>
    <path class="cls-2" d="m250.508,489.823h-5.865v5.535c2.502-.013,4.418-.14,6.525-.559l.305,2.615c-2.666.482-5.002.584-8.43.584h-1.625v-10.766h9.09v2.59Zm11.045,16.072l-1.346,2.514c-3.682-.584-6.359-2.196-7.744-4.393-1.447,2.196-4.125,3.809-7.795,4.393l-1.32-2.514c4.951-.66,7.465-3.275,7.465-5.764v-.686h3.25v.686c-.025,2.488,2.488,5.104,7.49,5.764Zm-1.092-5.307h-3.072v-7.008h-2.006v4.926h-3.021v-12.746h3.021v5.18h2.006v-5.561h3.072v15.209Z"/>
    <path class="cls-2" d="m263.493,498.201l-1.168-2.615c5.396-1.143,8.036-3.58,8.43-6.424h-7.338v-2.59h10.918c0,6.17-3.783,10.055-10.842,11.629Zm4.189,3.072h2.488v-2.209h2.92v6.703c2.412-1.168,3.402-3.237,3.428-5.205v-1.777h3.098v1.701c0,2.234,1.066,4.418,3.732,5.459l-1.676,2.438c-1.752-.724-2.92-1.942-3.605-3.453-.736,1.485-1.917,2.729-3.631,3.453l-1.346-1.93v1.701h-8.379v-9.09h2.971v2.209Zm2.488,4.418v-2.031h-2.488v2.031h2.488Zm10.588-15.514h3.123v2.691h-3.123v5.053h-3.25v-12.543h3.25v4.799Z"/>
    <path class="cls-2" d="m290.671,495.281c1.092-.711,1.93-1.498,1.93-2.666,0-1.27-.99-2.107-2.209-2.107-1.193,0-2.285.787-2.336,2.285h-3.605c.076-3.58,2.717-5.281,5.967-5.281,3.529,0,6.043,1.854,6.043,4.977,0,2.082-1.066,3.428-2.742,4.418-1.422.863-2.057,1.676-2.082,3.453v.279h-3.352v-.279c.025-3.148.863-4.139,2.387-5.078Zm-2.768,8.963c-.025-1.168.939-2.107,2.133-2.107,1.117,0,2.107.939,2.107,2.107s-.99,2.133-2.107,2.133c-1.193,0-2.158-.965-2.133-2.133Z"/>
  </g>
  <text class="cls-7" transform="translate(425.011 454.646)"><tspan x="0" y="0">아니요</tspan></text>
  <text class="cls-7" transform="translate(272.503 391.737)"><tspan x="0" y="0">아니요</tspan></text>
  <rect class="cls-5" x="102.729" y="581.244" width="311.223" height="97.594"/>
  <text class="cls-7" transform="translate(154.467 621.89)"><tspan x="0" y="0">최댓값을 반티 총점의</tspan><tspan x="-7.444" y="33">n번째 항목으로 정하기</tspan></text>
  <rect class="cls-5" x="102.729" y="719.792" width="311.223" height="97.594"/>
  <text class="cls-7" transform="translate(165.377 760.437)"><tspan x="0" y="0">최댓값 항목 번호를</tspan><tspan x="27.958" y="33">n으로 정하기</tspan></text>
  <text class="cls-7" transform="translate(279.613 564.409)"><tspan x="0" y="0">예</tspan></text>
</svg>