<?xml version="1.0" encoding="UTF-8"?>
<svg id="_레이어_1" data-name="레이어 1" xmlns="http://www.w3.org/2000/svg" viewBox="0 0 471.095 812.338">
  <defs>
    <style>
      .cls-1 {
        fill: #ffe697;
        stroke: #bb7d0c;
      }

      .cls-1, .cls-2, .cls-3, .cls-4 {
        stroke-miterlimit: 10;
      }

      .cls-1, .cls-3, .cls-4 {
        stroke-width: 2px;
      }

      .cls-5 {
        stroke-width: 0px;
      }

      .cls-6 {
        font-family: Pretendard-Bold-KSCpc-EUC-H, Pretendard;
        font-size: 26px;
        font-weight: 700;
        letter-spacing: -.025em;
      }

      .cls-2 {
        fill: none;
        stroke: #000;
        stroke-width: 3px;
      }

      .cls-3 {
        fill: #ccbef4;
        stroke: #8c7bc6;
      }

      .cls-4 {
        fill: #b6eda2;
        stroke: #6ea159;
      }
    </style>
  </defs>
  <g>
    <line class="cls-2" x1="224.661" y1="68.59" x2="224.661" y2="111.451"/>
    <polygon class="cls-5" points="218.677 109.7 224.661 120.062 230.644 109.7 218.677 109.7"/>
  </g>
  <g>
    <polyline class="cls-2" points="224.661 541.723 224.661 510.399 1.5 510.399 1.5 215.41 74.467 215.41"/>
    <polygon class="cls-5" points="230.644 539.973 224.661 550.334 218.678 539.973 230.644 539.973"/>
  </g>
  <rect class="cls-4" x="98.289" y="741.338" width="252.744" height="70" rx="35" ry="35"/>
  <text class="cls-6" transform="translate(213.425 785.288)"><tspan x="0" y="0">끝</tspan></text>
  <rect class="cls-4" x="98.289" y="1" width="252.744" height="70" rx="35" ry="35"/>
  <text class="cls-6" transform="translate(125.786 45.191)"><tspan x="0" y="0">투표 결과 확인 시작</tspan></text>
  <g>
    <line class="cls-2" x1="224.661" y1="296.614" x2="224.661" y2="342.455"/>
    <polygon class="cls-5" points="218.677 340.705 224.661 351.066 230.644 340.705 218.677 340.705"/>
  </g>
  <polygon class="cls-3" points="224.661 124.551 65.564 215.41 224.661 306.268 383.757 215.41 224.661 124.551"/>
  <text class="cls-6" transform="translate(156.199 192.831)"><tspan x="0" y="0">반티 리스트의</tspan><tspan x="10.91" y="31">수만큼 모두</tspan><tspan x="6.911" y="62">출력했는가?</tspan></text>
  <text class="cls-6" transform="translate(240.433 335.537)"><tspan x="0" y="0">아니요</tspan></text>
  <text class="cls-6" transform="translate(48.398 197.843)"><tspan x="0" y="0">예</tspan></text>
  <g>
    <polyline class="cls-2" points="224.449 462.808 224.449 494.502 469.595 494.502 469.595 215.41 400.273 215.41"/>
    <polygon class="cls-5" points="402.023 209.426 391.662 215.41 402.023 221.393 402.023 209.426"/>
  </g>
  <polygon class="cls-1" points="344.659 462.819 54.659 462.819 104.662 357.819 394.662 357.819 344.659 462.819"/>
  <text class="cls-6" transform="translate(155.93 403.011)"><tspan x="0" y="0">반티 리스트의</tspan><tspan x="-13.582" y="33">항목별 총점 출력</tspan></text>
  <g>
    <line class="cls-2" x1="224.449" y1="688.345" x2="224.449" y2="726.186"/>
    <polygon class="cls-5" points="218.466 724.435 224.449 734.797 230.433 724.435 218.466 724.435"/>
  </g>
  <polygon class="cls-1" points="332.496 687.191 54.659 687.191 116.826 556.65 394.662 556.65 332.496 687.191"/>
  <text class="cls-6" transform="translate(155.93 599.128)"><tspan x="0" y="0">총점 리스트의</tspan><tspan x="-46.312" y="33">최댓값 항목에 해당하는</tspan><tspan x="-2.671" y="66">반티 이름 출력</tspan></text>
</svg>