<?xml version="1.0" encoding="UTF-8"?>
<svg id="_레이어_1" data-name="레이어 1" xmlns="http://www.w3.org/2000/svg" viewBox="0 0 412.789 760.824">
  <defs>
    <style>
      .cls-1 {
        fill: #707070;
        stroke-width: 0px;
      }

      .cls-2 {
        fill: #b6eda2;
        stroke: #6ea159;
      }

      .cls-2, .cls-3, .cls-4, .cls-5, .cls-6 {
        stroke-miterlimit: 10;
      }

      .cls-3 {
        fill: none;
        stroke: #707070;
        stroke-width: 3px;
      }

      .cls-4 {
        fill: #caebfc;
        stroke: #3295c3;
      }

      .cls-7 {
        font-family: Pretendard-Bold-KSCpc-EUC-H, Pretendard;
        font-size: 26px;
        font-weight: 700;
        letter-spacing: -.025em;
      }

      .cls-5 {
        fill: #d9cfff;
        stroke: #8c7bc6;
      }

      .cls-6 {
        fill: #ffe697;
        stroke: #bb7d0c;
      }
    </style>
  </defs>
  <g>
    <polyline class="cls-3" points="355.303 258.722 411.289 258.722 411.289 430.399 329.097 430.399"/>
    <polygon class="cls-1" points="357.491 266.201 344.539 258.722 357.491 251.243 357.491 266.201"/>
  </g>
  <rect class="cls-2" x="54.492" y="690.324" width="252.744" height="70" rx="35" ry="35"/>
  <text class="cls-7" transform="translate(169.629 734.274)"><tspan x="0" y="0">끝</tspan></text>
  <polygon class="cls-6" points="286.336 183.66 30.333 183.66 75.393 110.042 331.395 110.042 286.336 183.66"/>
  <g>
    <line class="cls-3" x1="180.864" y1="183.099" x2="180.864" y2="211.865"/>
    <polygon class="cls-1" points="174.88 210.114 180.864 220.475 186.847 210.114 174.88 210.114"/>
  </g>
  <text class="cls-7" transform="translate(109.731 155.199)"><tspan x="0" y="0">반티 이름 입력</tspan></text>
  <g>
    <line class="cls-3" x1="180.864" y1="70.467" x2="180.864" y2="101.431"/>
    <polygon class="cls-1" points="174.88 99.68 180.864 110.042 186.847 99.68 174.88 99.68"/>
  </g>
  <rect class="cls-2" x="54.492" y=".5" width="252.744" height="70" rx="35" ry="35"/>
  <text class="cls-7" transform="translate(81.989 44.693)"><tspan x="0" y="0">반티 후보 등록 시작</tspan></text>
  <g>
    <line class="cls-3" x1="180.864" y1="293.807" x2="180.864" y2="339.202"/>
    <polygon class="cls-1" points="174.88 337.451 180.864 347.813 186.847 337.451 174.88 337.451"/>
  </g>
  <rect class="cls-4" x="25.253" y="220.475" width="311.223" height="73.746"/>
  <text class="cls-7" transform="translate(63.419 265.701)"><tspan x="0" y="0">반티 리스트에 항목 추가</tspan></text>
  <g>
    <line class="cls-3" x1="180.864" y1="509.259" x2="180.864" y2="539.851"/>
    <polygon class="cls-1" points="174.88 538.1 180.864 548.462 186.847 538.1 174.88 538.1"/>
  </g>
  <polygon class="cls-5" points="180.864 347.813 29.941 430.129 180.864 512.445 331.787 430.129 180.864 347.813"/>
  <text class="cls-7" transform="translate(123.313 407.477)"><tspan x="0" y="0">반티 후보를</tspan><tspan x="-35.402" y="31">반티 리스트에 모두</tspan><tspan x="-3.999" y="62">추가했는가?</tspan></text>
  <text class="cls-7" transform="translate(327.491 410.489)"><tspan x="0" y="0">아니요</tspan></text>
  <text class="cls-7" transform="translate(138.537 332.101)"><tspan x="0" y="0">예</tspan></text>
  <g>
    <line class="cls-3" x1="180.653" y1="653.451" x2="180.653" y2="681.714"/>
    <polygon class="cls-1" points="174.67 679.963 180.653 690.325 186.636 679.963 174.67 679.963"/>
  </g>
  <polygon class="cls-6" points="300.863 653.462 .862 653.462 60.866 548.462 360.867 548.462 300.863 653.462"/>
  <text class="cls-7" transform="translate(84.97 593.654)"><tspan x="0" y="0">반티 후보 등록 완료</tspan><tspan x="38.073" y="33">메세지 출력</tspan></text>
</svg>