<?xml version="1.0" encoding="UTF-8"?>
<svg id="_레이어_1" data-name="레이어 1" xmlns="http://www.w3.org/2000/svg" viewBox="0 0 1057.317 1509.61">
  <defs>
    <style>
      .cls-1 {
        fill: #ffe697;
        stroke: #bb7d0c;
      }

      .cls-1, .cls-2, .cls-3, .cls-4, .cls-5, .cls-6, .cls-7 {
        stroke-miterlimit: 10;
      }

      .cls-1, .cls-2, .cls-4, .cls-6 {
        stroke-width: 2px;
      }

      .cls-8 {
        fill: #de672b;
      }

      .cls-8, .cls-9, .cls-10, .cls-11, .cls-12 {
        stroke-width: 0px;
      }

      .cls-13 {
        font-size: 28px;
        letter-spacing: -.025em;
      }

      .cls-13, .cls-14 {
        font-family: Pretendard-Bold-KSCpc-EUC-H, Pretendard;
        font-weight: 700;
      }

      .cls-10, .cls-5 {
        fill: #ffd0a1;
      }

      .cls-14 {
        font-size: 26px;
        letter-spacing: -.025em;
      }

      .cls-2 {
        fill: #caebfc;
        stroke: #3295c3;
      }

      .cls-3 {
        stroke: #000;
      }

      .cls-3, .cls-5, .cls-7 {
        stroke-width: 3px;
      }

      .cls-3, .cls-7 {
        fill: none;
      }

      .cls-11 {
        fill: #fff;
      }

      .cls-4 {
        fill: #ccbef4;
        stroke: #8c7bc6;
      }

      .cls-5, .cls-7 {
        stroke: #de672b;
      }

      .cls-6 {
        fill: #b6eda2;
        stroke: #6ea159;
      }

      .cls-12 {
        fill: #fff0dc;
      }
    </style>
  </defs>
  <g>
    <path class="cls-11" d="m371.229,230.121h664.589c11.046,0,20,9.352,20,20.889v1089.813c0,11.537-8.954,20.889-20,20.889H21.5c-11.046,0-20-9.352-20-20.889V251.01c0-11.537,8.954-20.889,20-20.889h349.729Z"/>
    <g>
      <g>
        <line class="cls-3" x1="356.129" y1="183.6" x2="356.129" y2="256.071"/>
        <polygon class="cls-9" points="350.146 254.32 356.129 264.682 362.112 254.32 350.146 254.32"/>
      </g>
      <polyline class="cls-3" points="849.96 513.304 849.96 1325.914 623.825 1325.914"/>
      <g>
        <rect class="cls-12" x="35.204" y="448.446" width="545.646" height="729.537" rx="20" ry="20"/>
        <path class="cls-8" d="m560.85,1179.483h-5v-3h5v3Zm-10,0h-5v-3h5v3Zm-10,0h-5v-3h5v3Zm-10,0h-5v-3h5v3Zm-10,0h-5v-3h5v3Zm-10,0h-5v-3h5v3Zm-10,0h-5v-3h5v3Zm-10,0h-5v-3h5v3Zm-10,0h-5v-3h5v3Zm-10,0h-5v-3h5v3Zm-10,0h-5v-3h5v3Zm-10,0h-5v-3h5v3Zm-10,0h-5v-3h5v3Zm-10,0h-5v-3h5v3Zm-10,0h-5v-3h5v3Zm-10,0h-5v-3h5v3Zm-10,0h-5v-3h5v3Zm-10,0h-5v-3h5v3Zm-10,0h-5v-3h5v3Zm-10,0h-5v-3h5v3Zm-10,0h-5v-3h5v3Zm-10,0h-5v-3h5v3Zm-10,0h-5v-3h5v3Zm-10,0h-5v-3h5v3Zm-10,0h-5v-3h5v3Zm-10,0h-5v-3h5v3Zm-10,0h-5v-3h5v3Zm-10,0h-5v-3h5v3Zm-10,0h-5v-3h5v3Zm-10,0h-5v-3h5v3Zm-10,0h-5v-3h5v3Zm-10,0h-5v-3h5v3Zm-10,0h-5v-3h5v3Zm-10,0h-5v-3h5v3Zm-10,0h-5v-3h5v3Zm-10,0h-5v-3h5v3Zm-10,0h-5v-3h5v3Zm-10,0h-5v-3h5v3Zm-10,0h-5v-3h5v3Zm-10,0h-5v-3h5v3Zm-10,0h-5v-3h5v3Zm-10,0h-5v-3h5v3Zm-10,0h-5v-3h5v3Zm-10,0h-5v-3h5v3Zm-10,0h-5v-3h5v3Zm-10,0h-5v-3h5v3Zm-10,0h-5v-3h5v3Zm-10,0h-5v-3h5v3Zm-10,0h-5v-3h5v3Zm-10,0h-5v-3h5v3Zm-10,0h-5v-3h5v3Zm501.072-.026l-.15-2.996c1.543-.077,3.069-.348,4.538-.805l.891,2.864c-1.708.532-3.484.847-5.278.937Zm-511.362-.481c-1.749-.389-3.447-.999-5.049-1.813l1.361-2.674c1.376.701,2.835,1.225,4.338,1.559l-.65,2.929Zm521.52-2.678l-1.574-2.554c1.311-.809,2.521-1.781,3.599-2.889l2.152,2.09c-1.25,1.287-2.654,2.415-4.177,3.353Zm-531.004-2.139c-1.349-1.179-2.549-2.524-3.566-3.997l2.469-1.706c.876,1.269,1.91,2.428,3.072,3.444l-1.975,2.258Zm538.412-5.487l-2.6-1.498c.773-1.341,1.375-2.771,1.788-4.251l2.889.807c-.48,1.722-1.179,3.384-2.077,4.943Zm-544.454-3.26c-.623-1.68-1.033-3.438-1.217-5.223l2.984-.308c.158,1.534.51,3.044,1.045,4.487l-2.812,1.044Zm547.312-6.986l-3-.064.004-4.968h3l-.004,5.032Zm-545.643-3.387h-3v-5h3v5Zm545.646-6.646h-3v-5h3v5Zm-545.646-3.354h-3v-5h3v5Zm545.646-6.646h-3v-5h3v5Zm-545.646-3.354h-3v-5h3v5Zm545.646-6.646h-3v-5h3v5Zm-545.646-3.354h-3v-5h3v5Zm545.646-6.646h-3v-5h3v5Zm-545.646-3.354h-3v-5h3v5Zm545.646-6.646h-3v-5h3v5Zm-545.646-3.354h-3v-5h3v5Zm545.646-6.646h-3v-5h3v5Zm-545.646-3.354h-3v-5h3v5Zm545.646-6.646h-3v-5h3v5Zm-545.646-3.354h-3v-5h3v5Zm545.646-6.646h-3v-5h3v5Zm-545.646-3.354h-3v-5h3v5Zm545.646-6.646h-3v-5h3v5Zm-545.646-3.354h-3v-5h3v5Zm545.646-6.646h-3v-5h3v5Zm-545.646-3.354h-3v-5h3v5Zm545.646-6.646h-3v-5h3v5Zm-545.646-3.354h-3v-5h3v5Zm545.646-6.646h-3v-5h3v5Zm-545.646-3.354h-3v-5h3v5Zm545.646-6.646h-3v-5h3v5Zm-545.646-3.354h-3v-5h3v5Zm545.646-6.646h-3v-5h3v5Zm-545.646-3.354h-3v-5h3v5Zm545.646-6.646h-3v-5h3v5Zm-545.646-3.354h-3v-5h3v5Zm545.646-6.646h-3v-5h3v5Zm-545.646-3.354h-3v-5h3v5Zm545.646-6.646h-3v-5h3v5Zm-545.646-3.354h-3v-5h3v5Zm545.646-6.646h-3v-5h3v5Zm-545.646-3.354h-3v-5h3v5Zm545.646-6.646h-3v-5h3v5Zm-545.646-3.354h-3v-5h3v5Zm545.646-6.646h-3v-5h3v5Zm-545.646-3.354h-3v-5h3v5Zm545.646-6.646h-3v-5h3v5Zm-545.646-3.354h-3v-5h3v5Zm545.646-6.646h-3v-5h3v5Zm-545.646-3.354h-3v-5h3v5Zm545.646-6.646h-3v-5h3v5Zm-545.646-3.354h-3v-5h3v5Zm545.646-6.645h-3v-5h3v5Zm-545.646-3.355h-3v-5h3v5Zm545.646-6.646h-3v-5h3v5Zm-545.646-3.354h-3v-5h3v5Zm545.646-6.645h-3v-5h3v5Zm-545.646-3.355h-3v-5h3v5Zm545.646-6.646h-3v-5h3v5Zm-545.646-3.354h-3v-5h3v5Zm545.646-6.646h-3v-5h3v5Zm-545.646-3.354h-3v-5h3v5Zm545.646-6.646h-3v-5h3v5Zm-545.646-3.354h-3v-5h3v5Zm545.646-6.646h-3v-5h3v5Zm-545.646-3.354h-3v-5h3v5Zm545.646-6.646h-3v-5h3v5Zm-545.646-3.354h-3v-5h3v5Zm545.646-6.646h-3v-5h3v5Zm-545.646-3.354h-3v-5h3v5Zm545.646-6.646h-3v-5h3v5Zm-545.646-3.354h-3v-5h3v5Zm545.646-6.646h-3v-5h3v5Zm-545.646-3.354h-3v-5h3v5Zm545.646-6.646h-3v-5h3v5Zm-545.646-3.354h-3v-5h3v5Zm545.646-6.646h-3v-5h3v5Zm-545.646-3.354h-3v-5h3v5Zm545.646-6.646h-3v-5h3v5Zm-545.646-3.354h-3v-5h3v5Zm545.646-6.646h-3v-5h3v5Zm-545.646-3.354h-3v-5h3v5Zm545.646-6.646h-3v-5h3v5Zm-545.646-3.354h-3v-5h3v5Zm545.646-6.646h-3v-5h3v5Zm-545.646-3.354h-3v-5h3v5Zm545.646-6.646h-3v-5h3v5Zm-545.646-3.354h-3v-5h3v5Zm545.646-6.646h-3v-5h3v5Zm-545.646-3.354h-3v-5h3v5Zm545.646-6.646h-3v-5h3v5Zm-545.646-3.354h-3v-5h3v5Zm545.646-6.646h-3v-5h3v5Zm-545.646-3.354h-3v-5h3v5Zm545.646-6.646h-3v-5h3v5Zm-545.646-3.354h-3v-5h3v5Zm545.646-6.646h-3v-5h3v5Zm-545.646-3.354h-3v-5h3v5Zm545.646-6.646h-3v-5h3v5Zm-545.646-3.354h-3v-5h3v5Zm545.646-6.646h-3v-5h3v5Zm-545.646-3.354h-3v-5h3v5Zm545.646-6.646h-3v-5h3v5Zm-545.646-3.354h-3v-5h3v5Zm545.646-6.646h-3v-5h3v5Zm-545.646-3.354h-3v-5h3v5Zm545.646-6.646h-3v-5h3v5Zm-545.646-3.354h-3v-5h3v5Zm545.646-6.646h-3v-5h3v5Zm-545.646-3.354h-3v-5h3v5Zm545.646-6.646h-3v-5h3v5Zm-545.646-3.354h-3v-5h3v5Zm545.646-6.646h-3v-5h3v5Zm-545.646-3.354h-3v-5h3v5Zm545.646-6.646h-3v-5h3v5Zm-545.646-3.354h-3v-5h3v5Zm545.646-6.646h-3v-5h3v5Zm-545.646-3.354h-3v-5h3v5Zm545.646-6.646h-3v-5h3v5Zm-545.646-3.354h-3v-5h3v5Zm545.646-6.646h-3v-5h3v5Zm-545.646-3.354h-3v-5h3v5Zm545.646-6.646h-3v-5h3v5Zm-545.646-3.354h-3v-5h3v5Zm545.646-6.646h-3v-5h3v5Zm-545.646-3.354h-3v-5h3v5Zm545.646-6.646h-3v-5h3v5Zm-545.646-3.354h-3v-5h3v5Zm545.646-6.646h-3v-5h3v5Zm-545.646-3.354h-3v-5h3v5Zm545.646-6.646h-3v-5h3v5Zm-545.646-3.354h-3v-5h3v5Zm545.646-6.646h-3v-5h3v5Zm-545.646-3.354h-3v-5h3v5Zm545.646-6.646h-3v-5h3v5Zm-545.646-3.354h-3v-5h3v5Zm545.646-6.646h-3v-5h3v5Zm-545.646-3.354h-3v-5h3v5Zm545.646-6.646h-3v-5h3v5Zm-545.646-3.354h-3v-5h3v5Zm545.646-6.646h-3v-5h3v5Zm-545.646-3.354h-3v-5h3v5Zm542.646-6.642c-.004-1.546-.201-3.083-.588-4.571l2.904-.754c.449,1.731.68,3.52.684,5.318l-3,.007Zm-542.378-3.084l-2.957-.511c.306-1.765.834-3.491,1.57-5.128l2.736,1.23c-.634,1.409-1.088,2.892-1.35,4.409Zm540.079-5.767c-.746-1.348-1.66-2.603-2.718-3.73l2.188-2.052c1.227,1.308,2.288,2.764,3.154,4.329l-2.625,1.453Zm-536.326-2.58l-2.348-1.868c1.114-1.4,2.4-2.661,3.824-3.748l1.82,2.384c-1.228.938-2.336,2.025-3.297,3.232Zm530.06-4.103c-1.301-.835-2.701-1.504-4.161-1.988l.943-2.848c1.698.562,3.326,1.34,4.838,2.311l-1.62,2.525Zm-522.777-1.451l-1.176-2.76c1.651-.704,3.387-1.196,5.159-1.465l.449,2.966c-1.522.23-3.014.654-4.433,1.258Zm514.093-1.423c-.413-.028-.83-.042-1.25-.042h-3.647v-3h3.647c.488,0,.972.016,1.453.049l-.203,2.993Zm-9.897-.042h-5v-3h5v3Zm-10,0h-5v-3h5v3Zm-10,0h-5v-3h5v3Zm-10,0h-5v-3h5v3Zm-10,0h-5v-3h5v3Zm-10,0h-5v-3h5v3Zm-10,0h-5v-3h5v3Zm-10,0h-5v-3h5v3Zm-10,0h-5v-3h5v3Zm-10,0h-5v-3h5v3Zm-10,0h-5v-3h5v3Zm-10,0h-5v-3h5v3Zm-10,0h-5v-3h5v3Zm-10,0h-5v-3h5v3Zm-10,0h-5v-3h5v3Zm-10,0h-5v-3h5v3Zm-10,0h-5v-3h5v3Zm-10,0h-5v-3h5v3Zm-10,0h-5v-3h5v3Zm-10,0h-5v-3h5v3Zm-10,0h-5v-3h5v3Zm-10,0h-5v-3h5v3Zm-10,0h-5v-3h5v3Zm-10,0h-5v-3h5v3Zm-10,0h-5v-3h5v3Zm-10,0h-5v-3h5v3Zm-10,0h-5v-3h5v3Zm-10,0h-5v-3h5v3Zm-10,0h-5v-3h5v3Zm-10,0h-5v-3h5v3Zm-10,0h-5v-3h5v3Zm-10,0h-5v-3h5v3Zm-10,0h-5v-3h5v3Zm-10,0h-5v-3h5v3Zm-10,0h-5v-3h5v3Zm-10,0h-5v-3h5v3Zm-10,0h-5v-3h5v3Zm-10,0h-5v-3h5v3Zm-10,0h-5v-3h5v3Zm-10,0h-5v-3h5v3Zm-10,0h-5v-3h5v3Zm-10,0h-5v-3h5v3Zm-10,0h-5v-3h5v3Zm-10,0h-5v-3h5v3Zm-10,0h-5v-3h5v3Zm-10,0h-5v-3h5v3Zm-10,0h-5v-3h5v3Zm-10,0h-5v-3h5v3Zm-10,0h-5v-3h5v3Zm-10,0h-5v-3h5v3Z"/>
      </g>
      <g>
        <polyline class="cls-3" points="624.829 1200.266 624.829 565.488 480.16 565.488"/>
        <polygon class="cls-9" points="632.309 1198.078 624.829 1211.03 617.35 1198.078 632.309 1198.078"/>
      </g>
      <g>
        <line class="cls-3" x1="356.325" y1="621.047" x2="356.325" y2="680.887"/>
        <polygon class="cls-9" points="350.342 679.136 356.325 689.498 362.308 679.136 350.342 679.136"/>
      </g>
      <g>
        <line class="cls-3" x1="356.325" y1="770.133" x2="356.325" y2="808.166"/>
        <polygon class="cls-9" points="350.342 806.415 356.325 816.777 362.308 806.415 350.342 806.415"/>
      </g>
      <rect class="cls-2" x="200.518" y="110.518" width="311.223" height="73.746"/>
      <g>
        <polyline class="cls-3" points="494.361 352.52 849.96 352.52 849.96 389.777"/>
        <polygon class="cls-9" points="842.48 387.589 849.96 400.541 857.439 387.589 842.48 387.589"/>
      </g>
      <text class="cls-14" transform="translate(251.646 155.737)"><tspan x="0" y="0">반티 후보 번호(n)=0</tspan></text>
      <g>
        <line class="cls-3" x1="361.956" y1="70.967" x2="361.956" y2="93.807"/>
        <polygon class="cls-9" points="355.973 92.056 361.956 102.417 367.939 92.056 355.973 92.056"/>
      </g>
      <rect class="cls-6" x="220.905" y="1" width="282.104" height="70" rx="35" ry="35"/>
      <text class="cls-14" transform="translate(247.511 45.19)"><tspan x="0" y="0">오브젝트를 클릭 했을때</tspan></text>
      <rect class="cls-2" x="200.714" y="693.654" width="311.223" height="73.746"/>
      <text class="cls-14" transform="translate(240.822 738.881)"><tspan x="0" y="0">반티 후보 번호(n)1증가</tspan></text>
      <rect class="cls-6" x="497.453" y="1438.61" width="252.744" height="70" rx="35" ry="35"/>
      <text class="cls-14" transform="translate(601.997 1482.565)"><tspan x="0" y="0">종료</tspan></text>
      <g>
        <line class="cls-3" x1="623.825" y1="1289.754" x2="623.825" y2="1423.06"/>
        <polygon class="cls-9" points="617.842 1421.309 623.825 1431.671 629.808 1421.309 617.842 1421.309"/>
      </g>
      <rect class="cls-2" x="487.215" y="1216.422" width="273.221" height="73.746"/>
      <text class="cls-14" transform="translate(505.236 1261.652)"><tspan x="0" y="0">반티 후보 번호(n)1증가</tspan></text>
      <g>
        <line class="cls-3" x1="356.325" y1="404.359" x2="356.325" y2="473.162"/>
        <polygon class="cls-9" points="350.342 471.411 356.325 481.773 362.308 471.411 350.342 471.411"/>
      </g>
      <polygon class="cls-4" points="356.129 270.204 215.207 337.626 356.129 405.047 497.051 337.626 356.129 270.204"/>
      <text class="cls-14" transform="translate(298.578 329.866)"><tspan x="0" y="0">투표한 사람</tspan><tspan x="-2.6" y="30">수 &lt; 총 인원</tspan></text>
      <polygon class="cls-4" points="356.325 486.204 215.404 565.488 356.325 644.772 497.247 565.488 356.325 486.204"/>
      <text class="cls-14" transform="translate(299.104 544.866)"><tspan x="0" y="0">반티 리스트</tspan><tspan x="-2.671" y="30">항목 수 만큼</tspan><tspan x="-3.999" y="60">반복했는가?</tspan></text>
      <text class="cls-14" transform="translate(374.77 431.482)"><tspan x="0" y="0">예</tspan></text>
      <text class="cls-14" transform="translate(436.318 670.835)"><tspan x="0" y="0">예</tspan></text>
      <text class="cls-14" transform="translate(500.715 550.007)"><tspan x="0" y="0">예</tspan></text>
      <text class="cls-14" transform="translate(507.349 330.363)"><tspan x="0" y="0">예</tspan></text>
      <g>
        <line class="cls-3" x1="356.325" y1="924.448" x2="356.325" y2="961.244"/>
        <polygon class="cls-9" points="350.342 959.493 356.325 969.855 362.308 959.493 350.342 959.493"/>
      </g>
      <polygon class="cls-1" points="476.324 924.448 186.324 924.448 236.327 819.448 526.327 819.448 476.324 924.448"/>
      <text class="cls-14" transform="translate(267.167 864.642)"><tspan x="0" y="0">n번째 반티 후보의</tspan><tspan x="42.847" y="33">점수 입력</tspan></text>
      <polygon class="cls-1" points="948.708 513.304 701.209 513.304 751.212 408.304 998.711 408.304 948.708 513.304"/>
      <text class="cls-14" transform="translate(779.147 453.498)"><tspan x="0" y="0">반티 후보 완료</tspan><tspan x="13.582" y="33">메시지 출력</tspan></text>
      <g>
        <polyline class="cls-3" points="356.129 1079.509 356.129 1118.453 87.102 1118.453 87.102 565.488 201.427 565.488"/>
        <polygon class="cls-9" points="199.677 571.471 210.038 565.488 199.677 559.505 199.677 571.471"/>
      </g>
      <rect class="cls-2" x="200.714" y="973.825" width="311.223" height="105.684"/>
      <text class="cls-14" transform="translate(231.765 1020.797)"><tspan x="0" y="0">n번째 반티 후보의 점수를</tspan><tspan x="21.026" y="33">반티 총점에 누적하기</tspan></text>
      <g>
        <path class="cls-7" d="m341.422,230.121H21.5c-11.046,0-20,9.352-20,20.889v1089.813c0,11.537,8.954,20.889,20,20.889h587.658"/>
        <path class="cls-7" d="m638.965,1361.713h396.853c11.045,0,20-9.352,20-20.889V251.01c0-11.537-8.955-20.889-20-20.889H371.149"/>
      </g>
      <g>
        <g>
          <rect class="cls-10" x="71.389" y="1151.529" width="208.788" height="60" rx="30" ry="30"/>
          <path class="cls-8" d="m250.176,1213.029h-5v-3h5v3Zm-10,0h-5v-3h5v3Zm-10,0h-5v-3h5v3Zm-10,0h-5v-3h5v3Zm-10,0h-5v-3h5v3Zm-10,0h-5v-3h5v3Zm-10,0h-5v-3h5v3Zm-10,0h-5v-3h5v3Zm-10,0h-5v-3h5v3Zm-10,0h-5v-3h5v3Zm-10,0h-5v-3h5v3Zm-10,0h-5v-3h5v3Zm-10,0h-5v-3h5v3Zm-10,0h-5v-3h5v3Zm-10,0h-5v-3h5v3Zm141.2-.022l-.113-2.998c1.583-.059,3.168-.251,4.709-.569l.607,2.938c-1.704.352-3.455.563-5.203.629Zm-151.259-.002c-1.75-.07-3.5-.286-5.201-.641l.613-2.937c1.539.322,3.123.517,4.707.58l-.119,2.998Zm161.489-2.114l-1.088-2.796c1.467-.571,2.898-1.271,4.257-2.083l1.539,2.575c-1.501.897-3.085,1.673-4.708,2.304Zm-171.72-.027c-1.626-.638-3.209-1.418-4.706-2.318l1.547-2.571c1.354.814,2.785,1.52,4.255,2.096l-1.096,2.793Zm180.688-5.331l-1.943-2.285c1.203-1.023,2.329-2.154,3.347-3.362l2.295,1.933c-1.125,1.335-2.369,2.584-3.698,3.715Zm-189.646-.052c-1.326-1.134-2.567-2.387-3.688-3.724l2.299-1.928c1.015,1.21,2.139,2.345,3.339,3.371l-1.949,2.28Zm196.378-7.938l-2.582-1.527c.806-1.362,1.501-2.799,2.065-4.27l2.801,1.075c-.625,1.627-1.394,3.216-2.284,4.722Zm-203.09-.068c-.885-1.504-1.648-3.094-2.271-4.724l2.803-1.069c.562,1.475,1.253,2.912,2.054,4.272l-2.586,1.521Zm206.838-9.693l-2.941-.593c.311-1.542.494-3.127.547-4.712l2.998.099c-.058,1.75-.261,3.502-.604,5.206Zm-210.561-.07c-.338-1.703-.537-3.454-.592-5.206l2.998-.094c.05,1.587.23,3.174.536,4.715l-2.942.585Zm207.933-9.975c-.208-1.567-.55-3.125-1.016-4.631l2.867-.886c.515,1.666.892,3.389,1.123,5.122l-2.975.396Zm-205.281-.063l-2.973-.401c.233-1.729.614-3.451,1.133-5.119l2.865.892c-.47,1.508-.814,3.065-1.025,4.629Zm202.492-8.965c-.711-1.409-1.546-2.768-2.481-4.041l2.416-1.777c1.034,1.407,1.957,2.909,2.743,4.466l-2.678,1.352Zm-199.681-.059l-2.676-1.358c.79-1.554,1.716-3.055,2.754-4.461l2.414,1.782c-.94,1.272-1.778,2.63-2.492,4.037Zm194.083-7.559c-1.136-1.103-2.369-2.117-3.666-3.015l1.707-2.467c1.433.992,2.795,2.112,4.049,3.33l-2.09,2.152Zm-188.465-.049l-2.086-2.156c1.257-1.216,2.622-2.333,4.058-3.32l1.699,2.472c-1.298.893-2.533,1.904-3.671,3.004Zm180.686-5.331c-1.429-.671-2.925-1.225-4.448-1.647l.803-2.891c1.685.467,3.34,1.081,4.921,1.822l-1.275,2.716Zm-172.898-.028l-1.268-2.719c1.583-.738,3.239-1.347,4.921-1.81l.796,2.893c-1.521.418-3.018.969-4.449,1.636Zm163.791-2.5c-.981-.102-1.983-.154-2.978-.154h-1.86v-3h1.86c1.097,0,2.203.057,3.288.169l-.311,2.984Zm-154.681-.007l-.303-2.984c1.06-.108,2.142-.163,3.218-.163h1.928v3h-1.928c-.975,0-1.955.049-2.915.147Zm144.843-.147h-5v-3h5v3Zm-10,0h-5v-3h5v3Zm-10,0h-5v-3h5v3Zm-10,0h-5v-3h5v3Zm-10,0h-5v-3h5v3Zm-10,0h-5v-3h5v3Zm-10,0h-5v-3h5v3Zm-10,0h-5v-3h5v3Zm-10,0h-5v-3h5v3Zm-10,0h-5v-3h5v3Zm-10,0h-5v-3h5v3Zm-10,0h-5v-3h5v3Zm-10,0h-5v-3h5v3Zm-10,0h-5v-3h5v3Z"/>
        </g>
        <text class="cls-13" transform="translate(99.078 1190.732)"><tspan x="0" y="0">안쪽 선택 구조</tspan></text>
      </g>
    </g>
  </g>
  <g>
    <rect class="cls-5" x="785.317" y="200.121" width="210" height="60" rx="30" ry="30"/>
    <text class="cls-13" transform="translate(813.612 239.324)"><tspan x="0" y="0">바깥 선택 구조</tspan></text>
  </g>
</svg>