<?xml version="1.0" encoding="UTF-8"?>
<svg id="_레이어_1" data-name="레이어 1" xmlns="http://www.w3.org/2000/svg" viewBox="0 0 553.291 1112.325">
  <defs>
    <style>
      .cls-1 {
        fill: #707070;
        stroke-width: 0px;
      }

      .cls-2 {
        fill: #b6eda2;
        stroke: #6ea159;
      }

      .cls-2, .cls-3, .cls-4, .cls-5 {
        stroke-miterlimit: 10;
      }

      .cls-3 {
        fill: none;
        stroke: #707070;
        stroke-width: 3px;
      }

      .cls-4 {
        fill: #caebfc;
        stroke: #3295c3;
      }

      .cls-6 {
        font-family: Pretendard-Bold-KSCpc-EUC-H, Pretendard;
        font-size: 26px;
        font-weight: 700;
        letter-spacing: -.025em;
      }

      .cls-5 {
        fill: #d9cfff;
        stroke: #8c7bc6;
      }
    </style>
  </defs>
  <g>
    <g>
      <polyline class="cls-3" points="419.872 296.579 551.791 296.579 551.791 999.143 260.098 999.143 260.098 1033.214"/>
      <polygon class="cls-1" points="254.114 1031.464 260.098 1041.825 266.081 1031.464 254.114 1031.464"/>
    </g>
    <g>
      <polyline class="cls-3" points="81.054 296.579 1.5 296.579 1.5 977.801 255.864 977.801 255.864 942.963"/>
      <polygon class="cls-1" points="79.303 290.596 89.665 296.579 79.303 302.563 79.303 290.596"/>
    </g>
    <g>
      <line class="cls-3" x1="257.83" y1="70.467" x2="257.83" y2="104.538"/>
      <polygon class="cls-1" points="251.846 102.788 257.83 113.149 263.813 102.788 251.846 102.788"/>
    </g>
    <g>
      <polyline class="cls-3" points="402.787 473.028 520.771 473.028 520.771 842.189 268.708 842.189"/>
      <polygon class="cls-1" points="270.459 836.205 260.098 842.189 270.459 848.172 270.459 836.205"/>
    </g>
    <g>
      <line class="cls-3" x1="257.83" y1="364.253" x2="257.83" y2="395.438"/>
      <polygon class="cls-1" points="251.846 393.688 257.83 404.049 263.813 393.688 251.846 393.688"/>
    </g>
    <g>
      <line class="cls-3" x1="257.83" y1="541.543" x2="257.83" y2="572.729"/>
      <polygon class="cls-1" points="251.846 570.978 257.83 581.339 263.813 570.978 251.846 570.978"/>
    </g>
    <g>
      <line class="cls-3" x1="257.83" y1="186.511" x2="257.614" y2="219.908"/>
      <polygon class="cls-1" points="251.642 218.118 257.558 228.518 263.608 218.196 251.642 218.118"/>
    </g>
    <g>
      <line class="cls-3" x1="258.393" y1="674.283" x2="258.393" y2="710.177"/>
      <polygon class="cls-1" points="252.409 708.426 258.393 718.788 264.376 708.426 252.409 708.426"/>
    </g>
    <g>
      <line class="cls-3" x1="258.393" y1="815.476" x2="258.393" y2="862.223"/>
      <polygon class="cls-1" points="252.409 860.472 258.393 870.834 264.376 860.472 252.409 860.472"/>
    </g>
    <polygon class="cls-5" points="257.558 228.518 90.506 296.579 257.558 364.641 424.609 296.579 257.558 228.518"/>
    <rect class="cls-2" x="131.664" y=".5" width="252.744" height="70" rx="35" ry="35"/>
    <text class="cls-6" transform="translate(168.955 44.692)"><tspan x="0" y="0">‘최댓값’ 함수 시작</tspan></text>
    <g>
      <rect class="cls-2" x="131.664" y="1041.825" width="252.744" height="70" rx="35" ry="35"/>
      <text class="cls-6" transform="translate(211.716 1086.017)"><tspan x="0" y="0">함수 종료</tspan></text>
    </g>
    <rect class="cls-4" x="142.291" y="113.195" width="230.533" height="73.746"/>
    <text class="cls-6" transform="translate(184.395 158.405)"><tspan x="0" y="0">n을 1로 정하기</tspan></text>
    <rect class="cls-4" x="102.748" y="870.062" width="311.223" height="73.746"/>
    <text class="cls-6" transform="translate(174.258 915.272)"><tspan x="0" y="0">n을 1만큼 더하기</tspan></text>
    <text class="cls-6" transform="translate(200.278 280.05)"><tspan x="0" y="0">반티 총점의</tspan><tspan x="-63.893" y="31">항목 수만큼 반복했는가?</tspan></text>
    <polygon class="cls-5" points="257.558 405.035 90.506 473.096 257.558 541.157 424.609 473.096 257.558 405.035"/>
    <text class="cls-6" transform="translate(425.011 454.646)"><tspan x="0" y="0">아니요</tspan></text>
    <text class="cls-6" transform="translate(272.504 391.737)"><tspan x="0" y="0">아니요</tspan></text>
    <rect class="cls-4" x="102.729" y="581.244" width="311.223" height="97.594"/>
    <text class="cls-6" transform="translate(154.467 621.89)"><tspan x="0" y="0">최댓값을 반티 총점의</tspan><tspan x="-7.444" y="33">n번째 항목으로 정하기</tspan></text>
    <rect class="cls-4" x="102.729" y="719.792" width="311.223" height="97.594"/>
    <text class="cls-6" transform="translate(165.378 760.437)"><tspan x="0" y="0">최댓값 항목 번호를</tspan><tspan x="27.958" y="33">n으로 정하기</tspan></text>
    <text class="cls-6" transform="translate(279.614 564.41)"><tspan x="0" y="0">예</tspan></text>
  </g>
  <text class="cls-6" transform="translate(143.85 475.149)"><tspan x="0" y="0">반티 총점의 n번째 항목</tspan><tspan x="45.411" y="31">&gt; 최댓값?</tspan></text>
  <text class="cls-6" transform="translate(432.388 280.049)"><tspan x="0" y="0">예</tspan></text>
</svg>