<?xml version="1.0" encoding="UTF-8"?>
<svg id="_레이어_1" data-name="레이어 1" xmlns="http://www.w3.org/2000/svg" viewBox="0 0 677.072 862.207">
  <defs>
    <style>
      .cls-1 {
        fill: #707070;
        stroke-width: 0px;
      }

      .cls-2 {
        fill: #b6eda2;
        stroke: #6ea159;
      }

      .cls-2, .cls-3, .cls-4, .cls-5, .cls-6 {
        stroke-miterlimit: 10;
      }

      .cls-3 {
        fill: none;
        stroke: #707070;
        stroke-width: 3px;
      }

      .cls-4 {
        fill: #caebfc;
        stroke: #3295c3;
      }

      .cls-7 {
        font-family: Pretendard-Bold-KSCpc-EUC-H, Pretendard;
        font-size: 26px;
        font-weight: 700;
        letter-spacing: -.025em;
      }

      .cls-5 {
        fill: #d9cfff;
        stroke: #8c7bc6;
      }

      .cls-6 {
        fill: #ffe697;
        stroke: #bb7d0c;
      }
    </style>
  </defs>
  <rect class="cls-4" x="66.302" y="110.018" width="311.223" height="73.746"/>
  <g>
    <polyline class="cls-3" points="539.094 669.159 539.094 299.388 350.144 299.388"/>
    <polygon class="cls-1" points="546.574 666.971 539.094 679.923 531.616 666.971 546.574 666.971"/>
  </g>
  <g>
    <line class="cls-3" x1="221.914" y1="183.1" x2="221.914" y2="211.461"/>
    <polygon class="cls-1" points="215.93 209.71 221.914 220.072 227.896 209.71 215.93 209.71"/>
  </g>
  <text class="cls-7" transform="translate(117.429 155.237)"><tspan x="0" y="0">반티 후보 번호(n)=0</tspan></text>
  <g>
    <line class="cls-3" x1="221.914" y1="70.467" x2="221.914" y2="101.345"/>
    <polygon class="cls-1" points="215.93 99.594 221.914 109.956 227.896 99.594 215.93 99.594"/>
  </g>
  <rect class="cls-2" x="78.574" y=".5" width="287.747" height="70" rx="35" ry="35"/>
  <text class="cls-7" transform="translate(108.002 44.69)"><tspan x="0" y="0">오브젝트를 클릭했을 때</tspan></text>
  <g>
    <line class="cls-3" x1="221.914" y1="498.097" x2="221.914" y2="527.773"/>
    <polygon class="cls-1" points="215.93 526.022 221.914 536.384 227.896 526.022 215.93 526.022"/>
  </g>
  <rect class="cls-4" x="66.302" y="424.765" width="311.223" height="73.746"/>
  <text class="cls-7" transform="translate(125.415 469.992)"><tspan x="0" y="0">반티 후보(n) 1 증가</tspan></text>
  <g>
    <line class="cls-3" x1="538.946" y1="753.317" x2="538.946" y2="782.096"/>
    <polygon class="cls-1" points="532.963 780.345 538.946 790.707 544.929 780.345 532.963 780.345"/>
  </g>
  <rect class="cls-4" x="403.336" y="679.985" width="273.221" height="73.746"/>
  <text class="cls-7" transform="translate(437.553 725.214)"><tspan x="0" y="0">투표한 사람 수 1증가</tspan></text>
  <g>
    <line class="cls-3" x1="221.914" y1="375.518" x2="221.914" y2="416.092"/>
    <polygon class="cls-1" points="215.93 414.341 221.914 424.703 227.896 414.341 215.93 414.341"/>
  </g>
  <polygon class="cls-5" points="221.914 220.072 80.992 299.388 221.914 378.704 362.835 299.388 221.914 220.072"/>
  <text class="cls-7" transform="translate(161.691 276.735)"><tspan x="0" y="0">반티 리스트 </tspan><tspan x="0" y="30">항목 수만큼 </tspan><tspan x="-1.328" y="60">반복했는가?</tspan></text>
  <text class="cls-7" transform="translate(243.12 404.489)"><tspan x="0" y="0">아니요</tspan></text>
  <text class="cls-7" transform="translate(374.519 281.296)"><tspan x="0" y="0">예</tspan></text>
  <g>
    <line class="cls-3" x1="221.702" y1="621.966" x2="221.702" y2="648.713"/>
    <polygon class="cls-1" points="215.719 646.962 221.702 657.324 227.685 646.962 215.719 646.962"/>
  </g>
  <polygon class="cls-6" points="331.911 621.976 51.912 621.976 111.916 536.978 391.915 536.978 331.911 621.976"/>
  <text class="cls-7" transform="translate(132.156 572.171)"><tspan x="0" y="0">n번째 반티 후보의</tspan><tspan x="42.847" y="33">점수 입력</tspan></text>
  <g>
    <polyline class="cls-3" points="221.913 753.655 221.913 797.107 1.5 797.107 1.5 299.388 71.982 299.388"/>
    <polygon class="cls-1" points="70.232 305.371 80.593 299.388 70.232 293.405 70.232 305.371"/>
  </g>
  <rect class="cls-4" x="66.302" y="657.386" width="311.223" height="95.683"/>
  <text class="cls-7" transform="translate(97.023 697.357)"><tspan x="0" y="0">n번째 반티 후보의 점수를</tspan><tspan x="21.026" y="33">반티 총점에 누적하기</tspan></text>
  <g>
    <rect class="cls-2" x="453.417" y="791.707" width="171.736" height="70" rx="35" ry="35"/>
    <text class="cls-7" transform="translate(528.374 835.897)"><tspan x="0" y="0">끝</tspan></text>
  </g>
</svg>