<?xml version="1.0" encoding="UTF-8"?>
<svg id="_레이어_1" data-name="레이어 1" xmlns="http://www.w3.org/2000/svg" viewBox="0 0 33 33">
  <defs>
    <style>
      .cls-1 {
        fill: #fff;
      }

      .cls-1, .cls-2 {
        stroke-width: 0px;
      }

      .cls-2 {
        fill: #44494f;
      }
    </style>
  </defs>
  <rect class="cls-1" width="33" height="33"/>
  <g>
    <path class="cls-2" d="m24.663,30.173h-11.648c-1.807,0-3.276-1.47-3.276-3.276v-15.906c0-1.807,1.47-3.276,3.276-3.276h11.648c1.806,0,3.276,1.47,3.276,3.276v15.906c0,1.807-1.47,3.276-3.276,3.276ZM13.015,9.915c-.594,0-1.076.483-1.076,1.076v15.906c0,.594.483,1.076,1.076,1.076h11.648c.593,0,1.076-.483,1.076-1.076v-15.906c0-.594-.483-1.076-1.076-1.076h-11.648Z"/>
    <path class="cls-2" d="m7.261,22.637h-2.2V6.237c0-1.88,1.53-3.41,3.41-3.41h13.384v2.2h-13.384c-.667,0-1.209.542-1.209,1.209v16.4Z"/>
  </g>
</svg>