<?xml version="1.0" encoding="UTF-8"?>
<svg id="_레이어_1" data-name="레이어 1" xmlns="http://www.w3.org/2000/svg" viewBox="0 0 33 30">
  <defs>
    <style>
      .cls-1 {
        stroke-width: 0px;
      }
    </style>
  </defs>
  <path class="cls-1" d="m31.49,27.152H4.327c-.825,0-1.496-.675-1.496-1.505v-7.871l5.522-2.461c.517.448,1.188.722,1.922.722.319,0,.625-.053.912-.147l2.99,3.316c-.089.283-.138.583-.138.894,0,1.636,1.323,2.966,2.949,2.966s2.949-1.331,2.949-2.966c0-.281-.042-.552-.114-.809l9.404-8.979c.262.077.538.12.824.12,1.626,0,2.949-1.331,2.949-2.966s-1.323-2.966-2.949-2.966-2.949,1.331-2.949,2.966c0,.289.043.568.12.833l-9.386,8.962c-.269-.081-.553-.126-.848-.126-.264,0-.519.038-.762.104l-3.097-3.435c.06-.235.095-.479.095-.733,0-1.635-1.323-2.966-2.949-2.966-1.481,0-2.707,1.105-2.914,2.537l-4.53,2.019V1.424c0-.787-.634-1.424-1.416-1.424S0,.638,0,1.424v24.223c0,2.4,1.941,4.353,4.327,4.353h27.163c.782,0,1.416-.638,1.416-1.424s-.634-1.424-1.416-1.424ZM10.276,14.79c-.943,0-1.71-.772-1.71-1.72s.767-1.72,1.71-1.72,1.71.772,1.71,1.72-.767,1.72-1.71,1.72Zm6.714,7.029c-.943,0-1.71-.772-1.71-1.72s.767-1.72,1.71-1.72,1.71.772,1.71,1.72-.767,1.72-1.71,1.72ZM30.051,5.746c.943,0,1.71.772,1.71,1.72s-.767,1.72-1.71,1.72-1.71-.772-1.71-1.72.767-1.72,1.71-1.72Z"/>
</svg>