<?xml version="1.0" encoding="UTF-8"?>
<svg id="_레이어_1" data-name="레이어 1" xmlns="http://www.w3.org/2000/svg" viewBox="0 0 33 33">
  <defs>
    <style>
      .cls-1 {
        fill: #01879e;
      }

      .cls-1, .cls-2 {
        stroke-width: 0px;
      }

      .cls-2 {
        fill: #fff;
      }
    </style>
  </defs>
  <rect class="cls-1" width="33" height="33"/>
  <path class="cls-2" d="m22.225,3.6l-.554.604c-.104.113-.096.29.017.393l.636.583c.113.104.121.28.017.393l-.13.142c-.104.113-.28.121-.393.017l-.636-.583c-.113-.104-.289-.096-.393.017l-.558.609c-.104.113-.096.289.017.393l1.203,1.103c.113.104.121.28.017.393l-.13.142c-.104.113-.28.121-.393.017l-1.203-1.103c-.113-.104-.289-.096-.393.017l-.632.689c-.104.113-.096.289.017.393l.636.583c.113.104.121.28.017.393l-.13.142c-.104.113-.28.121-.393.017l-.636-.583c-.113-.104-.289-.096-.393.017l-.559.609c-.104.113-.096.289.017.393l1.203,1.103c.113.104.121.28.017.393l-.13.142c-.104.113-.28.121-.393.017l-1.203-1.103c-.113-.104-.289-.096-.393.017l-.632.689c-.104.113-.096.289.017.393l.636.583c.113.104.121.28.017.393l-.13.142c-.104.113-.28.121-.393.017l-.636-.583c-.113-.104-.289-.096-.393.017l-.559.609c-.104.113-.096.289.017.393l1.203,1.103c.113.104.121.28.017.393l-.13.142c-.104.113-.28.121-.393.017l-1.202-1.103c-.113-.104-.289-.096-.393.017l-.632.689c-.104.113-.096.29.017.393l.636.583c.113.104.121.28.017.393l-.13.142c-.104.113-.28.121-.393.017l-.636-.583c-.113-.104-.289-.096-.393.017l-.558.609c-.104.113-.096.289.017.393l1.203,1.103c.113.104.121.28.017.393l-.13.142c-.104.113-.28.121-.393.017l-1.203-1.103c-.113-.104-.289-.096-.393.017l-.632.689c-.104.113-.096.289.017.393l.636.583c.113.104.121.28.017.393l-.13.142c-.104.113-.28.121-.393.017l-.636-.583c-.113-.104-.289-.096-.393.017l-.559.609c-.104.113-.096.289.017.393l1.203,1.103c.113.104.121.28.017.393l-.13.142c-.104.113-.28.121-.393.017l-1.203-1.103c-.113-.104-.289-.096-.393.017l-.591.645c-.104.113-.096.289.017.393l5.7,5.226c.311.285.793.264,1.078-.047l14.641-15.969c.285-.311.264-.793-.047-1.078l-5.7-5.226c-.113-.104-.289-.096-.393.017Z"/>
  <polygon class="cls-2" points="5.531 31.137 1.931 27.062 1.931 31.137 5.531 31.137"/>
</svg>