<?xml version="1.0" encoding="UTF-8"?>
<svg id="_레이어_1" data-name="레이어 1" xmlns="http://www.w3.org/2000/svg" viewBox="0 0 44.855 33">
  <defs>
    <style>
      .cls-1 {
        fill: #01879e;
      }

      .cls-1, .cls-2 {
        stroke-width: 0px;
      }

      .cls-2 {
        fill: #fff;
      }
    </style>
  </defs>
  <rect class="cls-1" x="0" y="0" width="44.855" height="33"/>
  <g>
    <path class="cls-2" d="m37.596,4.209H7.259c-.901,0-1.634.733-1.634,1.634v21.314c0,.901.733,1.634,1.634,1.634h30.338c.901,0,1.634-.733,1.634-1.634V5.843c0-.901-.733-1.634-1.634-1.634Zm.405,1.634v6.759h-6.356v-7.164h5.952c.223,0,.405.182.405.405Zm-13.81,6.759v-7.164h6.224v7.164h-6.224Zm6.224,1.229v3.687h-6.224v-3.687h6.224Zm-7.453-1.229h-6.224v-7.164h6.224v7.164Zm0,1.229v3.687h-6.224v-3.687h6.224Zm-7.453,3.687H6.854v-3.687h8.656v3.687Zm0,1.229v3.687H6.854v-3.687h8.656Zm1.229,0h6.224v3.687h-6.224v-3.687Zm6.224,4.916v3.898h-6.224v-3.898h6.224Zm1.229,0h6.224v3.898h-6.224v-3.898Zm0-1.229v-3.687h6.224v3.687h-6.224Zm7.453-3.687h6.356v3.687h-6.356v-3.687Zm0-1.229v-3.687h6.356v3.687h-6.356ZM7.259,5.438h8.251v7.164H6.854v-6.759c0-.223.182-.405.405-.405Zm-.405,21.719v-3.494h8.656v3.898H7.259c-.223,0-.405-.182-.405-.405Zm30.743.405h-5.952v-3.898h6.356v3.494c0,.223-.182.405-.405.405Z"/>
    <rect class="cls-2" x="8.089" y="6.53" width="6.224" height="4.83"/>
    <rect class="cls-2" x="18.01" y="6.53" width="3.594" height="4.83"/>
    <rect class="cls-2" x="25.506" y="6.53" width="3.594" height="4.83"/>
    <rect class="cls-2" x="32.946" y="6.53" width="3.594" height="4.83"/>
  </g>
</svg>