<?xml version="1.0" encoding="UTF-8"?>
<svg id="_레이어_2" data-name="레이어 2" xmlns="http://www.w3.org/2000/svg" viewBox="0 0 1228.692 618.706">
  <defs>
    <style>
      .cls-1 {
        fill: #8b19db;
      }

      .cls-1, .cls-2, .cls-3, .cls-4, .cls-5, .cls-6, .cls-7, .cls-8, .cls-9, .cls-10, .cls-11, .cls-12, .cls-13, .cls-14, .cls-15, .cls-16, .cls-17 {
        stroke-width: 0px;
      }

      .cls-2, .cls-18, .cls-19, .cls-20, .cls-21, .cls-22 {
        fill: #fefefe;
      }

      .cls-23 {
        stroke-dasharray: 0 0 4.012 2.006;
      }

      .cls-23, .cls-24, .cls-25, .cls-26, .cls-27, .cls-28 {
        stroke-width: 2px;
      }

      .cls-23, .cls-29, .cls-25 {
        fill: none;
      }

      .cls-23, .cls-29, .cls-25, .cls-26, .cls-27 {
        stroke-linejoin: round;
      }

      .cls-23, .cls-25 {
        stroke: red;
      }

      .cls-3 {
        fill: #25aeff;
      }

      .cls-4 {
        fill: #b819b3;
      }

      .cls-24 {
        fill: #dc47d7;
        stroke: #b719b2;
      }

      .cls-24, .cls-28 {
        stroke-miterlimit: 10;
      }

      .cls-29 {
        stroke: #fff;
        stroke-width: 4px;
      }

      .cls-5 {
        fill: #fefdfe;
      }

      .cls-30 {
        font-size: 21.411px;
      }

      .cls-30, .cls-18, .cls-19, .cls-20, .cls-21, .cls-22, .cls-31 {
        font-family: Pretendard-Bold-KSCpc-EUC-H, Pretendard;
        font-weight: 700;
      }

      .cls-6 {
        fill: #c62042;
      }

      .cls-25 {
        stroke-dasharray: 0 0 4.016 2.008;
      }

      .cls-26 {
        fill: #fe3a61;
        stroke: #c62142;
      }

      .cls-26, .cls-27 {
        stroke-linecap: round;
      }

      .cls-18, .cls-21, .cls-22 {
        font-size: 26px;
      }

      .cls-7 {
        fill: #b719b2;
      }

      .cls-19 {
        font-size: 25.605px;
      }

      .cls-20, .cls-31 {
        font-size: 22px;
      }

      .cls-8 {
        fill: #dd47d8;
      }

      .cls-9 {
        fill: #1592ff;
      }

      .cls-10 {
        fill: #bd65fb;
      }

      .cls-27 {
        fill: #ad3efb;
        stroke: #8b19db;
      }

      .cls-11 {
        fill: #f577f1;
      }

      .cls-12 {
        fill: #17a6d1;
      }

      .cls-13 {
        fill: #fedd81;
      }

      .cls-14 {
        fill: #f677f2;
      }

      .cls-21 {
        letter-spacing: -.025em;
      }

      .cls-15 {
        fill: #fe9b00;
      }

      .cls-22 {
        letter-spacing: -.01em;
      }

      .cls-31 {
        fill: #fff;
      }

      .cls-28 {
        fill: #19baea;
        stroke: #1498c0;
      }

      .cls-16 {
        fill: #f2f2f2;
      }

      .cls-17 {
        fill: #fe5576;
      }
    </style>
  </defs>
  <g>
    <g>
      <g>
        <path class="cls-28" d="m21.64,65.053s-5.2-2.719-7.532-4.568c-7.301-5.786-11.647-13.18-12.825-22.461C.212,29.582,2.193,21.879,7.067,15.04,12.681,7.161,20.381,2.463,30.1,1.274c9.447-1.156,17.928,1.343,25.093,7.428,2.309,1.961,4.441,2.392,7.168,2.399,81.918.211,205.238.465,287.156.713,13.081.04,24.448,9.349,26.741,22.14,2.77,15.451-7.86,29.794-23.175,31.684-.205.025-.396.168-.594.256-.891.016-1.782.048-2.673.045-86.874-.26-213.082-.518-299.955-.816-1.521-.005-3.359.6-4.467,1.637-3.011,2.817-7.02,5.994-10.342,8.97-.791.809-1.254.903-2.094.031-3.131-3.25-6.346-6.419-9.533-9.615-.505-.507-1.787-1.095-1.787-1.095Z"/>
        <g>
          <path class="cls-2" d="m34.019,61.097c-14.927-.049-27.039-12.211-27-27.111.038-14.888,12.218-27,27.15-27h.125c14.9.067,26.976,12.265,26.917,27.193-.058,14.843-12.216,26.918-27.102,26.918h-.091Z"/>
          <path class="cls-16" d="m34.178,5.986v2h.113c14.35.065,25.978,11.813,25.922,26.19-.056,14.293-11.765,25.921-26.102,25.921h-.087c-14.375-.047-26.041-11.759-26.003-26.109.037-14.336,11.768-26.001,26.152-26.002l.007-2m-.007,0c-15.526.001-28.112,12.502-28.151,27.998-.04,15.454,12.517,28.063,27.997,28.114h.094c15.444,0,28.042-12.503,28.103-27.914.06-15.478-12.463-28.128-27.913-28.197-.044,0-.085,0-.129,0h0Z"/>
        </g>
        <text class="cls-19" transform="translate(73.231 47.449) rotate(.173)"><tspan x="0" y="0">복제본이 처음 생성되었을 때</tspan></text>
      </g>
      <g>
        <path class="cls-12" d="m40.648,26.59c0-3.646-2.987-6.594-6.648-6.531-3.55.061-6.487,3.116-6.415,6.665.039,1.91.9,3.616,2.241,4.784.647.564,1.193,1.235,1.51,2.033l.179.452h5.202l.23-.58c.288-.726.786-1.336,1.383-1.84,1.417-1.197,2.319-2.983,2.319-4.984Z"/>
        <path class="cls-12" d="m41.193,39.171h-3.883v-2.081h-6.387v2.081h-3.883c-3.033,0-5.492,2.459-5.492,5.492h25.137c0-3.033-2.459-5.492-5.492-5.492Z"/>
        <path class="cls-12" d="m24.765,48.025h18.702c1.256,0,2.274-1.018,2.274-2.274h-23.25c0,1.256,1.018,2.274,2.274,2.274Z"/>
      </g>
    </g>
    <g>
      <g>
        <g>
          <path class="cls-24" d="m526.519,65.178H48.413c-.796,0-1.564.292-2.159.82l-11.62,10.321-12.036-10.604c-.237-.209-.609-.041-.609.275v52.811c0,.098.042.191.115.259l12.53,11.113,12.543-11.219h479.341c15.329,0,27.871-12.1,27.871-26.888h0c0-14.789-12.542-26.888-27.871-26.888Z"/>
          <text class="cls-18" transform="translate(353.998 100.15)"><tspan x="0" y="0">(으)로 정하기</tspan></text>
          <text class="cls-18" transform="translate(163.306 100.15)"><tspan x="0" y="0">을(를)</tspan></text>
          <g>
            <path class="cls-7" d="m502.233,91.989c.085-12.114,9.79-22.01,22.342-21.937,12.159.071,22.178,9.883,21.961,22.471-.203,11.764-9.754,21.773-22.498,21.598-12.042-.166-21.794-9.762-21.805-22.132Z"/>
            <path class="cls-14" d="m524.193,82.044c3.973.048,6.605,2.132,7.169,5.536.236,1.421-.185,2.643-1.127,3.671-.864.943-1.773,1.854-2.731,2.702-1.025.909-1.869,1.892-2.145,3.28-.232,1.167-.936,1.732-2.155,1.54-1.232-.194-1.334-1.074-1.385-2.104-.103-2.069,1.042-3.441,2.431-4.709.657-.599,1.396-1.122,1.982-1.782,1.412-1.588,1.315-3.285-.17-4.344-1.397-.997-3.888-.624-4.788.786-.444.696-.76,1.483-1.061,2.257-.461,1.186-1.382,1.378-2.45,1.155-1.088-.227-1.328-1.054-1.254-2.043.193-2.571,1.812-4.116,3.935-5.163,1.186-.585,2.528-.865,3.748-.783Z"/>
            <path class="cls-11" d="m523.71,104.756c-1.32,0-2.19-.878-2.179-2.197.011-1.354.827-2.157,2.191-2.156,1.361,0,2.177.81,2.183,2.167.006,1.3-.885,2.187-2.195,2.186Z"/>
          </g>
        </g>
        <g>
          <path class="cls-7" d="m145.333,72.624l-85.006-.061c-3.657-.014-6.893,2.767-6.868,6.912.052,8.797.052,17.595,0,26.392-.024,4.145,3.212,6.915,6.869,6.91,56.653-.084,28.353-.059,85.006-.059,4.46,0,6.868-2.426,6.87-6.935.004-8.742.004-17.483,0-26.225-.002-4.508-2.41-6.934-6.871-6.934Z"/>
          <path class="cls-5" d="m137.192,87.415c1.503,0,3.006-.003,4.509.001.951.003,1.744.288,2.197,1.211.47.958.064,1.702-.534,2.425-1.451,1.754-2.859,3.543-4.343,5.268-1.318,1.533-2.389,1.523-3.72-.029-1.519-1.771-2.972-3.598-4.452-5.402-.521-.635-.812-1.313-.452-2.145.374-.865,1.045-1.293,1.954-1.309,1.614-.027,3.228-.008,4.842-.008v-.013Z"/>
          <text class="cls-20" transform="translate(60.838 100.797)"><tspan x="0" y="0">복제본i</tspan></text>
        </g>
        <g>
          <g>
            <path class="cls-8" d="m258.432,111.906c-10.975,0-19.903-8.929-19.903-19.903s8.928-19.903,19.903-19.903h67.412c10.975,0,19.903,8.928,19.903,19.903s-8.928,19.903-19.903,19.903h-67.412Z"/>
            <path class="cls-4" d="m325.844,73.099c10.423,0,18.903,8.48,18.903,18.903s-8.48,18.903-18.903,18.903h-67.412c-10.423,0-18.903-8.48-18.903-18.903s8.48-18.903,18.903-18.903h67.412m0-2h-67.412c-11.497,0-20.903,9.406-20.903,20.903s9.406,20.903,20.903,20.903h67.412c11.497,0,20.903-9.406,20.903-20.903s-9.406-20.903-20.903-20.903h0Z"/>
          </g>
          <rect class="cls-4" x="253.013" y="72.519" width="45.092" height="38.968" rx="3.871" ry="3.871"/>
          <text class="cls-31" transform="translate(311.015 100.355)"><tspan x="0" y="0">값</tspan></text>
          <text class="cls-31" transform="translate(263.539 100.356)"><tspan x="0" y="0">i</tspan></text>
          <path class="cls-5" d="m282.411,87.325c1.503,0,3.006-.003,4.509.001.951.003,1.744.288,2.197,1.211.47.958.064,1.702-.534,2.425-1.451,1.754-2.859,3.543-4.343,5.268-1.318,1.533-2.389,1.523-3.72-.029-1.519-1.771-2.972-3.598-4.452-5.402-.521-.635-.812-1.313-.452-2.145.374-.865,1.045-1.293,1.954-1.309,1.614-.027,3.228-.008,4.842-.008v-.013Z"/>
        </g>
      </g>
      <g>
        <g>
          <path class="cls-24" d="m1087.602,174.608H47.178l-12.543,11.141-12.024-10.593c-.238-.21-.622-.047-.622.265v52.811c0,.098.042.191.115.259l12.53,11.113,12.543-11.219h1040.424c15.329,0,27.871-12.1,27.871-26.888h0c0-14.789-12.542-26.888-27.871-26.888Z"/>
          <path class="cls-7" d="m1063.316,202.001c.085-12.114,9.79-22.01,22.342-21.937,12.159.071,22.178,9.883,21.961,22.471-.203,11.764-9.754,21.773-22.498,21.598-12.042-.166-21.794-9.762-21.805-22.132Z"/>
          <text class="cls-18" transform="translate(915.082 209.58)"><tspan x="0" y="0">(으)로 정하기</tspan></text>
          <text class="cls-18" transform="translate(111.183 209.58)"><tspan x="0" y="0">을(를)</tspan></text>
          <path class="cls-14" d="m1085.276,192.057c3.973.048,6.605,2.132,7.169,5.536.236,1.421-.185,2.643-1.127,3.671-.864.943-1.773,1.854-2.731,2.702-1.025.909-1.869,1.892-2.145,3.28-.232,1.167-.936,1.732-2.155,1.54-1.232-.194-1.334-1.074-1.385-2.104-.103-2.069,1.042-3.441,2.431-4.709.657-.599,1.396-1.122,1.982-1.782,1.412-1.588,1.315-3.285-.17-4.344-1.397-.997-3.888-.624-4.788.786-.444.696-.76,1.483-1.061,2.257-.461,1.186-1.382,1.378-2.45,1.155-1.088-.227-1.328-1.054-1.254-2.043.193-2.571,1.812-4.116,3.935-5.163,1.186-.585,2.528-.865,3.748-.783Z"/>
          <path class="cls-11" d="m1084.793,214.769c-1.32,0-2.19-.878-2.179-2.197.011-1.354.827-2.157,2.191-2.156,1.361,0,2.177.81,2.183,2.167.006,1.3-.885,2.187-2.195,2.186Z"/>
        </g>
        <g>
          <path class="cls-7" d="m93.21,182.054l-32.883-.061c-3.657-.014-6.893,2.767-6.868,6.912.052,8.797.052,17.595,0,26.392-.024,4.145,3.212,6.915,6.869,6.91,56.653-.084-23.77-.059,32.883-.059,4.46,0,6.868-2.426,6.87-6.935.004-8.742.004-17.483,0-26.225-.002-4.508-2.41-6.934-6.871-6.934Z"/>
          <path class="cls-5" d="m85.069,196.845c1.503,0,3.006-.003,4.509.001.951.003,1.744.288,2.197,1.211.47.958.064,1.702-.534,2.425-1.451,1.754-2.859,3.543-4.343,5.268-1.318,1.533-2.389,1.523-3.72-.029-1.519-1.771-2.972-3.598-4.452-5.402-.521-.635-.812-1.313-.452-2.145.374-.865,1.045-1.293,1.954-1.309,1.614-.027,3.228-.008,4.842-.008v-.013Z"/>
          <text class="cls-20" transform="translate(60.838 208.227)"><tspan x="0" y="0">x</tspan></text>
        </g>
        <g>
          <g>
            <path class="cls-3" d="m206.309,221.336c-10.975,0-19.903-8.929-19.903-19.903s8.928-19.903,19.903-19.903h680.305c10.975,0,19.903,8.928,19.903,19.903s-8.929,19.903-19.903,19.903H206.309Z"/>
            <path class="cls-9" d="m886.614,182.529c10.423,0,18.903,8.48,18.903,18.903s-8.48,18.903-18.903,18.903H206.309c-10.423,0-18.903-8.48-18.903-18.903s8.48-18.903,18.903-18.903h680.305m0-2H206.309c-11.497,0-20.903,9.406-20.903,20.903h0c0,11.497,9.406,20.903,20.903,20.903h680.305c11.497,0,20.903-9.406,20.903-20.903h0c0-11.497-9.406-20.903-20.903-20.903h0Z"/>
          </g>
          <rect class="cls-9" x="261.892" y="181.949" width="262.979" height="38.968" rx="3.871" ry="3.871"/>
          <path class="cls-5" d="m509.178,196.409c1.503,0,3.006-.003,4.509.001.951.003,1.744.288,2.197,1.211.47.958.064,1.702-.534,2.425-1.451,1.754-2.859,3.543-4.343,5.268-1.318,1.533-2.389,1.523-3.72-.029-1.519-1.771-2.972-3.598-4.452-5.402-.521-.635-.812-1.313-.452-2.145.374-.865,1.045-1.293,1.954-1.309,1.614-.027,3.228-.008,4.842-.008v-.013Z"/>
          <text class="cls-31" transform="translate(871.772 208.495)"><tspan x="0" y="0">값</tspan></text>
          <text class="cls-31" transform="translate(197.997 208.496)"><tspan x="0" y="0">테이블</tspan></text>
          <text class="cls-31" transform="translate(268.389 208.496)"><tspan x="0" y="0">화곡동약국_위치변환.xlsx</tspan></text>
          <g>
            <g>
              <path class="cls-8" d="m553.286,221.336c-10.975,0-19.903-8.928-19.903-19.903s8.928-19.903,19.903-19.903h116.153c10.975,0,19.903,8.928,19.903,19.903s-8.929,19.903-19.903,19.903h-116.153Z"/>
              <path class="cls-4" d="m669.439,182.53c10.423,0,18.903,8.48,18.903,18.903s-8.48,18.903-18.903,18.903h-116.153c-10.423,0-18.903-8.48-18.903-18.903s8.48-18.903,18.903-18.903h116.153m0-2h-116.153c-11.497,0-20.903,9.406-20.903,20.903s9.406,20.903,20.903,20.903h116.153c11.497,0,20.903-9.406,20.903-20.903s-9.406-20.903-20.903-20.903h0Z"/>
            </g>
            <rect class="cls-4" x="547.866" y="181.949" width="99.834" height="38.968" rx="3.871" ry="3.871"/>
            <text class="cls-31" transform="translate(656.602 208.495)"><tspan x="0" y="0">값</tspan></text>
            <text class="cls-31" transform="translate(557.384 208.495)"><tspan x="0" y="0">복제본i</tspan></text>
            <text class="cls-31" transform="translate(696.738 208.495)"><tspan x="0" y="0">번째 행의 </tspan></text>
            <path class="cls-5" d="m632.006,196.409c1.503,0,3.006-.003,4.509.001.951.003,1.744.288,2.197,1.211.47.958.064,1.702-.534,2.425-1.451,1.754-2.859,3.543-4.343,5.268-1.318,1.533-2.389,1.523-3.72-.029-1.519-1.771-2.972-3.598-4.452-5.402-.521-.635-.812-1.313-.452-2.145.374-.865,1.045-1.293,1.954-1.309,1.614-.027,3.228-.008,4.842-.008v-.013Z"/>
            <g>
              <path class="cls-3" d="m805.418,221.336c-10.975,0-19.903-8.929-19.903-19.903s8.929-19.903,19.903-19.903h38.453c10.975,0,19.903,8.928,19.903,19.903s-8.928,19.903-19.903,19.903h-38.453Z"/>
              <path class="cls-9" d="m843.87,182.529c10.423,0,18.903,8.48,18.903,18.903s-8.48,18.903-18.903,18.903h-38.453c-10.423,0-18.903-8.48-18.903-18.903s8.48-18.903,18.903-18.903h38.453m0-2h-38.453c-11.497,0-20.903,9.406-20.903,20.903h0c0,11.497,9.406,20.903,20.903,20.903h38.453c11.497,0,20.903-9.406,20.903-20.903h0c0-11.497-9.406-20.903-20.903-20.903h0Z"/>
            </g>
            <rect class="cls-9" x="799.998" y="181.949" width="48.408" height="38.968" rx="3.871" ry="3.871"/>
            <text class="cls-31" transform="translate(809.515 206.495)"><tspan x="0" y="0">x</tspan></text>
            <path class="cls-5" d="m832.713,196.409c1.503,0,3.006-.003,4.509.001.951.003,1.744.288,2.197,1.211.47.958.064,1.702-.534,2.425-1.451,1.754-2.859,3.543-4.343,5.268-1.318,1.533-2.389,1.523-3.72-.029-1.519-1.771-2.972-3.598-4.452-5.402-.521-.635-.812-1.313-.452-2.145.374-.865,1.045-1.293,1.954-1.309,1.614-.027,3.228-.008,4.842-.008v-.013Z"/>
          </g>
        </g>
      </g>
      <g>
        <g>
          <path class="cls-24" d="m1087.602,228.317H47.178l-12.543,11.141-12.024-10.593c-.238-.21-.622-.047-.622.265v52.811c0,.098.042.191.115.259l12.53,11.113,12.543-11.219h1040.424c15.329,0,27.871-12.1,27.871-26.888h0c0-14.789-12.542-26.888-27.871-26.888Z"/>
          <path class="cls-7" d="m1063.316,255.711c.085-12.114,9.79-22.01,22.342-21.937,12.159.071,22.178,9.883,21.961,22.471-.203,11.764-9.754,21.773-22.498,21.598-12.042-.166-21.794-9.762-21.805-22.132Z"/>
          <text class="cls-18" transform="translate(915.082 263.29)"><tspan x="0" y="0">(으)로 정하기</tspan></text>
          <text class="cls-18" transform="translate(111.183 263.29)"><tspan x="0" y="0">을(를)</tspan></text>
          <path class="cls-14" d="m1085.276,245.766c3.973.048,6.605,2.132,7.169,5.536.236,1.421-.185,2.643-1.127,3.671-.864.943-1.773,1.854-2.731,2.702-1.025.909-1.869,1.892-2.145,3.28-.232,1.167-.936,1.732-2.155,1.54-1.232-.194-1.334-1.074-1.385-2.104-.103-2.069,1.042-3.441,2.431-4.709.657-.599,1.396-1.122,1.982-1.782,1.412-1.588,1.315-3.285-.17-4.344-1.397-.997-3.888-.624-4.788.786-.444.696-.76,1.483-1.061,2.257-.461,1.186-1.382,1.378-2.45,1.155-1.088-.227-1.328-1.054-1.254-2.043.193-2.571,1.812-4.116,3.935-5.163,1.186-.585,2.528-.865,3.748-.783Z"/>
          <path class="cls-11" d="m1084.793,268.479c-1.32,0-2.19-.878-2.179-2.197.011-1.354.827-2.157,2.191-2.156,1.361,0,2.177.81,2.183,2.167.006,1.3-.885,2.187-2.195,2.186Z"/>
        </g>
        <g>
          <path class="cls-7" d="m93.21,235.764l-32.883-.061c-3.657-.014-6.893,2.767-6.868,6.912.052,8.797.052,17.595,0,26.392-.024,4.145,3.212,6.915,6.869,6.91,56.653-.084-23.77-.059,32.883-.059,4.46,0,6.868-2.426,6.87-6.935.004-8.742.004-17.483,0-26.225-.002-4.508-2.41-6.934-6.871-6.934Z"/>
          <path class="cls-5" d="m85.069,250.554c1.503,0,3.006-.003,4.509.001.951.003,1.744.288,2.197,1.211.47.958.064,1.702-.534,2.425-1.451,1.754-2.859,3.543-4.343,5.268-1.318,1.533-2.389,1.523-3.72-.029-1.519-1.771-2.972-3.598-4.452-5.402-.521-.635-.812-1.313-.452-2.145.374-.865,1.045-1.293,1.954-1.309,1.614-.027,3.228-.008,4.842-.008v-.013Z"/>
          <text class="cls-20" transform="translate(60.838 261.937)"><tspan x="0" y="0">y</tspan></text>
        </g>
        <g>
          <g>
            <path class="cls-3" d="m206.309,275.046c-10.975,0-19.903-8.929-19.903-19.903s8.928-19.903,19.903-19.903h680.305c10.975,0,19.903,8.929,19.903,19.903s-8.929,19.903-19.903,19.903H206.309Z"/>
            <path class="cls-9" d="m886.614,236.239c10.423,0,18.903,8.48,18.903,18.903s-8.48,18.903-18.903,18.903H206.309c-10.423,0-18.903-8.48-18.903-18.903s8.48-18.903,18.903-18.903h680.305m0-2H206.309c-11.497,0-20.903,9.406-20.903,20.903s9.406,20.903,20.903,20.903h680.305c11.497,0,20.903-9.406,20.903-20.903s-9.406-20.903-20.903-20.903h0Z"/>
          </g>
          <rect class="cls-9" x="261.892" y="235.658" width="262.979" height="38.968" rx="3.871" ry="3.871"/>
          <path class="cls-5" d="m509.178,250.119c1.503,0,3.006-.003,4.509.001.951.003,1.744.288,2.197,1.211.47.958.064,1.702-.534,2.425-1.451,1.754-2.859,3.543-4.343,5.268-1.318,1.533-2.389,1.523-3.72-.029-1.519-1.771-2.972-3.598-4.452-5.402-.521-.635-.812-1.313-.452-2.145.374-.865,1.045-1.293,1.954-1.309,1.614-.027,3.228-.008,4.842-.008v-.013Z"/>
          <text class="cls-31" transform="translate(871.772 262.205)"><tspan x="0" y="0">값</tspan></text>
          <text class="cls-31" transform="translate(197.997 262.205)"><tspan x="0" y="0">테이블</tspan></text>
          <text class="cls-31" transform="translate(268.389 262.205)"><tspan x="0" y="0">화곡동약국_위치변환.xlsx</tspan></text>
          <g>
            <g>
              <g>
                <path class="cls-3" d="m805.418,275.046c-10.975,0-19.903-8.929-19.903-19.903s8.929-19.903,19.903-19.903h38.453c10.975,0,19.903,8.929,19.903,19.903s-8.928,19.903-19.903,19.903h-38.453Z"/>
                <path class="cls-9" d="m843.87,236.239c10.423,0,18.903,8.48,18.903,18.903s-8.48,18.903-18.903,18.903h-38.453c-10.423,0-18.903-8.48-18.903-18.903s8.48-18.903,18.903-18.903h38.453m0-2h-38.453c-11.497,0-20.903,9.406-20.903,20.903s9.406,20.903,20.903,20.903h38.453c11.497,0,20.903-9.406,20.903-20.903s-9.406-20.903-20.903-20.903h0Z"/>
              </g>
              <rect class="cls-9" x="799.998" y="235.658" width="48.408" height="38.968" rx="3.871" ry="3.871"/>
              <path class="cls-5" d="m832.713,250.119c1.503,0,3.006-.003,4.509.001.951.003,1.744.288,2.197,1.211.47.958.064,1.702-.534,2.425-1.451,1.754-2.859,3.543-4.343,5.268-1.318,1.533-2.389,1.523-3.72-.029-1.519-1.771-2.972-3.598-4.452-5.402-.521-.635-.812-1.313-.452-2.145.374-.865,1.045-1.293,1.954-1.309,1.614-.027,3.228-.008,4.842-.008v-.013Z"/>
            </g>
            <g>
              <path class="cls-8" d="m553.286,275.045c-10.975,0-19.903-8.928-19.903-19.903s8.928-19.903,19.903-19.903h116.153c10.975,0,19.903,8.928,19.903,19.903s-8.929,19.903-19.903,19.903h-116.153Z"/>
              <path class="cls-4" d="m669.439,236.239c10.423,0,18.903,8.48,18.903,18.903s-8.48,18.903-18.903,18.903h-116.153c-10.423,0-18.903-8.48-18.903-18.903s8.48-18.903,18.903-18.903h116.153m0-2h-116.153c-11.497,0-20.903,9.406-20.903,20.903s9.406,20.903,20.903,20.903h116.153c11.497,0,20.903-9.406,20.903-20.903s-9.406-20.903-20.903-20.903h0Z"/>
            </g>
            <rect class="cls-4" x="547.866" y="235.658" width="99.834" height="38.968" rx="3.871" ry="3.871"/>
            <text class="cls-31" transform="translate(656.602 262.205)"><tspan x="0" y="0">값</tspan></text>
            <text class="cls-31" transform="translate(557.384 262.205)"><tspan x="0" y="0">복제본i</tspan></text>
            <text class="cls-31" transform="translate(696.738 262.205)"><tspan x="0" y="0">번째 행의 </tspan></text>
            <path class="cls-5" d="m632.006,250.119c1.503,0,3.006-.003,4.509.001.951.003,1.744.288,2.197,1.211.47.958.064,1.702-.534,2.425-1.451,1.754-2.859,3.543-4.343,5.268-1.318,1.533-2.389,1.523-3.72-.029-1.519-1.771-2.972-3.598-4.452-5.402-.521-.635-.812-1.313-.452-2.145.374-.865,1.045-1.293,1.954-1.309,1.614-.027,3.228-.008,4.842-.008v-.013Z"/>
            <text class="cls-31" transform="translate(809.515 260.205)"><tspan x="0" y="0">y</tspan></text>
          </g>
        </g>
      </g>
      <g>
        <g>
          <g>
            <path class="cls-24" d="m415.95,391.508H47.178l-12.543,11.141-12.024-10.593c-.238-.21-.622-.047-.622.265v52.811c0,.098.042.191.115.259l12.53,11.113,12.543-11.219h368.772c15.329,0,27.871-12.1,27.871-26.888h0c0-14.789-12.542-26.888-27.871-26.888Z"/>
            <path class="cls-7" d="m391.664,418.901c.085-12.114,9.79-22.01,22.342-21.937,12.159.071,22.178,9.883,21.961,22.471-.203,11.764-9.754,21.773-22.498,21.598-12.042-.166-21.794-9.762-21.805-22.132Z"/>
            <text class="cls-18" transform="translate(264.43 426.48)"><tspan x="0" y="0">만큼 더하기</tspan></text>
            <text class="cls-18" transform="translate(179.189 426.48)"><tspan x="0" y="0">에</tspan></text>
            <path class="cls-14" d="m413.624,408.956c3.973.048,6.605,2.132,7.169,5.536.236,1.421-.185,2.643-1.127,3.671-.864.943-1.773,1.854-2.731,2.702-1.025.909-1.869,1.892-2.145,3.28-.232,1.167-.936,1.732-2.155,1.54-1.232-.194-1.334-1.074-1.385-2.104-.103-2.069,1.042-3.441,2.431-4.709.657-.599,1.396-1.122,1.982-1.782,1.412-1.588,1.315-3.285-.17-4.344-1.397-.997-3.888-.624-4.788.786-.444.696-.76,1.483-1.061,2.257-.461,1.186-1.382,1.378-2.45,1.155-1.088-.227-1.328-1.054-1.254-2.043.193-2.571,1.812-4.116,3.935-5.163,1.186-.585,2.528-.865,3.748-.783Z"/>
            <path class="cls-11" d="m413.141,431.669c-1.32,0-2.19-.878-2.179-2.197.011-1.354.827-2.157,2.191-2.156,1.361,0,2.177.81,2.183,2.167.006,1.3-.885,2.187-2.195,2.186Z"/>
          </g>
          <g>
            <path class="cls-7" d="m161.217,398.954l-100.89-.061c-3.657-.014-6.893,2.767-6.868,6.912.052,8.797.052,17.595,0,26.392-.024,4.145,3.212,6.915,6.869,6.91,56.653-.084,44.237-.059,100.89-.059,4.46,0,6.868-2.426,6.87-6.935.004-8.742.004-17.483,0-26.225-.002-4.508-2.41-6.934-6.871-6.934Z"/>
            <path class="cls-5" d="m153.076,413.745c1.503,0,3.006-.003,4.509.001.951.003,1.744.288,2.197,1.211.47.958.064,1.702-.534,2.425-1.451,1.754-2.859,3.543-4.343,5.268-1.318,1.533-2.389,1.523-3.72-.029-1.519-1.771-2.972-3.598-4.452-5.402-.521-.635-.812-1.313-.452-2.145.374-.865,1.045-1.293,1.954-1.309,1.614-.027,3.228-.008,4.842-.008v-.013Z"/>
            <text class="cls-20" transform="translate(60.838 426.127)"><tspan x="0" y="0">표시 정보</tspan></text>
          </g>
        </g>
        <g>
          <g>
            <path class="cls-13" d="m232,438.111c-10.559,0-19.479-8.858-19.479-19.344s8.92-19.344,19.479-19.344h.305c10.559,0,19.479,8.858,19.479,19.344s-8.92,19.344-19.479,19.344h-.305Z"/>
            <path class="cls-15" d="m232.305,400.424c10.017,0,18.479,8.4,18.479,18.344s-8.462,18.344-18.479,18.344h-.305c-10.017,0-18.479-8.4-18.479-18.344s8.462-18.344,18.479-18.344h.305m0-2h-.305c-10.758,0-20.479,9.108-20.479,20.344s9.721,20.344,20.479,20.344h.305c10.758,0,20.479-9.108,20.479-20.344s-9.721-20.344-20.479-20.344h0Z"/>
          </g>
          <text class="cls-30" transform="translate(227.868 425.924)"><tspan x="0" y="0">/</tspan></text>
        </g>
      </g>
      <g>
        <g>
          <g>
            <path class="cls-24" d="m415.95,498.942H47.178l-12.543,11.141-12.024-10.593c-.238-.21-.622-.047-.622.265v52.811c0,.098.042.191.115.259l12.53,11.113,12.543-11.219h368.772c15.329,0,27.871-12.1,27.871-26.888h0c0-14.789-12.542-26.888-27.871-26.888Z"/>
            <path class="cls-7" d="m391.664,526.335c.085-12.114,9.79-22.01,22.342-21.937,12.159.071,22.178,9.883,21.961,22.471-.203,11.764-9.754,21.773-22.498,21.598-12.042-.166-21.794-9.762-21.805-22.132Z"/>
            <text class="cls-18" transform="translate(264.43 533.914)"><tspan x="0" y="0">만큼 더하기</tspan></text>
            <text class="cls-18" transform="translate(179.189 533.914)"><tspan x="0" y="0">에</tspan></text>
            <path class="cls-14" d="m413.624,516.391c3.973.048,6.605,2.132,7.169,5.536.236,1.421-.185,2.643-1.127,3.671-.864.943-1.773,1.854-2.731,2.702-1.025.909-1.869,1.892-2.145,3.28-.232,1.167-.936,1.732-2.155,1.54-1.232-.194-1.334-1.074-1.385-2.104-.103-2.069,1.042-3.441,2.431-4.709.657-.599,1.396-1.122,1.982-1.782,1.412-1.588,1.315-3.285-.17-4.344-1.397-.997-3.888-.624-4.788.786-.444.696-.76,1.483-1.061,2.257-.461,1.186-1.382,1.378-2.45,1.155-1.088-.227-1.328-1.054-1.254-2.043.193-2.571,1.812-4.116,3.935-5.163,1.186-.585,2.528-.865,3.748-.783Z"/>
            <path class="cls-11" d="m413.141,539.103c-1.32,0-2.19-.878-2.179-2.197.011-1.354.827-2.157,2.191-2.156,1.361,0,2.177.81,2.183,2.167.006,1.3-.885,2.187-2.195,2.186Z"/>
          </g>
          <g>
            <path class="cls-7" d="m161.217,506.388l-100.89-.061c-3.657-.014-6.893,2.767-6.868,6.912.052,8.797.052,17.595,0,26.392-.024,4.145,3.212,6.915,6.869,6.91,56.653-.084,44.237-.059,100.89-.059,4.46,0,6.868-2.426,6.87-6.935.004-8.742.004-17.483,0-26.225-.002-4.508-2.41-6.934-6.871-6.934Z"/>
            <path class="cls-5" d="m153.076,521.179c1.503,0,3.006-.003,4.509.001.951.003,1.744.288,2.197,1.211.47.958.064,1.702-.534,2.425-1.451,1.754-2.859,3.543-4.343,5.268-1.318,1.533-2.389,1.523-3.72-.029-1.519-1.771-2.972-3.598-4.452-5.402-.521-.635-.812-1.313-.452-2.145.374-.865,1.045-1.293,1.954-1.309,1.614-.027,3.228-.008,4.842-.008v-.013Z"/>
            <text class="cls-20" transform="translate(60.838 533.561)"><tspan x="0" y="0">표시 정보</tspan></text>
          </g>
        </g>
        <g>
          <g>
            <path class="cls-13" d="m232,545.545c-10.559,0-19.479-8.858-19.479-19.344s8.92-19.344,19.479-19.344h.305c10.559,0,19.479,8.858,19.479,19.344s-8.92,19.344-19.479,19.344h-.305Z"/>
            <path class="cls-15" d="m232.305,507.858c10.017,0,18.479,8.4,18.479,18.344s-8.462,18.344-18.479,18.344h-.305c-10.017,0-18.479-8.4-18.479-18.344s8.462-18.344,18.479-18.344h.305m0-2h-.305c-10.758,0-20.479,9.108-20.479,20.344s9.721,20.344,20.479,20.344h.305c10.758,0,20.479-9.108,20.479-20.344s-9.721-20.344-20.479-20.344h0Z"/>
          </g>
          <text class="cls-30" transform="translate(227.868 533.359)"><tspan x="0" y="0">/</tspan></text>
        </g>
      </g>
      <g>
        <g>
          <path class="cls-24" d="m1199.821,337.707H47.178l-12.543,11.141-12.024-10.593c-.238-.21-.622-.047-.622.265v52.811c0,.098.042.191.115.259l12.53,11.113,12.543-11.219h1152.643c15.329,0,27.871-12.1,27.871-26.888h0c0-14.789-12.542-26.888-27.871-26.888Z"/>
          <path class="cls-7" d="m1175.536,365.101c.085-12.114,9.79-22.01,22.342-21.937,12.159.071,22.178,9.883,21.961,22.471-.203,11.764-9.754,21.773-22.498,21.598-12.042-.166-21.794-9.762-21.805-22.132Z"/>
          <text class="cls-18" transform="translate(1027.3 372.68)"><tspan x="0" y="0">(으)로 정하기</tspan></text>
          <text class="cls-18" transform="translate(179.189 372.68)"><tspan x="0" y="0">를</tspan></text>
          <path class="cls-14" d="m1197.496,355.156c3.973.048,6.605,2.132,7.169,5.536.236,1.421-.185,2.643-1.127,3.671-.864.943-1.773,1.854-2.731,2.702-1.025.909-1.869,1.892-2.145,3.28-.232,1.167-.936,1.732-2.155,1.54-1.232-.194-1.334-1.074-1.385-2.104-.103-2.069,1.042-3.441,2.431-4.709.657-.599,1.396-1.122,1.982-1.782,1.412-1.588,1.315-3.285-.17-4.344-1.397-.997-3.888-.624-4.788.786-.444.696-.76,1.483-1.061,2.257-.461,1.186-1.382,1.378-2.45,1.155-1.088-.227-1.328-1.054-1.254-2.043.193-2.571,1.812-4.116,3.935-5.163,1.186-.585,2.528-.865,3.748-.783Z"/>
          <path class="cls-11" d="m1197.013,377.869c-1.32,0-2.19-.878-2.179-2.197.011-1.354.827-2.157,2.191-2.156,1.361,0,2.177.81,2.183,2.167.006,1.3-.885,2.187-2.195,2.186Z"/>
        </g>
        <g>
          <path class="cls-7" d="m161.217,345.154l-100.89-.061c-3.657-.014-6.893,2.767-6.868,6.912.052,8.797.052,17.595,0,26.392-.024,4.145,3.212,6.915,6.869,6.91,56.653-.084,44.237-.059,100.89-.059,4.46,0,6.868-2.426,6.87-6.935.004-8.742.004-17.483,0-26.225-.002-4.508-2.41-6.934-6.871-6.934Z"/>
          <path class="cls-5" d="m153.076,359.944c1.503,0,3.006-.003,4.509.001.951.003,1.744.288,2.197,1.211.47.958.064,1.702-.534,2.425-1.451,1.754-2.859,3.543-4.343,5.268-1.318,1.533-2.389,1.523-3.72-.029-1.519-1.771-2.972-3.598-4.452-5.402-.521-.635-.812-1.313-.452-2.145.374-.865,1.045-1.293,1.954-1.309,1.614-.027,3.228-.008,4.842-.008v-.013Z"/>
          <text class="cls-20" transform="translate(60.838 372.327)"><tspan x="0" y="0">표시 정보</tspan></text>
        </g>
        <g>
          <g>
            <path class="cls-3" d="m234.312,384.435c-10.975,0-19.903-8.928-19.903-19.903s8.929-19.903,19.903-19.903h764.522c10.975,0,19.903,8.929,19.903,19.903s-8.929,19.903-19.903,19.903H234.312Z"/>
            <path class="cls-9" d="m998.834,345.629c10.423,0,18.903,8.48,18.903,18.903s-8.48,18.903-18.903,18.903H234.312c-10.423,0-18.903-8.48-18.903-18.903s8.48-18.903,18.903-18.903h764.522m0-2H234.312c-11.497,0-20.903,9.406-20.903,20.903h0c0,11.497,9.406,20.903,20.903,20.903h764.522c11.497,0,20.903-9.406,20.903-20.903h0c0-11.497-9.406-20.903-20.903-20.903h0Z"/>
          </g>
          <rect class="cls-9" x="289.895" y="345.048" width="262.979" height="38.968" rx="3.871" ry="3.871"/>
          <path class="cls-5" d="m537.181,359.509c1.503,0,3.006-.003,4.509.001.951.003,1.744.288,2.197,1.211.47.958.064,1.702-.534,2.425-1.451,1.754-2.859,3.543-4.343,5.268-1.318,1.533-2.389,1.523-3.72-.029-1.519-1.771-2.972-3.598-4.452-5.402-.521-.635-.812-1.313-.452-2.145.374-.865,1.045-1.293,1.954-1.309,1.614-.027,3.228-.008,4.842-.008v-.013Z"/>
          <text class="cls-31" transform="translate(983.99 371.595)"><tspan x="0" y="0">값</tspan></text>
          <text class="cls-31" transform="translate(225.999 371.595)"><tspan x="0" y="0">테이블</tspan></text>
          <text class="cls-31" transform="translate(296.391 371.595)"><tspan x="0" y="0">화곡동약국_위치변환.xlsx</tspan></text>
          <g>
            <g>
              <path class="cls-8" d="m581.288,384.436c-10.975,0-19.903-8.928-19.903-19.903s8.929-19.903,19.903-19.903h116.153c10.975,0,19.903,8.928,19.903,19.903s-8.929,19.903-19.903,19.903h-116.153Z"/>
              <path class="cls-4" d="m697.442,345.629c10.423,0,18.903,8.48,18.903,18.903s-8.48,18.903-18.903,18.903h-116.153c-10.423,0-18.903-8.48-18.903-18.903s8.48-18.903,18.903-18.903h116.153m0-2h-116.153c-11.497,0-20.903,9.406-20.903,20.903s9.406,20.903,20.903,20.903h116.153c11.497,0,20.903-9.406,20.903-20.903s-9.406-20.903-20.903-20.903h0Z"/>
            </g>
            <rect class="cls-4" x="575.869" y="345.048" width="99.834" height="38.968" rx="3.871" ry="3.871"/>
            <text class="cls-31" transform="translate(684.604 371.595)"><tspan x="0" y="0">값</tspan></text>
            <text class="cls-31" transform="translate(585.386 371.595)"><tspan x="0" y="0">복제본i</tspan></text>
            <text class="cls-31" transform="translate(724.74 371.595)"><tspan x="0" y="0">번째 행의 </tspan></text>
            <path class="cls-5" d="m660.009,359.509c1.503,0,3.006-.003,4.509.001.951.003,1.744.288,2.197,1.211.47.958.064,1.702-.534,2.425-1.451,1.754-2.859,3.543-4.343,5.268-1.318,1.533-2.389,1.523-3.72-.029-1.519-1.771-2.972-3.598-4.452-5.402-.521-.635-.812-1.313-.452-2.145.374-.865,1.045-1.293,1.954-1.309,1.614-.027,3.228-.008,4.842-.008v-.013Z"/>
            <g>
              <path class="cls-3" d="m833.42,384.435c-10.975,0-19.903-8.928-19.903-19.903s8.928-19.903,19.903-19.903h122.35c10.975,0,19.903,8.929,19.903,19.903s-8.929,19.903-19.903,19.903h-122.35Z"/>
              <path class="cls-9" d="m955.77,345.629c10.423,0,18.903,8.48,18.903,18.903s-8.48,18.903-18.903,18.903h-122.35c-10.423,0-18.903-8.48-18.903-18.903s8.48-18.903,18.903-18.903h122.35m0-2h-122.35c-11.497,0-20.903,9.406-20.903,20.903h0c0,11.497,9.406,20.903,20.903,20.903h122.35c11.497,0,20.903-9.406,20.903-20.903h0c0-11.497-9.406-20.903-20.903-20.903h0Z"/>
            </g>
            <rect class="cls-9" x="828.001" y="345.048" width="132.625" height="38.968" rx="3.871" ry="3.871"/>
            <text class="cls-31" transform="translate(837.517 371.595)"><tspan x="0" y="0">요양기관명</tspan></text>
            <path class="cls-5" d="m944.932,359.509c1.503,0,3.006-.003,4.509.001.951.003,1.744.288,2.197,1.211.47.958.064,1.702-.534,2.425-1.451,1.754-2.859,3.543-4.343,5.268-1.318,1.533-2.389,1.523-3.72-.029-1.519-1.771-2.972-3.598-4.452-5.402-.521-.635-.812-1.313-.452-2.145.374-.865,1.045-1.293,1.954-1.309,1.614-.027,3.228-.008,4.842-.008v-.013Z"/>
          </g>
        </g>
      </g>
      <g>
        <g>
          <path class="cls-24" d="m1126.275,445.219H47.178l-12.543,11.141-12.024-10.593c-.238-.21-.622-.047-.622.265v52.811c0,.098.042.191.115.259l12.53,11.113,12.543-11.219h1079.097c15.329,0,27.871-12.1,27.871-26.888h0c0-14.789-12.542-26.888-27.871-26.888Z"/>
          <path class="cls-7" d="m1101.989,472.613c.085-12.114,9.79-22.01,22.342-21.937,12.159.071,22.178,9.883,21.961,22.471-.203,11.764-9.754,21.773-22.498,21.598-12.042-.166-21.794-9.762-21.805-22.132Z"/>
          <text class="cls-18" transform="translate(973.757 480.192)"><tspan x="0" y="0">만큼 더하기</tspan></text>
          <text class="cls-18" transform="translate(179.189 480.192)"><tspan x="0" y="0">에</tspan></text>
          <path class="cls-14" d="m1123.949,462.668c3.973.048,6.605,2.132,7.169,5.536.236,1.421-.185,2.643-1.127,3.671-.864.943-1.773,1.854-2.731,2.702-1.025.909-1.869,1.892-2.145,3.28-.232,1.167-.936,1.732-2.155,1.54-1.232-.194-1.334-1.074-1.385-2.104-.103-2.069,1.042-3.441,2.431-4.709.657-.599,1.396-1.122,1.982-1.782,1.412-1.588,1.315-3.285-.17-4.344-1.397-.997-3.888-.624-4.788.786-.444.696-.76,1.483-1.061,2.257-.461,1.186-1.382,1.378-2.45,1.155-1.088-.227-1.328-1.054-1.254-2.043.193-2.571,1.812-4.116,3.935-5.163,1.186-.585,2.528-.865,3.748-.783Z"/>
          <path class="cls-11" d="m1123.466,485.38c-1.32,0-2.19-.878-2.179-2.197.011-1.354.827-2.157,2.191-2.156,1.361,0,2.177.81,2.183,2.167.006,1.3-.885,2.187-2.195,2.186Z"/>
        </g>
        <g>
          <path class="cls-7" d="m161.217,452.665l-100.89-.061c-3.657-.014-6.893,2.767-6.868,6.912.052,8.797.052,17.595,0,26.392-.024,4.145,3.212,6.915,6.869,6.91,56.653-.084,44.237-.059,100.89-.059,4.46,0,6.868-2.426,6.87-6.935.004-8.742.004-17.483,0-26.225-.002-4.508-2.41-6.934-6.871-6.934Z"/>
          <path class="cls-5" d="m153.076,467.456c1.503,0,3.006-.003,4.509.001.951.003,1.744.288,2.197,1.211.47.958.064,1.702-.534,2.425-1.451,1.754-2.859,3.543-4.343,5.268-1.318,1.533-2.389,1.523-3.72-.029-1.519-1.771-2.972-3.598-4.452-5.402-.521-.635-.812-1.313-.452-2.145.374-.865,1.045-1.293,1.954-1.309,1.614-.027,3.228-.008,4.842-.008v-.013Z"/>
          <text class="cls-20" transform="translate(60.838 479.838)"><tspan x="0" y="0">표시 정보</tspan></text>
        </g>
        <g>
          <g>
            <path class="cls-3" d="m235.424,491.947c-10.975,0-19.903-8.929-19.903-19.903s8.928-19.903,19.903-19.903h709.865c10.975,0,19.903,8.929,19.903,19.903s-8.929,19.903-19.903,19.903H235.424Z"/>
            <path class="cls-9" d="m945.289,453.14c10.423,0,18.903,8.48,18.903,18.903s-8.48,18.903-18.903,18.903H235.424c-10.423,0-18.903-8.48-18.903-18.903s8.48-18.903,18.903-18.903h709.865m0-2H235.424c-11.497,0-20.903,9.406-20.903,20.903h0c0,11.497,9.406,20.903,20.903,20.903h709.865c11.497,0,20.903-9.406,20.903-20.903h0c0-11.497-9.406-20.903-20.903-20.903h0Z"/>
          </g>
          <rect class="cls-9" x="291.008" y="452.56" width="262.979" height="38.968" rx="3.871" ry="3.871"/>
          <path class="cls-5" d="m538.293,467.021c1.503,0,3.006-.003,4.509.001.951.003,1.744.288,2.197,1.211.47.958.064,1.702-.534,2.425-1.451,1.754-2.859,3.543-4.343,5.268-1.318,1.533-2.389,1.523-3.72-.029-1.519-1.771-2.972-3.598-4.452-5.402-.521-.635-.812-1.313-.452-2.145.374-.865,1.045-1.293,1.954-1.309,1.614-.027,3.228-.008,4.842-.008v-.013Z"/>
          <text class="cls-31" transform="translate(930.448 479.106)"><tspan x="0" y="0">값</tspan></text>
          <text class="cls-31" transform="translate(227.112 479.107)"><tspan x="0" y="0">테이블</tspan></text>
          <text class="cls-31" transform="translate(297.504 479.107)"><tspan x="0" y="0">화곡동약국_위치변환.xlsx</tspan></text>
          <g>
            <g>
              <path class="cls-8" d="m582.401,491.947c-10.975,0-19.903-8.928-19.903-19.903s8.929-19.903,19.903-19.903h116.153c10.975,0,19.903,8.928,19.903,19.903s-8.929,19.903-19.903,19.903h-116.153Z"/>
              <path class="cls-4" d="m698.554,453.141c10.423,0,18.903,8.48,18.903,18.903s-8.48,18.903-18.903,18.903h-116.153c-10.423,0-18.903-8.48-18.903-18.903s8.48-18.903,18.903-18.903h116.153m0-2h-116.153c-11.497,0-20.903,9.406-20.903,20.903s9.406,20.903,20.903,20.903h116.153c11.497,0,20.903-9.406,20.903-20.903s-9.406-20.903-20.903-20.903h0Z"/>
            </g>
            <rect class="cls-4" x="576.982" y="452.56" width="99.834" height="38.968" rx="3.871" ry="3.871"/>
            <text class="cls-31" transform="translate(685.717 479.106)"><tspan x="0" y="0">값</tspan></text>
            <text class="cls-31" transform="translate(586.499 479.106)"><tspan x="0" y="0">복제본i</tspan></text>
            <text class="cls-31" transform="translate(725.854 479.106)"><tspan x="0" y="0">번째 행의 </tspan></text>
            <path class="cls-5" d="m661.122,467.021c1.503,0,3.006-.003,4.509.001.951.003,1.744.288,2.197,1.211.47.958.064,1.702-.534,2.425-1.451,1.754-2.859,3.543-4.343,5.268-1.318,1.533-2.389,1.523-3.72-.029-1.519-1.771-2.972-3.598-4.452-5.402-.521-.635-.812-1.313-.452-2.145.374-.865,1.045-1.293,1.954-1.309,1.614-.027,3.228-.008,4.842-.008v-.013Z"/>
            <g>
              <path class="cls-3" d="m834.533,491.947c-10.975,0-19.903-8.929-19.903-19.903s8.929-19.903,19.903-19.903h67.951c10.975,0,19.903,8.929,19.903,19.903s-8.929,19.903-19.903,19.903h-67.951Z"/>
              <path class="cls-9" d="m902.484,453.141c10.423,0,18.903,8.48,18.903,18.903s-8.48,18.903-18.903,18.903h-67.951c-10.423,0-18.903-8.48-18.903-18.903s8.48-18.903,18.903-18.903h67.951m0-2h-67.951c-11.497,0-20.903,9.406-20.903,20.903h0c0,11.497,9.406,20.903,20.903,20.903h67.951c11.497,0,20.903-9.406,20.903-20.903h0c0-11.497-9.406-20.903-20.903-20.903h0Z"/>
            </g>
            <rect class="cls-9" x="829.113" y="452.56" width="77.968" height="38.968" rx="3.871" ry="3.871"/>
            <text class="cls-31" transform="translate(838.631 479.106)"><tspan x="0" y="0">주소</tspan></text>
            <path class="cls-5" d="m891.388,467.021c1.503,0,3.006-.003,4.509.001.951.003,1.744.288,2.197,1.211.47.958.064,1.702-.534,2.425-1.451,1.754-2.859,3.543-4.343,5.268-1.318,1.533-2.389,1.523-3.72-.029-1.519-1.771-2.972-3.598-4.452-5.402-.521-.635-.812-1.313-.452-2.145.374-.865,1.045-1.293,1.954-1.309,1.614-.027,3.228-.008,4.842-.008v-.013Z"/>
          </g>
        </g>
      </g>
      <g>
        <g>
          <path class="cls-24" d="m1161.498,552.372H47.178l-12.543,11.141-12.024-10.593c-.238-.21-.622-.047-.622.265v52.811c0,.098.042.191.115.259l12.53,11.113,12.543-11.219h1114.32c15.329,0,27.871-12.1,27.871-26.888h0c0-14.789-12.542-26.888-27.871-26.888Z"/>
          <path class="cls-7" d="m1137.213,579.765c.085-12.114,9.79-22.01,22.342-21.937,12.159.071,22.178,9.883,21.961,22.471-.203,11.764-9.754,21.773-22.498,21.598-12.042-.166-21.794-9.762-21.805-22.132Z"/>
          <text class="cls-18" transform="translate(1008.98 587.344)"><tspan x="0" y="0">만큼 더하기</tspan></text>
          <text class="cls-18" transform="translate(179.189 587.344)"><tspan x="0" y="0">에</tspan></text>
          <path class="cls-14" d="m1159.173,569.82c3.973.048,6.605,2.132,7.169,5.536.236,1.421-.185,2.643-1.127,3.671-.864.943-1.773,1.854-2.731,2.702-1.025.909-1.869,1.892-2.145,3.28-.232,1.167-.936,1.732-2.155,1.54-1.232-.194-1.334-1.074-1.385-2.104-.103-2.069,1.042-3.441,2.431-4.709.657-.599,1.396-1.122,1.982-1.782,1.412-1.588,1.315-3.285-.17-4.344-1.397-.997-3.888-.624-4.788.786-.444.696-.76,1.483-1.061,2.257-.461,1.186-1.382,1.378-2.45,1.155-1.088-.227-1.328-1.054-1.254-2.043.193-2.571,1.812-4.116,3.935-5.163,1.186-.585,2.528-.865,3.748-.783Z"/>
          <path class="cls-11" d="m1158.69,592.533c-1.32,0-2.19-.878-2.179-2.197.011-1.354.827-2.157,2.191-2.156,1.361,0,2.177.81,2.183,2.167.006,1.3-.885,2.187-2.195,2.186Z"/>
        </g>
        <g>
          <path class="cls-7" d="m161.217,559.818l-100.89-.061c-3.657-.014-6.893,2.767-6.868,6.912.052,8.797.052,17.595,0,26.392-.024,4.145,3.212,6.915,6.869,6.91,56.653-.084,44.237-.059,100.89-.059,4.46,0,6.868-2.426,6.87-6.935.004-8.742.004-17.483,0-26.225-.002-4.508-2.41-6.934-6.871-6.934Z"/>
          <path class="cls-5" d="m153.076,574.608c1.503,0,3.006-.003,4.509.001.951.003,1.744.288,2.197,1.211.47.958.064,1.702-.534,2.425-1.451,1.754-2.859,3.543-4.343,5.268-1.318,1.533-2.389,1.523-3.72-.029-1.519-1.771-2.972-3.598-4.452-5.402-.521-.635-.812-1.313-.452-2.145.374-.865,1.045-1.293,1.954-1.309,1.614-.027,3.228-.008,4.842-.008v-.013Z"/>
          <text class="cls-20" transform="translate(60.838 586.99)"><tspan x="0" y="0">표시 정보</tspan></text>
        </g>
        <g>
          <g>
            <path class="cls-3" d="m235.424,599.099c-10.975,0-19.903-8.928-19.903-19.903s8.928-19.903,19.903-19.903h745.088c10.975,0,19.903,8.929,19.903,19.903s-8.929,19.903-19.903,19.903H235.424Z"/>
            <path class="cls-9" d="m980.512,560.293c10.423,0,18.903,8.48,18.903,18.903s-8.48,18.903-18.903,18.903H235.424c-10.423,0-18.903-8.48-18.903-18.903s8.48-18.903,18.903-18.903h745.088m0-2H235.424c-11.497,0-20.903,9.406-20.903,20.903h0c0,11.497,9.406,20.903,20.903,20.903h745.088c11.497,0,20.903-9.406,20.903-20.903h0c0-11.497-9.406-20.903-20.903-20.903h0Z"/>
          </g>
          <rect class="cls-9" x="291.008" y="559.712" width="262.979" height="38.968" rx="3.871" ry="3.871"/>
          <path class="cls-5" d="m538.293,574.173c1.503,0,3.006-.003,4.509.001.951.003,1.744.288,2.197,1.211.47.958.064,1.702-.534,2.425-1.451,1.754-2.859,3.543-4.343,5.268-1.318,1.533-2.389,1.523-3.72-.029-1.519-1.771-2.972-3.598-4.452-5.402-.521-.635-.812-1.313-.452-2.145.374-.865,1.045-1.293,1.954-1.309,1.614-.027,3.228-.008,4.842-.008v-.013Z"/>
          <text class="cls-31" transform="translate(965.671 586.259)"><tspan x="0" y="0">값</tspan></text>
          <text class="cls-31" transform="translate(227.112 586.259)"><tspan x="0" y="0">테이블</tspan></text>
          <text class="cls-31" transform="translate(297.504 586.259)"><tspan x="0" y="0">화곡동약국_위치변환.xlsx</tspan></text>
          <g>
            <g>
              <path class="cls-8" d="m582.401,599.1c-10.975,0-19.903-8.928-19.903-19.903s8.929-19.903,19.903-19.903h116.153c10.975,0,19.903,8.928,19.903,19.903s-8.929,19.903-19.903,19.903h-116.153Z"/>
              <path class="cls-4" d="m698.554,560.293c10.423,0,18.903,8.48,18.903,18.903s-8.48,18.903-18.903,18.903h-116.153c-10.423,0-18.903-8.48-18.903-18.903s8.48-18.903,18.903-18.903h116.153m0-2h-116.153c-11.497,0-20.903,9.406-20.903,20.903s9.406,20.903,20.903,20.903h116.153c11.497,0,20.903-9.406,20.903-20.903s-9.406-20.903-20.903-20.903h0Z"/>
            </g>
            <rect class="cls-4" x="576.982" y="559.712" width="99.834" height="38.968" rx="3.871" ry="3.871"/>
            <text class="cls-31" transform="translate(685.717 586.259)"><tspan x="0" y="0">값</tspan></text>
            <text class="cls-31" transform="translate(586.499 586.259)"><tspan x="0" y="0">복제본i</tspan></text>
            <text class="cls-31" transform="translate(725.854 586.259)"><tspan x="0" y="0">번째 행의 </tspan></text>
            <path class="cls-5" d="m661.122,574.173c1.503,0,3.006-.003,4.509.001.951.003,1.744.288,2.197,1.211.47.958.064,1.702-.534,2.425-1.451,1.754-2.859,3.543-4.343,5.268-1.318,1.533-2.389,1.523-3.72-.029-1.519-1.771-2.972-3.598-4.452-5.402-.521-.635-.812-1.313-.452-2.145.374-.865,1.045-1.293,1.954-1.309,1.614-.027,3.228-.008,4.842-.008v-.013Z"/>
            <g>
              <path class="cls-3" d="m834.533,599.099c-10.975,0-19.903-8.928-19.903-19.903s8.929-19.903,19.903-19.903h103.951c10.975,0,19.903,8.929,19.903,19.903s-8.929,19.903-19.903,19.903h-103.951Z"/>
              <path class="cls-9" d="m938.484,560.293c10.423,0,18.903,8.48,18.903,18.903s-8.48,18.903-18.903,18.903h-103.951c-10.423,0-18.903-8.48-18.903-18.903s8.48-18.903,18.903-18.903h103.951m0-2h-103.951c-11.497,0-20.903,9.406-20.903,20.903h0c0,11.497,9.406,20.903,20.903,20.903h103.951c11.497,0,20.903-9.406,20.903-20.903h0c0-11.497-9.406-20.903-20.903-20.903h0Z"/>
            </g>
            <rect class="cls-9" x="829.113" y="559.712" width="113.191" height="38.968" rx="3.871" ry="3.871"/>
            <text class="cls-31" transform="translate(838.631 586.259)"><tspan x="0" y="0">전화번호</tspan></text>
            <path class="cls-5" d="m926.611,574.173c1.503,0,3.006-.003,4.509.001.951.003,1.744.288,2.197,1.211.47.958.064,1.702-.534,2.425-1.451,1.754-2.859,3.543-4.343,5.268-1.318,1.533-2.389,1.523-3.72-.029-1.519-1.771-2.972-3.598-4.452-5.402-.521-.635-.812-1.313-.452-2.145.374-.865,1.045-1.293,1.954-1.309,1.614-.027,3.228-.008,4.842-.008v-.013Z"/>
          </g>
        </g>
      </g>
    </g>
  </g>
  <g>
    <rect class="cls-29" x="261.892" y="180.464" width="262.979" height="41.936" rx="4.279" ry="4.279"/>
    <rect class="cls-29" x="261.892" y="234.174" width="262.979" height="41.936" rx="4.279" ry="4.279"/>
    <rect class="cls-29" x="289.895" y="343.564" width="262.636" height="41.936" rx="4.279" ry="4.279"/>
    <rect class="cls-25" x="261.892" y="180.464" width="262.979" height="41.936" rx="4.279" ry="4.279"/>
    <rect class="cls-25" x="261.892" y="234.174" width="262.979" height="41.936" rx="4.279" ry="4.279"/>
    <rect class="cls-23" x="289.895" y="343.564" width="262.636" height="41.936" rx="4.279" ry="4.279"/>
    <rect class="cls-29" x="289.895" y="451.076" width="262.636" height="41.936" rx="4.279" ry="4.279"/>
    <rect class="cls-23" x="289.895" y="451.076" width="262.636" height="41.936" rx="4.279" ry="4.279"/>
    <rect class="cls-29" x="289.895" y="558.228" width="262.636" height="41.936" rx="4.279" ry="4.279"/>
    <rect class="cls-23" x="289.895" y="558.228" width="262.636" height="41.936" rx="4.279" ry="4.279"/>
  </g>
  <g>
    <g>
      <path class="cls-26" d="m198.229,118.85H47.178l-12.543,11.548-12.024-10.981c-.238-.218-.622-.049-.622.274v54.741c0,.102.042.198.115.269l12.53,11.519,12.543-11.629h151.051c15.329,0,27.871-12.542,27.871-27.871h0c0-15.329-12.542-27.871-27.871-27.871Z"/>
      <path class="cls-6" d="m173.944,146.244c.085-12.114,9.79-22.01,22.342-21.937,12.159.071,22.178,9.883,21.961,22.471-.203,11.764-9.754,21.773-22.498,21.598-12.042-.166-21.794-9.762-21.805-22.132Z"/>
      <path class="cls-17" d="m196.844,147.682c2.854.024,5.612,2.731,5.624,5.52.014,3.13-2.722,5.849-5.866,5.829-3.016-.018-5.566-2.746-5.533-5.919.031-3.007,2.636-5.457,5.775-5.43Z"/>
      <rect class="cls-17" x="199.231" y="138.066" width="9.448" height="9.448" transform="translate(160.705 -102.396) rotate(45)"/>
      <polygon class="cls-17" points="195.074 145.745 195.074 139.312 189.504 136.096 183.933 139.312 183.933 145.745 189.504 148.961 195.074 145.745"/>
      <text class="cls-21" transform="translate(48.937 155.47)"><tspan x="0" y="0">모양 보이기</tspan></text>
    </g>
    <g>
      <g>
        <g>
          <path class="cls-27" d="m552.701,281.796H47.178s0,0,0,0l-12.543,11.548h0l-12.023-10.98c-.238-.218-.622-.049-.622.274v54.841l.171.168,11.328,10.345c.662.605,1.677.603,2.337-.005l10.91-10.045c.212-.195.49-.304.779-.304l505.803-.101c16.067,0,29.071-13.778,27.783-30.102-1.152-14.595-13.758-25.64-28.399-25.64Z"/>
          <g>
            <path class="cls-1" d="m530.168,309.487c.085-12.114,9.79-22.01,22.342-21.937,12.159.071,22.178,9.883,21.961,22.471-.203,11.764-9.754,21.773-22.498,21.598-12.042-.166-21.794-9.762-21.805-22.132Z"/>
            <g>
              <path class="cls-10" d="m564.218,303.973l-4.943-3.73c-.539-.406-1.31-.022-1.31.652v1.443c0,.032-.028.058-.06.055l-8.772-.872c-.481-.048-.898.33-.898.813v4.582c0,.483.417.861.898.813l8.772-.872c.032-.003.06.022.06.055v1.443c0,.675.771,1.059,1.31.652l4.943-3.73c.433-.327.433-.978,0-1.305Z"/>
              <path class="cls-10" d="m540.424,315.197l4.943,3.73c.539.406,1.31.022,1.31-.652v-1.443c0-.032.028-.058.06-.055l8.772.872c.481.048.898-.33.898-.813v-4.582c0-.483-.417-.861-.898-.813l-8.772.872c-.032.003-.06-.022-.06-.055v-1.443c0-.675-.771-1.059-1.31-.652l-4.943,3.73c-.433.327-.433.978,0,1.305Z"/>
            </g>
          </g>
        </g>
        <text class="cls-22" transform="translate(51.033 318.146)"><tspan x="0" y="0">x:</tspan></text>
        <text class="cls-22" transform="translate(206.729 318.146)"><tspan x="0" y="0">y:</tspan></text>
        <text class="cls-22" transform="translate(359.245 318.146)"><tspan x="0" y="0">위치로 이동하기</tspan></text>
      </g>
      <g>
        <g>
          <path class="cls-8" d="m103.265,329.078c-10.975,0-19.903-8.929-19.903-19.903s8.929-19.903,19.903-19.903h71.413c10.975,0,19.903,8.929,19.903,19.903s-8.929,19.903-19.903,19.903h-71.413Z"/>
          <path class="cls-4" d="m174.677,290.271c10.423,0,18.903,8.48,18.903,18.903s-8.48,18.903-18.903,18.903h-71.412c-10.423,0-18.903-8.48-18.903-18.903s8.48-18.903,18.903-18.903h71.412m0-2h-71.412c-11.497,0-20.903,9.406-20.903,20.903h0c0,11.497,9.406,20.903,20.903,20.903h71.412c11.497,0,20.903-9.406,20.903-20.903h0c0-11.497-9.406-20.903-20.903-20.903h0Z"/>
        </g>
        <rect class="cls-4" x="97.846" y="289.691" width="49.092" height="38.968" rx="3.871" ry="3.871"/>
        <text class="cls-31" transform="translate(159.848 317.528)"><tspan x="0" y="0">값</tspan></text>
        <text class="cls-31" transform="translate(108.371 314.545)"><tspan x="0" y="0">x</tspan></text>
        <path class="cls-5" d="m131.244,304.497c1.503,0,3.006-.003,4.509.001.951.003,1.744.288,2.197,1.211.47.958.064,1.702-.534,2.425-1.451,1.754-2.859,3.543-4.343,5.268-1.318,1.533-2.389,1.523-3.72-.029-1.519-1.771-2.972-3.598-4.452-5.402-.521-.635-.812-1.313-.452-2.145.374-.865,1.045-1.293,1.954-1.309,1.614-.027,3.228-.008,4.842-.008v-.013Z"/>
      </g>
      <g>
        <g>
          <path class="cls-8" d="m257.041,329.078c-10.975,0-19.903-8.929-19.903-19.903s8.929-19.903,19.903-19.903h71.413c10.975,0,19.903,8.929,19.903,19.903s-8.929,19.903-19.903,19.903h-71.413Z"/>
          <path class="cls-4" d="m328.453,290.271c10.423,0,18.903,8.48,18.903,18.903s-8.48,18.903-18.903,18.903h-71.412c-10.423,0-18.903-8.48-18.903-18.903s8.48-18.903,18.903-18.903h71.412m0-2h-71.412c-11.497,0-20.903,9.406-20.903,20.903h0c0,11.497,9.406,20.903,20.903,20.903h71.412c11.497,0,20.903-9.406,20.903-20.903h0c0-11.497-9.406-20.903-20.903-20.903h0Z"/>
        </g>
        <rect class="cls-4" x="251.621" y="289.691" width="49.092" height="38.968" rx="3.871" ry="3.871"/>
        <text class="cls-31" transform="translate(313.624 317.528)"><tspan x="0" y="0">값</tspan></text>
        <text class="cls-31" transform="translate(262.147 314.545)"><tspan x="0" y="0">y</tspan></text>
        <path class="cls-5" d="m285.02,304.497c1.503,0,3.006-.003,4.509.001.951.003,1.744.288,2.197,1.211.47.958.064,1.702-.534,2.425-1.451,1.754-2.859,3.543-4.343,5.268-1.318,1.533-2.389,1.523-3.72-.029-1.519-1.771-2.972-3.598-4.452-5.402-.521-.635-.812-1.313-.452-2.145.374-.865,1.045-1.293,1.954-1.309,1.614-.027,3.228-.008,4.842-.008v-.013Z"/>
      </g>
    </g>
  </g>
</svg>