<?xml version="1.0" encoding="UTF-8"?>
<svg id="_레이어_2" data-name="레이어 2" xmlns="http://www.w3.org/2000/svg" viewBox="0 0 898.637 382.724">
  <defs>
    <style>
      .cls-1, .cls-2, .cls-3, .cls-4, .cls-5, .cls-6, .cls-7, .cls-8, .cls-9, .cls-10, .cls-11, .cls-12, .cls-13, .cls-14, .cls-15, .cls-16, .cls-17, .cls-18 {
        stroke-width: 0px;
      }

      .cls-1, .cls-19, .cls-20, .cls-21, .cls-22 {
        fill: #fefefe;
      }

      .cls-2 {
        fill: #25aeff;
      }

      .cls-3 {
        fill: #00b400;
      }

      .cls-23 {
        fill: #dc47d7;
        stroke: #b719b2;
      }

      .cls-23, .cls-24, .cls-25, .cls-26, .cls-27, .cls-28 {
        stroke-width: 2px;
      }

      .cls-23, .cls-25, .cls-28 {
        stroke-miterlimit: 10;
      }

      .cls-29 {
        letter-spacing: -.025em;
      }

      .cls-29, .cls-30, .cls-19, .cls-20, .cls-21, .cls-22, .cls-31 {
        font-family: Pretendard-Bold-KSCpc-EUC-H, Pretendard;
        font-weight: 700;
      }

      .cls-29, .cls-8, .cls-31 {
        fill: #fff;
      }

      .cls-29, .cls-21, .cls-31 {
        font-size: 22px;
      }

      .cls-32 {
        stroke: #fff;
        stroke-width: 4px;
      }

      .cls-32, .cls-24, .cls-26, .cls-27 {
        stroke-linejoin: round;
      }

      .cls-32, .cls-26 {
        fill: none;
      }

      .cls-4 {
        fill: #fefdfe;
      }

      .cls-30 {
        font-size: 21.411px;
      }

      .cls-5 {
        fill: #c62042;
      }

      .cls-24 {
        fill: #fe3a61;
        stroke: #c62142;
      }

      .cls-24, .cls-27 {
        stroke-linecap: round;
      }

      .cls-25 {
        fill: #00b300;
        stroke: #009400;
      }

      .cls-26 {
        stroke: red;
        stroke-dasharray: 0 0 4.008 2.004;
      }

      .cls-19, .cls-22 {
        font-size: 26px;
      }

      .cls-6 {
        fill: #b719b2;
      }

      .cls-7 {
        fill: #ff7f00;
      }

      .cls-27, .cls-28 {
        fill: #19baea;
        stroke: #1498c0;
      }

      .cls-20 {
        font-size: 25.605px;
      }

      .cls-9 {
        fill: #6dddfe;
      }

      .cls-10 {
        fill: #1498c0;
      }

      .cls-11 {
        fill: #1592ff;
      }

      .cls-12 {
        fill: #f577f1;
      }

      .cls-13 {
        fill: #fedd81;
      }

      .cls-14 {
        fill: #f4af18;
      }

      .cls-15 {
        fill: #f677f2;
      }

      .cls-22 {
        letter-spacing: -.025em;
      }

      .cls-16 {
        fill: #fe9b00;
      }

      .cls-17 {
        fill: #f2f2f2;
      }

      .cls-18 {
        fill: #fe5576;
      }
    </style>
  </defs>
  <g>
    <g>
      <g>
        <path class="cls-25" d="m314.757,33.954c-2.293-12.79-13.661-22.1-26.741-22.14-81.918-.248-143.736-.502-225.654-.713-2.727-.007-4.859-.438-7.168-2.399C48.028,2.617,39.547.119,30.1,1.274,20.381,2.464,12.681,7.161,7.067,15.04,2.193,21.879.212,29.582,1.283,38.024c1.177,9.281,5.523,16.675,12.825,22.461,2.165,1.716,6.8,4.434,7.455,4.816.055.032.101.067.148.11l11.686,10.762c.84.872,2.14.793,2.931-.015l10.743-9.885c.26-.239.6-.372.952-.372l237.984.032c1.539.004,3.069-.064,4.601-.205l.974-.089c15.315-1.89,25.945-16.233,23.175-31.685Z"/>
        <g>
          <path class="cls-1" d="m34.02,61.097c-14.926-.049-27.039-12.211-27-27.111.039-14.887,12.218-27,27.15-27h.125c14.901.067,26.976,12.266,26.917,27.193-.058,14.842-12.216,26.917-27.103,26.917h-.09Z"/>
          <path class="cls-17" d="m34.17,7.986h0,.12c14.349.064,25.978,11.813,25.922,26.189-.056,14.293-11.765,25.922-26.103,25.922h-.087c-14.375-.047-26.04-11.76-26.003-26.109.037-14.337,11.768-26.001,26.151-26.002m0-2c-15.526,0-28.111,12.502-28.151,27.997-.04,15.453,12.517,28.063,27.997,28.114.032,0,.062,0,.094,0,15.444,0,28.043-12.503,28.103-27.914.06-15.477-12.463-28.128-27.913-28.197-.044,0-.086,0-.129,0h0Z"/>
        </g>
      </g>
      <g>
        <rect class="cls-3" x="19.18" y="28.571" width="27.677" height="17.677" rx="1.839" ry="1.839"/>
        <g>
          <g>
            <path class="cls-8" d="m19.225,28.43c-.171,0-.329-.111-.392-.276l2.244-6.231,3.778-1.019-2.364,6.66-3.16.852c-.035.009-.07.014-.106.014h0Z"/>
            <path class="cls-3" d="m24.657,21.086l-2.263,6.374-3.096.835c-.024.006-.049.01-.074.01-.094,0-.182-.048-.237-.125l2.185-6.154,3.485-.94m.395-.365l-4.072,1.098-2.265,6.38c.082.214.286.356.509.356.046,0,.092-.006.139-.019l3.223-.869,2.466-6.946h0Z"/>
          </g>
          <g>
            <polygon class="cls-3" points="25.148 20.824 30.327 19.427 27.963 26.087 22.784 27.484 25.148 20.824"/>
            <path class="cls-3" d="m30.13,19.61l-2.263,6.374-4.886,1.318,2.263-6.374,4.886-1.318m.395-.365l-5.472,1.476-2.466,6.946,5.473-1.476,2.466-6.947h0Z"/>
          </g>
          <g>
            <polygon class="cls-8" points="30.621 19.348 34.431 18.32 32.066 24.98 28.256 26.008 30.621 19.348"/>
            <path class="cls-3" d="m34.233,18.503l-2.263,6.374-3.516.949,2.263-6.374,3.517-.949m.395-.365l-4.104,1.107-2.466,6.947,4.103-1.107,2.466-6.947h0Z"/>
          </g>
          <g>
            <path class="cls-3" d="m17.518,23.321c-.061-.225.073-.458.299-.519l2.966-.8-2.057,5.795-1.208-4.476Z"/>
            <path class="cls-3" d="m20.586,22.184l-1.844,5.193-1.103-4.089c-.043-.159.052-.323.21-.366l2.736-.738m.395-.365l-3.197.862c-.291.078-.465.381-.387.672l1.294,4.796c.005.018.018.032.025.049l2.265-6.38h0Z"/>
          </g>
          <g>
            <path class="cls-3" d="m44.092,16.385l1.235,4.58c.061.225-.073.458-.298.519l-3.038.819,2.101-5.918Z"/>
            <path class="cls-3" d="m44.076,16.805l1.131,4.193c.021.076.01.157-.03.226s-.104.119-.18.14l-2.808.757,1.887-5.316m.016-.793l-2.299,6.475,3.268-.881c.291-.079.465-.381.386-.672l-1.293-4.796c-.013-.047-.039-.084-.062-.125h0Z"/>
          </g>
          <g>
            <polygon class="cls-3" points="34.724 18.241 39.959 16.83 37.594 23.49 32.36 24.901 34.724 18.241"/>
            <path class="cls-3" d="m39.761,17.012l-2.263,6.374-4.941,1.333,2.263-6.374,4.941-1.333m.395-.365l-5.528,1.491-2.466,6.947,5.528-1.491,2.466-6.946h0Z"/>
          </g>
          <g>
            <path class="cls-8" d="m40.252,16.75l3.263-.88c.034-.009.069-.014.104-.014.129,0,.253.064.334.172l-2.255,6.354-3.81,1.028,2.364-6.66Z"/>
            <path class="cls-3" d="m43.619,15.981c.07,0,.138.028.192.076l-2.209,6.222-3.516.948,2.263-6.374,3.199-.863c.024-.006.048-.01.072-.01m0-.25c-.045,0-.091.006-.137.018l-3.326.897-2.466,6.946,4.103-1.107,2.299-6.475c-.098-.171-.278-.281-.473-.281h0Z"/>
          </g>
        </g>
        <rect class="cls-8" x="22.586" y="32.506" width="10.026" height="2" rx="1" ry="1"/>
        <rect class="cls-8" x="22.586" y="36.487" width="18.07" height="2" rx="1" ry="1"/>
        <rect class="cls-8" x="22.586" y="40.468" width="20.207" height="2" rx="1" ry="1"/>
      </g>
    </g>
    <g>
      <g>
        <path class="cls-24" d="m198.536,65.853H47.484l-12.543,11.548-12.024-10.981c-.238-.218-.622-.049-.622.274v54.741c0,.102.042.198.115.269l12.53,11.519,12.543-11.629h151.051c15.329,0,27.871-12.542,27.871-27.871h0c0-15.329-12.542-27.871-27.871-27.871Z"/>
        <path class="cls-5" d="m174.25,93.246c.085-12.114,9.79-22.01,22.342-21.937,12.159.071,22.178,9.883,21.961,22.471-.203,11.764-9.754,21.773-22.498,21.598-12.042-.166-21.794-9.762-21.805-22.132Z"/>
        <path class="cls-18" d="m197.15,94.684c2.854.024,5.612,2.731,5.624,5.52.014,3.13-2.722,5.849-5.866,5.829-3.016-.018-5.566-2.746-5.533-5.919.031-3.007,2.636-5.457,5.775-5.43Z"/>
        <rect class="cls-18" x="199.538" y="85.068" width="9.448" height="9.448" transform="translate(123.32 -118.135) rotate(45)"/>
        <polygon class="cls-18" points="195.381 92.747 195.381 86.315 189.81 83.098 184.239 86.315 184.239 92.747 189.81 95.964 195.381 92.747"/>
        <text class="cls-22" transform="translate(49.243 102.472)"><tspan x="0" y="0">모양 숨기기</tspan></text>
      </g>
      <g>
        <g>
          <g>
            <path class="cls-23" d="m371.235,121.56H47.484l-12.543,11.141-12.024-10.593c-.238-.21-.622-.047-.622.265v52.811c0,.098.042.191.115.259l12.53,11.113,12.543-11.219h323.75c15.329,0,27.871-12.1,27.871-26.888h0c0-14.789-12.542-26.888-27.871-26.888Z"/>
            <path class="cls-6" d="m346.949,148.954c.085-12.114,9.79-22.01,22.342-21.937,12.159.071,22.178,9.883,21.961,22.471-.203,11.764-9.754,21.773-22.498,21.598-12.042-.166-21.794-9.762-21.805-22.132Z"/>
            <text class="cls-19" transform="translate(198.714 156.532)"><tspan x="0" y="0">(으)로 정하기</tspan></text>
            <text class="cls-19" transform="translate(113.334 156.532)"><tspan x="0" y="0">를</tspan></text>
            <path class="cls-15" d="m368.909,139.009c3.973.048,6.605,2.132,7.169,5.536.236,1.421-.185,2.643-1.127,3.671-.864.943-1.773,1.854-2.731,2.702-1.025.909-1.869,1.892-2.145,3.28-.232,1.167-.936,1.732-2.155,1.54-1.232-.194-1.334-1.074-1.385-2.104-.103-2.069,1.042-3.441,2.431-4.709.657-.599,1.396-1.122,1.982-1.782,1.412-1.588,1.315-3.285-.17-4.344-1.397-.997-3.888-.624-4.788.786-.444.696-.76,1.483-1.061,2.257-.461,1.186-1.382,1.378-2.45,1.155-1.088-.227-1.328-1.054-1.254-2.043.193-2.571,1.812-4.116,3.935-5.163,1.186-.585,2.528-.865,3.748-.783Z"/>
            <path class="cls-12" d="m368.426,161.721c-1.32,0-2.19-.878-2.179-2.197.011-1.354.827-2.157,2.191-2.156,1.361,0,2.177.81,2.183,2.167.006,1.3-.885,2.187-2.195,2.186Z"/>
          </g>
          <g>
            <path class="cls-6" d="m93.517,129.007l-32.883-.061c-3.657-.014-6.893,2.767-6.868,6.912.052,8.797.052,17.595,0,26.392-.024,4.145,3.212,6.915,6.869,6.91,56.653-.084-23.77-.059,32.883-.059,4.46,0,6.868-2.426,6.87-6.935.004-8.742.004-17.483,0-26.225-.002-4.508-2.41-6.934-6.871-6.934Z"/>
            <path class="cls-4" d="m85.375,143.797c1.503,0,3.006-.003,4.509.001.951.003,1.744.288,2.197,1.211.47.958.064,1.702-.534,2.425-1.451,1.754-2.859,3.543-4.343,5.268-1.318,1.533-2.389,1.523-3.72-.029-1.519-1.771-2.972-3.598-4.452-5.402-.521-.635-.812-1.313-.452-2.145.374-.865,1.045-1.293,1.954-1.309,1.614-.027,3.228-.008,4.842-.008v-.013Z"/>
            <text class="cls-21" transform="translate(64.822 155.976)"><tspan x="0" y="0">i</tspan></text>
          </g>
        </g>
        <g>
          <g>
            <path class="cls-13" d="m168.283,168.164c-10.559,0-19.479-8.858-19.479-19.344s8.92-19.343,19.479-19.343h.305c10.559,0,19.479,8.858,19.479,19.343s-8.92,19.344-19.479,19.344h-.305Z"/>
            <path class="cls-16" d="m168.588,130.477c10.017,0,18.479,8.4,18.479,18.344s-8.463,18.344-18.479,18.344h-.305c-10.017,0-18.479-8.4-18.479-18.344s8.462-18.344,18.479-18.344h.305m0-2h-.305c-10.758,0-20.479,9.108-20.479,20.344s9.721,20.344,20.479,20.344h.305c10.758,0,20.479-9.108,20.479-20.344s-9.721-20.344-20.479-20.344h0Z"/>
          </g>
          <text class="cls-30" transform="translate(162.15 155.977)"><tspan x="0" y="0">1</tspan></text>
        </g>
      </g>
    </g>
    <text class="cls-19" transform="translate(77.078 46.248) rotate(.173)"><tspan x="0" y="0">장면이 시작되었을 때</tspan></text>
    <g>
      <g>
        <path class="cls-27" d="m876.333,338.547H74.621s-12.543,11.25-12.543,11.25l-12.673-11.25v-107.603l12.441,11.461,12.387-11.471,787.533-.091c16.51,0,29.787-14.549,27.643-31.459-1.775-13.998-14.07-24.283-28.18-24.283H47.516s-12.543,11.548-12.543,11.548l-12.023-10.98c-.238-.218-.622-.049-.622.274v54.741c0,.047.011.092.028.135h-.004l.091.134.056,139.16,12.379,11.613,12.516-11.613h829.353c9.308,0,16.733-8.057,15.683-17.578-.888-8.053-7.996-13.988-16.098-13.988Z"/>
        <g>
          <path class="cls-10" d="m879.514,203.015c.233,11.599-9.583,22.21-22.59,21.903-11.361-.268-21.522-9.45-21.508-22.104.014-12.581,10.427-22.278,22.629-21.994,11.969.279,21.786,10.209,21.47,22.194Z"/>
          <path class="cls-9" d="m865.598,204.548c-.095,0-.185.021-.279.028l-4.684-7.075c.647-.892.943-2.055.623-3.302-.356-1.388-1.5-2.503-2.899-2.812-2.553-.562-4.81,1.366-4.81,3.821,0,.859.284,1.646.753,2.292l-4.684,7.075c-.094-.007-.183-.028-.279-.028-2.466,0-4.4,2.277-3.814,4.843.323,1.416,1.474,2.567,2.89,2.89,2.566.586,4.843-1.348,4.843-3.814,0-1.153-.507-2.18-1.3-2.897l4.386-6.625c.358.108.731.183,1.124.183s.766-.076,1.124-.183l4.386,6.625c-1.013.917-1.56,2.338-1.178,3.884.344,1.389,1.482,2.51,2.878,2.828,2.564.583,4.839-1.35,4.839-3.815,0-2.165-1.755-3.919-3.919-3.919Z"/>
        </g>
        <text class="cls-19" transform="translate(702.789 212.061)"><tspan x="0" y="0">번 반복하기</tspan></text>
      </g>
      <g>
        <g>
          <g>
            <path class="cls-14" d="m72.135,221.741c-10.975,0-19.903-8.929-19.903-19.903s8.928-19.903,19.903-19.903h596.186c10.975,0,19.903,8.929,19.903,19.903s-8.929,19.903-19.903,19.903H72.135Z"/>
            <path class="cls-7" d="m668.321,182.935c10.423,0,18.903,8.48,18.903,18.903s-8.48,18.903-18.903,18.903H72.136c-10.423,0-18.903-8.48-18.903-18.903s8.48-18.903,18.903-18.903h596.186m0-2H72.136c-11.497,0-20.903,9.406-20.903,20.903h0c0,11.497,9.406,20.903,20.903,20.903h596.186c11.497,0,20.903-9.406,20.903-20.903h0c0-11.497-9.407-20.903-20.903-20.903h0Z"/>
          </g>
          <rect class="cls-7" x="591.413" y="182.806" width="28.258" height="38.065" rx="2.645" ry="2.645"/>
          <text class="cls-29" transform="translate(601.339 207.902)"><tspan x="0" y="0">-</tspan></text>
        </g>
        <g>
          <g>
            <path class="cls-13" d="m651.889,221.181c-10.559,0-19.479-8.858-19.479-19.343s8.92-19.343,19.479-19.343h.305c10.559,0,19.479,8.858,19.479,19.343s-8.92,19.343-19.479,19.343h-.305Z"/>
            <path class="cls-16" d="m652.194,183.495c10.017,0,18.479,8.4,18.479,18.343s-8.462,18.344-18.479,18.344h-.305c-10.017,0-18.479-8.4-18.479-18.344s8.462-18.343,18.479-18.343h.305m0-2h-.305c-10.758,0-20.479,9.108-20.479,20.343s9.721,20.344,20.479,20.344h.305c10.758,0,20.479-9.108,20.479-20.344s-9.721-20.343-20.479-20.343h0Z"/>
          </g>
          <text class="cls-30" transform="translate(645.748 208.994)"><tspan x="0" y="0">1</tspan></text>
        </g>
        <g>
          <path class="cls-2" d="m87.125,221.741c-10.975,0-19.903-8.929-19.903-19.903s8.929-19.903,19.903-19.903h470.95c10.975,0,19.903,8.929,19.903,19.903s-8.929,19.903-19.903,19.903H87.125Z"/>
          <path class="cls-11" d="m558.075,182.935c10.423,0,18.903,8.48,18.903,18.903s-8.48,18.903-18.903,18.903H87.125c-10.423,0-18.903-8.48-18.903-18.903s8.48-18.903,18.903-18.903h470.95m0-2H87.125c-11.497,0-20.903,9.406-20.903,20.903h0c0,11.497,9.406,20.903,20.903,20.903h470.95c11.497,0,20.903-9.406,20.903-20.903h0c0-11.497-9.406-20.903-20.903-20.903h0Z"/>
        </g>
        <rect class="cls-11" x="144.709" y="182.354" width="266.98" height="38.968" rx="3.871" ry="3.871"/>
        <path class="cls-4" d="m395.995,196.815c1.503,0,3.006-.003,4.509.001.951.003,1.744.288,2.197,1.211.47.958.064,1.702-.534,2.425-1.451,1.754-2.859,3.543-4.343,5.268-1.318,1.533-2.389,1.523-3.72-.029-1.519-1.771-2.972-3.598-4.452-5.402-.521-.635-.812-1.313-.452-2.145.374-.865,1.045-1.293,1.954-1.309,1.614-.027,3.228-.008,4.842-.008v-.013Z"/>
        <text class="cls-31" transform="translate(525.621 208.9)"><tspan x="0" y="0">개수</tspan></text>
        <text class="cls-31" transform="translate(80.814 208.901)"><tspan x="0" y="0">테이블</tspan></text>
        <text class="cls-31" transform="translate(154.206 208.901)"><tspan x="0" y="0">화곡동약국_위치변환.xlsx</tspan></text>
        <rect class="cls-11" x="454.246" y="182.354" width="59.71" height="38.968" rx="3.871" ry="3.871"/>
        <path class="cls-4" d="m498.262,196.815c1.503,0,3.006-.003,4.509.001.951.003,1.744.288,2.197,1.211.47.958.064,1.702-.534,2.425-1.451,1.754-2.859,3.543-4.343,5.268-1.318,1.533-2.389,1.523-3.72-.029-1.519-1.771-2.972-3.598-4.452-5.402-.521-.635-.812-1.313-.452-2.145.374-.865,1.045-1.293,1.954-1.309,1.614-.027,3.228-.008,4.842-.008v-.013Z"/>
        <text class="cls-31" transform="translate(465.734 208.901)"><tspan x="0" y="0">행</tspan></text>
        <text class="cls-31" transform="translate(424.621 208.9)"><tspan x="0" y="0">의</tspan></text>
      </g>
    </g>
    <g>
      <g>
        <g>
          <path class="cls-23" d="m376.386,231.382H74.621l-12.543,11.141-12.024-10.593c-.238-.21-.622-.047-.622.265v52.811c0,.098.042.191.115.259l12.53,11.113,12.543-11.219h301.765c15.329,0,27.871-12.1,27.871-26.888h0c0-14.789-12.542-26.888-27.871-26.888Z"/>
          <path class="cls-6" d="m352.101,258.775c.085-12.114,9.79-22.01,22.342-21.937,12.159.071,22.178,9.883,21.961,22.471-.203,11.764-9.754,21.773-22.498,21.598-12.042-.166-21.794-9.762-21.805-22.132Z"/>
          <text class="cls-19" transform="translate(224.868 266.354)"><tspan x="0" y="0">만큼 더하기</tspan></text>
          <text class="cls-19" transform="translate(140.471 266.354)"><tspan x="0" y="0">에</tspan></text>
          <path class="cls-15" d="m374.061,248.83c3.973.048,6.605,2.132,7.169,5.536.236,1.421-.185,2.643-1.127,3.671-.864.943-1.773,1.854-2.731,2.702-1.025.909-1.869,1.892-2.145,3.28-.232,1.167-.936,1.732-2.155,1.54-1.232-.194-1.334-1.074-1.385-2.104-.103-2.069,1.042-3.441,2.431-4.709.657-.599,1.396-1.122,1.982-1.782,1.412-1.588,1.315-3.285-.17-4.344-1.397-.997-3.888-.624-4.788.786-.444.696-.76,1.483-1.061,2.257-.461,1.186-1.382,1.378-2.45,1.155-1.088-.227-1.328-1.054-1.254-2.043.193-2.571,1.812-4.116,3.935-5.163,1.186-.585,2.528-.865,3.748-.783Z"/>
          <path class="cls-12" d="m373.578,271.543c-1.32,0-2.19-.878-2.179-2.197.011-1.354.827-2.157,2.191-2.156,1.361,0,2.177.81,2.183,2.167.006,1.3-.885,2.187-2.195,2.186Z"/>
        </g>
        <g>
          <path class="cls-6" d="m120.654,238.828l-32.883-.061c-3.657-.014-6.893,2.767-6.868,6.912.052,8.797.052,17.595,0,26.392-.024,4.145,3.212,6.915,6.869,6.91,56.653-.084-23.77-.059,32.883-.059,4.46,0,6.868-2.426,6.87-6.935.004-8.742.004-17.483,0-26.225-.002-4.508-2.41-6.934-6.871-6.934Z"/>
          <path class="cls-4" d="m112.512,253.619c1.503,0,3.006-.003,4.509.001.951.003,1.744.288,2.197,1.211.47.958.064,1.702-.534,2.425-1.451,1.754-2.859,3.543-4.343,5.268-1.318,1.533-2.389,1.523-3.72-.029-1.519-1.771-2.972-3.598-4.452-5.402-.521-.635-.812-1.313-.452-2.145.374-.865,1.045-1.293,1.954-1.309,1.614-.027,3.228-.008,4.842-.008v-.013Z"/>
          <text class="cls-21" transform="translate(91.959 265.798)"><tspan x="0" y="0">i</tspan></text>
        </g>
      </g>
      <g>
        <g>
          <path class="cls-13" d="m194.437,277.985c-10.559,0-19.479-8.858-19.479-19.344s8.92-19.343,19.479-19.343h.305c10.559,0,19.479,8.858,19.479,19.343s-8.92,19.344-19.479,19.344h-.305Z"/>
          <path class="cls-16" d="m194.742,240.298c10.017,0,18.479,8.4,18.479,18.344s-8.462,18.343-18.479,18.343h-.305c-10.017,0-18.479-8.4-18.479-18.343s8.462-18.344,18.479-18.344h.305m0-2h-.305c-10.758,0-20.479,9.108-20.479,20.344s9.721,20.343,20.479,20.343h.305c10.758,0,20.479-9.108,20.479-20.343s-9.721-20.344-20.479-20.344h0Z"/>
        </g>
        <text class="cls-30" transform="translate(188.304 265.798)"><tspan x="0" y="0">1</tspan></text>
      </g>
    </g>
    <g>
      <path class="cls-28" d="m365.184,285.193H74.621l-12.543,11.141-12.024-10.593c-.238-.21-.622-.047-.622.265v52.811c0,.098.042.191.115.259l12.53,11.113,12.543-11.219h290.563c15.329,0,27.871-12.1,27.871-26.888h0c0-14.789-12.542-26.888-27.871-26.888Z"/>
      <g>
        <path class="cls-10" d="m385.987,312.007c.233,11.599-9.583,22.21-22.59,21.903-11.361-.268-21.522-9.45-21.508-22.104.014-12.581,10.427-22.278,22.629-21.994,11.969.279,21.786,10.209,21.47,22.194Z"/>
        <path class="cls-9" d="m372.071,313.539c-.095,0-.185.021-.279.028l-4.684-7.075c.647-.892.942-2.055.623-3.302-.356-1.388-1.5-2.504-2.899-2.812-2.553-.562-4.81,1.366-4.81,3.821,0,.859.284,1.646.753,2.292l-4.684,7.075c-.094-.007-.183-.028-.279-.028-2.466,0-4.4,2.277-3.814,4.843.323,1.416,1.474,2.567,2.89,2.89,2.566.586,4.843-1.348,4.843-3.814,0-1.153-.507-2.18-1.3-2.897l4.386-6.625c.358.108.731.183,1.124.183s.766-.076,1.124-.183l4.386,6.625c-1.013.917-1.56,2.338-1.178,3.884.344,1.389,1.482,2.51,2.877,2.828,2.564.583,4.839-1.35,4.839-3.815,0-2.165-1.755-3.919-3.919-3.919Z"/>
      </g>
      <text class="cls-20" transform="translate(166.369 321.479)"><tspan x="0" y="0">의 복제본 만들기</tspan></text>
      <g>
        <path class="cls-10" d="m147.154,291.639l-62.384-.061c-3.657-.014-6.893,2.767-6.868,6.912.052,8.797.052,17.595,0,26.392-.024,4.145,3.212,6.915,6.869,6.91,56.653-.084,5.731-.059,62.384-.059,4.46,0,6.868-2.426,6.87-6.935.004-8.742.004-17.483,0-26.225-.002-4.508-2.41-6.934-6.871-6.934Z"/>
        <path class="cls-4" d="m137.013,306.43c1.503,0,3.006-.003,4.509.001.951.003,1.744.288,2.197,1.211.47.958.064,1.702-.534,2.425-1.451,1.754-2.859,3.543-4.343,5.268-1.318,1.533-2.389,1.523-3.72-.029-1.519-1.771-2.972-3.598-4.452-5.402-.521-.635-.812-1.313-.452-2.145.374-.865,1.045-1.293,1.954-1.309,1.614-.027,3.228-.008,4.842-.008v-.013Z"/>
        <text class="cls-21" transform="translate(88.283 319.263)"><tspan x="0" y="0">자신</tspan></text>
      </g>
    </g>
  </g>
  <g>
    <rect class="cls-32" x="144.709" y="180.935" width="268.356" height="41.936" rx="4.25" ry="4.25"/>
    <rect class="cls-26" x="144.709" y="180.935" width="268.356" height="41.936" rx="4.25" ry="4.25"/>
  </g>
</svg>