<?xml version="1.0" encoding="iso-8859-1"?>
<!-- Generator: Adobe Illustrator 28.0.0, SVG Export Plug-In . SVG Version: 6.00 Build 0)  -->
<svg version="1.1" id="&#xB808;&#xC774;&#xC5B4;_1" xmlns="http://www.w3.org/2000/svg" xmlns:xlink="http://www.w3.org/1999/xlink"
	 x="0px" y="0px" viewBox="0 0 32.567 54.916" style="enable-background:new 0 0 32.567 54.916;" xml:space="preserve">
<g>
	<g>
		
			<line style="fill:none;stroke:#FFFFFF;stroke-width:1.5;stroke-linecap:round;stroke-miterlimit:10;" x1="16.5" y1="0.75" x2="16.5" y2="5.143"/>
		<g>
			
				<line style="fill:none;stroke:#FFFFFF;stroke-width:1.5;stroke-linecap:round;stroke-miterlimit:10;" x1="25.705" y1="2.946" x2="22.598" y2="6.053"/>
			
				<line style="fill:none;stroke:#FFFFFF;stroke-width:1.5;stroke-linecap:round;stroke-miterlimit:10;" x1="7.295" y1="2.946" x2="10.401" y2="6.053"/>
		</g>
	</g>
	<g>
		<g>
			<g>
				<g>
					<g>
						<path style="fill:none;stroke:#FFFFFF;stroke-width:1.5;stroke-miterlimit:10;" d="M23.804,38.39
							c4.265-2.769,8.012-8.325,8.012-13.789c0-8.579-6.955-15.533-15.533-15.533c-8.579,0-15.533,6.954-15.533,15.533
							c0,5.464,3.747,11.02,8.012,13.789"/>
					</g>
				</g>
			</g>
			<g>
				<polyline style="fill:none;stroke:#FFFFFF;stroke-width:1.5;stroke-linecap:round;stroke-miterlimit:10;" points="20.76,37.628 
					21.766,24.95 18.416,27.934 16.283,22.705 14.151,27.934 10.801,24.95 11.729,37.628 				"/>
			</g>
		</g>
		<g>
			<path style="fill:none;stroke:#FFFFFF;stroke-width:1.5;stroke-miterlimit:10;" d="M12.23,49.209v0.904
				c0,2.238,1.815,4.053,4.053,4.053h0c2.238,0,4.053-1.815,4.053-4.053v-0.904H12.23z"/>
			<path style="fill:none;stroke:#FFFFFF;stroke-width:1.5;stroke-miterlimit:10;" d="M24.536,43.799H8.031
				c-0.532,0-0.968-0.435-0.968-0.968v-3.474c0-0.532,0.435-0.968,0.968-0.968h16.505c0.532,0,0.968,0.435,0.968,0.968v3.474
				C25.504,43.364,25.068,43.799,24.536,43.799z"/>
			<path style="fill:none;stroke:#FFFFFF;stroke-width:1.5;stroke-miterlimit:10;" d="M23.222,49.209H9.345
				c-0.532,0-0.968-0.435-0.968-0.968v-3.474c0-0.532,0.435-0.968,0.968-0.968h13.877c0.532,0,0.968,0.435,0.968,0.968v3.474
				C24.19,48.773,23.754,49.209,23.222,49.209z"/>
		</g>
	</g>
</g>
</svg>
