<?xml version="1.0" encoding="iso-8859-1"?>
<!-- Generator: Adobe Illustrator 28.0.0, SVG Export Plug-In . SVG Version: 6.00 Build 0)  -->
<svg version="1.1" id="&#xB808;&#xC774;&#xC5B4;_1" xmlns="http://www.w3.org/2000/svg" xmlns:xlink="http://www.w3.org/1999/xlink"
	 x="0px" y="0px" viewBox="0 0 53.384 39.984" style="enable-background:new 0 0 53.384 39.984;" xml:space="preserve">
<g>
	<g>
		<g>
			<path style="fill:none;stroke:#FFFFFF;stroke-width:1.5;stroke-miterlimit:10;" d="M52.028,15.686
				c0.807-0.807,0.807-2.116-0.001-2.924L40.621,1.355c-0.807-0.807-2.116-0.807-2.923,0l-4.502,4.502l14.33,14.33L52.028,15.686z"
				/>
			<path style="fill:none;stroke:#FFFFFF;stroke-width:1.5;stroke-linecap:round;stroke-linejoin:round;stroke-miterlimit:10;" d="
				M16.481,22.762c-0.214,0.364-0.383,0.753-0.453,1.175l-1.854,12.625c-0.226,1.547,1.101,2.875,2.648,2.648l12.625-1.853
				c0.422-0.07,0.811-0.238,1.175-0.453L16.481,22.762z"/>
			<g>
				<path style="fill:none;stroke:#FFFFFF;stroke-width:1.5;stroke-linecap:round;stroke-linejoin:round;stroke-miterlimit:10;" d="
					M28.451,10.603L16.993,22.061c-0.207,0.207-0.364,0.452-0.512,0.701l14.141,14.141c0.249-0.147,0.495-0.304,0.702-0.511
					l11.458-11.458L28.451,10.603z"/>
				
					<rect x="34.633" y="5.262" transform="matrix(0.7071 -0.7071 0.7071 0.7071 0.2405 31.3712)" style="fill:none;stroke:#FFFFFF;stroke-width:1.5;stroke-miterlimit:10;" width="6.711" height="20.266"/>
			</g>
		</g>
	</g>
	<g>
		<g>
			
				<line style="fill:none;stroke:#FFFFFF;stroke-width:1.5;stroke-linecap:round;stroke-linejoin:round;stroke-miterlimit:10;" x1="0.75" y1="27.475" x2="5.119" y2="27.935"/>
			<g>
				
					<line style="fill:none;stroke:#FFFFFF;stroke-width:1.5;stroke-linecap:round;stroke-linejoin:round;stroke-miterlimit:10;" x1="3.897" y1="18.551" x2="6.662" y2="21.965"/>
				
					<line style="fill:none;stroke:#FFFFFF;stroke-width:1.5;stroke-linecap:round;stroke-linejoin:round;stroke-miterlimit:10;" x1="1.972" y1="36.859" x2="5.386" y2="34.095"/>
			</g>
		</g>
	</g>
</g>
</svg>
