<?xml version="1.0" encoding="UTF-8"?>
<svg id="_레이어_1" data-name="레이어 1" xmlns="http://www.w3.org/2000/svg" viewBox="0 0 969.954 919.08">
  <defs>
    <style>
      .cls-1 {
        fill: #c72345;
      }

      .cls-1, .cls-2, .cls-3, .cls-4, .cls-5, .cls-6, .cls-7, .cls-8, .cls-9, .cls-10, .cls-11, .cls-12, .cls-13, .cls-14, .cls-15, .cls-16, .cls-17, .cls-18, .cls-19 {
        stroke-width: 0px;
      }

      .cls-2, .cls-20, .cls-21, .cls-22, .cls-23, .cls-24 {
        fill: #fefefe;
      }

      .cls-25, .cls-26, .cls-27, .cls-24 {
        letter-spacing: -.025em;
      }

      .cls-28, .cls-26, .cls-29, .cls-20, .cls-21, .cls-30, .cls-27, .cls-22, .cls-31, .cls-23, .cls-24 {
        font-family: Pretendard-Bold-KSCpc-EUC-H, Pretendard;
        font-weight: 700;
      }

      .cls-28, .cls-29, .cls-30 {
        font-size: 21px;
      }

      .cls-3 {
        fill: #b819b3;
      }

      .cls-26, .cls-29 {
        fill: #fff;
      }

      .cls-26, .cls-21, .cls-27, .cls-31, .cls-24 {
        font-size: 22px;
      }

      .cls-4 {
        fill: #fefdfe;
      }

      .cls-32 {
        letter-spacing: -.057em;
      }

      .cls-5 {
        fill: #c62042;
      }

      .cls-33 {
        fill: #fe3a61;
        stroke: #c62142;
      }

      .cls-33, .cls-34, .cls-35, .cls-36, .cls-37, .cls-38 {
        stroke-width: 2px;
      }

      .cls-33, .cls-34, .cls-36, .cls-38 {
        stroke-linecap: round;
        stroke-linejoin: round;
      }

      .cls-6 {
        fill: #ffde82;
      }

      .cls-7 {
        fill: #1b3ad8;
      }

      .cls-29, .cls-30, .cls-39 {
        letter-spacing: -.025em;
      }

      .cls-20, .cls-22, .cls-23 {
        font-size: 26px;
      }

      .cls-8 {
        fill: #b719b2;
      }

      .cls-9 {
        fill: #ff7f00;
      }

      .cls-34 {
        fill: #19baea;
        stroke: #1498c0;
      }

      .cls-10 {
        fill: #6dddfe;
      }

      .cls-11 {
        fill: #1498c0;
      }

      .cls-35 {
        stroke: #019501;
      }

      .cls-35, .cls-37 {
        stroke-miterlimit: 10;
      }

      .cls-35, .cls-19 {
        fill: #00b300;
      }

      .cls-12 {
        fill: #4562f5;
      }

      .cls-40 {
        letter-spacing: -.057em;
      }

      .cls-36 {
        fill: #dd47d8;
        stroke: #b819b3;
      }

      .cls-13 {
        fill: #f577f1;
      }

      .cls-14 {
        fill: #fedd81;
      }

      .cls-37 {
        fill: #de5c04;
        stroke: #a14100;
      }

      .cls-15 {
        fill: #f4af18;
      }

      .cls-16 {
        fill: #f677f2;
      }

      .cls-22 {
        letter-spacing: -.025em;
      }

      .cls-17 {
        fill: #fe9b00;
      }

      .cls-23 {
        letter-spacing: -.01em;
      }

      .cls-18 {
        fill: #fe5576;
      }

      .cls-38 {
        fill: none;
        stroke: #ff7f00;
      }
    </style>
  </defs>
  <g>
    <path class="cls-35" d="m351.871,9.516H56.344C50.108,3.9,41.732.613,32.586,1.037,15.227,1.84,1.265,16.277,1.004,33.652c-.23,15.293,9.898,28.249,23.818,32.328l11.377,10.493c.311.287.791.287,1.102,0l11.354-10.476c.515-.475,1.19-.739,1.891-.739h301.325c15.329,0,27.871-12.542,27.871-27.871h0c0-15.329-12.542-27.871-27.871-27.871Z"/>
    <g>
      <path class="cls-2" d="m34.372,6.769c15.057.016,27.302,12.292,27.291,27.36-.011,15.09-12.341,27.257-27.589,27.225-15.037-.031-27.234-12.332-27.209-27.441.024-14.987,12.36-27.16,27.508-27.144Z"/>
      <path class="cls-19" d="m26.988,34.006c0-2.979-.003-5.959.002-8.938.001-.871-.04-1.782.9-2.272.89-.464,1.669-.113,2.434.376,4.656,2.978,9.324,5.939,13.977,8.921,2.063,1.322,2.073,2.615.042,3.913-4.656,2.976-9.325,5.932-13.976,8.916-.771.494-1.55.863-2.428.428-.92-.456-.963-1.342-.958-2.244.016-3.033.006-6.067.006-9.101Z"/>
    </g>
    <text class="cls-22" transform="translate(71.998 45.194)"><tspan x="0" y="0">시작하기 버튼을 클릭했을 때</tspan></text>
  </g>
  <g>
    <g>
      <path class="cls-36" d="m243.472,65.433H49.294s0,0,0,0l-12.543,11.548s0,0,0,0l-12.023-10.98c-.238-.218-.622-.049-.622.274v54.741c0,.047.011.092.028.135h-.003l.004.004c.02.048.048.093.087.13h.056l11.328,10.345c.663.605,1.678.603,2.338-.005l10.91-10.045c.212-.195.49-.304.779-.304l193.841-.101c15.329,0,27.871-12.542,27.871-27.871h0c0-15.329-12.542-27.871-27.871-27.871Z"/>
      <text class="cls-20" transform="translate(53.849 100.742)"><tspan x="0" y="0">대답</tspan></text>
      <g>
        <path class="cls-3" d="m168.884,72.859c17.877,0,16.755,0,34.632,0,2.815,0,4.335,2.426,4.336,6.934.003,8.742.003,17.483,0,26.225-.001,4.509-1.521,6.935-4.336,6.935-35.754,0-52.509-.025-88.264.059-2.308.005-4.351-2.765-4.335-6.91.033-8.797.033-17.595,0-26.392-.015-4.145,2.027-6.926,4.335-6.912,17.877.11,35.754.061,53.631.061Z"/>
        <text class="cls-21" transform="translate(121.298 100.742)"><tspan x="0" y="0">보이기</tspan></text>
        <path class="cls-4" d="m191.845,89.008c1.503,0,3.006-.003,4.509.001.951.003,1.744.288,2.197,1.211.47.958.064,1.702-.534,2.425-1.451,1.754-2.859,3.543-4.343,5.268-1.318,1.533-2.389,1.523-3.72-.029-1.519-1.771-2.972-3.598-4.452-5.402-.521-.635-.812-1.313-.452-2.145.374-.865,1.045-1.293,1.954-1.309,1.614-.027,3.228-.008,4.842-.008v-.013Z"/>
      </g>
      <g>
        <path class="cls-8" d="m264.421,93.348c.233,11.599-9.583,22.21-22.59,21.903-11.361-.268-21.522-9.45-21.508-22.104.014-12.581,10.427-22.278,22.629-21.994,11.969.279,21.786,10.209,21.47,22.194Z"/>
        <path class="cls-16" d="m242.689,83.185c1.421.066,3.283.498,4.796,1.905,2.464,2.29,2.614,5.317.342,7.812-.823.903-1.728,1.735-2.634,2.558-.847.769-1.497,1.641-1.723,2.78-.285,1.438-1.202,2.017-2.552,1.624-1.294-.377-1.297-1.572-1.154-2.621.299-2.203,1.86-3.593,3.427-4.952.334-.29.717-.537.999-.87,1.487-1.758,1.36-3.4-.321-4.537-1.47-.995-3.897-.403-4.808,1.208-.326.577-.531,1.221-.815,1.823-.524,1.11-1.42,1.65-2.58,1.204-1.144-.44-1.405-1.351-1.1-2.592.769-3.131,3.806-5.339,8.123-5.343Z"/>
        <path class="cls-13" d="m241.663,105.9c-1.271-.012-2.113-.925-2.059-2.258.054-1.311.741-2.044,2.063-2.095,1.32-.051,2.369,1,2.32,2.267-.048,1.226-1.02,2.098-2.324,2.086Z"/>
      </g>
    </g>
    <g>
      <path class="cls-36" d="m310.625,120.42H49.294s0,0,0,0l-12.543,11.548s0,0,0,0l-12.023-10.98c-.238-.218-.622-.049-.622.274v54.741c0,.047.011.092.028.135h-.003l.004.004c.02.048.048.093.087.13h.056l11.328,10.345c.663.605,1.678.603,2.338-.005l10.91-10.045c.212-.195.49-.304.779-.304l260.994-.101c15.329,0,27.871-12.542,27.871-27.871h0c0-15.329-12.542-27.871-27.871-27.871Z"/>
      <text class="cls-20" transform="translate(206.014 155.729)"><tspan x="0" y="0">숨기기</tspan></text>
      <text class="cls-20" transform="translate(53.849 155.729)"><tspan x="0" y="0">변수</tspan></text>
      <g>
        <path class="cls-3" d="m185.515,127.846l-70.262-.061c-2.308-.014-4.35,2.767-4.335,6.912.033,8.797.033,17.595,0,26.392-.016,4.145,2.027,6.915,4.335,6.91,35.754-.084,34.507-.059,70.262-.059,2.815,0,4.334-2.426,4.335-6.935.003-8.742.003-17.483,0-26.225-.001-4.508-1.521-6.934-4.336-6.934Z"/>
        <text class="cls-21" transform="translate(121.298 155.729)"><tspan x="0" y="0">정답</tspan></text>
        <path class="cls-4" d="m173.844,143.995c1.503,0,3.006-.003,4.509.001.951.003,1.744.288,2.197,1.211.47.958.064,1.702-.534,2.425-1.451,1.754-2.859,3.543-4.343,5.268-1.318,1.533-2.389,1.523-3.72-.029-1.519-1.771-2.972-3.598-4.452-5.402-.521-.635-.812-1.313-.452-2.145.374-.865,1.045-1.293,1.954-1.309,1.614-.027,3.228-.008,4.842-.008v-.013Z"/>
      </g>
      <g>
        <path class="cls-8" d="m331.574,148.335c.233,11.599-9.583,22.21-22.59,21.903-11.361-.268-21.522-9.45-21.508-22.104.014-12.581,10.427-22.278,22.629-21.994,11.969.279,21.786,10.209,21.47,22.194Z"/>
        <path class="cls-16" d="m309.842,138.172c1.421.066,3.283.498,4.796,1.905,2.464,2.29,2.614,5.317.342,7.812-.823.903-1.728,1.735-2.634,2.558-.847.769-1.497,1.641-1.723,2.78-.285,1.438-1.202,2.017-2.552,1.624-1.294-.377-1.297-1.572-1.154-2.621.299-2.203,1.86-3.593,3.427-4.952.334-.29.717-.537.999-.87,1.487-1.758,1.36-3.4-.321-4.537-1.47-.995-3.897-.403-4.808,1.208-.326.577-.531,1.221-.815,1.823-.524,1.11-1.42,1.65-2.58,1.204-1.144-.44-1.405-1.351-1.1-2.592.769-3.131,3.806-5.339,8.123-5.343Z"/>
        <path class="cls-13" d="m308.816,160.887c-1.271-.012-2.113-.925-2.059-2.258.054-1.311.741-2.044,2.063-2.095,1.32-.051,2.369,1,2.32,2.267-.048,1.226-1.02,2.098-2.324,2.086Z"/>
      </g>
    </g>
    <g>
      <path class="cls-36" d="m702.666,342.996H49.294s0,0,0,0l-12.543,11.548h0s-12.023-10.98-12.023-10.98c-.238-.218-.622-.049-.622.274v54.741c0,.047.011.092.028.135h-.003l.004.004c.02.048.048.093.087.13h.056l13.391,11.892,11.946-11.597c.212-.195.49-.304.779-.304l652.274-.101c15.329,0,27.871-12.542,27.871-27.871h0c0-15.329-12.542-27.871-27.871-27.871Z"/>
      <text class="cls-20" transform="translate(145.627 378.305)"><tspan x="0" y="0">를</tspan></text>
      <text class="cls-20" transform="translate(530.119 378.305)"><tspan x="0" y="0">(으)로 정하기 </tspan></text>
      <g>
        <path class="cls-3" d="m127.877,350.422l-70.262-.061c-2.308-.014-4.35,2.767-4.335,6.912.033,8.797.033,17.595,0,26.392-.016,4.145,2.027,6.915,4.335,6.91,35.754-.084,34.507-.059,70.262-.059,2.815,0,4.334-2.426,4.335-6.935.003-8.742.003-17.483,0-26.225-.001-4.508-1.521-6.934-4.336-6.934Z"/>
        <text class="cls-21" transform="translate(63.66 378.305)"><tspan x="0" y="0">정답</tspan></text>
        <path class="cls-4" d="m116.205,366.57c1.503,0,3.006-.003,4.509.001.951.003,1.744.288,2.197,1.211.47.958.064,1.702-.534,2.425-1.451,1.754-2.859,3.543-4.343,5.268-1.318,1.533-2.389,1.523-3.72-.029-1.519-1.771-2.972-3.598-4.452-5.402-.521-.635-.812-1.313-.452-2.145.374-.865,1.045-1.293,1.954-1.309,1.614-.027,3.228-.008,4.842-.008v-.013Z"/>
      </g>
      <g>
        <path class="cls-8" d="m723.615,370.911c.233,11.599-9.583,22.21-22.59,21.903-11.361-.268-21.522-9.45-21.508-22.104.014-12.581,10.427-22.278,22.629-21.994,11.969.279,21.786,10.209,21.47,22.194Z"/>
        <path class="cls-16" d="m701.883,360.748c1.421.066,3.283.498,4.796,1.905,2.464,2.29,2.614,5.317.342,7.812-.823.903-1.728,1.735-2.634,2.558-.847.769-1.497,1.641-1.723,2.78-.285,1.438-1.202,2.017-2.552,1.624-1.294-.377-1.297-1.572-1.154-2.621.299-2.203,1.86-3.593,3.427-4.952.334-.29.717-.537.999-.87,1.487-1.758,1.36-3.4-.321-4.537-1.47-.995-3.897-.403-4.808,1.208-.326.577-.531,1.221-.815,1.823-.524,1.11-1.42,1.65-2.58,1.204-1.144-.44-1.405-1.351-1.1-2.592.769-3.131,3.806-5.339,8.123-5.343Z"/>
        <path class="cls-13" d="m700.857,383.462c-1.271-.012-2.113-.925-2.059-2.258.054-1.311.741-2.044,2.063-2.095,1.32-.051,2.369,1,2.32,2.267-.048,1.226-1.02,2.098-2.324,2.086Z"/>
      </g>
    </g>
    <g>
      <path class="cls-36" d="m310.625,176.36H49.294s0,0,0,0l-12.543,11.548s0,0,0,0l-12.023-10.98c-.238-.218-.622-.049-.622.274v54.741c0,.047.011.092.028.135h-.003l.004.004c.02.048.048.093.087.13h.056l11.328,10.345c.663.605,1.678.603,2.338-.005l10.91-10.045c.212-.195.49-.304.779-.304l260.994-.101c15.329,0,27.871-12.542,27.871-27.871h0c0-15.329-12.542-27.871-27.871-27.871Z"/>
      <text class="cls-20" transform="translate(206.014 211.669)"><tspan x="0" y="0">숨기기</tspan></text>
      <text class="cls-20" transform="translate(53.849 211.669)"><tspan x="0" y="0">변수</tspan></text>
      <g>
        <path class="cls-3" d="m185.515,183.786l-70.262-.061c-2.308-.014-4.35,2.767-4.335,6.912.033,8.797.033,17.595,0,26.392-.016,4.145,2.027,6.915,4.335,6.91,35.754-.084,34.507-.059,70.262-.059,2.815,0,4.334-2.426,4.335-6.935.003-8.742.003-17.483,0-26.225-.001-4.508-1.521-6.934-4.336-6.934Z"/>
        <text class="cls-21" transform="translate(121.298 211.669)"><tspan x="0" y="0">성공</tspan></text>
        <path class="cls-4" d="m173.844,199.934c1.503,0,3.006-.003,4.509.001.951.003,1.744.288,2.197,1.211.47.958.064,1.702-.534,2.425-1.451,1.754-2.859,3.543-4.343,5.268-1.318,1.533-2.389,1.523-3.72-.029-1.519-1.771-2.972-3.598-4.452-5.402-.521-.635-.812-1.313-.452-2.145.374-.865,1.045-1.293,1.954-1.309,1.614-.027,3.228-.008,4.842-.008v-.013Z"/>
      </g>
      <g>
        <path class="cls-8" d="m331.574,204.275c.233,11.599-9.583,22.21-22.59,21.903-11.361-.268-21.522-9.45-21.508-22.104.014-12.581,10.427-22.278,22.629-21.994,11.969.279,21.786,10.209,21.47,22.194Z"/>
        <path class="cls-16" d="m309.842,194.112c1.421.066,3.283.498,4.796,1.905,2.464,2.29,2.614,5.317.342,7.812-.823.903-1.728,1.735-2.634,2.558-.847.769-1.497,1.641-1.723,2.78-.285,1.438-1.202,2.017-2.552,1.624-1.294-.377-1.297-1.572-1.154-2.621.299-2.203,1.86-3.593,3.427-4.952.334-.29.717-.537.999-.87,1.487-1.758,1.36-3.4-.321-4.537-1.47-.995-3.897-.403-4.808,1.208-.326.577-.531,1.221-.815,1.823-.524,1.11-1.42,1.65-2.58,1.204-1.144-.44-1.405-1.351-1.1-2.592.769-3.131,3.806-5.339,8.123-5.343Z"/>
        <path class="cls-13" d="m308.816,216.826c-1.271-.012-2.113-.925-2.059-2.258.054-1.311.741-2.044,2.063-2.095,1.32-.051,2.369,1,2.32,2.267-.048,1.226-1.02,2.098-2.324,2.086Z"/>
      </g>
    </g>
  </g>
  <g>
    <g>
      <g>
        <path class="cls-15" d="m36.667,465.594c-.25,0-.501-.094-.694-.28l-11.53-11.113c-.262-.243-.421-.605-.421-.979v-53.623c0-.393.23-.75.588-.911.132-.06.272-.089.411-.089.239,0,.475.085.661.25l11.981,10.557,11.882-10.554c.183-.163.419-.252.664-.252h231.12c15.919,0,28.871,12.511,28.871,27.888s-12.951,27.888-28.871,27.888H49.592l-12.259,10.964c-.19.17-.428.255-.667.255Z"/>
        <path class="cls-9" d="m25.022,399.598l12.645,11.141,12.543-11.141h231.121c15.329,0,27.871,12.1,27.871,26.888h0c0,14.789-12.542,26.888-27.871,26.888H49.211l-12.543,11.219-11.53-11.113c-.074-.068-.115-.161-.115-.259v-53.623m0-2c-.278,0-.559.058-.823.177-.716.324-1.177,1.037-1.177,1.823v53.623c0,.657.278,1.288.764,1.733l11.493,11.079c.387.373.887.56,1.388.56.477,0,.953-.169,1.333-.509l11.974-10.71h231.356c16.471,0,29.871-12.959,29.871-28.888s-13.4-28.888-29.871-28.888H50.211c-.49,0-.962.18-1.328.505l-11.221,9.966-11.317-9.971c-.373-.328-.845-.499-1.323-.499h0Z"/>
      </g>
      <path class="cls-9" d="m256.917,426.121c.085-12.114,9.79-22.01,22.342-21.937,12.159.071,22.178,9.883,21.961,22.471-.203,11.764-9.754,21.773-22.498,21.598-12.042-.166-21.794-9.762-21.805-22.132Z"/>
    </g>
    <g>
      <path class="cls-9" d="m234.947,406.184l-99.095-.061c-3.657-.014-6.893,2.767-6.868,6.912.052,8.797.052,17.595,0,26.392-.024,4.145,3.212,6.915,6.869,6.91,56.653-.084,42.442-.059,99.095-.059,4.46,0,6.868-2.426,6.87-6.935.004-8.742.004-17.483,0-26.225-.002-4.508-2.41-6.934-6.871-6.934Z"/>
      <path class="cls-4" d="m226.896,420.974c1.503,0,3.006-.003,4.509.001.951.003,1.744.288,2.197,1.211.47.958.064,1.702-.534,2.425-1.451,1.754-2.859,3.543-4.343,5.268-1.318,1.533-2.389,1.523-3.72-.029-1.519-1.771-2.972-3.598-4.452-5.402-.521-.635-.812-1.313-.452-2.145.374-.865,1.045-1.293,1.954-1.309,1.614-.027,3.228-.008,4.842-.008v-.013Z"/>
      <text class="cls-21" transform="translate(139.363 434.066)"><tspan x="0" y="0">시작하기</tspan></text>
    </g>
    <text class="cls-22" transform="translate(50.261 434.419)"><tspan x="0" y="0">초시계</tspan></text>
    <g>
      <rect class="cls-6" x="266.702" y="414.007" width="24.424" height="24.424" rx="3.581" ry="3.581"/>
      <g>
        <g>
          <line class="cls-38" x1="274.42" y1="419.438" x2="274.42" y2="424.781"/>
          <line class="cls-38" x1="271.783" y1="422.109" x2="277.057" y2="422.109"/>
        </g>
        <line class="cls-38" x1="282.457" y1="422.109" x2="286.045" y2="422.109"/>
        <g>
          <line class="cls-38" x1="282.457" y1="429.12" x2="286.045" y2="429.12"/>
          <line class="cls-38" x1="282.457" y1="432.293" x2="286.045" y2="432.293"/>
        </g>
        <g>
          <line class="cls-38" x1="276.284" y1="428.654" x2="272.506" y2="432.432"/>
          <line class="cls-38" x1="272.53" y1="428.678" x2="276.259" y2="432.408"/>
        </g>
      </g>
    </g>
  </g>
  <g>
    <path class="cls-33" d="m941.083,231.868H49.477c-.658,0-1.288.262-1.753.727l-10.791,10.821-12.024-10.981c-.238-.218-.622-.049-.622.274v54.741c0,.101.042.199.115.269l12.53,11.955,13.032-12.065h891.117c15.329,0,27.871-12.542,27.871-27.871h0c0-15.329-12.542-27.871-27.871-27.871Z"/>
    <g>
      <path class="cls-14" d="m677.318,279.402c-11.053,0-20.046-8.993-20.046-20.046s8.992-20.045,20.046-20.045,20.046,8.992,20.046,20.045-8.992,20.046-20.046,20.046Z"/>
      <path class="cls-17" d="m677.318,240.311c10.475,0,19.046,8.57,19.046,19.046s-8.571,19.046-19.046,19.046-19.046-8.57-19.046-19.046,8.571-19.046,19.046-19.046m0-2c-11.604,0-21.046,9.441-21.046,21.046s9.441,21.046,21.046,21.046,21.046-9.441,21.046-21.046-9.441-21.046-21.046-21.046h0Z"/>
    </g>
    <path class="cls-5" d="m853.067,279.407c-14.548,0-29.095.001-43.643,0-3.175,0-4.593-1.41-4.594-4.569-.003-10.355-.003-20.71,0-31.065.001-3.029,1.457-4.455,4.54-4.455,29.207-.002,58.415-.002,87.622,0,3.418,0,4.878,1.469,4.879,4.903.002,10.132.003,20.264,0,30.397-.001,3.292-1.509,4.788-4.824,4.789-14.66.003-29.319.001-43.979.001Z"/>
    <path class="cls-5" d="m915.975,259.261c.085-12.114,9.79-22.01,22.342-21.937,12.159.071,22.178,9.883,21.961,22.471-.203,11.764-9.754,21.773-22.498,21.598-12.042-.166-21.794-9.762-21.805-22.132Z"/>
    <path class="cls-2" d="m891.655,255.428c-.401-.888-1.172-1.308-2.152-1.313l-9.375.029c-.865.022-1.679.285-2.04,1.183-.34.847-.146,1.625.436,2.325,1.492,1.794,2.952,3.616,4.471,5.386,1.243,1.448,2.36,1.471,3.606.035,1.565-1.803,3.033-3.69,4.578-5.51.556-.655.83-1.35.476-2.135Z"/>
    <path class="cls-18" d="m938.875,260.699c2.854.024,5.612,2.731,5.624,5.52.014,3.13-2.722,5.849-5.866,5.829-3.016-.018-5.566-2.746-5.533-5.919.031-3.007,2.636-5.457,5.775-5.43Z"/>
    <rect class="cls-18" x="941.262" y="251.083" width="9.448" height="9.448" transform="translate(457.956 -593.989) rotate(45)"/>
    <path class="cls-1" d="m840.504,257.692c1.256-.022,2.223.921,2.182,2.215-.04,1.272-.632,2.104-2.021,2.157-1.365.052-2.237-.744-2.28-2.075-.042-1.281.876-2.275,2.12-2.297Z"/>
    <polygon class="cls-18" points="937.106 258.762 937.106 252.33 931.535 249.113 925.964 252.33 925.964 258.762 931.535 261.979 937.106 258.762"/>
    <g>
      <path class="cls-14" d="m72.942,279.402c-11.053,0-20.045-8.993-20.045-20.046s8.992-20.045,20.045-20.045h471.969c11.053,0,20.045,8.992,20.045,20.045s-8.992,20.046-20.045,20.046H72.942Z"/>
      <path class="cls-17" d="m544.91,240.311c10.475,0,19.045,8.571,19.045,19.046s-8.57,19.046-19.045,19.046H72.942c-10.475,0-19.046-8.571-19.046-19.046s8.571-19.046,19.046-19.046h471.968m0-2H72.942c-11.605,0-21.046,9.441-21.046,21.046s9.441,21.046,21.046,21.046h471.968c11.604,0,21.045-9.441,21.045-21.046s-9.441-21.046-21.045-21.046h0Z"/>
    </g>
    <text class="cls-31" transform="translate(68.581 266.489)"><tspan class="cls-25" x="0" y="0">K선생님이 생각하고 있는 1~50 사이의 숫자를 맞혀보세요</tspan><tspan class="cls-32" x="479.699" y="0">.</tspan></text>
    <text class="cls-27" transform="translate(671.117 266.478)"><tspan x="0" y="0">2</tspan></text>
    <text class="cls-22" transform="translate(578.276 266.976)"><tspan x="0" y="0">을(를)</tspan></text>
    <text class="cls-22" transform="translate(714.494 268.55)"><tspan x="0" y="0">초 동안</tspan></text>
    <text class="cls-24" transform="translate(815.894 266.32)"><tspan x="0" y="0">말하기</tspan></text>
  </g>
  <g>
    <path class="cls-33" d="m575.663,287.319H49.477c-.658,0-1.288.262-1.753.727l-10.791,10.821-12.024-10.981c-.238-.218-.622-.049-.622.274v54.741c0,.101.042.199.115.269l12.53,11.955,13.032-12.065h525.697c15.329,0,27.871-12.542,27.871-27.871h0c0-15.329-12.542-27.871-27.871-27.871Z"/>
    <g>
      <circle class="cls-14" cx="311.899" cy="314.808" r="20.045" transform="translate(-96.73 143.322) rotate(-22.5)"/>
      <path class="cls-17" d="m311.899,295.762c10.475,0,19.045,8.57,19.045,19.046s-8.57,19.046-19.045,19.046-19.046-8.57-19.046-19.046,8.571-19.046,19.046-19.046m0-2c-11.605,0-21.046,9.441-21.046,21.046s9.441,21.046,21.046,21.046,21.045-9.441,21.045-21.046-9.441-21.046-21.045-21.046h0Z"/>
    </g>
    <path class="cls-5" d="m487.648,334.859c-14.548,0-29.095.001-43.643,0-3.175,0-4.593-1.41-4.594-4.569-.003-10.355-.003-20.71,0-31.065.001-3.029,1.457-4.455,4.54-4.455,29.207-.002,58.415-.002,87.622,0,3.418,0,4.878,1.469,4.879,4.903.002,10.132.003,20.264,0,30.397-.001,3.292-1.509,4.788-4.824,4.789-14.66.003-29.319.001-43.979.001Z"/>
    <path class="cls-5" d="m550.556,314.713c.085-12.114,9.79-22.01,22.342-21.937,12.159.071,22.178,9.883,21.961,22.471-.203,11.764-9.754,21.773-22.498,21.598-12.042-.166-21.794-9.762-21.805-22.132Z"/>
    <path class="cls-2" d="m526.236,310.88c-.401-.888-1.172-1.308-2.152-1.313l-9.375.029c-.865.022-1.679.285-2.04,1.183-.34.847-.146,1.625.436,2.325,1.492,1.794,2.952,3.616,4.471,5.386,1.243,1.448,2.36,1.471,3.606.035,1.565-1.803,3.033-3.69,4.578-5.51.556-.655.83-1.35.476-2.135Z"/>
    <path class="cls-18" d="m573.456,316.151c2.854.024,5.612,2.731,5.624,5.52.014,3.13-2.722,5.849-5.866,5.829-3.016-.018-5.566-2.746-5.533-5.919.031-3.007,2.636-5.457,5.775-5.43Z"/>
    <rect class="cls-18" x="575.843" y="306.535" width="9.448" height="9.448" transform="translate(390.137 -319.357) rotate(45)"/>
    <path class="cls-1" d="m475.084,313.144c1.256-.022,2.223.921,2.182,2.215-.04,1.272-.632,2.104-2.021,2.157-1.365.052-2.237-.744-2.28-2.075-.042-1.281.876-2.275,2.12-2.297Z"/>
    <polygon class="cls-18" points="571.686 314.214 571.686 307.781 566.115 304.565 560.545 307.781 560.545 314.214 566.115 317.43 571.686 314.214"/>
    <g>
      <path class="cls-14" d="m72.942,334.853c-11.053,0-20.045-8.992-20.045-20.045s8.992-20.045,20.045-20.045h106.549c11.053,0,20.046,8.992,20.046,20.045s-8.992,20.045-20.046,20.045h-106.549Z"/>
      <path class="cls-17" d="m179.491,295.762c10.475,0,19.045,8.57,19.045,19.046s-8.57,19.046-19.045,19.046h-106.549c-10.475,0-19.046-8.57-19.046-19.046s8.571-19.046,19.046-19.046h106.549m0-2h-106.549c-11.605,0-21.046,9.441-21.046,21.046s9.441,21.046,21.046,21.046h106.549c11.604,0,21.045-9.441,21.045-21.046s-9.441-21.046-21.045-21.046h0Z"/>
    </g>
    <text class="cls-27" transform="translate(68.581 321.94)"><tspan x="0" y="0">시작합니다~!</tspan></text>
    <text class="cls-27" transform="translate(305.697 321.929)"><tspan x="0" y="0">2</tspan></text>
    <text class="cls-22" transform="translate(212.856 322.428)"><tspan x="0" y="0">을(를)</tspan></text>
    <text class="cls-22" transform="translate(349.075 324.002)"><tspan x="0" y="0">초 동안</tspan></text>
    <text class="cls-24" transform="translate(450.475 321.772)"><tspan x="0" y="0">말하기</tspan></text>
  </g>
  <g>
    <g>
      <path class="cls-14" d="m100.498,556.435c-10.975,0-19.903-8.929-19.903-19.903s8.929-19.903,19.903-19.903h10.968c10.975,0,19.903,8.929,19.903,19.903s-8.928,19.903-19.903,19.903h-10.968Z"/>
      <path class="cls-17" d="m111.466,517.628c10.423,0,18.903,8.48,18.903,18.903s-8.48,18.903-18.903,18.903h-10.968c-10.423,0-18.903-8.48-18.903-18.903s8.48-18.903,18.903-18.903h10.968m0-2h-10.968c-11.497,0-20.903,9.406-20.903,20.903s9.406,20.903,20.903,20.903h10.968c11.497,0,20.903-9.406,20.903-20.903s-9.406-20.903-20.903-20.903h0Z"/>
    </g>
    <text class="cls-27" transform="translate(94.114 543.594)"><tspan x="0" y="0">10</tspan></text>
  </g>
  <g>
    <path class="cls-34" d="m507.686,843.358H100.919s-10.444,10.749-10.444,10.749l-12.707-10.749v-276.667c0-.403.479-.613.775-.34l11.666,10.747,12.387-11.471,393.416-.091c16.51,0,29.787-14.549,27.643-31.459-1.775-13.998-14.07-24.283-28.18-24.283H75.879s-12.543,11.548-12.543,11.548l-12.023-10.98c-.238-.218-.622-.049-.622.274v54.741c0,.047.011.092.028.135h-.004l.091.134.056,309.278,12.379,11.613,12.516-11.613h432.344c9.308,0,16.733-8.057,15.683-17.578-.888-8.053-7.996-13.988-16.098-13.988Z"/>
    <g>
      <path class="cls-11" d="m513.761,537.709c.233,11.599-9.583,22.21-22.59,21.903-11.361-.268-21.522-9.45-21.508-22.104.014-12.581,10.427-22.278,22.629-21.994,11.969.279,21.786,10.209,21.47,22.194Z"/>
      <path class="cls-10" d="m499.844,539.241c-.095,0-.185.021-.279.028l-4.684-7.075c.647-.892.943-2.055.623-3.302-.356-1.388-1.5-2.503-2.899-2.812-2.553-.562-4.81,1.366-4.81,3.821,0,.859.284,1.646.753,2.292l-4.684,7.075c-.094-.007-.183-.028-.279-.028-2.466,0-4.4,2.277-3.814,4.843.323,1.416,1.474,2.567,2.89,2.89,2.566.586,4.843-1.348,4.843-3.814,0-1.153-.507-2.18-1.3-2.897l4.386-6.625c.358.108.731.183,1.124.183s.766-.076,1.124-.183l4.386,6.625c-1.013.917-1.56,2.338-1.178,3.884.344,1.389,1.482,2.51,2.878,2.828,2.564.583,4.839-1.35,4.839-3.815,0-2.165-1.755-3.919-3.919-3.919Z"/>
    </g>
    <text class="cls-20" transform="translate(79.595 545.465)"><tspan x="0" y="0">만일</tspan></text>
    <text class="cls-20" transform="translate(367.521 545.465)"><tspan x="0" y="0">(이)라면</tspan></text>
  </g>
  <g>
    <path class="cls-34" d="m241.126,874.902H74.084s-11.613,11.226-11.613,11.226l-11.538-11.226v-364.696l12.441,11.461,12.387-11.471,153.723-.091c16.083,0,29.097-13.805,27.779-30.15-1.175-14.565-13.733-25.592-28.345-25.592H49.044s-12.543,11.548-12.543,11.548l-12.645-12.374v56.409c0,.047.011.092.028.135h-.004l.091.134.056,396.253,12.379,11.613,12.516-11.613h192.65c8.969,0,16.191-7.482,15.764-16.546-.4-8.489-7.712-15.02-16.21-15.02Z"/>
    <g>
      <path class="cls-11" d="m247.232,482.278c.233,11.599-9.583,22.21-22.59,21.903-11.361-.268-21.522-9.45-21.508-22.104.014-12.581,10.427-22.278,22.629-21.994,11.969.279,21.786,10.209,21.47,22.194Z"/>
      <path class="cls-10" d="m233.316,483.81c-.095,0-.185.021-.279.028l-4.684-7.075c.647-.892.942-2.055.623-3.302-.356-1.388-1.5-2.504-2.899-2.812-2.553-.562-4.81,1.366-4.81,3.821,0,.859.284,1.646.753,2.292l-4.684,7.075c-.094-.007-.183-.028-.279-.028-2.466,0-4.4,2.277-3.814,4.843.323,1.416,1.474,2.567,2.89,2.89,2.566.586,4.843-1.348,4.843-3.814,0-1.153-.507-2.18-1.3-2.897l4.386-6.625c.358.108.731.183,1.124.183s.766-.076,1.124-.183l4.386,6.625c-1.013.917-1.56,2.338-1.178,3.884.344,1.389,1.482,2.51,2.877,2.828,2.564.583,4.839-1.35,4.839-3.815,0-2.165-1.755-3.919-3.919-3.919Z"/>
    </g>
    <text class="cls-20" transform="translate(52.76 490.034)"><tspan x="0" y="0">계속 반복하기</tspan></text>
  </g>
  <g>
    <g>
      <polygon class="cls-12" points="138.166 537.764 153.693 517.86 337.926 517.461 353.451 537.363 337.924 557.267 153.691 557.667 138.166 537.764"/>
      <path class="cls-7" d="m337.439,518.462l14.745,18.901-14.748,18.905-183.257.397-14.745-18.901,14.748-18.905,183.257-.397m.975-2.002l-185.209.401-16.307,20.903,16.307,20.903,185.209-.401,16.307-20.903-16.307-20.903h0Z"/>
    </g>
    <g>
      <g>
        <path class="cls-14" d="m316.365,557.668c-10.975,0-19.903-8.929-19.903-19.903s8.928-19.903,19.903-19.903h1.145c10.975,0,19.903,8.929,19.903,19.903s-8.929,19.903-19.903,19.903h-1.145Z"/>
        <path class="cls-17" d="m317.51,518.861c10.423,0,18.903,8.48,18.903,18.903s-8.48,18.903-18.903,18.903h-1.146c-10.423,0-18.903-8.48-18.903-18.903s8.48-18.903,18.903-18.903h1.146m0-2h-1.146c-11.497,0-20.903,9.406-20.903,20.903h0c0,11.497,9.407,20.903,20.903,20.903h1.146c11.497,0,20.903-9.406,20.903-20.903h0c0-11.497-9.406-20.903-20.903-20.903h0Z"/>
      </g>
      <text class="cls-27" transform="translate(311.209 544.827)"><tspan x="0" y="0">1</tspan></text>
    </g>
    <rect class="cls-7" x="249.573" y="517.958" width="30.968" height="39.613" rx="3.355" ry="3.355"/>
    <text class="cls-26" transform="translate(255.019 544.828)"><tspan x="0" y="0">＝</tspan></text>
  </g>
  <g>
    <rect class="cls-37" x="156.423" y="518.518" width="79.612" height="38.091" rx="19.046" ry="19.046"/>
    <text class="cls-26" transform="translate(169.108 544.696)"><tspan x="0" y="0">업다운</tspan></text>
  </g>
  <g>
    <g>
      <g>
        <g>
          <path class="cls-15" d="m91.538,632.518c-.237,0-.474-.084-.664-.252l-12.53-11.113c-.291-.267-.451-.63-.451-1.007v-53.623c0-.393.23-.75.588-.911.132-.06.272-.089.411-.089.239,0,.475.085.661.25l11.981,10.557,11.882-10.554c.183-.163.419-.252.664-.252h231.12c15.92,0,28.871,12.51,28.871,27.888s-12.951,27.888-28.871,27.888H104.463l-12.259,10.965c-.19.169-.428.254-.667.254Z"/>
          <path class="cls-9" d="m78.893,566.523l12.645,11.141,12.543-11.141h231.121c15.329,0,27.871,12.1,27.871,26.888h0c0,14.789-12.542,26.888-27.871,26.888H104.082l-12.543,11.219-12.53-11.113c-.073-.068-.115-.161-.115-.259v-53.623m0-2c-.278,0-.559.058-.823.177-.716.324-1.177,1.037-1.177,1.823v53.623c0,.654.276,1.284.759,1.729l12.559,11.14c.379.336.853.504,1.327.504.477,0,.954-.17,1.333-.509l11.974-10.71h230.357c16.471,0,29.871-12.959,29.871-28.888s-13.4-28.888-29.871-28.888H104.082c-.49,0-.962.18-1.328.505l-11.221,9.966-11.317-9.972c-.373-.328-.845-.499-1.323-.499h0Z"/>
        </g>
        <path class="cls-9" d="m310.788,593.045c.085-12.114,9.79-22.01,22.342-21.937,12.159.071,22.178,9.883,21.961,22.471-.203,11.764-9.754,21.773-22.498,21.598-12.042-.166-21.794-9.762-21.805-22.132Z"/>
      </g>
      <g>
        <path class="cls-9" d="m288.818,573.108l-99.095-.061c-3.657-.014-6.893,2.767-6.868,6.912.052,8.797.052,17.595,0,26.392-.024,4.145,3.212,6.915,6.869,6.91,56.653-.084,42.442-.059,99.095-.059,4.46,0,6.868-2.426,6.87-6.935.004-8.742.004-17.483,0-26.225-.002-4.508-2.41-6.934-6.871-6.934Z"/>
        <path class="cls-4" d="m280.767,587.899c1.503,0,3.006-.003,4.509.001.951.003,1.744.288,2.197,1.211.47.958.064,1.702-.534,2.425-1.451,1.754-2.859,3.543-4.343,5.268-1.318,1.533-2.389,1.523-3.72-.029-1.519-1.771-2.972-3.598-4.452-5.402-.521-.635-.812-1.313-.452-2.145.374-.865,1.045-1.293,1.954-1.309,1.614-.027,3.228-.008,4.842-.008v-.013Z"/>
        <text class="cls-21" transform="translate(193.234 600.99)"><tspan x="0" y="0">정지하기</tspan></text>
      </g>
      <text class="cls-22" transform="translate(104.132 601.344)"><tspan x="0" y="0">초시계</tspan></text>
      <g>
        <rect class="cls-6" x="320.573" y="580.932" width="24.424" height="24.424" rx="3.581" ry="3.581"/>
        <g>
          <g>
            <line class="cls-38" x1="328.291" y1="586.363" x2="328.291" y2="591.705"/>
            <line class="cls-38" x1="325.654" y1="589.034" x2="330.928" y2="589.034"/>
          </g>
          <line class="cls-38" x1="336.328" y1="589.034" x2="339.916" y2="589.034"/>
          <g>
            <line class="cls-38" x1="336.328" y1="596.045" x2="339.916" y2="596.045"/>
            <line class="cls-38" x1="336.328" y1="599.218" x2="339.916" y2="599.218"/>
          </g>
          <g>
            <line class="cls-38" x1="330.155" y1="595.578" x2="326.377" y2="599.356"/>
            <line class="cls-38" x1="326.401" y1="595.603" x2="330.13" y2="599.332"/>
          </g>
        </g>
      </g>
    </g>
    <g>
      <path class="cls-33" d="m730.357,619.98H102.856c-.658,0-1.288.262-1.753.727l-10.791,10.821-12.024-10.981c-.238-.218-.622-.049-.622.274v54.741c0,.101.042.199.115.269l12.53,11.955,13.032-12.065h627.013c15.329,0,27.871-12.542,27.871-27.871h0c0-15.329-12.542-27.871-27.871-27.871Z"/>
      <g>
        <path class="cls-14" d="m466.593,667.514c-11.053,0-20.046-8.993-20.046-20.046s8.992-20.045,20.046-20.045,20.046,8.992,20.046,20.045-8.992,20.046-20.046,20.046Z"/>
        <path class="cls-17" d="m466.593,628.423c10.475,0,19.046,8.571,19.046,19.046h0c0,10.475-8.571,19.046-19.046,19.046s-19.046-8.571-19.046-19.046h0c0-10.475,8.571-19.046,19.046-19.046m0-2c-11.604,0-21.046,9.441-21.046,21.046s9.441,21.046,21.046,21.046,21.046-9.441,21.046-21.046-9.441-21.046-21.046-21.046h0Z"/>
      </g>
      <path class="cls-5" d="m642.342,667.519c-14.548,0-29.095.001-43.643,0-3.175,0-4.593-1.41-4.594-4.569-.003-10.355-.003-20.71,0-31.065.001-3.029,1.457-4.455,4.54-4.455,29.207-.002,58.415-.002,87.622,0,3.418,0,4.878,1.469,4.879,4.903.002,10.132.003,20.264,0,30.397-.001,3.292-1.509,4.788-4.824,4.789-14.66.003-29.319.001-43.979.001Z"/>
      <path class="cls-5" d="m705.249,647.373c.085-12.114,9.79-22.01,22.342-21.937,12.159.071,22.178,9.883,21.961,22.471-.203,11.764-9.754,21.773-22.498,21.598-12.042-.166-21.794-9.762-21.805-22.132Z"/>
      <path class="cls-2" d="m680.93,643.54c-.401-.888-1.172-1.308-2.152-1.313l-9.375.029c-.865.022-1.679.285-2.04,1.183-.34.847-.146,1.625.436,2.325,1.492,1.794,2.952,3.616,4.471,5.386,1.243,1.448,2.36,1.471,3.606.035,1.565-1.803,3.033-3.69,4.578-5.51.556-.655.83-1.35.476-2.135Z"/>
      <path class="cls-18" d="m728.149,648.811c2.854.024,5.612,2.731,5.624,5.52.014,3.13-2.722,5.849-5.866,5.829-3.016-.018-5.566-2.746-5.533-5.919.031-3.007,2.636-5.457,5.775-5.43Z"/>
      <rect class="cls-18" x="730.537" y="639.195" width="9.448" height="9.448" transform="translate(670.673 -331.308) rotate(45)"/>
      <path class="cls-1" d="m629.778,645.804c1.256-.022,2.223.921,2.182,2.215-.04,1.272-.632,2.104-2.021,2.157-1.365.052-2.237-.744-2.28-2.075-.042-1.281.876-2.275,2.12-2.297Z"/>
      <polygon class="cls-18" points="726.38 646.874 726.38 640.442 720.809 637.225 715.238 640.442 715.238 646.874 720.809 650.09 726.38 646.874"/>
      <g>
        <path class="cls-14" d="m126.32,667.514c-11.053,0-20.046-8.993-20.046-20.046s8.992-20.045,20.046-20.045h207.864c11.053,0,20.046,8.992,20.046,20.045s-8.992,20.046-20.046,20.046H126.32Z"/>
        <path class="cls-17" d="m334.185,628.423c10.475,0,19.046,8.571,19.046,19.046h0c0,10.475-8.571,19.046-19.046,19.046H126.32c-10.475,0-19.045-8.57-19.045-19.046h0c0-10.475,8.57-19.046,19.045-19.046h207.864m0-2H126.32c-11.604,0-21.045,9.441-21.045,21.046s9.441,21.046,21.045,21.046h207.864c11.605,0,21.046-9.441,21.046-21.046s-9.441-21.046-21.046-21.046h0Z"/>
      </g>
      <text class="cls-27" transform="translate(121.96 654.601)"><tspan x="0" y="0">축하합니다! 당신의 기록은</tspan></text>
      <text class="cls-27" transform="translate(460.391 654.59)"><tspan x="0" y="0">2</tspan></text>
      <text class="cls-22" transform="translate(367.55 655.088)"><tspan x="0" y="0">을(를)</tspan></text>
      <text class="cls-22" transform="translate(503.769 656.662)"><tspan x="0" y="0">초 동안</tspan></text>
      <text class="cls-24" transform="translate(605.169 654.432)"><tspan x="0" y="0">말하기</tspan></text>
    </g>
    <g>
      <path class="cls-33" d="m687.92,731.794H102.856c-.658,0-1.288.262-1.753.727l-10.791,10.821-12.024-10.981c-.238-.218-.622-.049-.622.274v54.741c0,.101.042.199.115.269l12.53,11.955,13.032-12.065h584.576c15.329,0,27.871-12.542,27.871-27.871h0c0-15.329-12.542-27.871-27.871-27.871Z"/>
      <g>
        <path class="cls-14" d="m424.156,779.328c-11.053,0-20.046-8.993-20.046-20.046s8.992-20.045,20.046-20.045,20.046,8.992,20.046,20.045-8.992,20.046-20.046,20.046Z"/>
        <path class="cls-17" d="m424.156,740.237c10.475,0,19.046,8.571,19.046,19.046h0c0,10.475-8.571,19.046-19.046,19.046s-19.046-8.571-19.046-19.046h0c0-10.475,8.571-19.046,19.046-19.046m0-2c-11.604,0-21.046,9.441-21.046,21.046s9.441,21.046,21.046,21.046,21.046-9.441,21.046-21.046-9.441-21.046-21.046-21.046h0Z"/>
      </g>
      <path class="cls-5" d="m599.905,779.333c-14.548,0-29.095.001-43.643,0-3.175,0-4.593-1.41-4.594-4.569-.003-10.355-.003-20.71,0-31.065.001-3.029,1.457-4.455,4.54-4.455,29.207-.002,58.415-.002,87.622,0,3.418,0,4.878,1.469,4.879,4.903.002,10.132.003,20.264,0,30.397-.001,3.292-1.509,4.788-4.824,4.789-14.66.003-29.319.001-43.979.001Z"/>
      <path class="cls-5" d="m662.812,759.187c.085-12.114,9.79-22.01,22.342-21.937,12.159.071,22.178,9.883,21.961,22.471-.203,11.764-9.754,21.773-22.498,21.598-12.042-.166-21.794-9.762-21.805-22.132Z"/>
      <path class="cls-2" d="m638.493,755.354c-.401-.888-1.172-1.308-2.152-1.313l-9.375.029c-.865.022-1.679.285-2.04,1.183-.34.847-.146,1.625.436,2.325,1.492,1.794,2.952,3.616,4.471,5.386,1.243,1.448,2.36,1.471,3.606.035,1.565-1.803,3.033-3.69,4.578-5.51.556-.655.83-1.35.476-2.135Z"/>
      <path class="cls-18" d="m685.713,760.625c2.854.024,5.612,2.731,5.624,5.52.014,3.13-2.722,5.849-5.866,5.829-3.016-.018-5.566-2.746-5.533-5.919.031-3.007,2.636-5.457,5.775-5.43Z"/>
      <rect class="cls-18" x="688.1" y="751.009" width="9.448" height="9.448" transform="translate(737.308 -268.551) rotate(45)"/>
      <path class="cls-1" d="m587.341,757.618c1.256-.022,2.223.921,2.182,2.215-.04,1.272-.632,2.104-2.021,2.157-1.365.052-2.237-.744-2.28-2.075-.042-1.281.876-2.275,2.12-2.297Z"/>
      <polygon class="cls-18" points="683.943 758.688 683.943 752.256 678.372 749.039 672.802 752.256 672.802 758.688 678.372 761.905 683.943 758.688"/>
      <g>
        <path class="cls-14" d="m126.32,779.328c-11.053,0-20.046-8.993-20.046-20.046s8.992-20.045,20.046-20.045h165.427c11.053,0,20.045,8.992,20.045,20.045s-8.992,20.046-20.045,20.046H126.32Z"/>
        <path class="cls-17" d="m291.748,740.237c10.475,0,19.046,8.571,19.046,19.046h0c0,10.475-8.571,19.046-19.046,19.046H126.32c-10.475,0-19.045-8.571-19.045-19.046h0c0-10.475,8.57-19.046,19.045-19.046h165.427m0-2H126.32c-11.604,0-21.045,9.441-21.045,21.046s9.441,21.046,21.045,21.046h165.427c11.605,0,21.046-9.441,21.046-21.046s-9.441-21.046-21.046-21.046h0Z"/>
      </g>
      <text class="cls-31" transform="translate(121.96 766.415)"><tspan class="cls-25" x="0" y="0">프로그램 종료합니다</tspan><tspan class="cls-32" x="170.693" y="0">.</tspan></text>
      <text class="cls-27" transform="translate(417.954 766.404)"><tspan x="0" y="0">2</tspan></text>
      <text class="cls-22" transform="translate(325.114 766.902)"><tspan x="0" y="0">을(를)</tspan></text>
      <text class="cls-22" transform="translate(461.332 768.476)"><tspan x="0" y="0">초 동안</tspan></text>
      <text class="cls-24" transform="translate(562.732 766.246)"><tspan x="0" y="0">말하기</tspan></text>
    </g>
    <g>
      <path class="cls-33" d="m901.242,675.674H102.856c-.658,0-1.288.262-1.753.727l-10.791,10.821-12.024-10.981c-.238-.218-.622-.049-.622.274v54.741c0,.101.042.199.115.269l12.53,11.955,13.032-12.065h797.897c15.329,0,27.871-12.542,27.871-27.871h0c0-15.329-12.542-27.871-27.871-27.871Z"/>
      <g>
        <path class="cls-14" d="m637.477,723.208c-11.053,0-20.046-8.992-20.046-20.045s8.992-20.046,20.046-20.046,20.046,8.993,20.046,20.046-8.992,20.045-20.046,20.045Z"/>
        <path class="cls-17" d="m637.477,684.117c10.475,0,19.046,8.57,19.046,19.046h0c0,10.475-8.571,19.046-19.046,19.046s-19.046-8.571-19.046-19.046h0c0-10.475,8.571-19.046,19.046-19.046m0-2c-11.604,0-21.046,9.441-21.046,21.046s9.441,21.046,21.046,21.046,21.046-9.441,21.046-21.046-9.441-21.046-21.046-21.046h0Z"/>
      </g>
      <path class="cls-5" d="m813.226,723.214c-14.548,0-29.095.001-43.643,0-3.175,0-4.593-1.41-4.594-4.569-.003-10.355-.003-20.71,0-31.065.001-3.029,1.457-4.455,4.54-4.455,29.207-.002,58.415-.002,87.622,0,3.418,0,4.878,1.469,4.879,4.903.002,10.132.003,20.264,0,30.397-.001,3.292-1.509,4.788-4.824,4.789-14.66.003-29.319.001-43.979.001Z"/>
      <path class="cls-5" d="m876.134,703.068c.085-12.114,9.79-22.01,22.342-21.937,12.159.071,22.178,9.883,21.961,22.471-.203,11.764-9.754,21.773-22.498,21.598-12.042-.166-21.794-9.762-21.805-22.132Z"/>
      <path class="cls-2" d="m851.814,699.235c-.401-.888-1.172-1.308-2.152-1.313l-9.375.029c-.865.022-1.679.285-2.04,1.183-.34.847-.146,1.625.436,2.325,1.492,1.794,2.952,3.616,4.471,5.386,1.243,1.448,2.36,1.471,3.606.035,1.565-1.803,3.033-3.69,4.578-5.51.556-.655.83-1.35.476-2.135Z"/>
      <path class="cls-18" d="m899.034,704.505c2.854.024,5.612,2.731,5.624,5.52.014,3.13-2.722,5.849-5.866,5.829-3.016-.018-5.566-2.746-5.533-5.919.031-3.007,2.636-5.457,5.775-5.43Z"/>
      <rect class="cls-18" x="901.421" y="694.89" width="9.448" height="9.448" transform="translate(760.105 -435.829) rotate(45)"/>
      <path class="cls-1" d="m800.663,701.498c1.256-.022,2.223.921,2.182,2.215-.04,1.272-.632,2.104-2.021,2.157-1.365.052-2.237-.744-2.28-2.075-.042-1.281.876-2.275,2.12-2.297Z"/>
      <polygon class="cls-18" points="897.264 702.569 897.264 696.136 891.694 692.92 886.123 696.136 886.123 702.569 891.694 705.785 897.264 702.569"/>
      <text class="cls-27" transform="translate(631.275 710.284)"><tspan x="0" y="0">2</tspan></text>
      <text class="cls-22" transform="translate(538.435 710.782)"><tspan x="0" y="0">을(를)</tspan></text>
      <text class="cls-22" transform="translate(674.654 712.356)"><tspan x="0" y="0">초 동안</tspan></text>
      <text class="cls-24" transform="translate(776.054 710.126)"><tspan x="0" y="0">말하기</tspan></text>
      <g>
        <g>
          <path class="cls-15" d="m125.984,723.066c-10.975,0-19.903-8.928-19.903-19.903s8.928-19.903,19.903-19.903h376.057c10.975,0,19.903,8.929,19.903,19.903s-8.928,19.903-19.903,19.903H125.984Z"/>
          <path class="cls-9" d="m502.042,684.259c10.423,0,18.903,8.48,18.903,18.903s-8.48,18.903-18.903,18.903H125.984c-10.423,0-18.903-8.48-18.903-18.903s8.48-18.903,18.903-18.903h376.057m0-2H125.984c-11.497,0-20.903,9.406-20.903,20.903h0c0,11.497,9.407,20.903,20.903,20.903h376.057c11.497,0,20.903-9.406,20.903-20.903h0c0-11.497-9.406-20.903-20.903-20.903h0Z"/>
        </g>
        <text class="cls-29" transform="translate(237.279 709.225)"><tspan x="0" y="0">과(와)</tspan></text>
        <text class="cls-29" transform="translate(427.336 709.226)"><tspan x="0" y="0">를 합치기</tspan></text>
        <g>
          <g>
            <path class="cls-14" d="m324.313,723.066c-10.975,0-19.903-8.928-19.903-19.903s8.928-19.903,19.903-19.903h71.862c10.975,0,19.903,8.929,19.903,19.903s-8.928,19.903-19.903,19.903h-71.862Z"/>
            <path class="cls-17" d="m396.175,684.259c10.423,0,18.903,8.48,18.903,18.903s-8.48,18.903-18.903,18.903h-71.862c-10.423,0-18.903-8.48-18.903-18.903s8.48-18.903,18.903-18.903h71.862m0-2h-71.862c-11.497,0-20.903,9.406-20.903,20.903h0c0,11.497,9.406,20.903,20.903,20.903h71.862c11.497,0,20.903-9.406,20.903-20.903h0c0-11.497-9.406-20.903-20.903-20.903h0Z"/>
          </g>
          <text class="cls-28" transform="translate(318.849 710.225)"><tspan class="cls-39" x="0" y="0">초 입니다</tspan><tspan class="cls-40" x="74.812" y="0">.</tspan></text>
        </g>
        <g>
          <g>
            <path class="cls-15" d="m139.685,723.066c-10.975,0-19.903-8.928-19.903-19.903s8.928-19.903,19.903-19.903h61.88c10.975,0,19.903,8.929,19.903,19.903s-8.929,19.903-19.903,19.903h-61.88Z"/>
            <path class="cls-9" d="m201.565,684.259c10.423,0,18.903,8.48,18.903,18.903s-8.48,18.903-18.903,18.903h-61.88c-10.423,0-18.903-8.48-18.903-18.903s8.48-18.903,18.903-18.903h61.88m0-2h-61.88c-11.497,0-20.903,9.406-20.903,20.903h0c0,11.497,9.406,20.903,20.903,20.903h61.88c11.497,0,20.903-9.406,20.903-20.903h0c0-11.497-9.406-20.903-20.903-20.903h0Z"/>
          </g>
          <text class="cls-29" transform="translate(133.432 710.226)"><tspan x="0" y="0">초시계 값</tspan></text>
        </g>
      </g>
    </g>
  </g>
  <g>
    <g>
      <path class="cls-34" d="m280.504,787.471H102.856l-12.543,11.548h0l-12.023-10.98c-.238-.218-.622-.049-.622.274v54.841l.171.168,11.328,10.345c.663.605,1.678.603,2.338-.004l10.91-10.045c.212-.195.49-.304.779-.304l177.312-.101c15.329,0,27.871-12.542,27.871-27.871s-12.542-27.871-27.871-27.871Z"/>
      <g>
        <path class="cls-11" d="m301.453,815.386c.233,11.599-9.583,22.21-22.59,21.903-11.361-.268-21.522-9.45-21.508-22.104.014-12.581,10.427-22.278,22.629-21.994,11.969.279,21.786,10.209,21.47,22.194Z"/>
        <path class="cls-10" d="m287.537,816.918c-.095,0-.185.021-.279.028l-4.684-7.075c.647-.892.943-2.055.623-3.302-.356-1.388-1.5-2.503-2.899-2.812-2.553-.562-4.81,1.366-4.81,3.821,0,.859.284,1.646.753,2.292l-4.684,7.075c-.094-.007-.183-.028-.279-.028-2.466,0-4.4,2.277-3.814,4.843.323,1.416,1.474,2.567,2.89,2.89,2.566.586,4.843-1.348,4.843-3.814,0-1.153-.507-2.18-1.3-2.897l4.386-6.625c.358.108.731.183,1.124.183s.766-.076,1.124-.183l4.386,6.625c-1.013.917-1.56,2.338-1.178,3.884.344,1.389,1.482,2.51,2.878,2.828,2.564.583,4.839-1.35,4.839-3.815,0-2.165-1.755-3.919-3.919-3.919Z"/>
      </g>
    </g>
    <text class="cls-23" transform="translate(106.711 823.819)"><tspan x="0" y="0">반복 중단하기</tspan></text>
  </g>
  <g>
    <g>
      <path class="cls-15" d="m203.075,390.371c-10.975,0-19.903-8.929-19.903-19.903s8.928-19.903,19.903-19.903h292.42c10.975,0,19.903,8.928,19.903,19.903s-8.928,19.903-19.903,19.903H203.075Z"/>
      <path class="cls-9" d="m495.496,351.565c10.423,0,18.903,8.48,18.903,18.903s-8.48,18.903-18.903,18.903H203.075c-10.423,0-18.903-8.48-18.903-18.903s8.48-18.903,18.903-18.903h292.42m0-2H203.075c-11.497,0-20.903,9.406-20.903,20.903h0c0,11.497,9.407,20.903,20.903,20.903h292.42c11.497,0,20.903-9.406,20.903-20.903h0c0-11.497-9.406-20.903-20.903-20.903h0Z"/>
    </g>
    <text class="cls-29" transform="translate(250.719 376.531)"><tspan x="0" y="0">부터</tspan></text>
    <text class="cls-29" transform="translate(362.811 376.531)"><tspan x="0" y="0">사이의 무작위 수</tspan></text>
    <g>
      <g>
        <path class="cls-14" d="m318.768,390.371c-10.975,0-19.903-8.929-19.903-19.903s8.929-19.903,19.903-19.903h11.233c10.975,0,19.903,8.928,19.903,19.903s-8.928,19.903-19.903,19.903h-11.233Z"/>
        <path class="cls-17" d="m330.001,351.565c10.423,0,18.903,8.48,18.903,18.903s-8.48,18.903-18.903,18.903h-11.233c-10.423,0-18.903-8.48-18.903-18.903s8.48-18.903,18.903-18.903h11.233m0-2h-11.233c-11.497,0-20.903,9.406-20.903,20.903h0c0,11.497,9.406,20.903,20.903,20.903h11.233c11.497,0,20.903-9.406,20.903-20.903h0c0-11.497-9.406-20.903-20.903-20.903h0Z"/>
      </g>
      <text class="cls-30" transform="translate(312.303 377.531)"><tspan x="0" y="0">50</tspan></text>
    </g>
    <g>
      <path class="cls-14" d="m216.776,390.371c-10.975,0-19.903-8.929-19.903-19.903s8.928-19.903,19.903-19.903,19.903,8.928,19.903,19.903-8.928,19.903-19.903,19.903Z"/>
      <path class="cls-17" d="m216.775,351.565c10.423,0,18.903,8.48,18.903,18.903s-8.48,18.903-18.903,18.903-18.903-8.48-18.903-18.903,8.48-18.903,18.903-18.903m0-2c-11.497,0-20.903,9.406-20.903,20.903h0c0,11.497,9.406,20.903,20.903,20.903s20.903-9.406,20.903-20.903h0c0-11.497-9.406-20.903-20.903-20.903h0Z"/>
    </g>
    <text class="cls-30" transform="translate(211.523 377.531)"><tspan x="0" y="0">1</tspan></text>
  </g>
</svg>