<?xml version="1.0" encoding="UTF-8"?>
<svg id="_레이어_1" data-name="레이어 1" xmlns="http://www.w3.org/2000/svg" viewBox="0 0 115 105">
  <defs>
    <style>
      .cls-1, .cls-2 {
        stroke-width: 0px;
      }

      .cls-1, .cls-3 {
        fill: #fefefe;
      }

      .cls-2 {
        fill: #8222ff;
      }

      .cls-3 {
        font-family: Pretendard-Bold-KSCpc-EUC-H, Pretendard;
        font-size: 26px;
        font-weight: 700;
        letter-spacing: -.025em;
      }
    </style>
  </defs>
  <rect class="cls-2" width="115" height="105"/>
  <text class="cls-3" transform="translate(13.859 93.533)"><tspan x="0" y="0">인공지능</tspan></text>
  <g>
    <path class="cls-1" d="m49.816,63.324h18.288v-3.542c0-1.824-.184-5.898,1.135-7.158,2.472-2.36,6.041-6.537,7.53-13.323.453-2.065,1.076-7.778-2.953-12.582-5.622-6.703-12.946-6.872-14.236-6.922-1.429-.056-8.99-.352-14.398,5.544-4.122,4.495-4.871,10.275-4.468,14.067.026.245.18.615.165,1.159-.073,2.737-2.962,3.647-2.979,5.172-.011.993.538,2.234,2.731,2.11.215,2.957.504,5.328.745,7.034.096.679.158,1.067.414,1.489,1.422,2.352,6.352,1.698,8.109,1.407l-.083,5.544Z"/>
    <g>
      <path class="cls-2" d="m49.334,44.809l4.029-11.622h3.098l4.013,11.622h-2.584l-.867-2.681h-4.206l-.883,2.681h-2.6Zm7.079-4.559l-1.461-4.446h-.08l-1.445,4.446h2.986Z"/>
      <path class="cls-2" d="m63.778,44.809h-2.408v-11.622h2.408v11.622Z"/>
    </g>
  </g>
</svg>