<?xml version="1.0" encoding="UTF-8"?>
<svg id="_레이어_1" data-name="레이어 1" xmlns="http://www.w3.org/2000/svg" viewBox="0 0 308.384 229.047">
  <defs>
    <style>
      .cls-1 {
        fill: none;
      }

      .cls-1, .cls-2, .cls-3, .cls-4, .cls-5 {
        stroke-width: 0px;
      }

      .cls-2 {
        fill: #1b3ad8;
      }

      .cls-6 {
        font-size: 26px;
      }

      .cls-6, .cls-7 {
        fill: #fefefe;
        font-family: Pretendard-Bold-KSCpc-EUC-H, Pretendard;
        font-weight: 700;
      }

      .cls-8 {
        fill: #19baea;
        stroke: #1498c0;
        stroke-linecap: round;
        stroke-linejoin: round;
        stroke-width: 2px;
      }

      .cls-3 {
        fill: #6dddfe;
      }

      .cls-4 {
        fill: #1498c0;
      }

      .cls-7 {
        font-size: 22px;
      }

      .cls-5 {
        fill: #4562f5;
      }
    </style>
  </defs>
  <path class="cls-8" d="m291.601,184.869H51.228l-11.613,11.226-11.538-11.226v-36.811l12.441,11.461,12.387-11.471,226.607-.091c16.083,0,29.097-13.805,27.779-30.15-1.175-14.565-13.733-25.592-28.345-25.592H52.868l-12.35,11.436-12.415-11.436h-.027v-35.372l12.441,11.461,12.387-11.471,226.607-.091c16.083,0,29.097-13.805,27.779-30.151-1.175-14.565-13.733-25.591-28.345-25.591H26.188l-12.543,11.548L1.622,1.568c-.238-.218-.622-.049-.622.274v54.741c0,.047.011.092.028.135h-.004l.091.134.056,159.583,12.379,11.613,12.516-11.613h265.535c8.716,0,15.782-7.066,15.782-15.783s-7.066-15.783-15.782-15.783Z"/>
  <g>
    <path class="cls-4" d="m297.261,28.915c.233,11.599-9.583,22.21-22.59,21.903-11.361-.268-21.522-9.45-21.508-22.104.014-12.581,10.427-22.278,22.629-21.994,11.969.279,21.786,10.209,21.47,22.194Z"/>
    <path class="cls-3" d="m283.345,30.447c-.095,0-.185.021-.279.028l-4.684-7.075c.647-.892.942-2.055.623-3.302-.356-1.388-1.5-2.504-2.899-2.812-2.553-.562-4.81,1.366-4.81,3.821,0,.859.284,1.646.753,2.292l-4.684,7.075c-.094-.007-.183-.028-.279-.028-2.466,0-4.4,2.277-3.814,4.843.323,1.416,1.474,2.567,2.89,2.89,2.566.586,4.843-1.348,4.843-3.814,0-1.153-.507-2.18-1.3-2.897l4.386-6.625c.358.108.731.183,1.124.183s.766-.076,1.124-.183l4.386,6.625c-1.013.917-1.56,2.338-1.178,3.884.344,1.389,1.482,2.51,2.877,2.828,2.564.583,4.839-1.35,4.839-3.815,0-2.165-1.755-3.919-3.919-3.919Z"/>
  </g>
  <text class="cls-6" transform="translate(29.904 36.671)"><tspan x="0" y="0">만일</tspan></text>
  <text class="cls-6" transform="translate(150.192 36.671)"><tspan x="0" y="0">(이)라면</tspan></text>
  <g>
    <polygon class="cls-5" points="102.002 48.673 86.475 28.769 102.002 8.866 121.447 8.866 136.974 28.769 121.447 48.673 102.002 48.673"/>
    <path class="cls-2" d="m120.959,9.866l14.746,18.903-14.746,18.903h-18.469l-14.746-18.903,14.746-18.903h18.469m.976-2h-20.422l-16.306,20.903,16.306,20.903h20.422l16.306-20.903-16.306-20.903h0Z"/>
  </g>
  <text class="cls-7" transform="translate(102.292 34.607)"><tspan x="0" y="0">참</tspan></text>
  <text class="cls-6" transform="translate(53.868 129.886)"><tspan x="0" y="0">아니면</tspan></text>
  <polygon class="cls-1" points="28.104 92.215 28.077 92.19 28.077 92.215 28.104 92.215"/>
  <line class="cls-8" x1="28.077" y1="92.19" x2="28.104" y2="92.215"/>
</svg>