<?xml version="1.0" encoding="UTF-8"?>
<svg id="_레이어_1" data-name="레이어 1" xmlns="http://www.w3.org/2000/svg" viewBox="0 0 533.048 41.806">
  <defs>
    <style>
      .cls-1 {
        fill: #b819b3;
      }

      .cls-1, .cls-2, .cls-3, .cls-4, .cls-5 {
        stroke-width: 0px;
      }

      .cls-6 {
        fill: #fff;
        font-family: Pretendard-Bold-KSCpc-EUC-H, Pretendard;
        font-size: 22px;
        font-weight: 700;
        letter-spacing: -.025em;
      }

      .cls-2 {
        fill: #fefdfe;
      }

      .cls-3 {
        fill: #1b3ad8;
      }

      .cls-4 {
        fill: #dd47d8;
      }

      .cls-5 {
        fill: #4562f5;
      }
    </style>
  </defs>
  <g>
    <polygon class="cls-5" points="16.795 40.807 1.268 20.903 16.795 1 516.253 1 531.78 20.903 516.253 40.807 16.795 40.807"/>
    <path class="cls-3" d="m515.765,2l14.746,18.903-14.746,18.903H17.283L2.537,20.903,17.283,2h498.482m.976-2H16.306L0,20.903l16.306,20.903h500.435l16.307-20.903-16.307-20.903h0Z"/>
  </g>
  <g>
    <g>
      <g>
        <path class="cls-4" d="m36.653,40.807c-10.975,0-19.903-8.929-19.903-19.903S25.679,1,36.653,1h181.322c10.975,0,19.903,8.929,19.903,19.903s-8.929,19.903-19.903,19.903H36.653Z"/>
        <path class="cls-1" d="m217.976,2c10.423,0,18.903,8.48,18.903,18.903s-8.48,18.903-18.903,18.903H36.653c-10.423,0-18.903-8.48-18.903-18.903S26.23,2,36.653,2h181.323m0-2H36.653C25.156,0,15.75,9.406,15.75,20.903s9.406,20.903,20.903,20.903h181.323c11.497,0,20.903-9.406,20.903-20.903S229.473,0,217.976,0h0Z"/>
      </g>
      <rect class="cls-1" x="31.234" y="1.419" width="159.002" height="38.968" rx="3.871" ry="3.871"/>
      <text class="cls-6" transform="translate(203.146 27.966)"><tspan x="0" y="0">값</tspan></text>
      <text class="cls-6" transform="translate(41.76 27.966)"><tspan x="0" y="0">투표한 사람 </tspan></text>
      <path class="cls-2" d="m174.543,16.226c1.503,0,3.006-.003,4.509.001.951.003,1.744.288,2.197,1.211.47.958.064,1.702-.534,2.425-1.451,1.754-2.859,3.543-4.343,5.268-1.318,1.533-2.389,1.523-3.72-.029-1.519-1.771-2.972-3.598-4.452-5.402-.521-.635-.812-1.313-.452-2.145.374-.865,1.045-1.293,1.954-1.309,1.614-.027,3.228-.008,4.842-.008v-.013Z"/>
    </g>
    <g>
      <g>
        <path class="cls-4" d="m315.072,40.807c-10.975,0-19.903-8.929-19.903-19.903s8.929-19.903,19.903-19.903h181.323c10.975,0,19.903,8.929,19.903,19.903s-8.928,19.903-19.903,19.903h-181.323Z"/>
        <path class="cls-1" d="m496.395,2c10.423,0,18.903,8.48,18.903,18.903s-8.48,18.903-18.903,18.903h-181.323c-10.423,0-18.903-8.48-18.903-18.903s8.48-18.903,18.903-18.903h181.323m0-2h-181.323c-11.497,0-20.903,9.406-20.903,20.903s9.406,20.903,20.903,20.903h181.323c11.497,0,20.903-9.406,20.903-20.903S507.892,0,496.395,0h0Z"/>
      </g>
      <rect class="cls-1" x="309.653" y="1.419" width="159.002" height="38.968" rx="3.871" ry="3.871"/>
      <text class="cls-6" transform="translate(481.566 27.966)"><tspan x="0" y="0">값</tspan></text>
      <text class="cls-6" transform="translate(320.179 27.966)"><tspan x="0" y="0">미새 먼지 농도</tspan></text>
      <path class="cls-2" d="m452.962,16.226c1.503,0,3.006-.003,4.509.001.951.003,1.744.288,2.197,1.211.47.958.064,1.702-.534,2.425-1.451,1.754-2.859,3.543-4.343,5.268-1.318,1.533-2.389,1.523-3.72-.029-1.519-1.771-2.972-3.598-4.452-5.402-.521-.635-.812-1.313-.452-2.145.374-.865,1.045-1.293,1.954-1.309,1.614-.027,3.228-.008,4.842-.008v-.013Z"/>
    </g>
  </g>
  <g>
    <rect class="cls-3" x="251.04" y="1.097" width="30.968" height="39.613" rx="3.355" ry="3.355"/>
    <text class="cls-6" transform="translate(256.211 27.966)"><tspan x="0" y="0">＝</tspan></text>
  </g>
</svg>