<?xml version="1.0" encoding="UTF-8"?>
<svg id="_레이어_1" data-name="레이어 1" xmlns="http://www.w3.org/2000/svg" viewBox="0 0 1308.755 344.105">
  <defs>
    <style>
      .cls-1 {
        letter-spacing: -.057em;
      }

      .cls-2, .cls-3, .cls-4 {
        letter-spacing: -.025em;
      }

      .cls-5 {
        fill: #fe7a22;
      }

      .cls-5, .cls-6, .cls-7, .cls-8, .cls-9, .cls-10, .cls-11, .cls-12, .cls-13, .cls-14, .cls-15, .cls-16, .cls-17, .cls-18, .cls-19, .cls-20, .cls-21 {
        stroke-width: 0px;
      }

      .cls-6 {
        fill: #dc47d7;
      }

      .cls-7 {
        fill: #b819b3;
      }

      .cls-3, .cls-22, .cls-23, .cls-4, .cls-24, .cls-25, .cls-26 {
        font-family: Pretendard-Bold-KSCpc-EUC-H, Pretendard;
        font-weight: 700;
      }

      .cls-3, .cls-23, .cls-4, .cls-24, .cls-26 {
        font-size: 22px;
      }

      .cls-3, .cls-26 {
        fill: #fff;
      }

      .cls-8 {
        fill: #f8c435;
      }

      .cls-9 {
        fill: #fefdfe;
      }

      .cls-10 {
        fill: #ffde82;
      }

      .cls-22, .cls-23, .cls-25 {
        fill: #fefefe;
      }

      .cls-22, .cls-25 {
        font-size: 26px;
      }

      .cls-11 {
        fill: #b719b2;
      }

      .cls-12 {
        fill: #ff7f00;
      }

      .cls-27 {
        fill: #19baea;
        stroke: #1498c0;
      }

      .cls-27, .cls-28, .cls-29 {
        stroke-linecap: round;
        stroke-linejoin: round;
        stroke-width: 2px;
      }

      .cls-13 {
        fill: #6dddfe;
      }

      .cls-14 {
        fill: #1498c0;
      }

      .cls-28 {
        fill: #de5c04;
        stroke: #a14100;
      }

      .cls-15, .cls-29 {
        fill: #dd47d8;
      }

      .cls-29 {
        stroke: #b819b3;
      }

      .cls-16 {
        fill: #f577f1;
      }

      .cls-17 {
        fill: #fedd81;
      }

      .cls-18 {
        fill: #f4af18;
      }

      .cls-19 {
        fill: #f677f2;
      }

      .cls-20 {
        fill: #fe9b00;
      }

      .cls-25 {
        letter-spacing: -.01em;
      }

      .cls-21 {
        fill: #a14100;
      }
    </style>
  </defs>
  <g>
    <g>
      <path class="cls-28" d="m592.095,311.54H52.706l-11.613,11.226-13.016-11.226V57.724l12.623,10.761,12.599-11.653,469.442-.091c16.083,0,29.097-13.806,27.779-30.151-1.175-14.565-13.733-25.591-28.345-25.591L1.622,1.568c-.238-.217-.622-.048-.622.274l.171,341.263h590.924c8.716,0,15.782-7.066,15.782-15.783s-7.066-15.783-15.782-15.783Z"/>
      <path class="cls-21" d="m540.489,28.915c.233,11.599-9.583,22.21-22.59,21.903-11.361-.268-21.522-9.45-21.508-22.104.014-12.581,10.427-22.278,22.629-21.994,11.969.279,21.786,10.209,21.47,22.194Z"/>
      <path class="cls-5" d="m522.856,25.976c1.407,0,2.395-.012,3.384.004.851.014,1.445.399,1.556,1.288.12.962-.563,1.285-1.317,1.519-.079.025-.977.08-1.047.061-3.895-.745-5.166,2.691-6.968,5.688-1.973,3.282-4.638,5.369-8.75,4.954-1.005-.101-1.949-.347-2.123-1.35-.208-1.2,1.021-.942,1.691-1.305,3.006-1.631,3.894-4.763,5.328-7.535-.849-.677-1.708-.269-2.483-.419-.887-.172-1.685-.555-1.601-1.554.067-.795.741-1.257,1.574-1.335.33-.031.676-.081.994-.017,2.34.468,3.589-.727,4.689-2.649,1.419-2.479,3.285-4.62,6.33-5.208,1.965-.38,3.644.13,4.821,1.803.593.843.499,1.736-.279,2.472-.735.695-1.343.452-1.831-.318-.614-.968-1.097-.293-1.572.131-1.022.911-1.408,2.213-2.396,3.771Z"/>
    </g>
    <text class="cls-25" transform="translate(27.015 37.349)"><tspan x="0" y="0">함수 정의하기</tspan></text>
    <path class="cls-10" d="m485.765,16.409c-.019-2.311-1.424-3.584-3.714-3.788-1.024-.091-2.059-.045-3.089-.065-.8-.016-1.602-.079-1.818-1.054-.956-4.323-3.974-5.172-7.924-5.16l-162.797.039c-1.724,0-3.441-.053-4.959.989-1.426.98-2.614,2.39-2.425,4.002.201,1.71,2.138.862,3.242,1.062,3.776.686,4.647,1.535,4.651,5.389.009,7.293.007,14.587.001,21.88-.003,4.263-1.371,5.669-5.632,5.818-2.678.094-2.979.684-1.574,2.99,1.549,2.542,3.94,2.917,6.671,2.915l163.57-.026c.515,0,1.03-.015,1.545-.013,2.331.011,4.337-1.203,4.849-3.179.806-3.113,2.747-3.06,5.157-3.034,2.719.03,4.236-1.411,4.257-4.055.065-8.237.056-16.474-.012-24.71Z"/>
    <g>
      <path class="cls-8" d="m308.474,16.409c-.019-2.311-1.424-3.584-3.714-3.788-1.024-.091-2.059-.045-3.089-.065-.8-.016-1.602-.079-1.818-1.054-.956-4.323-3.974-5.172-7.924-5.16l-105.531.039c-1.724,0-3.441-.053-4.959.989-1.426.98-2.614,2.39-2.425,4.002.201,1.71,2.138.862,3.242,1.062,3.776.686,4.647,1.535,4.651,5.389.009,7.293.007,14.587.001,21.88-.003,4.263-1.371,5.669-5.632,5.818-2.678.094-2.979.684-1.574,2.99,1.549,2.542,3.94,2.917,6.671,2.915l106.304-.026c.515,0,1.03-.015,1.545-.013,2.331.011,4.337-1.203,4.849-3.179.806-3.113,2.747-3.06,5.157-3.034,2.719.03,4.236-1.411,4.257-4.055.065-8.237.056-16.474-.012-24.71Z"/>
      <text class="cls-4" transform="translate(205.454 36.399)"><tspan x="0" y="0">점수 합계</tspan></text>
    </g>
    <g>
      <path class="cls-17" d="m337.388,48.787c-10.975,0-19.903-8.929-19.903-19.903s8.929-19.903,19.903-19.903h108.707c10.975,0,19.903,8.928,19.903,19.903s-8.929,19.903-19.903,19.903h-108.707Z"/>
      <path class="cls-20" d="m446.096,9.98c10.423,0,18.903,8.48,18.903,18.903s-8.48,18.903-18.903,18.903h-108.707c-10.423,0-18.903-8.48-18.903-18.903s8.48-18.903,18.903-18.903h108.707m0-2h-108.707c-11.497,0-20.903,9.406-20.903,20.903s9.406,20.903,20.903,20.903h108.707c11.497,0,20.903-9.406,20.903-20.903s-9.407-20.903-20.903-20.903h0Z"/>
    </g>
    <text class="cls-4" transform="translate(330.796 35.947)"><tspan x="0" y="0">문자/숫자 값 1</tspan></text>
  </g>
  <g>
    <path class="cls-27" d="m363.428,279.889H79.903l-11.986,10.545-12.73-10.545V112.725l12.441,11.461,12.387-11.471,271.324-.091c16.083,0,29.097-13.806,27.779-30.151-1.175-14.565-13.733-25.591-28.345-25.591H53.298l-12.543,11.548-12.023-10.98c-.238-.217-.622-.048-.622.274v54.741c0,.047.011.092.028.135h-.004l.091.134.056,198.72,12.379,11.613,12.516-11.613h310.252c8.716,0,15.783-7.066,15.783-15.783s-7.066-15.783-15.783-15.783Z"/>
    <g>
      <path class="cls-14" d="m369.088,84.797c.233,11.599-9.583,22.21-22.59,21.903-11.361-.268-21.522-9.45-21.508-22.104.014-12.581,10.427-22.278,22.629-21.994,11.969.279,21.786,10.209,21.47,22.194Z"/>
      <path class="cls-13" d="m355.171,86.329c-.095,0-.185.021-.279.028l-4.684-7.075c.647-.892.942-2.055.623-3.302-.356-1.388-1.5-2.504-2.899-2.812-2.553-.562-4.81,1.366-4.81,3.821,0,.859.284,1.646.753,2.292l-4.684,7.075c-.094-.007-.183-.028-.279-.028-2.466,0-4.4,2.277-3.814,4.843.323,1.416,1.474,2.567,2.89,2.89,2.566.586,4.843-1.348,4.843-3.814,0-1.153-.507-2.18-1.3-2.897l4.386-6.625c.358.108.731.183,1.124.183s.766-.076,1.124-.183l4.386,6.625c-1.013.917-1.56,2.338-1.178,3.884.344,1.389,1.482,2.51,2.877,2.828,2.564.583,4.839-1.35,4.839-3.815,0-2.165-1.755-3.919-3.919-3.919Z"/>
    </g>
    <text class="cls-22" transform="translate(194.781 92.553)"><tspan x="0" y="0">번 반복하기</tspan></text>
  </g>
  <g>
    <g>
      <path class="cls-15" d="m86.463,103.555c-10.975,0-19.903-8.928-19.903-19.903s8.929-19.903,19.903-19.903h74.537c10.975,0,19.903,8.929,19.903,19.903s-8.929,19.903-19.903,19.903h-74.537Z"/>
      <path class="cls-7" d="m161,64.749c10.423,0,18.903,8.48,18.903,18.903s-8.48,18.903-18.903,18.903h-74.537c-10.423,0-18.903-8.48-18.903-18.903s8.48-18.903,18.903-18.903h74.537m0-2h-74.537c-11.497,0-20.903,9.406-20.903,20.903s9.407,20.903,20.903,20.903h74.537c11.497,0,20.903-9.406,20.903-20.903s-9.406-20.903-20.903-20.903h0Z"/>
    </g>
    <rect class="cls-7" x="81.044" y="64.168" width="52.216" height="38.968" rx="3.871" ry="3.871"/>
    <text class="cls-3" transform="translate(146.169 90.711)"><tspan x="0" y="0">값</tspan></text>
    <text class="cls-3" transform="translate(91.568 90.711)"><tspan x="0" y="0">n</tspan></text>
    <path class="cls-9" d="m117.567,78.974c1.503,0,3.006-.003,4.509.001.951.003,1.744.288,2.197,1.211.47.958.064,1.702-.534,2.425-1.451,1.754-2.859,3.543-4.343,5.268-1.318,1.533-2.389,1.523-3.72-.029-1.519-1.771-2.972-3.598-4.452-5.402-.521-.635-.812-1.313-.452-2.145.374-.865,1.045-1.293,1.954-1.309,1.614-.027,3.228-.008,4.842-.008v-.013Z"/>
  </g>
  <g>
    <g>
      <path class="cls-29" d="m1279.884,168.103H80.345s0,0,0,0l-12.543,11.548s0,0,0,0l-12.023-10.98c-.238-.218-.622-.049-.622.274v54.741c0,.047.011.092.028.135h-.003l.004.004c.02.048.048.093.087.13h.056l11.328,10.345c.663.605,1.678.603,2.338-.005l10.91-10.045c.212-.195.49-.304.779-.304l1199.203-.101c15.329,0,27.871-12.542,27.871-27.871h0c0-15.329-12.542-27.871-27.871-27.871Z"/>
      <g>
        <path class="cls-11" d="m1300.833,196.018c.233,11.599-9.583,22.21-22.59,21.903-11.361-.268-21.522-9.45-21.508-22.104.014-12.581,10.427-22.278,22.629-21.994,11.969.279,21.786,10.209,21.47,22.194Z"/>
        <path class="cls-19" d="m1279.101,185.855c1.421.066,3.283.498,4.796,1.905,2.464,2.29,2.614,5.317.342,7.812-.823.903-1.728,1.735-2.634,2.558-.847.769-1.497,1.641-1.723,2.78-.285,1.438-1.202,2.017-2.552,1.624-1.294-.377-1.297-1.572-1.154-2.621.299-2.203,1.86-3.593,3.427-4.952.334-.29.717-.537.999-.87,1.487-1.758,1.36-3.4-.321-4.537-1.47-.995-3.897-.403-4.808,1.208-.326.577-.531,1.221-.815,1.823-.524,1.11-1.42,1.65-2.58,1.204-1.144-.44-1.405-1.351-1.1-2.592.769-3.131,3.806-5.339,8.123-5.343Z"/>
        <path class="cls-16" d="m1278.075,208.569c-1.271-.012-2.113-.925-2.059-2.258.054-1.311.741-2.044,2.063-2.095,1.32-.051,2.369,1,2.32,2.267-.048,1.226-1.02,2.098-2.324,2.086Z"/>
      </g>
    </g>
    <text class="cls-25" transform="translate(985.687 204.451)"><tspan x="0" y="0">을(를) 묻고 대답 기다리기</tspan></text>
  </g>
  <g>
    <path class="cls-29" d="m401.056,112.697H80.345s0,0,0,0l-12.543,11.548s0,0,0,0l-12.023-10.98c-.238-.218-.622-.049-.622.274v54.741c0,.047.011.092.028.135h-.003l.004.004c.02.048.048.093.087.13h.056l11.328,10.345c.663.605,1.678.603,2.338-.005l10.91-10.045c.212-.195.49-.304.779-.304l320.374-.101c15.329,0,27.871-12.542,27.871-27.871h0c0-15.329-12.542-27.871-27.871-27.871Z"/>
    <g>
      <path class="cls-11" d="m422.005,140.612c.233,11.599-9.583,22.21-22.59,21.903-11.361-.268-21.522-9.45-21.508-22.104.014-12.581,10.427-22.278,22.629-21.994,11.969.279,21.786,10.209,21.47,22.194Z"/>
      <path class="cls-19" d="m400.273,130.449c1.421.066,3.283.498,4.796,1.905,2.464,2.29,2.614,5.317.342,7.812-.823.903-1.728,1.735-2.634,2.558-.847.769-1.497,1.641-1.723,2.78-.285,1.438-1.202,2.017-2.552,1.624-1.294-.377-1.297-1.572-1.154-2.621.299-2.203,1.86-3.593,3.427-4.952.334-.29.717-.537.999-.87,1.487-1.758,1.36-3.4-.321-4.537-1.47-.995-3.897-.403-4.808,1.208-.326.577-.531,1.221-.815,1.823-.524,1.11-1.42,1.65-2.58,1.204-1.144-.44-1.405-1.351-1.1-2.592.769-3.131,3.806-5.339,8.123-5.343Z"/>
      <path class="cls-16" d="m399.247,153.164c-1.271-.012-2.113-.925-2.059-2.258.054-1.311.741-2.044,2.063-2.095,1.32-.051,2.369,1,2.32,2.267-.048,1.226-1.02,2.098-2.324,2.086Z"/>
    </g>
  </g>
  <g>
    <path class="cls-7" d="m86.39,126.837v27.721c0,3.45,2.808,6.244,6.257,6.235,25.312-.061,13.119-.046,38.445-.044,3.444,0,6.242-2.791,6.242-6.235v-27.63c0-3.441-2.787-6.231-6.228-6.235l-38.474-.046c-3.447-.004-6.243,2.789-6.243,6.235Z"/>
    <text class="cls-23" transform="translate(96.769 148.536)"><tspan x="0" y="0">n</tspan></text>
    <path class="cls-9" d="m123.755,136.803c1.503,0,3.006-.003,4.509.001.951.003,1.744.288,2.197,1.211.47.958.064,1.702-.534,2.425-1.451,1.754-2.859,3.543-4.343,5.268-1.318,1.533-2.389,1.523-3.72-.029-1.519-1.771-2.972-3.598-4.452-5.402-.521-.635-.812-1.313-.452-2.145.374-.865,1.045-1.293,1.954-1.309,1.614-.027,3.228-.008,4.842-.008v-.013Z"/>
  </g>
  <text class="cls-25" transform="translate(153.153 149.046)"><tspan x="0" y="0">에</tspan></text>
  <text class="cls-25" transform="translate(247.637 149.046)"><tspan x="0" y="0">만큼 더하기</tspan></text>
  <g>
    <g>
      <circle class="cls-17" cx="211.33" cy="140.697" r="19.903"/>
      <path class="cls-20" d="m211.33,121.794c10.423,0,18.903,8.48,18.903,18.903s-8.48,18.903-18.903,18.903-18.903-8.48-18.903-18.903,8.48-18.903,18.903-18.903m0-2c-11.497,0-20.903,9.406-20.903,20.903h0c0,11.497,9.406,20.903,20.903,20.903s20.903-9.406,20.903-20.903h0c0-11.497-9.406-20.903-20.903-20.903h0Z"/>
    </g>
    <text class="cls-4" transform="translate(205.077 147.759)"><tspan x="0" y="0">1</tspan></text>
  </g>
  <g>
    <g>
      <path class="cls-18" d="m107.293,215.776c-10.975,0-19.903-8.928-19.903-19.903s8.929-19.903,19.903-19.903h842.985c10.975,0,19.903,8.928,19.903,19.903s-8.929,19.903-19.903,19.903H107.293Z"/>
      <path class="cls-12" d="m950.279,176.969c10.423,0,18.903,8.48,18.903,18.903s-8.48,18.903-18.903,18.903H107.293c-10.423,0-18.903-8.48-18.903-18.903s8.48-18.903,18.903-18.903h842.985m0-2H107.293c-11.497,0-20.903,9.407-20.903,20.903s9.406,20.903,20.903,20.903h842.985c11.497,0,20.903-9.407,20.903-20.903s-9.406-20.903-20.903-20.903h0Z"/>
    </g>
    <g>
      <g>
        <path class="cls-15" d="m120.643,215.776c-10.975,0-19.903-8.929-19.903-19.903s8.929-19.903,19.903-19.903h389.58c10.975,0,19.903,8.929,19.903,19.903s-8.929,19.903-19.903,19.903H120.643Z"/>
        <path class="cls-7" d="m510.224,176.969c10.423,0,18.903,8.48,18.903,18.903s-8.48,18.903-18.903,18.903H120.643c-10.423,0-18.903-8.48-18.903-18.903s8.48-18.903,18.903-18.903h389.581m0-2H120.643c-11.497,0-20.903,9.407-20.903,20.903s9.407,20.903,20.903,20.903h389.581c11.497,0,20.903-9.407,20.903-20.903s-9.406-20.903-20.903-20.903h0Z"/>
      </g>
      <rect class="cls-7" x="115.224" y="176.389" width="141.003" height="38.968" rx="3.871" ry="3.871"/>
      <text class="cls-3" transform="translate(269.589 202.936)"><tspan x="0" y="0">의</tspan></text>
      <text class="cls-3" transform="translate(433.264 202.936)"><tspan x="0" y="0">번째 항목</tspan></text>
      <text class="cls-3" transform="translate(544.747 202.936)"><tspan x="0" y="0">과(와)</tspan></text>
      <text class="cls-3" transform="translate(830.568 202.936)"><tspan x="0" y="0">을 (를) 합친 값</tspan></text>
      <text class="cls-3" transform="translate(125.747 202.936)"><tspan x="0" y="0">반티 리스트</tspan></text>
      <path class="cls-9" d="m238.533,191.195c1.503,0,3.006-.003,4.509.001.951.003,1.744.288,2.197,1.211.47.958.064,1.702-.534,2.425-1.451,1.754-2.859,3.543-4.343,5.268-1.318,1.533-2.389,1.523-3.72-.029-1.519-1.771-2.972-3.598-4.452-5.402-.521-.635-.812-1.313-.452-2.145.374-.865,1.045-1.293,1.954-1.309,1.614-.027,3.228-.008,4.842-.008v-.013Z"/>
    </g>
    <g>
      <path class="cls-17" d="m631.628,215.776c-10.975,0-19.903-8.929-19.903-19.903s8.929-19.903,19.903-19.903h165.844c10.975,0,19.903,8.929,19.903,19.903s-8.929,19.903-19.903,19.903h-165.844Z"/>
      <path class="cls-20" d="m797.472,176.969c10.423,0,18.903,8.48,18.903,18.903s-8.48,18.903-18.903,18.903h-165.844c-10.423,0-18.903-8.48-18.903-18.903s8.48-18.903,18.903-18.903h165.844m0-2h-165.844c-11.497,0-20.903,9.407-20.903,20.903s9.407,20.903,20.903,20.903h165.844c11.497,0,20.903-9.407,20.903-20.903s-9.406-20.903-20.903-20.903h0Z"/>
    </g>
    <text class="cls-24" transform="translate(625.39 202.936)"><tspan class="cls-2" x="0" y="0">의 점수를 입력하세요</tspan><tspan class="cls-1" x="175.214" y="0">.</tspan></text>
    <g>
      <g>
        <path class="cls-15" d="m322.231,215.776c-10.975,0-19.903-8.929-19.903-19.903s8.929-19.903,19.903-19.903h78.418c10.975,0,19.903,8.929,19.903,19.903s-8.929,19.903-19.903,19.903h-78.418Z"/>
        <path class="cls-7" d="m400.649,176.969c10.423,0,18.903,8.48,18.903,18.903s-8.48,18.903-18.903,18.903h-78.418c-10.423,0-18.903-8.48-18.903-18.903s8.48-18.903,18.903-18.903h78.418m0-2h-78.418c-11.497,0-20.903,9.407-20.903,20.903s9.407,20.903,20.903,20.903h78.418c11.497,0,20.903-9.407,20.903-20.903s-9.406-20.903-20.903-20.903h0Z"/>
      </g>
      <rect class="cls-7" x="316.812" y="176.389" width="54.418" height="38.968" rx="3.871" ry="3.871"/>
      <text class="cls-3" transform="translate(384.787 202.936)"><tspan x="0" y="0">값</tspan></text>
      <path class="cls-9" d="m353.729,191.195c1.503,0,3.006-.003,4.509.001.951.003,1.744.288,2.197,1.211.47.958.064,1.702-.534,2.425-1.451,1.754-2.859,3.543-4.343,5.268-1.318,1.533-2.389,1.523-3.72-.029-1.519-1.771-2.972-3.598-4.452-5.402-.521-.635-.812-1.313-.452-2.145.374-.865,1.045-1.293,1.954-1.309,1.614-.027,3.228-.008,4.842-.008v-.013Z"/>
      <text class="cls-3" transform="translate(327.335 202.936)"><tspan x="0" y="0">n</tspan></text>
    </g>
  </g>
  <g>
    <g>
      <g>
        <path class="cls-29" d="m1264.847,223.785H80.345s0,0,0,0l-12.543,11.548s0,0,0,0l-12.023-10.98c-.238-.218-.622-.049-.622.274v54.741c0,.047.011.092.028.135h-.003l.004.004c.02.048.048.093.087.13h.056l11.328,10.345c.663.605,1.678.603,2.338-.005l10.91-10.045c.212-.195.49-.304.779-.304l1184.166-.101c15.329,0,27.871-12.542,27.871-27.871h0c0-15.329-12.542-27.871-27.871-27.871Z"/>
        <g>
          <path class="cls-11" d="m1285.796,251.7c.233,11.599-9.583,22.21-22.59,21.903-11.361-.268-21.522-9.45-21.508-22.104.014-12.581,10.427-22.278,22.629-21.994,11.969.279,21.786,10.209,21.47,22.194Z"/>
          <path class="cls-19" d="m1264.064,241.537c1.421.066,3.283.498,4.796,1.905,2.464,2.29,2.614,5.317.342,7.812-.823.903-1.728,1.735-2.634,2.558-.847.769-1.497,1.641-1.723,2.78-.285,1.438-1.202,2.017-2.552,1.624-1.294-.377-1.297-1.572-1.154-2.621.299-2.203,1.86-3.593,3.427-4.952.334-.29.717-.537.999-.87,1.487-1.758,1.36-3.4-.321-4.537-1.47-.995-3.897-.403-4.808,1.208-.326.577-.531,1.221-.815,1.823-.524,1.11-1.42,1.65-2.58,1.204-1.144-.44-1.405-1.351-1.1-2.592.769-3.131,3.806-5.339,8.123-5.343Z"/>
          <path class="cls-16" d="m1263.038,264.251c-1.271-.012-2.113-.925-2.059-2.258.054-1.311.741-2.044,2.063-2.095,1.32-.051,2.369,1,2.32,2.267-.048,1.226-1.02,2.098-2.324,2.086Z"/>
        </g>
      </g>
      <g>
        <path class="cls-7" d="m86.39,237.925v27.721c0,3.45,2.808,6.244,6.257,6.235,25.312-.061,83.095-.046,108.42-.044,3.444,0,6.242-2.791,6.242-6.235v-27.63c0-3.441-2.787-6.231-6.228-6.235l-108.449-.046c-3.447-.004-6.243,2.789-6.243,6.235Z"/>
        <text class="cls-23" transform="translate(96.769 259.623)"><tspan x="0" y="0">반티 총점</tspan></text>
        <path class="cls-9" d="m193.73,247.891c1.503,0,3.006-.003,4.509.001.951.003,1.744.288,2.197,1.211.47.958.064,1.702-.534,2.425-1.451,1.754-2.859,3.543-4.343,5.268-1.318,1.533-2.389,1.523-3.72-.029-1.519-1.771-2.972-3.598-4.452-5.402-.521-.635-.812-1.313-.452-2.145.374-.865,1.045-1.293,1.954-1.309,1.614-.027,3.228-.008,4.842-.008v-.013Z"/>
      </g>
      <text class="cls-25" transform="translate(223.129 260.133)"><tspan x="0" y="0">의</tspan></text>
      <text class="cls-25" transform="translate(386.775 260.133)"><tspan x="0" y="0">번째 항목을</tspan></text>
      <text class="cls-25" transform="translate(1086.58 260.133)"><tspan x="0" y="0" xml:space="preserve">(으)로  바꾸기</tspan></text>
    </g>
    <g>
      <g>
        <path class="cls-15" d="m279.2,271.902c-10.975,0-19.903-8.928-19.903-19.903s8.929-19.903,19.903-19.903h74.536c10.975,0,19.903,8.928,19.903,19.903s-8.929,19.903-19.903,19.903h-74.536Z"/>
        <path class="cls-7" d="m353.736,233.095c10.423,0,18.903,8.48,18.903,18.903s-8.48,18.903-18.903,18.903h-74.537c-10.423,0-18.903-8.48-18.903-18.903s8.48-18.903,18.903-18.903h74.537m0-2h-74.537c-11.497,0-20.903,9.407-20.903,20.903s9.406,20.903,20.903,20.903h74.537c11.497,0,20.903-9.406,20.903-20.903s-9.407-20.903-20.903-20.903h0Z"/>
      </g>
      <rect class="cls-7" x="273.78" y="232.515" width="52.216" height="38.968" rx="3.871" ry="3.871"/>
      <text class="cls-3" transform="translate(338.905 259.057)"><tspan x="0" y="0">값</tspan></text>
      <text class="cls-3" transform="translate(284.305 259.057)"><tspan x="0" y="0">n</tspan></text>
      <path class="cls-9" d="m310.303,247.321c1.503,0,3.006-.003,4.509.001.951.003,1.744.288,2.197,1.211.47.958.064,1.702-.534,2.425-1.451,1.754-2.859,3.543-4.343,5.268-1.318,1.533-2.389,1.523-3.72-.029-1.519-1.771-2.972-3.598-4.452-5.402-.521-.635-.812-1.313-.452-2.145.374-.865,1.045-1.293,1.954-1.309,1.614-.027,3.228-.008,4.842-.008v-.013Z"/>
    </g>
    <g>
      <g>
        <g>
          <path class="cls-18" d="m538.714,272.019c-10.975,0-19.902-8.929-19.902-19.903s8.928-19.903,19.902-19.903h515.392c10.975,0,19.903,8.928,19.903,19.903s-8.929,19.903-19.903,19.903h-515.392Z"/>
          <path class="cls-12" d="m1054.106,233.212c10.423,0,18.903,8.48,18.903,18.903s-8.48,18.903-18.903,18.903h-515.391c-10.423,0-18.903-8.48-18.903-18.903s8.48-18.903,18.903-18.903h515.391m0-2h-515.391c-11.497,0-20.903,9.407-20.903,20.903s9.406,20.903,20.903,20.903h515.391c11.497,0,20.903-9.406,20.903-20.903s-9.407-20.903-20.903-20.903h0Z"/>
        </g>
        <g>
          <g>
            <path class="cls-15" d="m552.065,272.019c-10.975,0-19.903-8.928-19.903-19.903s8.929-19.903,19.903-19.903h367.797c10.975,0,19.903,8.928,19.903,19.903s-8.929,19.903-19.903,19.903h-367.797Z"/>
            <path class="cls-7" d="m919.862,233.212c10.423,0,18.903,8.48,18.903,18.903s-8.48,18.903-18.903,18.903h-367.798c-10.423,0-18.903-8.48-18.903-18.903s8.48-18.903,18.903-18.903h367.798m0-2h-367.798c-11.497,0-20.903,9.407-20.903,20.903s9.406,20.903,20.903,20.903h367.798c11.497,0,20.903-9.406,20.903-20.903s-9.407-20.903-20.903-20.903h0Z"/>
          </g>
          <rect class="cls-7" x="546.645" y="232.632" width="119.22" height="38.968" rx="3.871" ry="3.871"/>
          <text class="cls-3" transform="translate(679.228 259.178)"><tspan x="0" y="0">의</tspan></text>
          <text class="cls-3" transform="translate(842.904 259.178)"><tspan x="0" y="0">번째 항목</tspan></text>
          <text class="cls-3" transform="translate(557.17 259.178)"><tspan x="0" y="0">반티 총점</tspan></text>
          <path class="cls-9" d="m648.172,247.438c1.503,0,3.006-.003,4.509.001.951.003,1.744.288,2.197,1.211.47.958.064,1.702-.534,2.425-1.451,1.754-2.859,3.543-4.343,5.268-1.318,1.533-2.389,1.523-3.72-.029-1.519-1.771-2.972-3.598-4.452-5.402-.521-.635-.812-1.313-.452-2.145.374-.865,1.045-1.293,1.954-1.309,1.614-.027,3.228-.008,4.842-.008v-.013Z"/>
        </g>
        <g>
          <g>
            <path class="cls-15" d="m731.87,272.019c-10.975,0-19.903-8.929-19.903-19.903s8.929-19.903,19.903-19.903h78.418c10.975,0,19.903,8.928,19.903,19.903s-8.929,19.903-19.903,19.903h-78.418Z"/>
            <path class="cls-7" d="m810.288,233.212c10.423,0,18.903,8.48,18.903,18.903s-8.48,18.903-18.903,18.903h-78.418c-10.423,0-18.903-8.48-18.903-18.903s8.48-18.903,18.903-18.903h78.418m0-2h-78.418c-11.497,0-20.903,9.407-20.903,20.903s9.406,20.903,20.903,20.903h78.418c11.497,0,20.903-9.406,20.903-20.903s-9.407-20.903-20.903-20.903h0Z"/>
          </g>
          <rect class="cls-7" x="726.45" y="232.632" width="54.418" height="38.968" rx="3.871" ry="3.871"/>
          <text class="cls-3" transform="translate(794.426 259.178)"><tspan x="0" y="0">값</tspan></text>
          <path class="cls-9" d="m763.368,247.438c1.503,0,3.006-.003,4.509.001.951.003,1.744.288,2.197,1.211.47.958.064,1.702-.534,2.425-1.451,1.754-2.859,3.543-4.343,5.268-1.318,1.533-2.389,1.523-3.72-.029-1.519-1.771-2.972-3.598-4.452-5.402-.521-.635-.812-1.313-.452-2.145.374-.865,1.045-1.293,1.954-1.309,1.614-.027,3.228-.008,4.842-.008v-.013Z"/>
          <text class="cls-3" transform="translate(736.975 259.178)"><tspan x="0" y="0">n</tspan></text>
        </g>
      </g>
      <g>
        <g>
          <path class="cls-11" d="m1059.918,243.299c-3.978-8.028-10.585-12.205-19.692-12.204l-23.634.017c-13.365.1-23.308,12.743-20.298,25.728,2.245,9.683,10.748,16.352,20.919,16.354l22.63.007c1.562,0,3.108-.072,4.657-.328,13.443-2.215,21.457-17.384,15.417-29.573Z"/>
          <path class="cls-6" d="m1027.458,233.103c42.548,0-29.54-.003,13.008.003,9.346.001,16.7,5.774,18.918,14.808,2.597,10.582-4.706,21.37-15.534,23.016-1.222.186-2.431.263-3.655.263-85.04,0,62.236.002-22.804,0-11.651,0-20.056-8.798-19.553-20.436.36-8.321,7.473-16.158,15.669-17.363,1.445-.212,2.876-.287,4.323-.287,42.437-.001-32.807,0,9.629,0Z"/>
        </g>
        <text class="cls-26" transform="translate(1010.195 257.465)"><tspan x="0" y="0">대답</tspan></text>
      </g>
      <rect class="cls-12" x="953.752" y="233.083" width="28.258" height="38.065" rx="2.645" ry="2.645"/>
      <text class="cls-3" transform="translate(960.687 258.178)"><tspan x="0" y="0">+</tspan></text>
    </g>
  </g>
</svg>