<?xml version="1.0" encoding="UTF-8"?>
<svg id="_레이어_2" data-name="레이어 2" xmlns="http://www.w3.org/2000/svg" viewBox="0 0 587.061 563.516">
  <defs>
    <style>
      .cls-1, .cls-2, .cls-3, .cls-4, .cls-5, .cls-6, .cls-7, .cls-8, .cls-9, .cls-10, .cls-11, .cls-12 {
        stroke-width: 0px;
      }

      .cls-1, .cls-13, .cls-14 {
        fill: #fefefe;
      }

      .cls-2 {
        fill: #009400;
      }

      .cls-15 {
        fill: #8222ff;
        stroke: #6308d8;
      }

      .cls-15, .cls-16, .cls-17, .cls-18 {
        stroke-width: 2px;
      }

      .cls-15, .cls-16, .cls-18 {
        stroke-linecap: round;
        stroke-linejoin: round;
      }

      .cls-3 {
        fill: #c72042;
      }

      .cls-4 {
        fill: #00b400;
      }

      .cls-19 {
        letter-spacing: -.025em;
      }

      .cls-19, .cls-13, .cls-20, .cls-14, .cls-21 {
        font-family: Pretendard-Bold-KSCpc-EUC-H, Pretendard;
        font-weight: 700;
      }

      .cls-19, .cls-8, .cls-20, .cls-21 {
        fill: #fff;
      }

      .cls-19, .cls-21 {
        font-size: 22px;
      }

      .cls-5 {
        fill: #fefdfe;
      }

      .cls-6 {
        fill: #c62042;
      }

      .cls-16 {
        fill: #fe3a61;
        stroke: #c62142;
      }

      .cls-17 {
        fill: #00b300;
        stroke: #009400;
        stroke-miterlimit: 10;
      }

      .cls-13, .cls-14 {
        font-size: 26px;
      }

      .cls-18 {
        fill: #19baea;
        stroke: #1498c0;
      }

      .cls-7 {
        fill: #af71ff;
      }

      .cls-9 {
        fill: #6dddfe;
      }

      .cls-10 {
        fill: #1498c0;
      }

      .cls-20 {
        font-size: 21.411px;
      }

      .cls-11 {
        fill: #6308d8;
      }

      .cls-14 {
        letter-spacing: -.025em;
      }

      .cls-12 {
        fill: #fe5576;
      }
    </style>
  </defs>
  <g>
    <g>
      <g>
        <path class="cls-17" d="m371.815,33.954c-2.293-12.79-13.661-22.1-26.741-22.14-81.917-.248-200.794-.502-282.712-.713-2.727-.007-4.859-.438-7.168-2.399C48.028,2.617,39.547.119,30.1,1.274,20.381,2.464,12.681,7.161,7.067,15.04,2.193,21.879.212,29.582,1.283,38.024c1.177,9.281,5.523,16.675,12.825,22.461,2.165,1.716,6.8,4.434,7.455,4.816.055.032.101.067.148.11l11.686,10.762c.84.872,2.14.793,2.931-.015l10.743-9.885c.26-.239.6-.372.952-.372l295.042.032c1.539.004,3.069-.064,4.601-.205l.974-.089c15.315-1.89,25.945-16.233,23.175-31.685Z"/>
        <path class="cls-1" d="m34.016,62.097c-15.48-.051-28.037-12.66-27.997-28.114.04-15.539,12.694-28.067,28.28-27.997,15.45.069,27.973,12.72,27.913,28.197-.06,15.443-12.708,27.965-28.196,27.914Z"/>
        <text class="cls-13" transform="translate(201.744 46.248) rotate(.173)"><tspan x="0" y="0">키를 눌렀을 때</tspan></text>
      </g>
      <g>
        <path class="cls-4" d="m47.411,25.686h-23.096v-4.894c0-1.367,1.108-2.475,2.475-2.475h11.789c2.319,0,4.198-1.88,4.198-4.198v-3.333c0-.476-.386-.862-.862-.862h0c-.476,0-.862.386-.862.862v3.333c0,1.367-1.108,2.475-2.475,2.475h-11.789c-2.319,0-4.198,1.88-4.198,4.198v4.894h-2.783c-1.447,0-2.62,1.173-2.62,2.62v16.353c0,1.447,1.173,2.62,2.62,2.62h27.602c1.447,0,2.62-1.173,2.62-2.62v-16.353c0-1.447-1.173-2.62-2.62-2.62Z"/>
        <g>
          <rect class="cls-8" x="22.599" y="41.614" width="21.926" height="2.24" rx="1.12" ry="1.12"/>
          <g>
            <circle class="cls-8" cx="22.599" cy="30.826" r="1.716"/>
            <circle class="cls-8" cx="29.939" cy="30.826" r="1.716"/>
            <circle class="cls-8" cx="37.28" cy="30.826" r="1.716"/>
            <circle class="cls-8" cx="44.62" cy="30.826" r="1.716"/>
            <circle class="cls-8" cx="26.221" cy="36.291" r="1.716"/>
            <circle class="cls-8" cx="33.562" cy="36.291" r="1.716"/>
            <circle class="cls-8" cx="40.903" cy="36.291" r="1.716"/>
          </g>
        </g>
      </g>
    </g>
    <g>
      <rect class="cls-2" x="73.186" y="18.447" width="113.508" height="38.968" rx="3.871" ry="3.871"/>
      <text class="cls-19" transform="translate(83.711 46.283)"><tspan x="0" y="0">스페이스</tspan></text>
      <path class="cls-5" d="m170.194,33.253c1.503,0,3.006-.003,4.509.001.951.003,1.744.288,2.197,1.211.47.958.064,1.702-.534,2.425-1.451,1.754-2.859,3.543-4.343,5.268-1.318,1.533-2.389,1.523-3.72-.029-1.519-1.771-2.972-3.598-4.452-5.402-.521-.635-.812-1.313-.452-2.145.374-.865,1.045-1.293,1.954-1.309,1.614-.027,3.228-.008,4.842-.008v-.013Z"/>
    </g>
  </g>
  <g>
    <g>
      <path class="cls-15" d="m320.044,65.922H47.178l-12.543,11.548-12.024-10.981c-.238-.218-.622-.049-.622.274v54.741c0,.102.042.198.115.269l12.53,11.519,12.543-11.629h272.866c15.329,0,27.871-12.542,27.871-27.871h0c0-15.329-12.542-27.871-27.871-27.871Z"/>
      <path class="cls-11" d="m295.759,93.315c.085-12.114,9.79-22.01,22.342-21.937,12.159.071,22.178,9.883,21.961,22.471-.203,11.764-9.754,21.773-22.498,21.598-12.042-.166-21.794-9.762-21.805-22.132Z"/>
      <text class="cls-14" transform="translate(50.994 102.542)"><tspan x="0" y="0">학습한 모델로 분류하기</tspan></text>
    </g>
    <g>
      <path class="cls-7" d="m312.619,107.602h11.917v-2.308c0-1.188-.12-3.844.74-4.664,1.611-1.538,3.936-4.26,4.907-8.682.295-1.346.701-5.069-1.924-8.199-3.663-4.368-8.436-4.478-9.277-4.511-.931-.037-5.858-.23-9.382,3.613-2.686,2.929-3.174,6.696-2.912,9.167.017.16.117.401.108.755-.047,1.783-1.93,2.377-1.941,3.37-.007.647.35,1.456,1.78,1.375.14,1.927.328,3.472.485,4.583.062.443.103.695.27.97.927,1.532,4.139,1.107,5.284.917l-.054,3.613Z"/>
      <g>
        <path class="cls-11" d="m312.305,95.537l2.626-7.573h2.019l2.615,7.573h-1.684l-.565-1.747h-2.741l-.575,1.747h-1.695Zm4.613-2.971l-.952-2.897h-.052l-.942,2.897h1.946Z"/>
        <path class="cls-11" d="m321.718,95.537h-1.569v-7.573h1.569v7.573Z"/>
      </g>
    </g>
  </g>
  <g>
    <g>
      <path class="cls-18" d="m530.372,233.387H72.217l-11.613,11.226-11.538-11.226v-55.697l12.441,11.461,12.387-11.471,444.389-.091c16.083,0,29.097-13.805,27.779-30.151-1.175-14.565-13.733-25.591-28.345-25.591H47.177l-12.543,11.548-12.023-10.98c-.238-.218-.622-.049-.622.274l.171,142.264,12.379,11.613,12.516-11.613h483.317c8.716,0,15.782-7.066,15.782-15.783s-7.066-15.783-15.782-15.783Z"/>
      <g>
        <path class="cls-10" d="m536.032,149.762c.233,11.599-9.583,22.21-22.59,21.903-11.361-.268-21.522-9.45-21.508-22.104.014-12.581,10.427-22.278,22.629-21.994,11.969.279,21.786,10.209,21.47,22.194Z"/>
        <path class="cls-9" d="m522.116,151.294c-.095,0-.185.021-.279.028l-4.684-7.075c.647-.892.942-2.055.623-3.302-.356-1.388-1.5-2.504-2.899-2.812-2.553-.562-4.81,1.366-4.81,3.821,0,.859.284,1.646.753,2.292l-4.684,7.075c-.094-.007-.183-.028-.279-.028-2.466,0-4.4,2.277-3.814,4.843.323,1.416,1.474,2.567,2.89,2.89,2.566.586,4.843-1.348,4.843-3.814,0-1.153-.507-2.18-1.3-2.897l4.386-6.625c.358.108.731.183,1.124.183s.766-.076,1.124-.183l4.386,6.625c-1.013.917-1.56,2.338-1.178,3.884.344,1.389,1.482,2.51,2.877,2.828,2.564.583,4.839-1.35,4.839-3.815,0-2.165-1.755-3.919-3.919-3.919Z"/>
      </g>
      <text class="cls-13" transform="translate(50.894 158.808)"><tspan x="0" y="0">만일</tspan></text>
      <text class="cls-13" transform="translate(388.964 157.808)"><tspan x="0" y="0">(이)라면</tspan></text>
      <g>
        <polygon class="cls-15" points="357.903 128.713 122.502 128.713 106.196 149.616 122.502 170.52 357.903 170.52 374.209 149.616 357.903 128.713"/>
        <text class="cls-21" transform="translate(122.953 156.969)"><tspan x="0" y="0">분류 결과가</tspan></text>
        <g>
          <rect class="cls-11" x="234.667" y="129.273" width="59.88" height="40.687" rx="3.955" ry="3.955"/>
          <text class="cls-21" transform="translate(307.457 156.969)"><tspan x="0" y="0">인가?</tspan></text>
          <text class="cls-21" transform="translate(245.192 156.969)"><tspan x="0" y="0">손</tspan></text>
          <path class="cls-5" d="m278.853,144.939c1.503,0,3.006-.003,4.509.001.951.003,1.744.288,2.197,1.211.47.958.064,1.702-.534,2.425-1.451,1.754-2.859,3.543-4.343,5.268-1.318,1.533-2.389,1.523-3.72-.029-1.519-1.771-2.972-3.598-4.452-5.402-.521-.635-.812-1.313-.452-2.145.374-.865,1.045-1.293,1.954-1.309,1.614-.027,3.228-.008,4.842-.008v-.013Z"/>
        </g>
      </g>
    </g>
    <g>
      <path class="cls-16" d="m380.708,177.643H74.032l-12.543,11.548-12.024-10.981c-.238-.218-.622-.049-.622.274v54.741c0,.102.042.198.115.269l12.53,11.519,12.543-11.629h306.677c15.329,0,27.871-12.542,27.871-27.871h0c0-15.329-12.542-27.871-27.871-27.871Z"/>
      <path class="cls-6" d="m356.423,205.037c.085-12.114,9.79-22.01,22.342-21.937,12.159.071,22.178,9.883,21.961,22.471-.203,11.764-9.754,21.773-22.498,21.598-12.042-.166-21.794-9.762-21.805-22.132Z"/>
      <path class="cls-12" d="m379.323,206.474c2.854.024,5.612,2.731,5.624,5.52.014,3.13-2.722,5.849-5.866,5.829-3.016-.018-5.566-2.746-5.533-5.919.031-3.007,2.636-5.457,5.775-5.43Z"/>
      <rect class="cls-12" x="381.71" y="196.859" width="9.448" height="9.448" transform="translate(255.725 -214.208) rotate(45)"/>
      <polygon class="cls-12" points="377.554 204.538 377.554 198.105 371.983 194.889 366.412 198.105 366.412 204.538 371.983 207.754 377.554 204.538"/>
      <text class="cls-14" transform="translate(186.782 214.263)"><tspan x="0" y="0">모양으로 바꾸기</tspan></text>
      <g>
        <path class="cls-16" d="m78.694,205.481h0c0,11.235,8.721,20.343,19.479,20.343h55.83c10.758,0,19.479-9.108,19.479-20.343h0c0-11.235-8.721-20.343-19.479-20.343h-55.83c-10.758,0-19.479,9.108-19.479,20.343Z"/>
        <g>
          <rect class="cls-3" x="93.972" y="185.683" width="64.232" height="39.597" rx="3.85" ry="3.85"/>
          <text class="cls-20" transform="translate(104.216 212.638)"><tspan x="0" y="0">손</tspan></text>
          <path class="cls-5" d="m139.081,200.929c1.463,0,2.925-.003,4.388.001.925.003,1.697.281,2.138,1.178.458.932.062,1.656-.52,2.36-1.412,1.707-2.783,3.449-4.227,5.127-1.283,1.492-2.325,1.482-3.621-.028-1.478-1.723-2.892-3.501-4.333-5.257-.507-.618-.79-1.278-.44-2.088.364-.842,1.017-1.258,1.902-1.274,1.57-.027,3.142-.008,4.713-.008v-.013Z"/>
        </g>
      </g>
    </g>
  </g>
  <g>
    <g>
      <path class="cls-18" d="m550.492,376.418H72.217l-11.613,11.226-11.538-11.226v-55.697l12.441,11.461,12.387-11.471,464.509-.091c16.083,0,29.097-13.805,27.779-30.151-1.175-14.565-13.733-25.591-28.345-25.591H47.177l-12.543,11.548-12.023-10.98c-.238-.218-.622-.049-.622.274l.171,142.264,12.379,11.613,12.516-11.613h503.437c8.716,0,15.782-7.066,15.782-15.783s-7.066-15.783-15.782-15.783Z"/>
      <g>
        <path class="cls-10" d="m556.152,292.793c.233,11.599-9.583,22.21-22.59,21.903-11.361-.268-21.522-9.45-21.508-22.104.014-12.581,10.427-22.278,22.629-21.994,11.969.279,21.786,10.209,21.47,22.194Z"/>
        <path class="cls-9" d="m542.236,294.325c-.095,0-.185.021-.279.028l-4.684-7.075c.647-.892.942-2.055.623-3.302-.356-1.388-1.5-2.504-2.899-2.812-2.553-.562-4.81,1.366-4.81,3.821,0,.859.284,1.646.753,2.292l-4.684,7.075c-.094-.007-.183-.028-.279-.028-2.466,0-4.4,2.277-3.814,4.843.323,1.416,1.474,2.567,2.89,2.89,2.566.586,4.843-1.348,4.843-3.814,0-1.153-.507-2.18-1.3-2.897l4.386-6.625c.358.108.731.183,1.124.183s.766-.076,1.124-.183l4.386,6.625c-1.013.917-1.56,2.338-1.178,3.884.344,1.389,1.482,2.51,2.877,2.828,2.564.583,4.839-1.35,4.839-3.815,0-2.165-1.755-3.919-3.919-3.919Z"/>
      </g>
      <text class="cls-13" transform="translate(50.894 301.84)"><tspan x="0" y="0">만일</tspan></text>
      <text class="cls-13" transform="translate(409.083 300.839)"><tspan x="0" y="0">(이)라면</tspan></text>
      <g>
        <polygon class="cls-15" points="377.161 271.745 122.502 271.745 106.196 292.648 122.502 313.551 377.161 313.551 393.467 292.648 377.161 271.745"/>
        <text class="cls-21" transform="translate(122.953 300.001)"><tspan x="0" y="0">분류 결과가</tspan></text>
        <g>
          <rect class="cls-11" x="234.667" y="272.304" width="79.138" height="40.687" rx="3.955" ry="3.955"/>
          <text class="cls-21" transform="translate(326.715 300.001)"><tspan x="0" y="0">인가?</tspan></text>
          <text class="cls-21" transform="translate(245.192 300.001)"><tspan x="0" y="0">앉아</tspan></text>
          <path class="cls-5" d="m298.111,287.97c1.503,0,3.006-.003,4.509.001.951.003,1.744.288,2.197,1.211.47.958.064,1.702-.534,2.425-1.451,1.754-2.859,3.543-4.343,5.268-1.318,1.533-2.389,1.523-3.72-.029-1.519-1.771-2.972-3.598-4.452-5.402-.521-.635-.812-1.313-.452-2.145.374-.865,1.045-1.293,1.954-1.309,1.614-.027,3.228-.008,4.842-.008v-.013Z"/>
        </g>
      </g>
    </g>
    <g>
      <path class="cls-16" d="m396.71,320.602H74.032l-12.543,11.548-12.024-10.981c-.238-.218-.622-.049-.622.274v54.741c0,.102.042.198.115.269l12.53,11.519,12.543-11.629h322.678c15.329,0,27.871-12.542,27.871-27.871h0c0-15.329-12.542-27.871-27.871-27.871Z"/>
      <path class="cls-6" d="m372.425,347.996c.085-12.114,9.79-22.01,22.342-21.937,12.159.071,22.178,9.883,21.961,22.471-.203,11.764-9.754,21.773-22.498,21.598-12.042-.166-21.794-9.762-21.805-22.132Z"/>
      <path class="cls-12" d="m395.325,349.434c2.854.024,5.612,2.731,5.624,5.52.014,3.13-2.722,5.849-5.866,5.829-3.016-.018-5.566-2.746-5.533-5.919.031-3.007,2.636-5.457,5.775-5.43Z"/>
      <rect class="cls-12" x="397.712" y="339.818" width="9.448" height="9.448" transform="translate(361.499 -183.651) rotate(45)"/>
      <polygon class="cls-12" points="393.555 347.497 393.555 341.064 387.984 337.848 382.414 341.064 382.414 347.497 387.984 350.713 393.555 347.497"/>
      <text class="cls-14" transform="translate(202.784 357.222)"><tspan x="0" y="0">모양으로 바꾸기</tspan></text>
      <g>
        <path class="cls-16" d="m78.694,348.44h0c0,11.235,8.721,20.343,19.479,20.343h71.832c10.758,0,19.479-9.108,19.479-20.343h0c0-11.235-8.721-20.343-19.479-20.343h-71.832c-10.758,0-19.479,9.108-19.479,20.343Z"/>
        <g>
          <rect class="cls-3" x="93.972" y="328.642" width="80.234" height="39.597" rx="3.85" ry="3.85"/>
          <text class="cls-20" transform="translate(104.216 355.597)"><tspan x="0" y="0">앉아</tspan></text>
          <path class="cls-5" d="m155.083,343.888c1.463,0,2.925-.003,4.388.001.925.003,1.697.281,2.138,1.178.458.932.062,1.656-.52,2.36-1.412,1.707-2.783,3.449-4.227,5.127-1.283,1.492-2.325,1.482-3.621-.028-1.478-1.723-2.892-3.501-4.333-5.257-.507-.618-.79-1.278-.44-2.088.364-.842,1.017-1.258,1.902-1.274,1.57-.027,3.142-.008,4.713-.008v-.013Z"/>
        </g>
      </g>
    </g>
  </g>
  <g>
    <g>
      <path class="cls-18" d="m570.278,519.338H72.217l-11.613,11.226-11.538-11.226v-55.697l12.441,11.461,12.387-11.471,484.295-.091c16.083,0,29.097-13.805,27.779-30.151-1.175-14.565-13.733-25.591-28.345-25.591H47.177l-12.543,11.548-12.023-10.98c-.238-.218-.622-.049-.622.274l.171,142.264,12.379,11.613,12.516-11.613h523.223c8.716,0,15.782-7.066,15.782-15.783s-7.066-15.783-15.782-15.783Z"/>
      <g>
        <path class="cls-10" d="m575.938,435.713c.233,11.599-9.583,22.21-22.59,21.903-11.361-.268-21.522-9.45-21.508-22.104.014-12.581,10.427-22.278,22.629-21.994,11.969.279,21.786,10.209,21.47,22.194Z"/>
        <path class="cls-9" d="m562.021,437.245c-.095,0-.185.021-.279.028l-4.684-7.075c.647-.892.942-2.055.623-3.302-.356-1.388-1.5-2.504-2.899-2.812-2.553-.562-4.81,1.366-4.81,3.821,0,.859.284,1.646.753,2.292l-4.684,7.075c-.094-.007-.183-.028-.279-.028-2.466,0-4.4,2.277-3.814,4.843.323,1.416,1.474,2.567,2.89,2.89,2.566.586,4.843-1.348,4.843-3.814,0-1.153-.507-2.18-1.3-2.897l4.386-6.625c.358.108.731.183,1.124.183s.766-.076,1.124-.183l4.386,6.625c-1.013.917-1.56,2.338-1.178,3.884.344,1.389,1.482,2.51,2.877,2.828,2.564.583,4.839-1.35,4.839-3.815,0-2.165-1.755-3.919-3.919-3.919Z"/>
      </g>
      <text class="cls-13" transform="translate(50.894 444.759)"><tspan x="0" y="0">만일</tspan></text>
      <text class="cls-13" transform="translate(428.869 443.759)"><tspan x="0" y="0">(이)라면</tspan></text>
      <g>
        <polygon class="cls-15" points="396.947 414.664 122.502 414.664 106.196 435.567 122.502 456.471 396.947 456.471 413.253 435.567 396.947 414.664"/>
        <text class="cls-21" transform="translate(122.953 442.92)"><tspan x="0" y="0">분류 결과가</tspan></text>
        <g>
          <rect class="cls-11" x="234.667" y="415.224" width="98.924" height="40.687" rx="3.955" ry="3.955"/>
          <text class="cls-21" transform="translate(346.501 442.92)"><tspan x="0" y="0">인가?</tspan></text>
          <text class="cls-21" transform="translate(245.192 442.92)"><tspan x="0" y="0">엎드려</tspan></text>
          <path class="cls-5" d="m317.897,430.89c1.503,0,3.006-.003,4.509.001.951.003,1.744.288,2.197,1.211.47.958.064,1.702-.534,2.425-1.451,1.754-2.859,3.543-4.343,5.268-1.318,1.533-2.389,1.523-3.72-.029-1.519-1.771-2.972-3.598-4.452-5.402-.521-.635-.812-1.313-.452-2.145.374-.865,1.045-1.293,1.954-1.309,1.614-.027,3.228-.008,4.842-.008v-.013Z"/>
        </g>
      </g>
    </g>
    <g>
      <path class="cls-16" d="m416.496,463.474H74.032l-12.543,11.548-12.024-10.981c-.238-.218-.622-.049-.622.274v54.741c0,.102.042.198.115.269l12.53,11.519,12.543-11.629h342.464c15.329,0,27.871-12.542,27.871-27.871h0c0-15.329-12.542-27.871-27.871-27.871Z"/>
      <path class="cls-6" d="m392.21,490.867c.085-12.114,9.79-22.01,22.342-21.937,12.159.071,22.178,9.883,21.961,22.471-.203,11.764-9.754,21.773-22.498,21.598-12.042-.166-21.794-9.762-21.805-22.132Z"/>
      <path class="cls-12" d="m415.111,492.305c2.854.024,5.612,2.731,5.624,5.52.014,3.13-2.722,5.849-5.866,5.829-3.016-.018-5.566-2.746-5.533-5.919.031-3.007,2.636-5.457,5.775-5.43Z"/>
      <rect class="cls-12" x="417.498" y="482.689" width="9.448" height="9.448" transform="translate(468.319 -155.796) rotate(45)"/>
      <polygon class="cls-12" points="413.341 490.368 413.341 483.936 407.77 480.719 402.2 483.936 402.2 490.368 407.77 493.584 413.341 490.368"/>
      <text class="cls-14" transform="translate(222.57 500.093)"><tspan x="0" y="0">모양으로 바꾸기</tspan></text>
      <g>
        <path class="cls-16" d="m78.694,491.312h0c0,11.235,8.721,20.343,19.479,20.343h91.618c10.758,0,19.479-9.108,19.479-20.343h0c0-11.235-8.721-20.343-19.479-20.343h-91.618c-10.758,0-19.479,9.108-19.479,20.343Z"/>
        <g>
          <rect class="cls-3" x="93.972" y="471.513" width="100.02" height="39.597" rx="3.85" ry="3.85"/>
          <text class="cls-20" transform="translate(104.216 498.468)"><tspan x="0" y="0">엎드려</tspan></text>
          <path class="cls-5" d="m174.869,486.759c1.463,0,2.925-.003,4.388.001.925.003,1.697.281,2.138,1.178.458.932.062,1.656-.52,2.36-1.412,1.707-2.783,3.449-4.227,5.127-1.283,1.492-2.325,1.482-3.621-.028-1.478-1.723-2.892-3.501-4.333-5.257-.507-.618-.79-1.278-.44-2.088.364-.842,1.017-1.258,1.902-1.274,1.57-.027,3.142-.008,4.713-.008v-.013Z"/>
        </g>
      </g>
    </g>
  </g>
</svg>