<?xml version="1.0" encoding="UTF-8"?>
<svg id="_레이어_2" data-name="레이어 2" xmlns="http://www.w3.org/2000/svg" viewBox="0 0 300.844 68.75">
  <defs>
    <style>
      .cls-1, .cls-2, .cls-3, .cls-4, .cls-5 {
        stroke-width: 0px;
      }

      .cls-1, .cls-6 {
        fill: #fefefe;
      }

      .cls-2 {
        fill: #78d5d3;
      }

      .cls-3 {
        fill: #fefdfe;
      }

      .cls-4 {
        fill: #008380;
      }

      .cls-7 {
        stroke: #008380;
        stroke-miterlimit: 10;
        stroke-width: 2px;
      }

      .cls-7, .cls-5 {
        fill: #00b6b1;
      }

      .cls-6 {
        font-family: Pretendard-Bold-KSCpc-EUC-H, Pretendard;
        font-size: 26px;
        font-weight: 700;
        letter-spacing: -.01em;
      }
    </style>
  </defs>
  <g>
    <path class="cls-7" d="m271.973,1l-245.785.101h0l-12.543,11.548h0L1.622,1.669c-.238-.218-.622-.049-.622.274v54.841l.171.168,11.328,10.345c.663.605,1.678.603,2.338-.004l10.91-10.045c.212-.195.49-.304.779-.304l245.448-.202c15.329,0,27.871-12.542,27.871-27.871s-12.542-27.871-27.871-27.871Z"/>
    <path class="cls-4" d="m292.922,28.915c.233,11.599-9.583,22.21-22.59,21.903-11.361-.268-21.522-9.449-21.508-22.104.014-12.581,10.427-22.278,22.629-21.994,11.969.279,21.786,10.209,21.47,22.194Z"/>
    <text class="cls-6" transform="translate(30.044 37.448)"><tspan x="0" y="0">LED</tspan></text>
    <text class="cls-6" transform="translate(171.938 37.448)"><tspan x="0" y="0">밝히기</tspan></text>
    <g>
      <path class="cls-2" d="m276.227,18.954c-1.047,0-1.949.579-2.434,1.427h-4.07c-.367,0-.719.145-.978.405l-7.704,7.688h-4.052c-.765,0-1.385.62-1.385,1.385s.62,1.385,1.385,1.385h4.624c.367,0,.719-.145.978-.405l7.704-7.688h3.497c.484.848,1.387,1.427,2.434,1.427,1.553,0,2.812-1.259,2.812-2.812s-1.259-2.812-2.812-2.812Z"/>
      <path class="cls-2" d="m266.325,37.39c1.047,0,1.949-.579,2.433-1.427h4.07c.367,0,.719-.145.978-.405l7.704-7.688h4.052c.765,0,1.385-.62,1.385-1.385s-.62-1.385-1.385-1.385h-4.624c-.367,0-.719.145-.978.405l-7.704,7.688h-3.497c-.484-.848-1.387-1.427-2.433-1.427-1.553,0-2.812,1.259-2.812,2.812s1.259,2.812,2.812,2.812Z"/>
    </g>
    <g>
      <path class="cls-4" d="m155.267,9.252l-60.471-.054c-2.545-.002-4.608,2.06-4.608,4.605v30.991c0,2.547,2.076,4.61,4.622,4.605,32.802-.069,27.637-.051,60.446-.049,2.543,0,4.612-2.062,4.612-4.605V13.857c0-2.542-2.06-4.603-4.601-4.605Z"/>
      <path class="cls-3" d="m145.708,25.405c1.503,0,3.006-.003,4.509.001.951.003,1.744.288,2.197,1.211.47.958.064,1.702-.534,2.425-1.451,1.754-2.859,3.543-4.343,5.269-1.318,1.533-2.389,1.523-3.72-.029-1.519-1.771-2.972-3.598-4.452-5.402-.521-.635-.812-1.313-.452-2.145.374-.865,1.045-1.293,1.954-1.309,1.614-.027,3.228-.008,4.842-.008v-.013Z"/>
    </g>
  </g>
  <g>
    <rect class="cls-5" x="98.158" y="13.685" width="5.097" height="5.097" rx=".749" ry=".749"/>
    <rect class="cls-5" x="104.601" y="13.685" width="5.097" height="5.097" rx=".749" ry=".749"/>
    <rect class="cls-5" x="111.045" y="13.685" width="5.097" height="5.097" rx=".749" ry=".749"/>
    <rect class="cls-5" x="117.489" y="13.685" width="5.097" height="5.097" rx=".749" ry=".749"/>
    <rect class="cls-5" x="123.932" y="13.685" width="5.097" height="5.097" rx=".749" ry=".749"/>
    <rect class="cls-5" x="98.158" y="20.177" width="5.097" height="5.097" rx=".749" ry=".749"/>
    <rect class="cls-1" x="104.601" y="20.177" width="5.097" height="5.097" rx=".749" ry=".749"/>
    <rect class="cls-5" x="111.045" y="20.177" width="5.097" height="5.097" rx=".749" ry=".749"/>
    <rect class="cls-1" x="117.489" y="20.177" width="5.097" height="5.097" rx=".749" ry=".749"/>
    <rect class="cls-5" x="123.932" y="20.177" width="5.097" height="5.097" rx=".749" ry=".749"/>
    <rect class="cls-5" x="98.158" y="26.669" width="5.097" height="5.097" rx=".749" ry=".749"/>
    <rect class="cls-5" x="104.601" y="26.669" width="5.097" height="5.097" rx=".749" ry=".749"/>
    <rect class="cls-5" x="111.045" y="26.669" width="5.097" height="5.097" rx=".749" ry=".749"/>
    <rect class="cls-5" x="117.489" y="26.669" width="5.097" height="5.097" rx=".749" ry=".749"/>
    <rect class="cls-5" x="123.932" y="26.669" width="5.097" height="5.097" rx=".749" ry=".749"/>
    <rect class="cls-1" x="98.158" y="33.161" width="5.097" height="5.097" rx=".749" ry=".749"/>
    <rect class="cls-5" x="104.601" y="33.161" width="5.097" height="5.097" rx=".749" ry=".749"/>
    <rect class="cls-5" x="111.045" y="33.161" width="5.097" height="5.097" rx=".749" ry=".749"/>
    <rect class="cls-5" x="117.489" y="33.161" width="5.097" height="5.097" rx=".749" ry=".749"/>
    <rect class="cls-1" x="123.932" y="33.161" width="5.097" height="5.097" rx=".749" ry=".749"/>
    <rect class="cls-5" x="98.158" y="39.653" width="5.097" height="5.097" rx=".749" ry=".749"/>
    <rect class="cls-1" x="104.601" y="39.653" width="5.097" height="5.097" rx=".749" ry=".749"/>
    <rect class="cls-1" x="111.045" y="39.653" width="5.097" height="5.097" rx=".749" ry=".749"/>
    <rect class="cls-1" x="117.489" y="39.653" width="5.097" height="5.097" rx=".749" ry=".749"/>
    <rect class="cls-5" x="123.932" y="39.653" width="5.097" height="5.097" rx=".749" ry=".749"/>
  </g>
</svg>