<?xml version="1.0" encoding="UTF-8"?>
<svg id="_레이어_1" data-name="레이어 1" xmlns="http://www.w3.org/2000/svg" viewBox="0 0 299.836 68.649">
  <defs>
    <style>
      .cls-1 {
        fill: #fefdfe;
      }

      .cls-1, .cls-2, .cls-3 {
        stroke-width: 0px;
      }

      .cls-4 {
        fill: #19baea;
        stroke: #1498c0;
        stroke-linecap: round;
        stroke-linejoin: round;
        stroke-width: 2px;
      }

      .cls-2 {
        fill: #6dddfe;
      }

      .cls-3 {
        fill: #1498c0;
      }

      .cls-5 {
        font-size: 22px;
      }

      .cls-5, .cls-6 {
        fill: #fefefe;
        font-family: Pretendard-Bold-KSCpc-EUC-H, Pretendard;
        font-weight: 700;
      }

      .cls-6 {
        font-size: 26px;
        letter-spacing: -.01em;
      }
    </style>
  </defs>
  <g>
    <path class="cls-4" d="m270.965,1H26.189l-12.543,11.548h0L1.622,1.568c-.238-.218-.622-.049-.622.274v54.841l.171.168,11.328,10.345c.663.605,1.678.603,2.338-.004l10.91-10.045c.212-.195.49-.304.779-.304l244.44-.101c15.329,0,27.871-12.542,27.871-27.871s-12.542-27.871-27.871-27.871Z"/>
    <g>
      <path class="cls-3" d="m291.914,28.915c.233,11.599-9.583,22.21-22.59,21.903-11.361-.268-21.522-9.45-21.508-22.104.014-12.581,10.427-22.278,22.629-21.994,11.969.279,21.786,10.209,21.47,22.194Z"/>
      <path class="cls-2" d="m277.998,30.447c-.095,0-.185.021-.279.028l-4.684-7.075c.647-.892.942-2.055.623-3.302-.356-1.388-1.5-2.504-2.899-2.812-2.553-.562-4.81,1.366-4.81,3.821,0,.859.284,1.646.753,2.292l-4.684,7.075c-.094-.007-.183-.028-.279-.028-2.466,0-4.4,2.277-3.814,4.843.323,1.416,1.474,2.567,2.89,2.89,2.566.586,4.843-1.348,4.843-3.814,0-1.153-.507-2.18-1.3-2.897l4.386-6.625c.358.108.731.183,1.124.183s.766-.076,1.124-.183l4.386,6.625c-1.013.917-1.56,2.338-1.178,3.884.344,1.389,1.482,2.51,2.877,2.828,2.564.583,4.839-1.35,4.839-3.815,0-2.165-1.755-3.919-3.919-3.919Z"/>
    </g>
  </g>
  <g>
    <path class="cls-3" d="m28.452,15.14v27.721c0,3.45,2.808,6.244,6.257,6.235,25.312-.061,37.721-.046,63.046-.044,3.444,0,6.242-2.791,6.242-6.235V15.186c0-3.441-2.787-6.231-6.228-6.235l-63.075-.046c-3.447-.004-6.243,2.789-6.243,6.235Z"/>
    <text class="cls-5" transform="translate(38.832 36.838)"><tspan x="0" y="0">모든</tspan></text>
    <path class="cls-1" d="m90.419,25.106c1.503,0,3.006-.003,4.509.001.951.003,1.744.288,2.197,1.211.47.958.064,1.702-.534,2.425-1.451,1.754-2.859,3.543-4.343,5.268-1.318,1.533-2.389,1.523-3.72-.029-1.519-1.771-2.972-3.598-4.452-5.402-.521-.635-.812-1.313-.452-2.145.374-.865,1.045-1.293,1.954-1.309,1.614-.027,3.228-.008,4.842-.008v-.013Z"/>
  </g>
  <text class="cls-6" transform="translate(118.818 37.348)"><tspan x="0" y="0">코드 멈추기</tspan></text>
</svg>