<?xml version="1.0" encoding="UTF-8"?>
<svg id="_레이어_1" data-name="레이어 1" xmlns="http://www.w3.org/2000/svg" viewBox="0 0 336.295 77.378">
  <defs>
    <style>
      .cls-1, .cls-2 {
        fill: #fefefe;
      }

      .cls-1, .cls-3, .cls-4 {
        stroke-width: 0px;
      }

      .cls-5 {
        stroke: #009400;
        stroke-miterlimit: 10;
        stroke-width: 2px;
      }

      .cls-5, .cls-4 {
        fill: #00b300;
      }

      .cls-2 {
        font-family: Pretendard-Bold-KSCpc-EUC-H, Pretendard;
        font-size: 26px;
        font-weight: 700;
      }

      .cls-3 {
        fill: #fafdfa;
      }
    </style>
  </defs>
  <path class="cls-5" d="m334.856,33.954c-2.293-12.791-13.66-22.101-26.741-22.14-81.918-.248-163.835-.501-245.753-.712-2.727-.007-4.859-.438-7.168-2.399C48.028,2.617,39.547.119,30.1,1.274,20.381,2.463,12.681,7.161,7.067,15.04,2.193,21.879.212,29.582,1.283,38.024c1.177,9.281,5.523,16.675,12.825,22.461,2.333,1.849,6.893,4.567,6.893,4.567l11.959,10.71c.84.872,1.302.777,2.094-.032l11.135-10.678c86.873.298,175.353.627,262.226.887.891.002,1.782-.029,2.673-.045.198-.088.388-.231.594-.256,15.315-1.89,25.945-16.233,23.175-31.684Z"/>
  <path class="cls-1" d="m34.016,62.097c-15.48-.051-28.037-12.66-27.997-28.114.04-15.539,12.694-28.067,28.28-27.997,15.45.069,27.973,12.72,27.913,28.197-.06,15.443-12.708,27.964-28.196,27.914Z"/>
  <path class="cls-4" d="m22.752,33.067c.099-1.896-.183-4.236.152-6.562.711-4.937,4.657-8.567,9.628-8.799,1.609-.075,3.236-.154,4.823.234,4.693,1.146,7.831,5.11,7.914,10.093.06,3.614.045,7.23.006,10.844-.07,6.422-4.581,10.616-11.359,10.611-6.621-.005-11.083-4.255-11.16-10.647-.021-1.779-.003-3.559-.003-5.774Z"/>
  <path class="cls-3" d="m32.083,26.919c.035-.717.008-1.442.123-2.144.154-.937.826-1.465,1.736-1.493.99-.03,1.793.497,1.874,1.509.118,1.478.107,2.978-.004,4.457-.07.929-.81,1.468-1.722,1.499-.995.033-1.71-.518-1.884-1.517-.131-.754-.088-1.539-.124-2.311Z"/>
  <text class="cls-2" transform="translate(73.185 46.255) rotate(.173)"><tspan x="0" y="0">오브젝트를 클릭했을 때</tspan></text>
</svg>