<?xml version="1.0" encoding="UTF-8"?>
<svg id="_레이어_2" data-name="레이어 2" xmlns="http://www.w3.org/2000/svg" viewBox="0 0 728.469 813.485">
  <defs>
    <style>
      .cls-1 {
        fill: #575e75;
        font-size: 26.581px;
      }

      .cls-1, .cls-2, .cls-3 {
        font-family: D2Coding, D2Coding;
      }

      .cls-4 {
        stroke: #bfbfbf;
      }

      .cls-4, .cls-2, .cls-5, .cls-6, .cls-3 {
        fill: #fff;
      }

      .cls-4, .cls-7, .cls-8, .cls-5, .cls-9, .cls-10, .cls-11, .cls-12, .cls-13 {
        stroke-miterlimit: 10;
      }

      .cls-14 {
        fill: #1874cd;
      }

      .cls-14, .cls-6, .cls-15, .cls-16, .cls-17 {
        stroke-width: 0px;
      }

      .cls-2 {
        font-size: 26px;
      }

      .cls-7 {
        fill: #d400d4;
        stroke: #9f009f;
      }

      .cls-7, .cls-8, .cls-9, .cls-11, .cls-12 {
        stroke-width: 1.5px;
      }

      .cls-8 {
        fill: #e63022;
      }

      .cls-8, .cls-9 {
        stroke: #ad241a;
      }

      .cls-5 {
        stroke: #039799;
      }

      .cls-15 {
        fill: #b4281d;
      }

      .cls-3 {
        font-size: 25px;
      }

      .cls-9 {
        fill: #c4291d;
      }

      .cls-10 {
        stroke: #99dbdb;
      }

      .cls-10, .cls-11, .cls-13 {
        fill: #00a4a6;
      }

      .cls-11, .cls-13 {
        stroke: #007b7d;
      }

      .cls-12 {
        fill: #1e90ff;
        stroke: #176cbf;
      }

      .cls-16 {
        fill: #1e85e9;
      }

      .cls-17 {
        fill: #d22e22;
      }
    </style>
  </defs>
  <g>
    <path class="cls-11" d="m57.622,164.301h13.331c1.723,0,3.364.74,4.505,2.031l8.586,9.72c1.141,1.292,2.781,2.031,4.505,2.031h21.05c1.691,0,3.304-.712,4.443-1.963l8.981-9.857c1.139-1.25,2.752-1.962,4.443-1.962h594.243c3.32,0,6.011-2.691,6.011-6.011v-75.395c0-3.32-2.691-6.011-6.011-6.011H102.24c-1.691,0-3.304.712-4.443,1.963l-8.981,9.857c-1.139,1.25-2.752,1.962-4.443,1.962h-21.051c-1.723,0-3.364-.74-4.505-2.031l-8.586-9.72c-1.141-1.292-2.781-2.031-4.505-2.031h-13.525c-3.32,0-6.011,2.691-6.011,6.011v672.198c0,3.32,2.691,6.011,6.011,6.011h13.525c1.723,0,3.364.74,4.505,2.031l8.586,9.72c1.141,1.292,2.781,2.031,4.505,2.031h21.051c1.691,0,3.304-.712,4.443-1.962l8.981-9.857c1.139-1.25,2.752-1.963,4.443-1.963h619.469c3.32,0,6.011-2.691,6.011-6.011v-39.586c0-3.32-2.691-6.011-6.011-6.011H127.465c-1.691,0-3.304.712-4.443,1.962l-8.981,9.857c-1.139,1.25-2.752,1.962-4.443,1.962h-21.05c-1.723,0-3.364-.74-4.505-2.031l-8.586-9.72c-1.141-1.292-2.781-2.031-4.505-2.031h-13.331c-3.32,0-6.011-2.691-6.011-6.011v-89.6c0-3.502,2.839-6.34,6.34-6.34h13.027c1.723,0,3.364.74,4.504,2.031l8.586,9.72c1.141,1.292,2.781,2.031,4.505,2.031h21.051c1.691,0,3.304-.712,4.443-1.963l8.981-9.857c1.139-1.25,2.752-1.962,4.443-1.962h594.217c3.32,0,6.011-2.691,6.011-6.011v-64.394c0-3.32-2.691-6.011-6.011-6.011H127.614c-1.691,0-3.304.712-4.443,1.962l-8.981,9.857c-1.139,1.25-2.752,1.963-4.443,1.963h-21.05c-1.723,0-3.364-.74-4.505-2.031l-8.586-9.72c-1.141-1.292-2.782-2.031-4.505-2.031h-13.449c-3.336,0-6.04-2.704-6.04-6.04v-89.373c0-3.626,2.94-6.566,6.566-6.566h12.802c1.723,0,3.364.74,4.504,2.031l8.586,9.72c1.141,1.292,2.781,2.031,4.505,2.031h21.05c1.691,0,3.304-.712,4.443-1.963l8.981-9.857c1.139-1.25,2.752-1.962,4.442-1.962h594.217c3.32,0,6.011-2.691,6.011-6.011v-75.395c0-3.32-2.691-6.011-6.011-6.011H127.614c-1.691,0-3.304.712-4.443,1.962l-8.981,9.857c-1.139,1.25-2.752,1.963-4.443,1.963h-21.05c-1.723,0-3.364-.74-4.505-2.031l-8.586-9.72c-1.141-1.292-2.782-2.031-4.505-2.031h-13.21c-3.468,0-6.279-2.811-6.279-6.279v-165.146c0-3.32,2.691-6.011,6.011-6.011Z"/>
    <text class="cls-3" transform="translate(43.484 392.117)"><tspan x="0" y="0">아니고 만약</tspan></text>
    <text class="cls-3" transform="translate(43.484 576.512)"><tspan x="0" y="0">아니면</tspan></text>
    <text class="cls-3" transform="translate(40.477 128.267)"><tspan x="0" y="0">만약</tspan></text>
    <text class="cls-3" transform="translate(522.404 128.265)"><tspan x="0" y="0">이면</tspan></text>
    <g>
      <path class="cls-6" d="m66.726,730.917h-5.774v-5.774c0-.481-.39-.871-.871-.871h-3.936c-.481,0-.871.39-.871.871v5.774h-5.774c-.481,0-.871.39-.871.871v3.936c0,.481.39.871.871.871h5.774v5.774c0,.481.39.871.871.871h3.936c.481,0,.871-.39.871-.871v-5.774h5.774c.481,0,.871-.39.871-.871v-3.936c0-.481-.39-.871-.871-.871Z"/>
      <path class="cls-6" d="m58.113,751.384c-9.721,0-17.629-7.908-17.629-17.629s7.908-17.629,17.629-17.629,17.629,7.908,17.629,17.629-7.909,17.629-17.629,17.629Zm0-32.258c-8.066,0-14.629,6.562-14.629,14.629s6.562,14.629,14.629,14.629,14.629-6.562,14.629-14.629-6.562-14.629-14.629-14.629Z"/>
    </g>
    <g>
      <rect class="cls-6" x="688.469" y="382.439" width="18.968" height="5.677" rx=".871" ry=".871"/>
      <path class="cls-6" d="m697.952,402.906c-9.721,0-17.629-7.908-17.629-17.629s7.908-17.629,17.629-17.629,17.629,7.908,17.629,17.629-7.909,17.629-17.629,17.629Zm0-32.258c-8.066,0-14.629,6.562-14.629,14.629s6.563,14.629,14.629,14.629,14.629-6.562,14.629-14.629-6.562-14.629-14.629-14.629Z"/>
    </g>
    <g>
      <rect class="cls-6" x="688.469" y="566.131" width="18.968" height="5.677" rx=".871" ry=".871"/>
      <path class="cls-6" d="m697.952,586.599c-9.721,0-17.629-7.908-17.629-17.629s7.908-17.629,17.629-17.629,17.629,7.908,17.629,17.629-7.909,17.629-17.629,17.629Zm0-32.258c-8.066,0-14.629,6.562-14.629,14.629s6.563,14.629,14.629,14.629,14.629-6.562,14.629-14.629-6.562-14.629-14.629-14.629Z"/>
    </g>
    <g>
      <polygon class="cls-10" points="471.375 83.755 142.823 83.755 105.862 120.78 141.823 157.806 471.375 157.806 507.336 120.78 471.375 83.755"/>
      <g>
        <rect class="cls-4" x="392.343" y="95.684" width="77.369" height="50.194" rx="25.097" ry="25.097"/>
        <text class="cls-1" transform="translate(409.827 130.114)"><tspan x="0" y="0">200</tspan></text>
      </g>
      <g>
        <rect class="cls-13" x="310.536" y="96.43" width="69.286" height="49.591" rx="4.373" ry="4.373"/>
        <path class="cls-6" d="m326.016,121.75l7.62-3.385-7.62-3.384v-2.701l10.035,4.861v2.448l-10.035,4.824v-2.664Zm0,3.924h10.035v2.484h-10.035v-2.484Z"/>
        <path class="cls-5" d="m356.606,125.691l-6.566-6.153c-1.259-1.18-.424-3.293,1.302-3.293h13.132c1.726,0,2.561,2.113,1.302,3.293l-6.566,6.153c-.732.686-1.871.686-2.603,0Z"/>
      </g>
      <g>
        <rect class="cls-7" x="144.255" y="90.644" width="153.395" height="60.272" rx="30.136" ry="30.136"/>
        <text class="cls-3" transform="translate(164.702 127.817)"><tspan x="0" y="0">소리 크기</tspan></text>
      </g>
    </g>
    <g>
      <polygon class="cls-10" points="562.295 348.761 233.743 348.761 196.782 385.787 232.743 422.813 562.295 422.813 598.256 385.787 562.295 348.761"/>
      <g>
        <rect class="cls-4" x="483.263" y="360.69" width="77.369" height="50.194" rx="25.097" ry="25.097"/>
        <text class="cls-1" transform="translate(500.747 395.121)"><tspan x="0" y="0">100</tspan></text>
      </g>
      <g>
        <rect class="cls-7" x="235.175" y="355.651" width="153.395" height="60.272" rx="30.136" ry="30.136"/>
        <text class="cls-3" transform="translate(255.622 392.825)"><tspan x="0" y="0">소리 크기</tspan></text>
      </g>
      <g>
        <rect class="cls-13" x="401.456" y="361.437" width="69.286" height="49.591" rx="4.373" ry="4.373"/>
        <path class="cls-6" d="m416.936,386.757l7.62-3.385-7.62-3.384v-2.701l10.035,4.861v2.448l-10.035,4.824v-2.664Zm0,3.924h10.035v2.484h-10.035v-2.484Z"/>
        <path class="cls-5" d="m447.526,390.698l-6.566-6.153c-1.259-1.18-.424-3.293,1.302-3.293h13.132c1.726,0,2.561,2.113,1.302,3.293l-6.566,6.153c-.732.686-1.871.686-2.603,0Z"/>
      </g>
    </g>
  </g>
  <g>
    <path class="cls-12" d="m84.158,774.911h-21.05c-1.723,0-3.364-.74-4.505-2.031l-8.586-9.72c-1.141-1.292-2.781-2.031-4.505-2.031h-13.331c-3.32,0-6.011-2.691-6.011-6.011V83.176c0-3.32,2.691-6.011,6.011-6.011h13.331c1.723,0,3.364.74,4.505,2.031l8.586,9.72c1.141,1.292,2.781,2.031,4.505,2.031h21.05c1.691,0,3.304-.712,4.443-1.963l8.981-9.857c1.139-1.25,2.752-1.963,4.443-1.963h136.629c3.32,0,6.011-2.691,6.011-6.011V6.761c0-3.32-2.691-6.011-6.011-6.011H6.761C3.441.75.75,3.441.75,6.761v799.964c0,3.32,2.691,6.011,6.011,6.011h231.893c3.32,0,6.011-2.691,6.011-6.011v-39.586c0-3.32-2.691-6.011-6.011-6.011H102.025c-1.691,0-3.304.712-4.443,1.963l-8.981,9.857c-1.139,1.25-2.752,1.963-4.443,1.963Z"/>
    <text class="cls-3" transform="translate(15.706 44.444)"><tspan x="0" y="0">무한반복</tspan></text>
  </g>
  <g>
    <path class="cls-12" d="m127.524,607.5c-1.691,0-3.304.712-4.443,1.962l-8.981,9.857c-1.139,1.25-2.752,1.963-4.443,1.963h-21.051c-1.723,0-3.364-.74-4.505-2.031l-8.586-9.72c-1.141-1.292-2.781-2.031-4.505-2.031h-13.331c-3.32,0-6.011,2.691-6.011,6.011v89.914c0,3.32,2.691,6.011,6.011,6.011h13.331c1.723,0,3.364.74,4.505,2.031l8.586,9.72c1.141,1.292,2.781,2.031,4.505,2.031h21.051c1.691,0,3.304-.712,4.443-1.963l8.981-9.857c1.139-1.25,2.752-1.962,4.443-1.962h228.573c3.154,0,5.711-2.557,5.711-5.711v-90.514c0-3.154-2.557-5.711-5.711-5.711H127.524Z"/>
    <text class="cls-2" transform="translate(66.79 665.485)"><tspan x="0" y="0">아이콘 출력</tspan></text>
    <g>
      <rect class="cls-12" x="231.779" y="620.357" width="116.71" height="75.29" rx="6.387" ry="6.387"/>
      <g>
        <rect class="cls-14" x="246.247" y="630.252" width="8.661" height="8.661" rx="1.016" ry="1.016"/>
        <rect class="cls-14" x="257.981" y="630.252" width="8.661" height="8.661" rx="1.016" ry="1.016"/>
        <rect class="cls-14" x="269.715" y="630.252" width="8.661" height="8.661" rx="1.016" ry="1.016"/>
        <rect class="cls-14" x="281.449" y="630.252" width="8.661" height="8.661" rx="1.016" ry="1.016"/>
        <rect class="cls-14" x="293.183" y="630.252" width="8.661" height="8.661" rx="1.016" ry="1.016"/>
        <rect class="cls-14" x="246.247" y="641.962" width="8.661" height="8.661" rx="1.016" ry="1.016"/>
        <rect class="cls-6" x="257.981" y="641.962" width="8.661" height="8.661" rx="1.016" ry="1.016"/>
        <rect class="cls-14" x="269.715" y="641.962" width="8.661" height="8.661" rx="1.016" ry="1.016"/>
        <rect class="cls-6" x="281.449" y="641.962" width="8.661" height="8.661" rx="1.016" ry="1.016"/>
        <rect class="cls-14" x="293.183" y="641.962" width="8.661" height="8.661" rx="1.016" ry="1.016"/>
        <rect class="cls-14" x="246.247" y="653.672" width="8.661" height="8.661" rx="1.016" ry="1.016"/>
        <rect class="cls-14" x="257.981" y="653.672" width="8.661" height="8.661" rx="1.016" ry="1.016"/>
        <rect class="cls-14" x="269.715" y="653.672" width="8.661" height="8.661" rx="1.016" ry="1.016"/>
        <rect class="cls-14" x="281.449" y="653.672" width="8.661" height="8.661" rx="1.016" ry="1.016"/>
        <rect class="cls-14" x="293.183" y="653.672" width="8.661" height="8.661" rx="1.016" ry="1.016"/>
        <rect class="cls-6" x="246.247" y="665.381" width="8.661" height="8.661" rx="1.016" ry="1.016"/>
        <rect class="cls-14" x="257.981" y="665.381" width="8.661" height="8.661" rx="1.016" ry="1.016"/>
        <rect class="cls-14" x="269.715" y="665.381" width="8.661" height="8.661" rx="1.016" ry="1.016"/>
        <rect class="cls-14" x="281.449" y="665.381" width="8.661" height="8.661" rx="1.016" ry="1.016"/>
        <rect class="cls-6" x="293.183" y="665.381" width="8.661" height="8.661" rx="1.016" ry="1.016"/>
        <rect class="cls-14" x="246.247" y="677.091" width="8.661" height="8.661" rx="1.016" ry="1.016"/>
        <rect class="cls-6" x="257.981" y="677.091" width="8.661" height="8.661" rx="1.016" ry="1.016"/>
        <rect class="cls-6" x="269.715" y="677.091" width="8.661" height="8.661" rx="1.016" ry="1.016"/>
        <rect class="cls-6" x="281.449" y="677.091" width="8.661" height="8.661" rx="1.016" ry="1.016"/>
        <rect class="cls-14" x="293.183" y="677.091" width="8.661" height="8.661" rx="1.016" ry="1.016"/>
      </g>
      <g>
        <path class="cls-6" d="m325.07,662.889c-.436,0-.851-.165-1.169-.463l-6.78-6.353c-.516-.483-.681-1.22-.421-1.876.26-.657.884-1.082,1.59-1.082h13.56c.707,0,1.331.424,1.59,1.082s.094,1.394-.421,1.876l-6.78,6.353c-.318.298-.733.463-1.169.463Z"/>
        <path class="cls-16" d="m331.85,653.616c1.097,0,1.628,1.343.827,2.093l-6.78,6.353c-.233.218-.53.327-.827.327s-.595-.109-.827-.327l-6.78-6.353c-.801-.75-.27-2.093.827-2.093h13.56m0-1h-13.56c-.913,0-1.72.549-2.055,1.398-.336.849-.122,1.801.544,2.425l6.78,6.353c.411.385.948.597,1.511.597s1.1-.212,1.511-.597l6.78-6.353c.666-.624.88-1.576.544-2.425-.336-.849-1.142-1.398-2.055-1.398h0Z"/>
      </g>
    </g>
  </g>
  <g>
    <path class="cls-12" d="m127.524,429.2c-1.691,0-3.304.712-4.443,1.962l-8.981,9.857c-1.139,1.25-2.752,1.963-4.443,1.963h-21.051c-1.723,0-3.364-.74-4.505-2.031l-8.586-9.72c-1.141-1.292-2.781-2.031-4.505-2.031h-13.331c-3.32,0-6.011,2.691-6.011,6.011v89.914c0,3.32,2.691,6.011,6.011,6.011h13.331c1.723,0,3.364.74,4.505,2.031l8.586,9.72c1.141,1.292,2.781,2.031,4.505,2.031h21.051c1.691,0,3.304-.712,4.443-1.963l8.981-9.857c1.139-1.25,2.752-1.962,4.443-1.962h228.573c3.154,0,5.711-2.557,5.711-5.711v-90.514c0-3.154-2.557-5.711-5.711-5.711H127.524Z"/>
    <text class="cls-2" transform="translate(66.79 487.185)"><tspan x="0" y="0">아이콘 출력</tspan></text>
    <g>
      <rect class="cls-12" x="231.779" y="442.057" width="116.71" height="75.29" rx="6.387" ry="6.387"/>
      <g>
        <rect class="cls-14" x="246.247" y="451.952" width="8.661" height="8.661" rx="1.016" ry="1.016"/>
        <rect class="cls-6" x="257.981" y="451.952" width="8.661" height="8.661" rx="1.016" ry="1.016"/>
        <rect class="cls-14" x="269.715" y="451.952" width="8.661" height="8.661" rx="1.016" ry="1.016"/>
        <rect class="cls-6" x="281.449" y="451.952" width="8.661" height="8.661" rx="1.016" ry="1.016"/>
        <rect class="cls-14" x="293.183" y="451.952" width="8.661" height="8.661" rx="1.016" ry="1.016"/>
        <rect class="cls-14" x="246.247" y="463.662" width="8.661" height="8.661" rx="1.016" ry="1.016"/>
        <rect class="cls-14" x="257.981" y="463.662" width="8.661" height="8.661" rx="1.016" ry="1.016"/>
        <rect class="cls-14" x="269.715" y="463.662" width="8.661" height="8.661" rx="1.016" ry="1.016"/>
        <rect class="cls-14" x="281.449" y="463.662" width="8.661" height="8.661" rx="1.016" ry="1.016"/>
        <rect class="cls-14" x="293.183" y="463.662" width="8.661" height="8.661" rx="1.016" ry="1.016"/>
        <rect class="cls-14" x="246.247" y="475.371" width="8.661" height="8.661" rx="1.016" ry="1.016"/>
        <rect class="cls-14" x="257.981" y="475.371" width="8.661" height="8.661" rx="1.016" ry="1.016"/>
        <rect class="cls-6" x="269.715" y="475.371" width="8.661" height="8.661" rx="1.016" ry="1.016"/>
        <rect class="cls-14" x="281.449" y="475.371" width="8.661" height="8.661" rx="1.016" ry="1.016"/>
        <rect class="cls-14" x="293.183" y="475.371" width="8.661" height="8.661" rx="1.016" ry="1.016"/>
        <rect class="cls-14" x="246.247" y="487.081" width="8.661" height="8.661" rx="1.016" ry="1.016"/>
        <rect class="cls-6" x="257.981" y="487.081" width="8.661" height="8.661" rx="1.016" ry="1.016"/>
        <rect class="cls-14" x="269.715" y="487.081" width="8.661" height="8.661" rx="1.016" ry="1.016"/>
        <rect class="cls-6" x="281.449" y="487.081" width="8.661" height="8.661" rx="1.016" ry="1.016"/>
        <rect class="cls-14" x="293.183" y="487.081" width="8.661" height="8.661" rx="1.016" ry="1.016"/>
        <rect class="cls-14" x="246.247" y="498.791" width="8.661" height="8.661" rx="1.016" ry="1.016"/>
        <rect class="cls-14" x="257.981" y="498.791" width="8.661" height="8.661" rx="1.016" ry="1.016"/>
        <rect class="cls-6" x="269.715" y="498.791" width="8.661" height="8.661" rx="1.016" ry="1.016"/>
        <rect class="cls-14" x="281.449" y="498.791" width="8.661" height="8.661" rx="1.016" ry="1.016"/>
        <rect class="cls-14" x="293.183" y="498.791" width="8.661" height="8.661" rx="1.016" ry="1.016"/>
      </g>
      <g>
        <path class="cls-6" d="m325.07,484.589c-.436,0-.851-.164-1.169-.462l-6.78-6.354c-.516-.483-.681-1.22-.421-1.876.26-.657.884-1.082,1.59-1.082h13.56c.707,0,1.331.424,1.59,1.082s.094,1.394-.421,1.876l-6.78,6.354c-.318.298-.733.462-1.169.462Z"/>
        <path class="cls-16" d="m331.85,475.315c1.097,0,1.628,1.343.827,2.093l-6.78,6.353c-.233.218-.53.327-.827.327s-.595-.109-.827-.327l-6.78-6.353c-.801-.75-.27-2.093.827-2.093h13.56m0-1h-13.56c-.913,0-1.72.549-2.055,1.398-.336.849-.122,1.801.544,2.425l6.78,6.353c.411.385.948.597,1.511.597s1.1-.212,1.511-.597l6.78-6.353c.666-.624.88-1.576.544-2.425-.336-.849-1.142-1.398-2.055-1.398h0Z"/>
      </g>
    </g>
  </g>
  <g>
    <path class="cls-12" d="m127.524,163.608c-1.691,0-3.304.712-4.443,1.962l-8.981,9.857c-1.139,1.25-2.752,1.963-4.443,1.963h-21.051c-1.723,0-3.364-.74-4.505-2.031l-8.586-9.72c-1.141-1.292-2.781-2.031-4.505-2.031h-13.331c-3.32,0-6.011,2.691-6.011,6.011v89.914c0,3.32,2.691,6.011,6.011,6.011h13.331c1.723,0,3.364.74,4.505,2.031l8.586,9.72c1.141,1.292,2.781,2.031,4.505,2.031h21.051c1.691,0,3.304-.712,4.443-1.963l8.981-9.857c1.139-1.25,2.752-1.962,4.443-1.962h228.573c3.154,0,5.711-2.557,5.711-5.711v-90.514c0-3.154-2.557-5.711-5.711-5.711H127.524Z"/>
    <text class="cls-2" transform="translate(66.79 221.593)"><tspan x="0" y="0">아이콘 출력</tspan></text>
    <g>
      <rect class="cls-12" x="231.779" y="176.465" width="116.71" height="75.29" rx="6.387" ry="6.387"/>
      <g>
        <rect class="cls-6" x="246.247" y="186.36" width="8.661" height="8.661" rx="1.016" ry="1.016"/>
        <rect class="cls-14" x="257.981" y="186.36" width="8.661" height="8.661" rx="1.016" ry="1.016"/>
        <rect class="cls-14" x="269.715" y="186.36" width="8.661" height="8.661" rx="1.016" ry="1.016"/>
        <rect class="cls-14" x="281.449" y="186.36" width="8.661" height="8.661" rx="1.016" ry="1.016"/>
        <rect class="cls-6" x="293.183" y="186.36" width="8.661" height="8.661" rx="1.016" ry="1.016"/>
        <rect class="cls-14" x="246.247" y="198.07" width="8.661" height="8.661" rx="1.016" ry="1.016"/>
        <rect class="cls-6" x="257.981" y="198.07" width="8.661" height="8.661" rx="1.016" ry="1.016"/>
        <rect class="cls-14" x="269.715" y="198.07" width="8.661" height="8.661" rx="1.016" ry="1.016"/>
        <rect class="cls-6" x="281.449" y="198.07" width="8.661" height="8.661" rx="1.016" ry="1.016"/>
        <rect class="cls-14" x="293.183" y="198.07" width="8.661" height="8.661" rx="1.016" ry="1.016"/>
        <rect class="cls-14" x="246.247" y="209.779" width="8.661" height="8.661" rx="1.016" ry="1.016"/>
        <rect class="cls-14" x="257.981" y="209.779" width="8.661" height="8.661" rx="1.016" ry="1.016"/>
        <rect class="cls-14" x="269.715" y="209.779" width="8.661" height="8.661" rx="1.016" ry="1.016"/>
        <rect class="cls-14" x="281.449" y="209.779" width="8.661" height="8.661" rx="1.016" ry="1.016"/>
        <rect class="cls-14" x="293.183" y="209.779" width="8.661" height="8.661" rx="1.016" ry="1.016"/>
        <rect class="cls-6" x="246.247" y="221.489" width="8.661" height="8.661" rx="1.016" ry="1.016"/>
        <rect class="cls-6" x="257.981" y="221.489" width="8.661" height="8.661" rx="1.016" ry="1.016"/>
        <rect class="cls-6" x="269.715" y="221.489" width="8.661" height="8.661" rx="1.016" ry="1.016"/>
        <rect class="cls-6" x="281.449" y="221.489" width="8.661" height="8.661" rx="1.016" ry="1.016"/>
        <rect class="cls-6" x="293.183" y="221.489" width="8.661" height="8.661" rx="1.016" ry="1.016"/>
        <rect class="cls-6" x="246.247" y="233.199" width="8.661" height="8.661" rx="1.016" ry="1.016"/>
        <rect class="cls-14" x="257.981" y="233.199" width="8.661" height="8.661" rx="1.016" ry="1.016"/>
        <rect class="cls-6" x="269.715" y="233.199" width="8.661" height="8.661" rx="1.016" ry="1.016"/>
        <rect class="cls-14" x="281.449" y="233.199" width="8.661" height="8.661" rx="1.016" ry="1.016"/>
        <rect class="cls-6" x="293.183" y="233.199" width="8.661" height="8.661" rx="1.016" ry="1.016"/>
      </g>
      <g>
        <path class="cls-6" d="m325.07,218.997c-.436,0-.851-.164-1.169-.462l-6.78-6.353c-.516-.483-.681-1.22-.421-1.877s.884-1.081,1.59-1.081h13.56c.707,0,1.331.424,1.59,1.081.26.657.094,1.394-.421,1.877l-6.78,6.353c-.318.298-.733.462-1.169.462Z"/>
        <path class="cls-16" d="m331.85,209.723c1.097,0,1.628,1.343.827,2.093l-6.78,6.353c-.233.218-.53.327-.827.327s-.595-.109-.827-.327l-6.78-6.353c-.801-.75-.27-2.093.827-2.093h13.56m0-1h-13.56c-.913,0-1.72.549-2.055,1.398-.336.849-.122,1.801.544,2.425l6.78,6.353c.411.385.948.597,1.511.597s1.1-.212,1.511-.597l6.78-6.353c.666-.624.88-1.576.544-2.425-.336-.849-1.142-1.398-2.055-1.398h0Z"/>
      </g>
    </g>
  </g>
  <g>
    <path class="cls-8" d="m127.524,265.696c-1.691,0-3.304.712-4.443,1.962l-8.981,9.857c-1.139,1.25-2.752,1.963-4.443,1.963h-21.051c-1.723,0-3.364-.74-4.505-2.031l-8.586-9.72c-1.141-1.292-2.781-2.031-4.505-2.031h-13.331c-3.32,0-6.011,2.691-6.011,6.011v63.097c0,3.32,2.691,6.011,6.011,6.011h13.331c1.723,0,3.364.74,4.505,2.031l8.586,9.72c1.141,1.292,2.781,2.031,4.505,2.031h21.051c1.691,0,3.304-.712,4.443-1.963l8.981-9.857c1.139-1.25,2.752-1.962,4.443-1.962h376.455c3.154,0,5.711-2.557,5.711-5.711v-63.697c0-3.154-2.557-5.711-5.711-5.711H127.524Z"/>
    <text class="cls-2" transform="translate(64.21 310.866)"><tspan x="0" y="0">재생</tspan></text>
    <g>
      <rect class="cls-9" x="129.664" y="277.319" width="121.755" height="50.839" rx="25.419" ry="25.419"/>
      <text class="cls-2" transform="translate(148.596 310.866)"><tspan x="0" y="0">슬픔</tspan></text>
      <g>
        <path class="cls-6" d="m222.258,308.83c-.436,0-.851-.164-1.169-.462l-6.78-6.354c-.516-.483-.681-1.22-.421-1.876.259-.657.884-1.082,1.59-1.082h13.56c.707,0,1.331.424,1.59,1.082.26.657.095,1.394-.421,1.876l-6.78,6.353c-.318.298-.734.462-1.169.462Z"/>
        <path class="cls-15" d="m229.038,299.556c1.097,0,1.628,1.343.827,2.093l-6.78,6.353c-.233.218-.53.327-.827.327s-.595-.109-.827-.327l-6.78-6.353c-.801-.75-.27-2.093.827-2.093h13.56m0-1h-13.56c-.913,0-1.72.549-2.055,1.398s-.122,1.801.544,2.425l6.78,6.353c.411.385.948.597,1.511.597s1.1-.212,1.511-.597l6.78-6.353c.666-.624.88-1.576.544-2.425s-1.142-1.398-2.055-1.398h0Z"/>
      </g>
    </g>
    <g>
      <rect class="cls-8" x="263.109" y="277.319" width="233.29" height="50.839" rx="6.097" ry="6.097"/>
      <text class="cls-2" transform="translate(275.626 310.866)"><tspan x="0" y="0">완료될 때까지</tspan></text>
      <g>
        <path class="cls-6" d="m472.322,308.83c-.436,0-.851-.164-1.169-.462l-6.78-6.354c-.516-.483-.681-1.22-.421-1.876.259-.657.884-1.082,1.59-1.082h13.56c.707,0,1.331.424,1.59,1.082.26.657.095,1.394-.421,1.876l-6.78,6.353c-.318.298-.733.462-1.169.462Z"/>
        <path class="cls-17" d="m479.102,299.556c1.097,0,1.628,1.343.827,2.093l-6.78,6.353c-.233.218-.53.327-.827.327s-.595-.109-.827-.327l-6.78-6.353c-.801-.75-.27-2.093.827-2.093h13.56m0-1h-13.56c-.913,0-1.72.549-2.055,1.398-.336.849-.122,1.801.544,2.425l6.78,6.353c.411.385.948.597,1.511.597s1.1-.212,1.511-.597l6.78-6.353c.666-.624.88-1.576.544-2.425-.336-.849-1.142-1.398-2.055-1.398h0Z"/>
      </g>
    </g>
  </g>
</svg>