<?xml version="1.0" encoding="UTF-8"?>
<svg id="_레이어_1" data-name="레이어 1" xmlns="http://www.w3.org/2000/svg" viewBox="0 0 759.913 300.029">
  <defs>
    <style>
      .cls-1, .cls-2, .cls-3, .cls-4, .cls-5, .cls-6, .cls-7, .cls-8, .cls-9, .cls-10, .cls-11, .cls-12 {
        stroke-width: 0px;
      }

      .cls-1, .cls-13, .cls-14, .cls-15 {
        fill: #fefefe;
      }

      .cls-2 {
        fill: #b819b3;
      }

      .cls-3 {
        fill: #c72042;
      }

      .cls-16 {
        fill: #fff;
      }

      .cls-16, .cls-13, .cls-14, .cls-17, .cls-15 {
        font-family: Pretendard-Bold-KSCpc-EUC-H, Pretendard;
        font-weight: 700;
      }

      .cls-16, .cls-14, .cls-17 {
        font-size: 22px;
      }

      .cls-16, .cls-17 {
        letter-spacing: -.025em;
      }

      .cls-4 {
        fill: #fefdfe;
      }

      .cls-5 {
        fill: #c62042;
      }

      .cls-18 {
        fill: #fe3a61;
        stroke: #c62142;
      }

      .cls-18, .cls-19, .cls-20 {
        stroke-width: 2px;
      }

      .cls-18, .cls-20 {
        stroke-linecap: round;
        stroke-linejoin: round;
      }

      .cls-19 {
        stroke: #009400;
        stroke-miterlimit: 10;
      }

      .cls-19, .cls-12 {
        fill: #00b300;
      }

      .cls-13, .cls-15 {
        font-size: 26px;
      }

      .cls-6 {
        fill: #b719b2;
      }

      .cls-20 {
        fill: #dd47d8;
        stroke: #b819b3;
      }

      .cls-7 {
        fill: #f577f1;
      }

      .cls-8 {
        fill: #fedd81;
      }

      .cls-9 {
        fill: #f677f2;
      }

      .cls-15 {
        letter-spacing: -.025em;
      }

      .cls-10 {
        fill: #fe9b00;
      }

      .cls-11 {
        fill: #fe5576;
      }
    </style>
  </defs>
  <g>
    <path class="cls-19" d="m21.64,65.053s-5.2-2.719-7.532-4.568c-7.301-5.786-11.647-13.18-12.825-22.461C.212,29.582,2.193,21.879,7.067,15.04,12.681,7.161,20.381,2.463,30.1,1.274c9.447-1.156,17.928,1.343,25.093,7.428,2.309,1.961,4.441,2.392,7.168,2.399,81.918.211,206.847.465,288.764.713,13.081.04,24.448,9.349,26.741,22.14,2.77,15.451-7.86,29.794-23.175,31.684-.205.025-.396.168-.594.256-.891.016-1.782.048-2.673.045-86.874-.26-216.759-.518-303.632-.816-1.521-.005-2.596.406-3.649,1.498-2.976,3.089-6.092,6.042-9.092,9.109-.791.809-1.254.903-2.094.031-3.131-3.25-6.346-6.419-9.533-9.615-.505-.507-1.787-1.095-1.787-1.095Z"/>
    <text class="cls-15" transform="translate(73.185 46.251) rotate(.173)"><tspan x="0" y="0">시작하기 버튼을 클릭했을 때</tspan></text>
    <g>
      <path class="cls-1" d="m33.876,6.368c15.057.016,27.302,12.292,27.291,27.36-.011,15.09-12.341,27.257-27.589,27.225-15.037-.031-27.234-12.332-27.209-27.441.024-14.987,12.36-27.16,27.508-27.144Z"/>
      <path class="cls-12" d="m26.491,33.605c0-2.979-.003-5.959.002-8.938.001-.871-.04-1.782.9-2.272.89-.464,1.669-.113,2.434.376,4.656,2.978,9.324,5.939,13.977,8.921,2.063,1.322,2.073,2.615.042,3.913-4.656,2.976-9.325,5.932-13.976,8.916-.771.494-1.55.863-2.428.428-.92-.456-.963-1.342-.958-2.244.016-3.033.006-6.067.006-9.101Z"/>
    </g>
  </g>
  <g>
    <path class="cls-20" d="m394.268,64.38H46.777s0,0,0,0l-12.543,11.548s0,0,0,0l-12.023-10.98c-.238-.218-.622-.049-.622.274v54.741c0,.047.011.092.028.135h-.003l.004.004c.02.048.048.093.087.13h.056l11.328,10.345c.663.605,1.678.603,2.338-.005l10.91-10.045c.212-.195.49-.304.779-.304l347.154-.101c15.329,0,27.871-12.542,27.871-27.871h0c0-15.329-12.542-27.871-27.871-27.871Z"/>
    <text class="cls-13" transform="translate(289.655 99.689)"><tspan x="0" y="0">보이기</tspan></text>
    <text class="cls-13" transform="translate(52.332 99.689)"><tspan x="0" y="0">리스트</tspan></text>
    <g>
      <path class="cls-2" d="m191.847,71.806c17.877,0,59.434,0,77.311,0,2.815,0,4.335,2.426,4.336,6.934.003,8.742.003,17.483,0,26.225-.001,4.509-1.521,6.935-4.336,6.935-35.754,0-95.188-.025-130.942.059-2.308.005-4.351-2.765-4.335-6.91.033-8.797.033-17.595,0-26.392-.015-4.145,2.027-6.926,4.335-6.912,17.877.11,35.754.061,53.631.061Z"/>
      <text class="cls-14" transform="translate(144.261 99.689)"><tspan x="0" y="0">간식 리스트</tspan></text>
      <path class="cls-4" d="m257.486,87.955c1.503,0,3.006-.003,4.509.001.951.003,1.744.288,2.197,1.211.47.958.064,1.702-.534,2.425-1.451,1.754-2.859,3.543-4.343,5.268-1.318,1.533-2.389,1.523-3.72-.029-1.519-1.771-2.972-3.598-4.452-5.402-.521-.635-.812-1.313-.452-2.145.374-.865,1.045-1.293,1.954-1.309,1.614-.027,3.228-.008,4.842-.008v-.013Z"/>
    </g>
    <g>
      <path class="cls-6" d="m415.217,92.295c.233,11.599-9.583,22.21-22.59,21.903-11.361-.268-21.522-9.45-21.508-22.104.014-12.581,10.427-22.278,22.629-21.994,11.969.279,21.786,10.209,21.47,22.194Z"/>
      <path class="cls-9" d="m393.485,82.132c1.421.066,3.283.498,4.796,1.905,2.464,2.29,2.614,5.317.342,7.812-.823.903-1.728,1.735-2.634,2.558-.847.769-1.497,1.641-1.723,2.78-.285,1.438-1.202,2.017-2.552,1.624-1.294-.377-1.297-1.572-1.154-2.621.299-2.203,1.86-3.593,3.427-4.952.334-.29.717-.537.999-.87,1.487-1.758,1.36-3.4-.321-4.537-1.47-.995-3.897-.403-4.808,1.208-.326.577-.531,1.221-.815,1.823-.524,1.11-1.42,1.65-2.58,1.204-1.144-.44-1.405-1.351-1.1-2.592.769-3.131,3.806-5.339,8.123-5.343Z"/>
      <path class="cls-7" d="m392.459,104.846c-1.271-.012-2.113-.925-2.059-2.258.054-1.311.741-2.044,2.063-2.095,1.32-.051,2.369,1,2.32,2.267-.048,1.226-1.02,2.098-2.324,2.086Z"/>
    </g>
  </g>
  <g>
    <path class="cls-18" d="m614.913,120.509H46.777s0,0,0,0l-12.543,11.548s0,0,0,0l-12.023-10.98c-.238-.218-.622-.049-.622.274v54.741c0,.047.011.092.028.135h-.003l.004.004c.02.048.048.093.087.13h.056l11.328,10.345c.663.605,1.678.603,2.338-.005l10.91-10.045c.212-.195.49-.304.779-.304l567.799-.101c15.329,0,27.871-12.542,27.871-27.871h0c0-15.329-12.542-27.871-27.871-27.871Z"/>
    <g>
      <path class="cls-5" d="m591.563,148.161c.085-12.114,9.79-22.01,22.342-21.937,12.159.071,22.178,9.883,21.961,22.471-.203,11.764-9.754,21.773-22.498,21.598-12.042-.166-21.794-9.762-21.805-22.132Z"/>
      <path class="cls-11" d="m614.463,149.598c2.854.024,5.612,2.731,5.624,5.52.014,3.13-2.722,5.849-5.866,5.829-3.016-.018-5.566-2.746-5.533-5.919.031-3.007,2.636-5.457,5.775-5.43Z"/>
      <rect class="cls-11" x="616.851" y="139.983" width="9.448" height="9.448" transform="translate(284.378 -397.136) rotate(45)"/>
      <polygon class="cls-11" points="612.694 147.661 612.694 141.229 607.123 138.013 601.552 141.229 601.552 147.661 607.123 150.878 612.694 147.661"/>
    </g>
    <g>
      <rect class="cls-3" x="478.801" y="128.796" width="95.645" height="38.968" rx="3.871" ry="3.871"/>
      <text class="cls-16" transform="translate(489.326 155.342)"><tspan x="0" y="0">말하기</tspan></text>
      <path class="cls-4" d="m557.946,143.603c1.503,0,3.006-.003,4.509.001.951.003,1.744.288,2.197,1.211.47.958.064,1.702-.534,2.425-1.451,1.754-2.859,3.543-4.343,5.268-1.318,1.533-2.389,1.523-3.72-.029-1.519-1.771-2.972-3.598-4.452-5.402-.521-.635-.812-1.313-.452-2.145.374-.865,1.045-1.293,1.954-1.309,1.614-.027,3.228-.008,4.842-.008v-.013Z"/>
    </g>
    <g>
      <path class="cls-8" d="m69.901,168.183c-10.975,0-19.903-8.929-19.903-19.903s8.928-19.903,19.903-19.903h161.786c10.975,0,19.903,8.929,19.903,19.903s-8.929,19.903-19.903,19.903H69.901Z"/>
      <path class="cls-10" d="m231.687,129.377c10.423,0,18.903,8.48,18.903,18.903s-8.48,18.903-18.903,18.903H69.901c-10.423,0-18.903-8.48-18.903-18.903s8.48-18.903,18.903-18.903h161.786m0-2H69.901c-11.497,0-20.903,9.406-20.903,20.903h0c0,11.497,9.406,20.903,20.903,20.903h161.786c11.497,0,20.903-9.406,20.903-20.903h0c0-11.497-9.406-20.903-20.903-20.903h0Z"/>
    </g>
    <text class="cls-17" transform="translate(67.438 155.342)"><tspan x="0" y="0">간식으로 뭘 먹을까?</tspan></text>
    <g>
      <g>
        <circle class="cls-8" cx="359.243" cy="148.28" r="19.903"/>
        <path class="cls-10" d="m359.243,129.377c10.423,0,18.903,8.48,18.903,18.903s-8.48,18.903-18.903,18.903-18.903-8.48-18.903-18.903,8.48-18.903,18.903-18.903m0-2c-11.545,0-20.903,9.359-20.903,20.903s9.359,20.903,20.903,20.903,20.903-9.359,20.903-20.903-9.359-20.903-20.903-20.903h0Z"/>
      </g>
      <text class="cls-17" transform="translate(352.804 155.006)"><tspan x="0" y="0">2</tspan></text>
    </g>
    <text class="cls-13" transform="translate(262.3 156.463)"><tspan x="0" y="0">을(를)</tspan></text>
    <text class="cls-13" transform="translate(392.365 156.463)"><tspan x="0" y="0">초 동안</tspan></text>
  </g>
  <g>
    <path class="cls-18" d="m731.042,176.251H46.777s0,0,0,0l-12.543,11.548s0,0,0,0l-12.023-10.98c-.238-.218-.622-.049-.622.274v54.741c0,.047.011.092.028.135h-.003l.004.004c.02.048.048.093.087.13h.056l11.328,10.345c.663.605,1.678.603,2.338-.005l10.91-10.045c.212-.195.49-.304.779-.304l683.928-.101c15.329,0,27.871-12.542,27.871-27.871h0c0-15.329-12.542-27.871-27.871-27.871Z"/>
    <g>
      <path class="cls-5" d="m707.692,203.902c.085-12.114,9.79-22.01,22.342-21.937,12.159.071,22.178,9.883,21.961,22.471-.203,11.764-9.754,21.773-22.498,21.598-12.042-.166-21.794-9.762-21.805-22.132Z"/>
      <path class="cls-11" d="m730.592,205.34c2.854.024,5.612,2.731,5.624,5.52.014,3.13-2.722,5.849-5.866,5.829-3.016-.018-5.566-2.746-5.533-5.919.031-3.007,2.636-5.457,5.775-5.43Z"/>
      <rect class="cls-11" x="732.98" y="195.724" width="9.448" height="9.448" transform="translate(357.807 -462.925) rotate(45)"/>
      <polygon class="cls-11" points="728.823 203.403 728.823 196.971 723.252 193.755 717.681 196.971 717.681 203.403 723.252 206.62 728.823 203.403"/>
    </g>
    <text class="cls-13" transform="translate(508.494 212.206)"><tspan x="0" y="0">초 동안</tspan></text>
    <text class="cls-13" transform="translate(374.817 212.205)"><tspan x="0" y="0">을(를)</tspan></text>
    <text class="cls-13" transform="translate(508.494 212.206)"><tspan x="0" y="0">초 동안</tspan></text>
    <text class="cls-13" transform="translate(374.817 212.205)"><tspan x="0" y="0">을(를)</tspan></text>
    <g>
      <path class="cls-8" d="m473.823,223.925c-10.975,0-19.903-8.929-19.903-19.903s8.928-19.903,19.903-19.903,19.903,8.929,19.903,19.903-8.929,19.903-19.903,19.903Z"/>
      <path class="cls-10" d="m473.824,185.119c10.423,0,18.903,8.48,18.903,18.903s-8.48,18.903-18.903,18.903-18.903-8.48-18.903-18.903,8.48-18.903,18.903-18.903m0-2c-11.545,0-20.903,9.359-20.903,20.903s9.359,20.903,20.903,20.903,20.903-9.359,20.903-20.903-9.359-20.903-20.903-20.903h0Z"/>
    </g>
    <text class="cls-17" transform="translate(467.385 210.748)"><tspan x="0" y="0">2</tspan></text>
    <g>
      <rect class="cls-3" x="594.93" y="183.925" width="95.645" height="38.968" rx="3.871" ry="3.871"/>
      <text class="cls-16" transform="translate(605.455 210.471)"><tspan x="0" y="0">말하기</tspan></text>
      <path class="cls-4" d="m674.075,198.731c1.503,0,3.006-.003,4.509.001.951.003,1.744.288,2.197,1.211.47.958.064,1.702-.534,2.425-1.451,1.754-2.859,3.543-4.343,5.268-1.318,1.533-2.389,1.523-3.72-.029-1.519-1.771-2.972-3.598-4.452-5.402-.521-.635-.812-1.313-.452-2.145.374-.865,1.045-1.293,1.954-1.309,1.614-.027,3.228-.008,4.842-.008v-.013Z"/>
    </g>
    <g>
      <path class="cls-8" d="m69.901,223.925c-10.975,0-19.903-8.929-19.903-19.903s8.928-19.903,19.903-19.903h270.689c10.975,0,19.903,8.929,19.903,19.903s-8.929,19.903-19.903,19.903H69.901Z"/>
      <path class="cls-10" d="m340.59,185.119c10.423,0,18.903,8.48,18.903,18.903s-8.48,18.903-18.903,18.903H69.901c-10.423,0-18.903-8.48-18.903-18.903s8.48-18.903,18.903-18.903h270.689m0-2H69.901c-11.497,0-20.903,9.406-20.903,20.903h0c0,11.497,9.406,20.903,20.903,20.903h270.689c11.497,0,20.903-9.406,20.903-20.903h0c0-11.497-9.406-20.903-20.903-20.903h0Z"/>
    </g>
    <text class="cls-17" transform="translate(67.438 211.084)"><tspan x="0" y="0">내가 좋아하는 음식을 적어봐야지!</tspan></text>
  </g>
  <g>
    <path class="cls-20" d="m394.268,232.38H46.777s0,0,0,0l-12.543,11.548s0,0,0,0l-12.023-10.98c-.238-.218-.622-.049-.622.274v54.741c0,.047.011.092.028.135h-.003l.004.004c.02.048.048.093.087.13h.056l11.328,10.345c.663.605,1.678.603,2.338-.005l10.91-10.045c.212-.195.49-.304.779-.304l347.154-.101c15.329,0,27.871-12.542,27.871-27.871h0c0-15.329-12.542-27.871-27.871-27.871Z"/>
    <text class="cls-13" transform="translate(289.655 267.689)"><tspan x="0" y="0">숨기기</tspan></text>
    <text class="cls-13" transform="translate(52.332 267.689)"><tspan x="0" y="0">리스트</tspan></text>
    <g>
      <path class="cls-2" d="m191.847,239.806c17.877,0,59.434,0,77.311,0,2.815,0,4.335,2.426,4.336,6.934.003,8.742.003,17.483,0,26.225-.001,4.509-1.521,6.935-4.336,6.935-35.754,0-95.188-.025-130.942.059-2.308.005-4.351-2.765-4.335-6.91.033-8.797.033-17.595,0-26.392-.015-4.145,2.027-6.926,4.335-6.912,17.877.11,35.754.061,53.631.061Z"/>
      <text class="cls-14" transform="translate(144.261 267.689)"><tspan x="0" y="0">간식 리스트</tspan></text>
      <path class="cls-4" d="m257.486,255.955c1.503,0,3.006-.003,4.509.001.951.003,1.744.288,2.197,1.211.47.958.064,1.702-.534,2.425-1.451,1.754-2.859,3.543-4.343,5.268-1.318,1.533-2.389,1.523-3.72-.029-1.519-1.771-2.972-3.598-4.452-5.402-.521-.635-.812-1.313-.452-2.145.374-.865,1.045-1.293,1.954-1.309,1.614-.027,3.228-.008,4.842-.008v-.013Z"/>
    </g>
    <g>
      <path class="cls-6" d="m415.217,260.295c.233,11.599-9.583,22.21-22.59,21.903-11.361-.268-21.522-9.45-21.508-22.104.014-12.581,10.427-22.278,22.629-21.994,11.969.279,21.786,10.209,21.47,22.194Z"/>
      <path class="cls-9" d="m393.485,250.132c1.421.066,3.283.498,4.796,1.905,2.464,2.29,2.614,5.317.342,7.812-.823.903-1.728,1.735-2.634,2.558-.847.769-1.497,1.641-1.723,2.78-.285,1.438-1.202,2.017-2.552,1.624-1.294-.377-1.297-1.572-1.154-2.621.299-2.203,1.86-3.593,3.427-4.952.334-.29.717-.537.999-.87,1.487-1.758,1.36-3.4-.321-4.537-1.47-.995-3.897-.403-4.808,1.208-.326.577-.531,1.221-.815,1.823-.524,1.11-1.42,1.65-2.58,1.204-1.144-.44-1.405-1.351-1.1-2.592.769-3.131,3.806-5.339,8.123-5.343Z"/>
      <path class="cls-7" d="m392.459,272.846c-1.271-.012-2.113-.925-2.059-2.258.054-1.311.741-2.044,2.063-2.095,1.32-.051,2.369,1,2.32,2.267-.048,1.226-1.02,2.098-2.324,2.086Z"/>
    </g>
  </g>
</svg>