<?xml version="1.0" encoding="UTF-8"?>
<svg id="_레이어_2" data-name="레이어 2" xmlns="http://www.w3.org/2000/svg" viewBox="0 0 469.878 132.686">
  <defs>
    <style>
      .cls-1, .cls-2, .cls-3, .cls-4, .cls-5, .cls-6, .cls-7 {
        stroke-width: 0px;
      }

      .cls-1, .cls-8, .cls-9 {
        fill: #fefefe;
      }

      .cls-2 {
        fill: #78d5d3;
      }

      .cls-10 {
        letter-spacing: -.015em;
      }

      .cls-11 {
        stroke: #009400;
      }

      .cls-11, .cls-12 {
        stroke-miterlimit: 10;
        stroke-width: 2px;
      }

      .cls-11, .cls-7 {
        fill: #00b300;
      }

      .cls-8, .cls-13, .cls-9 {
        font-family: Pretendard-Bold-KSCpc-EUC-H, Pretendard;
        font-weight: 700;
      }

      .cls-8, .cls-9 {
        font-size: 26px;
      }

      .cls-14 {
        letter-spacing: .007em;
      }

      .cls-3 {
        fill: #008380;
      }

      .cls-12 {
        fill: #00b6b1;
        stroke: #008380;
      }

      .cls-4 {
        fill: #fafdfa;
      }

      .cls-5 {
        fill: #fedd81;
      }

      .cls-13 {
        font-size: 22px;
      }

      .cls-6 {
        fill: #fe9b00;
      }

      .cls-15 {
        letter-spacing: -.01em;
      }

      .cls-9 {
        letter-spacing: -.01em;
      }
    </style>
  </defs>
  <g>
    <path class="cls-11" d="m334.856,33.954c-2.293-12.791-13.66-22.101-26.741-22.14-81.918-.248-163.835-.501-245.753-.712-2.727-.007-4.859-.438-7.168-2.399C48.028,2.617,39.547.119,30.1,1.274,20.381,2.463,12.681,7.161,7.067,15.04,2.193,21.879.212,29.582,1.283,38.024c1.177,9.281,5.523,16.675,12.825,22.461,2.333,1.849,6.893,4.567,6.893,4.567l11.959,10.71c.84.872,1.302.777,2.094-.032l11.135-10.678c86.873.298,175.353.627,262.226.887.891.002,1.782-.029,2.673-.045.198-.088.388-.231.594-.256,15.315-1.89,25.945-16.233,23.175-31.684Z"/>
    <path class="cls-1" d="m34.016,62.097c-15.48-.051-28.037-12.66-27.997-28.114.04-15.539,12.694-28.067,28.28-27.997,15.45.069,27.973,12.72,27.913,28.197-.06,15.443-12.708,27.964-28.196,27.914Z"/>
    <path class="cls-7" d="m22.752,33.067c.099-1.896-.183-4.236.152-6.562.711-4.937,4.657-8.567,9.628-8.799,1.609-.075,3.236-.154,4.823.234,4.693,1.146,7.831,5.11,7.914,10.093.06,3.614.045,7.23.006,10.844-.07,6.422-4.581,10.616-11.359,10.611-6.621-.005-11.083-4.255-11.16-10.647-.021-1.779-.003-3.559-.003-5.774Z"/>
    <path class="cls-4" d="m32.083,26.919c.035-.717.008-1.442.123-2.144.154-.937.826-1.465,1.736-1.493.99-.03,1.793.497,1.874,1.509.118,1.478.107,2.978-.004,4.457-.07.929-.81,1.468-1.722,1.499-.995.033-1.71-.518-1.884-1.517-.131-.754-.088-1.539-.124-2.311Z"/>
    <text class="cls-8" transform="translate(73.185 46.255) rotate(.173)"><tspan x="0" y="0">오브젝트를 클릭했을 때</tspan></text>
  </g>
  <g>
    <g>
      <path class="cls-12" d="m441.007,64.936l-394.806.101h0l-12.543,11.548h0l-12.023-10.98c-.238-.218-.622-.049-.622.274v54.841l.171.168,11.328,10.345c.663.606,1.678.603,2.338-.004l10.91-10.045c.212-.195.49-.304.779-.304l394.469-.202c15.329,0,27.871-12.542,27.871-27.871s-12.542-27.871-27.871-27.871Z"/>
      <path class="cls-3" d="m461.955,92.851c.233,11.599-9.583,22.21-22.59,21.903-11.361-.268-21.522-9.449-21.508-22.104.014-12.581,10.427-22.278,22.629-21.994,11.969.279,21.786,10.209,21.47,22.194Z"/>
      <text class="cls-9" transform="translate(50.056 101.384)"><tspan x="0" y="0">LED에</tspan></text>
      <text class="cls-9" transform="translate(247.937 101.384)"><tspan x="0" y="0">을(를) 나타내기</tspan></text>
      <g>
        <path class="cls-2" d="m445.26,82.89c-1.047,0-1.949.579-2.434,1.427h-4.07c-.367,0-.719.145-.978.405l-7.704,7.688h-4.051c-.765,0-1.385.62-1.385,1.385s.62,1.385,1.385,1.385h4.624c.367,0,.719-.145.978-.405l7.704-7.688h3.497c.484.848,1.387,1.427,2.434,1.427,1.553,0,2.812-1.259,2.812-2.812s-1.259-2.812-2.812-2.812Z"/>
        <path class="cls-2" d="m435.358,101.325c1.047,0,1.949-.579,2.433-1.427h4.07c.367,0,.719-.145.978-.405l7.704-7.688h4.052c.765,0,1.385-.62,1.385-1.385s-.62-1.385-1.385-1.385h-4.624c-.367,0-.719.145-.978.405l-7.704,7.688h-3.497c-.484-.848-1.387-1.427-2.433-1.427-1.553,0-2.812,1.259-2.812,2.812s1.259,2.812,2.812,2.812Z"/>
      </g>
    </g>
    <g>
      <path class="cls-5" d="m150.72,112.608c-10.975,0-19.903-8.928-19.903-19.903s8.929-19.903,19.903-19.903h67.373c10.975,0,19.903,8.929,19.903,19.903s-8.929,19.903-19.903,19.903h-67.373Z"/>
      <path class="cls-6" d="m218.093,73.802c10.423,0,18.903,8.48,18.903,18.903s-8.48,18.903-18.903,18.903h-67.373c-10.423,0-18.903-8.48-18.903-18.903s8.48-18.903,18.903-18.903h67.373m0-2h-67.373c-11.497,0-20.903,9.406-20.903,20.903s9.406,20.903,20.903,20.903h67.373c11.497,0,20.903-9.406,20.903-20.903s-9.406-20.903-20.903-20.903h0Z"/>
    </g>
    <text class="cls-13" transform="translate(143.838 99.768)"><tspan class="cls-15" x="0" y="0">Vic</tspan><tspan class="cls-10" x="33.178" y="0">t</tspan><tspan class="cls-15" x="40.982" y="0">o</tspan><tspan class="cls-14" x="53.739" y="0">r</tspan><tspan class="cls-15" x="62.457" y="0">y!</tspan></text>
  </g>
</svg>