<?xml version="1.0" encoding="UTF-8"?>
<svg id="_레이어_2" data-name="레이어 2" xmlns="http://www.w3.org/2000/svg" viewBox="0 0 336.7 231.447">
  <defs>
    <style>
      .cls-1 {
        fill: #1874cd;
      }

      .cls-1, .cls-2, .cls-3 {
        stroke-width: 0px;
      }

      .cls-4 {
        font-size: 26px;
      }

      .cls-4, .cls-2, .cls-5 {
        fill: #fff;
      }

      .cls-4, .cls-5 {
        font-family: D2Coding, D2Coding;
      }

      .cls-6 {
        fill: #d400d4;
        stroke: #9f009f;
      }

      .cls-6, .cls-7 {
        stroke-miterlimit: 10;
        stroke-width: 1.5px;
      }

      .cls-5 {
        font-size: 26.581px;
      }

      .cls-7 {
        fill: #1e90ff;
        stroke: #176cbf;
      }

      .cls-3 {
        fill: #1e85e9;
      }
    </style>
  </defs>
  <g>
    <path class="cls-6" d="m84.158,192.872h-21.05c-1.723,0-3.364-.74-4.505-2.031l-8.586-9.72c-1.141-1.292-2.781-2.031-4.505-2.031h-13.331c-3.32,0-6.011-2.691-6.011-6.011v-89.903c0-3.32,2.691-6.011,6.011-6.011h13.331c1.723,0,3.364.74,4.505,2.031l8.586,9.72c1.141,1.292,2.781,2.031,4.505,2.031h21.05c1.691,0,3.304-.712,4.443-1.963l8.981-9.857c1.139-1.25,2.752-1.963,4.443-1.963h165.297c3.32,0,6.011-2.691,6.011-6.011V6.761c0-3.32-2.691-6.011-6.011-6.011H6.761C3.441.75.75,3.441.75,6.761v217.925c0,3.32,2.691,6.011,6.011,6.011h260.561c3.32,0,6.011-2.691,6.011-6.011v-39.586c0-3.32-2.691-6.011-6.011-6.011H102.025c-1.691,0-3.304.712-4.443,1.963l-8.981,9.857c-1.139,1.25-2.752,1.963-4.443,1.963Z"/>
    <rect class="cls-6" x="13.46" y="13.843" width="70.29" height="50.382" rx="5.743" ry="5.743"/>
    <text class="cls-4" transform="translate(95.884 47.928)"><tspan x="0" y="0">버튼 누를 때</tspan></text>
    <path class="cls-2" d="m62.3,43.54l-6.78-6.353c-.801-.75-.27-2.093.827-2.093h13.56c1.097,0,1.628,1.343.827,2.093l-6.78,6.353c-.465.436-1.189.436-1.655,0Z"/>
    <text class="cls-4" transform="translate(31.146 47.152)"><tspan x="0" y="0">B</tspan></text>
  </g>
  <g>
    <path class="cls-7" d="m101.666,77.162c-1.691,0-3.304.712-4.443,1.962l-8.981,9.857c-1.139,1.25-2.752,1.963-4.443,1.963h-21.051c-1.723,0-3.364-.74-4.505-2.031l-8.586-9.72c-1.141-1.292-2.781-2.031-4.505-2.031h-13.331c-3.32,0-6.011,2.691-6.011,6.011v89.914c0,3.32,2.691,6.011,6.011,6.011h13.331c1.723,0,3.364.74,4.505,2.031l8.586,9.72c1.141,1.292,2.781,2.031,4.505,2.031h21.051c1.691,0,3.304-.712,4.443-1.963l8.981-9.857c1.139-1.25,2.752-1.962,4.443-1.962h228.573c3.154,0,5.711-2.557,5.711-5.711v-90.514c0-3.154-2.557-5.711-5.711-5.711H101.666Z"/>
    <text class="cls-5" transform="translate(40.932 135.146)"><tspan x="0" y="0">아이콘 출력</tspan></text>
    <g>
      <rect class="cls-7" x="205.921" y="90.019" width="116.71" height="75.29" rx="6.387" ry="6.387"/>
      <g>
        <rect class="cls-1" x="220.389" y="99.914" width="8.661" height="8.661" rx="1.016" ry="1.016"/>
        <rect class="cls-1" x="232.123" y="99.914" width="8.661" height="8.661" rx="1.016" ry="1.016"/>
        <rect class="cls-1" x="243.857" y="99.914" width="8.661" height="8.661" rx="1.016" ry="1.016"/>
        <rect class="cls-1" x="255.591" y="99.914" width="8.661" height="8.661" rx="1.016" ry="1.016"/>
        <rect class="cls-1" x="267.325" y="99.914" width="8.661" height="8.661" rx="1.016" ry="1.016"/>
        <rect class="cls-1" x="220.389" y="111.624" width="8.661" height="8.661" rx="1.016" ry="1.016"/>
        <rect class="cls-2" x="232.123" y="111.624" width="8.661" height="8.661" rx="1.016" ry="1.016"/>
        <rect class="cls-1" x="243.857" y="111.624" width="8.661" height="8.661" rx="1.016" ry="1.016"/>
        <rect class="cls-2" x="255.591" y="111.624" width="8.661" height="8.661" rx="1.016" ry="1.016"/>
        <rect class="cls-1" x="267.325" y="111.624" width="8.661" height="8.661" rx="1.016" ry="1.016"/>
        <rect class="cls-1" x="220.389" y="123.334" width="8.661" height="8.661" rx="1.016" ry="1.016"/>
        <rect class="cls-1" x="232.123" y="123.334" width="8.661" height="8.661" rx="1.016" ry="1.016"/>
        <rect class="cls-1" x="243.857" y="123.334" width="8.661" height="8.661" rx="1.016" ry="1.016"/>
        <rect class="cls-1" x="255.591" y="123.334" width="8.661" height="8.661" rx="1.016" ry="1.016"/>
        <rect class="cls-1" x="267.325" y="123.334" width="8.661" height="8.661" rx="1.016" ry="1.016"/>
        <rect class="cls-1" x="220.389" y="135.043" width="8.661" height="8.661" rx="1.016" ry="1.016"/>
        <rect class="cls-2" x="232.123" y="135.043" width="8.661" height="8.661" rx="1.016" ry="1.016"/>
        <rect class="cls-2" x="243.857" y="135.043" width="8.661" height="8.661" rx="1.016" ry="1.016"/>
        <rect class="cls-2" x="255.591" y="135.043" width="8.661" height="8.661" rx="1.016" ry="1.016"/>
        <rect class="cls-1" x="267.325" y="135.043" width="8.661" height="8.661" rx="1.016" ry="1.016"/>
        <rect class="cls-2" x="220.389" y="146.882" width="8.661" height="8.661" rx="1.016" ry="1.016"/>
        <rect class="cls-1" x="232.123" y="146.753" width="8.661" height="8.661" rx="1.016" ry="1.016"/>
        <rect class="cls-1" x="243.857" y="146.753" width="8.661" height="8.661" rx="1.016" ry="1.016"/>
        <rect class="cls-1" x="255.591" y="146.753" width="8.661" height="8.661" rx="1.016" ry="1.016"/>
        <rect class="cls-2" x="267.325" y="146.882" width="8.661" height="8.661" rx="1.016" ry="1.016"/>
      </g>
      <g>
        <path class="cls-2" d="m299.212,132.551c-.436,0-.851-.165-1.169-.463l-6.78-6.353c-.516-.482-.681-1.219-.421-1.876.26-.657.884-1.082,1.591-1.082h13.56c.707,0,1.331.425,1.591,1.082.259.657.094,1.394-.421,1.876l-6.78,6.353c-.318.298-.733.463-1.169.463Z"/>
        <path class="cls-3" d="m305.992,123.278c1.097,0,1.628,1.343.827,2.093l-6.78,6.353c-.233.218-.53.327-.828.327s-.595-.109-.827-.327l-6.78-6.353c-.801-.75-.27-2.093.828-2.093h13.56m0-1h-13.56c-.913,0-1.72.549-2.055,1.398-.336.849-.122,1.801.544,2.425l6.78,6.353c.411.385.948.597,1.511.597s1.1-.212,1.511-.597l6.78-6.353c.666-.624.88-1.576.544-2.425-.336-.849-1.142-1.398-2.055-1.398h0Z"/>
      </g>
    </g>
  </g>
</svg>