<?xml version="1.0" encoding="UTF-8"?>
<svg id="_레이어_2" data-name="레이어 2" xmlns="http://www.w3.org/2000/svg" viewBox="0 0 297.75 69">
  <defs>
    <style>
      .cls-1, .cls-2 {
        fill: #fff;
      }

      .cls-1, .cls-3 {
        stroke-width: 0px;
      }

      .cls-2 {
        font-family: D2Coding, D2Coding;
        font-size: 26.581px;
      }

      .cls-3 {
        fill: #00a4a6;
      }
    </style>
  </defs>
  <rect class="cls-3" y="0" width="297.75" height="69"/>
  <text class="cls-2" transform="translate(80.487 45.938)"><tspan x="0" y="0">논리</tspan></text>
  <g>
    <path class="cls-1" d="m46.882,21.753c-.264-.258-.586-.374-.902-.374-.669,0-1.311.521-1.311,1.304v3.167h-3.461c-.322,0-.632.128-.86.356l-15.427,15.427c-.228.228-.537.356-.86.356h-3.754c-.671,0-1.216.544-1.216,1.215v2.551c0,.671.544,1.216,1.216,1.216h6.841c.323,0,.632-.128.86-.356l14.76-14.76c.228-.228.537-.356.859-.356h1.041v2.684c0,.784.641,1.305,1.311,1.305.316,0,.638-.116.902-.375l5.871-5.75c.521-.51.521-1.349,0-1.86l-5.871-5.75Z"/>
    <path class="cls-1" d="m28.009,26.085c-.228-.228-.537-.356-.86-.356h-6.841c-.671,0-1.216.544-1.216,1.215v2.551c0,.671.544,1.216,1.216,1.216h3.754c.323,0,.632.128.86.356l4.258,4.258,4.035-4.035-5.205-5.205Z"/>
    <path class="cls-1" d="m40.348,46.493c.228.228.537.356.86.356h3.461v3.167c0,1.153,1.389,1.737,2.213.93l5.871-5.75c.521-.511.521-1.35,0-1.86l-5.871-5.75c-.824-.807-2.213-.223-2.213.93v2.685h-1.041c-.322,0-.631-.128-.859-.356l-3.47-3.47-4.035,4.035,5.083,5.083Z"/>
  </g>
</svg>