<?xml version="1.0" encoding="UTF-8"?>
<svg id="_레이어_1" data-name="레이어 1" xmlns="http://www.w3.org/2000/svg" viewBox="0 0 371.48 68.649">
  <defs>
    <style>
      .cls-1 {
        fill: #8b19db;
      }

      .cls-1, .cls-2, .cls-3, .cls-4 {
        stroke-width: 0px;
      }

      .cls-5 {
        font-size: 22px;
        letter-spacing: -.025em;
      }

      .cls-5, .cls-6 {
        font-family: Pretendard-Bold-KSCpc-EUC-H, Pretendard;
        font-weight: 700;
      }

      .cls-2 {
        fill: #bd65fb;
      }

      .cls-7 {
        fill: #ad3efb;
        stroke: #8b19db;
        stroke-linecap: round;
        stroke-linejoin: round;
        stroke-width: 2px;
      }

      .cls-3 {
        fill: #fedd81;
      }

      .cls-4 {
        fill: #fe9b00;
      }

      .cls-6 {
        fill: #fefefe;
        font-size: 26px;
        letter-spacing: -.01em;
      }
    </style>
  </defs>
  <g>
    <g>
      <path class="cls-7" d="m341.993,1H26.189s0,0,0,0l-12.543,11.548h0L1.622,1.568c-.238-.218-.622-.049-.622.274v54.841l.171.168,11.328,10.345c.662.605,1.677.603,2.337-.005l10.91-10.045c.212-.195.49-.304.779-.304l316.084-.101c16.067,0,29.071-13.778,27.783-30.102-1.152-14.595-13.758-25.64-28.399-25.64Z"/>
      <g>
        <path class="cls-1" d="m319.46,28.69c.085-12.114,9.79-22.01,22.342-21.937,12.159.071,22.178,9.883,21.961,22.471-.203,11.764-9.754,21.773-22.498,21.598-12.042-.166-21.794-9.762-21.805-22.132Z"/>
        <g>
          <path class="cls-2" d="m353.509,23.177l-4.943-3.73c-.539-.406-1.31-.022-1.31.652v1.443c0,.032-.028.058-.06.055l-8.772-.872c-.481-.048-.898.33-.898.813v4.582c0,.483.417.861.898.813l8.772-.872c.032-.003.06.022.06.055v1.443c0,.675.771,1.059,1.31.652l4.943-3.73c.433-.327.433-.978,0-1.305Z"/>
          <path class="cls-2" d="m329.716,34.401l4.943,3.73c.539.406,1.31.022,1.31-.652v-1.443c0-.032.028-.058.06-.055l8.772.872c.481.048.898-.33.898-.813v-4.582c0-.483-.417-.861-.898-.813l-8.772.872c-.032.003-.06-.022-.06-.055v-1.443c0-.675-.771-1.059-1.31-.652l-4.943,3.73c-.433.327-.433.978,0,1.305Z"/>
        </g>
      </g>
    </g>
    <text class="cls-6" transform="translate(30.043 37.35)"><tspan x="0" y="0">x 좌표를</tspan></text>
    <text class="cls-6" transform="translate(190.649 37.35)"><tspan x="0" y="0">만큼 바꾸기</tspan></text>
  </g>
  <g>
    <path class="cls-3" d="m148.427,48.673c-10.975,0-19.903-8.929-19.903-19.903s8.929-19.903,19.903-19.903h11.414c10.975,0,19.903,8.929,19.903,19.903s-8.928,19.903-19.903,19.903h-11.414Z"/>
    <path class="cls-4" d="m159.841,9.866c10.423,0,18.903,8.48,18.903,18.903s-8.48,18.903-18.903,18.903h-11.414c-10.423,0-18.903-8.48-18.903-18.903s8.48-18.903,18.903-18.903h11.414m0-2h-11.414c-11.497,0-20.903,9.406-20.903,20.903s9.406,20.903,20.903,20.903h11.414c11.497,0,20.903-9.406,20.903-20.903s-9.406-20.903-20.903-20.903h0Z"/>
  </g>
  <text class="cls-5" transform="translate(141.834 35.831)"><tspan x="0" y="0">10</tspan></text>
</svg>