<?xml version="1.0" encoding="UTF-8"?>
<svg id="_레이어_1" data-name="레이어 1" xmlns="http://www.w3.org/2000/svg" viewBox="0 0 267.301 68.649">
  <defs>
    <style>
      .cls-1 {
        fill: #fefefe;
        font-size: 26px;
      }

      .cls-1, .cls-2 {
        font-family: Pretendard-Bold-KSCpc-EUC-H, Pretendard;
        font-weight: 700;
      }

      .cls-3 {
        fill: #19baea;
        stroke: #1498c0;
        stroke-linecap: round;
        stroke-linejoin: round;
        stroke-width: 2px;
      }

      .cls-4 {
        fill: #6dddfe;
      }

      .cls-4, .cls-5, .cls-6, .cls-7 {
        stroke-width: 0px;
      }

      .cls-5 {
        fill: #1498c0;
      }

      .cls-2 {
        font-size: 22px;
        letter-spacing: -.025em;
      }

      .cls-6 {
        fill: #fedd81;
      }

      .cls-7 {
        fill: #fe9b00;
      }
    </style>
  </defs>
  <g>
    <path class="cls-3" d="m238.43,1H26.189s0,0,0,0l-12.543,11.548s0,0,0,0L1.622,1.568c-.238-.218-.622-.049-.622.274v54.741c0,.047.011.092.028.135h-.003l.004.004c.02.048.048.093.087.13h.056l11.328,10.345c.663.605,1.678.603,2.338-.005l10.91-10.045c.212-.195.49-.304.779-.304l211.905-.101c15.329,0,27.871-12.542,27.871-27.871h0c0-15.329-12.542-27.871-27.871-27.871Z"/>
    <g>
      <path class="cls-5" d="m259.179,28.915c.233,11.599-9.583,22.21-22.59,21.903-11.361-.268-21.522-9.45-21.508-22.104.014-12.581,10.427-22.278,22.629-21.994,11.969.279,21.786,10.209,21.47,22.194Z"/>
      <path class="cls-4" d="m245.262,30.447c-.095,0-.185.021-.279.028l-4.684-7.075c.468-.646.753-1.433.753-2.292,0-2.165-1.755-3.919-3.919-3.919s-3.919,1.755-3.919,3.919c0,.859.284,1.646.753,2.292l-4.684,7.075c-.094-.007-.183-.028-.279-.028-2.165,0-3.919,1.755-3.919,3.919s1.755,3.919,3.919,3.919,3.919-1.755,3.919-3.919c0-1.153-.507-2.18-1.3-2.897l4.386-6.625c.358.108.731.183,1.124.183s.766-.076,1.124-.183l4.386,6.625c-.793.717-1.3,1.744-1.3,2.897,0,2.165,1.755,3.919,3.919,3.919s3.919-1.755,3.919-3.919-1.755-3.919-3.919-3.919Z"/>
    </g>
  </g>
  <g>
    <g>
      <path class="cls-6" d="m49.36,48.508c-10.975,0-19.903-8.928-19.903-19.903s8.929-19.903,19.903-19.903h.831c10.975,0,19.903,8.929,19.903,19.903s-8.928,19.903-19.903,19.903h-.831Z"/>
      <path class="cls-7" d="m50.191,9.702c10.423,0,18.903,8.48,18.903,18.903s-8.48,18.903-18.903,18.903h-.831c-10.423,0-18.903-8.48-18.903-18.903s8.48-18.903,18.903-18.903h.831m0-2h-.831c-11.497,0-20.903,9.406-20.903,20.903s9.406,20.903,20.903,20.903h.831c11.497,0,20.903-9.406,20.903-20.903S61.687,7.702,50.191,7.702h0Z"/>
    </g>
    <text class="cls-2" transform="translate(43.293 35.882)"><tspan x="0" y="0">2</tspan></text>
    <text class="cls-1" transform="translate(83.823 38.242)"><tspan x="0" y="0">초 기다리기</tspan></text>
  </g>
</svg>