<?xml version="1.0" encoding="UTF-8"?>
<svg id="_레이어_1" data-name="레이어 1" xmlns="http://www.w3.org/2000/svg" viewBox="0 0 1196.173 294.5">
  <defs>
    <style>
      .cls-1, .cls-2, .cls-3, .cls-4, .cls-5, .cls-6, .cls-7, .cls-8, .cls-9, .cls-10, .cls-11, .cls-12, .cls-13, .cls-14, .cls-15 {
        stroke-width: 0px;
      }

      .cls-1, .cls-16, .cls-17, .cls-18 {
        fill: #fefefe;
      }

      .cls-2 {
        fill: #009400;
      }

      .cls-3 {
        fill: #fe7a22;
      }

      .cls-4 {
        fill: #b819b3;
      }

      .cls-5 {
        fill: #00b400;
      }

      .cls-19, .cls-16, .cls-17, .cls-20, .cls-21, .cls-18 {
        font-family: Pretendard-Bold-KSCpc-EUC-H, Pretendard;
        font-weight: 700;
      }

      .cls-19, .cls-8 {
        fill: #fff;
      }

      .cls-19, .cls-17, .cls-20, .cls-21 {
        font-size: 22px;
      }

      .cls-19, .cls-21 {
        letter-spacing: -.025em;
      }

      .cls-6 {
        fill: #fefdfe;
      }

      .cls-22 {
        fill: #00b300;
        stroke: #009400;
      }

      .cls-22, .cls-23, .cls-24 {
        stroke-miterlimit: 10;
        stroke-width: 2px;
      }

      .cls-16, .cls-18 {
        font-size: 26px;
      }

      .cls-7 {
        fill: #ff7f00;
      }

      .cls-9 {
        fill: #dd47d8;
      }

      .cls-10 {
        fill: #ad2800;
      }

      .cls-20 {
        fill: #ff6739;
      }

      .cls-23 {
        fill: #e43500;
        stroke: #ad2800;
      }

      .cls-11 {
        fill: #fedd81;
      }

      .cls-24 {
        fill: #de5c04;
        stroke: #a14100;
      }

      .cls-12 {
        fill: #f4af18;
      }

      .cls-13 {
        fill: #fe9b00;
      }

      .cls-18 {
        letter-spacing: -.01em;
      }

      .cls-14 {
        fill: #a14100;
      }

      .cls-15 {
        fill: #f2f2f2;
      }
    </style>
  </defs>
  <g>
    <g>
      <path class="cls-23" d="m1167.302,227.954H46.712l-12.543,11.141-12.024-10.593c-.238-.21-.622-.047-.622.265v52.811c0,.098.042.191.115.259l12.53,11.31,12.351-11.415h1121.199c16.516,0,27.454-12.1,27.454-26.888h0c0-14.789-12.542-26.888-27.871-26.888Z"/>
      <g>
        <path class="cls-10" d="m1143.017,254.687c.085-12.114,9.79-22.01,22.342-21.937,12.159.071,22.178,9.883,21.961,22.471-.203,11.764-9.754,21.773-22.498,21.598-12.042-.166-21.794-9.762-21.805-22.132Z"/>
        <text class="cls-20" transform="translate(1155.609 262.715)"><tspan x="0" y="0">가</tspan></text>
      </g>
      <g>
        <text class="cls-16" transform="translate(971.133 261.984)"><tspan x="0" y="0">(이)라고 글쓰기</tspan></text>
        <g>
          <path class="cls-12" d="m69.479,274.35c-10.975,0-19.902-8.929-19.902-19.903s8.928-19.903,19.902-19.903h870.306c10.975,0,19.903,8.929,19.903,19.903s-8.929,19.903-19.903,19.903H69.479Z"/>
          <path class="cls-7" d="m939.784,235.543c10.423,0,18.903,8.48,18.903,18.903s-8.48,18.903-18.903,18.903H69.479c-10.423,0-18.903-8.48-18.903-18.903s8.48-18.903,18.903-18.903h870.305m0-2H69.479c-11.497,0-20.903,9.406-20.903,20.903s9.406,20.903,20.903,20.903h870.305c11.497,0,20.903-9.406,20.903-20.903s-9.406-20.903-20.903-20.903h0Z"/>
        </g>
        <g>
          <g>
            <path class="cls-9" d="m82.829,274.35c-10.975,0-19.902-8.928-19.902-19.903s8.928-19.903,19.902-19.903h517.539c10.975,0,19.902,8.928,19.902,19.903s-8.928,19.903-19.902,19.903H82.829Z"/>
            <path class="cls-4" d="m600.367,235.543c10.423,0,18.903,8.48,18.903,18.903s-8.48,18.903-18.903,18.903H82.829c-10.423,0-18.903-8.48-18.903-18.903s8.48-18.903,18.903-18.903h517.538m0-2H82.829c-11.497,0-20.903,9.406-20.903,20.903s9.406,20.903,20.903,20.903h517.538c11.497,0,20.903-9.406,20.903-20.903s-9.406-20.903-20.903-20.903h0Z"/>
          </g>
          <rect class="cls-4" x="77.41" y="234.963" width="141.935" height="38.968" rx="3.871" ry="3.871"/>
          <text class="cls-19" transform="translate(232.709 261.51)"><tspan x="0" y="0">의</tspan></text>
          <text class="cls-19" transform="translate(523.409 261.51)"><tspan x="0" y="0">번째 항목</tspan></text>
          <text class="cls-19" transform="translate(634.893 261.51)"><tspan x="0" y="0">과(와)</tspan></text>
          <text class="cls-19" transform="translate(820.075 261.51)"><tspan x="0" y="0">을 (를) 합친 값</tspan></text>
          <text class="cls-19" transform="translate(87.935 261.51)"><tspan x="0" y="0">반티 리스트</tspan></text>
          <path class="cls-6" d="m201.652,249.769c1.503,0,3.006-.003,4.509.001.951.003,1.744.288,2.197,1.211.47.958.064,1.702-.534,2.425-1.451,1.754-2.859,3.543-4.343,5.268-1.318,1.533-2.389,1.523-3.72-.029-1.519-1.771-2.972-3.598-4.452-5.402-.521-.635-.812-1.313-.452-2.145.374-.865,1.045-1.293,1.954-1.309,1.614-.027,3.228-.008,4.842-.008v-.013Z"/>
        </g>
        <g>
          <path class="cls-11" d="m721.773,274.35c-10.975,0-19.903-8.929-19.903-19.903s8.929-19.903,19.903-19.903h65.205c10.975,0,19.903,8.929,19.903,19.903s-8.929,19.903-19.903,19.903h-65.205Z"/>
          <path class="cls-13" d="m786.978,235.543c10.423,0,18.903,8.48,18.903,18.903s-8.48,18.903-18.903,18.903h-65.206c-10.423,0-18.903-8.48-18.903-18.903s8.48-18.903,18.903-18.903h65.206m0-2h-65.206c-11.497,0-20.903,9.406-20.903,20.903s9.406,20.903,20.903,20.903h65.206c11.497,0,20.903-9.406,20.903-20.903s-9.406-20.903-20.903-20.903h0Z"/>
        </g>
        <text class="cls-21" transform="translate(715.535 261.51)"><tspan x="0" y="0">반티 선정</tspan></text>
        <g>
          <g>
            <path class="cls-9" d="m285.35,274.35c-10.975,0-19.903-8.928-19.903-19.903s8.929-19.903,19.903-19.903h205.442c10.975,0,19.903,8.928,19.903,19.903s-8.929,19.903-19.903,19.903h-205.442Z"/>
            <path class="cls-4" d="m490.793,235.543c10.423,0,18.903,8.48,18.903,18.903s-8.48,18.903-18.903,18.903h-205.443c-10.423,0-18.903-8.48-18.903-18.903s8.48-18.903,18.903-18.903h205.443m0-2h-205.443c-11.497,0-20.903,9.406-20.903,20.903s9.406,20.903,20.903,20.903h205.443c11.497,0,20.903-9.406,20.903-20.903s-9.406-20.903-20.903-20.903h0Z"/>
          </g>
          <rect class="cls-4" x="279.931" y="234.963" width="181.443" height="38.968" rx="3.871" ry="3.871"/>
          <text class="cls-19" transform="translate(474.932 261.51)"><tspan x="0" y="0">값</tspan></text>
          <path class="cls-6" d="m443.873,249.769c1.503,0,3.006-.003,4.509.001.951.003,1.744.288,2.197,1.211.47.958.064,1.702-.534,2.425-1.451,1.754-2.859,3.543-4.343,5.268-1.318,1.533-2.389,1.523-3.72-.029-1.519-1.771-2.972-3.598-4.452-5.402-.521-.635-.812-1.313-.452-2.145.374-.865,1.045-1.293,1.954-1.309,1.614-.027,3.228-.008,4.842-.008v-.013Z"/>
          <text class="cls-19" transform="translate(290.456 261.51)"><tspan x="0" y="0" xml:space="preserve"> 최댓값 항목번호</tspan></text>
        </g>
      </g>
    </g>
    <g>
      <path class="cls-23" d="m1126.87,174.276H46.712l-12.543,11.141-12.024-10.593c-.238-.21-.622-.047-.622.265v52.811c0,.098.042.191.115.259l12.53,11.31,12.351-11.415h1080.767c16.516,0,27.454-12.1,27.454-26.888h0c0-14.789-12.542-26.888-27.871-26.888Z"/>
      <g>
        <path class="cls-10" d="m1102.585,201.089c.085-12.114,9.79-22.01,22.342-21.937,12.159.071,22.178,9.883,21.961,22.471-.203,11.764-9.754,21.773-22.498,21.598-12.042-.166-21.794-9.762-21.805-22.132Z"/>
        <text class="cls-20" transform="translate(1115.177 209.118)"><tspan x="0" y="0">가</tspan></text>
      </g>
      <g>
        <text class="cls-16" transform="translate(929.176 208.306)"><tspan x="0" y="0">(이)라고 글쓰기</tspan></text>
        <g>
          <path class="cls-12" d="m69.479,220.671c-10.975,0-19.903-8.928-19.903-19.903s8.929-19.903,19.903-19.903h828.349c10.975,0,19.903,8.928,19.903,19.903s-8.929,19.903-19.903,19.903H69.479Z"/>
          <path class="cls-7" d="m897.828,181.865c10.423,0,18.903,8.48,18.903,18.903s-8.48,18.903-18.903,18.903H69.479c-10.423,0-18.903-8.48-18.903-18.903s8.48-18.903,18.903-18.903h828.348m0-2H69.479c-11.497,0-20.903,9.407-20.903,20.903s9.406,20.903,20.903,20.903h828.348c11.497,0,20.903-9.406,20.903-20.903s-9.406-20.903-20.903-20.903h0Z"/>
        </g>
        <g>
          <g>
            <path class="cls-9" d="m82.83,220.671c-10.975,0-19.903-8.929-19.903-19.903s8.929-19.903,19.903-19.903h498.602c10.975,0,19.903,8.929,19.903,19.903s-8.929,19.903-19.903,19.903H82.83Z"/>
            <path class="cls-4" d="m581.431,181.865c10.423,0,18.903,8.48,18.903,18.903s-8.48,18.903-18.903,18.903H82.829c-10.423,0-18.903-8.48-18.903-18.903s8.48-18.903,18.903-18.903h498.602m0-2H82.829c-11.497,0-20.903,9.406-20.903,20.903s9.406,20.903,20.903,20.903h498.602c11.497,0,20.903-9.406,20.903-20.903s-9.406-20.903-20.903-20.903h0Z"/>
          </g>
          <rect class="cls-4" x="77.41" y="181.284" width="122.999" height="38.968" rx="3.871" ry="3.871"/>
          <text class="cls-19" transform="translate(213.773 207.831)"><tspan x="0" y="0">의</tspan></text>
          <text class="cls-19" transform="translate(504.474 207.831)"><tspan x="0" y="0">번째 항목</tspan></text>
          <text class="cls-19" transform="translate(615.957 207.831)"><tspan x="0" y="0">과(와)</tspan></text>
          <text class="cls-19" transform="translate(778.119 207.831)"><tspan x="0" y="0">을 (를) 합친 값</tspan></text>
          <text class="cls-19" transform="translate(87.935 207.832)"><tspan x="0" y="0">반티 총점</tspan></text>
          <path class="cls-6" d="m182.716,196.091c1.503,0,3.006-.003,4.509.001.951.003,1.744.288,2.197,1.211.47.958.064,1.702-.534,2.425-1.451,1.754-2.859,3.543-4.343,5.268-1.318,1.533-2.389,1.523-3.72-.029-1.519-1.771-2.972-3.598-4.452-5.402-.521-.635-.812-1.313-.452-2.145.374-.865,1.045-1.293,1.954-1.309,1.614-.027,3.228-.008,4.842-.008v-.013Z"/>
        </g>
        <g>
          <path class="cls-11" d="m702.837,220.671c-10.975,0-19.903-8.928-19.903-19.903s8.929-19.903,19.903-19.903h42.185c10.975,0,19.903,8.928,19.903,19.903s-8.929,19.903-19.903,19.903h-42.185Z"/>
          <path class="cls-13" d="m745.021,181.865c10.423,0,18.903,8.48,18.903,18.903s-8.48,18.903-18.903,18.903h-42.185c-10.423,0-18.903-8.48-18.903-18.903s8.48-18.903,18.903-18.903h42.185m0-2h-42.185c-11.497,0-20.903,9.407-20.903,20.903s9.406,20.903,20.903,20.903h42.185c11.497,0,20.903-9.406,20.903-20.903s-9.406-20.903-20.903-20.903h0Z"/>
        </g>
        <text class="cls-21" transform="translate(696.599 207.832)"><tspan x="0" y="0">점으로</tspan></text>
        <g>
          <g>
            <path class="cls-9" d="m266.414,220.671c-10.975,0-19.903-8.928-19.903-19.903s8.929-19.903,19.903-19.903h205.443c10.975,0,19.903,8.928,19.903,19.903s-8.929,19.903-19.903,19.903h-205.443Z"/>
            <path class="cls-4" d="m471.857,181.865c10.423,0,18.903,8.48,18.903,18.903s-8.48,18.903-18.903,18.903h-205.443c-10.423,0-18.903-8.48-18.903-18.903s8.48-18.903,18.903-18.903h205.443m0-2h-205.443c-11.497,0-20.903,9.407-20.903,20.903s9.406,20.903,20.903,20.903h205.443c11.497,0,20.903-9.406,20.903-20.903s-9.406-20.903-20.903-20.903h0Z"/>
          </g>
          <rect class="cls-4" x="260.995" y="181.284" width="181.443" height="38.968" rx="3.871" ry="3.871"/>
          <text class="cls-19" transform="translate(455.996 207.831)"><tspan x="0" y="0">값</tspan></text>
          <path class="cls-6" d="m424.938,196.091c1.503,0,3.006-.003,4.509.001.951.003,1.744.288,2.197,1.211.47.958.064,1.702-.534,2.425-1.451,1.754-2.859,3.543-4.343,5.268-1.318,1.533-2.389,1.523-3.72-.029-1.519-1.771-2.972-3.598-4.452-5.402-.521-.635-.812-1.313-.452-2.145.374-.865,1.045-1.293,1.954-1.309,1.614-.027,3.228-.008,4.842-.008v-.013Z"/>
          <text class="cls-19" transform="translate(271.52 207.832)"><tspan x="0" y="0" xml:space="preserve"> 최댓값 항목번호</tspan></text>
        </g>
      </g>
    </g>
    <g>
      <path class="cls-22" d="m355.968,33.954c-2.293-12.79-13.66-22.1-26.741-22.14-81.918-.248-184.947-.502-266.865-.713-2.727-.007-4.859-.438-7.168-2.399C48.028,2.617,39.547.119,30.1,1.274,20.381,2.463,12.681,7.161,7.067,15.04,2.193,21.879.212,29.582,1.283,38.024c1.177,9.281,5.524,16.675,12.825,22.461,2.04,1.617,6.09,3.722,7.073,4.225.147.075.282.172.401.286l11.318,10.9c.643.62,1.658.631,2.315.026l10.886-10.023c.313-.288.718-.448,1.143-.446,87.06.295,195.628.228,282.283.487.891.003,1.782-.029,2.673-.045.198-.088.388-.231.594-.257,15.315-1.89,25.945-16.233,23.175-31.684Z"/>
      <g>
        <path class="cls-1" d="m34.019,61.097c-14.927-.049-27.039-12.211-27-27.111.038-14.888,12.219-27,27.151-27h.124c14.901.067,26.977,12.266,26.918,27.193-.059,14.843-12.216,26.918-27.103,26.918h-.091Z"/>
        <path class="cls-15" d="m34.17,7.986h.121c14.349.064,25.978,11.813,25.922,26.189-.056,14.293-11.766,25.922-26.103,25.922h-.086c-14.375-.047-26.04-11.759-26.003-26.108.037-14.337,11.768-26.002,26.151-26.003m0-2c-15.526,0-28.111,12.502-28.151,27.998-.04,15.453,12.517,28.063,27.997,28.114h.093c15.445,0,28.043-12.502,28.103-27.914.06-15.477-12.463-28.128-27.913-28.197-.044,0-.086,0-.13,0h0Z"/>
      </g>
      <text class="cls-16" transform="translate(166.328 46.251) rotate(.173)"><tspan x="0" y="0">신호를 받았을 때</tspan></text>
      <g>
        <path class="cls-2" d="m133.116,18.305c17.877,0-1.426,0,16.451,0,2.815,0,4.335,2.426,4.336,6.934.003,8.742.003,17.483,0,26.225-.001,4.509-1.521,6.935-4.336,6.935-35.754,0-34.329-.025-70.083.059-2.308.005-4.351-2.765-4.335-6.91.033-8.797.033-17.595,0-26.392-.015-4.145,2.027-6.926,4.335-6.912,17.877.11,35.754.061,53.631.061Z"/>
        <text class="cls-17" transform="translate(85.53 46.188)"><tspan x="0" y="0">결과</tspan></text>
        <path class="cls-6" d="m138.671,34.454c1.503,0,3.006-.003,4.509.001.951.003,1.744.288,2.197,1.211.47.958.064,1.702-.534,2.425-1.451,1.754-2.859,3.543-4.343,5.268-1.318,1.533-2.389,1.523-3.72-.029-1.519-1.771-2.972-3.598-4.452-5.402-.521-.635-.812-1.313-.452-2.145.374-.865,1.045-1.293,1.954-1.309,1.614-.027,3.228-.008,4.842-.008v-.013Z"/>
      </g>
      <g>
        <path class="cls-5" d="m27.646,34.608h-.141l-4.232,12.492h16.332l-2.189-7.805c-3.859-.251-7.305-2.005-9.77-4.687Z"/>
        <path class="cls-5" d="m40.898,29.902l.36-.915.36-.915,1.763-4.482c1.417-.239,2.502-1.466,2.502-2.95,0-1.654-1.346-3-3-3-1.604,0-2.907,1.268-2.985,2.853l-4.144,1.677-.905.366-.905.366-5.662-5.697c-1.562,2.119-2.496,4.729-2.496,7.563,0,3.959,1.802,7.496,4.628,9.839,1.856,1.538,4.156,2.556,6.678,2.845.482.055.971.091,1.468.091,2.806,0,5.392-.915,7.499-2.449l-5.161-5.194Zm1.026-8.071l.028-.072.076.03-.105.042Zm.959-2.19c.551,0,1,.449,1,1s-.449,1-1,1-1-.449-1-1,.449-1,1-1Zm-3.165,7.797l-.36.915-3.885-3.91.905-.366.905-.366,3.195-1.293c.242.326.547.598.899.804l-1.299,3.302-.36.915Z"/>
      </g>
    </g>
    <g>
      <g>
        <g>
          <path class="cls-24" d="m393.529,65.482l-346.817.101h0l-12.543,11.548h0l-12.023-10.98c-.238-.218-.622-.049-.622.274v54.841l.171.168,11.328,10.345c.663.605,1.678.603,2.338-.004l10.91-10.045c.212-.195.49-.304.779-.304l346.48-.202c15.329,0,27.871-12.542,27.871-27.871s-12.542-27.871-27.871-27.871Z"/>
          <path class="cls-14" d="m414.478,93.397c.233,11.599-9.583,22.21-22.59,21.903-11.361-.268-21.522-9.45-21.508-22.104.014-12.581,10.427-22.278,22.629-21.994,11.969.279,21.786,10.209,21.47,22.194Z"/>
          <path class="cls-3" d="m396.845,90.458c1.407,0,2.395-.012,3.384.004.851.014,1.445.399,1.556,1.288.12.962-.563,1.285-1.317,1.519-.079.025-.17.08-.239.061-4.954-1.325-5.974,2.691-7.776,5.688-1.973,3.282-4.638,5.369-8.75,4.954-1.005-.101-1.949-.347-2.123-1.35-.208-1.2,1.021-.942,1.691-1.305,3.006-1.631,3.894-4.763,5.328-7.535-.849-.677-1.708-.269-2.483-.419-.887-.172-1.685-.555-1.601-1.554.067-.795.741-1.257,1.574-1.335.33-.031.676-.081.994-.017,2.34.468,3.589-.727,4.689-2.649,1.419-2.479,3.285-4.62,6.33-5.208,1.965-.38,3.644.13,4.821,1.803.593.843.499,1.736-.279,2.472-.735.695-1.343.452-1.831-.318-.614-.968-1.097-.293-1.572.131-1.022.911-1.408,2.213-2.396,3.771Z"/>
        </g>
        <text class="cls-18" transform="translate(50.568 101.93)"><tspan x="0" y="0">최댓값</tspan></text>
      </g>
      <g>
        <g>
          <path class="cls-9" d="m149.552,113.155c-10.975,0-19.903-8.929-19.903-19.903s8.929-19.903,19.903-19.903h185.602c10.975,0,19.903,8.929,19.903,19.903s-8.929,19.903-19.903,19.903h-185.602Z"/>
          <path class="cls-4" d="m335.154,74.348c10.423,0,18.903,8.48,18.903,18.903s-8.48,18.903-18.903,18.903h-185.602c-10.423,0-18.903-8.48-18.903-18.903s8.48-18.903,18.903-18.903h185.602m0-2h-185.602c-11.497,0-20.903,9.407-20.903,20.903s9.406,20.903,20.903,20.903h185.602c11.497,0,20.903-9.407,20.903-20.903s-9.406-20.903-20.903-20.903h0Z"/>
        </g>
        <rect class="cls-4" x="144.133" y="73.768" width="122.019" height="38.968" rx="3.871" ry="3.871"/>
        <text class="cls-19" transform="translate(279.063 100.314)"><tspan x="0" y="0">항목 수</tspan></text>
        <text class="cls-19" transform="translate(154.66 100.314)"><tspan x="0" y="0">반티 총점</tspan></text>
        <path class="cls-6" d="m250.458,88.574c1.503,0,3.006-.003,4.509.001.951.003,1.744.288,2.197,1.211.47.958.064,1.702-.534,2.425-1.451,1.754-2.859,3.543-4.343,5.268-1.318,1.533-2.389,1.523-3.72-.029-1.519-1.771-2.972-3.598-4.452-5.402-.521-.635-.812-1.313-.452-2.145.374-.865,1.045-1.293,1.954-1.309,1.614-.027,3.228-.008,4.842-.008v-.013Z"/>
      </g>
    </g>
    <g>
      <g>
        <path class="cls-23" d="m282.471,121.211H46.712l-12.543,11.141-12.024-10.593c-.238-.21-.622-.047-.622.265v52.811c0,.098.042.191.115.259l12.53,11.31,12.351-11.415h236.368c16.516,0,27.454-12.1,27.454-26.888h0c0-14.789-12.542-26.888-27.871-26.888Z"/>
        <g>
          <path class="cls-10" d="m258.186,148.604c.085-12.114,9.79-22.01,22.342-21.937,12.159.071,22.178,9.883,21.961,22.471-.203,11.764-9.754,21.773-22.498,21.598-12.042-.166-21.794-9.762-21.805-22.132Z"/>
          <text class="cls-20" transform="translate(270.779 156.633)"><tspan x="0" y="0">가</tspan></text>
        </g>
      </g>
      <text class="cls-16" transform="translate(50.333 155.472)"><tspan x="0" y="0">텍스트 모두 지우기</tspan></text>
    </g>
  </g>
  <rect class="cls-8" x="128.649" y="72.348" width="227.408" height="41.806" rx="20.903" ry="20.903"/>
</svg>