<?xml version="1.0" encoding="UTF-8"?>
<svg id="_레이어_1" data-name="레이어 1" xmlns="http://www.w3.org/2000/svg" viewBox="0 0 571.748 42.105">
  <defs>
    <style>
      .cls-1 {
        fill: #dc47d7;
      }

      .cls-1, .cls-2, .cls-3, .cls-4, .cls-5, .cls-6, .cls-7 {
        stroke-width: 0px;
      }

      .cls-2 {
        fill: #b819b3;
      }

      .cls-8 {
        letter-spacing: -.025em;
      }

      .cls-8, .cls-9, .cls-10 {
        fill: #fff;
        font-family: Pretendard-Bold-KSCpc-EUC-H, Pretendard;
        font-weight: 700;
      }

      .cls-8, .cls-10 {
        font-size: 22px;
      }

      .cls-3 {
        fill: #fefdfe;
      }

      .cls-9 {
        font-size: 24.135px;
        letter-spacing: -.025em;
      }

      .cls-4 {
        fill: #b719b2;
      }

      .cls-5 {
        fill: #ff7f00;
      }

      .cls-6 {
        fill: #dd47d8;
      }

      .cls-7 {
        fill: #f4af18;
      }
    </style>
  </defs>
  <g>
    <path class="cls-7" d="m20.903,40.956c-10.975,0-19.903-8.929-19.903-19.903S9.929,1.15,20.903,1.15h529.941c10.975,0,19.903,8.929,19.903,19.903s-8.929,19.903-19.903,19.903H20.903Z"/>
    <path class="cls-5" d="m550.845,2.149c10.423,0,18.903,8.48,18.903,18.903s-8.48,18.903-18.903,18.903H20.903c-10.423,0-18.903-8.48-18.903-18.903S10.48,2.149,20.903,2.149h529.941m0-2H20.903C9.406.149,0,9.556,0,21.053s9.406,20.903,20.903,20.903h529.941c11.497,0,20.903-9.406,20.903-20.903S562.341.149,550.845.149h0Z"/>
  </g>
  <g>
    <g>
      <g>
        <g>
          <path class="cls-6" d="m36.852,40.956c-10.975,0-19.903-8.929-19.903-19.903S25.877,1.15,36.852,1.15h373.967c10.975,0,19.903,8.929,19.903,19.903s-8.928,19.903-19.903,19.903H36.852Z"/>
          <path class="cls-2" d="m410.819,2.149c10.423,0,18.903,8.48,18.903,18.903s-8.48,18.903-18.903,18.903H36.852c-10.423,0-18.903-8.48-18.903-18.903S26.429,2.149,36.852,2.149h373.967m0-2H36.852C25.355.149,15.949,9.556,15.949,21.053s9.406,20.903,20.903,20.903h373.967c11.497,0,20.903-9.406,20.903-20.903S422.315.149,410.819.149h0Z"/>
        </g>
        <rect class="cls-2" x="31.433" y="1.569" width="121.987" height="38.968" rx="3.871" ry="3.871"/>
        <text class="cls-8" transform="translate(333.762 28.115)"><tspan x="0" y="0">번째 항목</tspan></text>
        <text class="cls-8" transform="translate(167.648 28.115)"><tspan x="0" y="0">의</tspan></text>
        <text class="cls-8" transform="translate(41.957 28.115)"><tspan x="0" y="0">반티 총점</tspan></text>
        <path class="cls-3" d="m135.726,16.375c1.503,0,3.006-.003,4.509.001.951.003,1.744.288,2.197,1.211.47.958.064,1.702-.534,2.425-1.451,1.754-2.859,3.543-4.343,5.268-1.318,1.533-2.389,1.523-3.72-.029-1.519-1.771-2.972-3.598-4.452-5.402-.521-.635-.812-1.313-.452-2.145.374-.865,1.045-1.293,1.954-1.309,1.614-.027,3.228-.008,4.842-.008v-.013Z"/>
      </g>
      <g>
        <g>
          <path class="cls-6" d="m218.166,40.956c-10.975,0-19.903-8.929-19.903-19.903S207.191,1.15,218.166,1.15h79.473c10.975,0,19.903,8.929,19.903,19.903s-8.929,19.903-19.903,19.903h-79.473Z"/>
          <path class="cls-2" d="m297.639,2.149c10.423,0,18.903,8.48,18.903,18.903s-8.48,18.903-18.903,18.903h-79.473c-10.423,0-18.903-8.48-18.903-18.903s8.48-18.903,18.903-18.903h79.473m0-2h-79.473c-11.497,0-20.903,9.406-20.903,20.903s9.406,20.903,20.903,20.903h79.473c11.497,0,20.903-9.406,20.903-20.903S309.135.149,297.639.149h0Z"/>
        </g>
        <rect class="cls-2" x="212.747" y="1.569" width="57.152" height="38.968" rx="3.871" ry="3.871"/>
        <text class="cls-8" transform="translate(282.809 28.115)"><tspan x="0" y="0">값</tspan></text>
        <text class="cls-8" transform="translate(223.272 28.115)"><tspan x="0" y="0">n</tspan></text>
        <path class="cls-3" d="m254.206,16.375c1.503,0,3.006-.003,4.509.001.951.003,1.744.288,2.197,1.211.47.958.064,1.702-.534,2.425-1.451,1.754-2.859,3.543-4.343,5.268-1.318,1.533-2.389,1.523-3.72-.029-1.519-1.771-2.972-3.598-4.452-5.402-.521-.635-.812-1.313-.452-2.145.374-.865,1.045-1.293,1.954-1.309,1.614-.027,3.228-.008,4.842-.008v-.013Z"/>
      </g>
    </g>
    <g>
      <g>
        <path class="cls-4" d="m553.757,12.204C549.778,4.176,543.171,0,534.065,0l-23.634.017c-13.365.1-23.308,12.743-20.298,25.728,2.245,9.683,10.748,16.352,20.919,16.354l22.63.007c1.562,0,3.108-.072,4.657-.328,13.443-2.215,21.457-17.384,15.417-29.573Z"/>
        <path class="cls-1" d="m521.297,2.008c42.548,0-29.54-.003,13.008.003,9.346.001,16.7,5.774,18.918,14.808,2.597,10.582-4.706,21.37-15.534,23.016-1.222.186-2.431.263-3.655.263-85.04,0,62.236.002-22.804,0-11.651,0-20.056-8.798-19.553-20.436.36-8.321,7.473-16.158,15.669-17.363,1.445-.212,2.876-.287,4.323-.287,42.437-.001-32.807,0,9.629,0Z"/>
      </g>
      <text class="cls-10" transform="translate(504.033 26.373)"><tspan x="0" y="0">대답</tspan></text>
    </g>
    <rect class="cls-5" x="444.947" y="1.592" width="30.968" height="39.613" rx="3.355" ry="3.355"/>
    <text class="cls-9" transform="translate(452.79 28.115)"><tspan x="0" y="0">+</tspan></text>
  </g>
</svg>