<?xml version="1.0" encoding="UTF-8"?>
<svg id="_레이어_1" data-name="레이어 1" xmlns="http://www.w3.org/2000/svg" viewBox="0 0 500 350">
  <defs>
    <style>
      .cls-1 {
        fill: #fdefea;
      }

      .cls-1, .cls-2 {
        stroke-width: 0px;
      }

      .cls-3 {
        font-family: Pretendard-Medium-KSCpc-EUC-H, Pretendard;
        font-size: 50px;
        font-weight: 500;
      }

      .cls-2 {
        fill: #0067c4;
      }

      .cls-4 {
        fill: none;
        stroke: #0067c4;
        stroke-miterlimit: 10;
        stroke-width: 4px;
      }
    </style>
  </defs>
  <polyline class="cls-4" points="250.6 273.877 103.341 175 250.6 76.123 396.659 175"/>
  <line class="cls-4" x1="103.341" y1="175" x2="396.659" y2="175"/>
  <g>
    <g>
      <circle class="cls-1" cx="250.6" cy="76.123" r="39.693" transform="translate(135.319 311.294) rotate(-80.783)"/>
      <path class="cls-2" d="m250.6,38.929c20.509,0,37.194,16.685,37.194,37.194s-16.685,37.194-37.194,37.194-37.194-16.685-37.194-37.194,16.685-37.194,37.194-37.194m0-5c-23.303,0-42.194,18.891-42.194,42.194s18.891,42.194,42.194,42.194,42.194-18.891,42.194-42.194-18.891-42.194-42.194-42.194h0Z"/>
    </g>
    <text class="cls-3" transform="translate(235.171 92.418)"><tspan x="0" y="0">0</tspan></text>
  </g>
  <g>
    <g>
      <path class="cls-1" d="m250.601,313.571c-21.887,0-39.694-17.807-39.694-39.694s17.807-39.693,39.694-39.693,39.693,17.807,39.693,39.693-17.807,39.694-39.693,39.694Z"/>
      <path class="cls-2" d="m250.6,236.684c20.509,0,37.194,16.685,37.194,37.194s-16.685,37.194-37.194,37.194-37.194-16.685-37.194-37.194,16.685-37.194,37.194-37.194m0-5c-23.303,0-42.194,18.891-42.194,42.194s18.891,42.194,42.194,42.194,42.194-18.891,42.194-42.194-18.891-42.194-42.194-42.194h0Z"/>
    </g>
    <text class="cls-3" transform="translate(235.732 290.173)"><tspan x="0" y="0">2</tspan></text>
  </g>
  <g>
    <g>
      <circle class="cls-1" cx="396.659" cy="175" r="39.693"/>
      <path class="cls-2" d="m396.659,137.806c20.509,0,37.194,16.685,37.194,37.194s-16.685,37.194-37.194,37.194-37.194-16.685-37.194-37.194,16.685-37.194,37.194-37.194m0-5c-23.303,0-42.194,18.891-42.194,42.194s18.891,42.194,42.194,42.194,42.194-18.891,42.194-42.194-18.891-42.194-42.194-42.194h0Z"/>
    </g>
    <text class="cls-3" transform="translate(381.059 191.296)"><tspan x="0" y="0">3</tspan></text>
  </g>
  <g>
    <g>
      <circle class="cls-1" cx="103.341" cy="175" r="39.693" transform="translate(-85.953 248.975) rotate(-80.783)"/>
      <path class="cls-2" d="m103.341,137.806c20.509,0,37.194,16.685,37.194,37.194s-16.685,37.194-37.194,37.194-37.194-16.685-37.194-37.194,16.685-37.194,37.194-37.194m0-5c-23.303,0-42.194,18.891-42.194,42.194s18.891,42.194,42.194,42.194,42.194-18.891,42.194-42.194-18.891-42.194-42.194-42.194h0Z"/>
    </g>
    <text class="cls-3" transform="translate(92.134 191.296)"><tspan x="0" y="0">1</tspan></text>
  </g>
</svg>