<?xml version="1.0" encoding="utf-8"?>
<!-- Generator: Adobe Illustrator 28.0.0, SVG Export Plug-In . SVG Version: 6.00 Build 0)  -->
<svg version="1.1" id="레이어_1" width="262" height="180" xmlns="http://www.w3.org/2000/svg" xmlns:xlink="http://www.w3.org/1999/xlink" x="0px"
	 y="0px" viewBox="0 0 262 185" style="enable-background:new 0 0 262 185;" xml:space="preserve">
<style type="text/css">
	.st0{fill:#DBDCDC;}
	.st1{fill:none;stroke:#FFFFFF;stroke-width:1.5;stroke-miterlimit:10;}
	.st2{opacity:0.65;}
	.st3{fill:#FDD776;}
</style>
<g>
	<g>
		<polygon class="st0" points="80.864,15.719 41.968,91.726 80.864,167.377 180.78,167.377 220.032,91.548 180.78,15.719 		"/>
		<line class="st1" x1="80.864" y1="15.719" x2="181.969" y2="169.281"/>
		<line class="st1" x1="41.968" y1="91.726" x2="220.032" y2="91.726"/>
		<line class="st1" x1="181.969" y1="15.719" x2="80.864" y2="168.33"/>
		<polygon class="st1" points="94.6,36.582 67.304,92.025 95.659,145.998 167.746,147.68 195.292,91.548 168.831,35.549 		"/>
		<polygon class="st1" points="107.698,56.476 90.855,91.726 108.267,126.966 154.108,126.966 172.215,91.726 154.967,56.476 		"/>
		<polygon class="st1" points="118.762,73.281 110.601,92.5 119.783,109.584 142.664,109.584 152.946,91.432 143.834,73.281 		"/>
	</g>
	<g>
		<path d="M1.128,87.046h3.794v-1.992h1.143v6.006H0v-6.006h1.128V87.046z M4.922,90.122v-2.168H1.128v2.168H4.922z M9.741,94.824
			c0,1.538-1.611,2.417-4.292,2.432c-2.681-0.015-4.321-0.894-4.321-2.432c0-1.523,1.641-2.402,4.321-2.402
			S9.741,93.301,9.741,94.824z M2.285,94.824c-0.015,0.938,1.201,1.494,3.164,1.494c1.978,0,3.179-0.557,3.179-1.494
			s-1.201-1.479-3.179-1.494C3.486,93.345,2.271,93.887,2.285,94.824z M9.624,87.515h1.963v0.981H9.624v3.574H8.481v-7.837h1.143
			V87.515z"/>
		<path d="M19.146,89.214h2.915v-4.98h1.143v13.052h-1.143v-7.119h-2.9c-0.139,2.549-1.436,4.146-3.252,4.146
			c-1.919,0-3.267-1.758-3.267-4.526s1.348-4.526,3.267-4.541C17.681,85.259,18.955,86.775,19.146,89.214z M13.74,89.785
			c0,2.124,0.879,3.501,2.168,3.501c1.274,0,2.168-1.377,2.168-3.501s-0.894-3.501-2.168-3.516
			C14.619,86.284,13.74,87.661,13.74,89.785z"/>
		<path d="M31.553,88.686H27.07v2.021c2.446,0,3.706-0.037,5.244-0.322l0.117,0.952c-1.626,0.264-2.944,0.308-5.581,0.308h-0.923
			v-3.838h4.482v-1.846h-4.512v-0.923h5.654V88.686z M36.167,97.285H35.01v-3.398h-7.617v-0.938h8.774V97.285z M36.167,92.246H35.01
			v-2.417h-2.593v-0.952h2.593v-1.758h-2.593v-0.938h2.593v-1.934h1.157V92.246z"/>
	</g>
	<g>
		<g>
			<path d="M61.04,181.06l-0.659,0.864c-1.296-0.703-2.234-2.051-2.71-3.618c-0.469,1.67-1.399,3.12-2.695,3.911l-0.688-0.879
				c1.772-1.025,2.812-3.311,2.827-5.464v-0.645h-2.476v-0.952h2.476v-1.934h1.099v1.934h2.432v0.952h-2.446v0.645
				C58.198,177.969,59.267,180.107,61.04,181.06z M62.885,184.209h-1.084v-6.226H59.75v-0.981h2.051v-4.819h1.084V184.209z
				 M65.522,184.883h-1.099V171.86h1.099V184.883z"/>
			<path d="M73.535,176.313h-4.482v2.021c2.446,0,3.706-0.037,5.244-0.322l0.117,0.952c-1.626,0.264-2.944,0.308-5.581,0.308H67.91
				v-3.838h4.482v-1.846H67.88v-0.923h5.654V176.313z M78.149,184.912h-1.157v-3.398h-7.617v-0.938h8.774V184.912z M78.149,179.873
				h-1.157v-2.417h-2.593v-0.952h2.593v-1.758h-2.593v-0.938h2.593v-1.934h1.157V179.873z"/>
		</g>
		<g>
			<path d="M191.843,179.814h-1.157v-1.758h-3.457v-0.952h3.457v-1.758h-3.325c-0.857,2.095-2.871,3.611-5.654,4.438l-0.483-0.908
				c3.149-0.938,5.105-2.695,5.347-4.951h-4.688v-0.967h5.933c0,0.513-0.059,1.003-0.161,1.465h3.032v-2.432h1.157V179.814z
				 M191.916,182.437c0,1.567-1.699,2.505-4.336,2.505c-2.666,0-4.351-0.938-4.351-2.505c0-1.553,1.685-2.49,4.351-2.49
				C190.217,179.946,191.916,180.884,191.916,182.437z M184.358,182.437c0,0.981,1.26,1.567,3.223,1.567
				c1.934,0,3.179-0.586,3.193-1.567c-0.015-0.981-1.26-1.582-3.193-1.567C185.617,180.854,184.358,181.455,184.358,182.437z"/>
			<path d="M201.628,174.292h-7.603v-0.938h3.237v-1.494h1.128v1.494h3.237V174.292z M200.852,177.28
				c-0.015,1.406-1.26,2.329-3.032,2.329s-3.018-0.923-3.018-2.329c0-1.362,1.245-2.314,3.018-2.314S200.837,175.918,200.852,177.28
				z M195.901,177.28c0,0.864,0.791,1.436,1.919,1.45c1.128-0.015,1.919-0.586,1.919-1.45c0-0.835-0.791-1.421-1.919-1.421
				S195.901,176.445,195.901,177.28z M204.807,184.824h-8.511v-4.248h8.511V184.824z M197.439,183.887h6.24v-2.388h-6.24V183.887z
				 M204.807,179.873h-1.157v-2.974h-2.212v-0.952h2.212v-3.97h1.157V179.873z"/>
			<path d="M215.266,181.353l-0.645,0.894c-1.501-0.667-2.776-2.08-3.384-3.809c-0.586,1.831-1.853,3.333-3.354,4.043l-0.645-0.894
				c1.934-0.879,3.413-3.076,3.413-5.361v-1.04h-3.062v-0.938h3.047v-2.021h1.143v2.021h3.032v0.938h-3.032v1.04
				C211.78,178.408,213.303,180.518,215.266,181.353z M217.712,185h-1.157v-13.022h1.157V185z"/>
		</g>
	</g>
	<g>
		<path d="M237.186,91.645h-5.376v1.318c2.483,0.103,3.911,0.857,3.926,2.153c-0.015,1.406-1.655,2.153-4.482,2.153
			s-4.497-0.747-4.497-2.153c0-1.296,1.443-2.043,3.926-2.153v-1.318h-5.361v-0.923h11.865V91.645z M231.81,85.552h4.175v0.938
			h-4.087c0.11,1.443,2.161,2.41,4.585,2.637l-0.352,0.894c-2.161-0.227-4.087-0.996-4.878-2.314
			c-0.798,1.318-2.732,2.087-4.878,2.314l-0.366-0.894c2.424-0.227,4.475-1.194,4.614-2.637h-4.072v-0.938h4.131v-1.304h1.128
			V85.552z M227.928,95.117c-0.015,0.82,1.216,1.274,3.325,1.26c2.08,0.015,3.325-0.439,3.325-1.26s-1.245-1.289-3.325-1.289
			C229.144,93.828,227.913,94.297,227.928,95.117z"/>
		<path d="M245.989,90.474l-0.645,0.894c-1.436-0.542-2.563-1.597-3.12-2.974c-0.564,1.56-1.758,2.776-3.325,3.369l-0.63-0.938
			c2.007-0.703,3.34-2.432,3.354-4.453v-1.348h1.143v1.304C242.752,88.188,244.07,89.829,245.989,90.474z M249.124,94.839
			c0,1.553-1.655,2.432-4.365,2.432s-4.365-0.879-4.365-2.432c0-1.567,1.655-2.461,4.365-2.461S249.124,93.271,249.124,94.839z
			 M241.536,94.839c-0.015,0.938,1.23,1.509,3.223,1.509s3.223-0.571,3.223-1.509c0-0.967-1.23-1.553-3.223-1.553
			S241.521,93.872,241.536,94.839z M249.08,91.997h-1.157v-3.97h-2.9v-0.952h2.9v-2.798h1.157V91.997z"/>
		<path d="M259.173,90.225l-0.586,0.879c-1.509-0.52-2.71-1.619-3.296-3.047c-0.579,1.523-1.794,2.725-3.354,3.296l-0.586-0.908
			c1.978-0.688,3.34-2.446,3.34-4.365v-1.274h1.172v1.274C255.848,87.925,257.254,89.551,259.173,90.225z M262,97.124h-8.467v-4.688
			H262V97.124z M254.661,96.186h6.211v-2.812h-6.211V96.186z M262,91.689h-1.143v-7.397H262V91.689z"/>
	</g>
	<g>
		<path d="M127.003,50.242h-1.155v-7.998h-0.051l-2.234,1.485v-1.155l2.285-1.523h1.155V50.242z"/>
		<path d="M129.251,45.647c0-2.983,1.193-4.723,3.212-4.723s3.212,1.739,3.212,4.723c0,3.009-1.181,4.723-3.212,4.723
			C130.418,50.369,129.251,48.655,129.251,45.647z M134.557,45.647c0-2.374-0.774-3.732-2.095-3.732s-2.107,1.358-2.107,3.732
			s0.774,3.707,2.107,3.707C133.783,49.354,134.557,48.021,134.557,45.647z"/>
		<path d="M136.995,45.647c0-2.983,1.193-4.723,3.212-4.723s3.212,1.739,3.212,4.723c0,3.009-1.181,4.723-3.212,4.723
			C138.163,50.369,136.995,48.655,136.995,45.647z M142.301,45.647c0-2.374-0.774-3.732-2.095-3.732s-2.107,1.358-2.107,3.732
			s0.774,3.707,2.107,3.707C141.527,49.354,142.301,48.021,142.301,45.647z"/>
	</g>
	<g>
		<path d="M127.003,29.599h-1.155v-7.998h-0.051l-2.234,1.485v-1.155l2.285-1.523h1.155V29.599z"/>
		<path d="M129.466,27.289h1.104c0.089,0.825,0.889,1.435,1.879,1.435c1.193,0,2.057-0.876,2.057-2.031
			c0-1.193-0.901-2.069-2.133-2.082c-0.774-0.013-1.371,0.229-1.714,0.825h-1.104l0.647-5.027h4.977v1.016h-4.024l-0.343,2.691
			h0.089c0.406-0.317,1.028-0.533,1.676-0.533c1.752,0,3.047,1.295,3.047,3.085c0,1.777-1.346,3.06-3.174,3.06
			C130.787,29.726,129.53,28.698,129.466,27.289z"/>
		<path d="M137.007,25.004c0-2.983,1.193-4.723,3.212-4.723s3.212,1.739,3.212,4.723c0,3.009-1.181,4.723-3.212,4.723
			C138.175,29.726,137.007,28.012,137.007,25.004z M142.314,25.004c0-2.374-0.774-3.732-2.095-3.732s-2.107,1.358-2.107,3.732
			s0.774,3.707,2.107,3.707C141.54,28.711,142.314,27.378,142.314,25.004z"/>
	</g>
	<g>
		<path d="M123.563,10.441l3.136-3.301c1.092-1.155,1.612-1.777,1.612-2.628c0-0.939-0.8-1.562-1.828-1.562
			c-1.092,0-1.79,0.698-1.79,1.727h-1.079c-0.013-1.625,1.244-2.717,2.907-2.717s2.856,1.117,2.856,2.552
			c0,1.028-0.482,1.828-2.107,3.504l-2.107,2.171v0.076h4.38v1.016h-5.967L123.563,10.441z"/>
		<path d="M131.002,6.683c0-2.983,1.193-4.723,3.212-4.723s3.212,1.739,3.212,4.723c0,3.009-1.181,4.723-3.212,4.723
			C132.17,11.406,131.002,9.692,131.002,6.683z M136.309,6.683c0-2.374-0.774-3.732-2.095-3.732s-2.107,1.358-2.107,3.732
			s0.774,3.707,2.107,3.707C135.535,10.39,136.309,9.057,136.309,6.683z"/>
		<path d="M138.747,6.683c0-2.983,1.193-4.723,3.212-4.723s3.212,1.739,3.212,4.723c0,3.009-1.181,4.723-3.212,4.723
			C139.915,11.406,138.747,9.692,138.747,6.683z M144.053,6.683c0-2.374-0.774-3.732-2.095-3.732s-2.107,1.358-2.107,3.732
			s0.774,3.707,2.107,3.707C143.279,10.39,144.053,9.057,144.053,6.683z"/>
	</g>
	<g>
		<path d="M123.563,66.929h1.104c0.089,0.825,0.889,1.435,1.879,1.435c1.193,0,2.057-0.876,2.057-2.031
			c0-1.193-0.901-2.069-2.133-2.082c-0.774-0.013-1.371,0.229-1.714,0.825h-1.104l0.647-5.027h4.977v1.016h-4.024l-0.343,2.691
			h0.089c0.406-0.317,1.028-0.533,1.676-0.533c1.752,0,3.047,1.295,3.047,3.085c0,1.777-1.346,3.06-3.174,3.06
			C124.883,69.367,123.626,68.339,123.563,66.929z"/>
		<path d="M131.104,64.644c0-2.983,1.193-4.723,3.212-4.723s3.212,1.739,3.212,4.723c0,3.009-1.181,4.723-3.212,4.723
			C132.272,69.367,131.104,67.653,131.104,64.644z M136.411,64.644c0-2.374-0.774-3.732-2.095-3.732s-2.107,1.358-2.107,3.732
			s0.774,3.707,2.107,3.707C135.636,68.351,136.411,67.018,136.411,64.644z"/>
	</g>
	<g class="st2">
		<g>
			<polygon class="st3" points="94.983,37.021 110.698,92.123 108.907,126.936 166.595,146.827 217.121,92.722 153.466,58.11 			"/>
		</g>
	</g>
	<g>
		<path d="M53.291,7.002H41.44V6.064h4.907v-2.52h1.128v2.52h5.815V7.002z M51.884,10.605c0,1.494-1.772,2.373-4.57,2.373
			c-2.783,0-4.556-0.879-4.556-2.373c0-1.509,1.772-2.388,4.556-2.388C50.112,8.218,51.884,9.097,51.884,10.605z M51.782,1.758
			c0,1.055,0,2.109-0.366,3.457l-1.128-0.132c0.352-1.348,0.352-2.3,0.352-3.325V1.597h-7.793V0.659h8.936V1.758z M43.901,10.605
			c-0.015,0.908,1.333,1.465,3.413,1.465s3.413-0.557,3.428-1.465c-0.015-0.923-1.348-1.494-3.428-1.509
			C45.234,9.111,43.886,9.683,43.901,10.605z"/>
		<path d="M61.098,2.329h2.93V0h1.157v7.764h-1.157V6.035h-3.457V5.083h3.457V3.281h-3.237c-0.886,2.051-2.922,3.53-5.742,4.307
			l-0.454-0.923c3.179-0.879,5.193-2.629,5.435-4.849h-4.775V0.879h6.006C61.259,1.384,61.201,1.868,61.098,2.329z M65.185,12.993
			h-1.157V9.258h-7.603V8.335h8.76V12.993z"/>
		<path d="M73.535,4.438h-4.482V6.46c2.446,0,3.706-0.037,5.244-0.322l0.117,0.952c-1.626,0.264-2.944,0.308-5.581,0.308H67.91V3.56
			h4.482V1.714H67.88V0.791h5.654V4.438z M78.149,13.037h-1.157V9.639h-7.617V8.701h8.774V13.037z M78.149,7.998h-1.157V5.581
			h-2.593V4.629h2.593V2.871h-2.593V1.934h2.593V0h1.157V7.998z"/>
	</g>
	<g>
		<path d="M193.147,11.25h-11.924v-0.952h11.924V11.25z M192.531,6.562l-0.527,0.967c-1.963-0.454-4.036-1.853-4.878-3.779
			c-0.842,1.919-2.908,3.318-4.878,3.779l-0.527-0.967c2.256-0.439,4.79-2.402,4.79-4.644V0.923h1.201v0.996
			C187.712,4.146,190.261,6.138,192.531,6.562z"/>
		<path d="M201.95,2.373h-1.479v6.27c0.732-0.051,1.458-0.117,2.153-0.205l0.073,0.864c-2.842,0.439-5.977,0.483-8.394,0.498
			l-0.132-0.981l1.802-0.015V2.373h-1.465V1.421h7.441V2.373z M199.343,8.701V2.373h-2.241v6.416
			C197.834,8.774,198.589,8.745,199.343,8.701z M204.953,13.022h-1.157V0h1.157V13.022z"/>
		<path d="M219.074,11.25h-11.924v-0.967h11.924V11.25z M217.668,7.222h-8.994V1.216h8.862v0.952h-7.72V6.27h7.852V7.222z"/>
	</g>
</g>
</svg>
