<?xml version="1.0" encoding="UTF-8"?>
<svg id="_레이어_2" data-name="레이어 2" xmlns="http://www.w3.org/2000/svg" viewBox="0 0 405.877 68.75">
  <defs>
    <style>
      .cls-1 {
        fill: #78d5d3;
      }

      .cls-1, .cls-2, .cls-3 {
        stroke-width: 0px;
      }

      .cls-2 {
        fill: #fefdfe;
      }

      .cls-4 {
        font-size: 22px;
      }

      .cls-4, .cls-5 {
        fill: #fefefe;
        font-family: Pretendard-Bold-KSCpc-EUC-H, Pretendard;
        font-weight: 700;
      }

      .cls-3 {
        fill: #008380;
      }

      .cls-6 {
        fill: #00b6b1;
        stroke: #008380;
        stroke-miterlimit: 10;
        stroke-width: 2px;
      }

      .cls-5 {
        font-size: 26px;
        letter-spacing: -.01em;
      }
    </style>
  </defs>
  <path class="cls-6" d="m377.006,1l-350.817.101h0l-12.543,11.548h0L1.622,1.669c-.238-.218-.622-.049-.622.274v54.841l.171.168,11.328,10.345c.663.605,1.678.603,2.338-.004l10.91-10.045c.212-.195.49-.304.779-.304l350.481-.202c15.329,0,27.871-12.542,27.871-27.871s-12.542-27.871-27.871-27.871Z"/>
  <path class="cls-3" d="m397.955,28.915c.233,11.599-9.583,22.21-22.59,21.903-11.361-.268-21.522-9.449-21.508-22.104.014-12.581,10.427-22.278,22.629-21.994,11.969.279,21.786,10.209,21.47,22.194Z"/>
  <text class="cls-5" transform="translate(30.044 37.448)"><tspan x="0" y="0">LED에</tspan></text>
  <text class="cls-5" transform="translate(200.938 37.448)"><tspan x="0" y="0">모양 나타내기</tspan></text>
  <g>
    <path class="cls-1" d="m381.259,18.954c-1.047,0-1.949.579-2.434,1.427h-4.07c-.367,0-.719.145-.978.405l-7.704,7.688h-4.051c-.765,0-1.385.62-1.385,1.385s.62,1.385,1.385,1.385h4.624c.367,0,.719-.145.978-.405l7.704-7.688h3.497c.484.848,1.387,1.427,2.434,1.427,1.553,0,2.812-1.259,2.812-2.812s-1.259-2.812-2.812-2.812Z"/>
    <path class="cls-1" d="m371.357,37.39c1.047,0,1.949-.579,2.433-1.427h4.07c.367,0,.719-.145.978-.405l7.704-7.688h4.052c.765,0,1.385-.62,1.385-1.385s-.62-1.385-1.385-1.385h-4.624c-.367,0-.719.145-.978.405l-7.704,7.688h-3.497c-.484-.848-1.387-1.427-2.433-1.427-1.553,0-2.812,1.259-2.812,2.812s1.259,2.812,2.812,2.812Z"/>
  </g>
  <g>
    <path class="cls-3" d="m184.27,9.252l-68.471-.054c-2.545-.002-4.608,2.06-4.608,4.605v30.991c0,2.547,2.076,4.61,4.622,4.605,32.802-.069,35.638-.051,68.446-.049,2.543,0,4.613-2.062,4.613-4.605V13.857c0-2.542-2.06-4.603-4.602-4.605Z"/>
    <g>
      <text class="cls-4" transform="translate(121.571 37.139)"><tspan x="0" y="0">하트</tspan></text>
      <path class="cls-2" d="m174.711,25.405c1.503,0,3.006-.003,4.509.001.951.003,1.744.288,2.197,1.211.47.958.064,1.702-.534,2.425-1.451,1.754-2.859,3.543-4.343,5.269-1.318,1.533-2.389,1.523-3.72-.029-1.519-1.771-2.972-3.598-4.452-5.402-.521-.635-.812-1.313-.452-2.145.374-.865,1.045-1.293,1.954-1.309,1.614-.027,3.228-.008,4.842-.008v-.013Z"/>
    </g>
  </g>
</svg>