<?xml version="1.0" encoding="UTF-8"?>
<svg id="_레이어_1" data-name="레이어 1" xmlns="http://www.w3.org/2000/svg" viewBox="0 0 695 192">
  <defs>
    <style>
      .cls-1, .cls-2, .cls-3 {
        fill: #fefefe;
      }

      .cls-1, .cls-4, .cls-5, .cls-6, .cls-7, .cls-8, .cls-9, .cls-10, .cls-11, .cls-12, .cls-13 {
        stroke-width: 0px;
      }

      .cls-14 {
        letter-spacing: -.022em;
      }

      .cls-2 {
        font-size: 25.949px;
      }

      .cls-2, .cls-3, .cls-15 {
        font-family: Pretendard-SemiBold-KSCpc-EUC-H, Pretendard;
        font-weight: 600;
      }

      .cls-4 {
        fill: #dc47d7;
      }

      .cls-5 {
        fill: #fefdfe;
      }

      .cls-6 {
        fill: #b719b2;
      }

      .cls-3, .cls-15 {
        font-size: 21.957px;
      }

      .cls-7 {
        fill: #fafdfa;
      }

      .cls-8 {
        fill: #f577f1;
      }

      .cls-9 {
        fill: #fedd81;
      }

      .cls-10 {
        fill: #f677f2;
      }

      .cls-11 {
        fill: #fe9b00;
      }

      .cls-12 {
        fill: #00b300;
      }

      .cls-13 {
        fill: #009300;
      }
    </style>
  </defs>
  <g>
    <path class="cls-6" d="m320.261,66.032c.78.018,1.56.053,2.34.053,114.144.002,228.288.003,342.432.002,10.215,0,18.479,3.908,24.565,12.171,9.068,12.309,6.431,30.381-5.75,39.667-5.458,4.161-11.573,6.29-18.461,6.191-2.43-.035-87.551-.006-90.027.122,3.099,1.555,6.015,3.319,8.468,5.751,8.408,8.336,11.318,18.332,7.839,29.585-3.56,11.516-11.775,18.221-23.748,20.279-1.778.306-3.552.274-5.332.274-198.511.005-314.333.007-512.844-.031-1.586,0-2.685.442-3.77,1.57-3.125,3.249-6.39,6.363-9.541,9.588-.951.973-1.627,1.013-2.601.021-3.626-3.695-7.295-7.348-11.003-10.961-.751-.732-.76-1.525-.76-2.419.005-36.011.005-72.022.002-108.033,0-.721-.035-1.442-.053-2.164-.452-1.008-.162-1.649.94-1.892,1.174.042,1.908.838,2.658,1.576,2.658,2.616,5.28,5.27,7.936,7.888,1.448,1.428,1.679,1.433,3.114.024,2.661-2.613,5.309-5.24,7.923-7.9,1.252-1.274,2.678-1.944,4.474-1.836.611.037,1.226.003,1.84.003,86.821-.004,173.642.007,260.462-.006.279,0,.558-.004.836.027,1.89.088,3.779-.012,5.669-.019.817-.003,1.685-.14,2.391.469Z"/>
    <path class="cls-13" d="m320.261,66.032h-8.084c.277-.922,1.135-.766,1.786-.9,8.831-1.816,15.282-6.689,19.27-14.777,5.735-11.632,1.461-26.549-9.566-33.481-4.664-2.932-9.735-4.318-15.225-4.317-82.028.003-164.057-.006-246.085.04-2.483.001-4.347-.645-6.295-2.299C44.728.668,27.834-.454,15.004,9.511,2.899,18.913-.948,35.427,5.703,49.172c3.245,6.706,8.234,11.819,14.963,15.186.795.398,1.871.553,2.075,1.704-.654.363-.69.998-.722,1.634C8.395,62.223-.426,48.731.016,34.04.456,19.385,9.998,6.282,24.085,1.861c12.755-4.003,24.418-1.548,34.515,7.373.874.772,1.729.836,2.733.836,82.407-.004,164.813-.002,247.22-.006,9.768,0,17.734,3.745,23.75,11.421,11.181,14.266,6.078,35.769-10.304,43.613-.593.284-1.159.622-1.738.935Z"/>
    <path class="cls-4" d="m24.349,125.808c3.073,3.08,6.016,6.036,8.965,8.985q1.803,1.803,3.56.057c3.275-3.259,6.564-6.505,9.807-9.795.681-.691,1.38-1.078,2.351-.951.274.036.557.005.836.005,198.619,0,314.548.007,513.167-.025,7.811-.001,14.547,2.569,20.041,7.952,4.742,4.646,7.36,10.407,7.807,17.148.443,6.699-1.233,12.724-5.288,18.032-4.611,6.037-10.642,9.706-18.318,10.632-2.342.283-4.663.271-6.993.271-198.005.012-313.32.013-511.325-.023-1.643,0-2.802.459-3.927,1.635-2.924,3.055-5.987,5.978-8.952,8.996-.698.71-1.148.784-1.885.032-3.078-3.14-6.209-6.229-9.335-9.322-.499-.494-.792-.999-.792-1.742.019-17.116.016-34.232.024-51.348,0-.091.083-.182.257-.539Z"/>
    <path class="cls-4" d="m24.184,69.65c3.334,3.33,6.445,6.355,9.45,9.482,1.138,1.184,1.908,1.099,3.01-.037,3.296-3.394,6.699-6.684,10.023-10.052.678-.687,1.372-1.096,2.347-.96.219.03.445.004.669.004,205.101,0,410.202,0,615.304-.002,11.036,0,19.461,4.754,24.805,14.28,3.995,7.121,4.406,14.842,1.372,22.471-3.394,8.533-9.689,14.037-18.622,16.409-2.467.655-5.01.877-7.583.877-205.324-.015-410.647-.012-615.971-.043-1.62,0-2.807.394-3.943,1.593-2.833,2.988-5.837,5.814-8.708,8.768-.861.886-1.393,1.094-2.367.077-2.925-3.055-5.96-6.006-8.972-8.977-.58-.573-.937-1.14-.936-2.017.025-16.95.018-33.901.021-50.851,0-.207.039-.413.1-1.019Z"/>
    <path class="cls-12" d="m22.741,66.063c-2.483-1.563-5.208-2.698-7.546-4.536-7.318-5.753-11.687-13.119-12.892-22.378-1.096-8.422.862-16.116,5.714-22.957C13.608,8.312,21.293,3.6,31.009,2.384c9.443-1.182,17.931,1.286,25.115,7.338,2.315,1.95,4.448,2.374,7.175,2.373,81.914-.036,163.829-.03,245.743-.029,13.08,0,24.475,9.257,26.807,22.016,2.817,15.412-7.77,29.759-23.078,31.691-.205.026-.396.169-.593.258-.891.019-1.782.053-2.673.053-86.87.003-173.74.006-260.61-.029-1.52,0-2.594.413-3.644,1.506-2.967,3.091-6.074,6.049-9.064,9.118-.789.81-1.251.905-2.093.038-3.14-3.234-6.365-6.387-9.561-9.567-.507-.504-.955-1.115-1.79-1.087Z"/>
    <path class="cls-6" d="m299.487,131.112c28.325,0,56.65,0,84.976,0,4.461,0,6.868,2.421,6.87,6.92.004,8.724.004,17.449,0,26.173-.002,4.5-2.41,6.921-6.87,6.921-56.65,0-113.301-.025-169.951.059-3.657.005-6.893-2.759-6.869-6.896.052-8.78.052-17.56,0-26.34-.025-4.137,3.211-6.913,6.868-6.899,28.325.11,56.65.061,84.975.061Z"/>
    <path class="cls-6" d="m539.97,151.064c-.383-11.512,9.577-22.17,22.328-21.959,11.668.193,21.706,9.478,21.752,21.986.045,12.311-10.056,22.326-22.699,22.038-11.932-.271-21.764-10.36-21.381-22.066Z"/>
    <path class="cls-6" d="m685.919,95.24c.233,11.576-9.583,22.166-22.589,21.86-11.361-.267-21.521-9.431-21.507-22.06.014-12.556,10.426-22.234,22.628-21.95,11.969.278,21.785,10.189,21.469,22.151Z"/>
    <path class="cls-11" d="m199.388,116.106c-42.601,0-85.202.005-127.802-.004-10.171-.002-18.674-6.658-20.918-16.322-3.011-12.959,6.933-25.577,20.297-25.677,8.475-.064,16.951-.013,25.427-.013,76.838,0,153.675.002,230.513-.003,9.106,0,15.713,4.167,19.691,12.18,6.04,12.165-1.973,27.305-15.416,29.515-1.55.255-3.096.327-4.657.327-42.378-.004-84.755-.003-127.133-.003Z"/>
    <path class="cls-1" d="m35.108,63.075c-15.479-.004-28.073-12.551-28.08-27.974-.007-15.508,12.609-28.049,28.194-28.027,15.45.022,28.01,12.61,27.997,28.057-.014,15.413-12.623,27.947-28.111,27.944Z"/>
    <path class="cls-5" d="m374.321,145.874c1.503,0,3.006-.003,4.509.001.951.003,1.744.288,2.196,1.208.47.956.064,1.698-.534,2.42-1.451,1.75-2.859,3.536-4.343,5.258-1.318,1.53-2.389,1.52-3.72-.029-1.519-1.767-2.972-3.591-4.452-5.391-.521-.634-.812-1.31-.452-2.141.374-.864,1.045-1.291,1.954-1.306,1.614-.027,3.228-.008,4.842-.008v-.013Z"/>
    <path class="cls-10" d="m561.705,141.12c3.973.048,6.605,2.128,7.169,5.525.236,1.418-.185,2.638-1.127,3.664-.864.942-1.773,1.85-2.731,2.697-1.025.907-1.868,1.888-2.145,3.274-.232,1.164-.936,1.729-2.155,1.537-1.232-.194-1.334-1.072-1.385-2.1-.103-2.065,1.042-3.434,2.431-4.699.657-.598,1.395-1.12,1.982-1.779,1.412-1.585,1.314-3.278-.17-4.335-1.397-.995-3.888-.623-4.787.785-.444.694-.76,1.48-1.061,2.253-.461,1.184-1.382,1.375-2.45,1.153-1.088-.226-1.328-1.052-1.254-2.039.193-2.566,1.812-4.107,3.935-5.153,1.186-.584,2.528-.864,3.748-.782Z"/>
    <path class="cls-8" d="m561.222,163.788c-1.32,0-2.19-.876-2.179-2.192.011-1.351.827-2.152,2.191-2.152,1.361,0,2.177.809,2.183,2.163.006,1.297-.885,2.183-2.195,2.182Z"/>
    <path class="cls-10" d="m664.188,85.097c1.421.065,3.283.497,4.796,1.901,2.464,2.285,2.614,5.306.341,7.797-.823.902-1.728,1.732-2.634,2.553-.847.768-1.497,1.637-1.723,2.774-.285,1.435-1.202,2.013-2.551,1.621-1.294-.376-1.297-1.569-1.154-2.616.299-2.198,1.86-3.586,3.427-4.942.334-.289.717-.536.999-.868,1.487-1.755,1.36-3.393-.321-4.528-1.47-.993-3.897-.402-4.808,1.206-.326.576-.531,1.219-.815,1.82-.523,1.108-1.42,1.647-2.58,1.201-1.144-.439-1.405-1.348-1.1-2.587.769-3.125,3.806-5.329,8.123-5.332Z"/>
    <path class="cls-8" d="m663.162,107.766c-1.271-.012-2.113-.923-2.059-2.253.054-1.308.741-2.04,2.063-2.091,1.32-.051,2.369.998,2.32,2.263-.048,1.223-1.02,2.094-2.324,2.082Z"/>
    <path class="cls-9" d="m199.505,76.091c42.546,0,85.092-.003,127.638.003,9.345.001,16.7,5.762,18.917,14.779,2.597,10.561-4.706,21.328-15.533,22.97-1.222.185-2.431.262-3.655.262-85.037,0-170.073.002-255.11,0-11.651,0-20.056-8.78-19.552-20.396.36-8.304,7.473-16.126,15.668-17.329,1.445-.212,2.876-.287,4.322-.287,42.435-.001,84.869,0,127.304,0Z"/>
    <path class="cls-12" d="m23.859,33.65c.099-1.892-.183-4.228.152-6.549.711-4.927,4.657-8.55,9.628-8.782,1.609-.075,3.236-.154,4.823.233,4.693,1.144,7.83,5.099,7.913,10.073.06,3.607.045,7.216.006,10.823-.07,6.409-4.581,10.595-11.358,10.59-6.621-.005-11.083-4.247-11.159-10.626-.021-1.776-.003-3.552-.003-5.763Z"/>
    <path class="cls-7" d="m33.189,27.514c.035-.715.008-1.439.123-2.14.154-.935.826-1.462,1.736-1.49.989-.03,1.793.496,1.874,1.506.118,1.475.107,2.972-.004,4.448-.07.927-.81,1.466-1.722,1.496-.995.033-1.71-.517-1.884-1.514-.131-.753-.088-1.535-.124-2.306Z"/>
    <text class="cls-2" transform="translate(74.286 47.161)"><tspan x="0" y="0">오브젝트를 클릭했을 때</tspan></text>
    <text class="cls-15" transform="translate(64.997 102.277)"><tspan x="0" y="0">삭제할 항목 번호를 입력하세요</tspan><tspan class="cls-14" x="262.322" y="0">.</tspan></text>
    <text class="cls-2" transform="translate(362.531 103.823)"><tspan x="0" y="0">을(를) 묻고 대답 기다리기</tspan></text>
    <text class="cls-3" transform="translate(218.022 158.94)"><tspan x="0" y="0">나의 버킷 리스트</tspan></text>
    <text class="cls-2" transform="translate(130.283 159.713)"><tspan x="0" y="0">항목을</tspan></text>
    <text class="cls-2" transform="translate(403.303 159.688)"><tspan x="0" y="0">에 추가하기</tspan></text>
    <rect class="cls-1" x="431.303" y="129.579" width="98.705" height="42.754" rx="10" ry="10"/>
  </g>
  <rect class="cls-1" x="48.984" y="129.645" width="74.065" height="42.839" rx="10" ry="10"/>
</svg>