<?xml version="1.0" encoding="UTF-8"?>
<svg id="_레이어_1" data-name="레이어 1" xmlns="http://www.w3.org/2000/svg" viewBox="0 0 689.523 67.334">
  <defs>
    <style>
      .cls-1 {
        fill: #dc47d7;
        stroke: #b719b2;
        stroke-miterlimit: 10;
        stroke-width: 2px;
      }

      .cls-2 {
        fill: #b719b2;
      }

      .cls-2, .cls-3, .cls-4, .cls-5, .cls-6 {
        stroke-width: 0px;
      }

      .cls-7 {
        font-size: 22px;
        letter-spacing: -.01em;
      }

      .cls-7, .cls-8 {
        font-family: Pretendard-Bold-KSCpc-EUC-H, Pretendard;
        font-weight: 700;
      }

      .cls-3 {
        fill: #f577f1;
      }

      .cls-4 {
        fill: #fedd81;
      }

      .cls-5 {
        fill: #f677f2;
      }

      .cls-8 {
        fill: #fefefe;
        font-size: 26px;
        letter-spacing: -.025em;
      }

      .cls-6 {
        fill: #fe9b00;
      }
    </style>
  </defs>
  <g>
    <path class="cls-1" d="m660.652,1H26.189l-12.543,11.141L1.622,1.548c-.238-.21-.622-.047-.622.265v52.811c0,.098.042.191.115.259l12.53,11.113,12.543-11.219h634.464c15.329,0,27.871-12.1,27.871-26.888h0c0-14.789-12.542-26.888-27.871-26.888Z"/>
    <path class="cls-2" d="m636.367,28.394c.085-12.114,9.79-22.01,22.342-21.937,12.159.071,22.178,9.883,21.961,22.471-.203,11.764-9.754,21.773-22.498,21.598-12.042-.166-21.794-9.762-21.805-22.132Z"/>
    <text class="cls-8" transform="translate(363.339 36.682)"><tspan x="0" y="0">을(를) 묻고 대답 기다리기</tspan></text>
    <path class="cls-5" d="m658.327,18.449c3.973.048,6.605,2.132,7.169,5.536.236,1.421-.185,2.643-1.127,3.671-.864.943-1.773,1.854-2.731,2.702-1.025.909-1.869,1.892-2.145,3.28-.232,1.167-.936,1.732-2.155,1.54-1.232-.194-1.334-1.074-1.385-2.104-.103-2.069,1.042-3.441,2.431-4.709.657-.599,1.396-1.122,1.982-1.782,1.412-1.588,1.315-3.285-.17-4.344-1.397-.997-3.888-.624-4.788.786-.444.696-.76,1.483-1.061,2.257-.461,1.186-1.382,1.378-2.45,1.155-1.088-.227-1.328-1.054-1.254-2.043.193-2.571,1.812-4.116,3.935-5.163,1.186-.585,2.528-.865,3.748-.783Z"/>
    <path class="cls-3" d="m657.844,41.161c-1.32,0-2.19-.878-2.179-2.197.011-1.354.827-2.157,2.191-2.156,1.361,0,2.177.81,2.183,2.167.006,1.3-.885,2.187-2.195,2.186Z"/>
  </g>
  <g>
    <g>
      <path class="cls-4" d="m48.99,47.76c-10.975,0-19.903-8.929-19.903-19.903S38.015,7.953,48.99,7.953h275.613c10.975,0,19.903,8.929,19.903,19.903s-8.928,19.903-19.903,19.903H48.99Z"/>
      <path class="cls-6" d="m324.603,8.954c10.423,0,18.903,8.48,18.903,18.903s-8.48,18.903-18.903,18.903H48.99c-10.423,0-18.903-8.48-18.903-18.903s8.48-18.903,18.903-18.903h275.613m0-2H48.99c-11.497,0-20.903,9.406-20.903,20.903s9.406,20.903,20.903,20.903h275.613c11.497,0,20.903-9.406,20.903-20.903s-9.406-20.903-20.903-20.903h0Z"/>
    </g>
    <text class="cls-7" transform="translate(43.526 34.92)"><tspan x="0" y="0">우리 반 학생은 모두 몇 명 인가요?</tspan></text>
  </g>
</svg>