<?xml version="1.0" encoding="UTF-8"?>
<svg id="_레이어_2" data-name="레이어 2" xmlns="http://www.w3.org/2000/svg" viewBox="0 0 536.39 333.245">
  <defs>
    <style>
      .cls-1, .cls-2, .cls-3, .cls-4, .cls-5, .cls-6, .cls-7, .cls-8, .cls-9, .cls-10, .cls-11 {
        stroke-width: 0px;
      }

      .cls-1, .cls-12, .cls-13 {
        fill: #fefefe;
      }

      .cls-14 {
        stroke: #6308d8;
      }

      .cls-14, .cls-2 {
        fill: #8222ff;
      }

      .cls-14, .cls-15, .cls-16, .cls-17 {
        stroke-width: 2px;
      }

      .cls-14, .cls-15, .cls-17 {
        stroke-linecap: round;
        stroke-linejoin: round;
      }

      .cls-3 {
        fill: #c72042;
      }

      .cls-18 {
        letter-spacing: -.025em;
      }

      .cls-18, .cls-12, .cls-13, .cls-19 {
        font-family: Pretendard-Bold-KSCpc-EUC-H, Pretendard;
        font-weight: 700;
      }

      .cls-18, .cls-19 {
        fill: #fff;
        font-size: 22px;
      }

      .cls-4 {
        fill: #fefdfe;
      }

      .cls-5 {
        fill: #c62042;
      }

      .cls-15 {
        fill: #fe3a61;
        stroke: #c62142;
      }

      .cls-16 {
        stroke: #009400;
        stroke-miterlimit: 10;
      }

      .cls-16, .cls-11 {
        fill: #00b300;
      }

      .cls-12, .cls-13 {
        font-size: 26px;
      }

      .cls-17 {
        fill: #19baea;
        stroke: #1498c0;
      }

      .cls-6 {
        fill: #af71ff;
      }

      .cls-7 {
        fill: #6dddfe;
      }

      .cls-8 {
        fill: #1498c0;
      }

      .cls-9 {
        fill: #6308d8;
      }

      .cls-13 {
        letter-spacing: -.025em;
      }

      .cls-10 {
        fill: #fe5576;
      }
    </style>
  </defs>
  <g>
    <g>
      <path class="cls-16" d="m378.366,33.954c-2.293-12.79-13.661-22.1-26.741-22.14-81.917-.248-207.345-.502-289.263-.713-2.727-.007-4.859-.438-7.168-2.399C48.028,2.617,39.547.119,30.1,1.274,20.381,2.464,12.681,7.161,7.067,15.04,2.193,21.879.212,29.582,1.283,38.024c1.177,9.281,5.523,16.675,12.825,22.461,2.165,1.716,6.8,4.434,7.455,4.816.055.032.101.067.148.11l11.686,10.762c.84.872,2.14.793,2.931-.015l10.743-9.885c.26-.239.6-.372.952-.372l301.593.032c1.539.004,3.069-.064,4.601-.205l.974-.089c15.315-1.89,25.945-16.233,23.175-31.685Z"/>
      <path class="cls-1" d="m34.016,62.097c-15.48-.051-28.037-12.66-27.997-28.114.04-15.539,12.694-28.067,28.28-27.997,15.45.069,27.973,12.72,27.913,28.197-.06,15.443-12.708,27.965-28.196,27.914Z"/>
      <text class="cls-12" transform="translate(73.186 46.248) rotate(.173)"><tspan x="0" y="0">시작하기 버튼을 클릭했을 때</tspan></text>
    </g>
    <path class="cls-11" d="m27.49,33.709c0-2.979-.003-5.959.002-8.938.001-.871-.04-1.782.9-2.272.89-.464,1.669-.113,2.434.376,4.656,2.978,9.324,5.939,13.977,8.921,2.063,1.322,2.073,2.615.042,3.913-4.656,2.976-9.325,5.932-13.976,8.916-.771.495-1.55.863-2.428.428-.92-.456-.963-1.342-.958-2.244.016-3.033.006-6.067.006-9.101Z"/>
  </g>
  <g>
    <g>
      <g>
        <path class="cls-14" d="m315.043,66.041H47.178l-12.543,11.548-12.024-10.981c-.238-.218-.622-.049-.622.274v54.741c0,.102.042.198.115.269l12.53,11.519,12.543-11.629h267.866c15.329,0,27.871-12.542,27.871-27.871h0c0-15.329-12.542-27.871-27.871-27.871Z"/>
        <path class="cls-9" d="m290.758,93.435c.085-12.114,9.79-22.01,22.342-21.937,12.159.071,22.178,9.883,21.961,22.471-.203,11.764-9.754,21.773-22.498,21.598-12.042-.166-21.794-9.762-21.805-22.132Z"/>
        <text class="cls-13" transform="translate(50.994 102.661)"><tspan x="0" y="0">비디오 화면</tspan></text>
        <g>
          <rect class="cls-9" x="179.492" y="74.823" width="97.266" height="38.968" rx="3.871" ry="3.871"/>
          <text class="cls-18" transform="translate(190.017 102.66)"><tspan x="0" y="0">보이기</tspan></text>
          <path class="cls-4" d="m260.259,89.63c1.503,0,3.006-.003,4.509.001.951.003,1.744.288,2.197,1.211.47.958.064,1.702-.534,2.425-1.451,1.754-2.859,3.543-4.343,5.268-1.318,1.533-2.389,1.523-3.72-.029-1.519-1.771-2.972-3.598-4.452-5.402-.521-.635-.812-1.313-.452-2.145.374-.865,1.045-1.293,1.954-1.309,1.614-.027,3.228-.008,4.842-.008v-.013Z"/>
        </g>
      </g>
      <path class="cls-6" d="m320.87,90.582v-4.152c0-.763-.625-1.388-1.388-1.388h-18.043c-.763,0-1.388.625-1.388,1.388v14.206c0,.763.625,1.388,1.388,1.388h18.043c.763,0,1.388-.625,1.388-1.388v-4.152l6.45,4.193v-14.287l-6.45,4.192Zm-6.327,3.222l-6.801,4.671c-.218.15-.515-.006-.515-.271v-9.342c0-.265.297-.421.515-.271l6.801,4.671c.19.131.19.411,0,.542Z"/>
    </g>
    <g>
      <g>
        <path class="cls-14" d="m287.788,121.716H47.178l-12.543,11.548-12.024-10.981c-.238-.218-.622-.049-.622.274v54.741c0,.102.042.198.115.269l12.53,11.519,12.543-11.629h240.611c15.329,0,27.871-12.542,27.871-27.871h0c0-15.329-12.542-27.871-27.871-27.871Z"/>
        <path class="cls-9" d="m263.503,149.11c.085-12.114,9.79-22.01,22.342-21.937,12.159.071,22.178,9.883,21.961,22.471-.203,11.764-9.754,21.773-22.498,21.598-12.042-.166-21.794-9.762-21.805-22.132Z"/>
        <text class="cls-13" transform="translate(50.994 158.336)"><tspan x="0" y="0">손 인식</tspan></text>
        <g>
          <rect class="cls-9" x="135.319" y="130.498" width="113.508" height="38.968" rx="3.871" ry="3.871"/>
          <text class="cls-18" transform="translate(145.844 158.334)"><tspan x="0" y="0">시작하기</tspan></text>
          <path class="cls-4" d="m232.327,145.305c1.503,0,3.006-.003,4.509.001.951.003,1.744.288,2.197,1.211.47.958.064,1.702-.534,2.425-1.451,1.754-2.859,3.543-4.343,5.268-1.318,1.533-2.389,1.523-3.72-.029-1.519-1.771-2.972-3.598-4.452-5.402-.521-.635-.812-1.313-.452-2.145.374-.865,1.045-1.293,1.954-1.309,1.614-.027,3.228-.008,4.842-.008v-.013Z"/>
        </g>
      </g>
      <path class="cls-6" d="m295.661,138.944c-1.098-.193-1.67.511-1.92,1.509-.07.279-.111.567-.146.853-.211,1.718-.385,3.441-.642,5.152-.078.522.03,1.445-.646,1.417-.775-.032-.453-.926-.435-1.426.098-2.644.262-5.285.405-7.926.069-1.27-.549-2.149-1.547-2.2-1.034-.053-1.716.702-1.774,1.985-.12,2.692-.224,5.385-.357,8.076-.022.442.147,1.154-.483,1.175-.671.022-.49-.698-.526-1.139-.26-3.212-.492-6.426-.757-9.637-.087-1.055-.543-1.975-1.722-1.928-1.227.049-1.689.95-1.622,2.124.028.48.079.959.109,1.439.156,2.496.319,4.992.449,7.489.02.384.261,1.002-.311,1.099-.609.104-.699-.48-.798-.976-.463-2.309-.975-4.609-1.415-6.922-.218-1.145-.691-1.952-1.987-1.732-1.375.234-1.366,1.298-1.204,2.354.204,1.329.482,2.647.685,3.977.34,2.233.676,4.467.945,6.709.075.622.373,1.503-.393,1.821-.685.284-1.036-.535-1.46-.954-.546-.541-1.029-1.144-1.561-1.7-.808-.846-1.736-1.326-2.776-.445-.954.808-.766,1.784-.141,2.72,1.362,2.039,2.704,4.093,4.112,6.1,1.93,2.749,4.248,4.243,7.982,4.136l3.017-.147c3.882-.002,5.105-.978,5.995-4.8.12-.514.215-1.036.289-1.559.367-2.57.732-5.141,1.082-7.714.312-2.287.623-4.575.897-6.866.123-1.028-.263-1.871-1.346-2.061Z"/>
    </g>
  </g>
  <g>
    <path class="cls-17" d="m248.026,289.067H73.351l-11.952,10.3-12.334-10.977v-54.03c0-.398.474-.606.766-.336l11.675,10.755,12.896-11.471,161.98-.091c16.083,0,29.097-13.805,27.779-30.15-1.175-14.565-13.733-25.592-28.345-25.592H47.178l-12.543,11.548-12.023-10.98c-.238-.218-.622-.049-.622.274v54.741c0,.047.011.092.028.135h-.004l.091.134.056,87.307,12.379,11.613,12.516-11.613h201.416c8.969,0,16.191-7.482,15.764-16.546-.4-8.489-7.712-15.02-16.21-15.02Z"/>
    <g>
      <path class="cls-8" d="m254.132,205.389c.233,11.599-9.583,22.21-22.59,21.903-11.361-.268-21.522-9.449-21.508-22.104.014-12.581,10.427-22.278,22.629-21.994,11.969.279,21.786,10.209,21.47,22.194Z"/>
      <path class="cls-7" d="m240.215,206.921c-.095,0-.185.021-.279.028l-4.684-7.075c.647-.892.943-2.055.623-3.301-.355-1.388-1.5-2.504-2.899-2.812-2.553-.562-4.81,1.366-4.81,3.821,0,.859.284,1.646.753,2.292l-4.684,7.075c-.094-.007-.183-.028-.279-.028-2.466,0-4.4,2.277-3.814,4.843.323,1.416,1.474,2.567,2.89,2.89,2.566.586,4.843-1.348,4.843-3.814,0-1.154-.507-2.18-1.3-2.897l4.386-6.625c.358.108.731.183,1.124.183s.766-.075,1.124-.183l4.386,6.625c-1.013.917-1.56,2.338-1.178,3.884.343,1.389,1.482,2.51,2.877,2.828,2.564.583,4.839-1.35,4.839-3.815,0-2.165-1.755-3.919-3.919-3.919Z"/>
    </g>
    <text class="cls-12" transform="translate(56 213.146)"><tspan x="0" y="0">계속 반복하기</tspan></text>
  </g>
  <g>
    <g>
      <path class="cls-15" d="m507.52,233.35H74.415l-12.543,11.548-12.024-10.981c-.238-.218-.622-.049-.622.274v54.741c0,.102.042.198.115.269l12.53,11.519,12.543-11.629h433.105c15.329,0,27.871-12.542,27.871-27.871h0c0-15.329-12.542-27.871-27.871-27.871Z"/>
      <path class="cls-5" d="m483.234,260.744c.085-12.114,9.79-22.01,22.342-21.937,12.159.071,22.178,9.883,21.961,22.471-.203,11.764-9.754,21.773-22.498,21.598-12.042-.166-21.794-9.762-21.805-22.132Z"/>
      <path class="cls-10" d="m506.134,262.182c2.854.024,5.612,2.731,5.624,5.52.014,3.13-2.722,5.849-5.866,5.829-3.016-.018-5.566-2.746-5.533-5.919.031-3.007,2.636-5.457,5.775-5.43Z"/>
      <rect class="cls-10" x="508.522" y="252.566" width="9.448" height="9.448" transform="translate(332.258 -287.561) rotate(45)"/>
      <polygon class="cls-10" points="504.365 260.245 504.365 253.812 498.794 250.596 493.223 253.812 493.223 260.245 498.794 263.461 504.365 260.245"/>
      <text class="cls-13" transform="translate(303.97 271.324)"><tspan x="0" y="0">을(를)</tspan></text>
      <g>
        <rect class="cls-3" x="377.722" y="242.133" width="95.637" height="38.968" rx="3.871" ry="3.871"/>
        <text class="cls-18" transform="translate(388.247 269.969)"><tspan x="0" y="0">말하기</tspan></text>
        <path class="cls-4" d="m456.859,256.939c1.503,0,3.006-.003,4.509.001.951.003,1.744.288,2.197,1.211.47.958.064,1.702-.534,2.425-1.451,1.754-2.859,3.543-4.343,5.268-1.318,1.533-2.389,1.523-3.72-.029-1.519-1.771-2.972-3.598-4.452-5.402-.521-.635-.812-1.313-.452-2.145.374-.865,1.045-1.293,1.954-1.309,1.614-.027,3.228-.008,4.842-.008v-.013Z"/>
      </g>
    </g>
    <g>
      <g>
        <path class="cls-2" d="m93.697,281.52c-10.975,0-19.903-8.929-19.903-19.903s8.929-19.903,19.903-19.903h180.172c10.975,0,19.903,8.929,19.903,19.903s-8.929,19.903-19.903,19.903H93.697Z"/>
        <path class="cls-9" d="m273.869,242.713c10.423,0,18.903,8.48,18.903,18.903s-8.48,18.903-18.903,18.903H93.697c-10.423,0-18.903-8.48-18.903-18.903s8.48-18.903,18.903-18.903h180.172m0-2H93.697c-11.497,0-20.903,9.406-20.903,20.903h0c0,11.497,9.406,20.903,20.903,20.903h180.172c11.497,0,20.903-9.406,20.903-20.903h0c0-11.497-9.406-20.903-20.903-20.903h0Z"/>
      </g>
      <rect class="cls-9" x="88.278" y="242.133" width="51.543" height="38.968" rx="3.871" ry="3.871"/>
      <text class="cls-19" transform="translate(153.184 269.969)"><tspan x="0" y="0">번째 손의 모양</tspan></text>
      <text class="cls-19" transform="translate(98.802 269.969)"><tspan x="0" y="0">1</tspan></text>
      <path class="cls-4" d="m123.095,256.939c1.503,0,3.006-.003,4.509.001.951.003,1.744.288,2.197,1.211.47.958.064,1.702-.534,2.425-1.451,1.754-2.859,3.543-4.343,5.268-1.318,1.533-2.389,1.523-3.72-.029-1.519-1.771-2.972-3.598-4.452-5.402-.521-.635-.812-1.313-.452-2.145.374-.865,1.045-1.293,1.954-1.309,1.614-.027,3.228-.008,4.842-.008v-.013Z"/>
    </g>
  </g>
</svg>