<?xml version="1.0" encoding="UTF-8"?>
<svg id="_레이어_1" data-name="레이어 1" xmlns="http://www.w3.org/2000/svg" viewBox="0 0 197.87 41.806">
  <defs>
    <style>
      .cls-1 {
        fill: #1b3ad8;
      }

      .cls-1, .cls-2, .cls-3, .cls-4, .cls-5 {
        stroke-width: 0px;
      }

      .cls-2 {
        fill: #fff;
      }

      .cls-3 {
        fill: #4562f5;
      }

      .cls-6 {
        font-family: Pretendard-Bold-KSCpc-EUC-H, Pretendard;
        font-size: 22px;
        font-weight: 700;
        letter-spacing: -.025em;
      }

      .cls-4 {
        fill: #fedd81;
      }

      .cls-5 {
        fill: #fe9b00;
      }
    </style>
  </defs>
  <g>
    <polygon class="cls-3" points="16.795 40.806 1.268 20.903 16.795 1 181.075 1 196.602 20.903 181.075 40.806 16.795 40.806"/>
    <path class="cls-1" d="m180.588,2l14.746,18.903-14.746,18.903H17.283L2.537,20.903,17.283,2h163.305m.976-2H16.306L0,20.903l16.306,20.903h165.258l16.306-20.903L181.564,0h0Z"/>
  </g>
  <g>
    <g>
      <path class="cls-4" d="m39.064,40.806c-10.975,0-19.903-8.928-19.903-19.903S28.09,1,39.064,1h10.968c10.975,0,19.903,8.928,19.903,19.903s-8.929,19.903-19.903,19.903h-10.968Z"/>
      <path class="cls-5" d="m50.032,2c10.423,0,18.903,8.48,18.903,18.903s-8.48,18.903-18.903,18.903h-10.968c-10.423,0-18.903-8.48-18.903-18.903S28.641,2,39.064,2h10.968m0-2h-10.968c-11.497,0-20.903,9.406-20.903,20.903s9.406,20.903,20.903,20.903h10.968c11.497,0,20.903-9.406,20.903-20.903S61.529,0,50.032,0h0Z"/>
    </g>
    <text class="cls-6" transform="translate(32.811 27.965)"><tspan x="0" y="0">10</tspan></text>
  </g>
  <g>
    <g>
      <path class="cls-4" d="m147.838,40.806c-10.975,0-19.903-8.928-19.903-19.903S136.864,1,147.838,1h10.968c10.975,0,19.903,8.928,19.903,19.903s-8.929,19.903-19.903,19.903h-10.968Z"/>
      <path class="cls-5" d="m158.806,2c10.423,0,18.903,8.48,18.903,18.903s-8.48,18.903-18.903,18.903h-10.968c-10.423,0-18.903-8.48-18.903-18.903s8.48-18.903,18.903-18.903h10.968m0-2h-10.968c-11.497,0-20.903,9.406-20.903,20.903s9.406,20.903,20.903,20.903h10.968c11.497,0,20.903-9.406,20.903-20.903S170.303,0,158.806,0h0Z"/>
    </g>
    <text class="cls-6" transform="translate(141.586 27.965)"><tspan x="0" y="0">10</tspan></text>
  </g>
  <rect class="cls-1" x="84.249" y="1.097" width="29.373" height="39.613" rx="3.355" ry="3.355"/>
  <path class="cls-2" d="m95.233,21.218l7.654,8.706v-3.029l-5.546-6.309,5.546-5.808v-2.896l-7.626,7.985c-.357.375-.37.961-.027,1.351Z"/>
</svg>