<?xml version="1.0" encoding="utf-8"?>
<!-- Generator: Adobe Illustrator 28.0.0, SVG Export Plug-In . SVG Version: 6.00 Build 0)  -->
<svg version="1.1" id="레이어_1" width="140" height="185" xmlns="http://www.w3.org/2000/svg" xmlns:xlink="http://www.w3.org/1999/xlink" x="0px"
	 y="0px" viewBox="0 0 140 85" style="enable-background:new 0 0 140 85;" xml:space="preserve">
<style type="text/css">
	.st0{fill:#69A3D8;}
	.st1{fill:#FDEFEA;}
	.st2{fill:#231815;}
</style>
<g id="레이어_2_00000116235685921479791600000007064561295754263708_">
</g>
<g id="레이어_1_00000138552043870647608720000003949396230724489892_">
	<g>
		<g>
			<path class="st0" d="M119.034,45.834H23.956c-0.207,0-0.375-0.168-0.375-0.375s0.168-0.375,0.375-0.375h95.078
				c0.207,0,0.375,0.168,0.375,0.375S119.241,45.834,119.034,45.834z"/>
		</g>
		<g>
			<path class="st0" d="M69.082,71.985c-0.053,0-0.105-0.011-0.155-0.034L12.41,46.175c-0.188-0.086-0.271-0.308-0.186-0.496
				c0.086-0.189,0.312-0.271,0.496-0.186L69.237,71.27c0.188,0.086,0.271,0.308,0.186,0.496
				C69.36,71.904,69.224,71.985,69.082,71.985z"/>
		</g>
		<g>
			<path class="st0" d="M127.435,45.459c-0.06,0-0.12-0.015-0.177-0.044l-57.979-30.97c-0.183-0.098-0.252-0.325-0.154-0.508
				c0.097-0.183,0.323-0.25,0.508-0.154l57.979,30.97c0.183,0.098,0.252,0.325,0.154,0.508
				C127.699,45.387,127.569,45.459,127.435,45.459z"/>
		</g>
		<g>
			<path class="st0" d="M12.565,45.834c-0.131,0-0.258-0.069-0.327-0.191c-0.102-0.181-0.037-0.409,0.144-0.511l56.516-31.72
				c0.177-0.101,0.408-0.037,0.511,0.144c0.102,0.181,0.037,0.409-0.144,0.511l-56.516,31.72
				C12.691,45.818,12.627,45.834,12.565,45.834z"/>
		</g>
		<g>
			<g>
				<path class="st1" d="M68.939,26.002c6.904,0,12.501-5.598,12.501-12.502C81.44,6.598,75.843,1,68.939,1
					S56.438,6.598,56.438,13.5C56.438,20.404,62.035,26.002,68.939,26.002"/>
			</g>
			<g>
				<path class="st0" d="M68.939,27.002c-7.444,0-13.501-6.057-13.501-13.502c0-7.444,6.057-13.5,13.501-13.5
					S82.44,6.056,82.44,13.5C82.44,20.945,76.383,27.002,68.939,27.002z M68.939,2c-6.342,0-11.501,5.159-11.501,11.5
					c0,6.342,5.159,11.502,11.501,11.502S80.44,19.842,80.44,13.5C80.44,7.159,75.281,2,68.939,2z"/>
			</g>
		</g>
		<g>
			<path class="st2" d="M65.158,13.28c0-3.672,1.469-5.812,3.953-5.812s3.953,2.141,3.953,5.812c0,3.703-1.453,5.812-3.953,5.812
				C66.595,19.093,65.158,16.983,65.158,13.28z M71.689,13.28c0-2.922-0.953-4.594-2.578-4.594s-2.594,1.672-2.594,4.594
				s0.953,4.562,2.594,4.562C70.736,17.843,71.689,16.202,71.689,13.28z"/>
		</g>
		<g>
			<g>
				<g>
					<path class="st1" d="M126.499,57.959c6.904,0,12.501-5.598,12.501-12.502c0-6.902-5.597-12.5-12.501-12.5
						s-12.501,5.598-12.501,12.5C113.998,52.361,119.595,57.959,126.499,57.959"/>
				</g>
				<g>
					<path class="st0" d="M126.499,58.959c-7.444,0-13.501-6.057-13.501-13.502c0-7.444,6.057-13.5,13.501-13.5
						c7.444,0,13.501,6.056,13.501,13.5C140,52.902,133.943,58.959,126.499,58.959z M126.499,33.957
						c-6.342,0-11.501,5.159-11.501,11.5c0,6.342,5.159,11.502,11.501,11.502S138,51.799,138,45.457
						C138,39.116,132.841,33.957,126.499,33.957z"/>
				</g>
			</g>
			<g>
				<path class="st2" d="M122.561,48.051h1.422c0.078,1.078,1.156,1.75,2.5,1.75c1.484,0,2.578-0.812,2.578-1.984
					c0-1.234-0.984-2.109-2.75-2.109h-0.922v-1.234h0.922c1.375,0,2.328-0.766,2.328-1.938c0-1.125-0.828-1.891-2.109-1.891
					c-1.203,0-2.312,0.672-2.375,1.781h-1.359c0.078-1.797,1.734-3,3.75-3c2.156,0,3.469,1.406,3.453,3.031
					c0.016,1.281-0.734,2.234-1.922,2.562v0.078c1.469,0.234,2.375,1.281,2.359,2.719c0.016,1.859-1.688,3.234-3.937,3.234
					C124.249,51.051,122.64,49.848,122.561,48.051z"/>
			</g>
		</g>
	</g>
	<g>
		<g>
			<g>
				<path class="st1" d="M69.081,84c6.904,0,12.501-5.598,12.501-12.502c0-6.902-5.597-12.5-12.501-12.5s-12.501,5.598-12.501,12.5
					C56.58,78.402,62.177,84,69.081,84"/>
			</g>
			<g>
				<path class="st0" d="M69.082,85c-7.445,0-13.502-6.057-13.502-13.502c0-7.444,6.057-13.5,13.502-13.5
					c7.444,0,13.501,6.056,13.501,13.5C82.583,78.943,76.526,85,69.082,85z M69.082,59.998c-6.342,0-11.502,5.159-11.502,11.5
					C57.58,77.84,62.74,83,69.082,83s11.501-5.16,11.501-11.502C80.583,65.157,75.423,59.998,69.082,59.998z"/>
			</g>
		</g>
		<g>
			<path class="st2" d="M65.534,75.903l3.859-4.062c1.344-1.422,1.984-2.188,1.984-3.234c0-1.156-0.984-1.922-2.25-1.922
				c-1.344,0-2.203,0.859-2.203,2.125h-1.328c-0.016-2,1.531-3.344,3.578-3.344s3.516,1.375,3.516,3.141
				c0,1.266-0.594,2.25-2.594,4.312l-2.594,2.672v0.094h5.391v1.25h-7.344L65.534,75.903z"/>
		</g>
	</g>
	<g>
		<g>
			<g>
				<path class="st1" d="M13.501,57.959c6.904,0,12.501-5.598,12.501-12.502c0-6.902-5.597-12.5-12.501-12.5S1,38.555,1,45.457
					C1,52.361,6.597,57.959,13.501,57.959"/>
			</g>
			<g>
				<path class="st0" d="M13.501,58.959C6.057,58.959,0,52.902,0,45.457c0-7.444,6.057-13.5,13.501-13.5s13.501,6.056,13.501,13.5
					C27.002,52.902,20.945,58.959,13.501,58.959z M13.501,33.957C7.159,33.957,2,39.116,2,45.457
					c0,6.342,5.159,11.502,11.501,11.502s11.501-5.16,11.501-11.502C25.002,39.116,19.843,33.957,13.501,33.957z"/>
			</g>
		</g>
		<g>
			<path class="st2" d="M14.615,50.895h-1.422v-9.844h-0.062l-2.75,1.828v-1.422l2.812-1.875h1.422V50.895z"/>
		</g>
	</g>
</g>
</svg>
