<?xml version="1.0" encoding="UTF-8"?>
<svg id="_레이어_2" data-name="레이어 2" xmlns="http://www.w3.org/2000/svg" viewBox="0 0 386.43 204.526">
  <defs>
    <style>
      .cls-1 {
        fill: #575e75;
      }

      .cls-1, .cls-2, .cls-3 {
        font-family: D2Coding, D2Coding;
      }

      .cls-1, .cls-3 {
        font-size: 25px;
      }

      .cls-4 {
        fill: #e63022;
        stroke: #ad241a;
      }

      .cls-4, .cls-5 {
        stroke-miterlimit: 10;
        stroke-width: 1.5px;
      }

      .cls-2 {
        font-size: 26.581px;
      }

      .cls-2, .cls-3 {
        fill: #fff;
      }

      .cls-5 {
        fill: #1e90ff;
        stroke: #176cbf;
      }

      .cls-6 {
        fill: #52447c;
      }

      .cls-6, .cls-7 {
        stroke-width: 0px;
      }

      .cls-7 {
        fill: #4ddc64;
      }
    </style>
  </defs>
  <g>
    <path class="cls-5" d="m84.158,165.952h-21.05c-1.723,0-3.364-.74-4.505-2.031l-8.586-9.72c-1.141-1.292-2.781-2.031-4.505-2.031h-13.331c-3.32,0-6.011-2.691-6.011-6.011v-62.983c0-3.32,2.691-6.011,6.011-6.011h13.331c1.723,0,3.364.74,4.505,2.031l8.586,9.72c1.141,1.292,2.781,2.031,4.505,2.031h21.05c1.691,0,3.304-.712,4.443-1.963l8.981-9.857c1.139-1.25,2.752-1.963,4.443-1.963h136.629c3.32,0,6.011-2.691,6.011-6.011V6.761c0-3.32-2.691-6.011-6.011-6.011H6.761C3.441.75.75,3.441.75,6.761v191.005c0,3.32,2.691,6.011,6.011,6.011h231.893c3.32,0,6.011-2.691,6.011-6.011v-39.586c0-3.32-2.691-6.011-6.011-6.011H102.025c-1.691,0-3.304.712-4.443,1.963l-8.981,9.857c-1.139,1.25-2.752,1.963-4.443,1.963Z"/>
    <text class="cls-3" transform="translate(15.706 44.442)"><tspan x="0" y="0">시작하면</tspan></text>
  </g>
  <g>
    <path class="cls-4" d="m102.05,77.157c-1.691,0-3.304.712-4.443,1.962l-8.981,9.857c-1.139,1.25-2.752,1.963-4.443,1.963h-21.051c-1.723,0-3.364-.74-4.505-2.031l-8.586-9.72c-1.141-1.292-2.781-2.031-4.505-2.031h-13.331c-3.32,0-6.011,2.691-6.011,6.011v63.097c0,3.32,2.691,6.011,6.011,6.011h13.331c1.723,0,3.364.74,4.505,2.031l8.586,9.72c1.141,1.292,2.781,2.031,4.505,2.031h21.051c1.691,0,3.304-.712,4.443-1.963l8.981-9.857c1.139-1.25,2.752-1.962,4.443-1.962h277.92c3.154,0,5.711-2.557,5.711-5.711v-63.697c0-3.154-2.557-5.711-5.711-5.711H102.05Z"/>
    <text class="cls-2" transform="translate(38.735 123.327)"><tspan x="0" y="0">내장 스피커</tspan></text>
    <text class="cls-2" transform="translate(320.156 123.327)"><tspan x="0" y="0">설정</tspan></text>
  </g>
  <g>
    <polygon class="cls-6" points="284.663 87.551 220.257 87.551 195.389 114.584 220.257 141.616 284.663 141.616 309.532 114.584 284.663 87.551"/>
    <polygon class="cls-7" points="278.492 92.983 250.363 92.983 230.491 114.584 250.363 136.184 278.492 136.184 298.364 114.584 278.492 92.983"/>
    <text class="cls-1" transform="translate(245.563 121.225)"><tspan x="0" y="0">켜기</tspan></text>
  </g>
</svg>