<?xml version="1.0" encoding="UTF-8"?>
<svg id="_레이어_1" data-name="레이어 1" xmlns="http://www.w3.org/2000/svg" viewBox="0 0 977.577 707.209">
  <defs>
    <style>
      .cls-1 {
        fill: #fe7a22;
      }

      .cls-1, .cls-2, .cls-3, .cls-4, .cls-5, .cls-6, .cls-7, .cls-8, .cls-9, .cls-10, .cls-11, .cls-12, .cls-13, .cls-14, .cls-15, .cls-16, .cls-17, .cls-18 {
        stroke-width: 0px;
      }

      .cls-2 {
        fill: #b819b3;
      }

      .cls-19, .cls-20, .cls-21, .cls-22, .cls-23 {
        font-family: Pretendard-Bold-KSCpc-EUC-H, Pretendard;
        font-weight: 700;
      }

      .cls-19, .cls-8 {
        fill: #fff;
      }

      .cls-19, .cls-21, .cls-22 {
        font-size: 22px;
      }

      .cls-19, .cls-22 {
        letter-spacing: -.025em;
      }

      .cls-3 {
        fill: #f8c435;
      }

      .cls-4 {
        fill: #fefdfe;
      }

      .cls-24 {
        stroke-dasharray: 0 0 7.053 3.023;
      }

      .cls-24, .cls-25, .cls-26 {
        fill: none;
        stroke: #638faa;
        stroke-miterlimit: 10;
        stroke-width: 3px;
      }

      .cls-5 {
        fill: #ffde82;
      }

      .cls-6 {
        fill: #1b3ad8;
      }

      .cls-20, .cls-21, .cls-23 {
        fill: #fefefe;
      }

      .cls-20, .cls-23 {
        font-size: 26px;
      }

      .cls-7 {
        fill: #b719b2;
      }

      .cls-27 {
        fill: #19baea;
        stroke: #1498c0;
      }

      .cls-27, .cls-28, .cls-29 {
        stroke-linecap: round;
        stroke-linejoin: round;
        stroke-width: 2px;
      }

      .cls-9 {
        fill: #6dddfe;
      }

      .cls-10 {
        fill: #1498c0;
      }

      .cls-28 {
        fill: #de5c04;
        stroke: #a14100;
      }

      .cls-11, .cls-29 {
        fill: #dd47d8;
      }

      .cls-12 {
        fill: #4562f5;
      }

      .cls-13 {
        fill: #ecf8ff;
      }

      .cls-26 {
        stroke-dasharray: 0 0 7.001 3;
      }

      .cls-29 {
        stroke: #b819b3;
      }

      .cls-14 {
        fill: #f577f1;
      }

      .cls-15 {
        fill: #fedd81;
      }

      .cls-16 {
        fill: #f677f2;
      }

      .cls-17 {
        fill: #fe9b00;
      }

      .cls-23 {
        letter-spacing: -.01em;
      }

      .cls-18 {
        fill: #a14100;
      }
    </style>
  </defs>
  <g>
    <g>
      <path class="cls-28" d="m505.992,674.643H52.706l-11.613,11.226-13.016-11.226V57.724l12.623,10.761,12.599-11.653,440.605-.091c16.083,0,29.097-13.806,27.779-30.151-1.175-14.565-13.733-25.591-28.345-25.591L1.622,1.568c-.238-.217-.622-.048-.622.274l.171,704.366h504.821c8.716,0,15.782-7.066,15.782-15.783s-7.066-15.783-15.782-15.783Z"/>
      <path class="cls-18" d="m511.651,28.915c.233,11.599-9.583,22.21-22.59,21.903-11.361-.268-21.522-9.45-21.508-22.104.014-12.581,10.427-22.278,22.629-21.994,11.969.279,21.786,10.209,21.47,22.194Z"/>
      <path class="cls-1" d="m494.018,25.976c1.407,0,2.395-.012,3.384.004.851.014,1.445.399,1.556,1.288.12.962-.563,1.285-1.317,1.519-.079.025-.977.08-1.047.061-3.895-.745-5.166,2.691-6.968,5.688-1.973,3.282-4.638,5.369-8.75,4.954-1.005-.101-1.949-.347-2.123-1.35-.208-1.2,1.021-.942,1.691-1.305,3.006-1.631,3.894-4.763,5.328-7.535-.849-.677-1.708-.269-2.483-.419-.887-.172-1.685-.555-1.601-1.554.067-.795.741-1.257,1.574-1.335.33-.031.676-.081.994-.017,2.34.468,3.589-.727,4.689-2.649,1.419-2.479,3.285-4.62,6.33-5.208,1.965-.38,3.644.13,4.821,1.803.593.843.499,1.736-.279,2.472-.735.695-1.343.452-1.831-.318-.614-.968-1.097-.293-1.572.131-1.022.911-1.408,2.213-2.396,3.771Z"/>
    </g>
    <text class="cls-23" transform="translate(27.015 37.348)"><tspan x="0" y="0">함수 정의하기</tspan></text>
    <path class="cls-5" d="m456.927,16.409c-.019-2.311-1.424-3.584-3.714-3.788-1.024-.091-2.059-.045-3.089-.065-.8-.016-1.602-.079-1.818-1.054-.956-4.323-3.974-5.172-7.924-5.16l-162.797.039c-1.724,0-3.441-.053-4.959.989-1.426.98-2.614,2.39-2.425,4.002.201,1.71,2.138.862,3.242,1.062,3.776.686,4.647,1.535,4.651,5.389.009,7.293.007,14.587.001,21.88-.003,4.263-1.371,5.669-5.632,5.818-2.678.094-2.979.684-1.574,2.99,1.549,2.542,3.94,2.917,6.671,2.915l163.57-.026c.515,0,1.03-.015,1.545-.013,2.331.011,4.337-1.203,4.849-3.179.806-3.113,2.747-3.06,5.157-3.034,2.719.03,4.236-1.411,4.257-4.055.065-8.237.056-16.474-.012-24.71Z"/>
    <g>
      <path class="cls-3" d="m279.637,16.409c-.019-2.311-1.424-3.584-3.714-3.788-1.024-.091-2.059-.045-3.089-.065-.8-.016-1.602-.079-1.818-1.054-.956-4.323-3.974-5.172-7.924-5.16l-76.694.039c-1.724,0-3.441-.053-4.959.989-1.426.98-2.614,2.39-2.425,4.002.201,1.71,2.138.862,3.242,1.062,3.776.686,4.647,1.535,4.651,5.389.009,7.293.007,14.587.001,21.88-.003,4.263-1.371,5.669-5.632,5.818-2.678.094-2.979.684-1.574,2.99,1.549,2.542,3.94,2.917,6.671,2.915l77.467-.026c.515,0,1.03-.015,1.545-.013,2.331.011,4.337-1.203,4.849-3.179.806-3.113,2.747-3.06,5.157-3.034,2.719.03,4.236-1.411,4.257-4.055.065-8.237.056-16.474-.012-24.71Z"/>
      <text class="cls-22" transform="translate(203.048 37.398)"><tspan x="0" y="0">최댓값</tspan></text>
    </g>
    <g>
      <path class="cls-15" d="m308.551,48.787c-10.975,0-19.903-8.928-19.903-19.903s8.929-19.903,19.903-19.903h108.707c10.975,0,19.902,8.928,19.902,19.903s-8.928,19.903-19.902,19.903h-108.707Z"/>
      <path class="cls-17" d="m417.258,9.98c10.423,0,18.903,8.48,18.903,18.903s-8.48,18.903-18.903,18.903h-108.707c-10.423,0-18.903-8.48-18.903-18.903s8.48-18.903,18.903-18.903h108.707m0-2h-108.707c-11.497,0-20.903,9.406-20.903,20.903s9.406,20.903,20.903,20.903h108.707c11.497,0,20.903-9.407,20.903-20.903s-9.406-20.903-20.903-20.903h0Z"/>
    </g>
    <text class="cls-22" transform="translate(301.959 35.947)"><tspan x="0" y="0">문자/숫자 값 1</tspan></text>
  </g>
  <g>
    <g>
      <path class="cls-29" d="m430.392,56.91H53.299s0,0,0,0l-12.543,11.548s0,0,0,0l-12.023-10.98c-.238-.218-.622-.049-.622.274v54.741c0,.047.011.092.028.135h-.003l.004.004c.02.048.048.093.087.13h.056l12.499,11.414,12.077-11.119c.212-.195.49-.304.779-.304l376.757-.101c15.329,0,27.871-12.542,27.871-27.871h0c0-15.329-12.542-27.871-27.871-27.871Z"/>
      <g>
        <path class="cls-7" d="m451.341,84.825c.233,11.599-9.583,22.21-22.59,21.903-11.361-.268-21.522-9.45-21.508-22.104.014-12.581,10.427-22.278,22.629-21.994,11.969.279,21.786,10.209,21.47,22.194Z"/>
        <path class="cls-16" d="m429.609,74.662c1.421.066,3.283.498,4.796,1.905,2.464,2.29,2.614,5.317.342,7.812-.823.903-1.728,1.735-2.634,2.558-.847.769-1.497,1.641-1.723,2.78-.285,1.438-1.202,2.017-2.552,1.624-1.294-.377-1.297-1.572-1.154-2.621.299-2.203,1.86-3.593,3.427-4.952.334-.29.717-.537.999-.87,1.487-1.758,1.36-3.4-.321-4.537-1.47-.995-3.897-.403-4.808,1.208-.326.577-.531,1.221-.815,1.823-.524,1.11-1.42,1.65-2.58,1.204-1.144-.44-1.405-1.351-1.1-2.592.769-3.131,3.806-5.339,8.123-5.343Z"/>
        <path class="cls-14" d="m428.583,97.377c-1.271-.012-2.113-.925-2.059-2.258.054-1.311.741-2.044,2.063-2.095,1.32-.051,2.369,1,2.32,2.267-.048,1.226-1.02,2.098-2.324,2.086Z"/>
      </g>
    </g>
    <g>
      <path class="cls-2" d="m59.344,71.05v27.714c0,3.453,2.811,6.25,6.264,6.242,25.301-.061,13.117-.046,38.431-.044,3.447,0,6.249-2.794,6.249-6.242v-27.624c0-3.441-2.787-6.231-6.228-6.235l-38.474-.046c-3.447-.004-6.243,2.789-6.243,6.235Z"/>
      <text class="cls-21" transform="translate(69.723 91.75)"><tspan x="0" y="0">n</tspan></text>
      <path class="cls-4" d="m96.708,81.016c1.503,0,3.006-.003,4.509.001.951.003,1.744.288,2.197,1.211.47.958.064,1.702-.534,2.425-1.451,1.754-2.859,3.543-4.343,5.268-1.318,1.533-2.389,1.523-3.72-.029-1.519-1.771-2.972-3.598-4.452-5.402-.521-.635-.812-1.313-.452-2.145.374-.865,1.045-1.293,1.954-1.309,1.614-.027,3.228-.008,4.842-.008v-.013Z"/>
    </g>
    <text class="cls-23" transform="translate(126.107 93.26)"><tspan x="0" y="0">을(를)</tspan></text>
    <text class="cls-23" transform="translate(259.215 93.26)"><tspan x="0" y="0">(으)로 정하기</tspan></text>
    <g>
      <g>
        <path class="cls-15" d="m223.268,104.813c-10.975,0-19.903-8.929-19.903-19.903s8.929-19.903,19.903-19.903,19.902,8.929,19.902,19.903-8.928,19.903-19.902,19.903Z"/>
        <path class="cls-17" d="m223.268,66.007c10.423,0,18.903,8.48,18.903,18.903s-8.48,18.903-18.903,18.903-18.903-8.48-18.903-18.903,8.48-18.903,18.903-18.903m0-2c-11.497,0-20.903,9.407-20.903,20.903s9.406,20.903,20.903,20.903,20.903-9.407,20.903-20.903-9.406-20.903-20.903-20.903h0Z"/>
      </g>
      <text class="cls-22" transform="translate(217.016 91.972)"><tspan x="0" y="0">1</tspan></text>
    </g>
  </g>
  <g>
    <g>
      <path class="cls-27" d="m381.801,643.154H55.187V168.567l314.526-.101c16.083,0,29.097-13.806,27.779-30.151-1.175-14.565-13.733-25.591-28.345-25.591H53.298l-12.543,11.548-12.023-10.98c-.238-.217-.622-.048-.622.274v54.741c0,.047.011.092.028.135h-.004l.091.134.056,506.144,12.379,11.613,12.516-11.613h328.625c8.716,0,15.783-7.066,15.783-15.783s-7.066-15.783-15.783-15.783Z"/>
      <g>
        <path class="cls-10" d="m387.461,140.639c.233,11.599-9.583,22.21-22.59,21.903-11.361-.268-21.522-9.45-21.508-22.104.014-12.581,10.427-22.278,22.629-21.994,11.969.279,21.786,10.209,21.47,22.194Z"/>
        <path class="cls-9" d="m373.545,142.171c-.095,0-.185.021-.279.028l-4.684-7.075c.647-.892.942-2.055.623-3.302-.356-1.388-1.5-2.504-2.899-2.812-2.553-.562-4.81,1.366-4.81,3.821,0,.859.284,1.646.753,2.292l-4.684,7.075c-.094-.007-.183-.028-.279-.028-2.466,0-4.4,2.277-3.814,4.843.323,1.416,1.474,2.567,2.89,2.89,2.566.586,4.843-1.348,4.843-3.814,0-1.153-.507-2.18-1.3-2.897l4.386-6.625c.358.108.731.183,1.124.183s.766-.076,1.124-.183l4.386,6.625c-1.013.917-1.56,2.338-1.178,3.884.344,1.389,1.482,2.51,2.877,2.828,2.564.583,4.839-1.35,4.839-3.815,0-2.165-1.755-3.919-3.919-3.919Z"/>
      </g>
      <text class="cls-20" transform="translate(215.154 148.395)"><tspan x="0" y="0">번 반복하기</tspan></text>
    </g>
    <g>
      <g>
        <path class="cls-15" d="m77.917,160.323c-10.975,0-19.903-8.928-19.903-19.903s8.929-19.903,19.903-19.903h105.602c10.975,0,19.903,8.929,19.903,19.903s-8.929,19.903-19.903,19.903h-105.602Z"/>
        <path class="cls-17" d="m183.519,121.517c10.423,0,18.903,8.48,18.903,18.903s-8.48,18.903-18.903,18.903h-105.602c-10.423,0-18.903-8.48-18.903-18.903s8.48-18.903,18.903-18.903h105.602m0-2h-105.602c-11.497,0-20.903,9.406-20.903,20.903s9.406,20.903,20.903,20.903h105.602c11.497,0,20.903-9.406,20.903-20.903s-9.406-20.903-20.903-20.903h0Z"/>
      </g>
      <text class="cls-22" transform="translate(71.665 147.481)"><tspan x="0" y="0">문자/숫자 값 1</tspan></text>
    </g>
  </g>
  <g>
    <path class="cls-13" d="m958.657,642.098H55.186V168.568h903.471c9.62,0,17.419,7.799,17.419,17.419v438.692c0,9.62-7.799,17.419-17.419,17.419Z"/>
    <g>
      <polyline class="cls-25" points="58.687 642.098 55.187 642.098 55.187 638.598"/>
      <line class="cls-24" x1="55.187" y1="635.575" x2="55.187" y2="173.579"/>
      <polyline class="cls-25" points="55.187 172.068 55.187 168.568 58.687 168.568"/>
      <path class="cls-26" d="m61.687,168.568h896.97c9.621,0,17.419,7.799,17.419,17.419v438.691c0,9.62-7.799,17.419-17.419,17.419H60.187"/>
    </g>
  </g>
  <g>
    <g>
      <g>
        <polygon class="cls-12" points="418.947 236.774 403.42 216.871 418.947 196.968 583.228 196.968 598.753 216.871 583.228 236.774 418.947 236.774"/>
        <path class="cls-6" d="m582.74,197.968l14.746,18.903-14.746,18.903h-163.305l-14.746-18.903,14.746-18.903h163.305m.976-2h-165.258l-16.306,20.903,16.306,20.903h165.258l16.306-20.903-16.306-20.903h0Z"/>
      </g>
      <g>
        <g>
          <path class="cls-15" d="m441.216,236.774c-10.975,0-19.903-8.928-19.903-19.903s8.929-19.903,19.903-19.903h10.968c10.975,0,19.903,8.928,19.903,19.903s-8.929,19.903-19.903,19.903h-10.968Z"/>
          <path class="cls-17" d="m452.184,197.968c10.423,0,18.903,8.48,18.903,18.903s-8.48,18.903-18.903,18.903h-10.968c-10.423,0-18.903-8.48-18.903-18.903s8.48-18.903,18.903-18.903h10.968m0-2h-10.968c-11.497,0-20.903,9.406-20.903,20.903s9.406,20.903,20.903,20.903h10.968c11.497,0,20.903-9.407,20.903-20.903s-9.406-20.903-20.903-20.903h0Z"/>
        </g>
        <text class="cls-22" transform="translate(434.964 223.935)"><tspan x="0" y="0">10</tspan></text>
      </g>
      <g>
        <g>
          <path class="cls-15" d="m549.991,236.774c-10.975,0-19.903-8.928-19.903-19.903s8.929-19.903,19.903-19.903h10.968c10.975,0,19.903,8.928,19.903,19.903s-8.929,19.903-19.903,19.903h-10.968Z"/>
          <path class="cls-17" d="m560.958,197.968c10.423,0,18.903,8.48,18.903,18.903s-8.48,18.903-18.903,18.903h-10.968c-10.423,0-18.903-8.48-18.903-18.903s8.48-18.903,18.903-18.903h10.968m0-2h-10.968c-11.497,0-20.903,9.406-20.903,20.903s9.406,20.903,20.903,20.903h10.968c11.497,0,20.903-9.407,20.903-20.903s-9.406-20.903-20.903-20.903h0Z"/>
        </g>
        <text class="cls-22" transform="translate(543.738 223.935)"><tspan x="0" y="0">10</tspan></text>
      </g>
      <rect class="cls-6" x="486.401" y="197.064" width="29.373" height="39.613" rx="3.355" ry="3.355"/>
      <path class="cls-8" d="m504.789,216.556l-7.654-8.706v3.029s5.546,6.309,5.546,6.309l-5.546,5.808v2.896s7.626-7.985,7.626-7.985c.357-.375.37-.961.027-1.351Z"/>
    </g>
    <g>
      <g>
        <g>
          <path class="cls-11" d="m634.053,236.97c-10.975,0-19.903-8.928-19.903-19.903s8.929-19.903,19.903-19.903h294.752c10.975,0,19.903,8.929,19.903,19.903s-8.929,19.903-19.903,19.903h-294.752Z"/>
          <path class="cls-2" d="m928.805,198.164c10.423,0,18.903,8.48,18.903,18.903s-8.48,18.903-18.903,18.903h-294.752c-10.423,0-18.903-8.48-18.903-18.903s8.48-18.903,18.903-18.903h294.752m0-2h-294.752c-11.497,0-20.903,9.406-20.903,20.903s9.406,20.903,20.903,20.903h294.752c11.497,0,20.903-9.407,20.903-20.903s-9.406-20.903-20.903-20.903h0Z"/>
        </g>
        <rect class="cls-2" x="628.634" y="197.583" width="122.019" height="38.968" rx="3.871" ry="3.871"/>
        <text class="cls-19" transform="translate(763.563 224.13)"><tspan x="0" y="0">의</tspan></text>
        <text class="cls-19" transform="translate(639.16 224.13)"><tspan x="0" y="0">반티 총점</tspan></text>
        <path class="cls-4" d="m734.959,212.39c1.503,0,3.006-.003,4.509.001.951.003,1.744.288,2.197,1.211.47.958.064,1.702-.534,2.425-1.451,1.754-2.859,3.543-4.343,5.268-1.318,1.533-2.389,1.523-3.72-.029-1.519-1.771-2.972-3.598-4.452-5.402-.521-.635-.812-1.313-.452-2.145.374-.865,1.045-1.293,1.954-1.309,1.614-.027,3.228-.008,4.842-.008v-.013Z"/>
        <text class="cls-19" transform="translate(853.131 224.129)"><tspan x="0" y="0">번째 항목</tspan></text>
      </g>
      <g>
        <g>
          <circle class="cls-15" cx="817.863" cy="216.871" r="19.903"/>
          <path class="cls-17" d="m817.863,197.968c10.423,0,18.903,8.48,18.903,18.903s-8.48,18.903-18.903,18.903-18.903-8.48-18.903-18.903,8.48-18.903,18.903-18.903m0-2c-11.497,0-20.903,9.406-20.903,20.903s9.406,20.903,20.903,20.903,20.903-9.407,20.903-20.903-9.406-20.903-20.903-20.903h0Z"/>
        </g>
        <text class="cls-22" transform="translate(811.611 223.933)"><tspan x="0" y="0">1</tspan></text>
      </g>
    </g>
    <g>
      <path class="cls-27" d="m372.206,298.101h-240.373l-11.613,11.226-11.538-11.226v-46.29l12.441,11.461,12.387-11.471,226.607-.091c16.083,0,29.097-13.806,27.779-30.151-1.175-14.565-13.733-25.591-28.345-25.591H106.793l-12.543,11.548-12.023-10.98c-.238-.217-.622-.048-.622.274v54.741c0,.047.011.092.028.135h-.004l.091.134.056,77.847,12.379,11.613,12.516-11.613h265.535c8.716,0,15.783-7.066,15.783-15.783s-7.066-15.783-15.783-15.783Z"/>
      <g>
        <path class="cls-10" d="m377.866,223.883c.233,11.599-9.583,22.21-22.59,21.903-11.361-.268-21.522-9.45-21.508-22.104.014-12.581,10.427-22.278,22.629-21.994,11.969.279,21.786,10.209,21.47,22.194Z"/>
        <path class="cls-9" d="m363.949,225.415c-.095,0-.185.021-.279.028l-4.684-7.075c.647-.892.942-2.055.623-3.302-.356-1.388-1.5-2.504-2.899-2.812-2.553-.562-4.81,1.366-4.81,3.821,0,.859.284,1.646.753,2.292l-4.684,7.075c-.094-.007-.183-.028-.279-.028-2.466,0-4.4,2.277-3.814,4.843.323,1.416,1.474,2.567,2.89,2.89,2.566.586,4.843-1.348,4.843-3.814,0-1.153-.507-2.18-1.3-2.897l4.386-6.625c.358.108.731.183,1.124.183s.766-.076,1.124-.183l4.386,6.625c-1.013.917-1.56,2.338-1.178,3.884.344,1.389,1.482,2.51,2.877,2.828,2.564.583,4.839-1.35,4.839-3.815,0-2.165-1.755-3.919-3.919-3.919Z"/>
      </g>
      <text class="cls-20" transform="translate(110.509 231.64)"><tspan x="0" y="0">만일</tspan></text>
      <text class="cls-20" transform="translate(230.796 231.64)"><tspan x="0" y="0">(이)라면</tspan></text>
      <g>
        <polygon class="cls-12" points="182.606 243.64 167.08 223.737 182.606 203.834 202.051 203.834 217.578 223.737 202.051 243.64 182.606 243.64"/>
        <path class="cls-6" d="m201.564,204.834l14.746,18.903-14.746,18.903h-18.469l-14.746-18.903,14.746-18.903h18.469m.976-2h-20.422l-16.306,20.903,16.306,20.903h20.422l16.306-20.903-16.306-20.903h0Z"/>
      </g>
      <text class="cls-21" transform="translate(182.896 229.575)"><tspan x="0" y="0">참</tspan></text>
    </g>
    <g>
      <g>
        <g>
          <path class="cls-11" d="m553.184,329.681c-10.975,0-19.903-8.928-19.903-19.903s8.929-19.903,19.903-19.903h123.18c10.975,0,19.902,8.929,19.902,19.903s-8.928,19.903-19.902,19.903h-123.18Z"/>
          <path class="cls-2" d="m676.363,290.875c10.423,0,18.903,8.48,18.903,18.903s-8.48,18.903-18.903,18.903h-123.179c-10.423,0-18.903-8.48-18.903-18.903s8.48-18.903,18.903-18.903h123.179m0-2h-123.179c-11.497,0-20.903,9.406-20.903,20.903s9.406,20.903,20.903,20.903h123.179c11.497,0,20.903-9.406,20.903-20.903s-9.406-20.903-20.903-20.903h0Z"/>
        </g>
        <rect class="cls-2" x="547.764" y="290.294" width="100.859" height="38.968" rx="3.871" ry="3.871"/>
        <text class="cls-19" transform="translate(661.534 316.837)"><tspan x="0" y="0">값</tspan></text>
        <text class="cls-19" transform="translate(558.29 316.837)"><tspan x="0" y="0">최댓 값</tspan></text>
        <path class="cls-4" d="m632.93,305.1c1.503,0,3.006-.003,4.509.001.951.003,1.744.288,2.197,1.211.47.958.064,1.702-.534,2.425-1.451,1.754-2.859,3.543-4.343,5.268-1.318,1.533-2.389,1.523-3.72-.029-1.519-1.771-2.972-3.598-4.452-5.402-.521-.635-.812-1.313-.452-2.145.374-.865,1.045-1.293,1.954-1.309,1.614-.027,3.228-.008,4.842-.008v-.013Z"/>
      </g>
      <g>
        <g>
          <path class="cls-11" d="m423.055,329.681c-10.975,0-19.903-8.928-19.903-19.903s8.929-19.903,19.903-19.903h74.536c10.975,0,19.903,8.929,19.903,19.903s-8.929,19.903-19.903,19.903h-74.536Z"/>
          <path class="cls-2" d="m497.592,290.875c10.423,0,18.903,8.48,18.903,18.903s-8.48,18.903-18.903,18.903h-74.537c-10.423,0-18.903-8.48-18.903-18.903s8.48-18.903,18.903-18.903h74.537m0-2h-74.537c-11.497,0-20.903,9.406-20.903,20.903s9.406,20.903,20.903,20.903h74.537c11.497,0,20.903-9.406,20.903-20.903s-9.406-20.903-20.903-20.903h0Z"/>
        </g>
        <rect class="cls-2" x="417.636" y="290.294" width="52.216" height="38.968" rx="3.871" ry="3.871"/>
        <text class="cls-19" transform="translate(482.762 316.837)"><tspan x="0" y="0">값</tspan></text>
        <text class="cls-19" transform="translate(428.162 316.837)"><tspan x="0" y="0">n</tspan></text>
        <path class="cls-4" d="m454.159,305.1c1.503,0,3.006-.003,4.509.001.951.003,1.744.288,2.197,1.211.47.958.064,1.702-.534,2.425-1.451,1.754-2.859,3.543-4.343,5.268-1.318,1.533-2.389,1.523-3.72-.029-1.519-1.771-2.972-3.598-4.452-5.402-.521-.635-.812-1.313-.452-2.145.374-.865,1.045-1.293,1.954-1.309,1.614-.027,3.228-.008,4.842-.008v-.013Z"/>
      </g>
    </g>
    <g>
      <g>
        <g>
          <path class="cls-29" d="m650.412,457.638H106.793s0,0,0,0l-12.543,11.548s0,0,0,0l-12.023-10.98c-.238-.218-.622-.049-.622.274v54.741c0,.047.011.092.028.135h-.003l.004.004c.02.048.048.093.087.13h.056l11.328,10.345c.663.605,1.678.603,2.338-.005l10.91-10.045c.212-.195.49-.304.779-.304l543.282-.101c15.329,0,27.871-12.542,27.871-27.871h0c0-15.329-12.542-27.871-27.871-27.871Z"/>
          <g>
            <path class="cls-7" d="m671.361,485.553c.233,11.599-9.583,22.21-22.59,21.903-11.361-.268-21.522-9.45-21.508-22.104.014-12.581,10.427-22.278,22.629-21.994,11.969.279,21.786,10.209,21.47,22.194Z"/>
            <path class="cls-16" d="m649.629,475.39c1.421.066,3.283.498,4.796,1.905,2.464,2.29,2.614,5.317.342,7.812-.823.903-1.728,1.735-2.634,2.558-.847.769-1.497,1.641-1.723,2.78-.285,1.438-1.202,2.017-2.552,1.624-1.294-.377-1.297-1.572-1.154-2.621.299-2.203,1.86-3.593,3.427-4.952.334-.29.717-.537.999-.87,1.487-1.758,1.36-3.4-.321-4.537-1.47-.995-3.897-.403-4.808,1.208-.326.577-.531,1.221-.815,1.823-.524,1.11-1.42,1.65-2.58,1.204-1.144-.44-1.405-1.351-1.1-2.592.769-3.131,3.806-5.339,8.123-5.343Z"/>
            <path class="cls-14" d="m648.603,498.105c-1.271-.012-2.113-.925-2.059-2.258.054-1.311.741-2.044,2.063-2.095,1.32-.051,2.369,1,2.32,2.267-.048,1.226-1.02,2.098-2.324,2.086Z"/>
          </g>
        </g>
        <g>
          <path class="cls-2" d="m112.838,471.778v27.721c0,3.45,2.808,6.244,6.257,6.235,25.312-.061,145.093-.046,170.418-.044,3.444,0,6.242-2.791,6.242-6.235v-27.63c0-3.441-2.787-6.231-6.228-6.235l-170.447-.046c-3.447-.004-6.243,2.789-6.243,6.235Z"/>
          <text class="cls-21" transform="translate(123.218 493.477)"><tspan x="0" y="0">최댓값 항목 번호</tspan></text>
          <path class="cls-4" d="m282.176,481.745c1.503,0,3.006-.003,4.509.001.951.003,1.744.288,2.197,1.211.47.958.064,1.702-.534,2.425-1.451,1.754-2.859,3.543-4.343,5.268-1.318,1.533-2.389,1.523-3.72-.029-1.519-1.771-2.972-3.598-4.452-5.402-.521-.635-.812-1.313-.452-2.145.374-.865,1.045-1.293,1.954-1.309,1.614-.027,3.228-.008,4.842-.008v-.013Z"/>
        </g>
        <text class="cls-23" transform="translate(311.575 493.987)"><tspan x="0" y="0">를</tspan></text>
        <text class="cls-23" transform="translate(477.992 493.987)"><tspan x="0" y="0">(으)로 정하기</tspan></text>
      </g>
      <g>
        <g>
          <path class="cls-11" d="m370.557,505.311c-10.975,0-19.903-8.928-19.903-19.903s8.929-19.903,19.903-19.903h74.537c10.975,0,19.903,8.928,19.903,19.903s-8.929,19.903-19.903,19.903h-74.537Z"/>
          <path class="cls-2" d="m445.094,466.505c10.423,0,18.903,8.48,18.903,18.903s-8.48,18.903-18.903,18.903h-74.537c-10.423,0-18.903-8.48-18.903-18.903s8.48-18.903,18.903-18.903h74.537m0-2h-74.537c-11.497,0-20.903,9.406-20.903,20.903s9.406,20.903,20.903,20.903h74.537c11.497,0,20.903-9.406,20.903-20.903s-9.406-20.903-20.903-20.903h0Z"/>
        </g>
        <rect class="cls-2" x="365.138" y="465.924" width="52.216" height="38.968" rx="3.871" ry="3.871"/>
        <text class="cls-19" transform="translate(430.264 492.467)"><tspan x="0" y="0">값</tspan></text>
        <text class="cls-19" transform="translate(375.664 492.467)"><tspan x="0" y="0">n</tspan></text>
        <path class="cls-4" d="m401.661,480.731c1.503,0,3.006-.003,4.509.001.951.003,1.744.288,2.197,1.211.47.958.064,1.702-.534,2.425-1.451,1.754-2.859,3.543-4.343,5.268-1.318,1.533-2.389,1.523-3.72-.029-1.519-1.771-2.972-3.598-4.452-5.402-.521-.635-.812-1.313-.452-2.145.374-.865,1.045-1.293,1.954-1.309,1.614-.027,3.228-.008,4.842-.008v-.013Z"/>
      </g>
    </g>
    <g>
      <g>
        <path class="cls-29" d="m426.265,548.496H106.793s0,0,0,0l-12.543,11.548s0,0,0,0l-12.023-10.98c-.238-.218-.622-.049-.622.274v54.741c0,.047.011.092.028.135h-.003l.004.004c.02.048.048.093.087.13h.056l11.328,10.345c.663.605,1.678.603,2.338-.005l10.91-10.045c.212-.195.49-.304.779-.304l319.135-.101c15.329,0,27.871-12.542,27.871-27.871h0c0-15.329-12.542-27.871-27.871-27.871Z"/>
        <g>
          <path class="cls-7" d="m447.213,576.411c.233,11.599-9.583,22.21-22.59,21.903-11.361-.268-21.522-9.45-21.508-22.104.014-12.581,10.427-22.278,22.629-21.994,11.969.279,21.786,10.209,21.47,22.194Z"/>
          <path class="cls-16" d="m425.482,566.248c1.421.066,3.283.498,4.796,1.905,2.464,2.29,2.614,5.317.342,7.812-.823.903-1.728,1.735-2.634,2.558-.847.769-1.497,1.641-1.723,2.78-.285,1.438-1.202,2.017-2.552,1.624-1.294-.377-1.297-1.572-1.154-2.621.299-2.203,1.86-3.593,3.427-4.952.334-.29.717-.537.999-.87,1.487-1.758,1.36-3.4-.321-4.537-1.47-.995-3.897-.403-4.808,1.208-.326.577-.531,1.221-.815,1.823-.524,1.11-1.42,1.65-2.58,1.204-1.144-.44-1.405-1.351-1.1-2.592.769-3.131,3.806-5.339,8.123-5.343Z"/>
          <path class="cls-14" d="m424.456,588.963c-1.271-.012-2.113-.925-2.059-2.258.054-1.311.741-2.044,2.063-2.095,1.32-.051,2.369,1,2.32,2.267-.048,1.226-1.02,2.098-2.324,2.086Z"/>
        </g>
      </g>
      <g>
        <path class="cls-2" d="m112.838,562.636v27.721c0,3.45,2.808,6.244,6.257,6.235,25.312-.061,14.609-.046,39.934-.044,3.444,0,6.242-2.791,6.242-6.235v-27.63c0-3.441-2.787-6.231-6.228-6.235l-39.963-.046c-3.447-.004-6.243,2.789-6.243,6.235Z"/>
        <text class="cls-21" transform="translate(123.218 584.335)"><tspan x="0" y="0">n</tspan></text>
        <path class="cls-4" d="m151.692,572.603c1.503,0,3.006-.003,4.509.001.951.003,1.744.288,2.197,1.211.47.958.064,1.702-.534,2.425-1.451,1.754-2.859,3.543-4.343,5.268-1.318,1.533-2.389,1.523-3.72-.029-1.519-1.771-2.972-3.598-4.452-5.402-.521-.635-.812-1.313-.452-2.145.374-.865,1.045-1.293,1.954-1.309,1.614-.027,3.228-.008,4.842-.008v-.013Z"/>
      </g>
      <text class="cls-23" transform="translate(181.091 584.845)"><tspan x="0" y="0">에</tspan></text>
      <text class="cls-23" transform="translate(273.394 584.845)"><tspan x="0" y="0">만큼 더하기</tspan></text>
    </g>
    <g>
      <g>
        <g>
          <path class="cls-29" d="m851.93,366.78H106.793s0,0,0,0l-12.543,11.548s0,0,0,0l-12.023-10.98c-.238-.218-.622-.049-.622.274v54.741c0,.047.011.092.028.135h-.003l.004.004c.02.048.048.093.087.13h.056l11.328,10.345c.663.605,1.678.603,2.338-.005l10.91-10.045c.212-.195.49-.304.779-.304l744.8-.101c15.329,0,27.871-12.542,27.871-27.871h0c0-15.329-12.542-27.871-27.871-27.871Z"/>
          <g>
            <path class="cls-7" d="m872.879,394.695c.233,11.599-9.583,22.21-22.59,21.903-11.361-.268-21.522-9.45-21.508-22.104.014-12.581,10.427-22.278,22.629-21.994,11.969.279,21.786,10.209,21.47,22.194Z"/>
            <path class="cls-16" d="m851.147,384.532c1.421.066,3.283.498,4.796,1.905,2.464,2.29,2.614,5.317.342,7.812-.823.903-1.728,1.735-2.634,2.558-.847.769-1.497,1.641-1.723,2.78-.285,1.438-1.202,2.017-2.552,1.624-1.294-.377-1.297-1.572-1.154-2.621.299-2.203,1.86-3.593,3.427-4.952.334-.29.717-.537.999-.87,1.487-1.758,1.36-3.4-.321-4.537-1.47-.995-3.897-.403-4.808,1.208-.326.577-.531,1.221-.815,1.823-.524,1.11-1.42,1.65-2.58,1.204-1.144-.44-1.405-1.351-1.1-2.592.769-3.131,3.806-5.339,8.123-5.343Z"/>
            <path class="cls-14" d="m850.121,407.247c-1.271-.012-2.113-.925-2.059-2.258.054-1.311.741-2.044,2.063-2.095,1.32-.051,2.369,1,2.32,2.267-.048,1.226-1.02,2.098-2.324,2.086Z"/>
          </g>
        </g>
        <g>
          <path class="cls-2" d="m112.838,380.92v27.721c0,3.45,2.808,6.244,6.257,6.235,25.312-.061,59.055-.046,84.38-.044,3.444,0,6.242-2.791,6.242-6.235v-27.63c0-3.441-2.787-6.231-6.228-6.235l-84.409-.046c-3.447-.004-6.243,2.789-6.243,6.235Z"/>
          <text class="cls-21" transform="translate(123.217 402.619)"><tspan x="0" y="0">최댓값</tspan></text>
          <path class="cls-4" d="m196.139,390.887c1.503,0,3.006-.003,4.509.001.951.003,1.744.288,2.197,1.211.47.958.064,1.702-.534,2.425-1.451,1.754-2.859,3.543-4.343,5.268-1.318,1.533-2.389,1.523-3.72-.029-1.519-1.771-2.972-3.598-4.452-5.402-.521-.635-.812-1.313-.452-2.145.374-.865,1.045-1.293,1.954-1.309,1.614-.027,3.228-.008,4.842-.008v-.013Z"/>
        </g>
        <text class="cls-23" transform="translate(225.537 403.129)"><tspan x="0" y="0">를</tspan></text>
        <text class="cls-23" transform="translate(679.51 403.129)"><tspan x="0" y="0">(으)로 정하기</tspan></text>
      </g>
      <g>
        <g>
          <g>
            <path class="cls-11" d="m284.519,414.601c-10.975,0-19.902-8.928-19.902-19.903s8.928-19.903,19.902-19.903h362.234c10.975,0,19.903,8.928,19.903,19.903s-8.929,19.903-19.903,19.903h-362.234Z"/>
            <path class="cls-2" d="m646.754,375.795c10.423,0,18.903,8.48,18.903,18.903s-8.48,18.903-18.903,18.903h-362.234c-10.423,0-18.903-8.48-18.903-18.904s8.48-18.903,18.903-18.903h362.234m0-2h-362.234c-11.497,0-20.903,9.406-20.903,20.903h0c0,11.497,9.406,20.904,20.903,20.904h362.234c11.497,0,20.903-9.406,20.903-20.903h0c0-11.497-9.406-20.903-20.903-20.903h0Z"/>
          </g>
          <rect class="cls-2" x="279.1" y="375.214" width="122.019" height="38.968" rx="3.871" ry="3.871"/>
          <text class="cls-19" transform="translate(414.029 401.76)"><tspan x="0" y="0">의</tspan></text>
          <text class="cls-19" transform="translate(289.626 401.76)"><tspan x="0" y="0">반티 총점</tspan></text>
          <path class="cls-4" d="m385.425,390.02c1.503,0,3.006-.003,4.509.001.951.003,1.744.288,2.197,1.211.47.958.064,1.702-.534,2.425-1.451,1.754-2.859,3.543-4.343,5.268-1.318,1.533-2.389,1.523-3.72-.029-1.519-1.771-2.972-3.598-4.452-5.402-.521-.635-.812-1.313-.452-2.145.374-.865,1.045-1.293,1.954-1.309,1.614-.027,3.228-.008,4.842-.008v-.013Z"/>
          <text class="cls-19" transform="translate(571.08 401.76)"><tspan x="0" y="0">번째 항목</tspan></text>
        </g>
        <g>
          <g>
            <path class="cls-11" d="m467.329,414.453c-10.975,0-19.903-8.928-19.903-19.903s8.929-19.903,19.903-19.903h74.537c10.975,0,19.903,8.928,19.903,19.903s-8.929,19.903-19.903,19.903h-74.537Z"/>
            <path class="cls-2" d="m541.865,375.647c10.423,0,18.903,8.48,18.903,18.903s-8.48,18.903-18.903,18.903h-74.537c-10.423,0-18.903-8.48-18.903-18.903s8.48-18.903,18.903-18.903h74.537m0-2h-74.537c-11.497,0-20.903,9.407-20.903,20.903s9.406,20.903,20.903,20.903h74.537c11.497,0,20.903-9.406,20.903-20.903s-9.406-20.903-20.903-20.903h0Z"/>
          </g>
          <rect class="cls-2" x="461.91" y="375.066" width="52.216" height="38.968" rx="3.871" ry="3.871"/>
          <text class="cls-19" transform="translate(527.036 401.609)"><tspan x="0" y="0">값</tspan></text>
          <text class="cls-19" transform="translate(472.436 401.609)"><tspan x="0" y="0">n</tspan></text>
          <path class="cls-4" d="m498.432,389.873c1.503,0,3.006-.003,4.509.001.951.003,1.744.288,2.197,1.211.47.958.064,1.702-.534,2.425-1.451,1.754-2.859,3.543-4.343,5.268-1.318,1.533-2.389,1.523-3.72-.029-1.519-1.771-2.972-3.598-4.452-5.402-.521-.635-.812-1.313-.452-2.145.374-.865,1.045-1.293,1.954-1.309,1.614-.027,3.228-.008,4.842-.008v-.013Z"/>
        </g>
      </g>
    </g>
    <g>
      <g>
        <path class="cls-15" d="m238.353,595.551c-10.975,0-19.903-8.929-19.903-19.903s8.929-19.903,19.903-19.903,19.902,8.929,19.902,19.903-8.928,19.903-19.902,19.903Z"/>
        <path class="cls-17" d="m238.353,556.745c10.423,0,18.903,8.48,18.903,18.903s-8.48,18.903-18.903,18.903-18.903-8.48-18.903-18.903,8.48-18.903,18.903-18.903m0-2c-11.497,0-20.903,9.406-20.903,20.903s9.406,20.903,20.903,20.903,20.903-9.406,20.903-20.903-9.406-20.903-20.903-20.903h0Z"/>
      </g>
      <text class="cls-22" transform="translate(232.101 582.71)"><tspan x="0" y="0">1</tspan></text>
    </g>
  </g>
</svg>