<?xml version="1.0" encoding="UTF-8"?>
<svg id="_레이어_1" data-name="레이어 1" xmlns="http://www.w3.org/2000/svg" viewBox="0 0 493.521 133.822">
  <defs>
    <style>
      .cls-1, .cls-2, .cls-3, .cls-4, .cls-5, .cls-6, .cls-7, .cls-8, .cls-9 {
        stroke-width: 0px;
      }

      .cls-1, .cls-10, .cls-11 {
        fill: #fefefe;
      }

      .cls-2 {
        fill: #009400;
      }

      .cls-3 {
        fill: #b819b3;
      }

      .cls-4 {
        fill: #00b400;
      }

      .cls-5 {
        fill: #fefdfe;
      }

      .cls-6 {
        fill: #c62042;
      }

      .cls-12 {
        fill: #fe3a61;
        stroke: #c62142;
        stroke-linecap: round;
        stroke-linejoin: round;
      }

      .cls-12, .cls-13 {
        stroke-width: 2px;
      }

      .cls-13 {
        fill: #00b300;
        stroke: #009400;
        stroke-miterlimit: 10;
      }

      .cls-10 {
        font-size: 26px;
      }

      .cls-10, .cls-11, .cls-14 {
        font-family: Pretendard-Bold-KSCpc-EUC-H, Pretendard;
        font-weight: 700;
      }

      .cls-11, .cls-14 {
        font-size: 22px;
      }

      .cls-7 {
        fill: #dd47d8;
      }

      .cls-14 {
        fill: #fff;
      }

      .cls-8 {
        fill: #f2f2f2;
      }

      .cls-9 {
        fill: #fe5576;
      }
    </style>
  </defs>
  <path class="cls-12" d="m464.65,65.451H47.312c-.466,0-.915.175-1.258.491l-11.105,10.224c-.508.468-1.293.459-1.79-.02l-11.193-10.78c-.212-.204-.566-.054-.566.241v55.427c0,.102.042.198.115.269l12.53,11.519,12.543-11.629h418.063c15.329,0,27.871-12.542,27.871-27.871h0c0-15.329-12.542-27.871-27.871-27.871Z"/>
  <path class="cls-6" d="m440.365,92.845c.085-12.114,9.79-22.01,22.342-21.937,12.159.071,22.178,9.883,21.961,22.471-.203,11.764-9.754,21.773-22.498,21.598-12.042-.166-21.794-9.762-21.805-22.132Z"/>
  <path class="cls-9" d="m463.265,94.282c2.854.024,5.612,2.731,5.624,5.52.014,3.13-2.722,5.849-5.866,5.829-3.016-.018-5.566-2.746-5.533-5.919.031-3.007,2.636-5.457,5.775-5.43Z"/>
  <rect class="cls-9" x="465.653" y="84.667" width="9.448" height="9.448" transform="translate(200.979 -306.424) rotate(45)"/>
  <polygon class="cls-9" points="461.496 92.346 461.496 85.913 455.925 82.697 450.354 85.913 450.354 92.346 455.925 95.562 461.496 92.346"/>
  <text class="cls-10" transform="translate(265.725 102.976)"><tspan x="0" y="0">모양으로 바꾸기</tspan></text>
  <g>
    <g>
      <path class="cls-7" d="m71.433,113.241c-10.975,0-19.903-8.928-19.903-19.903s8.928-19.903,19.903-19.903h159.385c10.975,0,19.903,8.928,19.903,19.903s-8.929,19.903-19.903,19.903H71.433Z"/>
      <path class="cls-3" d="m230.818,74.435c10.423,0,18.903,8.48,18.903,18.903s-8.48,18.903-18.903,18.903H71.433c-10.423,0-18.903-8.48-18.903-18.903s8.48-18.903,18.903-18.903h159.385m0-2H71.433c-11.497,0-20.903,9.406-20.903,20.903h0c0,11.497,9.406,20.903,20.903,20.903h159.385c11.497,0,20.903-9.406,20.903-20.903h0c0-11.497-9.406-20.903-20.903-20.903h0Z"/>
    </g>
    <rect class="cls-3" x="66.014" y="73.855" width="137.065" height="38.968" rx="3.871" ry="3.871"/>
    <text class="cls-14" transform="translate(215.988 101.691)"><tspan x="0" y="0">값</tspan></text>
    <text class="cls-14" transform="translate(76.539 101.692)"><tspan x="0" y="0">컴퓨터 선택</tspan></text>
    <path class="cls-5" d="m187.385,88.661c1.503,0,3.006-.003,4.509.001.951.003,1.744.288,2.197,1.211.47.958.064,1.702-.534,2.425-1.451,1.754-2.859,3.543-4.343,5.268-1.318,1.533-2.389,1.523-3.72-.029-1.519-1.771-2.972-3.598-4.452-5.402-.521-.635-.812-1.313-.452-2.145.374-.865,1.045-1.293,1.954-1.309,1.614-.027,3.228-.008,4.842-.008v-.013Z"/>
  </g>
  <g>
    <path class="cls-13" d="m414.565,33.954c-2.293-12.79-13.66-22.1-26.741-22.14-81.918-.248-243.544-.502-325.462-.713-2.727-.007-4.859-.438-7.168-2.399C48.028,2.617,39.547.119,30.1,1.274,20.381,2.463,12.681,7.161,7.067,15.04,2.193,21.879.212,29.582,1.283,38.024c1.177,9.281,5.524,16.675,12.825,22.461,2.04,1.617,6.09,3.722,7.073,4.225.147.075.282.172.401.286l11.318,10.9c.643.62,1.658.631,2.315.026l10.886-10.023c.313-.288.718-.448,1.143-.446,87.06.295,254.224.228,340.879.487.891.003,1.782-.029,2.673-.045.198-.088.388-.231.594-.257,15.315-1.89,25.945-16.233,23.175-31.684Z"/>
    <g>
      <path class="cls-1" d="m34.02,61.097c-14.927-.049-27.039-12.211-27-27.111.039-14.888,12.218-27,27.151-27h.125c14.9.067,26.976,12.266,26.917,27.194-.058,14.842-12.216,26.917-27.103,26.917h-.09Z"/>
      <path class="cls-8" d="m34.17,7.986h0,.12c14.349.064,25.978,11.813,25.922,26.189-.056,14.293-11.765,25.922-26.103,25.922h-.087c-14.375-.047-26.04-11.759-26.003-26.109.037-14.337,11.768-26.001,26.151-26.002m0-2c-15.526.001-28.111,12.502-28.151,27.997-.04,15.453,12.517,28.063,27.997,28.114.032,0,.062,0,.094,0,15.444,0,28.042-12.503,28.103-27.914.06-15.477-12.463-28.128-27.913-28.197-.044,0-.086,0-.129,0h0Z"/>
    </g>
    <text class="cls-10" transform="translate(224.924 47.541) rotate(.173)"><tspan x="0" y="0">신호를 받았을 때</tspan></text>
    <g>
      <path class="cls-2" d="m133.116,18.305c17.877,0,57.171,0,75.048,0,2.815,0,4.335,2.426,4.336,6.934.003,8.742.003,17.483,0,26.225-.001,4.509-1.521,6.935-4.336,6.935-35.754,0-92.925-.025-128.679.059-2.308.005-4.351-2.765-4.335-6.91.033-8.797.033-17.595,0-26.392-.015-4.145,2.027-6.926,4.335-6.912,17.877.11,35.754.061,53.631.061Z"/>
      <text class="cls-11" transform="translate(85.53 46.478)"><tspan x="0" y="0">모양 바꾸기</tspan></text>
      <path class="cls-5" d="m197.267,34.454c1.503,0,3.006-.003,4.509.001.951.003,1.744.288,2.197,1.211.47.958.064,1.702-.534,2.425-1.451,1.754-2.859,3.543-4.343,5.268-1.318,1.533-2.389,1.523-3.72-.029-1.519-1.771-2.972-3.598-4.452-5.402-.521-.635-.812-1.313-.452-2.145.374-.865,1.045-1.293,1.954-1.309,1.614-.027,3.228-.008,4.842-.008v-.013Z"/>
    </g>
    <g>
      <path class="cls-4" d="m27.646,34.608h-.141l-4.232,12.492h16.332l-2.189-7.805c-3.859-.251-7.305-2.005-9.77-4.687Z"/>
      <path class="cls-4" d="m40.898,29.902l.36-.915.36-.915,1.763-4.482c1.417-.239,2.502-1.466,2.502-2.95,0-1.654-1.346-3-3-3-1.604,0-2.907,1.268-2.985,2.853l-4.144,1.677-.905.366-.905.366-5.662-5.697c-1.562,2.119-2.496,4.729-2.496,7.563,0,3.959,1.802,7.496,4.628,9.839,1.856,1.538,4.156,2.556,6.678,2.845.482.055.971.091,1.468.091,2.806,0,5.392-.915,7.499-2.449l-5.161-5.194Zm1.026-8.071l.028-.072.076.03-.105.042Zm.959-2.19c.551,0,1,.449,1,1s-.449,1-1,1-1-.449-1-1,.449-1,1-1Zm-3.165,7.797l-.36.915-3.885-3.91.905-.366.905-.366,3.195-1.293c.242.326.547.598.899.804l-1.299,3.302-.36.915Z"/>
    </g>
  </g>
</svg>