<?xml version="1.0" encoding="UTF-8"?>
<svg id="_레이어_1" data-name="레이어 1" xmlns="http://www.w3.org/2000/svg" viewBox="0 0 115 105">
  <defs>
    <style>
      .cls-1 {
        fill: #ad3efb;
      }

      .cls-1, .cls-2 {
        stroke-width: 0px;
      }

      .cls-2 {
        fill: #fff;
      }

      .cls-3 {
        fill: #fefefe;
        font-family: Pretendard-Bold-KSCpc-EUC-H, Pretendard;
        font-size: 26px;
        font-weight: 700;
        letter-spacing: -.025em;
      }
    </style>
  </defs>
  <g>
    <rect class="cls-1" width="115" height="105"/>
    <text class="cls-3" transform="translate(24.769 93.533)"><tspan x="0" y="0">움직임</tspan></text>
  </g>
  <g>
    <path class="cls-2" d="m79.439,30.369l-9.339-7.047c-.922-.696-2.242-.038-2.242,1.117v2.961l-16.319-1.622c-.823-.082-1.538.565-1.538,1.392v8.631c0,.828.714,1.474,1.538,1.392l16.319-1.622v2.961c0,1.155,1.32,1.813,2.242,1.117l9.339-7.047c.742-.56.742-1.674,0-2.234Z"/>
    <path class="cls-2" d="m35.561,50.807l9.339,7.047c.922.696,2.242.038,2.242-1.117v-2.961l16.319,1.622c.823.082,1.538-.565,1.538-1.392v-8.631c0-.828-.714-1.474-1.538-1.392l-16.319,1.622v-2.961c0-1.155-1.32-1.813-2.242-1.117l-9.339,7.047c-.742.56-.742,1.674,0,2.234Z"/>
  </g>
</svg>