<?xml version="1.0" encoding="UTF-8"?>
<svg id="_레이어_1" data-name="레이어 1" xmlns="http://www.w3.org/2000/svg" viewBox="0 0 508.515 339.913">
  <defs>
    <style>
      .cls-1 {
        fill: #8b19db;
      }

      .cls-1, .cls-2, .cls-3, .cls-4, .cls-5, .cls-6, .cls-7, .cls-8, .cls-9, .cls-10 {
        stroke-width: 0px;
      }

      .cls-11, .cls-12 {
        letter-spacing: -.025em;
      }

      .cls-2 {
        fill: #fe7a22;
      }

      .cls-13 {
        letter-spacing: -.031em;
      }

      .cls-3 {
        fill: #f8c435;
      }

      .cls-14, .cls-12, .cls-15, .cls-16 {
        font-family: Pretendard-Bold-KSCpc-EUC-H, Pretendard;
        font-weight: 700;
      }

      .cls-14, .cls-16 {
        fill: #fefefe;
        font-size: 26px;
      }

      .cls-17 {
        fill: #19baea;
        stroke: #1498c0;
      }

      .cls-17, .cls-18, .cls-19 {
        stroke-linecap: round;
        stroke-linejoin: round;
        stroke-width: 2px;
      }

      .cls-4 {
        fill: #fff;
      }

      .cls-5 {
        fill: #6dddfe;
      }

      .cls-6 {
        fill: #1498c0;
      }

      .cls-18 {
        fill: #de5c04;
        stroke: #a14100;
      }

      .cls-20 {
        letter-spacing: -.054em;
      }

      .cls-12, .cls-15 {
        font-size: 22px;
      }

      .cls-7 {
        fill: #bd65fb;
      }

      .cls-19 {
        fill: #ad3efb;
        stroke: #8b19db;
      }

      .cls-8 {
        fill: #fedd81;
      }

      .cls-9 {
        fill: #fe9b00;
      }

      .cls-16 {
        letter-spacing: -.01em;
      }

      .cls-10 {
        fill: #a14100;
      }
    </style>
  </defs>
  <g>
    <g>
      <path class="cls-18" d="m403.975,307.348H52.706l-11.613,11.226-13.016-11.226V56.843l12.441,11.461,12.387-11.471,338.981-.091c16.083,0,29.097-13.806,27.779-30.151-1.175-14.565-13.733-25.591-28.345-25.591L1.622,1.568c-.238-.217-.622-.048-.622.274l.171,337.071h402.804c8.716,0,15.782-7.066,15.782-15.783s-7.066-15.783-15.782-15.783Z"/>
      <path class="cls-10" d="m409.635,28.915c.233,11.599-9.583,22.21-22.59,21.903-11.361-.268-21.522-9.45-21.508-22.104.014-12.581,10.427-22.278,22.629-21.994,11.969.279,21.786,10.209,21.47,22.194Z"/>
      <path class="cls-2" d="m392.002,25.976c1.407,0,2.395-.012,3.384.004.851.014,1.445.399,1.556,1.288.12.962-.563,1.285-1.317,1.519-.079.025-.977.08-1.047.061-3.895-.745-5.166,2.691-6.968,5.688-1.973,3.282-4.638,5.369-8.75,4.954-1.005-.101-1.949-.347-2.123-1.35-.208-1.2,1.021-.942,1.691-1.305,3.006-1.631,3.894-4.763,5.328-7.535-.849-.677-1.708-.269-2.483-.419-.887-.172-1.685-.555-1.601-1.554.067-.795.741-1.257,1.574-1.335.33-.031.676-.081.994-.017,2.34.468,3.589-.727,4.689-2.649,1.419-2.479,3.285-4.62,6.33-5.208,1.965-.38,3.644.13,4.821,1.803.593.843.499,1.736-.279,2.472-.735.695-1.343.452-1.831-.318-.614-.968-1.097-.293-1.572.131-1.022.911-1.408,2.213-2.396,3.771Z"/>
    </g>
    <text class="cls-16" transform="translate(27.015 37.349)"><tspan x="0" y="0">함수 정의하기</tspan></text>
    <g>
      <path class="cls-3" d="m347.16,16.409c-.019-2.311-1.424-3.584-3.714-3.788-1.024-.091-2.059-.045-3.089-.065-.8-.016-1.602-.079-1.818-1.054-.956-4.323-3.974-5.172-7.924-5.16l-144.216.039c-1.724,0-3.441-.053-4.959.989-1.426.98-2.614,2.39-2.425,4.002.201,1.71,2.138.862,3.242,1.062,3.776.686,4.647,1.535,4.651,5.389.009,7.293.007,14.587.001,21.88-.003,4.263-1.371,5.669-5.632,5.818-2.678.094-2.979.684-1.574,2.99,1.549,2.542,3.94,2.917,6.671,2.915l144.99-.026c.515,0,1.03-.015,1.545-.013,2.331.011,4.337-1.203,4.849-3.179.806-3.113,2.747-3.06,5.157-3.034,2.719.03,4.236-1.411,4.257-4.055.065-8.237.056-16.474-.012-24.71Z"/>
      <text class="cls-12" transform="translate(205.454 37.4)"><tspan x="0" y="0">사각형 그리기</tspan></text>
    </g>
    <g>
      <g>
        <g>
          <path class="cls-17" d="m28.03,112.474l.056,194.439,12.38,11.613,12.516-11.613h227.161c7.696,0,13.935-6.239,13.935-13.935h0c0-7.696-6.239-13.935-13.935-13.935H79.48l-11.565,10.387-12.924-10.387V112.465l12.441,11.461,12.387-11.471,187.096-.091c15.329,0,27.871-12.542,27.871-27.871h0c0-15.329-12.542-27.871-27.871-27.871H53.103s-12.543,11.548-12.543,11.548h0s-12.023-10.98-12.023-10.98c-.238-.218-.622-.049-.622.274v54.741c0,.047.011.092.028.135h-.003"/>
          <g>
            <path class="cls-6" d="m287.665,84.537c.233,11.599-9.583,22.21-22.59,21.903-11.361-.268-21.522-9.45-21.508-22.104.014-12.581,10.427-22.278,22.629-21.994,11.969.279,21.786,10.209,21.47,22.194Z"/>
            <path class="cls-5" d="m273.748,86.07c-.095,0-.185.021-.279.028l-4.684-7.075c.647-.892.942-2.055.623-3.302-.356-1.388-1.5-2.504-2.899-2.812-2.553-.562-4.81,1.366-4.81,3.821,0,.859.284,1.646.753,2.292l-4.684,7.075c-.094-.007-.183-.028-.279-.028-2.466,0-4.4,2.277-3.814,4.843.323,1.416,1.474,2.567,2.89,2.89,2.566.586,4.843-1.348,4.843-3.814,0-1.153-.507-2.18-1.3-2.897l4.386-6.625c.358.108.731.183,1.124.183s.766-.076,1.124-.183l4.386,6.625c-1.013.917-1.56,2.338-1.178,3.884.344,1.389,1.482,2.51,2.877,2.828,2.564.583,4.839-1.35,4.839-3.815,0-2.165-1.755-3.919-3.919-3.919Z"/>
          </g>
        </g>
        <g>
          <g>
            <circle class="cls-8" cx="76.034" cy="83.947" r="19.903"/>
            <path class="cls-9" d="m76.034,65.043c10.423,0,18.903,8.48,18.903,18.903s-8.48,18.903-18.903,18.903-18.903-8.48-18.903-18.903,8.48-18.903,18.903-18.903m0-2h0c-11.497,0-20.903,9.407-20.903,20.903s9.406,20.903,20.903,20.903h0c11.497,0,20.903-9.406,20.903-20.903s-9.406-20.903-20.903-20.903h0Z"/>
          </g>
          <text class="cls-12" transform="translate(68.442 91.01)"><tspan x="0" y="0">4</tspan></text>
          <text class="cls-14" transform="translate(111.369 92.295)"><tspan x="0" y="0">번 반복하기 </tspan></text>
        </g>
      </g>
      <g>
        <g>
          <g>
            <path class="cls-19" d="m479.644,112.309H80.319l-12.543,11.548h0l-12.023-10.98c-.238-.218-.622-.049-.622.274v54.841l.171.168,11.328,10.345c.663.605,1.678.603,2.338-.004l10.91-10.045c.212-.195.49-.304.779-.304l398.988-.101c15.329,0,27.871-12.542,27.871-27.871s-12.542-27.871-27.871-27.871Z"/>
            <g>
              <path class="cls-1" d="m456.495,140c.085-12.114,9.79-22.01,22.342-21.937,12.159.071,22.178,9.883,21.961,22.471-.203,11.764-9.754,21.773-22.498,21.598-12.042-.166-21.794-9.762-21.805-22.132Z"/>
              <g>
                <path class="cls-7" d="m490.603,134.53l-5.089-3.84c-.502-.379-1.222-.021-1.222.609v1.614l-8.892-.884c-.449-.045-.838.308-.838.759v4.703c0,.451.389.803.838.759l8.892-.884v1.614c0,.629.719.988,1.222.609l5.089-3.84c.404-.305.404-.912,0-1.217Z"/>
                <path class="cls-7" d="m466.693,145.667l5.089,3.84c.502.379,1.222.021,1.222-.609v-1.614l8.892.884c.449.045.838-.308.838-.759v-4.703c0-.451-.389-.803-.838-.759l-8.892.884v-1.614c0-.629-.719-.988-1.222-.609l-5.089,3.84c-.404.305-.404.912,0,1.217Z"/>
              </g>
            </g>
          </g>
          <text class="cls-16" transform="translate(84.175 148.658)"><tspan x="0" y="0">이동 방향으로</tspan></text>
          <text class="cls-16" transform="translate(304.695 148.658)"><tspan x="0" y="0">만큼 움직이기</tspan></text>
        </g>
        <g>
          <path class="cls-8" d="m258.594,159.982c-10.975,0-19.903-8.929-19.903-19.903s8.929-19.903,19.903-19.903h9.414c10.974,0,19.903,8.929,19.903,19.903s-8.929,19.903-19.903,19.903h-9.414Z"/>
          <path class="cls-9" d="m268.008,121.175c10.423,0,18.903,8.48,18.903,18.903s-8.48,18.903-18.903,18.903h-9.414c-10.423,0-18.903-8.48-18.903-18.903s8.48-18.903,18.903-18.903h9.414m0-2h-9.414c-11.497,0-20.903,9.407-20.903,20.903s9.406,20.903,20.903,20.903h9.414c11.497,0,20.903-9.407,20.903-20.903s-9.406-20.903-20.903-20.903h0Z"/>
        </g>
        <text class="cls-12" transform="translate(249.001 147.14)"><tspan x="0" y="0">90</tspan></text>
      </g>
      <g>
        <g>
          <g>
            <path class="cls-19" d="m402.831,168.213H80.319l-12.543,11.548h0l-12.023-10.98c-.238-.218-.622-.049-.622.274v54.841l.171.168,11.328,10.345c.663.605,1.678.603,2.338-.004l10.91-10.045c.212-.195.49-.304.779-.304l322.175-.101c15.329,0,27.871-12.542,27.871-27.871s-12.542-27.871-27.871-27.871Z"/>
            <g>
              <path class="cls-1" d="m379.681,195.904c.085-12.114,9.79-22.01,22.342-21.937,12.159.071,22.178,9.883,21.961,22.471-.203,11.764-9.754,21.773-22.498,21.598-12.042-.166-21.794-9.762-21.805-22.132Z"/>
              <g>
                <path class="cls-7" d="m413.789,190.434l-5.089-3.84c-.502-.379-1.222-.021-1.222.609v1.614l-8.892-.884c-.449-.045-.838.308-.838.759v4.703c0,.451.389.803.838.759l8.892-.884v1.614c0,.629.719.988,1.222.609l5.089-3.84c.404-.305.404-.912,0-1.217Z"/>
                <path class="cls-7" d="m389.879,201.571l5.089,3.84c.502.379,1.222.021,1.222-.609v-1.614l8.892.884c.449.045.838-.308.838-.759v-4.703c0-.451-.389-.803-.838-.759l-8.892.884v-1.614c0-.629-.719-.988-1.222-.609l-5.089,3.84c-.404.305-.404.912,0,1.217Z"/>
              </g>
            </g>
          </g>
          <text class="cls-16" transform="translate(84.175 204.562)"><tspan x="0" y="0">방향을</tspan></text>
          <text class="cls-16" transform="translate(227.881 204.562)"><tspan x="0" y="0">만큼 회전하기</tspan></text>
        </g>
        <g>
          <path class="cls-8" d="m184.235,215.886c-10.975,0-19.903-8.929-19.903-19.903s8.929-19.903,19.903-19.903h9.414c10.975,0,19.903,8.929,19.903,19.903s-8.929,19.903-19.903,19.903h-9.414Z"/>
          <path class="cls-9" d="m193.649,177.08c10.423,0,18.903,8.48,18.903,18.903s-8.48,18.903-18.903,18.903h-9.414c-10.423,0-18.903-8.48-18.903-18.903s8.48-18.903,18.903-18.903h9.414m0-2h-9.414c-11.497,0-20.903,9.406-20.903,20.903h0c0,11.497,9.406,20.903,20.903,20.903h9.414c11.497,0,20.903-9.406,20.903-20.903h0c0-11.497-9.406-20.903-20.903-20.903h0Z"/>
        </g>
        <text class="cls-12" transform="translate(172.644 203.045)"><tspan x="0" y="0">90º</tspan></text>
      </g>
    </g>
    <g>
      <g>
        <g>
          <path class="cls-8" d="m103.491,271.726c-10.975,0-19.903-8.928-19.903-19.903s8.929-19.903,19.903-19.903h27.851c10.975,0,19.903,8.928,19.903,19.903s-8.928,19.903-19.903,19.903h-27.851Z"/>
          <path class="cls-9" d="m131.342,232.919c10.423,0,18.903,8.48,18.903,18.903s-8.48,18.903-18.903,18.903h-27.85c-10.423,0-18.903-8.48-18.903-18.903s8.48-18.903,18.903-18.903h27.85m0-2h-27.85c-11.497,0-20.903,9.406-20.903,20.903s9.406,20.903,20.903,20.903h27.85c11.497,0,20.903-9.407,20.903-20.903s-9.406-20.903-20.903-20.903h0Z"/>
        </g>
        <text class="cls-15" transform="translate(101.028 258.885)"><tspan class="cls-20" x="0" y="0">0</tspan><tspan class="cls-13" x="13.34" y="0">.</tspan><tspan class="cls-11" x="18.87" y="0">5</tspan></text>
        <text class="cls-14" transform="translate(166.986 260.169)"><tspan x="0" y="0">초 기다리기</tspan></text>
      </g>
      <g>
        <g>
          <path class="cls-17" d="m302.116,224.217H80.32s0,0,0,0l-12.543,11.548s0,0,0,0l-12.023-10.98c-.238-.218-.622-.049-.622.274v54.741c0,.047.011.092.028.135h-.003l.004.004c.02.048.048.093.087.13h.056l11.328,10.345c.663.605,1.678.603,2.338-.005l10.91-10.045c.212-.195.49-.304.779-.304l221.46-.101c15.329,0,27.871-12.542,27.871-27.871h0c0-15.329-12.542-27.871-27.871-27.871Z"/>
          <g>
            <path class="cls-6" d="m322.865,252.132c.233,11.599-9.583,22.21-22.59,21.903-11.361-.268-21.522-9.45-21.508-22.104.014-12.581,10.427-22.278,22.629-21.994,11.969.279,21.786,10.209,21.47,22.194Z"/>
            <path class="cls-5" d="m308.948,253.664c-.095,0-.185.021-.279.028l-4.684-7.075c.468-.646.753-1.433.753-2.292,0-2.165-1.755-3.919-3.919-3.919s-3.919,1.755-3.919,3.919c0,.859.284,1.646.753,2.292l-4.684,7.075c-.094-.007-.183-.028-.279-.028-2.165,0-3.919,1.755-3.919,3.919s1.755,3.919,3.919,3.919,3.919-1.755,3.919-3.919c0-1.153-.507-2.18-1.3-2.897l4.386-6.625c.358.108.731.183,1.124.183s.766-.076,1.124-.183l4.386,6.625c-.793.717-1.3,1.744-1.3,2.897,0,2.165,1.755,3.919,3.919,3.919s3.919-1.755,3.919-3.919-1.755-3.919-3.919-3.919Z"/>
          </g>
        </g>
        <g>
          <g>
            <path class="cls-8" d="m103.491,271.726c-10.975,0-19.903-8.928-19.903-19.903s8.929-19.903,19.903-19.903h14.752c10.975,0,19.903,8.929,19.903,19.903s-8.929,19.903-19.903,19.903h-14.752Z"/>
            <path class="cls-9" d="m118.244,232.919c10.423,0,18.903,8.48,18.903,18.903s-8.48,18.903-18.903,18.903h-14.753c-10.423,0-18.903-8.48-18.903-18.903s8.48-18.903,18.903-18.903h14.753m0-2h-14.753c-11.497,0-20.903,9.406-20.903,20.903s9.406,20.903,20.903,20.903h14.753c11.497,0,20.903-9.407,20.903-20.903s-9.406-20.903-20.903-20.903h0Z"/>
          </g>
          <text class="cls-15" transform="translate(94.254 258.885)"><tspan class="cls-20" x="0" y="0">0</tspan><tspan class="cls-13" x="13.34" y="0">.</tspan><tspan class="cls-11" x="18.87" y="0">5</tspan></text>
          <text class="cls-14" transform="translate(149.696 260.169)"><tspan x="0" y="0">초 기다리기</tspan></text>
        </g>
      </g>
    </g>
  </g>
  <rect class="cls-4" x="55.131" y="63.043" width="41.806" height="41.806" rx="20.903" ry="20.903"/>
  <rect class="cls-4" x="237.69" y="119.176" width="51.221" height="41.806" rx="20.903" ry="20.903"/>
  <rect class="cls-4" x="163.332" y="175.08" width="51.221" height="41.806" rx="20.903" ry="20.903"/>
</svg>