<?xml version="1.0" encoding="UTF-8"?>
<svg id="_레이어_1" data-name="레이어 1" xmlns="http://www.w3.org/2000/svg" viewBox="0 0 1415.586 1106.495">
  <defs>
    <style>
      .cls-1 {
        stroke: #ff7f00;
      }

      .cls-1, .cls-2, .cls-3, .cls-4 {
        stroke-linecap: round;
        stroke-linejoin: round;
        stroke-width: 2px;
      }

      .cls-1, .cls-5 {
        fill: #f4af18;
      }

      .cls-6, .cls-7, .cls-8, .cls-9, .cls-10, .cls-11, .cls-12, .cls-13, .cls-14, .cls-15, .cls-16, .cls-17, .cls-18, .cls-19, .cls-20, .cls-21, .cls-22, .cls-23, .cls-5, .cls-24, .cls-25, .cls-26, .cls-27, .cls-28 {
        stroke-width: 0px;
      }

      .cls-6, .cls-29, .cls-30, .cls-31, .cls-32 {
        fill: #fefefe;
      }

      .cls-7 {
        fill: #009400;
      }

      .cls-8 {
        fill: #dc47d7;
      }

      .cls-9 {
        fill: #b819b3;
      }

      .cls-10 {
        fill: #c72042;
      }

      .cls-33, .cls-29, .cls-30, .cls-34, .cls-35, .cls-36, .cls-31, .cls-37, .cls-32, .cls-38 {
        font-family: Pretendard-Bold-KSCpc-EUC-H, Pretendard;
        font-weight: 700;
      }

      .cls-33, .cls-17, .cls-35, .cls-38 {
        fill: #fff;
      }

      .cls-33, .cls-30, .cls-34, .cls-35, .cls-36, .cls-37, .cls-38 {
        font-size: 22px;
      }

      .cls-33, .cls-36 {
        letter-spacing: -.025em;
      }

      .cls-11 {
        fill: #fefdfe;
      }

      .cls-12 {
        fill: #c62042;
      }

      .cls-2 {
        fill: #fe3a61;
        stroke: #c62142;
      }

      .cls-39 {
        letter-spacing: -.042em;
      }

      .cls-13 {
        fill: #ffde82;
      }

      .cls-14 {
        fill: #1b3ad8;
      }

      .cls-29, .cls-31, .cls-32 {
        font-size: 26px;
      }

      .cls-15 {
        fill: #b719b2;
      }

      .cls-16 {
        fill: #ff7f00;
      }

      .cls-3 {
        fill: #19baea;
        stroke: #1498c0;
      }

      .cls-40 {
        letter-spacing: -.01em;
      }

      .cls-18 {
        fill: #6dddfe;
      }

      .cls-19 {
        fill: #1498c0;
      }

      .cls-20, .cls-4 {
        fill: #dd47d8;
      }

      .cls-34, .cls-35, .cls-41 {
        letter-spacing: -.01em;
      }

      .cls-21 {
        fill: #4562f5;
      }

      .cls-4 {
        stroke: #b819b3;
      }

      .cls-22 {
        fill: #f577f1;
      }

      .cls-23 {
        fill: #fedd81;
      }

      .cls-24 {
        fill: #f677f2;
      }

      .cls-31 {
        letter-spacing: -.025em;
      }

      .cls-25 {
        fill: #fe9b00;
      }

      .cls-32 {
        letter-spacing: -.01em;
      }

      .cls-26 {
        fill: #f2f2f2;
      }

      .cls-42 {
        letter-spacing: -.042em;
      }

      .cls-27 {
        fill: #fe5576;
      }

      .cls-28 {
        fill: #00b300;
      }
    </style>
  </defs>
  <g>
    <g>
      <g>
        <path class="cls-28" d="m21.639,65.056s-5.2-2.719-7.532-4.568c-7.301-5.786-11.647-13.18-12.825-22.461C.211,29.585,2.193,21.881,7.066,15.042,12.681,7.163,20.381,2.466,30.1,1.277c9.447-1.156,17.928,1.343,25.093,7.428,2.309,1.961,4.441,2.392,7.168,2.399,81.918.211,208.299.465,290.217.713,13.081.04,24.448,9.349,26.741,22.14,2.77,15.451-7.86,29.794-23.175,31.684-.205.025-.396.168-.594.256-.891.016-1.782.048-2.673.045-87.321-.261-217.679-.521-304.556-.82-.618-.002-1.189.276-1.6.738-3.002,3.368-7.553,6.555-10.8,9.874-.791.809-1.254.903-2.094.031-3.131-3.25-7.215-6.419-10.402-9.615-.505-.507-1.787-1.095-1.787-1.095Z"/>
        <path class="cls-7" d="m34.858,77.381h-.007c-.761-.003-1.331-.494-1.743-.922-1.629-1.691-3.568-3.401-5.442-5.054-1.684-1.485-3.426-3.021-4.947-4.548-.256-.257-1.045-.685-1.497-.893l-.046-.022c-.216-.113-5.311-2.784-7.69-4.67C5.915,55.272,1.475,47.493.29,38.153c-1.095-8.632.911-16.603,5.962-23.691C12.092,6.266,20.075,1.496,29.978.284c9.769-1.195,18.471,1.381,25.862,7.659,2.119,1.799,3.996,2.155,6.523,2.161,31.289.081,69.063.167,108.37.258,63.604.146,131.218.302,181.847.455,13.686.042,25.345,9.7,27.723,22.964,1.389,7.748-.392,15.468-5.015,21.738-4.586,6.22-11.341,10.167-19.021,11.115.029,0-.012.026-.054.048-.084.046-.169.091-.255.129l-.186.083-1.036.022c-.621.014-1.239.03-1.861.027-36.774-.11-81.182-.219-126.76-.332-62.686-.155-127.507-.315-177.797-.488h-.003c-.314,0-.616.143-.848.403-1.688,1.895-3.855,3.735-5.95,5.514-1.692,1.438-3.442,2.924-4.88,4.394-.458.469-1.028.948-1.779.948Zm-12.776-13.223c.291.135,1.47.701,2.053,1.287,1.477,1.481,3.194,2.995,4.854,4.46,1.904,1.68,3.874,3.417,5.56,5.167.149.155.249.236.309.278.064-.045.174-.135.35-.314,1.502-1.536,3.289-3.053,5.016-4.52,2.043-1.735,4.156-3.529,5.752-5.321.608-.682,1.461-1.072,2.341-1.072h.009c50.29.173,115.11.333,177.795.488,45.579.113,89.986.222,126.761.332.608-.002,1.206-.013,1.808-.027l.611-.013c.179-.096.417-.216.723-.254,7.129-.879,13.4-4.543,17.657-10.317,4.293-5.823,5.947-12.997,4.656-20.198-2.207-12.312-13.041-21.277-25.76-21.316-50.629-.153-118.242-.309-181.846-.455-39.307-.09-77.082-.177-108.371-.258-2.834-.007-5.248-.458-7.813-2.637-6.947-5.901-15.131-8.324-24.324-7.198C20.898,3.41,13.382,7.903,7.881,15.622c-4.75,6.666-6.636,14.162-5.606,22.278,1.132,8.928,5.206,16.06,12.454,21.804,2.159,1.711,6.989,4.262,7.353,4.454Z"/>
      </g>
      <text class="cls-29" transform="translate(73.781 46.254) rotate(.173)"><tspan x="0" y="0">시작하기 버튼을 클릭했을 때</tspan></text>
      <g>
        <g>
          <path class="cls-6" d="m34.019,61.1c-14.926-.049-27.039-12.211-27-27.111.039-14.888,12.218-27,27.15-27h.125c14.9.067,26.976,12.266,26.917,27.193-.058,14.843-12.216,26.918-27.103,26.918h-.09Z"/>
          <path class="cls-26" d="m34.17,7.988h0,.12c14.349.064,25.978,11.813,25.922,26.189-.056,14.293-11.765,25.922-26.102,25.922h-.087c-14.375-.047-26.04-11.759-26.003-26.109.037-14.337,11.768-26.001,26.151-26.002m0-2c-15.526,0-28.111,12.502-28.151,27.997-.04,15.453,12.517,28.063,27.997,28.114.032,0,.062,0,.094,0,15.444,0,28.042-12.503,28.102-27.914.06-15.477-12.463-28.128-27.913-28.197-.044,0-.086,0-.129,0h0Z"/>
        </g>
        <path class="cls-28" d="m26.49,33.989c0-2.979-.003-5.959.002-8.938.001-.871-.04-1.782.9-2.272.89-.464,1.669-.113,2.434.376,4.656,2.978,9.324,5.939,13.977,8.921,2.063,1.322,2.073,2.615.042,3.913-4.656,2.976-9.325,5.932-13.976,8.916-.771.494-1.55.863-2.428.428-.92-.456-.963-1.342-.958-2.244.016-3.033.006-6.067.006-9.101Z"/>
      </g>
    </g>
    <g>
      <g>
        <path class="cls-4" d="m433.609,65.088H47.101s0,0,0,0l-12.543,11.548s0,0,0,0l-12.023-10.98c-.238-.218-.622-.049-.622.274v54.741c0,.047.011.092.028.135h-.003l.004.004c.02.048.048.093.087.13h.056l11.328,10.345c.663.605,1.678.603,2.338-.005l10.91-10.045c.212-.195.49-.304.779-.304l386.172-.101c15.329,0,27.871-12.542,27.871-27.871h0c0-15.329-12.542-27.871-27.871-27.871Z"/>
        <g>
          <path class="cls-15" d="m454.558,93.003c.233,11.599-9.583,22.21-22.59,21.903-11.361-.268-21.522-9.45-21.508-22.104.014-12.581,10.427-22.278,22.629-21.994,11.969.279,21.786,10.209,21.47,22.194Z"/>
          <path class="cls-24" d="m432.826,82.84c1.421.066,3.283.498,4.796,1.905,2.464,2.29,2.614,5.317.342,7.812-.823.903-1.728,1.735-2.634,2.558-.847.769-1.497,1.641-1.723,2.78-.285,1.438-1.202,2.017-2.552,1.624-1.294-.377-1.297-1.572-1.154-2.621.299-2.203,1.86-3.593,3.427-4.952.334-.29.717-.537.999-.87,1.487-1.758,1.36-3.4-.321-4.537-1.47-.995-3.897-.403-4.808,1.208-.326.577-.531,1.221-.815,1.823-.524,1.11-1.42,1.65-2.58,1.204-1.144-.44-1.405-1.351-1.1-2.592.769-3.131,3.806-5.339,8.123-5.343Z"/>
          <path class="cls-22" d="m431.8,105.554c-1.271-.012-2.113-.925-2.059-2.258.054-1.311.741-2.044,2.063-2.095,1.32-.051,2.369,1,2.32,2.267-.048,1.226-1.02,2.098-2.324,2.086Z"/>
        </g>
        <g>
          <g>
            <path class="cls-23" d="m223.467,112.143c-10.975,0-19.903-8.928-19.903-19.903s8.928-19.903,19.903-19.903,19.903,8.928,19.903,19.903-8.929,19.903-19.903,19.903Z"/>
            <path class="cls-25" d="m223.467,73.336c10.423,0,18.903,8.48,18.903,18.903s-8.48,18.903-18.903,18.903-18.903-8.48-18.903-18.903,8.48-18.903,18.903-18.903m0-2h0c-11.497,0-20.903,9.406-20.903,20.903s9.406,20.903,20.903,20.903h0c11.497,0,20.903-9.406,20.903-20.903s-9.406-20.903-20.903-20.903h0Z"/>
          </g>
          <text class="cls-36" transform="translate(216.794 99.302)"><tspan x="0" y="0">0</tspan></text>
        </g>
      </g>
      <g>
        <path class="cls-9" d="m50.818,79.228v27.721c0,3.45,2.808,6.244,6.257,6.235,25.312-.061,24.186-.046,49.512-.044,3.444,0,6.242-2.791,6.242-6.235v-27.63c0-3.441-2.787-6.231-6.228-6.235l-49.541-.046c-3.447-.004-6.243,2.789-6.243,6.235Z"/>
        <text class="cls-30" transform="translate(61.197 100.927)"><tspan x="0" y="0">ok</tspan></text>
        <path class="cls-11" d="m99.25,89.194c1.503,0,3.006-.003,4.509.001.951.003,1.744.288,2.197,1.211.47.958.064,1.702-.534,2.425-1.451,1.754-2.859,3.543-4.343,5.268-1.318,1.533-2.389,1.523-3.72-.029-1.519-1.771-2.972-3.598-4.452-5.402-.521-.635-.812-1.313-.452-2.145.374-.865,1.045-1.293,1.954-1.309,1.614-.027,3.228-.008,4.842-.008v-.013Z"/>
      </g>
      <text class="cls-32" transform="translate(128.198 101.436)"><tspan x="0" y="0">을(를)</tspan></text>
      <text class="cls-32" transform="translate(258.391 101.436)"><tspan x="0" y="0">(으)로 정하기</tspan></text>
    </g>
    <g>
      <g>
        <path class="cls-2" d="m693.242,120.928H47.101l-12.543,11.141-12.024-10.593c-.238-.21-.622-.047-.622.265v52.811c0,.098.042.191.115.259l12.53,11.31,12.351-11.415h646.75c16.516,0,27.454-12.1,27.454-26.888h0c0-14.789-12.542-26.888-27.871-26.888Z"/>
        <g>
          <path class="cls-12" d="m668.956,148.322c.085-12.114,9.79-22.01,22.342-21.937,12.159.071,22.178,9.883,21.961,22.471-.203,11.764-9.754,21.773-22.498,21.598-12.042-.166-21.794-9.762-21.805-22.132Z"/>
          <path class="cls-27" d="m691.856,149.759c2.854.024,5.612,2.731,5.624,5.52.014,3.13-2.722,5.849-5.866,5.829-3.016-.018-5.566-2.746-5.533-5.919.031-3.007,2.636-5.457,5.775-5.43Z"/>
          <rect class="cls-27" x="694.244" y="140.144" width="9.448" height="9.448" transform="translate(307.16 -451.814) rotate(45)"/>
          <polygon class="cls-27" points="690.087 147.823 690.087 141.39 684.516 138.174 678.945 141.39 678.945 147.823 684.516 151.039 690.087 147.823"/>
        </g>
      </g>
      <text class="cls-31" transform="translate(330.008 156.382)"><tspan x="0" y="0">을(를)</tspan></text>
      <text class="cls-31" transform="translate(467.415 156.382)"><tspan x="0" y="0">초 동안</tspan></text>
      <g>
        <g>
          <path class="cls-23" d="m68.868,167.938c-10.975,0-19.903-8.929-19.903-19.903s8.929-19.903,19.903-19.903h226.738c10.975,0,19.903,8.929,19.903,19.903s-8.929,19.903-19.903,19.903H68.868Z"/>
          <path class="cls-25" d="m295.606,129.132c10.423,0,18.903,8.48,18.903,18.903s-8.48,18.903-18.903,18.903H68.868c-10.423,0-18.903-8.48-18.903-18.903s8.48-18.903,18.903-18.903h226.738m0-2H68.868c-11.497,0-20.903,9.406-20.903,20.903s9.406,20.903,20.903,20.903h226.738c11.497,0,20.903-9.406,20.903-20.903s-9.406-20.903-20.903-20.903h0Z"/>
        </g>
        <text class="cls-34" transform="translate(63.405 155.098)"><tspan x="0" y="0">구구단 방에 온 것을 환영해!</tspan></text>
      </g>
      <g>
        <rect class="cls-10" x="558.343" y="128.937" width="95.645" height="38.968" rx="3.871" ry="3.871"/>
        <text class="cls-33" transform="translate(568.868 155.484)"><tspan x="0" y="0">말하기</tspan></text>
        <path class="cls-11" d="m637.488,143.743c1.503,0,3.006-.003,4.509.001.951.003,1.744.288,2.197,1.211.47.958.064,1.702-.534,2.425-1.451,1.754-2.859,3.543-4.343,5.268-1.318,1.533-2.389,1.523-3.72-.029-1.519-1.771-2.972-3.598-4.452-5.402-.521-.635-.812-1.313-.452-2.145.374-.865,1.045-1.293,1.954-1.309,1.614-.027,3.228-.008,4.842-.008v-.013Z"/>
      </g>
      <g>
        <path class="cls-2" d="m852.383,174.816H47.101l-12.543,11.141-12.024-10.593c-.238-.21-.622-.047-.622.265v52.811c0,.098.042.191.115.259l12.53,11.31,12.351-11.415h805.891c16.516,0,27.454-12.1,27.454-26.888h0c0-14.789-12.542-26.888-27.871-26.888Z"/>
        <g>
          <path class="cls-12" d="m828.097,202.21c.085-12.114,9.79-22.01,22.342-21.937,12.159.071,22.178,9.883,21.961,22.471-.203,11.764-9.754,21.773-22.498,21.598-12.042-.166-21.794-9.762-21.805-22.132Z"/>
          <path class="cls-27" d="m850.997,203.648c2.854.024,5.612,2.731,5.624,5.52.014,3.13-2.722,5.849-5.866,5.829-3.016-.018-5.566-2.746-5.533-5.919.031-3.007,2.636-5.457,5.775-5.43Z"/>
          <rect class="cls-27" x="853.385" y="194.032" width="9.448" height="9.448" transform="translate(391.876 -548.56) rotate(45)"/>
          <polygon class="cls-27" points="849.228 201.711 849.228 195.278 843.657 192.062 838.087 195.278 838.087 201.711 843.657 204.927 849.228 201.711"/>
        </g>
      </g>
      <text class="cls-31" transform="translate(489.149 210.27)"><tspan x="0" y="0">을(를)</tspan></text>
      <text class="cls-31" transform="translate(626.556 210.27)"><tspan x="0" y="0">초 동안</tspan></text>
      <g>
        <rect class="cls-10" x="717.484" y="182.825" width="95.645" height="38.968" rx="3.871" ry="3.871"/>
        <text class="cls-33" transform="translate(728.009 209.372)"><tspan x="0" y="0">말하기</tspan></text>
        <path class="cls-11" d="m796.629,197.631c1.503,0,3.006-.003,4.509.001.951.003,1.744.288,2.197,1.211.47.958.064,1.702-.534,2.425-1.451,1.754-2.859,3.543-4.343,5.268-1.318,1.533-2.389,1.523-3.72-.029-1.519-1.771-2.972-3.598-4.452-5.402-.521-.635-.812-1.313-.452-2.145.374-.865,1.045-1.293,1.954-1.309,1.614-.027,3.228-.008,4.842-.008v-.013Z"/>
      </g>
      <g>
        <g>
          <circle class="cls-23" cx="429.242" cy="148.035" r="19.903"/>
          <path class="cls-25" d="m429.242,129.132c10.423,0,18.903,8.48,18.903,18.903s-8.48,18.903-18.903,18.903-18.903-8.48-18.903-18.903,8.48-18.903,18.903-18.903m0-2h0c-11.497,0-20.903,9.406-20.903,20.903h0c0,11.497,9.406,20.903,20.903,20.903h0c11.497,0,20.903-9.406,20.903-20.903h0c0-11.497-9.406-20.903-20.903-20.903h0Z"/>
        </g>
        <text class="cls-36" transform="translate(422.537 155.098)"><tspan x="0" y="0">3</tspan></text>
      </g>
      <g>
        <g>
          <path class="cls-23" d="m68.868,222.063c-10.975,0-19.903-8.928-19.903-19.903s8.929-19.903,19.903-19.903h384.22c10.975,0,19.903,8.928,19.903,19.903s-8.928,19.903-19.903,19.903H68.868Z"/>
          <path class="cls-25" d="m453.087,183.257c10.423,0,18.903,8.48,18.903,18.903s-8.48,18.903-18.903,18.903H68.868c-10.423,0-18.903-8.48-18.903-18.903s8.48-18.903,18.903-18.903h384.22m0-2H68.868c-11.497,0-20.903,9.406-20.903,20.903s9.406,20.903,20.903,20.903h384.22c11.497,0,20.903-9.406,20.903-20.903s-9.406-20.903-20.903-20.903h0Z"/>
        </g>
        <text class="cls-37" transform="translate(63.405 209.223)"><tspan class="cls-41" x="0" y="0">문제를 3개 이상 맞춰야 이 방을 탈출할 수 있어</tspan><tspan class="cls-39" x="390.919" y="0">.</tspan></text>
      </g>
      <g>
        <g>
          <path class="cls-23" d="m588.383,222.063c-10.975,0-19.903-8.928-19.903-19.903s8.929-19.903,19.903-19.903,19.903,8.928,19.903,19.903-8.929,19.903-19.903,19.903Z"/>
          <path class="cls-25" d="m588.383,183.257c10.423,0,18.903,8.48,18.903,18.903s-8.48,18.903-18.903,18.903-18.903-8.48-18.903-18.903,8.48-18.903,18.903-18.903m0-2h0c-11.497,0-20.903,9.406-20.903,20.903s9.406,20.903,20.903,20.903h0c11.497,0,20.903-9.406,20.903-20.903s-9.406-20.903-20.903-20.903h0Z"/>
        </g>
        <text class="cls-36" transform="translate(581.678 209.223)"><tspan x="0" y="0">3</tspan></text>
      </g>
    </g>
    <g>
      <g>
        <path class="cls-1" d="m279.035,228.662H47.101l-12.543,11.548h0l-12.023-10.98c-.238-.218-.622-.049-.622.274v54.841l.171.168,11.328,10.345c.663.605,1.678.603,2.338-.004l10.91-10.045c.212-.195.49-.304.779-.304l231.597-.101c15.329,0,27.871-12.542,27.871-27.871s-12.542-27.871-27.871-27.871Z"/>
        <g>
          <path class="cls-16" d="m299.984,256.577c.233,11.599-9.583,22.21-22.59,21.903-11.361-.268-21.522-9.45-21.508-22.104.014-12.581,10.427-22.278,22.629-21.994,11.969.279,21.786,10.209,21.47,22.194Z"/>
          <g>
            <rect class="cls-13" x="265.358" y="243.851" width="25.161" height="25.161" rx="2.274" ry="2.274"/>
            <g>
              <path class="cls-16" d="m272.27,253.314h-2.11c-.21,0-.38-.17-.38-.38v-1.158c0-.21.17-.38.38-.38h2.11c.21,0,.38-.17.38-.38v-2.11c0-.21.17-.38.38-.38h1.158c.21,0,.38.17.38.38v2.11c0,.21.17.38.38.38h2.11c.21,0,.38.17.38.38v1.158c0,.21-.17.38-.38.38h-2.11c-.21,0-.38.17-.38.38v2.11c0,.21-.17.38-.38.38h-1.158c-.21,0-.38-.17-.38-.38v-2.11c0-.21-.17-.38-.38-.38Z"/>
              <path class="cls-16" d="m271.984,260.84l-1.492-1.492c-.148-.148-.148-.389,0-.538l.819-.819c.148-.148.389-.148.538,0l1.492,1.492c.148.148.389.148.538,0l1.492-1.492c.148-.148.389-.148.538,0l.819.819c.148.148.148.389,0,.538l-1.492,1.492c-.148.148-.148.389,0,.538l1.492,1.492c.148.148.148.389,0,.538l-.819.819c-.148.148-.389.148-.538,0l-1.492-1.492c-.148-.148-.389-.148-.538,0l-1.492,1.492c-.148.148-.389.148-.538,0l-.819-.819c-.148-.148-.148-.389,0-.538l1.492-1.492c.148-.148.148-.389,0-.538Z"/>
              <path class="cls-16" d="m285.717,253.32h-5.359c-.21,0-.38-.17-.38-.38v-1.17c0-.21.17-.38.38-.38h5.359c.21,0,.38.17.38.38v1.17c0,.21-.17.38-.38.38Z"/>
              <g>
                <path class="cls-16" d="m285.717,260.33h-5.359c-.21,0-.38-.17-.38-.38v-1.17c0-.21.17-.38.38-.38h5.359c.21,0,.38.17.38.38v1.17c0,.21-.17.38-.38.38Z"/>
                <path class="cls-16" d="m285.717,263.819h-5.359c-.21,0-.38-.17-.38-.38v-1.17c0-.21.17-.38.38-.38h5.359c.21,0,.38.17.38.38v1.17c0,.21-.17.38-.38.38Z"/>
              </g>
            </g>
          </g>
        </g>
      </g>
      <g>
        <path class="cls-16" d="m130.913,242.801v27.721c0,3.45,2.808,6.244,6.257,6.235,25.312-.061,72.917-.046,98.242-.044,3.444,0,6.242-2.791,6.242-6.235v-27.63c0-3.441-2.787-6.231-6.228-6.235l-98.271-.046c-3.447-.004-6.243,2.789-6.243,6.235Z"/>
        <text class="cls-30" transform="translate(141.293 264.5)"><tspan x="0" y="0">시작하기</tspan></text>
        <path class="cls-11" d="m228.076,252.768c1.503,0,3.006-.003,4.509.001.951.003,1.744.288,2.197,1.211.47.958.064,1.702-.534,2.425-1.451,1.754-2.859,3.543-4.343,5.268-1.318,1.533-2.389,1.523-3.72-.029-1.519-1.771-2.972-3.598-4.452-5.402-.521-.635-.812-1.313-.452-2.145.374-.865,1.045-1.293,1.954-1.309,1.614-.027,3.228-.008,4.842-.008v-.013Z"/>
      </g>
      <text class="cls-32" transform="translate(50.956 265.01)"><tspan x="0" y="0">초시계</tspan></text>
    </g>
    <path class="cls-3" d="m800.815,837.119c-1.175-14.565-13.733-25.591-28.345-25.591H101.589l-12.543,11.548-12.801-11.616v-250.139l12.441,11.461,12.387-11.471,671.963-.091c16.083,0,29.097-13.806,27.779-30.151-1.175-14.565-13.733-25.591-28.345-25.591H74.357l-12.543,11.548-12.023-10.98c-.238-.217-.622-.048-.622.274l.171,446.606,12.379,11.613,12.516-11.613h710.89c8.716,0,15.782-7.066,15.782-15.783s-7.066-15.783-15.782-15.783H101.397l-12.05,11.226-13.102-11.226v-53.9l12.597,11.372,12.387-11.471,671.807-.091c16.083,0,29.097-13.806,27.779-30.151Z"/>
    <g>
      <path class="cls-19" d="m790.785,533.393c.233,11.599-9.583,22.21-22.59,21.903-11.361-.268-21.522-9.45-21.508-22.104.014-12.581,10.427-22.278,22.629-21.994,11.969.279,21.786,10.209,21.47,22.194Z"/>
      <path class="cls-18" d="m776.868,534.925c-.095,0-.185.021-.279.028l-4.684-7.075c.647-.892.942-2.055.623-3.302-.356-1.388-1.5-2.504-2.899-2.812-2.553-.562-4.81,1.366-4.81,3.821,0,.859.284,1.646.753,2.292l-4.684,7.075c-.094-.007-.183-.028-.279-.028-2.466,0-4.4,2.277-3.814,4.843.323,1.416,1.474,2.567,2.89,2.89,2.566.586,4.843-1.348,4.843-3.814,0-1.153-.507-2.18-1.3-2.897l4.386-6.625c.358.108.731.183,1.124.183s.766-.076,1.124-.183l4.386,6.625c-1.013.917-1.56,2.338-1.178,3.884.344,1.389,1.482,2.51,2.877,2.828,2.564.583,4.839-1.35,4.839-3.815,0-2.165-1.755-3.919-3.919-3.919Z"/>
      <text class="cls-29" transform="translate(641.719 541.149)"><tspan x="0" y="0">(이)라면</tspan></text>
      <text class="cls-29" transform="translate(79.21 541.149)"><tspan x="0" y="0">만일</tspan></text>
      <g>
        <polygon class="cls-21" points="159.419 553.15 143.892 533.248 159.419 513.344 605.975 513.344 621.502 533.248 605.975 553.15 159.419 553.15"/>
        <path class="cls-14" d="m605.487,514.344l14.746,18.903-14.746,18.903H159.907l-14.746-18.903,14.746-18.903h445.581m.976-2H158.93l-16.306,20.903,16.306,20.903h447.534l16.306-20.903-16.306-20.903h0Z"/>
      </g>
      <rect class="cls-14" x="493.512" y="513.441" width="30.968" height="39.613" rx="3.355" ry="3.355"/>
      <g>
        <g>
          <path class="cls-5" d="m178.72,553.15c-10.975,0-19.903-8.928-19.903-19.903s8.929-19.903,19.903-19.903h279.047c10.975,0,19.903,8.929,19.903,19.903s-8.929,19.903-19.903,19.903H178.72Z"/>
          <path class="cls-16" d="m457.768,514.344c10.423,0,18.903,8.48,18.903,18.903s-8.48,18.903-18.903,18.903H178.721c-10.423,0-18.903-8.48-18.903-18.903s8.48-18.903,18.903-18.903h279.047m0-2H178.721c-11.497,0-20.903,9.406-20.903,20.903h0c0,11.497,9.406,20.903,20.903,20.903h279.047c11.497,0,20.903-9.406,20.903-20.903h0c0-11.497-9.406-20.903-20.903-20.903h0Z"/>
        </g>
        <g>
          <g>
            <path class="cls-20" d="m191.083,553.15c-10.975,0-19.903-8.928-19.903-19.903s8.929-19.903,19.903-19.903h79.62c10.975,0,19.903,8.929,19.903,19.903s-8.929,19.903-19.903,19.903h-79.62Z"/>
            <path class="cls-9" d="m270.703,514.344c10.423,0,18.903,8.48,18.903,18.903s-8.48,18.903-18.903,18.903h-79.62c-10.423,0-18.903-8.48-18.903-18.903s8.48-18.903,18.903-18.903h79.62m0-2h-79.62c-11.497,0-20.903,9.406-20.903,20.903h0c0,11.497,9.406,20.903,20.903,20.903h79.62c11.497,0,20.903-9.406,20.903-20.903h0c0-11.497-9.406-20.903-20.903-20.903h0Z"/>
          </g>
          <rect class="cls-9" x="185.663" y="513.763" width="57.3" height="38.968" rx="3.871" ry="3.871"/>
          <text class="cls-33" transform="translate(255.873 540.31)"><tspan x="0" y="0">값</tspan></text>
          <text class="cls-33" transform="translate(196.189 540.31)"><tspan x="0" y="0">단</tspan></text>
          <path class="cls-11" d="m227.27,528.57c1.503,0,3.006-.003,4.509.001.951.003,1.744.288,2.197,1.211.47.958.064,1.702-.534,2.425-1.451,1.754-2.859,3.543-4.343,5.268-1.318,1.533-2.389,1.523-3.72-.029-1.519-1.771-2.972-3.598-4.452-5.402-.521-.635-.812-1.313-.452-2.145.374-.865,1.045-1.293,1.954-1.309,1.614-.027,3.228-.008,4.842-.008v-.013Z"/>
        </g>
      </g>
      <text class="cls-30" transform="translate(502.412 539.995)"><tspan x="0" y="0">=</tspan></text>
      <g>
        <g>
          <path class="cls-15" d="m604.421,524.548c-3.978-8.028-10.585-12.205-19.692-12.204l-23.634.017c-13.365.1-23.308,12.743-20.298,25.728,2.245,9.683,10.748,16.352,20.919,16.354l22.63.007c1.562,0,3.108-.072,4.657-.328,13.443-2.215,21.457-17.384,15.417-29.573Z"/>
          <path class="cls-8" d="m571.962,514.352c42.548,0-29.54-.003,13.008.003,9.346.001,16.7,5.774,18.918,14.808,2.597,10.582-4.706,21.37-15.534,23.016-1.222.186-2.431.263-3.655.263-85.04,0,62.236.002-22.804,0-11.651,0-20.056-8.798-19.553-20.436.36-8.321,7.473-16.158,15.669-17.363,1.445-.212,2.876-.287,4.323-.287,42.437-.001-32.807,0,9.629,0Z"/>
        </g>
        <text class="cls-38" transform="translate(554.698 538.715)"><tspan x="0" y="0">대답</tspan></text>
      </g>
    </g>
    <g>
      <rect class="cls-6" x="655.636" y="346.23" width="100.143" height="42.839" rx="10" ry="10"/>
      <path class="cls-3" d="m647.745,952.591H73.618l-11.613,11.226-13.016-11.226V340.217l12.441,11.461,12.387-11.471,555.991-.091c16.083,0,29.097-13.806,27.779-30.151-1.175-14.565-13.733-25.591-28.345-25.591H47.101l-12.543,11.548-12.023-10.98c-.238-.217-.622-.048-.622.274l.171,698.94,12.379,11.613,12.516-11.613h600.766c8.716,0,15.782-7.066,15.782-15.783s-7.066-15.783-15.782-15.783Z"/>
      <path class="cls-19" d="m647.557,312.289c.233,11.599-9.583,22.21-22.59,21.903-11.361-.268-21.522-9.45-21.508-22.104.014-12.581,10.427-22.278,22.629-21.994,11.969.279,21.786,10.209,21.47,22.194Z"/>
      <path class="cls-18" d="m633.641,313.821c-.095,0-.185.021-.279.028l-4.684-7.075c.647-.892.942-2.055.623-3.302-.356-1.388-1.5-2.504-2.899-2.812-2.553-.562-4.81,1.366-4.81,3.821,0,.859.284,1.646.753,2.292l-4.684,7.075c-.094-.007-.183-.028-.279-.028-2.466,0-4.4,2.277-3.814,4.843.323,1.416,1.474,2.567,2.89,2.89,2.566.586,4.843-1.348,4.843-3.814,0-1.153-.507-2.18-1.3-2.897l4.386-6.625c.358.108.731.183,1.124.183s.766-.076,1.124-.183l4.386,6.625c-1.013.917-1.56,2.338-1.178,3.884.344,1.389,1.482,2.51,2.877,2.828,2.564.583,4.839-1.35,4.839-3.815,0-2.165-1.755-3.919-3.919-3.919Z"/>
      <text class="cls-29" transform="translate(498.488 320.046)"><tspan x="0" y="0">반복하기</tspan></text>
      <g>
        <g>
          <polygon class="cls-21" points="66.611 332.047 51.084 312.144 66.611 292.241 313.242 292.241 328.769 312.144 313.242 332.047 66.611 332.047"/>
          <path class="cls-14" d="m312.754,293.241l14.746,18.903-14.746,18.903H67.099l-14.746-18.903,14.746-18.903h245.655m.976-2H66.123l-16.306,20.903,16.306,20.903h247.608l16.306-20.903-16.306-20.903h0Z"/>
        </g>
        <g>
          <path class="cls-20" d="m85.913,332.047c-10.975,0-19.903-8.929-19.903-19.903s8.929-19.903,19.903-19.903h86.621c10.975,0,19.903,8.929,19.903,19.903s-8.929,19.903-19.903,19.903h-86.621Z"/>
          <path class="cls-9" d="m172.534,293.241c10.423,0,18.903,8.48,18.903,18.903s-8.48,18.903-18.903,18.903h-86.621c-10.423,0-18.903-8.48-18.903-18.903s8.48-18.903,18.903-18.903h86.621m0-2h-86.621c-11.497,0-20.903,9.406-20.903,20.903s9.406,20.903,20.903,20.903h86.621c11.497,0,20.903-9.406,20.903-20.903s-9.406-20.903-20.903-20.903h0Z"/>
        </g>
        <rect class="cls-9" x="80.494" y="292.66" width="64.301" height="38.968" rx="3.871" ry="3.871"/>
        <text class="cls-33" transform="translate(157.704 319.207)"><tspan x="0" y="0">값</tspan></text>
        <text class="cls-33" transform="translate(91.019 319.207)"><tspan x="0" y="0">ok</tspan></text>
        <path class="cls-11" d="m129.101,307.467c1.503,0,3.006-.003,4.509.001.951.003,1.744.288,2.197,1.211.47.958.064,1.702-.534,2.425-1.451,1.754-2.859,3.543-4.343,5.268-1.318,1.533-2.389,1.523-3.72-.029-1.519-1.771-2.972-3.598-4.452-5.402-.521-.635-.812-1.313-.452-2.145.374-.865,1.045-1.293,1.954-1.309,1.614-.027,3.228-.008,4.842-.008v-.013Z"/>
        <rect class="cls-14" x="207.502" y="292.338" width="30.968" height="39.613" rx="3.355" ry="3.355"/>
        <g>
          <circle class="cls-23" cx="273.149" cy="312.144" r="19.903"/>
          <path class="cls-25" d="m273.149,293.241c10.423,0,18.903,8.48,18.903,18.903s-8.48,18.903-18.903,18.903-18.903-8.48-18.903-18.903,8.48-18.903,18.903-18.903m0-2h0c-11.497,0-20.903,9.406-20.903,20.903s9.406,20.903,20.903,20.903h0c11.497,0,20.903-9.406,20.903-20.903s-9.406-20.903-20.903-20.903h0Z"/>
        </g>
        <text class="cls-36" transform="translate(264.897 319.207)"><tspan x="0" y="0">3</tspan></text>
      </g>
      <g>
        <g>
          <rect class="cls-19" x="338.618" y="292.338" width="139.795" height="39.613" rx="3.355" ry="3.355"/>
          <path class="cls-11" d="m461.243,308.164c1.294,0,2.588-.003,3.883,0,.819.002,1.502.248,1.892,1.043.405.825.055,1.466-.46,2.088-1.25,1.51-2.462,3.051-3.74,4.537-1.135,1.32-2.057,1.312-3.204-.025-1.308-1.525-2.559-3.098-3.834-4.652-.449-.547-.699-1.13-.389-1.847.322-.745.9-1.114,1.683-1.127,1.39-.024,2.78-.007,4.17-.007v-.011Z"/>
        </g>
        <text class="cls-30" transform="translate(348.231 318.892)"><tspan x="0" y="0">이 될때까지</tspan></text>
      </g>
    </g>
    <g>
      <g>
        <path class="cls-1" d="m279.035,984.503H47.101l-12.543,11.548h0l-12.023-10.98c-.238-.218-.622-.049-.622.274v54.841l.171.168,11.328,10.345c.663.605,1.678.603,2.338-.004l10.91-10.045c.212-.195.49-.304.779-.304l231.597-.101c15.329,0,27.871-12.542,27.871-27.871s-12.542-27.871-27.871-27.871Z"/>
        <g>
          <path class="cls-16" d="m299.984,1012.418c.233,11.599-9.583,22.21-22.59,21.903-11.361-.268-21.522-9.45-21.508-22.104.014-12.581,10.427-22.278,22.629-21.994,11.969.279,21.786,10.209,21.47,22.194Z"/>
          <g>
            <rect class="cls-13" x="265.358" y="999.692" width="25.161" height="25.161" rx="2.274" ry="2.274"/>
            <g>
              <path class="cls-16" d="m272.27,1009.155h-2.11c-.21,0-.38-.17-.38-.38v-1.158c0-.21.17-.38.38-.38h2.11c.21,0,.38-.17.38-.38v-2.11c0-.21.17-.38.38-.38h1.158c.21,0,.38.17.38.38v2.11c0,.21.17.38.38.38h2.11c.21,0,.38.17.38.38v1.158c0,.21-.17.38-.38.38h-2.11c-.21,0-.38.17-.38.38v2.11c0,.21-.17.38-.38.38h-1.158c-.21,0-.38-.17-.38-.38v-2.11c0-.21-.17-.38-.38-.38Z"/>
              <path class="cls-16" d="m271.984,1016.682l-1.492-1.492c-.148-.148-.148-.389,0-.538l.819-.819c.148-.148.389-.148.538,0l1.492,1.492c.148.148.389.148.538,0l1.492-1.492c.148-.148.389-.148.538,0l.819.819c.148.148.148.389,0,.538l-1.492,1.492c-.148.148-.148.389,0,.538l1.492,1.492c.148.148.148.389,0,.538l-.819.819c-.148.148-.389.148-.538,0l-1.492-1.492c-.148-.148-.389-.148-.538,0l-1.492,1.492c-.148.148-.389.148-.538,0l-.819-.819c-.148-.148-.148-.389,0-.538l1.492-1.492c.148-.148.148-.389,0-.538Z"/>
              <path class="cls-16" d="m285.717,1009.161h-5.359c-.21,0-.38-.17-.38-.38v-1.17c0-.21.17-.38.38-.38h5.359c.21,0,.38.17.38.38v1.17c0,.21-.17.38-.38.38Z"/>
              <g>
                <path class="cls-16" d="m285.717,1016.172h-5.359c-.21,0-.38-.17-.38-.38v-1.17c0-.21.17-.38.38-.38h5.359c.21,0,.38.17.38.38v1.17c0,.21-.17.38-.38.38Z"/>
                <path class="cls-16" d="m285.717,1019.66h-5.359c-.21,0-.38-.17-.38-.38v-1.17c0-.21.17-.38.38-.38h5.359c.21,0,.38.17.38.38v1.17c0,.21-.17.38-.38.38Z"/>
              </g>
            </g>
          </g>
        </g>
      </g>
      <g>
        <path class="cls-16" d="m130.913,998.643v27.721c0,3.45,2.808,6.244,6.257,6.235,25.312-.061,72.917-.046,98.242-.044,3.444,0,6.242-2.791,6.242-6.235v-27.63c0-3.441-2.787-6.231-6.228-6.235l-98.271-.046c-3.447-.004-6.243,2.789-6.243,6.235Z"/>
        <text class="cls-30" transform="translate(141.293 1020.342)"><tspan x="0" y="0">정지하기</tspan></text>
        <path class="cls-11" d="m228.076,1008.61c1.503,0,3.006-.003,4.509.001.951.003,1.744.288,2.197,1.211.47.958.064,1.702-.534,2.425-1.451,1.754-2.859,3.543-4.343,5.268-1.318,1.533-2.389,1.523-3.72-.029-1.519-1.771-2.972-3.598-4.452-5.402-.521-.635-.812-1.313-.452-2.145.374-.865,1.045-1.293,1.954-1.309,1.614-.027,3.228-.008,4.842-.008v-.013Z"/>
      </g>
      <text class="cls-32" transform="translate(50.956 1020.852)"><tspan x="0" y="0">초시계</tspan></text>
    </g>
    <g>
      <g>
        <path class="cls-4" d="m428.496,614.256H101.589s0,0,0,0l-12.543,11.548s0,0,0,0l-12.023-10.98c-.238-.218-.622-.049-.622.274v54.741c0,.047.011.092.028.135h-.003l.004.004c.02.048.048.093.087.13h.056l11.328,10.345c.663.605,1.678.603,2.338-.005l10.91-10.045c.212-.195.49-.304.779-.304l326.57-.101c15.329,0,27.871-12.542,27.871-27.871h0c0-15.329-12.542-27.871-27.871-27.871Z"/>
        <g>
          <path class="cls-15" d="m449.445,642.171c.233,11.599-9.583,22.21-22.59,21.903-11.361-.268-21.522-9.45-21.508-22.104.014-12.581,10.427-22.278,22.629-21.994,11.969.279,21.786,10.209,21.47,22.194Z"/>
          <path class="cls-24" d="m427.713,632.008c1.421.066,3.283.498,4.796,1.905,2.464,2.29,2.614,5.317.342,7.812-.823.903-1.728,1.735-2.634,2.558-.847.769-1.497,1.641-1.723,2.78-.285,1.438-1.202,2.017-2.552,1.624-1.294-.377-1.297-1.572-1.154-2.621.299-2.203,1.86-3.593,3.427-4.952.334-.29.717-.537.999-.87,1.487-1.758,1.36-3.4-.321-4.537-1.47-.995-3.897-.403-4.808,1.208-.326.577-.531,1.221-.815,1.823-.524,1.11-1.42,1.65-2.58,1.204-1.144-.44-1.405-1.351-1.1-2.592.769-3.131,3.806-5.339,8.123-5.343Z"/>
          <path class="cls-22" d="m426.687,654.722c-1.271-.012-2.113-.925-2.059-2.258.054-1.311.741-2.044,2.063-2.095,1.32-.051,2.369,1,2.32,2.267-.048,1.226-1.02,2.098-2.324,2.086Z"/>
        </g>
        <g>
          <g>
            <path class="cls-23" d="m238.349,661.311c-10.975,0-19.903-8.929-19.903-19.903s8.928-19.903,19.903-19.903,19.903,8.929,19.903,19.903-8.929,19.903-19.903,19.903Z"/>
            <path class="cls-25" d="m238.35,622.504c10.423,0,18.903,8.48,18.903,18.903s-8.48,18.903-18.903,18.903-18.903-8.48-18.903-18.903,8.48-18.903,18.903-18.903m0-2c-11.497,0-20.903,9.406-20.903,20.903s9.406,20.903,20.903,20.903,20.903-9.406,20.903-20.903-9.406-20.903-20.903-20.903h0Z"/>
          </g>
          <text class="cls-36" transform="translate(232.677 648.47)"><tspan x="0" y="0">1</tspan></text>
        </g>
      </g>
      <g>
        <path class="cls-9" d="m105.306,628.395v27.721c0,3.45,2.808,6.244,6.257,6.235,25.312-.061,24.186-.046,49.512-.044,3.444,0,6.242-2.791,6.242-6.235v-27.63c0-3.441-2.787-6.231-6.228-6.235l-49.541-.046c-3.447-.004-6.243,2.789-6.243,6.235Z"/>
        <text class="cls-30" transform="translate(115.685 650.095)"><tspan x="0" y="0">ok</tspan></text>
        <path class="cls-11" d="m153.738,638.362c1.503,0,3.006-.003,4.509.001.951.003,1.744.288,2.197,1.211.47.958.064,1.702-.534,2.425-1.451,1.754-2.859,3.543-4.343,5.268-1.318,1.533-2.389,1.523-3.72-.029-1.519-1.771-2.972-3.598-4.452-5.402-.521-.635-.812-1.313-.452-2.145.374-.865,1.045-1.293,1.954-1.309,1.614-.027,3.228-.008,4.842-.008v-.013Z"/>
      </g>
      <text class="cls-32" transform="translate(182.686 650.605)"><tspan x="0" y="0">에</tspan></text>
      <text class="cls-32" transform="translate(273.274 650.605)"><tspan x="0" y="0">만큼 더하기</tspan></text>
    </g>
    <g>
      <g>
        <path class="cls-2" d="m1111.445,1040.304H47.101l-12.543,11.141-12.024-10.593c-.238-.21-.622-.047-.622.265v52.811c0,.098.042.191.115.259l12.53,11.31,12.351-11.415h1064.923c15.484,0,27.484-12.1,27.484-26.888h0c0-14.789-12.542-26.888-27.871-26.888Z"/>
        <g>
          <path class="cls-12" d="m1087.16,1067.697c.085-12.114,9.79-22.01,22.342-21.937,12.159.071,22.178,9.883,21.961,22.471-.203,11.764-9.754,21.773-22.498,21.598-12.042-.166-21.794-9.762-21.805-22.132Z"/>
          <path class="cls-27" d="m1110.06,1069.135c2.854.024,5.612,2.731,5.624,5.52.014,3.13-2.722,5.849-5.866,5.829-3.016-.018-5.566-2.746-5.533-5.919.031-3.007,2.636-5.457,5.775-5.43Z"/>
          <rect class="cls-27" x="1112.447" y="1059.519" width="9.448" height="9.448" transform="translate(1079.745 -478.25) rotate(45)"/>
          <polygon class="cls-27" points="1108.29 1067.198 1108.29 1060.766 1102.72 1057.549 1097.149 1060.766 1097.149 1067.198 1102.72 1070.414 1108.29 1067.198"/>
        </g>
      </g>
      <text class="cls-31" transform="translate(748.211 1075.758)"><tspan x="0" y="0">을(를)</tspan></text>
      <text class="cls-31" transform="translate(885.618 1075.758)"><tspan x="0" y="0">초 동안</tspan></text>
      <g>
        <rect class="cls-10" x="976.546" y="1048.312" width="95.645" height="38.968" rx="3.871" ry="3.871"/>
        <text class="cls-33" transform="translate(987.071 1074.86)"><tspan x="0" y="0">말하기</tspan></text>
        <path class="cls-11" d="m1055.692,1063.118c1.503,0,3.006-.003,4.509.001.951.003,1.744.288,2.197,1.211.47.958.064,1.702-.534,2.425-1.451,1.754-2.859,3.543-4.343,5.268-1.318,1.533-2.389,1.523-3.72-.029-1.519-1.771-2.972-3.598-4.452-5.402-.521-.635-.812-1.313-.452-2.145.374-.865,1.045-1.293,1.954-1.309,1.614-.027,3.228-.008,4.842-.008v-.013Z"/>
      </g>
      <g>
        <g>
          <circle class="cls-23" cx="847.446" cy="1067.41" r="19.903"/>
          <path class="cls-25" d="m847.445,1048.507c10.423,0,18.903,8.48,18.903,18.903s-8.48,18.903-18.903,18.903-18.903-8.48-18.903-18.903,8.48-18.903,18.903-18.903m0-2h0c-11.497,0-20.903,9.406-20.903,20.903s9.406,20.903,20.903,20.903h0c11.497,0,20.903-9.406,20.903-20.903s-9.406-20.903-20.903-20.903h0Z"/>
        </g>
        <text class="cls-36" transform="translate(840.741 1074.474)"><tspan x="0" y="0">4</tspan></text>
      </g>
      <text class="cls-31" transform="translate(513.548 1075.758)"><tspan x="0" y="0">을(를)</tspan></text>
      <text class="cls-31" transform="translate(650.956 1075.758)"><tspan x="0" y="0">초 동안</tspan></text>
      <text class="cls-36" transform="translate(606.078 1074.474)"><tspan x="0" y="0">2</tspan></text>
      <g>
        <g>
          <path class="cls-5" d="m60.753,1087.313c-10.975,0-19.903-8.929-19.903-19.903s8.929-19.903,19.903-19.903h649.314c10.975,0,19.903,8.929,19.903,19.903s-8.928,19.903-19.903,19.903H60.753Z"/>
          <path class="cls-16" d="m710.067,1048.507c10.423,0,18.903,8.48,18.903,18.903s-8.48,18.903-18.903,18.903H60.753c-10.423,0-18.903-8.48-18.903-18.903s8.48-18.903,18.903-18.903h649.314m0-2H60.753c-11.497,0-20.903,9.406-20.903,20.903s9.406,20.903,20.903,20.903h649.314c11.497,0,20.903-9.406,20.903-20.903s-9.406-20.903-20.903-20.903h0Z"/>
        </g>
        <g>
          <path class="cls-5" d="m73.403,1087.313c-10.975,0-19.903-8.929-19.903-19.903s8.929-19.903,19.903-19.903h73.558c10.975,0,19.903,8.929,19.903,19.903s-8.928,19.903-19.903,19.903h-73.558Z"/>
          <path class="cls-16" d="m146.96,1048.507c10.423,0,18.903,8.48,18.903,18.903s-8.48,18.903-18.903,18.903h-73.558c-10.423,0-18.903-8.48-18.903-18.903s8.48-18.903,18.903-18.903h73.558m0-2h-73.558c-11.497,0-20.903,9.406-20.903,20.903s9.406,20.903,20.903,20.903h73.558c11.497,0,20.903-9.406,20.903-20.903s-9.406-20.903-20.903-20.903h0Z"/>
        </g>
        <text class="cls-35" transform="translate(67.939 1074.474)"><tspan x="0" y="0">초시계 값</tspan></text>
        <g>
          <path class="cls-23" d="m273.204,1087.313c-10.975,0-19.903-8.929-19.903-19.903s8.928-19.903,19.903-19.903h287.95c10.975,0,19.903,8.929,19.903,19.903s-8.929,19.903-19.903,19.903h-287.95Z"/>
          <path class="cls-25" d="m561.154,1048.507c10.423,0,18.903,8.48,18.903,18.903s-8.48,18.903-18.903,18.903h-287.949c-10.423,0-18.903-8.48-18.903-18.903s8.48-18.903,18.903-18.903h287.949m0-2h-287.949c-11.497,0-20.903,9.406-20.903,20.903s9.406,20.903,20.903,20.903h287.949c11.497,0,20.903-9.406,20.903-20.903s-9.406-20.903-20.903-20.903h0Z"/>
        </g>
        <text class="cls-37" transform="translate(268.742 1074.474)"><tspan class="cls-41" x="0" y="0">초 만에 방 탈출에 성공했어</tspan><tspan class="cls-39" x="226.132" y="0">.</tspan><tspan class="cls-40" x="231.422" y="0" xml:space="preserve"> 축하해!</tspan></text>
        <text class="cls-35" transform="translate(182.12 1074.474)"><tspan x="0" y="0">과(와)</tspan></text>
        <text class="cls-35" transform="translate(595.409 1074.474)"><tspan x="0" y="0">을(를) 합친 값</tspan></text>
      </g>
    </g>
    <g>
      <path class="cls-2" d="m645.196,867.429H101.589l-12.543,11.141-12.024-10.593c-.238-.21-.622-.047-.622.265v52.811c0,.098.042.191.115.259l12.53,11.31,12.351-11.415h544.186c15.484,0,27.484-12.1,27.484-26.888h0c0-14.789-12.542-26.888-27.871-26.888Z"/>
      <path class="cls-12" d="m620.91,894.823c.085-12.114,9.79-22.01,22.342-21.937,12.159.071,22.178,9.883,21.961,22.471-.203,11.764-9.754,21.773-22.498,21.598-12.042-.166-21.794-9.762-21.805-22.132Z"/>
      <path class="cls-27" d="m643.81,896.26c2.854.024,5.612,2.731,5.624,5.52.014,3.13-2.722,5.849-5.866,5.829-3.016-.018-5.566-2.746-5.533-5.919.031-3.007,2.636-5.457,5.775-5.43Z"/>
      <rect class="cls-27" x="646.198" y="886.645" width="9.448" height="9.448" transform="translate(820.943 -199.195) rotate(45)"/>
      <polygon class="cls-27" points="642.041 894.324 642.041 887.891 636.47 884.675 630.899 887.891 630.899 894.324 636.47 897.54 642.041 894.324"/>
      <rect class="cls-10" x="510.297" y="875.438" width="95.645" height="38.968" rx="3.871" ry="3.871"/>
      <text class="cls-33" transform="translate(520.822 901.985)"><tspan x="0" y="0">말하기</tspan></text>
      <path class="cls-11" d="m589.442,890.244c1.503,0,3.006-.003,4.509.001.951.003,1.744.288,2.197,1.211.47.958.064,1.702-.534,2.425-1.451,1.754-2.859,3.543-4.343,5.268-1.318,1.533-2.389,1.523-3.72-.029-1.519-1.771-2.972-3.598-4.452-5.402-.521-.635-.812-1.313-.452-2.145.374-.865,1.045-1.293,1.954-1.309,1.614-.027,3.228-.008,4.842-.008v-.013Z"/>
      <g>
        <path class="cls-23" d="m378.004,914.439c-10.975,0-19.903-8.929-19.903-19.903s8.929-19.903,19.903-19.903,19.903,8.928,19.903,19.903-8.929,19.903-19.903,19.903Z"/>
        <path class="cls-25" d="m378.004,875.633c10.423,0,18.903,8.48,18.903,18.903s-8.48,18.903-18.903,18.903-18.903-8.48-18.903-18.903,8.48-18.903,18.903-18.903m0-2h0c-11.497,0-20.903,9.406-20.903,20.903h0c0,11.497,9.406,20.903,20.903,20.903h0c11.497,0,20.903-9.406,20.903-20.903h0c0-11.497-9.406-20.903-20.903-20.903h0Z"/>
      </g>
      <text class="cls-36" transform="translate(371.3 901.599)"><tspan x="0" y="0">2</tspan></text>
      <text class="cls-31" transform="translate(278.688 902.883)"><tspan x="0" y="0">을(를)</tspan></text>
      <text class="cls-31" transform="translate(416.095 902.883)"><tspan x="0" y="0">초 동안</tspan></text>
      <g>
        <g>
          <path class="cls-23" d="m115.241,914.439c-10.975,0-19.903-8.929-19.903-19.903s8.929-19.903,19.903-19.903h127.925c10.975,0,19.903,8.928,19.903,19.903s-8.929,19.903-19.903,19.903h-127.925Z"/>
          <path class="cls-25" d="m243.167,875.633c10.423,0,18.903,8.48,18.903,18.903s-8.48,18.903-18.903,18.903h-127.925c-10.423,0-18.903-8.48-18.903-18.903s8.48-18.903,18.903-18.903h127.925m0-2h-127.925c-11.497,0-20.903,9.406-20.903,20.903h0c0,11.497,9.406,20.903,20.903,20.903h127.925c11.497,0,20.903-9.406,20.903-20.903h0c0-11.497-9.406-20.903-20.903-20.903h0Z"/>
        </g>
        <text class="cls-34" transform="translate(110.779 901.6)"><tspan x="0" y="0">땡! 다시 풀어봐!</tspan></text>
      </g>
    </g>
    <g>
      <path class="cls-2" d="m608.675,561.566H101.589l-12.543,11.141-12.024-10.593c-.238-.21-.622-.047-.622.265v52.811c0,.098.042.191.115.259l12.53,11.31,12.351-11.415h507.665c15.484,0,27.484-12.1,27.484-26.888h0c0-14.789-12.542-26.888-27.871-26.888Z"/>
      <path class="cls-12" d="m584.389,588.959c.085-12.114,9.79-22.01,22.342-21.937,12.159.071,22.178,9.883,21.961,22.471-.203,11.764-9.754,21.773-22.498,21.598-12.042-.166-21.794-9.762-21.805-22.132Z"/>
      <path class="cls-27" d="m607.289,590.397c2.854.024,5.612,2.731,5.624,5.52.014,3.13-2.722,5.849-5.866,5.829-3.016-.018-5.566-2.746-5.533-5.919.031-3.007,2.636-5.457,5.775-5.43Z"/>
      <rect class="cls-27" x="609.677" y="580.781" width="9.448" height="9.448" transform="translate(593.969 -262.956) rotate(45)"/>
      <polygon class="cls-27" points="605.52 588.46 605.52 582.028 599.949 578.812 594.378 582.028 594.378 588.46 599.949 591.677 605.52 588.46"/>
      <rect class="cls-10" x="473.776" y="569.574" width="95.645" height="38.968" rx="3.871" ry="3.871"/>
      <text class="cls-33" transform="translate(484.301 596.122)"><tspan x="0" y="0">말하기</tspan></text>
      <path class="cls-11" d="m552.921,584.381c1.503,0,3.006-.003,4.509.001.951.003,1.744.288,2.197,1.211.47.958.064,1.702-.534,2.425-1.451,1.754-2.859,3.543-4.343,5.268-1.318,1.533-2.389,1.523-3.72-.029-1.519-1.771-2.972-3.598-4.452-5.402-.521-.635-.812-1.313-.452-2.145.374-.865,1.045-1.293,1.954-1.309,1.614-.027,3.228-.008,4.842-.008v-.013Z"/>
      <g>
        <path class="cls-23" d="m341.483,608.576c-10.975,0-19.903-8.929-19.903-19.903s8.928-19.903,19.903-19.903,19.903,8.929,19.903,19.903-8.929,19.903-19.903,19.903Z"/>
        <path class="cls-25" d="m341.483,569.769c10.423,0,18.903,8.48,18.903,18.903s-8.48,18.903-18.903,18.903-18.903-8.48-18.903-18.903,8.48-18.903,18.903-18.903m0-2h0c-11.497,0-20.903,9.406-20.903,20.903h0c0,11.497,9.406,20.903,20.903,20.903h0c11.497,0,20.903-9.406,20.903-20.903h0c0-11.497-9.406-20.903-20.903-20.903h0Z"/>
      </g>
      <text class="cls-36" transform="translate(334.779 595.736)"><tspan x="0" y="0">2</tspan></text>
      <text class="cls-31" transform="translate(242.167 597.02)"><tspan x="0" y="0">을(를)</tspan></text>
      <text class="cls-31" transform="translate(379.574 597.02)"><tspan x="0" y="0">초 동안</tspan></text>
      <g>
        <g>
          <path class="cls-23" d="m115.241,608.576c-10.975,0-19.903-8.929-19.903-19.903s8.929-19.903,19.903-19.903h91.404c10.975,0,19.903,8.929,19.903,19.903s-8.929,19.903-19.903,19.903h-91.404Z"/>
          <path class="cls-25" d="m206.646,569.769c10.423,0,18.903,8.48,18.903,18.903s-8.48,18.903-18.903,18.903h-91.404c-10.423,0-18.903-8.48-18.903-18.903s8.48-18.903,18.903-18.903h91.404m0-2h-91.404c-11.497,0-20.903,9.406-20.903,20.903s9.406,20.903,20.903,20.903h91.404c11.497,0,20.903-9.406,20.903-20.903s-9.406-20.903-20.903-20.903h0Z"/>
        </g>
        <text class="cls-37" transform="translate(110.779 595.736)"><tspan class="cls-41" x="0" y="0">정답입니다</tspan><tspan class="cls-42" x="93.968" y="0">.</tspan></text>
      </g>
    </g>
    <g>
      <g>
        <g>
          <path class="cls-4" d="m740.102,340.26H74.248s0,0,0,0l-12.543,11.548s0,0,0,0l-12.023-10.98c-.238-.218-.622-.049-.622.274v54.741c0,.047.011.092.028.135h-.003l.004.004c.02.048.048.093.087.13h.056l11.328,10.345c.663.605,1.678.603,2.338-.005l10.91-10.045c.212-.195.49-.304.779-.304l665.517-.101c15.329,0,27.871-12.542,27.871-27.871h0c0-15.329-12.542-27.871-27.871-27.871Z"/>
          <g>
            <path class="cls-15" d="m761.051,368.175c.233,11.599-9.583,22.21-22.59,21.903-11.361-.268-21.522-9.45-21.508-22.104.014-12.581,10.427-22.278,22.629-21.994,11.969.279,21.786,10.209,21.47,22.194Z"/>
            <path class="cls-24" d="m739.319,358.012c1.421.066,3.283.498,4.796,1.905,2.464,2.29,2.614,5.317.342,7.812-.823.903-1.728,1.735-2.634,2.558-.847.769-1.497,1.641-1.723,2.78-.285,1.438-1.202,2.017-2.552,1.624-1.294-.377-1.297-1.572-1.154-2.621.299-2.203,1.86-3.593,3.427-4.952.334-.29.717-.537.999-.87,1.487-1.758,1.36-3.4-.321-4.537-1.47-.995-3.897-.403-4.808,1.208-.326.577-.531,1.221-.815,1.823-.524,1.11-1.42,1.65-2.58,1.204-1.144-.44-1.405-1.351-1.1-2.592.769-3.131,3.806-5.339,8.123-5.343Z"/>
            <path class="cls-22" d="m738.293,380.727c-1.271-.012-2.113-.925-2.059-2.258.054-1.311.741-2.044,2.063-2.095,1.32-.051,2.369,1,2.32,2.267-.048,1.226-1.02,2.098-2.324,2.086Z"/>
          </g>
        </g>
        <g>
          <path class="cls-9" d="m77.964,354.4v27.721c0,3.45,2.808,6.244,6.257,6.235,25.312-.061,20.186-.046,45.511-.044,3.444,0,6.242-2.791,6.242-6.235v-27.63c0-3.441-2.787-6.231-6.228-6.235l-45.54-.046c-3.447-.004-6.243,2.789-6.243,6.235Z"/>
          <text class="cls-30" transform="translate(88.344 376.099)"><tspan x="0" y="0">단</tspan></text>
          <path class="cls-11" d="m122.396,364.367c1.503,0,3.006-.003,4.509.001.951.003,1.744.288,2.197,1.211.47.958.064,1.702-.534,2.425-1.451,1.754-2.859,3.543-4.343,5.268-1.318,1.533-2.389,1.523-3.72-.029-1.519-1.771-2.972-3.598-4.452-5.402-.521-.635-.812-1.313-.452-2.145.374-.865,1.045-1.293,1.954-1.309,1.614-.027,3.228-.008,4.842-.008v-.013Z"/>
        </g>
        <text class="cls-32" transform="translate(151.344 376.609)"><tspan x="0" y="0">을(를)</tspan></text>
        <text class="cls-32" transform="translate(564.884 376.609)"><tspan x="0" y="0">(으)로 정하기</tspan></text>
      </g>
      <g>
        <g>
          <path class="cls-5" d="m246.241,387.315c-10.975,0-19.903-8.929-19.903-19.903s8.929-19.903,19.903-19.903h285.286c10.975,0,19.903,8.929,19.903,19.903s-8.929,19.903-19.903,19.903H246.241Z"/>
          <path class="cls-16" d="m531.526,348.509c10.423,0,18.903,8.48,18.903,18.903s-8.48,18.903-18.903,18.903H246.241c-10.423,0-18.903-8.48-18.903-18.903s8.48-18.903,18.903-18.903h285.286m0-2H246.241c-11.497,0-20.903,9.406-20.903,20.903s9.406,20.903,20.903,20.903h285.286c11.497,0,20.903-9.406,20.903-20.903s-9.406-20.903-20.903-20.903h0Z"/>
        </g>
        <text class="cls-35" transform="translate(391.487 374.476)"><tspan x="0" y="0">사이의 무작위 수</tspan></text>
        <text class="cls-35" transform="translate(287.043 374.476)"><tspan x="0" y="0">부터</tspan></text>
        <g>
          <g>
            <circle class="cls-23" cx="256.678" cy="367.412" r="19.903"/>
            <path class="cls-25" d="m256.678,348.509c10.423,0,18.903,8.48,18.903,18.903s-8.48,18.903-18.903,18.903-18.903-8.48-18.903-18.903,8.48-18.903,18.903-18.903m0-2h0c-11.497,0-20.903,9.406-20.903,20.903s9.406,20.903,20.903,20.903h0c11.497,0,20.903-9.406,20.903-20.903s-9.406-20.903-20.903-20.903h0Z"/>
          </g>
          <text class="cls-36" transform="translate(250.005 374.475)"><tspan x="0" y="0">2</tspan></text>
        </g>
        <g>
          <g>
            <path class="cls-23" d="m358.021,387.315c-10.975,0-19.903-8.929-19.903-19.903s8.928-19.903,19.903-19.903,19.903,8.929,19.903,19.903-8.929,19.903-19.903,19.903Z"/>
            <path class="cls-25" d="m358.021,348.509c10.423,0,18.903,8.48,18.903,18.903s-8.48,18.903-18.903,18.903-18.903-8.48-18.903-18.903,8.48-18.903,18.903-18.903m0-2h0c-11.497,0-20.903,9.406-20.903,20.903s9.406,20.903,20.903,20.903h0c11.497,0,20.903-9.406,20.903-20.903s-9.406-20.903-20.903-20.903h0Z"/>
          </g>
          <text class="cls-36" transform="translate(351.349 374.475)"><tspan x="0" y="0">9</tspan></text>
        </g>
      </g>
    </g>
    <g>
      <g>
        <g>
          <path class="cls-4" d="m740.102,395.974H74.248s0,0,0,0l-12.543,11.548s0,0,0,0l-12.023-10.98c-.238-.218-.622-.049-.622.274v54.741c0,.047.011.092.028.135h-.003l.004.004c.02.048.048.093.087.13h.056l11.328,10.345c.663.605,1.678.603,2.338-.005l10.91-10.045c.212-.195.49-.304.779-.304l665.517-.101c15.329,0,27.871-12.542,27.871-27.871h0c0-15.329-12.542-27.871-27.871-27.871Z"/>
          <g>
            <path class="cls-15" d="m761.051,423.889c.233,11.599-9.583,22.21-22.59,21.903-11.361-.268-21.522-9.45-21.508-22.104.014-12.581,10.427-22.278,22.629-21.994,11.969.279,21.786,10.209,21.47,22.194Z"/>
            <path class="cls-24" d="m739.319,413.726c1.421.066,3.283.498,4.796,1.905,2.464,2.29,2.614,5.317.342,7.812-.823.903-1.728,1.735-2.634,2.558-.847.769-1.497,1.641-1.723,2.78-.285,1.438-1.202,2.017-2.552,1.624-1.294-.377-1.297-1.572-1.154-2.621.299-2.203,1.86-3.593,3.427-4.952.334-.29.717-.537.999-.87,1.487-1.758,1.36-3.4-.321-4.537-1.47-.995-3.897-.403-4.808,1.208-.326.577-.531,1.221-.815,1.823-.524,1.11-1.42,1.65-2.58,1.204-1.144-.44-1.405-1.351-1.1-2.592.769-3.131,3.806-5.339,8.123-5.343Z"/>
            <path class="cls-22" d="m738.293,436.44c-1.271-.012-2.113-.925-2.059-2.258.054-1.311.741-2.044,2.063-2.095,1.32-.051,2.369,1,2.32,2.267-.048,1.226-1.02,2.098-2.324,2.086Z"/>
          </g>
        </g>
        <g>
          <path class="cls-9" d="m77.964,410.114v27.721c0,3.45,2.808,6.244,6.257,6.235,25.312-.061,20.186-.046,45.511-.044,3.444,0,6.242-2.791,6.242-6.235v-27.63c0-3.441-2.787-6.231-6.228-6.235l-45.54-.046c-3.447-.004-6.243,2.789-6.243,6.235Z"/>
          <text class="cls-30" transform="translate(88.344 431.813)"><tspan x="0" y="0">수</tspan></text>
          <path class="cls-11" d="m122.396,420.08c1.503,0,3.006-.003,4.509.001.951.003,1.744.288,2.197,1.211.47.958.064,1.702-.534,2.425-1.451,1.754-2.859,3.543-4.343,5.268-1.318,1.533-2.389,1.523-3.72-.029-1.519-1.771-2.972-3.598-4.452-5.402-.521-.635-.812-1.313-.452-2.145.374-.865,1.045-1.293,1.954-1.309,1.614-.027,3.228-.008,4.842-.008v-.013Z"/>
        </g>
        <text class="cls-32" transform="translate(151.344 432.323)"><tspan x="0" y="0">을(를)</tspan></text>
        <text class="cls-32" transform="translate(564.884 432.323)"><tspan x="0" y="0">(으)로 정하기</tspan></text>
      </g>
      <g>
        <g>
          <path class="cls-5" d="m246.241,443.006c-10.975,0-19.903-8.928-19.903-19.903s8.929-19.903,19.903-19.903h285.286c10.975,0,19.903,8.929,19.903,19.903s-8.929,19.903-19.903,19.903H246.241Z"/>
          <path class="cls-16" d="m531.526,404.2c10.423,0,18.903,8.48,18.903,18.903s-8.48,18.903-18.903,18.903H246.241c-10.423,0-18.903-8.48-18.903-18.903s8.48-18.903,18.903-18.903h285.286m0-2H246.241c-11.497,0-20.903,9.406-20.903,20.903s9.406,20.903,20.903,20.903h285.286c11.497,0,20.903-9.406,20.903-20.903s-9.406-20.903-20.903-20.903h0Z"/>
        </g>
        <text class="cls-35" transform="translate(391.487 430.167)"><tspan x="0" y="0">사이의 무작위 수</tspan></text>
        <text class="cls-35" transform="translate(287.043 430.167)"><tspan x="0" y="0">부터</tspan></text>
        <g>
          <g>
            <path class="cls-23" d="m256.678,443.006c-10.975,0-19.903-8.928-19.903-19.903s8.929-19.903,19.903-19.903,19.903,8.928,19.903,19.903-8.929,19.903-19.903,19.903Z"/>
            <path class="cls-25" d="m256.678,404.2c10.423,0,18.903,8.48,18.903,18.903s-8.48,18.903-18.903,18.903-18.903-8.48-18.903-18.903,8.48-18.903,18.903-18.903m0-2h0c-11.497,0-20.903,9.406-20.903,20.903s9.406,20.903,20.903,20.903h0c11.497,0,20.903-9.406,20.903-20.903s-9.406-20.903-20.903-20.903h0Z"/>
          </g>
          <text class="cls-36" transform="translate(251.005 430.166)"><tspan x="0" y="0">1</tspan></text>
        </g>
        <g>
          <g>
            <path class="cls-23" d="m358.021,443.006c-10.975,0-19.903-8.928-19.903-19.903s8.928-19.903,19.903-19.903,19.903,8.928,19.903,19.903-8.929,19.903-19.903,19.903Z"/>
            <path class="cls-25" d="m358.021,404.2c10.423,0,18.903,8.48,18.903,18.903s-8.48,18.903-18.903,18.903-18.903-8.48-18.903-18.903,8.48-18.903,18.903-18.903m0-2h0c-11.497,0-20.903,9.406-20.903,20.903s9.406,20.903,20.903,20.903h0c11.497,0,20.903-9.406,20.903-20.903s-9.406-20.903-20.903-20.903h0Z"/>
          </g>
          <text class="cls-36" transform="translate(351.349 430.166)"><tspan x="0" y="0">9</tspan></text>
        </g>
      </g>
    </g>
    <g>
      <g>
        <path class="cls-4" d="m1386.715,451.823H74.248l-12.543,11.141-12.024-10.593c-.238-.21-.622-.047-.622.265v52.811c0,.098.042.191.115.259l12.53,11.31,12.351-11.415h1313.047c15.484,0,27.484-12.1,27.484-26.888h0c0-14.789-12.542-26.888-27.871-26.888Z"/>
        <g>
          <path class="cls-15" d="m1406.728,478.996c.233,11.599-9.583,22.21-22.59,21.903-11.361-.268-21.522-9.45-21.508-22.104.014-12.581,10.427-22.278,22.629-21.994,11.969.279,21.786,10.209,21.47,22.194Z"/>
          <path class="cls-24" d="m1384.996,468.833c1.421.066,3.283.498,4.796,1.905,2.464,2.29,2.614,5.317.342,7.812-.823.903-1.728,1.735-2.634,2.558-.847.769-1.497,1.641-1.723,2.78-.285,1.438-1.202,2.017-2.552,1.624-1.294-.377-1.297-1.572-1.154-2.621.299-2.203,1.86-3.593,3.427-4.952.334-.29.717-.537.999-.87,1.487-1.758,1.36-3.4-.321-4.537-1.47-.995-3.897-.403-4.808,1.208-.326.577-.531,1.221-.815,1.823-.524,1.11-1.42,1.65-2.58,1.204-1.144-.44-1.405-1.351-1.1-2.592.769-3.131,3.806-5.339,8.123-5.343Z"/>
          <path class="cls-22" d="m1383.97,491.548c-1.271-.012-2.113-.925-2.059-2.258.054-1.311.741-2.044,2.063-2.095,1.32-.051,2.369,1,2.32,2.267-.048,1.226-1.02,2.098-2.324,2.086Z"/>
        </g>
      </g>
      <text class="cls-31" transform="translate(1145.797 487.277)"><tspan x="0" y="0">을(를) 묻고 기다리기</tspan></text>
      <text class="cls-31" transform="translate(540.695 487.277)"><tspan x="0" y="0">을(를)</tspan></text>
      <text class="cls-31" transform="translate(678.102 487.277)"><tspan x="0" y="0">초 동안</tspan></text>
      <text class="cls-36" transform="translate(633.225 485.993)"><tspan x="0" y="0">2</tspan></text>
      <g>
        <g>
          <path class="cls-5" d="m87.9,498.833c-10.975,0-19.903-8.928-19.903-19.903s8.928-19.903,19.903-19.903h649.314c10.975,0,19.903,8.929,19.903,19.903s-8.929,19.903-19.903,19.903H87.9Z"/>
          <path class="cls-16" d="m737.214,460.027c10.423,0,18.903,8.48,18.903,18.903s-8.48,18.903-18.903,18.903H87.9c-10.423,0-18.903-8.48-18.903-18.903s8.48-18.903,18.903-18.903h649.314m0-2H87.9c-11.497,0-20.903,9.406-20.903,20.903s9.406,20.903,20.903,20.903h649.314c11.497,0,20.903-9.406,20.903-20.903s-9.406-20.903-20.903-20.903h0Z"/>
        </g>
        <g>
          <path class="cls-5" d="m300.351,498.833c-10.975,0-19.903-8.928-19.903-19.903s8.929-19.903,19.903-19.903h287.949c10.975,0,19.903,8.929,19.903,19.903s-8.929,19.903-19.903,19.903h-287.949Z"/>
          <path class="cls-16" d="m588.301,460.027c10.423,0,18.903,8.48,18.903,18.903s-8.48,18.903-18.903,18.903h-287.95c-10.423,0-18.903-8.48-18.903-18.903s8.48-18.903,18.903-18.903h287.95m0-2h-287.95c-11.497,0-20.903,9.406-20.903,20.903s9.406,20.903,20.903,20.903h287.95c11.497,0,20.903-9.406,20.903-20.903s-9.406-20.903-20.903-20.903h0Z"/>
        </g>
        <text class="cls-35" transform="translate(214.268 485.993)"><tspan x="0" y="0">과(와)</tspan></text>
        <text class="cls-35" transform="translate(342.073 485.993)"><tspan x="0" y="0">과(와)</tspan></text>
        <g>
          <g>
            <path class="cls-20" d="m100.549,498.833c-10.975,0-19.903-8.928-19.903-19.903s8.929-19.903,19.903-19.903h79.621c10.975,0,19.903,8.929,19.903,19.903s-8.928,19.903-19.903,19.903h-79.621Z"/>
            <path class="cls-9" d="m180.17,460.027c10.423,0,18.903,8.48,18.903,18.903s-8.48,18.903-18.903,18.903h-79.62c-10.423,0-18.903-8.48-18.903-18.903s8.48-18.903,18.903-18.903h79.62m0-2h-79.62c-11.497,0-20.903,9.406-20.903,20.903s9.406,20.903,20.903,20.903h79.62c11.497,0,20.903-9.406,20.903-20.903s-9.406-20.903-20.903-20.903h0Z"/>
          </g>
          <rect class="cls-9" x="95.13" y="459.446" width="57.3" height="38.968" rx="3.871" ry="3.871"/>
          <text class="cls-33" transform="translate(165.34 485.993)"><tspan x="0" y="0">값</tspan></text>
          <text class="cls-33" transform="translate(105.655 485.993)"><tspan x="0" y="0">단</tspan></text>
          <path class="cls-11" d="m136.736,474.252c1.503,0,3.006-.003,4.509.001.951.003,1.744.288,2.197,1.211.47.958.064,1.702-.534,2.425-1.451,1.754-2.859,3.543-4.343,5.268-1.318,1.533-2.389,1.523-3.72-.029-1.519-1.771-2.972-3.598-4.452-5.402-.521-.635-.812-1.313-.452-2.145.374-.865,1.045-1.293,1.954-1.309,1.614-.027,3.228-.008,4.842-.008v-.013Z"/>
        </g>
        <g>
          <path class="cls-23" d="m311.319,498.833c-10.975,0-19.903-8.928-19.903-19.903s8.928-19.903,19.903-19.903h.674c10.975,0,19.903,8.929,19.903,19.903s-8.929,19.903-19.903,19.903h-.674Z"/>
          <path class="cls-25" d="m311.992,460.027c10.423,0,18.903,8.48,18.903,18.903s-8.48,18.903-18.903,18.903h-.674c-10.423,0-18.903-8.48-18.903-18.903s8.48-18.903,18.903-18.903h.674m0-2h-.674c-11.497,0-20.903,9.406-20.903,20.903s9.406,20.903,20.903,20.903h.674c11.497,0,20.903-9.406,20.903-20.903s-9.406-20.903-20.903-20.903h0Z"/>
        </g>
        <text class="cls-34" transform="translate(304.34 486.961)"><tspan x="0" y="0">X</tspan></text>
      </g>
    </g>
    <g>
      <path class="cls-5" d="m729.769,498.833c-10.975,0-19.903-8.928-19.903-19.903s8.929-19.903,19.903-19.903h380.759c10.975,0,19.903,8.929,19.903,19.903s-8.929,19.903-19.903,19.903h-380.759Z"/>
      <path class="cls-16" d="m1110.528,460.027c10.423,0,18.903,8.48,18.903,18.903s-8.48,18.903-18.903,18.903h-380.759c-10.423,0-18.903-8.48-18.903-18.903s8.48-18.903,18.903-18.903h380.759m0-2h-380.759c-11.497,0-20.903,9.406-20.903,20.903s9.406,20.903,20.903,20.903h380.759c11.497,0,20.903-9.406,20.903-20.903s-9.406-20.903-20.903-20.903h0Z"/>
    </g>
    <text class="cls-35" transform="translate(994.155 485.993)"><tspan x="0" y="0">을(를) 합친 값</tspan></text>
    <g>
      <path class="cls-5" d="m580.6,498.833c-10.975,0-19.903-8.928-19.903-19.903s8.928-19.903,19.903-19.903h380.759c10.975,0,19.903,8.929,19.903,19.903s-8.929,19.903-19.903,19.903h-380.759Z"/>
      <path class="cls-16" d="m961.359,460.027c10.423,0,18.903,8.48,18.903,18.903s-8.48,18.903-18.903,18.903h-380.759c-10.423,0-18.903-8.48-18.903-18.903,0-10.423,8.48-18.903,18.903-18.903h380.759m0-2h-380.759c-11.497,0-20.903,9.406-20.903,20.903,0,11.497,9.406,20.903,20.903,20.903h380.759c11.497,0,20.903-9.406,20.903-20.903s-9.406-20.903-20.903-20.903h0Z"/>
    </g>
    <text class="cls-35" transform="translate(844.986 485.993)"><tspan x="0" y="0">을(를) 합친 값</tspan></text>
    <g>
      <path class="cls-5" d="m430.46,498.833c-10.975,0-19.903-8.928-19.903-19.903s8.929-19.903,19.903-19.903h380.759c10.975,0,19.903,8.929,19.903,19.903s-8.929,19.903-19.903,19.903h-380.759Z"/>
      <path class="cls-16" d="m811.218,460.027c10.423,0,18.903,8.48,18.903,18.903s-8.48,18.903-18.903,18.903h-380.759c-10.423,0-18.903-8.48-18.903-18.903s8.48-18.903,18.903-18.903h380.759m0-2h-380.759c-11.497,0-20.903,9.406-20.903,20.903s9.406,20.903,20.903,20.903h380.759c11.497,0,20.903-9.406,20.903-20.903s-9.406-20.903-20.903-20.903h0Z"/>
    </g>
    <g>
      <g>
        <path class="cls-20" d="m442.867,498.833c-10.975,0-19.903-8.928-19.903-19.903s8.928-19.903,19.903-19.903h79.621c10.975,0,19.903,8.929,19.903,19.903s-8.929,19.903-19.903,19.903h-79.621Z"/>
        <path class="cls-9" d="m522.487,460.027c10.423,0,18.903,8.48,18.903,18.903s-8.48,18.903-18.903,18.903h-79.62c-10.423,0-18.903-8.48-18.903-18.903s8.48-18.903,18.903-18.903h79.62m0-2h-79.62c-11.497,0-20.903,9.406-20.903,20.903s9.406,20.903,20.903,20.903h79.62c11.497,0,20.903-9.406,20.903-20.903s-9.406-20.903-20.903-20.903h0Z"/>
      </g>
      <rect class="cls-9" x="437.448" y="459.446" width="57.3" height="38.968" rx="3.871" ry="3.871"/>
      <text class="cls-33" transform="translate(507.658 485.993)"><tspan x="0" y="0">값</tspan></text>
      <text class="cls-33" transform="translate(447.973 485.993)"><tspan x="0" y="0">수</tspan></text>
      <path class="cls-11" d="m479.054,474.252c1.503,0,3.006-.003,4.509.001.951.003,1.744.288,2.197,1.211.47.958.064,1.702-.534,2.425-1.451,1.754-2.859,3.543-4.343,5.268-1.318,1.533-2.389,1.523-3.72-.029-1.519-1.771-2.972-3.598-4.452-5.402-.521-.635-.812-1.313-.452-2.145.374-.865,1.045-1.293,1.954-1.309,1.614-.027,3.228-.008,4.842-.008v-.013Z"/>
    </g>
    <text class="cls-35" transform="translate(557.815 485.993)"><tspan x="0" y="0">과(와)</tspan></text>
    <text class="cls-35" transform="translate(694.847 485.993)"><tspan x="0" y="0">을(를) 합친 값</tspan></text>
    <g>
      <path class="cls-23" d="m644.224,498.833c-10.975,0-19.903-8.928-19.903-19.903s8.929-19.903,19.903-19.903h17.059c10.975,0,19.903,8.929,19.903,19.903s-8.929,19.903-19.903,19.903h-17.059Z"/>
      <path class="cls-25" d="m661.283,460.027c10.423,0,18.903,8.48,18.903,18.903s-8.48,18.903-18.903,18.903h-17.059c-10.423,0-18.903-8.48-18.903-18.903s8.48-18.903,18.903-18.903h17.059m0-2h-17.059c-11.497,0-20.903,9.406-20.903,20.903s9.406,20.903,20.903,20.903h17.059c11.497,0,20.903-9.406,20.903-20.903s-9.406-20.903-20.903-20.903h0Z"/>
    </g>
    <text class="cls-34" transform="translate(637.244 486.961)"><tspan x="0" y="0">는?</tspan></text>
    <g>
      <path class="cls-3" d="m586.487,780.328H129.388l-12.808,11.226-13.102-11.226v-53.963l12.441,11.461,12.387-11.471,447.713-.091c16.083,0,29.097-13.806,27.779-30.151-1.175-14.565-13.733-25.591-28.345-25.591H101.589l-12.543,11.548-12.023-10.98c-.238-.217-.622-.048-.622.274l.171,140.529,12.379,11.613,12.516-11.613h485.02c8.716,0,15.782-7.066,15.782-15.783s-7.066-15.783-15.782-15.783Z"/>
      <path class="cls-19" d="m593.768,698.437c.233,11.599-9.583,22.21-22.59,21.903-11.361-.268-21.522-9.45-21.508-22.104.014-12.581,10.427-22.278,22.629-21.994,11.969.279,21.786,10.209,21.47,22.194Z"/>
      <path class="cls-18" d="m579.851,699.969c-.095,0-.185.021-.279.028l-4.684-7.075c.647-.892.942-2.055.623-3.302-.356-1.388-1.5-2.504-2.899-2.812-2.553-.562-4.81,1.366-4.81,3.821,0,.859.284,1.646.753,2.292l-4.684,7.075c-.094-.007-.183-.028-.279-.028-2.466,0-4.4,2.277-3.814,4.843.323,1.416,1.474,2.567,2.89,2.89,2.566.586,4.843-1.348,4.843-3.814,0-1.153-.507-2.18-1.3-2.897l4.386-6.625c.358.108.731.183,1.124.183s.766-.076,1.124-.183l4.386,6.625c-1.013.917-1.56,2.338-1.178,3.884.344,1.389,1.482,2.51,2.877,2.828,2.564.583,4.839-1.35,4.839-3.815,0-2.165-1.755-3.919-3.919-3.919Z"/>
      <text class="cls-29" transform="translate(444.702 706.193)"><tspan x="0" y="0">(이)라면</tspan></text>
      <text class="cls-29" transform="translate(106.443 706.193)"><tspan x="0" y="0">만일</tspan></text>
      <g>
        <g>
          <polygon class="cls-21" points="186.651 718.194 171.124 698.291 186.651 678.388 413.614 678.388 429.14 698.291 413.614 718.194 186.651 718.194"/>
          <path class="cls-14" d="m413.126,679.388l14.746,18.903-14.746,18.903h-225.987l-14.746-18.903,14.746-18.903h225.987m.976-2h-227.939l-16.306,20.903,16.306,20.903h227.939l16.306-20.903-16.306-20.903h0Z"/>
        </g>
        <g>
          <path class="cls-20" d="m205.953,718.194c-10.975,0-19.903-8.928-19.903-19.903s8.928-19.903,19.903-19.903h86.621c10.975,0,19.903,8.929,19.903,19.903s-8.929,19.903-19.903,19.903h-86.621Z"/>
          <path class="cls-9" d="m292.574,679.388c10.423,0,18.903,8.48,18.903,18.903s-8.48,18.903-18.903,18.903h-86.621c-10.423,0-18.903-8.48-18.903-18.903s8.48-18.903,18.903-18.903h86.621m0-2h-86.621c-11.497,0-20.903,9.406-20.903,20.903s9.406,20.903,20.903,20.903h86.621c11.497,0,20.903-9.406,20.903-20.903s-9.406-20.903-20.903-20.903h0Z"/>
        </g>
        <rect class="cls-9" x="200.534" y="678.807" width="64.301" height="38.968" rx="3.871" ry="3.871"/>
        <text class="cls-33" transform="translate(277.744 705.354)"><tspan x="0" y="0">값</tspan></text>
        <text class="cls-33" transform="translate(211.059 705.355)"><tspan x="0" y="0">ok</tspan></text>
        <path class="cls-11" d="m249.141,693.614c1.503,0,3.006-.003,4.509.001.951.003,1.744.288,2.197,1.211.47.958.064,1.702-.534,2.425-1.451,1.754-2.859,3.543-4.343,5.268-1.318,1.533-2.389,1.523-3.72-.029-1.519-1.771-2.972-3.598-4.452-5.402-.521-.635-.812-1.313-.452-2.145.374-.865,1.045-1.293,1.954-1.309,1.614-.027,3.228-.008,4.842-.008v-.013Z"/>
        <rect class="cls-14" x="327.542" y="678.485" width="30.968" height="39.613" rx="3.355" ry="3.355"/>
        <g>
          <path class="cls-23" d="m393.189,718.194c-10.975,0-19.903-8.928-19.903-19.903s8.929-19.903,19.903-19.903,19.903,8.929,19.903,19.903-8.929,19.903-19.903,19.903Z"/>
          <path class="cls-25" d="m393.189,679.388c10.423,0,18.903,8.48,18.903,18.903s-8.48,18.903-18.903,18.903-18.903-8.48-18.903-18.903,8.48-18.903,18.903-18.903m0-2h0c-11.497,0-20.903,9.406-20.903,20.903s9.406,20.903,20.903,20.903h0c11.497,0,20.903-9.406,20.903-20.903s-9.406-20.903-20.903-20.903h0Z"/>
        </g>
        <text class="cls-36" transform="translate(385.937 705.354)"><tspan x="0" y="0">2</tspan></text>
      </g>
      <text class="cls-30" transform="translate(335.94 703.662)"><tspan x="0" y="0">=</tspan></text>
    </g>
    <g>
      <path class="cls-2" d="m877.865,725.886H128.557l-12.543,11.141-12.024-10.593c-.238-.21-.622-.047-.622.265v52.811c0,.098.042.191.115.259l12.53,11.31,12.351-11.415h749.887c15.484,0,27.484-12.1,27.484-26.888h0c0-14.789-12.542-26.888-27.871-26.888Z"/>
      <path class="cls-12" d="m853.58,753.279c.085-12.114,9.79-22.01,22.342-21.937,12.159.071,22.178,9.883,21.961,22.471-.203,11.764-9.754,21.773-22.498,21.598-12.042-.166-21.794-9.762-21.805-22.132Z"/>
      <path class="cls-27" d="m876.48,754.717c2.854.024,5.612,2.731,5.624,5.52.014,3.13-2.722,5.849-5.866,5.829-3.016-.018-5.566-2.746-5.533-5.919.031-3.007,2.636-5.457,5.775-5.43Z"/>
      <rect class="cls-27" x="878.867" y="745.101" width="9.448" height="9.448" transform="translate(789.004 -405.174) rotate(45)"/>
      <polygon class="cls-27" points="874.71 752.78 874.71 746.348 869.139 743.131 863.569 746.348 863.569 752.78 869.139 755.997 874.71 752.78"/>
      <rect class="cls-10" x="742.966" y="733.894" width="95.645" height="38.968" rx="3.871" ry="3.871"/>
      <text class="cls-33" transform="translate(753.491 760.442)"><tspan x="0" y="0">말하기</tspan></text>
      <path class="cls-11" d="m822.112,748.701c1.503,0,3.006-.003,4.509.001.951.003,1.744.288,2.197,1.211.47.958.064,1.702-.534,2.425-1.451,1.754-2.859,3.543-4.343,5.268-1.318,1.533-2.389,1.523-3.72-.029-1.519-1.771-2.972-3.598-4.452-5.402-.521-.635-.812-1.313-.452-2.145.374-.865,1.045-1.293,1.954-1.309,1.614-.027,3.228-.008,4.842-.008v-.013Z"/>
      <g>
        <path class="cls-23" d="m610.674,772.895c-10.975,0-19.903-8.929-19.903-19.903s8.929-19.903,19.903-19.903,19.903,8.928,19.903,19.903-8.929,19.903-19.903,19.903Z"/>
        <path class="cls-25" d="m610.674,734.089c10.423,0,18.903,8.48,18.903,18.903s-8.48,18.903-18.903,18.903-18.903-8.48-18.903-18.903,8.48-18.903,18.903-18.903m0-2h0c-11.497,0-20.903,9.406-20.903,20.903s9.406,20.903,20.903,20.903h0c11.497,0,20.903-9.406,20.903-20.903h0c0-11.497-9.406-20.903-20.903-20.903h0Z"/>
      </g>
      <text class="cls-36" transform="translate(603.969 760.056)"><tspan x="0" y="0">3</tspan></text>
      <text class="cls-31" transform="translate(511.357 761.34)"><tspan x="0" y="0">을(를)</tspan></text>
      <text class="cls-31" transform="translate(648.765 761.34)"><tspan x="0" y="0">초 동안</tspan></text>
      <g>
        <g>
          <path class="cls-23" d="m142.209,772.895c-10.975,0-19.903-8.929-19.903-19.903s8.929-19.903,19.903-19.903h333.627c10.975,0,19.903,8.928,19.903,19.903s-8.929,19.903-19.903,19.903H142.209Z"/>
          <path class="cls-25" d="m475.836,734.089c10.423,0,18.903,8.48,18.903,18.903s-8.48,18.903-18.903,18.903H142.209c-10.423,0-18.903-8.48-18.903-18.903s8.48-18.903,18.903-18.903h333.627m0-2H142.209c-11.497,0-20.903,9.406-20.903,20.903s9.406,20.903,20.903,20.903h333.627c11.497,0,20.903-9.406,20.903-20.903s-9.406-20.903-20.903-20.903h0Z"/>
        </g>
        <text class="cls-34" transform="translate(137.746 760.056)"><tspan x="0" y="0">이제 한 문제만 더 맞추면 탈출할 수 있어!</tspan></text>
      </g>
    </g>
  </g>
  <rect class="cls-6" x="129.556" y="235.012" width="113.457" height="42.839" rx="10" ry="10"/>
  <rect class="cls-6" x="129.556" y="991.084" width="113.457" height="42.839" rx="10" ry="10"/>
  <rect class="cls-6" x="564.884" y="345.993" width="134.084" height="42.839" rx="10" ry="10"/>
  <rect class="cls-6" x="564.884" y="401.261" width="134.084" height="42.839" rx="10" ry="10"/>
  <rect class="cls-6" x="304.34" y="511.828" width="28.556" height="42.839" rx="5.059" ry="5.059"/>
  <rect class="cls-6" x="493.38" y="511.828" width="31.101" height="42.839" rx="5.059" ry="5.059"/>
  <rect class="cls-6" x="540.42" y="511.828" width="66.122" height="42.839" rx="10" ry="10"/>
  <rect class="cls-6" x="182.686" y="620.836" width="206.197" height="42.839" rx="10" ry="10"/>
  <rect class="cls-6" x="128.198" y="70.917" width="265.956" height="42.839" rx="10" ry="10"/>
  <rect class="cls-17" x="170.179" y="512.344" width="121.427" height="41.806" rx="20.903" ry="20.903"/>
  <rect class="cls-17" x="344.671" y="512.344" width="121.427" height="41.806" rx="20.903" ry="20.903"/>
  <rect class="cls-17" x="225.338" y="346.509" width="327.092" height="41.806" rx="20.903" ry="20.903"/>
  <rect class="cls-17" x="225.338" y="402.2" width="327.092" height="41.806" rx="20.903" ry="20.903"/>
  <rect class="cls-17" x="185.05" y="677.388" width="128.428" height="41.806" rx="20.903" ry="20.903"/>
  <rect class="cls-17" x="327.542" y="678.485" width="30.968" height="39.613" rx="3.355" ry="3.355"/>
  <rect class="cls-17" x="372.286" y="677.388" width="41.806" height="41.806" rx="20.903" ry="20.903"/>
  <rect class="cls-17" x="52.499" y="1046.507" width="115.364" height="41.806" rx="20.903" ry="20.903"/>
  <text class="cls-30" transform="translate(215.862 317.704)"><tspan x="0" y="0">=</tspan></text>
  <rect class="cls-6" x="338.618" y="292.338" width="139.795" height="39.613" rx="3.355" ry="3.355"/>
  <rect class="cls-6" x="252.246" y="291.241" width="41.806" height="41.806" rx="20.903" ry="20.903"/>
</svg>