<?xml version="1.0" encoding="UTF-8"?>
<svg id="_레이어_2" data-name="레이어 2" xmlns="http://www.w3.org/2000/svg" viewBox="0 0 320.653 204.83">
  <defs>
    <style>
      .cls-1 {
        font-size: 26px;
      }

      .cls-1, .cls-2, .cls-3 {
        fill: #fff;
      }

      .cls-1, .cls-3 {
        font-family: D2Coding, D2Coding;
      }

      .cls-4 {
        fill: #d400d4;
        stroke: #9f009f;
      }

      .cls-4, .cls-5, .cls-6 {
        stroke-miterlimit: 10;
        stroke-width: 1.5px;
      }

      .cls-2, .cls-7 {
        stroke-width: 0px;
      }

      .cls-3 {
        font-size: 26.581px;
      }

      .cls-5 {
        fill: #1e90ff;
        stroke: #176cbf;
      }

      .cls-7 {
        fill: #c91539;
      }

      .cls-6 {
        fill: #dc143c;
        stroke: #a50f2d;
      }
    </style>
  </defs>
  <g>
    <path class="cls-4" d="m84.158,166.255h-21.05c-1.723,0-3.364-.74-4.505-2.031l-8.586-9.72c-1.141-1.292-2.781-2.031-4.505-2.031h-13.331c-3.32,0-6.011-2.691-6.011-6.011v-63.287c0-3.32,2.691-6.011,6.011-6.011h13.331c1.723,0,3.364.74,4.505,2.031l8.586,9.72c1.141,1.292,2.781,2.031,4.505,2.031h21.05c1.691,0,3.304-.712,4.443-1.963l8.981-9.857c1.139-1.25,2.752-1.963,4.443-1.963h165.297c3.32,0,6.011-2.691,6.011-6.011V6.761c0-3.32-2.691-6.011-6.011-6.011H6.761C3.441.75.75,3.441.75,6.761v191.309c0,3.32,2.691,6.011,6.011,6.011h260.561c3.32,0,6.011-2.691,6.011-6.011v-39.586c0-3.32-2.691-6.011-6.011-6.011H102.025c-1.691,0-3.304.712-4.443,1.963l-8.981,9.857c-1.139,1.25-2.752,1.963-4.443,1.963Z"/>
    <rect class="cls-4" x="13.46" y="13.843" width="70.29" height="50.382" rx="5.743" ry="5.743"/>
    <g>
      <path class="cls-2" d="m109.771,35.555h5.503v-8.254h2.212v23.477h-2.212v-13.294h-5.503v6.891h-10.492l.026-15.3h2.263v5.811h6.017v-5.811h2.186v6.48Zm-2.16,1.209h-6.069v5.734h6.069v-5.734Z"/>
      <path class="cls-2" d="m145.771,40.029v1.903h-22.372v-1.903h22.372Zm-3.163,10.388h-15.557v-6.531h2.211v4.603h13.346v1.929Zm-15.48-12.368v-10.106h14.734v1.903h-12.523v2.289h12.317v1.8h-12.317v2.263h12.883v1.851h-15.094Z"/>
      <path class="cls-2" d="m162.228,42.395v-1.877h21.857v1.877h-9.566v8.254h-2.263v-8.254h-10.028Zm3.883-5.349v-9.18h2.263v7.277h12.934v1.903h-15.197Z"/>
      <path class="cls-2" d="m210.056,38.178v1.8h-22.372v-1.8h22.372Zm-18.874,12.6v-5.426h13.191v-1.929h-13.191v-1.8h15.377v5.426h-13.191v1.929h13.809v1.8h-15.994Zm.103-22.911h14.991v5.246h-12.78v1.8h13.346v1.723h-15.557v-5.169h12.806v-1.774h-12.806v-1.826Z"/>
      <path class="cls-2" d="m232.556,41.958v1.851c-.411.138-.896.249-1.453.334-.557.086-1.136.129-1.736.129h-2.185v-14.889h4.963v1.877h-2.751v11.083h.643c.531,0,1.011-.039,1.44-.116.428-.077.789-.167,1.08-.27Zm6.583-.103v1.826c-.394.172-.926.313-1.594.424-.668.112-1.371.167-2.109.167h-2.185v-14.889h4.86v1.877h-2.726v11.109h.591c.651,0,1.264-.055,1.839-.167.574-.111,1.016-.227,1.324-.347Zm7.431,8.923h-2.134v-12.934h-2.34v12.343h-2.083v-22.628h2.083v8.383h2.34v-8.64h2.134v23.477Z"/>
    </g>
    <path class="cls-2" d="m62.3,43.54l-6.78-6.353c-.801-.75-.27-2.093.827-2.093h13.56c1.097,0,1.628,1.343.827,2.093l-6.78,6.353c-.465.436-1.189.436-1.655,0Z"/>
    <path class="cls-2" d="m37.103,46.945h-5.194v-17.434h5.22c.583,0,1.161.09,1.736.27.574.18,1.08.446,1.517.797.437.352.793.78,1.067,1.286.274.506.411,1.093.411,1.761,0,1.149-.27,2.027-.81,2.636-.54.609-1.222,1.025-2.044,1.247v.051c1.029.154,1.868.617,2.52,1.389.651.771.977,1.826.977,3.163,0,.755-.128,1.436-.386,2.044-.257.609-.626,1.118-1.106,1.53-.48.411-1.05.729-1.71.952-.66.223-1.393.326-2.199.308Zm-.411-15.557h-2.597v5.297h2.263c.463,0,.887-.042,1.273-.128.386-.086.724-.24,1.016-.463.291-.223.518-.51.681-.861.163-.351.244-.801.244-1.35,0-.874-.248-1.508-.746-1.903-.497-.394-1.208-.591-2.134-.591Zm-.231,7.097h-2.366v6.583h2.649c1.028,0,1.851-.235,2.469-.707.617-.471.926-1.29.926-2.456,0-1.269-.313-2.156-.939-2.661-.626-.506-1.539-.759-2.738-.759Z"/>
  </g>
  <g>
    <g>
      <path class="cls-5" d="m102.152,77.288c-1.691,0-3.304.712-4.443,1.962l-8.981,9.857c-1.139,1.25-2.752,1.963-4.443,1.963h-21.051c-1.723,0-3.364-.74-4.505-2.031l-8.586-9.72c-1.141-1.292-2.781-2.031-4.505-2.031h-13.331c-3.32,0-6.011,2.691-6.011,6.011v63.097c0,3.32,2.691,6.011,6.011,6.011h13.331c1.723,0,3.364.74,4.505,2.031l8.586,9.72c1.141,1.292,2.781,2.031,4.505,2.031h21.051c1.691,0,3.304-.712,4.443-1.963l8.981-9.857c1.139-1.25,2.752-1.962,4.443-1.962h212.04c3.154,0,5.711-2.557,5.711-5.711v-63.697c0-3.154-2.557-5.711-5.711-5.711H102.152Z"/>
      <text class="cls-3" transform="translate(38.837 122.458)"><tspan x="0" y="0">숫자 출력</tspan></text>
    </g>
    <g>
      <path class="cls-6" d="m165.258,114.48h0c0,14.93,13.004,27.032,29.044,27.032h85.937c16.041,0,29.044-12.103,29.044-27.032h0c0-14.93-13.004-27.032-29.044-27.032h-85.937c-16.041,0-29.044,12.103-29.044,27.032Z"/>
      <g>
        <text class="cls-1" transform="translate(178.705 121.799)"><tspan x="0" y="0">걸음 수</tspan></text>
        <g>
          <path class="cls-2" d="m286.263,119.367c-.437,0-.852-.164-1.17-.462l-6.78-6.354c-.516-.482-.681-1.219-.421-1.875.26-.657.884-1.082,1.591-1.082h13.56c.706,0,1.331.424,1.59,1.082.26.657.095,1.394-.421,1.876l-6.779,6.354c-.318.298-.733.462-1.169.462Z"/>
          <path class="cls-7" d="m293.043,110.093c1.097,0,1.628,1.343.827,2.093l-6.78,6.353c-.233.218-.53.327-.828.327s-.595-.109-.827-.327l-6.78-6.353c-.801-.75-.27-2.093.828-2.093h13.56m0-1h-13.56c-.913,0-1.72.549-2.055,1.398-.336.849-.122,1.801.544,2.425l6.78,6.353c.411.385.948.597,1.511.597s1.1-.212,1.511-.597l6.78-6.353c.666-.624.88-1.576.544-2.425-.336-.849-1.142-1.398-2.055-1.398h0Z"/>
        </g>
      </g>
    </g>
  </g>
</svg>