<?xml version="1.0" encoding="UTF-8"?>
<svg id="_레이어_1" data-name="레이어 1" xmlns="http://www.w3.org/2000/svg" viewBox="0 0 304.25 231.683">
  <defs>
    <style>
      .cls-1 {
        fill: #fff;
        font-size: 22px;
        letter-spacing: -.025em;
      }

      .cls-1, .cls-2 {
        font-family: Pretendard-Bold-KSCpc-EUC-H, Pretendard;
        font-weight: 700;
      }

      .cls-3 {
        fill: #1b3ad8;
      }

      .cls-3, .cls-4, .cls-5, .cls-6 {
        stroke-width: 0px;
      }

      .cls-2 {
        fill: #fefefe;
        font-size: 26px;
      }

      .cls-7 {
        fill: #19baea;
        stroke: #1498c0;
        stroke-linecap: round;
        stroke-linejoin: round;
        stroke-width: 2px;
      }

      .cls-4 {
        fill: #6dddfe;
      }

      .cls-5 {
        fill: #1498c0;
      }

      .cls-6 {
        fill: #4562f5;
      }
    </style>
  </defs>
  <path class="cls-7" d="m287.468,187.505H52.706l-11.613,11.226-13.016-11.226v-36.375l12.581,11.281,12.387-11.471,222.335-.092c16.083,0,29.097-13.805,27.779-30.15-1.175-14.565-13.733-25.591-28.345-25.591H53.376l-12.543,11.548-12.756-10.81v-39.002l12.441,11.461,12.387-11.472,222.474-.091c16.083,0,29.097-13.806,27.779-30.15-1.175-14.565-13.733-25.592-28.345-25.592H26.188l-12.543,11.549L1.622,1.568c-.238-.218-.622-.049-.622.274l.171,217.228,12.379,11.613,12.516-11.613h261.401c8.716,0,15.782-7.066,15.782-15.783s-7.066-15.783-15.782-15.783Z"/>
  <text class="cls-2" transform="translate(166.431 36.672)"><tspan x="0" y="0">이라면</tspan></text>
  <text class="cls-2" transform="translate(36.232 36.672)"><tspan x="0" y="0">만일</tspan></text>
  <g>
    <g>
      <polygon class="cls-6" points="114.021 48.673 98.494 28.77 114.021 8.867 133.172 8.867 148.699 28.77 133.172 48.673 114.021 48.673"/>
      <path class="cls-3" d="m132.684,9.867l14.746,18.903-14.746,18.903h-18.175l-14.746-18.903,14.746-18.903h18.175m.976-2h-20.128l-16.306,20.903,16.306,20.903h20.128l16.306-20.903-16.306-20.903h0Z"/>
    </g>
    <text class="cls-1" transform="translate(115.426 35.833)"><tspan x="0" y="0">참</tspan></text>
  </g>
  <path class="cls-5" d="m293.128,29.067c.233,11.599-9.583,22.21-22.59,21.903-11.361-.268-21.522-9.45-21.508-22.104.014-12.581,10.427-22.278,22.629-21.994,11.969.279,21.786,10.209,21.47,22.194Z"/>
  <path class="cls-4" d="m279.211,30.599c-.095,0-.185.021-.279.028l-4.684-7.075c.647-.892.942-2.055.623-3.302-.356-1.388-1.5-2.504-2.899-2.812-2.553-.562-4.81,1.366-4.81,3.821,0,.859.284,1.646.753,2.292l-4.684,7.075c-.094-.007-.183-.028-.279-.028-2.466,0-4.4,2.277-3.814,4.843.323,1.416,1.474,2.567,2.89,2.89,2.566.586,4.843-1.348,4.843-3.814,0-1.153-.507-2.18-1.3-2.897l4.386-6.625c.358.108.731.183,1.124.183s.766-.076,1.124-.183l4.386,6.625c-1.013.917-1.56,2.338-1.178,3.884.344,1.389,1.482,2.51,2.877,2.828,2.564.583,4.839-1.35,4.839-3.815,0-2.165-1.755-3.919-3.919-3.919Z"/>
  <text class="cls-2" transform="translate(56.274 134.149)"><tspan x="0" y="0">아니면</tspan></text>
</svg>