<?xml version="1.0" encoding="UTF-8"?>
<svg id="_레이어_1" data-name="레이어 1" xmlns="http://www.w3.org/2000/svg" viewBox="0 0 249.806 249.806">
  <defs>
    <style>
      .cls-1 {
        font-family: Pretendard-Bold-KSCpc-EUC-H, Pretendard;
        font-size: 26px;
        font-weight: 700;
        letter-spacing: -.025em;
      }

      .cls-2 {
        fill: #f6f3d3;
      }

      .cls-2, .cls-3, .cls-4 {
        stroke-width: 0px;
      }

      .cls-3 {
        fill: #feffff;
      }

      .cls-4 {
        fill: #feb910;
      }
    </style>
  </defs>
  <rect class="cls-2" y="0" width="249.806" height="249.806"/>
  <g>
    <text class="cls-1" transform="translate(29.027 228.6)"><tspan x="0" y="0">여기로 옮겨 버리기</tspan></text>
    <g>
      <path class="cls-3" d="m164.119,95.843c-1.305,23.928-2.631,47.855-3.95,71.782-.005.093-.027.186-.033.279q-.471,7.927-8.419,9.383c-13.208,2.396-26.534,3.143-39.902,2.211-8.166-.569-16.331-1.499-24.415-2.784-5.086-.808-5.075-1.234-5.371-6.214-1.781-29.995-3.534-59.992-5.289-89.988-.016-.269.064-.544.092-.761,6.16,1.337,12.108,2.913,18.153,3.879,12.771,2.041,25.663,2.351,38.564,1.786,5.684-.249,11.349-1.191,17.025-1.216,2.615-.012,5.356,1.154,7.831,2.257,6.09,2.714,6.071,2.825,5.714,9.386Z"/>
      <path class="cls-3" d="m93.04,22.857c.778,1.178,1.327,2.64,2.371,3.491,9.256,7.54,18.401,15.24,27.967,22.369,13.27,9.89,27.608,18.089,42.48,25.342,2.401,1.171,4.248.046,5.749-1.465,1.709-1.721.56-3.421-.717-4.935-5.48-6.5-10.822-13.124-16.456-19.487-8.124-9.176-18.237-15.772-29.403-20.426-8.583-3.577-17.653-5.985-26.518-8.878-3.248-1.06-5.067.315-5.474,3.989Zm54.735,11.846c1.871-1.856,2.866-3.726,1.998-6.161-.729-2.048-4.295-4.56-6.558-4.622-2.889-.079-4.243,1.856-5.419,4.224,3.281,2.157,6.515,4.283,9.978,6.56Z"/>
      <path class="cls-4" d="m168.128,84.64c-4.063-1.871-8.082-3.839-12.176-5.637-1.061-.466-1.519-.496-2.685-.45-12.302.485-20.153,1.942-32.447,1.819-13.722-.138-33.342-1.603-46.051-7.712-1.945-.935-3.704.343-3.835,1.245s0,1.685,0,2.248,1.607,23.841,2.333,35.766c1.278,20.988,2.515,41.978,3.707,62.971.139,2.453,1.257,3.952,3.376,4.994,0,0,12.242,4.811,41.342,4.811s39.908-5.046,39.908-5.046c2.557-.803,3.678-2.903,3.814-5.862.653-14.207,1.565-28.401,2.357-42.602.786-14.106,1.533-28.214,2.314-42.321.099-1.785-.075-3.359-1.959-4.226Zm-4.009,11.203c-1.305,23.928-2.631,47.855-3.95,71.782-.005.093-.027.186-.033.279q-.471,7.927-8.419,9.383c-13.208,2.396-26.534,3.143-39.902,2.211-8.166-.569-16.331-1.499-24.415-2.784-5.086-.808-5.075-1.234-5.371-6.214-1.781-29.995-3.534-59.992-5.289-89.988-.016-.269.064-.544.092-.761,6.16,1.337,12.108,2.913,18.153,3.879,12.771,2.041,25.663,2.351,38.564,1.786,5.684-.249,11.349-1.191,17.025-1.216,2.615-.012,5.356,1.154,7.831,2.257,6.09,2.714,6.071,2.825,5.714,9.386Z"/>
      <path class="cls-4" d="m132.919,24.657c6.934-7.642,11.145-8.405,18.263-3.133,5.398,3.998,5.825,9.437,1.52,16.436,7.496,8.822,14.953,17.523,22.321,26.297,4.64,5.525,2.904,11.884-3.687,14.754-2.809,1.223-5.108,1.074-7.887-.265-26.659-12.843-50.893-29.243-72.694-49.263-2.808-2.578-3.572-7.687-1.78-11.617,1.537-3.371,5.204-5.295,9.339-4.549,2.46.443,4.854,1.312,7.237,2.108,9.094,3.039,18.172,6.126,27.366,9.231Zm-39.879-1.799c.778,1.178,1.327,2.64,2.371,3.491,9.256,7.54,18.401,15.24,27.967,22.369,13.27,9.89,27.608,18.089,42.48,25.342,2.401,1.171,4.248.046,5.749-1.465,1.709-1.721.56-3.421-.717-4.935-5.48-6.5-10.822-13.124-16.456-19.487-8.124-9.176-18.237-15.772-29.403-20.426-8.583-3.577-17.653-5.985-26.518-8.878-3.248-1.06-5.067.315-5.474,3.989Zm54.735,11.846c1.871-1.856,2.866-3.726,1.998-6.161-.729-2.048-4.295-4.56-6.558-4.622-2.889-.079-4.243,1.856-5.419,4.224,3.281,2.157,6.515,4.283,9.978,6.56Z"/>
      <path class="cls-4" d="m141.918,74.48c-8.003.728-15.381,1.323-23.071,1.237-12.147-.136-24.12-1.578-35.857-5.02-2.72-.798-5.669-1.754-8.003-3.347-2.736-1.868-2.612-4.095.228-5.755,3.014-1.76,10.714-4.222,14.103-4.867,7.949-1.513,11.495-2.255,19.672-2.667.774-.039,1.755.019,2.379.433,10.148,6.739,19.72,12.718,30.547,19.984Z"/>
      <path class="cls-4" d="m137.13,94.541c-2.442-.109-3.522,1.354-3.74,3.618l-1.934,61.449c-.054,1.877,1.174,3.796,3.672,3.796s3.26-2.304,3.26-3.007,2.008-62.087,2.008-62.087c.028-2.11-.935-3.665-3.266-3.769Z"/>
      <path class="cls-4" d="m104.386,94.541c2.442-.109,3.522,1.354,3.74,3.618l1.934,61.449c.054,1.877-1.174,3.796-3.672,3.796s-3.26-2.304-3.26-3.007c0-.703-2.008-62.087-2.008-62.087-.028-2.11.935-3.665,3.266-3.769Z"/>
      <path class="cls-4" d="m84.827,102.731c-.123-1.867-.28-3.732-.361-5.6-.093-2.155.812-3.835,3.046-3.956,2.277-.124,3.596,1.3,3.761,3.641.505,7.182,1.035,14.362,1.499,21.546.82,12.689,1.6,25.381,2.395,38.072.035.56.073,1.121.084,1.681.037,2.039-.391,3.784-2.835,4.06-2.168.245-3.698-1.13-3.953-3.737-.309-3.163-.461-6.342-.667-9.516-1-15.397-1.996-30.794-2.993-46.191l.024-.002Z"/>
      <path class="cls-4" d="m157.759,96.8c-1.352,20.922-2.643,40.898-3.937,60.874-.024.372-.075.744-.136,1.113-.353,2.159-1.586,3.461-3.806,3.255-2.284-.211-3.104-1.812-2.966-3.974.944-14.748,1.889-29.496,2.844-44.243.356-5.506.707-11.013,1.126-16.514.217-2.857,1.7-4.467,3.839-4.156,2.637.383,3.067,2.353,3.035,3.645Z"/>
      <path class="cls-4" d="m124.261,130.602c0,9.826.006,19.652-.003,29.477-.003,3.12-1.262,4.787-3.5,4.705-2.151-.079-3.305-1.642-3.307-4.628-.018-19.745-.02-39.49-.024-59.235,0-.654-.027-1.32.078-1.961.306-1.867,1.283-3.155,3.311-3.136,2.124.02,3.305,1.277,3.399,3.337.123,2.709.065,5.426.067,8.14.005,7.767.002,15.534.002,23.301h-.022Z"/>
    </g>
  </g>
</svg>