<?xml version="1.0" encoding="UTF-8"?>
<svg id="_레이어_1" data-name="레이어 1" xmlns="http://www.w3.org/2000/svg" viewBox="0 0 1080.82 554.728">
  <defs>
    <style>
      .cls-1, .cls-2, .cls-3, .cls-4, .cls-5, .cls-6, .cls-7, .cls-8, .cls-9, .cls-10, .cls-11, .cls-12, .cls-13, .cls-14, .cls-15, .cls-16, .cls-17, .cls-18, .cls-19, .cls-20, .cls-21, .cls-22 {
        stroke-width: 0px;
      }

      .cls-1, .cls-23, .cls-24, .cls-25, .cls-26 {
        fill: #fefefe;
      }

      .cls-2 {
        fill: #009400;
      }

      .cls-3 {
        fill: #dc47d7;
      }

      .cls-27 {
        letter-spacing: -.032em;
      }

      .cls-4 {
        fill: #b819b3;
      }

      .cls-5 {
        fill: #c72042;
      }

      .cls-28, .cls-23, .cls-24, .cls-29, .cls-25, .cls-30, .cls-26, .cls-31 {
        font-family: Pretendard-Bold-KSCpc-EUC-H, Pretendard;
        font-weight: 700;
      }

      .cls-28, .cls-11, .cls-31 {
        fill: #fff;
      }

      .cls-28, .cls-24, .cls-29, .cls-30, .cls-31 {
        font-size: 22px;
      }

      .cls-28, .cls-29 {
        letter-spacing: -.025em;
      }

      .cls-6 {
        fill: #fefdfe;
      }

      .cls-7 {
        fill: #c62042;
      }

      .cls-32 {
        fill: #fe3a61;
        stroke: #c62142;
      }

      .cls-32, .cls-33, .cls-34 {
        stroke-linecap: round;
        stroke-linejoin: round;
        stroke-width: 2px;
      }

      .cls-35 {
        letter-spacing: -.042em;
      }

      .cls-8 {
        fill: none;
      }

      .cls-9 {
        fill: #1b3ad8;
      }

      .cls-23, .cls-25, .cls-26 {
        font-size: 26px;
      }

      .cls-10 {
        fill: #b719b2;
      }

      .cls-33 {
        fill: #19baea;
        stroke: #1498c0;
      }

      .cls-36 {
        letter-spacing: -.01em;
      }

      .cls-12 {
        fill: #6dddfe;
      }

      .cls-13 {
        fill: #1498c0;
      }

      .cls-14, .cls-34 {
        fill: #dd47d8;
      }

      .cls-15 {
        fill: #4562f5;
      }

      .cls-34 {
        stroke: #b819b3;
      }

      .cls-16 {
        fill: #f577f1;
      }

      .cls-17 {
        fill: #fedd81;
      }

      .cls-18 {
        fill: #f677f2;
      }

      .cls-25 {
        letter-spacing: -.025em;
      }

      .cls-19 {
        fill: #fe9b00;
      }

      .cls-37 {
        letter-spacing: -.01em;
      }

      .cls-26 {
        letter-spacing: -.01em;
      }

      .cls-20 {
        fill: #f2f2f2;
      }

      .cls-21 {
        fill: #fe5576;
      }

      .cls-22 {
        fill: #00b300;
      }
    </style>
  </defs>
  <g>
    <g>
      <g>
        <g>
          <path class="cls-22" d="m21.639,65.056s-5.2-2.719-7.532-4.568c-7.301-5.786-11.647-13.18-12.825-22.461C.211,29.585,2.193,21.881,7.066,15.042,12.681,7.163,20.381,2.466,30.1,1.277c9.447-1.156,17.928,1.343,25.093,7.428,2.309,1.961,4.441,2.392,7.168,2.399,81.918.211,208.299.465,290.217.713,13.081.04,24.448,9.349,26.741,22.14,2.77,15.451-7.86,29.794-23.175,31.684-.205.025-.396.168-.594.256-.891.016-1.782.048-2.673.045-87.321-.261-217.679-.521-304.556-.82-.618-.002-1.189.276-1.6.738-3.002,3.368-7.553,6.555-10.8,9.874-.791.809-1.254.903-2.094.031-3.131-3.25-7.215-6.419-10.402-9.615-.505-.507-1.787-1.095-1.787-1.095Z"/>
          <path class="cls-2" d="m34.858,77.381h-.007c-.761-.003-1.331-.494-1.743-.922-1.629-1.691-3.568-3.401-5.442-5.054-1.684-1.485-3.426-3.021-4.947-4.548-.256-.257-1.045-.685-1.497-.893l-.046-.022c-.216-.113-5.311-2.784-7.69-4.67C5.915,55.272,1.475,47.493.29,38.153c-1.095-8.632.911-16.603,5.962-23.691C12.092,6.266,20.075,1.496,29.978.284c9.769-1.195,18.471,1.381,25.862,7.659,2.119,1.799,3.996,2.155,6.523,2.161,31.289.081,69.063.167,108.37.258,63.604.146,131.218.302,181.847.455,13.686.042,25.345,9.7,27.723,22.964,1.389,7.748-.392,15.468-5.015,21.738-4.586,6.22-11.341,10.167-19.021,11.115.029,0-.012.026-.054.048-.084.046-.169.091-.255.129l-.186.083-1.036.022c-.621.014-1.239.03-1.861.027-36.774-.11-81.182-.219-126.76-.332-62.686-.155-127.507-.315-177.797-.488h-.003c-.314,0-.616.143-.848.403-1.688,1.895-3.855,3.735-5.95,5.514-1.692,1.438-3.442,2.924-4.88,4.394-.458.469-1.028.948-1.779.948Zm-12.776-13.223c.291.135,1.47.701,2.053,1.287,1.477,1.481,3.194,2.995,4.854,4.46,1.904,1.68,3.874,3.417,5.56,5.167.149.155.249.236.309.278.064-.045.174-.135.35-.314,1.502-1.536,3.289-3.053,5.016-4.52,2.043-1.735,4.156-3.529,5.752-5.321.608-.682,1.461-1.072,2.341-1.072h.009c50.29.173,115.11.333,177.795.488,45.579.113,89.986.222,126.761.332.608-.002,1.206-.013,1.808-.027l.611-.013c.179-.096.417-.216.723-.254,7.129-.879,13.4-4.543,17.657-10.317,4.293-5.823,5.947-12.997,4.656-20.198-2.207-12.312-13.041-21.277-25.76-21.316-50.629-.153-118.242-.309-181.846-.455-39.307-.09-77.082-.177-108.371-.258-2.834-.007-5.248-.458-7.813-2.637-6.947-5.901-15.131-8.324-24.324-7.198C20.898,3.41,13.382,7.903,7.881,15.622c-4.75,6.666-6.636,14.162-5.606,22.278,1.132,8.928,5.206,16.06,12.454,21.804,2.159,1.711,6.989,4.262,7.353,4.454Z"/>
        </g>
        <text class="cls-23" transform="translate(73.78 47.543) rotate(.173)"><tspan x="0" y="0">시작하기 버튼을 클릭했을 때</tspan></text>
        <g>
          <g>
            <path class="cls-1" d="m34.019,61.1c-14.927-.049-27.039-12.211-27-27.111.039-14.888,12.218-26.999,27.15-26.999h.126c14.9.066,26.976,12.265,26.917,27.192-.058,14.843-12.216,26.918-27.103,26.918h-.09Z"/>
            <path class="cls-20" d="m34.17,7.988h0,.12c14.35.064,25.978,11.813,25.922,26.189-.056,14.293-11.766,25.922-26.103,25.922h-.087c-14.375-.047-26.04-11.759-26.003-26.109.037-14.337,11.768-26.001,26.151-26.002m0-2c-15.526.001-28.111,12.502-28.151,27.997-.04,15.453,12.517,28.063,27.997,28.114.032,0,.062,0,.094,0,15.444,0,28.042-12.503,28.103-27.914.06-15.477-12.463-28.128-27.913-28.197-.044,0-.086,0-.129,0h0Z"/>
          </g>
          <path class="cls-22" d="m26.49,33.989c0-2.979-.003-5.959.002-8.938.001-.871-.04-1.782.9-2.272.89-.464,1.669-.113,2.434.376,4.656,2.978,9.324,5.939,13.977,8.921,2.063,1.322,2.073,2.615.042,3.913-4.656,2.976-9.325,5.932-13.976,8.916-.771.494-1.55.863-2.428.428-.92-.456-.963-1.342-.958-2.244.016-3.033.006-6.067.006-9.101Z"/>
        </g>
      </g>
      <g>
        <path class="cls-34" d="m597.246,65.6H47.974s0,0,0,0l-12.543,11.548s0,0,0,0l-12.023-10.98c-.238-.218-.622-.049-.622.274v54.741c0,.047.011.092.028.135h-.003l.004.004c.02.048.048.093.087.13h.056l11.328,10.345c.663.605,1.678.603,2.338-.005l10.91-10.045c.212-.195.49-.304.779-.304l548.935-.101c15.329,0,27.871-12.542,27.871-27.871h0c0-15.329-12.542-27.871-27.871-27.871Z"/>
        <g>
          <path class="cls-10" d="m618.195,93.515c.233,11.599-9.583,22.21-22.59,21.903-11.361-.268-21.522-9.45-21.508-22.104.014-12.581,10.427-22.278,22.629-21.994,11.969.279,21.786,10.209,21.47,22.194Z"/>
          <path class="cls-18" d="m596.463,83.352c1.421.066,3.283.498,4.796,1.905,2.464,2.29,2.614,5.317.342,7.812-.823.903-1.728,1.735-2.634,2.558-.847.769-1.497,1.641-1.723,2.78-.285,1.438-1.202,2.017-2.552,1.624-1.294-.377-1.297-1.572-1.154-2.621.299-2.203,1.86-3.593,3.427-4.952.334-.29.717-.537.999-.87,1.487-1.758,1.36-3.4-.321-4.537-1.47-.995-3.897-.403-4.808,1.208-.326.577-.531,1.221-.815,1.823-.524,1.11-1.42,1.65-2.58,1.204-1.144-.44-1.405-1.351-1.1-2.592.769-3.131,3.806-5.339,8.123-5.343Z"/>
          <path class="cls-16" d="m595.437,106.066c-1.271-.012-2.113-.925-2.059-2.258.054-1.311.741-2.044,2.063-2.095,1.32-.051,2.369,1,2.32,2.267-.048,1.226-1.02,2.098-2.324,2.086Z"/>
        </g>
      </g>
      <g>
        <path class="cls-17" d="m68.944,112.863c-10.975,0-19.903-8.929-19.903-19.903s8.929-19.903,19.903-19.903h194.255c10.975,0,19.903,8.929,19.903,19.903s-8.929,19.903-19.903,19.903H68.944Z"/>
        <path class="cls-19" d="m263.2,74.057c10.423,0,18.903,8.48,18.903,18.903s-8.48,18.903-18.903,18.903H68.944c-10.423,0-18.903-8.48-18.903-18.903s8.48-18.903,18.903-18.903h194.256m0-2H68.944c-11.497,0-20.903,9.406-20.903,20.903h0c0,11.497,9.406,20.903,20.903,20.903h194.256c11.497,0,20.903-9.406,20.903-20.903h0c0-11.497-9.406-20.903-20.903-20.903h0Z"/>
      </g>
      <text class="cls-30" transform="translate(66.482 101.313)"><tspan x="0" y="0">비밀번호를 입력하세요</tspan><tspan class="cls-27" x="195.207" y="0">.</tspan></text>
      <text class="cls-26" transform="translate(300.321 102.597)"><tspan x="0" y="0">을(를) 묻고 대답 기다리기</tspan></text>
      <g>
        <g>
          <path class="cls-34" d="m506.406,121.679H47.974s0,0,0,0l-12.543,11.548s0,0,0,0l-12.023-10.98c-.238-.218-.622-.049-.622.274v54.741c0,.047.011.092.028.135h-.003l.004.004c.02.048.048.093.087.13h.056l11.328,10.345c.663.605,1.678.603,2.338-.005l10.91-10.045c.212-.195.49-.304.779-.304l458.095-.101c15.329,0,27.871-12.542,27.871-27.871h0c0-15.329-12.542-27.871-27.871-27.871Z"/>
          <g>
            <path class="cls-10" d="m527.355,149.594c.233,11.599-9.583,22.21-22.59,21.903-11.361-.268-21.522-9.45-21.508-22.104.014-12.581,10.427-22.278,22.629-21.994,11.969.279,21.786,10.209,21.47,22.194Z"/>
            <path class="cls-18" d="m505.623,139.431c1.421.066,3.283.498,4.796,1.905,2.464,2.29,2.614,5.317.342,7.812-.823.903-1.728,1.735-2.634,2.558-.847.769-1.497,1.641-1.723,2.78-.285,1.438-1.202,2.017-2.552,1.624-1.294-.377-1.297-1.572-1.154-2.621.299-2.203,1.86-3.593,3.427-4.952.334-.29.717-.537.999-.87,1.487-1.758,1.36-3.4-.321-4.537-1.47-.995-3.897-.403-4.808,1.208-.326.577-.531,1.221-.815,1.823-.524,1.11-1.42,1.65-2.58,1.204-1.144-.44-1.405-1.351-1.1-2.592.769-3.131,3.806-5.339,8.123-5.343Z"/>
            <path class="cls-16" d="m504.597,162.146c-1.271-.012-2.113-.925-2.059-2.258.054-1.311.741-2.044,2.063-2.095,1.32-.051,2.369,1,2.32,2.267-.048,1.226-1.02,2.098-2.324,2.086Z"/>
          </g>
        </g>
        <g>
          <g>
            <path class="cls-10" d="m318.342,140.834c-3.978-8.028-10.585-12.205-19.692-12.204l-23.634.017c-13.365.1-23.308,12.743-20.298,25.728,2.245,9.683,10.748,16.352,20.919,16.354l22.63.007c1.562,0,3.108-.072,4.657-.328,13.443-2.215,21.457-17.384,15.417-29.573Z"/>
            <path class="cls-3" d="m285.882,130.638c42.548,0-29.54-.003,13.008.003,9.346.001,16.7,5.774,18.918,14.808,2.597,10.582-4.706,21.37-15.534,23.016-1.222.186-2.431.263-3.655.263-85.04,0,62.236.002-22.804,0-11.651,0-20.056-8.798-19.553-20.436.36-8.321,7.473-16.158,15.669-17.363,1.445-.212,2.876-.287,4.323-.287,42.437-.001-32.807,0,9.629,0Z"/>
          </g>
          <text class="cls-31" transform="translate(268.619 156.292)"><tspan x="0" y="0">대답</tspan></text>
        </g>
        <g>
          <path class="cls-4" d="m109.657,129.637c17.877,0,35.182,0,53.059,0,2.815,0,4.335,2.426,4.336,6.934.003,8.742.003,17.483,0,26.225-.001,4.509-1.521,6.935-4.336,6.935-35.754,0-70.936-.025-106.69.059-2.308.005-4.351-2.765-4.335-6.91.033-8.797.033-17.595,0-26.392-.015-4.145,2.027-6.926,4.335-6.912,17.877.11,35.754.061,53.631.061Z"/>
          <text class="cls-24" transform="translate(62.07 158.808)"><tspan x="0" y="0">비밀번호</tspan></text>
          <path class="cls-6" d="m151.044,145.785c1.503,0,3.006-.003,4.509.001.951.003,1.744.288,2.197,1.211.47.958.064,1.702-.534,2.425-1.451,1.754-2.859,3.543-4.343,5.268-1.318,1.533-2.389,1.523-3.72-.029-1.519-1.771-2.972-3.598-4.452-5.402-.521-.635-.812-1.313-.452-2.145.374-.865,1.045-1.293,1.954-1.309,1.614-.027,3.228-.008,4.842-.008v-.013Z"/>
        </g>
        <text class="cls-26" transform="translate(334.055 159.318)"><tspan x="0" y="0">(으)로 정하기</tspan></text>
        <text class="cls-26" transform="translate(179.991 159.318)"><tspan x="0" y="0">을(를)</tspan></text>
      </g>
      <g>
        <g>
          <path class="cls-34" d="m555.053,177.696H47.974s0,0,0,0l-12.543,11.548s0,0,0,0l-12.023-10.98c-.238-.218-.622-.049-.622.274v54.741c0,.047.011.092.028.135h-.003l.004.004c.02.048.048.093.087.13h.056l11.328,10.345c.663.605,1.678.603,2.338-.005l10.91-10.045c.212-.195.49-.304.779-.304l506.742-.101c15.329,0,27.871-12.542,27.871-27.871h0c0-15.329-12.542-27.871-27.871-27.871Z"/>
          <g>
            <path class="cls-10" d="m576.001,205.611c.233,11.599-9.583,22.21-22.59,21.903-11.361-.268-21.522-9.45-21.508-22.104.014-12.581,10.427-22.278,22.629-21.994,11.969.279,21.786,10.209,21.47,22.194Z"/>
            <path class="cls-18" d="m554.27,195.448c1.421.066,3.283.498,4.796,1.905,2.464,2.29,2.614,5.317.342,7.812-.823.903-1.728,1.735-2.634,2.558-.847.769-1.497,1.641-1.723,2.78-.285,1.438-1.202,2.017-2.552,1.624-1.294-.377-1.297-1.572-1.154-2.621.299-2.203,1.86-3.593,3.427-4.952.334-.29.717-.537.999-.87,1.487-1.758,1.36-3.4-.321-4.537-1.47-.995-3.897-.403-4.808,1.208-.326.577-.531,1.221-.815,1.823-.524,1.11-1.42,1.65-2.58,1.204-1.144-.44-1.405-1.351-1.1-2.592.769-3.131,3.806-5.339,8.123-5.343Z"/>
            <path class="cls-16" d="m553.243,218.162c-1.271-.012-2.113-.925-2.059-2.258.054-1.311.741-2.044,2.063-2.095,1.32-.051,2.369,1,2.32,2.267-.048,1.226-1.02,2.098-2.324,2.086Z"/>
          </g>
        </g>
        <g>
          <path class="cls-17" d="m68.944,225.292c-10.975,0-19.903-8.928-19.903-19.902s8.929-19.903,19.903-19.903h155.27c10.975,0,19.903,8.929,19.903,19.903s-8.929,19.902-19.903,19.902H68.944Z"/>
          <path class="cls-19" d="m224.214,186.486c10.423,0,18.903,8.48,18.903,18.903s-8.48,18.903-18.903,18.903H68.944c-10.423,0-18.903-8.48-18.903-18.903s8.48-18.903,18.903-18.903h155.27m0-2H68.944c-11.497,0-20.903,9.406-20.903,20.903h0c0,11.497,9.406,20.903,20.903,20.903h155.27c11.497,0,20.903-9.406,20.903-20.903h0c0-11.497-9.406-20.903-20.903-20.903h0Z"/>
        </g>
        <text class="cls-30" transform="translate(66.482 213.742)"><tspan x="0" y="0">코드를 입력하세요</tspan><tspan class="cls-27" x="157.18" y="0">.</tspan></text>
        <text class="cls-26" transform="translate(259.863 215.026)"><tspan x="0" y="0">을(를) 묻고 대답 기다리기</tspan></text>
      </g>
      <g>
        <g>
          <path class="cls-34" d="m468.486,234.218H47.974s0,0,0,0l-12.543,11.548s0,0,0,0l-12.023-10.98c-.238-.218-.622-.049-.622.274v54.741c0,.047.011.092.028.135h-.003l.004.004c.02.048.048.093.087.13h.056l11.328,10.345c.663.605,1.678.603,2.338-.005l10.91-10.045c.212-.195.49-.304.779-.304l420.175-.101c15.329,0,27.871-12.542,27.871-27.871h0c0-15.329-12.542-27.871-27.871-27.871Z"/>
          <g>
            <path class="cls-10" d="m489.435,262.132c.233,11.599-9.583,22.21-22.59,21.903-11.361-.268-21.522-9.45-21.508-22.104.014-12.581,10.427-22.278,22.629-21.994,11.969.279,21.786,10.209,21.47,22.194Z"/>
            <path class="cls-18" d="m467.703,251.97c1.421.066,3.283.498,4.796,1.905,2.464,2.29,2.614,5.317.342,7.812-.823.903-1.728,1.735-2.634,2.558-.847.769-1.497,1.641-1.723,2.78-.285,1.438-1.202,2.017-2.552,1.624-1.294-.377-1.297-1.572-1.154-2.621.299-2.203,1.86-3.593,3.427-4.952.334-.29.717-.537.999-.87,1.487-1.758,1.36-3.4-.321-4.537-1.47-.995-3.897-.403-4.808,1.208-.326.577-.531,1.221-.815,1.823-.524,1.11-1.42,1.65-2.58,1.204-1.144-.44-1.405-1.351-1.1-2.592.769-3.131,3.806-5.339,8.123-5.343Z"/>
            <path class="cls-16" d="m466.677,274.684c-1.271-.012-2.113-.925-2.059-2.258.054-1.311.741-2.044,2.063-2.095,1.32-.051,2.369,1,2.32,2.267-.048,1.226-1.02,2.098-2.324,2.086Z"/>
          </g>
        </g>
        <g>
          <g>
            <path class="cls-10" d="m280.422,253.373c-3.978-8.028-10.585-12.205-19.692-12.204l-23.634.017c-13.365.1-23.308,12.743-20.298,25.728,2.245,9.683,10.748,16.352,20.919,16.354l22.63.007c1.562,0,3.108-.072,4.657-.328,13.443-2.215,21.457-17.384,15.417-29.573Z"/>
            <path class="cls-3" d="m247.962,243.177c42.548,0-29.54-.003,13.008.003,9.346.001,16.7,5.774,18.918,14.808,2.597,10.582-4.706,21.37-15.534,23.016-1.222.186-2.431.263-3.655.263-85.04,0,62.236.002-22.804,0-11.651,0-20.056-8.798-19.553-20.436.36-8.321,7.473-16.158,15.669-17.363,1.445-.212,2.876-.287,4.323-.287,42.437-.001-32.807,0,9.629,0Z"/>
          </g>
          <text class="cls-31" transform="translate(230.699 268.83)"><tspan x="0" y="0">대답</tspan></text>
        </g>
        <g>
          <path class="cls-4" d="m109.657,242.175c17.877,0-2.738,0,15.139,0,2.815,0,4.335,2.426,4.336,6.934.003,8.742.003,17.483,0,26.225-.001,4.509-1.521,6.935-4.336,6.935-35.754,0-33.016-.025-68.77.059-2.308.005-4.351-2.765-4.335-6.91.033-8.797.033-17.595,0-26.392-.015-4.145,2.027-6.926,4.335-6.912,17.877.11,35.754.061,53.631.061Z"/>
          <text class="cls-24" transform="translate(62.07 271.346)"><tspan x="0" y="0">코드</tspan></text>
          <path class="cls-6" d="m113.124,258.324c1.503,0,3.006-.003,4.509.001.951.003,1.744.288,2.197,1.211.47.958.064,1.702-.534,2.425-1.451,1.754-2.859,3.543-4.343,5.268-1.318,1.533-2.389,1.523-3.72-.029-1.519-1.771-2.972-3.598-4.452-5.402-.521-.635-.812-1.313-.452-2.145.374-.865,1.045-1.293,1.954-1.309,1.614-.027,3.228-.008,4.842-.008v-.013Z"/>
        </g>
        <text class="cls-26" transform="translate(296.135 271.856)"><tspan x="0" y="0">(으)로 정하기</tspan></text>
        <text class="cls-26" transform="translate(142.071 271.856)"><tspan x="0" y="0">을(를)</tspan></text>
      </g>
      <g>
        <path class="cls-33" d="m1061.906,510.55H73.014l-10.506,11.226-12.645-11.226v-54.641l12.441,11.461,12.387-11.471,977.258-.091c16.083,0,29.097-13.805,27.779-30.15-1.175-14.565-13.733-25.592-28.345-25.592H74.654l-12.35,11.436-12.415-11.436h-.027v-54.172l12.441,11.461,12.387-11.471,968.349-.091c16.083,0,29.097-13.805,27.779-30.151-1.175-14.565-13.733-25.591-28.345-25.591H47.974l-12.543,11.548-12.023-10.98c-.238-.218-.622-.049-.622.274v54.741c0,.047.011.092.028.135h-.004l.091-1.866.056,198.213,12.379,11.613,12.516-11.613h1014.054c8.716,0,15.782-7.066,15.782-15.783s-7.066-15.783-15.782-15.783Z"/>
        <g>
          <path class="cls-13" d="m1063.595,318.026c.233,11.599-9.583,22.21-22.59,21.903-11.361-.268-21.522-9.45-21.508-22.104.014-12.581,10.427-22.278,22.629-21.994,11.969.279,21.786,10.209,21.47,22.194Z"/>
          <path class="cls-12" d="m1049.679,319.558c-.095,0-.185.021-.279.028l-4.684-7.075c.647-.892.942-2.055.623-3.302-.356-1.388-1.5-2.504-2.899-2.812-2.553-.562-4.81,1.366-4.81,3.821,0,.859.284,1.646.753,2.292l-4.684,7.075c-.094-.007-.183-.028-.279-.028-2.466,0-4.4,2.277-3.814,4.843.323,1.416,1.474,2.567,2.89,2.89,2.566.586,4.843-1.348,4.843-3.814,0-1.153-.507-2.18-1.3-2.897l4.386-6.625c.358.108.731.183,1.124.183s.766-.076,1.124-.183l4.386,6.625c-1.013.917-1.56,2.338-1.178,3.884.344,1.389,1.482,2.51,2.877,2.828,2.564.583,4.839-1.35,4.839-3.815,0-2.165-1.755-3.919-3.919-3.919Z"/>
        </g>
        <text class="cls-23" transform="translate(54.69 327.31)"><tspan x="0" y="0">만일</tspan></text>
        <text class="cls-23" transform="translate(916.794 327.31)"><tspan x="0" y="0">(이)라면</tspan></text>
        <text class="cls-23" transform="translate(78.654 439.028)"><tspan x="0" y="0">아니면</tspan></text>
        <polygon class="cls-8" points="52.889 400.067 52.863 400.042 52.863 400.067 52.889 400.067"/>
        <line class="cls-33" x1="52.863" y1="400.042" x2="52.889" y2="400.067"/>
        <g>
          <g>
            <g>
              <polygon class="cls-15" points="126.788 337.576 111.261 317.673 126.788 297.769 886.976 297.769 902.502 317.673 886.976 337.576 126.788 337.576"/>
              <path class="cls-9" d="m886.488,298.77l14.746,18.903-14.746,18.903H127.276l-14.746-18.903,14.746-18.903h759.212m.976-2H126.299l-16.306,20.903,16.306,20.903h761.165l16.307-20.903-16.307-20.903h0Z"/>
            </g>
            <polygon class="cls-8" points="350.068 311.681 350.068 323.798 355.615 317.99 350.068 311.681"/>
          </g>
          <rect class="cls-9" x="483.524" y="297.867" width="93.677" height="39.613" rx="3.355" ry="3.355"/>
          <g>
            <g>
              <polygon class="cls-15" points="140.775 337.576 125.249 317.673 140.775 297.769 452.821 297.769 468.347 317.673 452.821 337.576 140.775 337.576"/>
              <path class="cls-9" d="m452.333,298.77l14.746,18.903-14.746,18.903H141.263l-14.746-18.903,14.746-18.903h311.069m.976-2H140.287l-16.307,20.903,16.307,20.903h313.022l16.306-20.903-16.306-20.903h0Z"/>
            </g>
            <g>
              <g>
                <path class="cls-14" d="m160.077,337.576c-10.975,0-19.903-8.929-19.903-19.903s8.928-19.903,19.903-19.903h136.787c10.975,0,19.903,8.929,19.903,19.903s-8.929,19.903-19.903,19.903h-136.787Z"/>
                <path class="cls-4" d="m296.864,298.77c10.423,0,18.903,8.48,18.903,18.903s-8.48,18.903-18.903,18.903h-136.786c-10.423,0-18.903-8.48-18.903-18.903s8.48-18.903,18.903-18.903h136.786m0-2h-136.786c-11.497,0-20.903,9.406-20.903,20.903h0c0,11.497,9.406,20.903,20.903,20.903h136.786c11.497,0,20.903-9.406,20.903-20.903h0c0-11.497-9.406-20.903-20.903-20.903h0Z"/>
              </g>
              <rect class="cls-4" x="154.658" y="298.189" width="114.466" height="38.968" rx="3.871" ry="3.871"/>
              <text class="cls-28" transform="translate(282.034 326.026)"><tspan x="0" y="0">값</tspan></text>
              <text class="cls-28" transform="translate(165.183 326.026)"><tspan x="0" y="0">비밀번호</tspan></text>
              <path class="cls-6" d="m253.43,312.996c1.503,0,3.006-.003,4.509.001.951.003,1.744.288,2.197,1.211.47.958.064,1.702-.534,2.425-1.451,1.754-2.859,3.543-4.343,5.268-1.318,1.533-2.389,1.523-3.72-.029-1.519-1.771-2.972-3.598-4.452-5.402-.521-.635-.812-1.313-.452-2.145.374-.865,1.045-1.293,1.954-1.309,1.614-.027,3.228-.008,4.842-.008v-.013Z"/>
            </g>
            <g>
              <g>
                <path class="cls-17" d="m397.479,337.576c-10.975,0-19.903-8.929-19.903-19.903s8.929-19.903,19.903-19.903h33.925c10.975,0,19.903,8.929,19.903,19.903s-8.929,19.903-19.903,19.903h-33.925Z"/>
                <path class="cls-19" d="m431.405,298.77c10.423,0,18.903,8.48,18.903,18.903s-8.48,18.903-18.903,18.903h-33.926c-10.423,0-18.903-8.48-18.903-18.903s8.48-18.903,18.903-18.903h33.926m0-2h-33.926c-11.497,0-20.903,9.406-20.903,20.903h0c0,11.497,9.406,20.903,20.903,20.903h33.926c11.497,0,20.903-9.406,20.903-20.903h0c0-11.497-9.406-20.903-20.903-20.903h0Z"/>
              </g>
              <text class="cls-29" transform="translate(389.226 326.026)"><tspan x="0" y="0">1234</tspan></text>
            </g>
          </g>
          <rect class="cls-9" x="330.108" y="297.867" width="30.968" height="39.613" rx="3.355" ry="3.355"/>
          <text class="cls-28" transform="translate(335.555 326.026)"><tspan x="0" y="0">＝</tspan></text>
          <g>
            <g>
              <polygon class="cls-15" points="606.492 337.576 590.965 317.673 606.492 297.769 870.669 297.769 886.196 317.673 870.669 337.576 606.492 337.576"/>
              <path class="cls-9" d="m870.181,298.77l14.746,18.903-14.746,18.903h-263.201l-14.746-18.903,14.746-18.903h263.201m.976-2h-265.154l-16.306,20.903,16.306,20.903h265.154l16.306-20.903-16.306-20.903h0Z"/>
            </g>
            <g>
              <g>
                <path class="cls-14" d="m625.794,337.576c-10.975,0-19.903-8.929-19.903-19.903s8.929-19.903,19.903-19.903h101.14c10.975,0,19.903,8.929,19.903,19.903s-8.929,19.903-19.903,19.903h-101.14Z"/>
                <path class="cls-4" d="m726.934,298.77c10.423,0,18.903,8.48,18.903,18.903s-8.48,18.903-18.903,18.903h-101.14c-10.423,0-18.903-8.48-18.903-18.903s8.48-18.903,18.903-18.903h101.14m0-2h-101.14c-11.497,0-20.903,9.406-20.903,20.903h0c0,11.497,9.406,20.903,20.903,20.903h101.14c11.497,0,20.903-9.406,20.903-20.903h0c0-11.497-9.406-20.903-20.903-20.903h0Z"/>
              </g>
              <rect class="cls-4" x="620.375" y="298.189" width="78.82" height="38.968" rx="3.871" ry="3.871"/>
              <text class="cls-28" transform="translate(712.104 326.026)"><tspan x="0" y="0">값</tspan></text>
              <text class="cls-28" transform="translate(630.9 326.026)"><tspan x="0" y="0">코드</tspan></text>
              <path class="cls-6" d="m683.501,312.996c1.503,0,3.006-.003,4.509.001.951.003,1.744.288,2.197,1.211.47.958.064,1.702-.534,2.425-1.451,1.754-2.859,3.543-4.343,5.268-1.318,1.533-2.389,1.523-3.72-.029-1.519-1.771-2.972-3.598-4.452-5.402-.521-.635-.812-1.313-.452-2.145.374-.865,1.045-1.293,1.954-1.309,1.614-.027,3.228-.008,4.842-.008v-.013Z"/>
            </g>
            <g>
              <g>
                <path class="cls-17" d="m825.33,337.576c-10.975,0-19.903-8.929-19.903-19.903s8.929-19.903,19.903-19.903h24.925c10.975,0,19.903,8.929,19.903,19.903s-8.928,19.903-19.903,19.903h-24.925Z"/>
                <path class="cls-19" d="m850.254,298.77c10.423,0,18.903,8.48,18.903,18.903s-8.48,18.903-18.903,18.903h-24.925c-10.423,0-18.903-8.48-18.903-18.903s8.48-18.903,18.903-18.903h24.925m0-2h-24.925c-11.497,0-20.903,9.406-20.903,20.903h0c0,11.497,9.406,20.903,20.903,20.903h24.925c11.497,0,20.903-9.406,20.903-20.903h0c0-11.497-9.406-20.903-20.903-20.903h0Z"/>
              </g>
              <text class="cls-29" transform="translate(817.077 326.026)"><tspan x="0" y="0">이름</tspan></text>
            </g>
          </g>
          <rect class="cls-9" x="759.62" y="297.867" width="30.968" height="39.613" rx="3.355" ry="3.355"/>
          <text class="cls-28" transform="translate(765.066 326.026)"><tspan x="0" y="0">＝</tspan></text>
          <g>
            <text class="cls-28" transform="translate(492.818 326.026)"><tspan x="0" y="0">그리고</tspan></text>
            <path class="cls-6" d="m560.998,312.995c1.503,0,3.006-.003,4.509.001.951.003,1.744.288,2.197,1.211.47.958.064,1.702-.534,2.425-1.451,1.754-2.859,3.543-4.343,5.268-1.318,1.533-2.389,1.523-3.72-.029-1.519-1.771-2.972-3.598-4.452-5.402-.521-.635-.812-1.313-.452-2.145.374-.865,1.045-1.293,1.954-1.309,1.614-.027,3.228-.008,4.842-.008v-.013Z"/>
          </g>
        </g>
        <g>
          <g>
            <path class="cls-32" d="m658.491,345.892H75.019l-12.543,11.141-12.024-10.593c-.238-.21-.622-.047-.622.265v52.811c0,.098.042.191.115.259l12.53,11.113,12.543-11.219h583.472c15.329,0,27.871-12.1,27.871-26.888h0c0-14.789-12.542-26.888-27.871-26.888Z"/>
            <g>
              <path class="cls-7" d="m634.205,373.286c.085-12.114,9.79-22.01,22.342-21.937,12.159.071,22.178,9.883,21.961,22.471-.203,11.764-9.754,21.773-22.498,21.598-12.042-.166-21.794-9.762-21.805-22.132Z"/>
              <path class="cls-21" d="m657.106,374.724c2.854.024,5.612,2.731,5.624,5.52.014,3.13-2.722,5.849-5.866,5.829-3.016-.018-5.566-2.746-5.533-5.919.031-3.007,2.636-5.457,5.775-5.43Z"/>
              <rect class="cls-21" x="659.493" y="365.108" width="9.448" height="9.448" transform="translate(456.055 -361.351) rotate(45)"/>
              <polygon class="cls-21" points="655.336 372.787 655.336 366.354 649.765 363.138 644.195 366.354 644.195 372.787 649.765 376.003 655.336 372.787"/>
            </g>
          </g>
          <text class="cls-25" transform="translate(295.257 382.636)"><tspan x="0" y="0">을(를)</tspan></text>
          <text class="cls-25" transform="translate(432.664 382.636)"><tspan x="0" y="0">초 동안</tspan></text>
          <g>
            <g>
              <path class="cls-17" d="m96.786,392.902c-10.975,0-19.903-8.929-19.903-19.903s8.928-19.903,19.903-19.903h161.446c10.975,0,19.903,8.929,19.903,19.903s-8.929,19.903-19.903,19.903H96.786Z"/>
              <path class="cls-19" d="m258.231,354.096c10.423,0,18.903,8.48,18.903,18.903s-8.48,18.903-18.903,18.903H96.786c-10.423,0-18.903-8.48-18.903-18.903s8.48-18.903,18.903-18.903h161.446m0-2H96.786c-11.497,0-20.903,9.406-20.903,20.903h0c0,11.497,9.406,20.903,20.903,20.903h161.446c11.497,0,20.903-9.406,20.903-20.903h0c0-11.497-9.406-20.903-20.903-20.903h0Z"/>
            </g>
            <text class="cls-30" transform="translate(91.323 381.352)"><tspan class="cls-37" x="0" y="0">어서 오세요</tspan><tspan class="cls-35" x="98.819" y="0">,</tspan><tspan class="cls-36" x="104.217" y="0" xml:space="preserve"> 주인님! </tspan></text>
          </g>
          <g>
            <rect class="cls-5" x="523.592" y="353.901" width="95.645" height="38.968" rx="3.871" ry="3.871"/>
            <text class="cls-28" transform="translate(534.117 381.738)"><tspan x="0" y="0">말하기</tspan></text>
            <path class="cls-6" d="m602.738,368.707c1.503,0,3.006-.003,4.509.001.951.003,1.744.288,2.197,1.211.47.958.064,1.702-.534,2.425-1.451,1.754-2.859,3.543-4.343,5.268-1.318,1.533-2.389,1.523-3.72-.029-1.519-1.771-2.972-3.598-4.452-5.402-.521-.635-.812-1.313-.452-2.145.374-.865,1.045-1.293,1.954-1.309,1.614-.027,3.228-.008,4.842-.008v-.013Z"/>
          </g>
          <g>
            <g>
              <circle class="cls-17" cx="394.491" cy="372.999" r="19.903"/>
              <path class="cls-19" d="m394.491,354.096c10.423,0,18.903,8.48,18.903,18.903s-8.48,18.903-18.903,18.903-18.903-8.48-18.903-18.903,8.48-18.903,18.903-18.903m0-2c-11.497,0-20.903,9.406-20.903,20.903h0c0,11.497,9.406,20.903,20.903,20.903s20.903-9.406,20.903-20.903h0c0-11.497-9.406-20.903-20.903-20.903h0Z"/>
            </g>
            <text class="cls-29" transform="translate(386.238 381.352)"><tspan x="0" y="0">4</tspan></text>
          </g>
        </g>
        <g>
          <g>
            <path class="cls-32" d="m705.575,456.247H75.148l-12.543,11.141-12.024-10.593c-.238-.21-.622-.047-.622.265v52.811c0,.098.042.191.115.259l12.53,11.113,12.543-11.219h630.427c15.329,0,27.871-12.1,27.871-26.888h0c0-14.789-12.542-26.888-27.871-26.888Z"/>
            <g>
              <path class="cls-7" d="m681.29,483.641c.085-12.114,9.79-22.01,22.342-21.937,12.159.071,22.178,9.883,21.961,22.471-.203,11.764-9.754,21.773-22.498,21.598-12.042-.166-21.794-9.762-21.805-22.132Z"/>
              <path class="cls-21" d="m704.19,485.078c2.854.024,5.612,2.731,5.624,5.52.014,3.13-2.722,5.849-5.866,5.829-3.016-.018-5.566-2.746-5.533-5.919.031-3.007,2.636-5.457,5.775-5.43Z"/>
              <rect class="cls-21" x="706.578" y="475.463" width="9.448" height="9.448" transform="translate(547.879 -362.323) rotate(45)"/>
              <polygon class="cls-21" points="702.421 483.141 702.421 476.709 696.85 473.493 691.279 476.709 691.279 483.141 696.85 486.358 702.421 483.141"/>
            </g>
          </g>
          <text class="cls-25" transform="translate(342.341 492.991)"><tspan x="0" y="0">을(를)</tspan></text>
          <text class="cls-25" transform="translate(479.749 492.991)"><tspan x="0" y="0">초 동안</tspan></text>
          <g>
            <g>
              <path class="cls-17" d="m96.915,503.257c-10.975,0-19.903-8.929-19.903-19.903s8.929-19.903,19.903-19.903h208.401c10.975,0,19.903,8.929,19.903,19.903s-8.929,19.903-19.903,19.903H96.915Z"/>
              <path class="cls-19" d="m305.316,464.45c10.423,0,18.903,8.48,18.903,18.903s-8.48,18.903-18.903,18.903H96.915c-10.423,0-18.903-8.48-18.903-18.903s8.48-18.903,18.903-18.903h208.401m0-2H96.915c-11.497,0-20.903,9.406-20.903,20.903h0c0,11.497,9.406,20.903,20.903,20.903h208.401c11.497,0,20.903-9.406,20.903-20.903h0c0-11.497-9.406-20.903-20.903-20.903h0Z"/>
            </g>
            <text class="cls-30" transform="translate(91.452 491.707)"><tspan class="cls-37" x="0" y="0">허가되지 않은 사람입니다</tspan><tspan class="cls-35" x="216.431" y="0">.</tspan></text>
          </g>
          <g>
            <rect class="cls-5" x="570.677" y="464.255" width="95.645" height="38.968" rx="3.871" ry="3.871"/>
            <text class="cls-28" transform="translate(581.202 492.093)"><tspan x="0" y="0">말하기</tspan></text>
            <path class="cls-6" d="m649.822,479.062c1.503,0,3.006-.003,4.509.001.951.003,1.744.288,2.197,1.211.47.958.064,1.702-.534,2.425-1.451,1.754-2.859,3.543-4.343,5.268-1.318,1.533-2.389,1.523-3.72-.029-1.519-1.771-2.972-3.598-4.452-5.402-.521-.635-.812-1.313-.452-2.145.374-.865,1.045-1.293,1.954-1.309,1.614-.027,3.228-.008,4.842-.008v-.013Z"/>
          </g>
          <g>
            <g>
              <circle class="cls-17" cx="441.576" cy="483.353" r="19.903"/>
              <path class="cls-19" d="m441.576,464.45c10.423,0,18.903,8.48,18.903,18.903s-8.48,18.903-18.903,18.903-18.903-8.48-18.903-18.903,8.48-18.903,18.903-18.903m0-2h0c-11.497,0-20.903,9.406-20.903,20.903h0c0,11.497,9.406,20.903,20.903,20.903h0c11.497,0,20.903-9.406,20.903-20.903h0c0-11.497-9.406-20.903-20.903-20.903h0Z"/>
            </g>
            <text class="cls-29" transform="translate(433.323 491.707)"><tspan x="0" y="0">4</tspan></text>
          </g>
        </g>
      </g>
    </g>
    <rect class="cls-1" x="47.386" y="128.227" width="122.566" height="42.839" rx="10" ry="10"/>
    <rect class="cls-1" x="47.386" y="240.323" width="85.243" height="42.839" rx="10" ry="10"/>
  </g>
  <g>
    <rect class="cls-11" x="483.524" y="297.867" width="93.677" height="39.613" rx="3.355" ry="3.355"/>
    <rect class="cls-11" x="139.174" y="296.77" width="178.593" height="41.806" rx="20.903" ry="20.903"/>
    <rect class="cls-11" x="330.108" y="297.867" width="30.968" height="39.613" rx="3.355" ry="3.355"/>
    <rect class="cls-11" x="604.891" y="296.77" width="142.946" height="41.806" rx="20.903" ry="20.903"/>
    <rect class="cls-11" x="759.62" y="297.867" width="30.968" height="39.613" rx="3.355" ry="3.355"/>
  </g>
</svg>