<?xml version="1.0" encoding="UTF-8"?>
<svg id="_레이어_2" data-name="레이어 2" xmlns="http://www.w3.org/2000/svg" viewBox="0 0 480.724 217.797">
  <defs>
    <style>
      .cls-1 {
        stroke: #bfbfbf;
      }

      .cls-1, .cls-2, .cls-3, .cls-4, .cls-5, .cls-6 {
        stroke-miterlimit: 10;
      }

      .cls-1, .cls-4, .cls-7, .cls-8, .cls-9, .cls-10, .cls-11 {
        fill: #fff;
      }

      .cls-12 {
        fill: #575e75;
      }

      .cls-12, .cls-8, .cls-9, .cls-10, .cls-11 {
        font-family: D2Coding, D2Coding;
      }

      .cls-12, .cls-10 {
        font-size: 26px;
      }

      .cls-2 {
        fill: #d400d4;
        stroke: #9f009f;
      }

      .cls-2, .cls-5, .cls-6 {
        stroke-width: 1.5px;
      }

      .cls-3 {
        fill: #9400d3;
      }

      .cls-3, .cls-4 {
        stroke: #6f009e;
      }

      .cls-7, .cls-13 {
        stroke-width: 0px;
      }

      .cls-8 {
        font-size: 26.581px;
      }

      .cls-9 {
        font-size: 25px;
      }

      .cls-5 {
        fill: #1e90ff;
        stroke: #176cbf;
      }

      .cls-10 {
        letter-spacing: -.05em;
      }

      .cls-13 {
        fill: #c91539;
      }

      .cls-11 {
        font-size: 28px;
      }

      .cls-6 {
        fill: #dc143c;
        stroke: #a50f2d;
      }
    </style>
  </defs>
  <g>
    <path class="cls-2" d="m84.158,179.222h-21.05c-1.723,0-3.364-.74-4.505-2.031l-8.586-9.72c-1.141-1.292-2.781-2.031-4.505-2.031h-13.331c-3.32,0-6.011-2.691-6.011-6.011v-76.254c0-3.32,2.691-6.011,6.011-6.011h13.331c1.723,0,3.364.74,4.505,2.031l8.586,9.72c1.141,1.292,2.781,2.031,4.505,2.031h21.05c1.691,0,3.304-.712,4.443-1.963l8.981-9.857c1.139-1.25,2.752-1.963,4.443-1.963h135.876c3.32,0,6.011-2.691,6.011-6.011V6.761c0-3.32-2.691-6.011-6.011-6.011H6.761C3.441.75.75,3.441.75,6.761v204.276c0,3.32,2.691,6.011,6.011,6.011h231.14c3.32,0,6.011-2.691,6.011-6.011v-39.586c0-3.32-2.691-6.011-6.011-6.011H102.025c-1.691,0-3.304.712-4.443,1.963l-8.981,9.857c-1.139,1.25-2.752,1.963-4.443,1.963Z"/>
    <g>
      <g>
        <rect class="cls-2" x="79.258" y="13.843" width="101.69" height="50.382" rx="5.743" ry="5.743"/>
        <path class="cls-7" d="m159.499,43.54l-6.78-6.353c-.801-.75-.27-2.093.827-2.093h13.56c1.097,0,1.628,1.343.827,2.093l-6.78,6.353c-.465.436-1.189.436-1.655,0Z"/>
        <text class="cls-9" transform="translate(13.691 47.152)"><tspan x="0" y="0">로고</tspan></text>
        <text class="cls-9" transform="translate(88.625 47.152)"><tspan x="0" y="0">누를</tspan></text>
      </g>
      <text class="cls-9" transform="translate(195.867 47.152)"><tspan x="0" y="0">때</tspan></text>
    </g>
  </g>
  <g>
    <path class="cls-5" d="m102.112,77.191c-1.691,0-3.304.712-4.443,1.962l-8.981,9.857c-1.139,1.25-2.752,1.963-4.443,1.963h-21.051c-1.723,0-3.364-.74-4.505-2.031l-8.586-9.72c-1.141-1.292-2.781-2.031-4.505-2.031h-13.331c-3.32,0-6.011,2.691-6.011,6.011v76.098c0,3.32,2.691,6.011,6.011,6.011h13.331c1.723,0,3.364.74,4.505,2.031l8.586,9.72c1.141,1.292,2.781,2.031,4.505,2.031h21.051c1.691,0,3.304-.712,4.443-1.963l8.981-9.857c1.139-1.25,2.752-1.962,4.443-1.962h372.151c3.154,0,5.711-2.557,5.711-5.711v-76.698c0-3.154-2.557-5.711-5.711-5.711H102.112Z"/>
    <text class="cls-8" transform="translate(38.797 128.227)"><tspan x="0" y="0">숫자 출력</tspan></text>
  </g>
  <path class="cls-3" d="m168.198,120.696h0c-.279,20.643,16.378,37.526,37.022,37.526h227.994c20.449,0,37.026-16.577,37.026-37.026h0c0-20.449-16.577-37.026-37.026-37.026h-227.994c-20.254,0-36.749,16.274-37.022,36.526Z"/>
  <g>
    <rect class="cls-3" x="324.477" y="96.4" width="69.286" height="49.591" rx="4.373" ry="4.373"/>
    <text class="cls-11" transform="translate(340.196 130.084)"><tspan x="0" y="0">×</tspan></text>
    <path class="cls-4" d="m370.547,125.661l-6.566-6.153c-1.259-1.18-.424-3.293,1.302-3.293h13.132c1.726,0,2.561,2.113,1.302,3.293l-6.566,6.153c-.732.686-1.871.686-2.603,0Z"/>
  </g>
  <g>
    <rect class="cls-1" x="401.505" y="96.099" width="61.368" height="50.194" rx="25.097" ry="25.097"/>
    <text class="cls-12" transform="translate(418.99 130.529)"><tspan x="0" y="0">65</tspan></text>
  </g>
  <g>
    <path class="cls-6" d="m175.883,121.196h0c0,16.647,14.5,30.142,32.386,30.142h76.4c17.886,0,32.386-13.495,32.386-30.142h0c0-16.647-14.5-30.142-32.386-30.142h-76.4c-17.886,0-32.386,13.495-32.386,30.142Z"/>
    <g>
      <text class="cls-10" transform="translate(190.151 128.515)"><tspan x="0" y="0">걸음 수</tspan></text>
      <g>
        <path class="cls-7" d="m292.87,126.083c-.437,0-.852-.164-1.17-.462l-6.78-6.354c-.516-.483-.681-1.22-.421-1.876s.885-1.081,1.591-1.081h13.56c.707,0,1.331.424,1.591,1.082.259.657.094,1.393-.422,1.876l-6.779,6.354c-.318.298-.733.462-1.169.462Z"/>
        <path class="cls-13" d="m299.649,116.809c1.097,0,1.628,1.343.828,2.093l-6.78,6.353c-.233.218-.53.327-.827.327s-.595-.109-.828-.327l-6.78-6.353c-.801-.75-.27-2.093.827-2.093h13.56m0-1h-13.56c-.913,0-1.72.549-2.055,1.398-.336.849-.122,1.801.544,2.425l6.78,6.353c.411.385.948.597,1.511.597s1.1-.212,1.511-.597l6.78-6.353c.666-.624.88-1.576.544-2.425s-1.142-1.398-2.055-1.398h0Z"/>
      </g>
    </g>
  </g>
</svg>