<?xml version="1.0" encoding="UTF-8"?>
<svg id="_레이어_1" data-name="레이어 1" xmlns="http://www.w3.org/2000/svg" viewBox="0 0 938.986 561.198">
  <defs>
    <style>
      .cls-1, .cls-2, .cls-3, .cls-4, .cls-5, .cls-6, .cls-7, .cls-8, .cls-9, .cls-10, .cls-11, .cls-12, .cls-13, .cls-14, .cls-15, .cls-16 {
        stroke-width: 0px;
      }

      .cls-1, .cls-17, .cls-18, .cls-19 {
        fill: #fefefe;
      }

      .cls-20, .cls-21, .cls-22 {
        letter-spacing: -.025em;
      }

      .cls-2 {
        fill: #b819b3;
      }

      .cls-23 {
        fill: #dc47d7;
        stroke: #b719b2;
      }

      .cls-23, .cls-24, .cls-25, .cls-26, .cls-27 {
        stroke-width: 2px;
      }

      .cls-23, .cls-24, .cls-27 {
        stroke-miterlimit: 10;
      }

      .cls-21, .cls-17, .cls-18, .cls-22, .cls-19, .cls-28 {
        font-family: Pretendard-Bold-KSCpc-EUC-H, Pretendard;
        font-weight: 700;
      }

      .cls-21, .cls-26 {
        fill: #fff;
      }

      .cls-21, .cls-18, .cls-22, .cls-28 {
        font-size: 22px;
      }

      .cls-3 {
        fill: #fefdfe;
      }

      .cls-24 {
        stroke: #009400;
      }

      .cls-24, .cls-16 {
        fill: #00b300;
      }

      .cls-29 {
        letter-spacing: -.042em;
      }

      .cls-4 {
        fill: none;
      }

      .cls-5 {
        fill: #1b3ad8;
      }

      .cls-30 {
        letter-spacing: -.113em;
      }

      .cls-17, .cls-19 {
        font-size: 26px;
      }

      .cls-6 {
        fill: #b719b2;
      }

      .cls-25 {
        fill: #19baea;
      }

      .cls-25, .cls-26 {
        stroke: #1498c0;
        stroke-linecap: round;
        stroke-linejoin: round;
      }

      .cls-7 {
        fill: #6dddfe;
      }

      .cls-8 {
        fill: #1498c0;
      }

      .cls-9 {
        fill: #dd47d8;
      }

      .cls-10 {
        fill: #4562f5;
      }

      .cls-31 {
        letter-spacing: -.054em;
      }

      .cls-27 {
        stroke: #fe9b00;
      }

      .cls-27, .cls-13 {
        fill: #fedd81;
      }

      .cls-11 {
        fill: #fafdfa;
      }

      .cls-12 {
        fill: #f577f1;
      }

      .cls-14 {
        fill: #f677f2;
      }

      .cls-19 {
        letter-spacing: -.025em;
      }

      .cls-15 {
        fill: #fe9b00;
      }

      .cls-32 {
        letter-spacing: -.01em;
      }

      .cls-33 {
        letter-spacing: -.042em;
      }

      .cls-34 {
        letter-spacing: -.138em;
      }
    </style>
  </defs>
  <g>
    <path class="cls-24" d="m21.64,65.053s-5.2-2.719-7.532-4.568c-7.301-5.786-11.647-13.18-12.825-22.461C.212,29.582,2.193,21.879,7.067,15.04,12.681,7.161,20.381,2.463,30.1,1.274c9.447-1.156,17.928,1.343,25.093,7.428,2.309,1.961,4.441,2.392,7.168,2.399,81.918.211,163.835.465,245.753.713,13.081.04,24.448,9.349,26.741,22.14,2.77,15.451-7.86,29.794-23.175,31.684-.205.025-.396.168-.594.256-.891.016-1.782.048-2.673.045-86.874-.26-173.747-.518-260.621-.816-1.521-.005-2.596.406-3.649,1.498-2.976,3.089-6.092,6.042-9.092,9.109-.791.809-1.254.903-2.094.031-3.131-3.25-6.346-6.419-9.533-9.615-.505-.507-1.787-1.095-1.787-1.095Z"/>
    <path class="cls-1" d="m34.016,62.097c-15.48-.051-28.037-12.66-27.997-28.114.04-15.539,12.694-28.067,28.28-27.997,15.45.069,27.973,12.72,27.913,28.197-.06,15.443-12.708,27.964-28.196,27.914Z"/>
    <path class="cls-16" d="m22.752,33.067c.099-1.896-.183-4.236.152-6.562.711-4.937,4.657-8.567,9.628-8.799,1.609-.075,3.236-.154,4.823.234,4.693,1.146,7.831,5.11,7.914,10.093.06,3.614.045,7.23.006,10.844-.07,6.422-4.581,10.616-11.359,10.611-6.621-.005-11.083-4.255-11.16-10.647-.021-1.779-.003-3.559-.003-5.774Z"/>
    <path class="cls-11" d="m32.083,26.92c.035-.717.008-1.442.123-2.144.154-.937.826-1.465,1.736-1.493.99-.03,1.793.497,1.874,1.509.118,1.478.107,2.978-.004,4.457-.07.929-.81,1.468-1.722,1.499-.995.033-1.71-.518-1.884-1.517-.131-.754-.088-1.539-.124-2.311Z"/>
    <text class="cls-17" transform="translate(73.185 46.25) rotate(.173)"><tspan x="0" y="0">오브젝트를 클릭했을 때</tspan></text>
  </g>
  <g>
    <g>
      <path class="cls-23" d="m910.115,65.369H46.509l-12.543,11.141-12.024-10.593c-.238-.21-.622-.047-.622.265v52.811c0,.098.042.191.115.259l12.53,11.113,12.543-11.219h863.606c15.329,0,27.871-12.1,27.871-26.888h0c0-14.789-12.542-26.888-27.871-26.888Z"/>
      <path class="cls-6" d="m885.829,92.078c.085-12.114,9.79-22.01,22.342-21.937,12.159.071,22.178,9.883,21.961,22.471-.203,11.764-9.754,21.773-22.498,21.598-12.042-.166-21.794-9.762-21.805-22.132Z"/>
      <path class="cls-14" d="m907.79,82.133c3.973.048,6.605,2.132,7.169,5.536.236,1.421-.185,2.643-1.127,3.671-.864.943-1.773,1.854-2.731,2.702-1.025.909-1.869,1.892-2.145,3.28-.232,1.167-.936,1.732-2.155,1.54-1.232-.194-1.334-1.074-1.385-2.104-.103-2.069,1.042-3.441,2.431-4.709.657-.599,1.396-1.122,1.982-1.782,1.412-1.588,1.315-3.285-.17-4.344-1.397-.997-3.888-.624-4.788.786-.444.696-.76,1.483-1.061,2.257-.461,1.186-1.382,1.378-2.45,1.155-1.088-.227-1.328-1.054-1.254-2.043.193-2.571,1.812-4.116,3.935-5.163,1.186-.585,2.528-.865,3.748-.783Z"/>
      <path class="cls-12" d="m907.307,104.846c-1.32,0-2.19-.878-2.179-2.197.011-1.354.827-2.157,2.191-2.156,1.361,0,2.177.81,2.183,2.167.006,1.3-.885,2.187-2.195,2.186Z"/>
    </g>
    <text class="cls-19" transform="translate(609.95 99.24)"><tspan x="0" y="0">을(를) 묻고 대답 기다리기</tspan></text>
    <g>
      <g>
        <path class="cls-13" d="m68.692,112.08c-10.975,0-19.903-8.929-19.903-19.903s8.929-19.903,19.903-19.903h505.686c10.975,0,19.903,8.929,19.903,19.903s-8.929,19.903-19.903,19.903H68.692Z"/>
        <path class="cls-15" d="m574.378,73.274c10.423,0,18.903,8.48,18.903,18.903s-8.48,18.903-18.903,18.903H68.692c-10.423,0-18.903-8.48-18.903-18.903s8.48-18.903,18.903-18.903h505.686m0-2H68.692c-11.497,0-20.903,9.406-20.903,20.903s9.406,20.903,20.903,20.903h505.686c11.497,0,20.903-9.406,20.903-20.903h0c0-11.497-9.406-20.903-20.903-20.903h0Z"/>
      </g>
      <text class="cls-28" transform="translate(63.229 99.24)"><tspan class="cls-32" x="0" y="0">별을 그리고 싶다면 ‘별</tspan><tspan class="cls-34" x="189.275" y="0">’</tspan><tspan class="cls-33" x="192.041" y="0">,</tspan><tspan class="cls-32" x="197.439" y="0" xml:space="preserve"> 지우고 싶다면 ’지우기’를 입력하세요</tspan><tspan class="cls-29" x="509.907" y="0">.</tspan></text>
    </g>
  </g>
  <g>
    <g>
      <g>
        <g>
          <path class="cls-25" d="m21.348,460.856s-.001-.01-.003-.015v.015s.003,0,.003,0Z"/>
          <path class="cls-25" d="m501.709,517.02H71.548l-10.506,11.226-12.645-11.226v-56.038l12.441,11.461,12.387-11.471,416.812-.091c16.083,0,29.097-13.805,27.779-30.151-1.175-14.565-13.733-25.591-28.345-25.591H46.509l-12.543,11.548-12.023-10.98c-.238-.218-.622-.049-.622.274v54.741c0,.042.011.081.025.12l.09-1.851.056,89.595,12.379,11.613,12.516-11.613h455.322c8.716,0,15.782-7.066,15.782-15.783s-7.066-15.783-15.782-15.783Z"/>
        </g>
        <g>
          <path class="cls-8" d="m510.593,433.114c.233,11.599-9.583,22.21-22.59,21.903-11.361-.268-21.522-9.45-21.508-22.104.014-12.581,10.427-22.278,22.629-21.994,11.969.279,21.786,10.209,21.47,22.194Z"/>
          <path class="cls-7" d="m496.676,434.646c-.095,0-.185.021-.279.028l-4.684-7.075c.647-.892.942-2.055.623-3.302-.356-1.388-1.5-2.504-2.899-2.812-2.553-.562-4.81,1.366-4.81,3.821,0,.859.284,1.646.753,2.292l-4.684,7.075c-.094-.007-.183-.028-.279-.028-2.466,0-4.4,2.277-3.814,4.843.323,1.416,1.474,2.567,2.89,2.89,2.566.586,4.843-1.348,4.843-3.814,0-1.153-.507-2.18-1.3-2.897l4.386-6.625c.358.108.731.183,1.124.183s.766-.076,1.124-.183l4.386,6.625c-1.013.917-1.56,2.338-1.178,3.884.344,1.389,1.482,2.51,2.877,2.828,2.564.583,4.839-1.35,4.839-3.815,0-2.165-1.755-3.919-3.919-3.919Z"/>
        </g>
        <text class="cls-17" transform="translate(53.225 441.107)"><tspan x="0" y="0">만일</tspan></text>
        <text class="cls-17" transform="translate(362.256 441.107)"><tspan x="0" y="0">(이)라면</tspan></text>
        <g>
          <g>
            <g>
              <polygon class="cls-10" points="109.796 432.761 125.323 412.857 333.398 412.457 348.924 432.359 333.397 452.264 125.321 452.663 109.796 432.761"/>
              <path class="cls-5" d="m332.911,413.458l14.745,18.901-14.748,18.905-207.099.398-14.745-18.901,14.748-18.905,207.099-.398m.975-2.002l-209.052.401-16.307,20.903,16.307,20.903,209.052-.401,16.306-20.903-16.306-20.903h0Z"/>
            </g>
            <polygon class="cls-4" points="348.603 426.768 348.603 438.886 354.149 433.078 348.603 426.768"/>
          </g>
          <g>
            <g>
              <g>
                <path class="cls-9" d="m147.015,452.664c-10.975,0-19.903-8.929-19.903-19.903s8.929-19.903,19.903-19.903h25.71c10.975,0,19.903,8.929,19.903,19.903s-8.929,19.903-19.903,19.903h-25.71Z"/>
                <path class="cls-2" d="m172.725,413.857c10.423,0,18.903,8.48,18.903,18.903s-8.48,18.903-18.903,18.903h-25.71c-10.423,0-18.903-8.48-18.903-18.903s8.48-18.903,18.903-18.903h25.71m0-2h-25.71c-11.497,0-20.903,9.406-20.903,20.903s9.406,20.903,20.903,20.903h25.71c11.497,0,20.903-9.406,20.903-20.903s-9.406-20.903-20.903-20.903h0Z"/>
              </g>
              <text class="cls-21" transform="translate(141.33 439.823)"><tspan x="0" y="0">대답</tspan></text>
            </g>
            <g>
              <g>
                <path class="cls-13" d="m272.483,452.664c-10.975,0-19.902-8.929-19.902-19.903s8.928-19.903,19.902-19.903h40.499c10.975,0,19.903,8.929,19.903,19.903s-8.929,19.903-19.903,19.903h-40.499Z"/>
                <path class="cls-15" d="m312.983,413.857c10.423,0,18.903,8.48,18.903,18.903s-8.48,18.903-18.903,18.903h-40.499c-10.423,0-18.903-8.48-18.903-18.903s8.48-18.903,18.903-18.903h40.499m0-2h-40.499c-11.497,0-20.903,9.406-20.903,20.903h0c0,11.497,9.406,20.903,20.903,20.903h40.499c11.497,0,20.903-9.406,20.903-20.903h0c0-11.497-9.406-20.903-20.903-20.903h0Z"/>
              </g>
              <text class="cls-22" transform="translate(264.231 439.823)"><tspan x="0" y="0">지우기</tspan></text>
            </g>
          </g>
          <rect class="cls-5" x="205.692" y="412.954" width="30.968" height="39.613" rx="3.355" ry="3.355"/>
          <text class="cls-21" transform="translate(211.138 439.823)"><tspan x="0" y="0">＝</tspan></text>
        </g>
        <path class="cls-27" d="m440.11,510.726h0"/>
      </g>
      <g>
        <g>
          <path class="cls-25" d="m48.536,516.559s-.001-.01-.003-.015v.015s.003,0,.003,0Z"/>
          <path class="cls-25" d="m359.501,486.432c-1.175-14.565-13.733-25.591-28.345-25.591H73.697l-12.543,11.548-12.023-10.98c-.238-.218-.622-.049-.622.274v54.741c0,.042.011.081.025.119l.09-1.851-.087,1.992,12.441,11.461,12.387-11.471,258.357-.091c16.083,0,29.097-13.805,27.779-30.151Z"/>
        </g>
        <g>
          <path class="cls-8" d="m352.277,488.816c.233,11.599-9.583,22.21-22.59,21.903-11.361-.268-21.522-9.45-21.508-22.104.014-12.581,10.427-22.278,22.629-21.994,11.969.279,21.786,10.209,21.47,22.194Z"/>
          <path class="cls-7" d="m338.361,490.348c-.095,0-.185.021-.279.028l-4.684-7.075c.647-.892.942-2.055.623-3.302-.356-1.388-1.5-2.504-2.899-2.812-2.553-.562-4.81,1.366-4.81,3.821,0,.859.284,1.646.753,2.292l-4.684,7.075c-.094-.007-.183-.028-.279-.028-2.466,0-4.4,2.277-3.814,4.843.323,1.416,1.474,2.567,2.89,2.89,2.566.586,4.843-1.348,4.843-3.814,0-1.153-.507-2.18-1.3-2.897l4.386-6.625c.358.108.731.183,1.124.183s.766-.076,1.124-.183l4.386,6.625c-1.013.917-1.56,2.338-1.178,3.884.344,1.389,1.482,2.51,2.877,2.828,2.564.583,4.839-1.35,4.839-3.815,0-2.165-1.755-3.919-3.919-3.919Z"/>
        </g>
        <text class="cls-17" transform="translate(80.413 496.809)"><tspan x="0" y="0">모든 복제본 삭제하기</tspan></text>
      </g>
    </g>
    <g>
      <g>
        <g>
          <path class="cls-25" d="m21.348,174.948s-.001-.01-.003-.015v.015s.003,0,.003,0Z"/>
          <path class="cls-25" d="m501.709,373.768H73.118l-12.439,11.589-12.282-11.589v-198.694l12.441,11.461,12.387-11.471,382.174-.091c16.083,0,29.097-13.805,27.779-30.151-1.175-14.565-13.733-25.591-28.345-25.591H46.509l-12.543,11.548-12.023-10.98c-.238-.218-.622-.049-.622.274v54.741c0,.042.011.081.025.12l.09-1.851.056,232.251,12.379,11.613,12.516-11.613h455.322c8.716,0,15.782-7.066,15.782-15.783s-7.066-15.783-15.782-15.783Z"/>
        </g>
        <g>
          <path class="cls-8" d="m475.954,147.205c.233,11.599-9.583,22.21-22.59,21.903-11.361-.268-21.522-9.45-21.508-22.104.014-12.581,10.427-22.278,22.629-21.994,11.969.279,21.786,10.209,21.47,22.194Z"/>
          <path class="cls-7" d="m462.038,148.737c-.095,0-.185.021-.279.028l-4.684-7.075c.647-.892.942-2.055.623-3.302-.356-1.388-1.5-2.504-2.899-2.812-2.553-.562-4.81,1.366-4.81,3.821,0,.859.284,1.646.753,2.292l-4.684,7.075c-.094-.007-.183-.028-.279-.028-2.466,0-4.4,2.277-3.814,4.843.323,1.416,1.474,2.567,2.89,2.89,2.566.586,4.843-1.348,4.843-3.814,0-1.153-.507-2.18-1.3-2.897l4.386-6.625c.358.108.731.183,1.124.183s.766-.076,1.124-.183l4.386,6.625c-1.013.917-1.56,2.338-1.178,3.884.344,1.389,1.482,2.51,2.877,2.828,2.564.583,4.839-1.35,4.839-3.815,0-2.165-1.755-3.919-3.919-3.919Z"/>
        </g>
        <text class="cls-17" transform="translate(53.225 155.198)"><tspan x="0" y="0">만일</tspan></text>
        <text class="cls-17" transform="translate(327.617 155.198)"><tspan x="0" y="0">(이)라면</tspan></text>
        <g>
          <g>
            <g>
              <polygon class="cls-10" points="109.796 146.852 125.323 126.948 298.761 126.549 314.285 146.45 298.759 166.355 125.321 166.754 109.796 146.852"/>
              <path class="cls-5" d="m298.273,127.55l14.745,18.901-14.748,18.905-172.461.397-14.745-18.901,14.748-18.905,172.461-.397m.975-2.002l-174.414.401-16.307,20.903,16.307,20.903,174.414-.401,16.307-20.903-16.307-20.903h0Z"/>
            </g>
            <polygon class="cls-4" points="313.965 140.86 313.965 152.977 319.511 147.169 313.965 140.86"/>
          </g>
          <g>
            <g>
              <g>
                <path class="cls-9" d="m147.015,166.755c-10.975,0-19.903-8.929-19.903-19.903s8.929-19.902,19.903-19.902h25.71c10.975,0,19.903,8.928,19.903,19.902s-8.929,19.903-19.903,19.903h-25.71Z"/>
                <path class="cls-2" d="m172.725,127.949c10.423,0,18.903,8.48,18.903,18.903s-8.48,18.903-18.903,18.903h-25.71c-10.423,0-18.903-8.48-18.903-18.903s8.48-18.903,18.903-18.903h25.71m0-2h-25.71c-11.497,0-20.903,9.406-20.903,20.903h0c0,11.497,9.406,20.903,20.903,20.903h25.71c11.497,0,20.903-9.406,20.903-20.903h0c0-11.497-9.406-20.903-20.903-20.903h0Z"/>
              </g>
              <text class="cls-21" transform="translate(141.33 153.914)"><tspan x="0" y="0">대답</tspan></text>
            </g>
            <g>
              <path class="cls-13" d="m272.08,166.755c-10.975,0-19.903-8.929-19.903-19.903s8.929-19.902,19.903-19.902h5.86c10.975,0,19.903,8.928,19.903,19.902s-8.929,19.903-19.903,19.903h-5.86Z"/>
              <path class="cls-15" d="m277.941,127.949c10.423,0,18.903,8.48,18.903,18.903s-8.48,18.903-18.903,18.903h-5.86c-10.423,0-18.903-8.48-18.903-18.903s8.48-18.903,18.903-18.903h5.86m0-2h-5.86c-11.497,0-20.903,9.406-20.903,20.903h0c0,11.497,9.406,20.903,20.903,20.903h5.86c11.497,0,20.903-9.406,20.903-20.903h0c0-11.497-9.406-20.903-20.903-20.903h0Z"/>
            </g>
            <text class="cls-22" transform="translate(264.634 153.914)"><tspan x="0" y="0">별</tspan></text>
          </g>
          <rect class="cls-5" x="205.692" y="127.046" width="30.968" height="39.613" rx="3.355" ry="3.355"/>
          <text class="cls-21" transform="translate(211.138 153.915)"><tspan x="0" y="0">＝</tspan></text>
        </g>
        <path class="cls-27" d="m450.115,396.405h0"/>
      </g>
      <g>
        <g>
          <path class="cls-25" d="m48.08,230.651s-.001-.01-.003-.015v.015s.003,0,.003,0Z"/>
          <path class="cls-26" d="m317.156,342.086H98.28l-10.506,11.226-12.645-11.226v-111.31l12.441,11.461,12.387-11.471,202.527-.091c16.083,0,29.097-13.805,27.779-30.151-1.175-14.565-13.733-25.591-28.345-25.591H73.24l-12.543,11.548-12.023-10.98c-.238-.218-.622-.049-.622.274v54.741c0,.042.011.081.025.12l.09-1.851.056,144.867,12.379,11.613,12.516-11.613h244.037c8.716,0,15.782-7.066,15.782-15.783s-7.066-15.783-15.782-15.783Z"/>
        </g>
        <path class="cls-27" d="m466.842,432.338h0"/>
      </g>
      <g>
        <g>
          <g>
            <path class="cls-25" d="m75.267,342.086s-.001-.01-.003-.015v.015s.003,0,.003,0Z"/>
            <path class="cls-25" d="m427.023,311.96c-1.175-14.565-13.733-25.591-28.345-25.591H100.428l-12.543,11.548-12.023-10.98c-.238-.218-.622-.049-.622.274v54.741c0,.042.011.081.025.119l.09-1.851-.087,1.992,12.441,11.461,12.387-11.471,299.148-.091c16.083,0,29.097-13.805,27.779-30.151Z"/>
          </g>
          <g>
            <path class="cls-8" d="m419.799,314.343c.233,11.599-9.583,22.21-22.59,21.903-11.361-.268-21.522-9.45-21.508-22.104.014-12.581,10.427-22.278,22.629-21.994,11.969.279,21.786,10.209,21.47,22.194Z"/>
            <path class="cls-7" d="m405.882,315.875c-.095,0-.185.021-.279.028l-4.684-7.075c.647-.892.942-2.055.623-3.302-.356-1.388-1.5-2.504-2.899-2.812-2.553-.562-4.81,1.366-4.81,3.821,0,.859.284,1.646.753,2.292l-4.684,7.075c-.094-.007-.183-.028-.279-.028-2.466,0-4.4,2.277-3.814,4.843.323,1.416,1.474,2.567,2.89,2.89,2.566.586,4.843-1.348,4.843-3.814,0-1.153-.507-2.18-1.3-2.897l4.386-6.625c.358.108.731.183,1.124.183s.766-.076,1.124-.183l4.386,6.625c-1.013.917-1.56,2.338-1.178,3.884.344,1.389,1.482,2.51,2.877,2.828,2.564.583,4.839-1.35,4.839-3.815,0-2.165-1.755-3.919-3.919-3.919Z"/>
          </g>
          <text class="cls-17" transform="translate(196.382 322.336)"><tspan x="0" y="0">의 복제본 만들기</tspan></text>
        </g>
        <g>
          <path class="cls-8" d="m175.507,294.152l-63.325-.061c-3.657-.014-6.893,2.767-6.868,6.912.052,8.797.052,17.595,0,26.392-.024,4.145,3.212,6.915,6.869,6.91,56.653-.084,6.672-.059,63.325-.059,4.46,0,6.868-2.426,6.87-6.935.004-8.742.004-17.483,0-26.225-.002-4.508-2.41-6.934-6.871-6.934Z"/>
          <path class="cls-3" d="m165.617,308.943c1.503,0,3.006-.003,4.509.001.951.003,1.744.288,2.197,1.211.47.958.064,1.702-.534,2.425-1.451,1.754-2.859,3.543-4.343,5.268-1.318,1.533-2.389,1.523-3.72-.029-1.519-1.771-2.972-3.598-4.452-5.402-.521-.635-.812-1.313-.452-2.145.374-.865,1.045-1.293,1.954-1.309,1.614-.027,3.228-.008,4.842-.008v-.013Z"/>
          <text class="cls-18" transform="translate(114.694 322.034)"><tspan x="0" y="0">자신</tspan></text>
        </g>
      </g>
      <g>
        <g>
          <g>
            <path class="cls-25" d="m75.267,286.368s-.001-.01-.003-.015v.015s.003,0,.003,0Z"/>
            <path class="cls-25" d="m358.685,256.242c-1.175-14.565-13.733-25.591-28.345-25.591H100.428l-12.543,11.548-12.023-10.98c-.238-.218-.622-.049-.622.274v54.741c0,.042.011.081.025.119l.09-1.851-.087,1.992,12.441,11.461,12.387-11.471,230.81-.091c16.083,0,29.097-13.805,27.779-30.151Z"/>
          </g>
          <g>
            <path class="cls-8" d="m351.461,258.626c.233,11.599-9.583,22.21-22.59,21.903-11.361-.268-21.522-9.45-21.508-22.104.014-12.581,10.427-22.278,22.629-21.994,11.969.279,21.786,10.209,21.47,22.194Z"/>
            <path class="cls-7" d="m337.545,260.158c-.095,0-.185.021-.279.028l-4.684-7.075c.647-.892.942-2.055.623-3.302-.356-1.388-1.5-2.504-2.899-2.812-2.553-.562-4.81,1.366-4.81,3.821,0,.859.284,1.646.753,2.292l-4.684,7.075c-.094-.007-.183-.028-.279-.028-2.466,0-4.4,2.277-3.814,4.843.323,1.416,1.474,2.567,2.89,2.89,2.566.586,4.843-1.348,4.843-3.814,0-1.153-.507-2.18-1.3-2.897l4.386-6.625c.358.108.731.183,1.124.183s.766-.076,1.124-.183l4.386,6.625c-1.013.917-1.56,2.338-1.178,3.884.344,1.389,1.482,2.51,2.877,2.828,2.564.583,4.839-1.35,4.839-3.815,0-2.165-1.755-3.919-3.919-3.919Z"/>
          </g>
          <text class="cls-17" transform="translate(172.83 266.618)"><tspan x="0" y="0">초 기다리기</tspan></text>
        </g>
        <g>
          <path class="cls-13" d="m120.979,277.352c-10.975,0-19.903-8.929-19.903-19.903s8.929-19.903,19.903-19.903h16.779c10.975,0,19.903,8.929,19.903,19.903s-8.929,19.903-19.903,19.903h-16.779Z"/>
          <path class="cls-15" d="m137.758,238.545c10.423,0,18.903,8.48,18.903,18.903s-8.48,18.903-18.903,18.903h-16.779c-10.423,0-18.903-8.48-18.903-18.903s8.48-18.903,18.903-18.903h16.779m0-2h-16.779c-11.497,0-20.903,9.406-20.903,20.903h0c0,11.497,9.406,20.903,20.903,20.903h16.779c11.497,0,20.903-9.406,20.903-20.903h0c0-11.497-9.406-20.903-20.903-20.903h0Z"/>
        </g>
        <text class="cls-28" transform="translate(114.532 264.51)"><tspan class="cls-31" x="0" y="0">0</tspan><tspan class="cls-30" x="13.34" y="0">.</tspan><tspan class="cls-20" x="17.065" y="0">1</tspan></text>
      </g>
    </g>
  </g>
  <rect class="cls-1" x="126.112" y="125.949" width="67.516" height="41.806" rx="10" ry="10"/>
  <rect class="cls-1" x="126.112" y="411.857" width="67.516" height="41.806" rx="10" ry="10"/>
</svg>