<?xml version="1.0" encoding="UTF-8"?>
<svg id="_레이어_1" data-name="레이어 1" xmlns="http://www.w3.org/2000/svg" viewBox="0 0 687.091 245.818">
  <defs>
    <style>
      .cls-1 {
        fill: #c72345;
      }

      .cls-1, .cls-2, .cls-3, .cls-4, .cls-5, .cls-6, .cls-7, .cls-8, .cls-9, .cls-10 {
        stroke-width: 0px;
      }

      .cls-2, .cls-11, .cls-12, .cls-13 {
        fill: #fefefe;
      }

      .cls-14, .cls-15, .cls-13 {
        letter-spacing: -.025em;
      }

      .cls-3 {
        fill: #fbdb80;
      }

      .cls-16 {
        letter-spacing: -.057em;
      }

      .cls-4 {
        fill: #c62042;
      }

      .cls-17 {
        fill: #fe3a61;
        stroke: #c62142;
        stroke-linecap: round;
        stroke-linejoin: round;
      }

      .cls-17, .cls-18 {
        stroke-width: 2px;
      }

      .cls-18 {
        stroke: #009400;
        stroke-miterlimit: 10;
      }

      .cls-18, .cls-10 {
        fill: #00b300;
      }

      .cls-5 {
        fill: #fcdc81;
      }

      .cls-11, .cls-15, .cls-12, .cls-19, .cls-13 {
        font-family: Pretendard-Bold-KSCpc-EUC-H, Pretendard;
        font-weight: 700;
      }

      .cls-11, .cls-12 {
        font-size: 26px;
      }

      .cls-6 {
        fill: #fe9b01;
      }

      .cls-15, .cls-19, .cls-13 {
        font-size: 22px;
      }

      .cls-7 {
        fill: #fedd81;
      }

      .cls-12 {
        letter-spacing: -.025em;
      }

      .cls-8 {
        fill: #fe9b00;
      }

      .cls-9 {
        fill: #fe5576;
      }
    </style>
  </defs>
  <g>
    <g>
      <path class="cls-18" d="m378.366,33.954c-2.293-12.79-13.661-22.1-26.741-22.14-81.917-.248-207.345-.502-289.263-.713-2.727-.007-4.859-.438-7.168-2.398C48.028,2.617,39.547.119,30.1,1.274,20.381,2.464,12.681,7.161,7.067,15.04,2.193,21.879.212,29.582,1.283,38.024c1.177,9.281,5.523,16.675,12.825,22.461,2.165,1.716,6.8,4.434,7.455,4.816.055.032.101.067.148.11l11.686,10.762c.84.872,2.14.793,2.931-.015l10.743-9.885c.26-.239.6-.372.952-.372l301.593.032c1.539.004,3.069-.064,4.601-.205l.974-.089c15.315-1.89,25.945-16.233,23.175-31.685Z"/>
      <path class="cls-2" d="m34.016,62.097c-15.48-.051-28.037-12.66-27.997-28.114.04-15.539,12.694-28.067,28.28-27.997,15.45.069,27.973,12.72,27.913,28.197-.06,15.443-12.708,27.964-28.196,27.914Z"/>
      <text class="cls-11" transform="translate(73.185 47.539) rotate(.173)"><tspan x="0" y="0">시작하기 버튼을 클릭했을 때</tspan></text>
    </g>
    <path class="cls-10" d="m27.49,33.709c0-2.979-.003-5.959.002-8.938.001-.871-.04-1.782.9-2.272.89-.464,1.669-.113,2.434.376,4.656,2.978,9.324,5.939,13.977,8.921,2.063,1.322,2.073,2.615.042,3.913-4.656,2.976-9.325,5.932-13.976,8.916-.771.494-1.55.863-2.428.428-.92-.456-.963-1.342-.958-2.244.016-3.033.006-6.067.006-9.101Z"/>
  </g>
  <g>
    <g>
      <path class="cls-17" d="m502.572,65.914H47.502c-.658,0-1.288.262-1.753.727l-10.791,10.821-12.024-10.981c-.238-.218-.622-.049-.622.274v54.741c0,.101.042.199.115.269l12.53,11.955,13.032-12.065h454.581c15.329,0,27.871-12.542,27.871-27.871h0c0-15.329-12.542-27.871-27.871-27.871Z"/>
      <g>
        <g>
          <path class="cls-4" d="m414.556,113.454c-14.548,0-29.095.001-43.643,0-3.175,0-4.593-1.41-4.594-4.569-.003-10.355-.003-20.71,0-31.065.001-3.029,1.457-4.455,4.54-4.455,29.207-.002,58.415-.002,87.622,0,3.418,0,4.878,1.469,4.879,4.903.002,10.132.003,20.264,0,30.397-.001,3.292-1.509,4.788-4.824,4.789-14.66.003-29.319.001-43.979.001Z"/>
          <path class="cls-4" d="m477.464,93.308c.085-12.114,9.79-22.01,22.342-21.937,12.159.071,22.178,9.883,21.961,22.471-.203,11.764-9.754,21.773-22.498,21.598-12.042-.166-21.794-9.762-21.805-22.132Z"/>
          <path class="cls-8" d="m88.149,114.456c-5.708,0-11.416.01-17.125-.003-9.626-.021-18.315-6.542-20.479-15.866-2.881-12.417,4.413-22.858,15.839-25.753,1.388-.352,2.872-.449,4.312-.453,11.696-.035,23.392-.041,35.088-.012,10.254.026,18.915,7.865,20.541,17.966,1.904,11.832-7.353,22.757-17.891,23.864-1.168.123-2.325.256-3.498.257-5.596.001-11.192,0-16.789,0Z"/>
          <path class="cls-6" d="m259.94,93.459c.462,11.521-9.772,20.946-20.786,21.039-11.933.1-21.41-9.928-21.395-21.035.015-11.196,9.427-21.07,20.981-21.145,11.874-.077,21.767,10.091,21.199,21.141Z"/>
          <path class="cls-2" d="m453.144,89.475c-.401-.888-1.172-1.308-2.152-1.313l-9.375.029c-.865.022-1.679.285-2.04,1.183-.34.847-.146,1.625.436,2.325,1.492,1.794,2.952,3.616,4.471,5.386,1.243,1.448,2.36,1.471,3.606.035,1.565-1.803,3.033-3.69,4.578-5.51.556-.655.83-1.35.476-2.135Z"/>
          <path class="cls-9" d="m500.364,94.746c2.854.024,5.612,2.731,5.624,5.52.014,3.13-2.722,5.849-5.866,5.829-3.016-.018-5.566-2.746-5.533-5.919.031-3.007,2.636-5.457,5.775-5.43Z"/>
          <rect class="cls-9" x="502.751" y="85.13" width="9.448" height="9.448" transform="translate(212.172 -332.522) rotate(45)"/>
          <path class="cls-7" d="m88.181,112.45c-5.703,0-11.407.01-17.11-.002-8.18-.017-15.561-5.265-18.108-12.855-2.695-8.032-.056-16.314,6.666-21.413,3.431-2.602,7.262-3.796,11.499-3.806,11.406-.027,22.813-.018,34.22-.006,9.023.01,16.48,5.837,18.65,14.541,2.323,9.316-2.808,18.901-11.85,22.327-2.183.827-4.4,1.19-6.69,1.203-5.759.032-11.518.011-17.277.011Z"/>
          <path class="cls-7" d="m257.931,93.574c.429,9.99-8.671,18.974-19.039,18.913-11.074-.066-19.206-9.679-19.129-19.142.082-10.145,8.896-19.056,19.081-19.017,10.739.041,19.646,9.25,19.087,19.247Z"/>
          <path class="cls-1" d="m401.993,91.739c1.256-.022,2.223.921,2.182,2.215-.04,1.272-.632,2.104-2.021,2.157-1.365.052-2.237-.744-2.28-2.075-.042-1.281.876-2.275,2.12-2.297Z"/>
          <path class="cls-5" d="m73.949,89.277c.004,1.683-1.052,2.808-2.623,2.794-1.468-.013-2.522-1.129-2.557-2.711-.036-1.593,1.114-2.915,2.559-2.943,1.45-.028,2.616,1.245,2.62,2.861Z"/>
          <path class="cls-3" d="m94.547,100.745c-.95.113-1.865-.088-2.736-.473-.583-.258-1.057-.687-1.064-1.362-.007-.654.373-1.181.963-1.44,1.923-.843,3.889-.884,5.751.1,1.309.691,1.198,1.984-.162,2.655-.851.42-1.772.629-2.752.52Z"/>
          <polygon class="cls-9" points="498.595 92.809 498.595 86.376 493.024 83.16 487.453 86.376 487.453 92.809 493.024 96.025 498.595 92.809"/>
        </g>
        <text class="cls-15" transform="translate(66.606 101.825)"><tspan x="0" y="0">안녕!</tspan></text>
        <text class="cls-15" transform="translate(232.606 100.814)"><tspan x="0" y="0">2</tspan></text>
        <text class="cls-12" transform="translate(139.765 102.313)"><tspan x="0" y="0">을(를)</tspan></text>
        <text class="cls-12" transform="translate(275.984 103.887)"><tspan x="0" y="0">초 동안</tspan></text>
        <text class="cls-13" transform="translate(377.384 101.657)"><tspan x="0" y="0">말하기</tspan></text>
      </g>
    </g>
    <g>
      <path class="cls-17" d="m617.789,121.463H47.502c-.658,0-1.288.262-1.753.727l-10.791,10.821-12.024-10.981c-.238-.218-.622-.049-.622.274v54.741c0,.101.042.199.115.269l12.53,11.955,13.032-12.065h569.798c15.329,0,27.871-12.542,27.871-27.871h0c0-15.329-12.542-27.871-27.871-27.871Z"/>
      <g>
        <g>
          <path class="cls-4" d="m529.773,169.002c-14.548,0-29.095.001-43.643,0-3.175,0-4.593-1.41-4.594-4.569-.003-10.355-.003-20.71,0-31.065.001-3.029,1.457-4.455,4.54-4.455,29.207-.002,58.415-.002,87.622,0,3.418,0,4.878,1.469,4.879,4.903.002,10.132.003,20.264,0,30.397-.001,3.292-1.509,4.788-4.824,4.789-14.66.003-29.319.001-43.979.001Z"/>
          <path class="cls-4" d="m592.681,148.856c.085-12.114,9.79-22.01,22.342-21.937,12.159.071,22.178,9.883,21.961,22.471-.203,11.764-9.754,21.773-22.498,21.598-12.042-.166-21.794-9.762-21.805-22.132Z"/>
          <path class="cls-8" d="m88.149,170.004c-5.708,0-11.416.01-17.125-.003-9.626-.021-18.315-6.542-20.479-15.866-2.881-12.417,4.413-22.858,15.839-25.753,1.388-.352,2.872-.449,4.312-.453,11.696-.035,138.609-.041,150.305-.012,10.254.026,18.915,7.865,20.541,17.966,1.904,11.832-7.353,22.757-17.891,23.864-1.168.123-2.325.256-3.498.257-5.596.001-126.409,0-132.006,0Z"/>
          <path class="cls-6" d="m375.157,149.008c.462,11.521-9.772,20.946-20.786,21.039-11.933.1-21.41-9.928-21.395-21.035.015-11.196,9.427-21.07,20.981-21.145,11.874-.077,21.767,10.091,21.199,21.141Z"/>
          <path class="cls-2" d="m568.361,145.023c-.401-.888-1.172-1.308-2.152-1.313l-9.375.029c-.865.022-1.679.285-2.04,1.183-.34.847-.146,1.625.436,2.325,1.492,1.794,2.952,3.616,4.471,5.386,1.243,1.448,2.36,1.471,3.606.035,1.565-1.803,3.033-3.69,4.578-5.51.556-.655.83-1.35.476-2.135Z"/>
          <path class="cls-9" d="m615.581,150.294c2.854.024,5.612,2.731,5.624,5.52.014,3.13-2.722,5.849-5.866,5.829-3.016-.018-5.566-2.746-5.533-5.919.031-3.007,2.636-5.457,5.775-5.43Z"/>
          <rect class="cls-9" x="617.968" y="140.678" width="9.448" height="9.448" transform="translate(285.197 -397.723) rotate(45)"/>
          <path class="cls-7" d="m88.181,167.999c-5.703,0-11.407.01-17.11-.002-8.18-.017-15.561-5.265-18.108-12.855-2.695-8.032-.056-16.314,6.666-21.413,3.431-2.602,7.262-3.796,11.499-3.806,11.406-.027,138.03-.018,149.436-.006,9.023.01,16.48,5.837,18.65,14.541,2.323,9.316-2.808,18.901-11.85,22.327-2.183.827-4.4,1.19-6.69,1.203-5.759.032-126.735.011-132.494.011Z"/>
          <path class="cls-7" d="m373.147,149.123c.429,9.99-8.671,18.974-19.039,18.913-11.074-.066-19.206-9.679-19.129-19.142.082-10.145,8.896-19.056,19.081-19.017,10.739.041,19.646,9.25,19.087,19.247Z"/>
          <path class="cls-1" d="m517.21,147.287c1.256-.022,2.223.921,2.182,2.215-.04,1.272-.632,2.104-2.021,2.157-1.365.052-2.237-.744-2.28-2.075-.042-1.281.876-2.275,2.12-2.297Z"/>
          <polygon class="cls-9" points="613.811 148.357 613.811 141.925 608.241 138.708 602.67 141.925 602.67 148.357 608.241 151.574 613.811 148.357"/>
        </g>
        <text class="cls-19" transform="translate(66.606 157.374)"><tspan class="cls-14" x="0" y="0">나는 엔트리 봇이야</tspan><tspan class="cls-16" x="156.75" y="0">.</tspan></text>
        <text class="cls-15" transform="translate(347.823 156.363)"><tspan x="0" y="0">2</tspan></text>
        <text class="cls-12" transform="translate(254.982 157.861)"><tspan x="0" y="0">을(를)</tspan></text>
        <text class="cls-12" transform="translate(391.2 159.435)"><tspan x="0" y="0">초 동안</tspan></text>
        <text class="cls-13" transform="translate(492.601 157.205)"><tspan x="0" y="0">말하기</tspan></text>
      </g>
    </g>
    <g>
      <path class="cls-17" d="m658.22,177.011H47.502c-.658,0-1.288.262-1.753.727l-10.791,10.821-12.024-10.981c-.238-.218-.622-.049-.622.274v54.741c0,.101.042.199.115.269l12.53,11.955,13.032-12.065h610.229c15.329,0,27.871-12.542,27.871-27.871h0c0-15.329-12.542-27.871-27.871-27.871Z"/>
      <g>
        <g>
          <path class="cls-4" d="m570.204,224.55c-14.548,0-29.095.001-43.643,0-3.175,0-4.593-1.41-4.594-4.569-.003-10.355-.003-20.71,0-31.065.001-3.029,1.457-4.455,4.54-4.455,29.207-.002,58.415-.002,87.622,0,3.418,0,4.878,1.469,4.879,4.903.002,10.132.003,20.264,0,30.397-.001,3.292-1.509,4.788-4.824,4.789-14.66.003-29.319.001-43.979.001Z"/>
          <path class="cls-4" d="m633.112,204.405c.085-12.114,9.79-22.01,22.342-21.937,12.159.071,22.178,9.883,21.961,22.471-.203,11.764-9.754,21.773-22.498,21.598-12.042-.166-21.794-9.762-21.805-22.132Z"/>
          <path class="cls-8" d="m88.149,225.552c-5.708,0-11.416.01-17.125-.003-9.626-.021-18.315-6.542-20.479-15.866-2.881-12.417,4.413-22.858,15.839-25.753,1.388-.352,2.872-.449,4.312-.453,11.696-.035,179.04-.041,190.736-.012,10.254.026,18.915,7.865,20.541,17.966,1.904,11.832-7.353,22.757-17.891,23.864-1.168.123-2.325.256-3.498.257-5.596.001-166.84,0-172.437,0Z"/>
          <path class="cls-6" d="m415.588,204.556c.462,11.521-9.772,20.946-20.786,21.039-11.933.1-21.41-9.928-21.395-21.035.015-11.196,9.427-21.07,20.981-21.145,11.874-.077,21.767,10.091,21.199,21.141Z"/>
          <path class="cls-2" d="m608.792,200.572c-.401-.888-1.172-1.308-2.152-1.313l-9.375.029c-.865.022-1.679.285-2.04,1.183-.34.847-.146,1.625.436,2.325,1.492,1.794,2.952,3.616,4.471,5.386,1.243,1.448,2.36,1.471,3.606.035,1.565-1.803,3.033-3.69,4.578-5.51.556-.655.83-1.35.476-2.135Z"/>
          <path class="cls-9" d="m656.012,205.842c2.854.024,5.612,2.731,5.624,5.52.014,3.13-2.722,5.849-5.866,5.829-3.016-.018-5.566-2.746-5.533-5.919.031-3.007,2.636-5.457,5.775-5.43Z"/>
          <rect class="cls-9" x="658.399" y="196.227" width="9.448" height="9.448" transform="translate(336.318 -410.042) rotate(45)"/>
          <path class="cls-7" d="m88.181,223.547c-5.703,0-11.407.01-17.11-.002-8.18-.017-15.561-5.265-18.108-12.855-2.695-8.032-.056-16.314,6.666-21.413,3.431-2.602,7.262-3.796,11.499-3.806,11.406-.027,178.461-.018,189.868-.006,9.023.01,16.48,5.837,18.65,14.541,2.323,9.316-2.808,18.901-11.85,22.327-2.183.827-4.4,1.19-6.69,1.203-5.759.032-167.166.011-172.925.011Z"/>
          <path class="cls-7" d="m413.579,204.671c.429,9.99-8.671,18.974-19.039,18.913-11.074-.066-19.206-9.679-19.129-19.142.082-10.145,8.896-19.056,19.081-19.017,10.739.041,19.646,9.25,19.087,19.247Z"/>
          <path class="cls-1" d="m557.641,202.835c1.256-.022,2.223.921,2.182,2.215-.04,1.272-.632,2.104-2.021,2.157-1.365.052-2.237-.744-2.28-2.075-.042-1.281.876-2.275,2.12-2.297Z"/>
          <polygon class="cls-9" points="654.242 203.906 654.242 197.473 648.672 194.257 643.101 197.473 643.101 203.906 648.672 207.122 654.242 203.906"/>
        </g>
        <text class="cls-15" transform="translate(66.606 212.922)"><tspan x="0" y="0">프로그램을 작성해 보자!</tspan></text>
        <text class="cls-15" transform="translate(388.254 211.911)"><tspan x="0" y="0">2</tspan></text>
        <text class="cls-12" transform="translate(295.413 213.41)"><tspan x="0" y="0">을(를)</tspan></text>
        <text class="cls-12" transform="translate(431.632 214.984)"><tspan x="0" y="0">초 동안</tspan></text>
        <text class="cls-13" transform="translate(533.032 212.754)"><tspan x="0" y="0">말하기</tspan></text>
      </g>
    </g>
  </g>
</svg>