<?xml version="1.0" encoding="UTF-8"?>
<svg id="_레이어_1" data-name="레이어 1" xmlns="http://www.w3.org/2000/svg" viewBox="0 0 579.304 618.383">
  <defs>
    <style>
      .cls-1 {
        fill: #8b19db;
      }

      .cls-1, .cls-2, .cls-3, .cls-4, .cls-5, .cls-6, .cls-7, .cls-8, .cls-9, .cls-10, .cls-11, .cls-12, .cls-13, .cls-14, .cls-15, .cls-16 {
        stroke-width: 0px;
      }

      .cls-17 {
        fill: #f4af18;
        stroke: #ff7f00;
      }

      .cls-17, .cls-18, .cls-19, .cls-20, .cls-21 {
        stroke-width: 2px;
      }

      .cls-17, .cls-18, .cls-20, .cls-21 {
        stroke-linecap: round;
        stroke-linejoin: round;
      }

      .cls-2, .cls-22, .cls-23, .cls-24, .cls-25 {
        fill: #fefefe;
      }

      .cls-3 {
        fill: #c72042;
      }

      .cls-26, .cls-22, .cls-23, .cls-27, .cls-28, .cls-29, .cls-24, .cls-25 {
        font-family: Pretendard-Bold-KSCpc-EUC-H, Pretendard;
        font-weight: 700;
      }

      .cls-26, .cls-23, .cls-27, .cls-28, .cls-29 {
        font-size: 22px;
      }

      .cls-26, .cls-27 {
        fill: #fff;
      }

      .cls-26, .cls-29 {
        letter-spacing: -.025em;
      }

      .cls-4 {
        fill: #fefdfe;
      }

      .cls-5 {
        fill: #c62042;
      }

      .cls-18 {
        fill: #fe3a61;
        stroke: #c62142;
      }

      .cls-19 {
        stroke: #009400;
      }

      .cls-19, .cls-30 {
        stroke-miterlimit: 10;
      }

      .cls-19, .cls-16 {
        fill: #00b300;
      }

      .cls-6 {
        fill: #ffde82;
      }

      .cls-7 {
        fill: #1b3ad8;
      }

      .cls-22, .cls-24, .cls-25 {
        font-size: 26px;
      }

      .cls-8 {
        fill: #ff7f00;
      }

      .cls-20 {
        fill: #19baea;
        stroke: #1498c0;
      }

      .cls-9 {
        fill: #6dddfe;
      }

      .cls-10 {
        fill: #1498c0;
      }

      .cls-27 {
        letter-spacing: -.025em;
      }

      .cls-28 {
        letter-spacing: -.01em;
      }

      .cls-11 {
        fill: #4562f5;
      }

      .cls-12 {
        fill: #bd65fb;
      }

      .cls-21 {
        fill: #ad3efb;
        stroke: #8b19db;
      }

      .cls-13 {
        fill: #fedd81;
      }

      .cls-24 {
        letter-spacing: -.025em;
      }

      .cls-14 {
        fill: #fe9b00;
      }

      .cls-30 {
        fill: none;
        stroke: red;
        stroke-dasharray: 0 0 7.015 3.006;
        stroke-width: 4px;
      }

      .cls-25 {
        letter-spacing: -.01em;
      }

      .cls-15 {
        fill: #fe5576;
      }
    </style>
  </defs>
  <g>
    <g>
      <g>
        <path class="cls-19" d="m378.366,33.954c-2.293-12.79-13.661-22.1-26.741-22.14-81.917-.248-207.345-.502-289.263-.713-2.727-.007-4.859-.438-7.168-2.398C48.028,2.617,39.547.119,30.1,1.274,20.381,2.464,12.681,7.161,7.067,15.04,2.193,21.879.212,29.582,1.283,38.024c1.177,9.281,5.523,16.675,12.825,22.461,2.165,1.716,6.8,4.434,7.455,4.816.055.032.101.067.148.11l11.686,10.762c.84.872,2.14.793,2.931-.015l10.743-9.885c.26-.239.6-.372.952-.372l301.593.032c1.539.004,3.069-.064,4.601-.205l.974-.089c15.315-1.89,25.945-16.233,23.175-31.685Z"/>
        <path class="cls-2" d="m34.016,62.097c-15.48-.051-28.037-12.66-27.997-28.114.04-15.539,12.694-28.067,28.28-27.997,15.45.069,27.973,12.72,27.913,28.197-.06,15.443-12.708,27.964-28.196,27.914Z"/>
        <text class="cls-22" transform="translate(73.186 46.248) rotate(.173)"><tspan x="0" y="0">시작하기 버튼을 클릭했을 때</tspan></text>
      </g>
      <path class="cls-16" d="m27.49,33.709c0-2.979-.003-5.959.002-8.938.001-.871-.04-1.782.9-2.272.89-.464,1.669-.113,2.434.376,4.656,2.978,9.324,5.939,13.977,8.921,2.063,1.322,2.073,2.615.042,3.913-4.656,2.976-9.325,5.932-13.976,8.916-.771.494-1.55.863-2.428.428-.92-.456-.963-1.342-.958-2.244.016-3.033.006-6.067.006-9.101Z"/>
    </g>
    <g>
      <g>
        <path class="cls-17" d="m279.593,66.085H47.659l-12.543,11.548h0l-12.023-10.98c-.238-.218-.622-.049-.622.274v54.841l.171.168,11.328,10.345c.663.605,1.678.603,2.338-.004l10.91-10.045c.212-.195.49-.304.779-.304l231.597-.101c15.329,0,27.871-12.542,27.871-27.871s-12.542-27.871-27.871-27.871Z"/>
        <g>
          <path class="cls-8" d="m300.542,94c.233,11.599-9.583,22.21-22.59,21.903-11.361-.268-21.522-9.45-21.508-22.104.014-12.581,10.427-22.278,22.629-21.994,11.969.279,21.786,10.209,21.47,22.194Z"/>
          <g>
            <rect class="cls-6" x="265.916" y="81.274" width="25.161" height="25.161" rx="2.274" ry="2.274"/>
            <g>
              <path class="cls-8" d="m272.828,90.737h-2.11c-.21,0-.38-.17-.38-.38v-1.158c0-.21.17-.38.38-.38h2.11c.21,0,.38-.17.38-.38v-2.11c0-.21.17-.38.38-.38h1.158c.21,0,.38.17.38.38v2.11c0,.21.17.38.38.38h2.11c.21,0,.38.17.38.38v1.158c0,.21-.17.38-.38.38h-2.11c-.21,0-.38.17-.38.38v2.11c0,.21-.17.38-.38.38h-1.158c-.21,0-.38-.17-.38-.38v-2.11c0-.21-.17-.38-.38-.38Z"/>
              <path class="cls-8" d="m272.542,98.264l-1.492-1.492c-.148-.148-.148-.389,0-.538l.819-.819c.148-.148.389-.148.538,0l1.492,1.492c.148.148.389.148.538,0l1.492-1.492c.148-.148.389-.148.538,0l.819.819c.148.148.148.389,0,.538l-1.492,1.492c-.148.148-.148.389,0,.538l1.492,1.492c.148.148.148.389,0,.538l-.819.819c-.148.148-.389.148-.538,0l-1.492-1.492c-.148-.148-.389-.148-.538,0l-1.492,1.492c-.148.148-.389.148-.538,0l-.819-.819c-.148-.148-.148-.389,0-.538l1.492-1.492c.148-.148.148-.389,0-.538Z"/>
              <path class="cls-8" d="m286.275,90.743h-5.359c-.21,0-.38-.17-.38-.38v-1.17c0-.21.17-.38.38-.38h5.359c.21,0,.38.17.38.38v1.17c0,.21-.17.38-.38.38Z"/>
              <g>
                <path class="cls-8" d="m286.275,97.754h-5.359c-.21,0-.38-.17-.38-.38v-1.17c0-.21.17-.38.38-.38h5.359c.21,0,.38.17.38.38v1.17c0,.21-.17.38-.38.38Z"/>
                <path class="cls-8" d="m286.275,101.242h-5.359c-.21,0-.38-.17-.38-.38v-1.17c0-.21.17-.38.38-.38h5.359c.21,0,.38.17.38.38v1.17c0,.21-.17.38-.38.38Z"/>
              </g>
            </g>
          </g>
        </g>
      </g>
      <g>
        <path class="cls-8" d="m131.471,80.225v27.721c0,3.45,2.808,6.244,6.257,6.235,25.312-.061,72.917-.046,98.242-.044,3.444,0,6.242-2.791,6.242-6.235v-27.63c0-3.441-2.787-6.231-6.228-6.235l-98.271-.046c-3.447-.004-6.243,2.789-6.243,6.235Z"/>
        <text class="cls-23" transform="translate(141.851 101.923)"><tspan x="0" y="0">시작하기</tspan></text>
        <path class="cls-4" d="m228.634,90.192c1.503,0,3.006-.003,4.509.001.951.003,1.744.288,2.197,1.211.47.958.064,1.702-.534,2.425-1.451,1.754-2.859,3.543-4.343,5.268-1.318,1.533-2.389,1.523-3.72-.029-1.519-1.771-2.972-3.598-4.452-5.402-.521-.635-.812-1.313-.452-2.145.374-.865,1.045-1.293,1.954-1.309,1.614-.027,3.228-.008,4.842-.008v-.013Z"/>
      </g>
      <text class="cls-25" transform="translate(51.515 102.433)"><tspan x="0" y="0">초시계</tspan></text>
    </g>
    <g>
      <path class="cls-20" d="m248.507,574.205H73.833s-11.952,10.3-11.952,10.3l-12.334-10.977V178.827c0-.398.474-.606.766-.336l11.675,10.755,12.896-11.471,161.98-.091c16.083,0,29.097-13.805,27.779-30.15-1.175-14.565-13.733-25.592-28.345-25.592H47.659s-12.543,11.548-12.543,11.548l-12.023-10.98c-.238-.218-.622-.049-.622.274v54.741c0,.047.011.092.028.135h-.004l.091.134.056,427.977,12.379,11.613,12.516-11.613h201.416c8.969,0,16.191-7.482,15.764-16.546-.4-8.489-7.712-15.02-16.21-15.02Z"/>
      <g>
        <path class="cls-10" d="m254.613,149.857c.233,11.599-9.583,22.21-22.59,21.903-11.361-.268-21.522-9.45-21.508-22.104.014-12.581,10.427-22.278,22.629-21.994,11.969.279,21.786,10.209,21.47,22.194Z"/>
        <path class="cls-9" d="m240.697,151.389c-.095,0-.185.021-.279.028l-4.684-7.075c.647-.892.942-2.055.623-3.302-.356-1.388-1.5-2.504-2.899-2.812-2.553-.562-4.81,1.366-4.81,3.821,0,.859.284,1.646.753,2.292l-4.684,7.075c-.094-.007-.183-.028-.279-.028-2.466,0-4.4,2.277-3.814,4.843.323,1.416,1.474,2.567,2.89,2.89,2.566.586,4.843-1.348,4.843-3.814,0-1.153-.507-2.18-1.3-2.897l4.386-6.625c.358.108.731.183,1.124.183s.766-.076,1.124-.183l4.386,6.625c-1.013.917-1.56,2.338-1.178,3.884.344,1.389,1.482,2.51,2.877,2.828,2.564.583,4.839-1.35,4.839-3.815,0-2.165-1.755-3.919-3.919-3.919Z"/>
      </g>
      <text class="cls-22" transform="translate(56.481 157.614)"><tspan x="0" y="0">계속 반복하기</tspan></text>
    </g>
    <g>
      <path class="cls-20" d="m562.522,290.231l-460.8.255-12.741,11.698-12.507-11.954v-56.044l12.441,11.461,12.387-11.471,449.131-.091c16.083,0,29.098-13.806,27.779-30.151-1.175-14.565-13.733-25.591-28.345-25.591H74.585l-12.415,10.542-11.826-9.974c-.564-.217-.948-.048-.948.274l.171,142.61,12.379,11.613,12.516-11.613h488.059c8.716,0,15.782-7.066,15.782-15.783s-7.066-15.783-15.782-15.783Z"/>
      <g>
        <path class="cls-10" d="m568.181,206.259c.233,11.599-9.583,22.21-22.59,21.903-11.361-.268-21.522-9.45-21.508-22.104.014-12.581,10.427-22.278,22.629-21.994,11.969.279,21.786,10.209,21.47,22.194Z"/>
        <path class="cls-9" d="m554.265,207.792c-.095,0-.185.021-.279.028l-4.684-7.075c.647-.892.942-2.055.623-3.302-.356-1.388-1.5-2.504-2.899-2.812-2.553-.562-4.81,1.366-4.81,3.821,0,.859.284,1.646.753,2.292l-4.684,7.075c-.094-.007-.183-.028-.279-.028-2.466,0-4.4,2.277-3.814,4.843.323,1.416,1.474,2.567,2.89,2.89,2.566.586,4.843-1.348,4.843-3.814,0-1.153-.507-2.18-1.3-2.897l4.386-6.625c.358.108.731.183,1.124.183s.766-.076,1.124-.183l4.386,6.625c-1.013.917-1.56,2.338-1.178,3.884.344,1.389,1.482,2.51,2.877,2.828,2.564.583,4.839-1.35,4.839-3.815,0-2.165-1.755-3.919-3.919-3.919Z"/>
      </g>
      <text class="cls-22" transform="translate(86.505 214.015)"><tspan x="0" y="0">만일</tspan></text>
      <text class="cls-22" transform="translate(420.796 214.015)"><tspan x="0" y="0">(이)라면</tspan></text>
    </g>
    <g>
      <g>
        <polygon class="cls-11" points="163.209 226.009 147.682 206.106 163.209 186.203 390.448 186.203 405.974 206.106 390.448 226.009 163.209 226.009"/>
        <path class="cls-7" d="m389.96,187.203l14.747,18.903-14.747,18.903h-226.263l-14.746-18.903,14.746-18.903h226.263m.977-2h-228.216l-16.306,20.903,16.306,20.903h228.216l16.307-20.903-16.307-20.903h0Z"/>
      </g>
      <g>
        <rect class="cls-7" x="164.308" y="186.187" width="102.194" height="39.613" rx="3.355" ry="3.355"/>
        <text class="cls-26" transform="translate(172.639 213.055)"><tspan x="0" y="0">미로(4)</tspan></text>
        <text class="cls-26" transform="translate(278.188 213.055)"><tspan x="0" y="0">에 닿았는가?</tspan></text>
        <path class="cls-4" d="m249.333,201.315c1.503,0,3.006-.003,4.509.001.951.003,1.744.288,2.197,1.211.47.958.064,1.702-.534,2.425-1.451,1.754-2.859,3.543-4.343,5.268-1.318,1.533-2.389,1.523-3.72-.029-1.519-1.771-2.972-3.598-4.452-5.402-.521-.635-.812-1.313-.452-2.145.374-.865,1.045-1.293,1.954-1.309,1.614-.027,3.228-.008,4.842-.008v-.013Z"/>
      </g>
    </g>
    <g>
      <path class="cls-21" d="m524.283,234.156H101.802s0,0,0,0l-12.543,11.548h0l-12.023-10.98c-.238-.218-.622-.049-.622.274v54.841l.171.168,11.328,10.345c.662.605,1.677.603,2.337-.005l10.91-10.045c.212-.195.49-.304.779-.304l421.986-.101c18.3,0,32.628-17.876,26.386-37.028-3.669-11.257-14.388-18.714-26.227-18.714Z"/>
      <path class="cls-1" d="m500.974,261.847c.085-12.114,9.79-22.01,22.342-21.937,12.159.071,22.178,9.883,21.961,22.471-.203,11.764-9.754,21.773-22.498,21.598-12.042-.166-21.794-9.762-21.805-22.132Z"/>
      <g>
        <polygon class="cls-12" points="535.889 256.986 528.772 251.615 528.772 254.759 519.041 253.792 519.041 260.179 528.772 259.212 528.772 262.357 535.889 256.986"/>
        <polygon class="cls-12" points="510.366 266.905 517.483 272.276 517.483 269.132 527.213 270.099 527.213 263.711 517.483 264.678 517.483 261.534 510.366 266.905"/>
      </g>
      <text class="cls-25" transform="translate(105.656 270.506)"><tspan x="0" y="0">x:</tspan></text>
      <text class="cls-25" transform="translate(222.043 270.506)"><tspan x="0" y="0">y:</tspan></text>
      <text class="cls-25" transform="translate(327.458 270.506)"><tspan x="0" y="0">위치로 이동하기</tspan></text>
      <g>
        <g>
          <rect class="cls-13" x="252.774" y="242.023" width="62.051" height="39.806" rx="19.141" ry="19.141"/>
          <path class="cls-14" d="m295.684,243.023c10.003,0,18.141,8.138,18.141,18.141v1.525c0,10.003-8.138,18.141-18.141,18.141h-23.769c-10.003,0-18.141-8.138-18.141-18.141v-1.525c0-10.003,8.138-18.141,18.141-18.141h23.769m0-2h-23.769c-11.078,0-20.141,9.063-20.141,20.141v1.525c0,11.078,9.063,20.141,20.141,20.141h23.769c11.078,0,20.141-9.063,20.141-20.141v-1.525c0-11.077-9.063-20.141-20.141-20.141h0Z"/>
        </g>
        <text class="cls-29" transform="translate(262.955 268.99)"><tspan x="0" y="0">-95</tspan></text>
      </g>
      <g>
        <g>
          <rect class="cls-13" x="137.679" y="242.023" width="65.179" height="39.806" rx="19.141" ry="19.141"/>
          <path class="cls-14" d="m183.717,243.023c10.003,0,18.141,8.138,18.141,18.141v1.525c0,10.003-8.138,18.141-18.141,18.141h-26.898c-10.003,0-18.141-8.138-18.141-18.141v-1.525c0-10.003,8.138-18.141,18.141-18.141h26.898m0-2h-26.898c-11.077,0-20.141,9.063-20.141,20.141v1.525c0,11.078,9.063,20.141,20.141,20.141h26.898c11.077,0,20.141-9.063,20.141-20.141v-1.525c0-11.077-9.063-20.141-20.141-20.141h0Z"/>
        </g>
        <text class="cls-29" transform="translate(149.826 268.99)"><tspan x="0" y="0">100</tspan></text>
      </g>
    </g>
    <g>
      <g>
        <path class="cls-20" d="m542.114,542.617l-440.393.255-12.741,11.698-12.507-11.954v-165.204l12.441,11.461,12.387-11.471,428.723-.091c16.083,0,29.098-13.806,27.779-30.151-1.175-14.565-13.733-25.591-28.345-25.591H74.585l-12.415,10.542-11.826-9.974c-.564-.217-.948-.048-.948.274l.171,251.771,12.379,11.613,12.516-11.613h467.651c8.716,0,15.782-7.066,15.782-15.783s-7.066-15.783-15.782-15.783Z"/>
        <g>
          <path class="cls-10" d="m547.774,349.485c.233,11.599-9.583,22.21-22.59,21.903-11.361-.268-21.522-9.45-21.508-22.104.014-12.581,10.427-22.278,22.629-21.994,11.969.279,21.786,10.209,21.47,22.194Z"/>
          <path class="cls-9" d="m533.857,351.017c-.095,0-.185.021-.279.028l-4.684-7.075c.647-.892.942-2.055.623-3.302-.356-1.388-1.5-2.504-2.899-2.812-2.553-.562-4.81,1.366-4.81,3.821,0,.859.284,1.646.753,2.292l-4.684,7.075c-.094-.007-.183-.028-.279-.028-2.466,0-4.4,2.277-3.814,4.843.323,1.416,1.474,2.567,2.89,2.89,2.566.586,4.843-1.348,4.843-3.814,0-1.153-.507-2.18-1.3-2.897l4.386-6.625c.358.108.731.183,1.124.183s.766-.076,1.124-.183l4.386,6.625c-1.013.917-1.56,2.338-1.178,3.884.344,1.389,1.482,2.51,2.877,2.828,2.564.583,4.839-1.35,4.839-3.815,0-2.165-1.755-3.919-3.919-3.919Z"/>
        </g>
        <text class="cls-22" transform="translate(86.505 357.241)"><tspan x="0" y="0">만일</tspan></text>
        <text class="cls-22" transform="translate(400.388 357.241)"><tspan x="0" y="0">(이)라면</tspan></text>
      </g>
      <g>
        <g>
          <polygon class="cls-11" points="163.209 369.235 147.682 349.332 163.209 329.429 370.041 329.429 385.566 349.332 370.041 369.235 163.209 369.235"/>
          <path class="cls-7" d="m369.552,330.429l14.747,18.903-14.747,18.903h-205.855l-14.746-18.903,14.746-18.903h205.855m.977-2h-207.809l-16.306,20.903,16.306,20.903h207.809l16.307-20.903-16.307-20.903h0Z"/>
        </g>
        <g>
          <rect class="cls-7" x="164.308" y="329.413" width="81.786" height="39.613" rx="3.355" ry="3.355"/>
          <text class="cls-26" transform="translate(172.639 356.281)"><tspan x="0" y="0">집(1)</tspan></text>
          <text class="cls-26" transform="translate(257.781 356.281)"><tspan x="0" y="0">에 닿았는가?</tspan></text>
          <path class="cls-4" d="m228.926,344.541c1.503,0,3.006-.003,4.509.001.951.003,1.744.288,2.197,1.211.47.958.064,1.702-.534,2.425-1.451,1.754-2.859,3.543-4.343,5.268-1.318,1.533-2.389,1.523-3.72-.029-1.519-1.771-2.972-3.598-4.452-5.402-.521-.635-.812-1.313-.452-2.145.374-.865,1.045-1.293,1.954-1.309,1.614-.027,3.228-.008,4.842-.008v-.013Z"/>
        </g>
      </g>
    </g>
    <g>
      <g>
        <path class="cls-20" d="m346.578,377.299H101.802l-12.543,11.548h0l-12.023-10.98c-.238-.218-.622-.049-.622.274v54.841l.171.168,11.328,10.345c.663.605,1.678.603,2.338-.004l10.91-10.045c.212-.195.49-.304.779-.304l244.44-.101c15.329,0,27.871-12.542,27.871-27.871s-12.542-27.871-27.871-27.871Z"/>
        <g>
          <path class="cls-10" d="m367.527,405.214c.233,11.599-9.583,22.21-22.59,21.903-11.361-.268-21.522-9.45-21.508-22.104.014-12.581,10.427-22.278,22.629-21.994,11.969.279,21.786,10.209,21.47,22.194Z"/>
          <path class="cls-9" d="m353.611,406.746c-.095,0-.185.021-.279.028l-4.684-7.075c.647-.892.942-2.055.623-3.302-.356-1.388-1.5-2.504-2.899-2.812-2.553-.562-4.81,1.366-4.81,3.821,0,.859.284,1.646.753,2.292l-4.684,7.075c-.094-.007-.183-.028-.279-.028-2.466,0-4.4,2.277-3.814,4.843.323,1.416,1.474,2.567,2.89,2.89,2.566.586,4.843-1.348,4.843-3.814,0-1.153-.507-2.18-1.3-2.897l4.386-6.625c.358.108.731.183,1.124.183s.766-.076,1.124-.183l4.386,6.625c-1.013.917-1.56,2.338-1.178,3.884.344,1.389,1.482,2.51,2.877,2.828,2.564.583,4.839-1.35,4.839-3.815,0-2.165-1.755-3.919-3.919-3.919Z"/>
        </g>
      </g>
      <g>
        <path class="cls-10" d="m104.065,391.439v27.721c0,3.45,2.808,6.244,6.257,6.235,25.312-.061,37.721-.046,63.046-.044,3.444,0,6.242-2.791,6.242-6.235v-27.63c0-3.441-2.787-6.231-6.228-6.235l-63.075-.046c-3.447-.004-6.243,2.789-6.243,6.235Z"/>
        <text class="cls-23" transform="translate(114.445 413.137)"><tspan x="0" y="0">모든</tspan></text>
        <path class="cls-4" d="m166.032,401.406c1.503,0,3.006-.003,4.509.001.951.003,1.744.288,2.197,1.211.47.958.064,1.702-.534,2.425-1.451,1.754-2.859,3.543-4.343,5.268-1.318,1.533-2.389,1.523-3.72-.029-1.519-1.771-2.972-3.598-4.452-5.402-.521-.635-.812-1.313-.452-2.145.374-.865,1.045-1.293,1.954-1.309,1.614-.027,3.228-.008,4.842-.008v-.013Z"/>
      </g>
      <text class="cls-25" transform="translate(194.431 413.647)"><tspan x="0" y="0">코드 멈추기</tspan></text>
    </g>
    <g>
      <g>
        <path class="cls-18" d="m478.738,433.182H101.802l-12.543,11.141-12.024-10.593c-.238-.21-.622-.047-.622.265v52.811c0,.098.042.191.115.259l12.53,11.113,12.543-11.219h376.936c15.329,0,27.871-12.1,27.871-26.888h0c0-14.789-12.542-26.888-27.871-26.888Z"/>
        <g>
          <path class="cls-5" d="m454.453,460.576c.085-12.114,9.79-22.01,22.342-21.937,12.159.071,22.178,9.883,21.961,22.471-.203,11.764-9.754,21.773-22.498,21.598-12.042-.166-21.794-9.762-21.805-22.132Z"/>
          <path class="cls-15" d="m477.353,462.013c2.854.024,5.612,2.731,5.624,5.52.014,3.13-2.722,5.849-5.866,5.829-3.016-.018-5.566-2.746-5.533-5.919.031-3.007,2.636-5.457,5.775-5.43Z"/>
          <rect class="cls-15" x="479.74" y="452.398" width="9.448" height="9.448" transform="translate(465.13 -208.68) rotate(45)"/>
          <polygon class="cls-15" points="475.583 460.077 475.583 453.644 470.013 450.428 464.442 453.644 464.442 460.077 470.013 463.293 475.583 460.077"/>
        </g>
      </g>
      <text class="cls-24" transform="translate(272.639 467.635)"><tspan x="0" y="0">을(를)</tspan></text>
      <g>
        <g>
          <path class="cls-13" d="m123.568,480.192c-10.975,0-19.903-8.928-19.903-19.903s8.929-19.903,19.903-19.903h116.046c10.975,0,19.903,8.928,19.903,19.903s-8.929,19.903-19.903,19.903h-116.046Z"/>
          <path class="cls-14" d="m239.614,441.385c10.423,0,18.903,8.48,18.903,18.903s-8.48,18.903-18.903,18.903h-116.045c-10.423,0-18.903-8.48-18.903-18.903s8.48-18.903,18.903-18.903h116.045m0-2h-116.045c-11.497,0-20.903,9.406-20.903,20.903s9.406,20.903,20.903,20.903h116.045c11.497,0,20.903-9.407,20.903-20.903s-9.406-20.903-20.903-20.903h0Z"/>
        </g>
        <text class="cls-28" transform="translate(118.105 467.351)"><tspan x="0" y="0">미로 탈출 성공!</tspan></text>
      </g>
      <g>
        <rect class="cls-3" x="346.84" y="441.19" width="96.513" height="38.968" rx="3.871" ry="3.871"/>
        <text class="cls-27" transform="translate(357.458 467.736)"><tspan x="0" y="0">말하기</tspan></text>
        <path class="cls-4" d="m426.703,455.997c1.517,0,3.033-.003,4.55.001.959.003,1.76.288,2.217,1.211.474.958.065,1.702-.539,2.425-1.464,1.754-2.885,3.543-4.383,5.268-1.33,1.533-2.411,1.523-3.754-.029-1.533-1.771-2.999-3.598-4.492-5.402-.526-.635-.819-1.313-.456-2.145.378-.865,1.055-1.293,1.972-1.309,1.628-.027,3.257-.008,4.886-.008v-.013Z"/>
      </g>
    </g>
    <g>
      <g>
        <path class="cls-17" d="m333.735,487.053H101.802l-12.543,11.548h0l-12.023-10.98c-.238-.218-.622-.049-.622.274v54.841l.171.168,11.328,10.345c.663.605,1.678.603,2.338-.004l10.91-10.045c.212-.195.49-.304.779-.304l231.597-.101c15.329,0,27.871-12.542,27.871-27.871s-12.542-27.871-27.871-27.871Z"/>
        <g>
          <path class="cls-8" d="m354.684,514.968c.233,11.599-9.583,22.21-22.59,21.903-11.361-.268-21.522-9.45-21.508-22.104.014-12.581,10.427-22.278,22.629-21.994,11.969.279,21.786,10.209,21.47,22.194Z"/>
          <g>
            <rect class="cls-6" x="320.058" y="502.242" width="25.161" height="25.161" rx="2.274" ry="2.274"/>
            <g>
              <path class="cls-8" d="m326.97,511.705h-2.11c-.21,0-.38-.17-.38-.38v-1.158c0-.21.17-.38.38-.38h2.11c.21,0,.38-.17.38-.38v-2.11c0-.21.17-.38.38-.38h1.158c.21,0,.38.17.38.38v2.11c0,.21.17.38.38.38h2.11c.21,0,.38.17.38.38v1.158c0,.21-.17.38-.38.38h-2.11c-.21,0-.38.17-.38.38v2.11c0,.21-.17.38-.38.38h-1.158c-.21,0-.38-.17-.38-.38v-2.11c0-.21-.17-.38-.38-.38Z"/>
              <path class="cls-8" d="m326.684,519.232l-1.492-1.492c-.148-.148-.148-.389,0-.538l.819-.819c.148-.148.389-.148.538,0l1.492,1.492c.148.148.389.148.538,0l1.492-1.492c.148-.148.389-.148.538,0l.819.819c.148.148.148.389,0,.538l-1.492,1.492c-.148.148-.148.389,0,.538l1.492,1.492c.148.148.148.389,0,.538l-.819.819c-.148.148-.389.148-.538,0l-1.492-1.492c-.148-.148-.389-.148-.538,0l-1.492,1.492c-.148.148-.389.148-.538,0l-.819-.819c-.148-.148-.148-.389,0-.538l1.492-1.492c.148-.148.148-.389,0-.538Z"/>
              <path class="cls-8" d="m340.417,511.711h-5.359c-.21,0-.38-.17-.38-.38v-1.17c0-.21.17-.38.38-.38h5.359c.21,0,.38.17.38.38v1.17c0,.21-.17.38-.38.38Z"/>
              <g>
                <path class="cls-8" d="m340.417,518.722h-5.359c-.21,0-.38-.17-.38-.38v-1.17c0-.21.17-.38.38-.38h5.359c.21,0,.38.17.38.38v1.17c0,.21-.17.38-.38.38Z"/>
                <path class="cls-8" d="m340.417,522.21h-5.359c-.21,0-.38-.17-.38-.38v-1.17c0-.21.17-.38.38-.38h5.359c.21,0,.38.17.38.38v1.17c0,.21-.17.38-.38.38Z"/>
              </g>
            </g>
          </g>
        </g>
      </g>
      <g>
        <path class="cls-8" d="m185.614,501.193v27.721c0,3.45,2.808,6.244,6.257,6.235,25.312-.061,72.917-.046,98.242-.044,3.444,0,6.242-2.791,6.242-6.235v-27.63c0-3.441-2.787-6.231-6.228-6.235l-98.271-.046c-3.447-.004-6.243,2.789-6.243,6.235Z"/>
        <text class="cls-23" transform="translate(195.993 522.891)"><tspan x="0" y="0">정지하기</tspan></text>
        <path class="cls-4" d="m282.776,511.159c1.503,0,3.006-.003,4.509.001.951.003,1.744.288,2.197,1.211.47.958.064,1.702-.534,2.425-1.451,1.754-2.859,3.543-4.343,5.268-1.318,1.533-2.389,1.523-3.72-.029-1.519-1.771-2.972-3.598-4.452-5.402-.521-.635-.812-1.313-.452-2.145.374-.865,1.045-1.293,1.954-1.309,1.614-.027,3.228-.008,4.842-.008v-.013Z"/>
      </g>
      <text class="cls-25" transform="translate(105.657 523.401)"><tspan x="0" y="0">초시계</tspan></text>
    </g>
  </g>
  <path class="cls-30" d="m81.314,367.216h419.148c9.528,0,17.264,7.736,17.264,17.264v152.929c0,9.529-7.736,17.265-17.265,17.265H81.314c-9.529,0-17.265-7.736-17.265-17.265v-152.929c0-9.529,7.736-17.265,17.265-17.265Z"/>
</svg>