<?xml version="1.0" encoding="UTF-8"?>
<svg id="_레이어_2" data-name="레이어 2" xmlns="http://www.w3.org/2000/svg" viewBox="0 0 277.68 163.29">
  <defs>
    <style>
      .cls-1 {
        stroke-width: 0px;
      }

      .cls-1, .cls-2, .cls-3 {
        fill: #fff;
      }

      .cls-2 {
        font-family: D2Coding, D2Coding;
        font-size: 25px;
      }

      .cls-4 {
        fill: #00a4a6;
      }

      .cls-4, .cls-5, .cls-3 {
        stroke: #007b7d;
        stroke-miterlimit: 10;
        stroke-width: 1.5px;
      }

      .cls-5 {
        fill: #008b8d;
      }
    </style>
  </defs>
  <path class="cls-4" d="m32.181,77.165h13.331c1.723,0,3.364.74,4.505,2.031l8.586,9.72c1.141,1.292,2.781,2.031,4.505,2.031h21.051c1.691,0,3.304-.712,4.443-1.962l8.981-9.857c1.139-1.25,2.752-1.963,4.443-1.963h168.895c3.32,0,6.011-2.691,6.011-6.01V6.761c0-3.32-2.691-6.011-6.011-6.011H78.799c-1.691,0-3.304.712-4.443,1.963l-8.981,9.857c-1.139,1.25-2.752,1.963-4.443,1.963h-21.05c-1.723,0-3.364-.74-4.505-2.031L26.791,2.781c-1.141-1.292-2.781-2.031-4.505-2.031H6.761C3.441.75.75,3.441.75,6.761v149.769c0,3.32,2.691,6.011,6.011,6.011h264.159c3.32,0,6.011-2.691,6.011-6.011v-39.586c0-3.32-2.691-6.011-6.011-6.011H102.025c-1.691,0-3.304.712-4.443,1.963l-8.981,9.857c-1.139,1.25-2.752,1.963-4.443,1.963h-21.051c-1.723,0-3.364-.74-4.505-2.031l-8.586-9.719c-1.141-1.292-2.781-2.031-4.505-2.031h-13.331c-3.32,0-6.011-2.691-6.011-6.011v-21.747c0-3.32,2.691-6.011,6.011-6.011Z"/>
  <g>
    <text class="cls-2" transform="translate(16.777 46.13)"><tspan x="0" y="0">만약</tspan></text>
    <text class="cls-2" transform="translate(211.156 46.13)"><tspan x="0" y="0">이면</tspan></text>
    <g>
      <polygon class="cls-5" points="175.74 12.06 105.334 12.06 80.466 39.093 105.334 66.125 175.74 66.125 200.609 39.093 175.74 12.06"/>
      <path class="cls-3" d="m158.233,43.457l-6.417-6.013c-1.231-1.153-.415-3.218,1.272-3.218h12.835c1.687,0,2.503,2.065,1.272,3.218l-6.417,6.013c-.716.671-1.829.671-2.544,0Z"/>
      <text class="cls-2" transform="translate(114.494 45.734)"><tspan x="0" y="0">참</tspan></text>
    </g>
  </g>
  <g>
    <path class="cls-1" d="m43.027,132.353h-5.774v-5.774c0-.481-.39-.871-.871-.871h-3.936c-.481,0-.871.39-.871.871v5.774h-5.774c-.481,0-.871.39-.871.871v3.936c0,.481.39.871.871.871h5.774v5.774c0,.481.39.871.871.871h3.936c.481,0,.871-.39.871-.871v-5.774h5.774c.481,0,.871-.39.871-.871v-3.936c0-.481-.39-.871-.871-.871Z"/>
    <path class="cls-1" d="m34.414,152.82c-9.721,0-17.629-7.908-17.629-17.629s7.908-17.629,17.629-17.629,17.629,7.908,17.629,17.629-7.909,17.629-17.629,17.629Zm0-32.258c-8.066,0-14.629,6.562-14.629,14.629s6.562,14.629,14.629,14.629,14.629-6.562,14.629-14.629-6.562-14.629-14.629-14.629Z"/>
  </g>
</svg>