<?xml version="1.0" encoding="UTF-8"?>
<svg id="_레이어_1" data-name="레이어 1" xmlns="http://www.w3.org/2000/svg" viewBox="0 0 453.698 385.323">
  <defs>
    <style>
      .cls-1, .cls-2, .cls-3, .cls-4, .cls-5, .cls-6, .cls-7, .cls-8, .cls-9, .cls-10, .cls-11, .cls-12, .cls-13, .cls-14 {
        stroke-width: 0px;
      }

      .cls-1, .cls-15, .cls-16, .cls-17 {
        fill: #fefefe;
      }

      .cls-2 {
        fill: #009400;
      }

      .cls-18, .cls-19, .cls-20 {
        letter-spacing: -.025em;
      }

      .cls-21 {
        letter-spacing: -.025em;
      }

      .cls-22 {
        letter-spacing: -.13em;
      }

      .cls-3 {
        fill: #c72042;
      }

      .cls-4 {
        fill: #00b400;
      }

      .cls-23 {
        letter-spacing: -.031em;
      }

      .cls-19, .cls-15, .cls-16, .cls-20, .cls-17, .cls-24, .cls-25 {
        font-family: Pretendard-Bold-KSCpc-EUC-H, Pretendard;
        font-weight: 700;
      }

      .cls-19, .cls-16, .cls-20, .cls-24, .cls-25 {
        font-size: 22px;
      }

      .cls-19, .cls-25 {
        fill: #fff;
      }

      .cls-5 {
        fill: #fefdfe;
      }

      .cls-6 {
        fill: #c62042;
      }

      .cls-26 {
        stroke: #c62142;
      }

      .cls-26, .cls-27, .cls-28 {
        stroke-width: 2px;
      }

      .cls-26, .cls-28 {
        stroke-linecap: round;
        stroke-linejoin: round;
      }

      .cls-26, .cls-14 {
        fill: #fe3a61;
      }

      .cls-27 {
        fill: #00b300;
        stroke: #009400;
        stroke-miterlimit: 10;
      }

      .cls-15, .cls-17 {
        font-size: 26px;
      }

      .cls-28 {
        fill: #19baea;
        stroke: #1498c0;
      }

      .cls-7 {
        fill: #6dddfe;
      }

      .cls-8 {
        fill: #1498c0;
      }

      .cls-9 {
        fill: #c62142;
      }

      .cls-29 {
        letter-spacing: -.054em;
      }

      .cls-10 {
        fill: #fedd81;
      }

      .cls-17 {
        letter-spacing: -.025em;
      }

      .cls-11 {
        fill: #fe9b00;
      }

      .cls-12 {
        fill: #f2f2f2;
      }

      .cls-13 {
        fill: #fe5576;
      }
    </style>
  </defs>
  <g>
    <path class="cls-27" d="m21.64,65.053s-5.2-2.719-7.532-4.568c-7.301-5.786-11.647-13.18-12.825-22.461C.212,29.582,2.193,21.879,7.067,15.04,12.681,7.161,20.381,2.463,30.1,1.274c9.447-1.156,17.928,1.343,25.093,7.428,2.309,1.961,4.441,2.392,7.168,2.399,81.918.211,219.369.465,301.286.713,13.081.04,24.448,9.349,26.741,22.14,2.77,15.451-7.86,29.794-23.175,31.684-.205.025-.396.168-.594.256-.891.016-1.782.048-2.673.045-86.874-.26-229.281-.518-316.154-.816-1.521-.005-2.596.406-3.649,1.498-2.976,3.089-6.092,6.042-9.092,9.109-.791.809-1.254.903-2.094.031-3.131-3.25-6.346-6.419-9.533-9.615-.505-.507-1.787-1.095-1.787-1.095Z"/>
    <g>
      <path class="cls-1" d="m34.02,61.097c-14.927-.049-27.039-12.211-27-27.111.039-14.887,12.218-27,27.15-27h.125c14.9.067,26.976,12.266,26.917,27.193-.058,14.842-12.216,26.917-27.103,26.917h-.09Z"/>
      <path class="cls-12" d="m34.17,7.986h0,.12c14.349.064,25.978,11.813,25.922,26.189-.056,14.293-11.765,25.922-26.103,25.922h-.087c-14.375-.047-26.04-11.759-26.003-26.109.037-14.337,11.768-26.001,26.151-26.002m0-2c-15.526.001-28.111,12.502-28.151,27.997-.04,15.453,12.517,28.063,27.997,28.114.032,0,.062,0,.094,0,15.444,0,28.043-12.503,28.103-27.914.06-15.477-12.463-28.128-27.913-28.197-.044,0-.086,0-.129,0h0Z"/>
    </g>
    <text class="cls-15" transform="translate(200.749 46.251) rotate(.173)"><tspan x="0" y="0">신호를 받았을 때</tspan></text>
    <g>
      <path class="cls-2" d="m133.116,18.305c17.877,0,32.996,0,50.873,0,2.815,0,4.335,2.426,4.336,6.934.003,8.742.003,17.483,0,26.225-.001,4.509-1.521,6.935-4.336,6.935-35.754,0-68.75-.025-104.504.059-2.308.005-4.351-2.765-4.335-6.91.033-8.797.033-17.595,0-26.392-.015-4.145,2.027-6.926,4.335-6.912,17.877.11,35.754.061,53.631.061Z"/>
      <text class="cls-16" transform="translate(85.53 46.188)"><tspan x="0" y="0">아무거나</tspan></text>
      <path class="cls-5" d="m173.092,34.454c1.503,0,3.006-.003,4.509.001.951.003,1.744.288,2.197,1.211.47.958.064,1.702-.534,2.425-1.451,1.754-2.859,3.543-4.343,5.268-1.318,1.533-2.389,1.523-3.72-.029-1.519-1.771-2.972-3.598-4.452-5.402-.521-.635-.812-1.313-.452-2.145.374-.865,1.045-1.293,1.954-1.309,1.614-.027,3.228-.008,4.842-.008v-.013Z"/>
    </g>
    <g>
      <path class="cls-4" d="m27.646,34.608h-.141l-4.232,12.492h16.332l-2.189-7.805c-3.859-.251-7.305-2.005-9.77-4.687Z"/>
      <path class="cls-4" d="m40.898,29.902l.36-.915.36-.915,1.763-4.482c1.417-.239,2.502-1.466,2.502-2.95,0-1.654-1.346-3-3-3-1.604,0-2.907,1.268-2.985,2.853l-4.144,1.677-.905.366-.905.366-5.662-5.697c-1.562,2.119-2.496,4.729-2.496,7.563,0,3.959,1.802,7.496,4.628,9.839,1.856,1.538,4.156,2.556,6.678,2.845.482.055.971.091,1.468.091,2.806,0,5.392-.915,7.499-2.449l-5.161-5.194Zm1.026-8.071l.028-.072.076.03-.105.042Zm.959-2.19c.551,0,1,.449,1,1s-.449,1-1,1-1-.449-1-1,.449-1,1-1Zm-3.165,7.797l-.36.915-3.885-3.91.905-.366.905-.366,3.195-1.293c.242.326.547.598.899.804l-1.299,3.302-.36.915Z"/>
    </g>
  </g>
  <g>
    <path class="cls-26" d="m202.473,65.726H46.434l-12.543,11.548-12.024-10.981c-.238-.218-.622-.049-.622.274v54.741c0,.102.042.198.115.269l12.53,11.519,12.543-11.629h156.04c15.329,0,27.871-12.542,27.871-27.871h0c0-15.329-12.542-27.871-27.871-27.871Z"/>
    <path class="cls-6" d="m178.188,93.12c.085-12.114,9.79-22.01,22.342-21.937,12.159.071,22.178,9.883,21.961,22.471-.203,11.764-9.754,21.773-22.498,21.598-12.042-.166-21.794-9.762-21.805-22.132Z"/>
    <path class="cls-13" d="m201.088,94.557c2.854.024,5.612,2.731,5.624,5.52.014,3.13-2.722,5.849-5.866,5.829-3.016-.018-5.566-2.746-5.533-5.919.031-3.007,2.636-5.457,5.775-5.43Z"/>
    <rect class="cls-13" x="203.476" y="84.942" width="9.448" height="9.448" transform="translate(124.383 -120.957) rotate(45)"/>
    <polygon class="cls-13" points="199.319 92.621 199.319 86.188 193.748 82.972 188.177 86.188 188.177 92.621 193.748 95.837 199.319 92.621"/>
    <text class="cls-17" transform="translate(47.933 102.408)"><tspan x="0" y="0">모양 보이기</tspan></text>
  </g>
  <g>
    <g>
      <path class="cls-28" d="m21.36,177.314l.056,139.582,12.38,11.613,12.516-11.613h235.161c7.696,0,13.935-6.239,13.935-13.935h0c0-7.696-6.239-13.935-13.935-13.935H71.473l-11.613,11.226-11.538-11.226v-111.719l12.441,11.461,12.387-11.471,195.097-.091c15.329,0,27.871-12.542,27.871-27.871h0c0-15.329-12.542-27.871-27.871-27.871H46.433s-12.543,11.548-12.543,11.548h0s-12.023-10.98-12.023-10.98c-.238-.218-.622-.049-.622.274v54.741c0,.047.011.092.028.135h-.003"/>
      <g>
        <path class="cls-8" d="m288.996,149.377c.233,11.599-9.583,22.21-22.59,21.903-11.361-.268-21.522-9.45-21.508-22.104.014-12.581,10.427-22.278,22.629-21.994,11.969.279,21.786,10.209,21.47,22.194Z"/>
        <path class="cls-7" d="m275.079,150.91c-.095,0-.185.021-.279.028l-4.684-7.075c.647-.892.942-2.055.623-3.302-.356-1.388-1.5-2.504-2.899-2.812-2.553-.562-4.81,1.366-4.81,3.821,0,.859.284,1.646.753,2.292l-4.684,7.075c-.094-.007-.183-.028-.279-.028-2.466,0-4.4,2.277-3.814,4.843.323,1.416,1.474,2.567,2.89,2.89,2.566.586,4.843-1.348,4.843-3.814,0-1.153-.507-2.18-1.3-2.897l4.386-6.625c.358.108.731.183,1.124.183s.766-.076,1.124-.183l4.386,6.625c-1.013.917-1.56,2.338-1.178,3.884.344,1.389,1.482,2.51,2.877,2.828,2.564.583,4.839-1.35,4.839-3.815,0-2.165-1.755-3.919-3.919-3.919Z"/>
      </g>
    </g>
    <g>
      <g>
        <path class="cls-10" d="m69.364,168.69c-10.975,0-19.903-8.928-19.903-19.903s8.929-19.903,19.903-19.903h9.657c10.975,0,19.903,8.929,19.903,19.903s-8.929,19.903-19.903,19.903h-9.657Z"/>
        <path class="cls-11" d="m79.021,129.883c10.423,0,18.903,8.48,18.903,18.903s-8.48,18.903-18.903,18.903h-9.657c-10.423,0-18.903-8.48-18.903-18.903s8.48-18.903,18.903-18.903h9.657m0-2h-9.657c-11.497,0-20.903,9.406-20.903,20.903s9.406,20.903,20.903,20.903h9.657c11.497,0,20.903-9.406,20.903-20.903s-9.406-20.903-20.903-20.903h0Z"/>
      </g>
      <text class="cls-20" transform="translate(62.063 155.849)"><tspan x="0" y="0">15</tspan></text>
      <text class="cls-15" transform="translate(114.473 157.134)"><tspan x="0" y="0">번 반복하기 </tspan></text>
    </g>
  </g>
  <g>
    <path class="cls-26" d="m361.876,177.21H73.289l-12.543,11.548-12.024-10.981c-.238-.218-.622-.049-.622.274v54.741c0,.102.042.198.115.269l12.53,11.519,12.543-11.629h288.587c15.329,0,27.871-12.542,27.871-27.871h0c0-15.329-12.542-27.871-27.871-27.871Z"/>
    <path class="cls-6" d="m337.591,204.604c.085-12.114,9.79-22.01,22.342-21.937,12.159.071,22.178,9.883,21.961,22.471-.203,11.764-9.754,21.773-22.498,21.598-12.042-.166-21.794-9.762-21.805-22.132Z"/>
    <path class="cls-13" d="m360.491,206.041c2.854.024,5.612,2.731,5.624,5.52.014,3.13-2.722,5.849-5.866,5.829-3.016-.018-5.566-2.746-5.533-5.919.031-3.007,2.636-5.457,5.775-5.43Z"/>
    <rect class="cls-13" x="362.878" y="196.426" width="9.448" height="9.448" transform="translate(249.903 -201.019) rotate(45)"/>
    <polygon class="cls-13" points="358.722 204.105 358.722 197.672 353.151 194.456 347.58 197.672 347.58 204.105 353.151 207.321 358.722 204.105"/>
    <text class="cls-17" transform="translate(191.951 213.892)"><tspan x="0" y="0">모양 보이기</tspan></text>
    <g>
      <rect class="cls-3" x="79.925" y="185.992" width="75.887" height="38.968" rx="3.871" ry="3.871"/>
      <text class="cls-19" transform="translate(90.45 212.539)"><tspan x="0" y="0">다음</tspan></text>
      <path class="cls-5" d="m139.312,200.799c1.503,0,3.006-.003,4.509.001.951.003,1.744.288,2.197,1.211.47.958.064,1.702-.534,2.425-1.451,1.754-2.859,3.543-4.343,5.268-1.318,1.533-2.389,1.523-3.72-.029-1.519-1.771-2.972-3.598-4.452-5.402-.521-.635-.812-1.313-.452-2.145.374-.865,1.045-1.293,1.954-1.309,1.614-.027,3.228-.008,4.842-.008v-.013Z"/>
    </g>
  </g>
  <g>
    <g>
      <path class="cls-28" d="m314.699,232.99H73.289s0,0,0,0l-12.543,11.548s0,0,0,0l-12.023-10.98c-.238-.218-.622-.049-.622.274v54.741c0,.047.011.092.028.135h-.003l.004.004c.02.048.048.093.087.13h.056l11.328,10.345c.663.605,1.678.603,2.338-.005l10.91-10.045c.212-.195.49-.304.779-.304l241.072-.101c15.329,0,27.871-12.542,27.871-27.871h0c0-15.329-12.542-27.871-27.871-27.871Z"/>
      <g>
        <path class="cls-8" d="m335.447,260.905c.233,11.599-9.583,22.21-22.59,21.903-11.361-.268-21.522-9.45-21.508-22.104.014-12.581,10.427-22.278,22.629-21.994,11.969.279,21.786,10.209,21.47,22.194Z"/>
        <path class="cls-7" d="m321.531,262.437c-.095,0-.185.021-.279.028l-4.684-7.075c.468-.646.753-1.433.753-2.292,0-2.165-1.755-3.919-3.919-3.919s-3.919,1.755-3.919,3.919c0,.859.284,1.646.753,2.292l-4.684,7.075c-.094-.007-.183-.028-.279-.028-2.165,0-3.919,1.755-3.919,3.919s1.755,3.919,3.919,3.919,3.919-1.755,3.919-3.919c0-1.153-.507-2.18-1.3-2.897l4.386-6.625c.358.108.731.183,1.124.183s.766-.076,1.124-.183l4.386,6.625c-.793.717-1.3,1.744-1.3,2.897,0,2.165,1.755,3.919,3.919,3.919s3.919-1.755,3.919-3.919-1.755-3.919-3.919-3.919Z"/>
      </g>
    </g>
    <g>
      <g>
        <path class="cls-10" d="m96.461,280.499c-10.975,0-19.903-8.929-19.903-19.903s8.929-19.903,19.903-19.903h27.85c10.975,0,19.903,8.929,19.903,19.903s-8.929,19.903-19.903,19.903h-27.85Z"/>
        <path class="cls-11" d="m124.311,241.693c10.423,0,18.903,8.48,18.903,18.903s-8.48,18.903-18.903,18.903h-27.85c-10.423,0-18.903-8.48-18.903-18.903s8.48-18.903,18.903-18.903h27.85m0-2h-27.85c-11.497,0-20.903,9.406-20.903,20.903h0c0,11.497,9.406,20.903,20.903,20.903h27.85c11.497,0,20.903-9.406,20.903-20.903h0c0-11.497-9.406-20.903-20.903-20.903h0Z"/>
      </g>
      <text class="cls-24" transform="translate(93.998 267.659)"><tspan class="cls-29" x="0" y="0">0</tspan><tspan class="cls-23" x="13.34" y="0">.</tspan><tspan class="cls-18" x="18.87" y="0">5</tspan></text>
      <text class="cls-15" transform="translate(159.957 268.943)"><tspan x="0" y="0">초 기다리기</tspan></text>
    </g>
  </g>
  <g>
    <path class="cls-26" d="m424.827,316.952H46.434l-12.543,11.548-12.024-10.981c-.238-.218-.622-.049-.622.274v54.741c0,.102.042.198.115.269l12.53,11.519,12.543-11.629h378.393c15.329,0,27.871-12.542,27.871-27.871h0c0-15.329-12.542-27.871-27.871-27.871Z"/>
    <path class="cls-6" d="m400.542,344.346c.085-12.114,9.79-22.01,22.342-21.937,12.159.071,22.178,9.883,21.961,22.471-.203,11.764-9.754,21.773-22.498,21.598-12.042-.166-21.794-9.762-21.805-22.132Z"/>
    <path class="cls-13" d="m423.442,345.783c2.854.024,5.612,2.731,5.624,5.52.014,3.13-2.722,5.849-5.866,5.829-3.016-.018-5.566-2.746-5.533-5.919.031-3.007,2.636-5.457,5.775-5.43Z"/>
    <rect class="cls-13" x="425.829" y="336.168" width="9.448" height="9.448" transform="translate(367.153 -204.602) rotate(45)"/>
    <polygon class="cls-13" points="421.672 343.846 421.672 337.414 416.101 334.198 410.531 337.414 410.531 343.846 416.101 347.063 421.672 343.846"/>
    <text class="cls-17" transform="translate(269.353 353.634)"><tspan x="0" y="0">모양 보이기</tspan></text>
    <g>
      <g>
        <path class="cls-14" d="m72.617,365.121c-10.975,0-19.903-8.929-19.903-19.903s8.928-19.903,19.903-19.903h132.71c10.975,0,19.903,8.929,19.903,19.903s-8.929,19.903-19.903,19.903H72.617Z"/>
        <path class="cls-9" d="m205.327,326.315c10.423,0,18.903,8.48,18.903,18.903s-8.48,18.903-18.903,18.903H72.617c-10.423,0-18.903-8.48-18.903-18.903s8.48-18.903,18.903-18.903h132.71m0-2H72.617c-11.497,0-20.903,9.406-20.903,20.903h0c0,11.497,9.406,20.903,20.903,20.903h132.71c11.497,0,20.903-9.406,20.903-20.903h0c0-11.497-9.406-20.903-20.903-20.903h0Z"/>
      </g>
      <g>
        <rect class="cls-3" x="68.004" y="325.734" width="141.935" height="38.968" rx="3.871" ry="3.871"/>
        <text class="cls-25" transform="translate(78.53 352.281)"><tspan class="cls-18" x="0" y="0">선물 상자</tspan><tspan class="cls-22" x="78.375" y="0">_</tspan><tspan class="cls-21" x="85.549" y="0">1</tspan></text>
        <path class="cls-5" d="m192.246,340.541c1.503,0,3.006-.003,4.509.001.951.003,1.744.288,2.197,1.211.47.958.064,1.702-.534,2.425-1.451,1.754-2.859,3.543-4.343,5.268-1.318,1.533-2.389,1.523-3.72-.029-1.519-1.771-2.972-3.598-4.452-5.402-.521-.635-.812-1.313-.452-2.145.374-.865,1.045-1.293,1.954-1.309,1.614-.027,3.228-.008,4.842-.008v-.013Z"/>
      </g>
    </g>
  </g>
</svg>