<?xml version="1.0" encoding="UTF-8"?>
<svg id="_레이어_2" data-name="레이어 2" xmlns="http://www.w3.org/2000/svg" viewBox="0 0 530.911 204.661">
  <defs>
    <style>
      .cls-1 {
        fill: #575e75;
        font-size: 25px;
      }

      .cls-1, .cls-2, .cls-3 {
        font-family: D2Coding, D2Coding;
      }

      .cls-2 {
        font-size: 26px;
      }

      .cls-2, .cls-4, .cls-3, .cls-5 {
        fill: #fff;
      }

      .cls-6 {
        fill: #d400d4;
        stroke: #9f009f;
      }

      .cls-6, .cls-7, .cls-8, .cls-5 {
        stroke-miterlimit: 10;
      }

      .cls-6, .cls-8, .cls-5 {
        stroke-width: 1.5px;
      }

      .cls-7 {
        fill: #9400d3;
        stroke: #6f009e;
      }

      .cls-4, .cls-9 {
        stroke-width: 0px;
      }

      .cls-3 {
        font-size: 26.581px;
      }

      .cls-8 {
        fill: #1e90ff;
        stroke: #176cbf;
      }

      .cls-5 {
        stroke: #9a4dbb;
      }

      .cls-9 {
        fill: #c203c2;
      }
    </style>
  </defs>
  <g>
    <path class="cls-6" d="m84.158,166.086h-21.05c-1.723,0-3.364-.74-4.505-2.031l-8.586-9.72c-1.141-1.292-2.781-2.031-4.505-2.031h-13.331c-3.32,0-6.011-2.691-6.011-6.011v-63.118c0-3.32,2.691-6.011,6.011-6.011h13.331c1.723,0,3.364.74,4.505,2.031l8.586,9.72c1.141,1.292,2.781,2.031,4.505,2.031h21.05c1.691,0,3.304-.712,4.443-1.963l8.981-9.857c1.139-1.25,2.752-1.963,4.443-1.963h193.47c3.32,0,6.011-2.691,6.011-6.011V6.761c0-3.32-2.691-6.011-6.011-6.011H6.761C3.441.75.75,3.441.75,6.761v191.14c0,3.32,2.691,6.011,6.011,6.011h288.734c3.32,0,6.011-2.691,6.011-6.011v-39.586c0-3.32-2.691-6.011-6.011-6.011H102.025c-1.691,0-3.304.712-4.443,1.963l-8.981,9.857c-1.139,1.25-2.752,1.963-4.443,1.963Z"/>
    <text class="cls-2" transform="translate(164.071 47.871)"><tspan x="0" y="0">감지될 때</tspan></text>
    <g>
      <rect class="cls-6" x="13.289" y="11.802" width="132.68" height="50.839" rx="6.097" ry="6.097"/>
      <text class="cls-2" transform="translate(25.805 45.349)"><tspan x="0" y="0">흔들림</tspan></text>
      <g>
        <path class="cls-4" d="m121.891,43.313c-.436,0-.851-.164-1.169-.462l-6.78-6.353c-.516-.483-.681-1.22-.421-1.876.259-.657.884-1.082,1.59-1.082h13.56c.707,0,1.331.424,1.59,1.081.26.657.094,1.394-.421,1.877l-6.78,6.353c-.318.298-.733.462-1.169.462Z"/>
        <path class="cls-9" d="m128.672,34.039c1.097,0,1.628,1.343.827,2.093l-6.78,6.353c-.233.218-.53.327-.827.327s-.595-.109-.827-.327l-6.78-6.353c-.801-.75-.27-2.093.827-2.093h13.56m0-1h-13.56c-.913,0-1.72.549-2.055,1.398-.336.849-.122,1.801.544,2.425l6.78,6.353c.411.385.948.597,1.511.597s1.1-.212,1.511-.597l6.78-6.353c.666-.624.88-1.576.544-2.425-.336-.849-1.142-1.398-2.055-1.398h0Z"/>
      </g>
    </g>
  </g>
  <g>
    <g>
      <path class="cls-8" d="m102.084,77.286c-1.691,0-3.304.712-4.443,1.962l-8.981,9.857c-1.139,1.25-2.752,1.963-4.443,1.963h-21.051c-1.723,0-3.364-.74-4.505-2.031l-8.586-9.72c-1.141-1.292-2.781-2.031-4.505-2.031h-13.331c-3.32,0-6.011,2.691-6.011,6.011v63.097c0,3.32,2.691,6.011,6.011,6.011h13.331c1.723,0,3.364.74,4.505,2.031l8.586,9.72c1.141,1.292,2.781,2.031,4.505,2.031h21.051c1.691,0,3.304-.712,4.443-1.963l8.981-9.857c1.139-1.25,2.752-1.962,4.443-1.962h422.366c3.154,0,5.711-2.557,5.711-5.711v-63.697c0-3.154-2.557-5.711-5.711-5.711H102.084Z"/>
      <text class="cls-3" transform="translate(38.769 122.456)"><tspan x="0" y="0">숫자 출력</tspan></text>
    </g>
    <rect class="cls-7" x="172.068" y="84.704" width="348.037" height="59.548" rx="29.774" ry="29.774"/>
    <text class="cls-2" transform="translate(246.994 122.456)"><tspan x="0" y="0">부터</tspan></text>
    <text class="cls-2" transform="translate(378.64 122.456)"><tspan x="0" y="0">사이 랜덤</tspan></text>
    <g>
      <rect class="cls-5" x="179.228" y="90.444" width="59.97" height="48.069" rx="24.034" ry="24.034"/>
      <text class="cls-1" transform="translate(201.486 122.456)"><tspan x="0" y="0">0</tspan></text>
    </g>
    <g>
      <rect class="cls-5" x="309.099" y="90.444" width="59.97" height="48.069" rx="24.034" ry="24.034"/>
      <text class="cls-1" transform="translate(331.745 122.456)"><tspan x="0" y="0">6</tspan></text>
    </g>
  </g>
</svg>