<?xml version="1.0" encoding="UTF-8"?>
<svg id="_레이어_1" data-name="레이어 1" xmlns="http://www.w3.org/2000/svg" viewBox="0 0 65 35">
  <defs>
    <style>
      .cls-1 {
        fill: #fee671;
      }

      .cls-1, .cls-2, .cls-3 {
        stroke-width: 0px;
      }

      .cls-2 {
        fill: #fdf6b5;
      }

      .cls-3 {
        fill: #1fbd2f;
      }
    </style>
  </defs>
  <g>
    <path class="cls-2" d="m60.966,0H4.034C1.806,0,0,1.744,0,3.895v23.369c0,2.151,1.806,3.895,4.034,3.895h56.931c2.228,0,4.034-1.744,4.034-3.895V3.895c0-2.151-1.806-3.895-4.034-3.895Z"/>
    <path class="cls-1" d="m60.966,31.159H4.034c-2.228,0-4.034-1.744-4.034-3.895v3.841c0,2.151,1.806,3.895,4.034,3.895h56.931c2.228,0,4.034-1.744,4.034-3.895v-3.841c0,2.151-1.806,3.895-4.034,3.895Z"/>
  </g>
  <g>
    <path class="cls-3" d="m32.192,21.17c0-1.173-.015-2.347.009-3.519.007-.365-.113-.441-.455-.439-2.055.015-4.11.009-6.166.007-1.009,0-1.057-.052-1.057-1.063,0-.307-.008-.614.004-.92.019-.482.181-.642.662-.643,1.375-.005,2.749-.007,4.124.002.247.002.4-.044.445-.324.268-1.642.585-3.276.613-4.95.006-.353-.096-.468-.448-.463-1.081.017-2.162.009-3.243.004-.526-.002-.637-.113-.643-.632-.006-.48.003-.96-.002-1.44-.004-.334.164-.499.486-.498,1.855,0,3.71-.014,5.564.022.828.016,1.248.49,1.292,1.38.046.932-.021,1.863-.105,2.793-.112,1.248-.323,2.481-.565,3.708-.059.298-.024.405.308.401,1.294-.015,2.589-.007,3.883-.005.194,0,.367.01.41-.256.264-1.631.535-3.26.572-4.917.012-.522.013-.522-.526-.523-.974,0-1.948.002-2.923-.001-.521-.002-.641-.118-.649-.632-.007-.426-.005-.853,0-1.28.005-.542.104-.658.659-.665,1.201-.014,2.402-.008,3.603-.006.507.001,1.016-.014,1.52.029.878.075,1.292.511,1.328,1.395.052,1.281-.047,2.558-.179,3.831-.093.9-.214,1.798-.404,2.685-.057.265-.01.39.302.379.6-.02,1.201-.011,1.801-.004.551.006.747.195.764.742.012.386.009.773,0,1.16-.013.53-.198.711-.742.712-2.175.004-4.351,0-6.526.003-.605,0-.57-.088-.57.588,0,2.24.001,4.479-.002,6.719,0,.745-.118.857-.859.858-.534.001-1.068.006-1.601-.003-.495-.008-.677-.188-.679-.678-.005-1.186-.002-2.373-.002-3.559Z"/>
    <path class="cls-3" d="m17.427,15.632c0-3.013,0-6.027,0-9.04,0-.743.105-.845.864-.848.507-.002,1.014-.002,1.522,0,.616.003.729.111.73.72.003,2.053.011,4.107-.007,6.16-.003.369.097.48.465.463.639-.03,1.281-.014,1.922-.006.423.006.544.13.551.556.008.467.009.933,0,1.4-.008.474-.156.627-.626.635-.627.01-1.255.021-1.882-.004-.331-.013-.431.084-.429.422.013,2.893.008,5.787.007,8.68,0,.764-.022.786-.787.789-.587.003-1.175-.007-1.762.001-.368.005-.541-.177-.559-.528-.008-.16-.009-.32-.009-.48,0-2.973,0-5.947,0-8.92Z"/>
    <path class="cls-3" d="m48.491,7.256c1.068,0,2.135,0,3.203,0,.2,0,.4.002.6.011,1.099.048,1.619.623,1.554,1.727-.094,1.584-.453,3.102-1.106,4.553-1.58,3.506-4.2,6.014-7.522,7.851-.451.249-.668.19-.954-.216-.291-.414-.573-.835-.843-1.262-.293-.463-.233-.747.244-1.03,1.288-.765,2.504-1.624,3.581-2.668,1.152-1.118,2.049-2.411,2.645-3.907.252-.634.42-1.289.555-1.956.085-.422.063-.466-.364-.467-1.748-.002-3.497,0-5.245-.001-.651,0-.727-.077-.732-.741-.003-.44-.006-.88.002-1.32.007-.439.136-.568.58-.57,1.268-.005,2.536-.002,3.804-.002h0Z"/>
    <path class="cls-3" d="m59.195,15.683c0,3.052,0,6.103,0,9.155,0,.65-.062.714-.706.72-.587.005-1.174.005-1.761,0-.532-.004-.628-.093-.628-.636-.003-6.183-.002-12.366,0-18.55,0-.485.136-.617.622-.625.587-.009,1.174-.007,1.761-.003.576.004.709.135.71.703.002,3.078,0,6.157.001,9.235Z"/>
    <path class="cls-3" d="m15.511,9.685c0-.72.006-1.439-.003-2.159-.007-.55-.214-.752-.751-.756-.56-.005-1.121-.005-1.681,0-.616.006-.758.145-.761.756-.004,1.119-.01,2.239.004,3.358.004.284-.092.367-.368.363-.88-.014-1.761-.021-2.641.003-.348.01-.42-.117-.415-.436.017-1.106.01-2.212.003-3.318-.003-.52-.145-.657-.672-.664-.547-.007-1.094-.003-1.641-.002-.69.001-.78.089-.781.79-.002,1.813,0,3.625,0,5.438h.004c0,1.799-.011,3.598.004,5.398.009,1.065.369,1.43,1.423,1.435,2.255.012,4.509.01,6.764-.009,1.079-.009,1.478-.435,1.51-1.52.004-.146.002-.293.002-.44,0-2.745,0-5.491,0-8.236Zm-3.195,7.246c.002.255-.092.355-.352.352-.907-.01-1.813-.01-2.72,0-.266.003-.351-.103-.344-.356.012-.479.003-.959.004-1.438,0-.453.009-.906-.003-1.358-.007-.245.09-.324.329-.321.92.01,1.84.009,2.76,0,.241-.002.331.081.328.324-.009.932-.009,1.865,0,2.797Z"/>
  </g>
</svg>