<?xml version="1.0" encoding="UTF-8"?>
<svg id="_레이어_2" data-name="레이어 2" xmlns="http://www.w3.org/2000/svg" viewBox="0 0 443.645 82.563">
  <defs>
    <style>
      .cls-1, .cls-2, .cls-3, .cls-4 {
        stroke-width: 0px;
      }

      .cls-1, .cls-5 {
        fill: #4f80ff;
      }

      .cls-6 {
        stroke-linejoin: round;
      }

      .cls-6, .cls-7 {
        stroke: #fff;
        stroke-linecap: round;
        stroke-width: 1.5px;
      }

      .cls-6, .cls-7, .cls-8 {
        fill: none;
      }

      .cls-9 {
        letter-spacing: .009em;
      }

      .cls-10 {
        font-size: 10px;
        letter-spacing: .025em;
      }

      .cls-10, .cls-5 {
        font-family: Pretendard-SemiBold-KSCpc-EUC-H, Pretendard;
        font-weight: 600;
      }

      .cls-11 {
        letter-spacing: .01em;
      }

      .cls-2 {
        fill: #fff;
      }

      .cls-12 {
        font-family: Pretendard-Regular-KSCpc-EUC-H, Pretendard;
        font-size: 6.925px;
      }

      .cls-13 {
        letter-spacing: -.084em;
      }

      .cls-3 {
        fill: #ecf8ff;
      }

      .cls-14 {
        letter-spacing: .01em;
      }

      .cls-7, .cls-8 {
        stroke-miterlimit: 10;
      }

      .cls-5 {
        font-size: 7px;
      }

      .cls-4 {
        fill: #f9fdff;
      }

      .cls-8 {
        stroke: #d6e9f4;
        stroke-dasharray: 0 0 2.002 1.001;
      }
    </style>
  </defs>
  <rect class="cls-3" x="0" y="0" width="443.645" height="82.563"/>
  <g>
    <g>
      <rect class="cls-4" x="6.019" y="5.056" width="431.607" height="72.452" rx="2.846" ry="2.846"/>
      <rect class="cls-8" x="6.019" y="5.056" width="431.607" height="72.452" rx="2.846" ry="2.846"/>
    </g>
    <text class="cls-10" transform="translate(64.782 41.636)"><tspan x="0" y="0">파일을 끌어다 놓거나 클릭해서 업로드</tspan></text>
    <text class="cls-12" transform="translate(64.782 54.992)"><tspan class="cls-14" x="0" y="0">CS</tspan><tspan class="cls-13" x="9.146" y="0">V</tspan><tspan class="cls-9" x="13.036" y="0">,</tspan><tspan class="cls-11" x="14.88" y="0" xml:space="preserve"> XLS(X) 파일을 여기에 끌어다 놓거나 클릭해서 업로드 할 수 있어요</tspan><tspan class="cls-9" x="199.762" y="0">.</tspan></text>
    <g>
      <circle class="cls-1" cx="41.517" cy="41.282" r="14.516"/>
      <g>
        <path class="cls-7" d="m35.324,44.902v.927c0,.766.621,1.387,1.387,1.387h9.613c.766,0,1.387-.621,1.387-1.387v-.927"/>
        <line class="cls-6" x1="41.517" y1="35.746" x2="41.517" y2="43.862"/>
        <polyline class="cls-6" points="38.046 38.862 41.532 35.346 44.989 38.862"/>
      </g>
    </g>
    <g>
      <g>
        <rect class="cls-2" x="330.782" y="30.808" width="81.952" height="21.196" rx="2.338" ry="2.338"/>
        <path class="cls-1" d="m410.395,31.058c1.151,0,2.088.937,2.088,2.088v16.52c0,1.151-.937,2.088-2.088,2.088h-77.275c-1.151,0-2.088-.937-2.088-2.088v-16.52c0-1.151.937-2.088,2.088-2.088h77.275m0-.5h-77.275c-1.429,0-2.588,1.159-2.588,2.588v16.52c0,1.429,1.159,2.588,2.588,2.588h77.275c1.429,0,2.588-1.159,2.588-2.588v-16.52c0-1.429-1.159-2.588-2.588-2.588h0Z"/>
      </g>
      <text class="cls-5" transform="translate(358.827 44.106)"><tspan x="0" y="0">파일 선택</tspan></text>
    </g>
  </g>
</svg>