<?xml version="1.0" encoding="UTF-8"?>
<svg id="_레이어_2" data-name="레이어 2" xmlns="http://www.w3.org/2000/svg" viewBox="0 0 560.033 645.03">
  <defs>
    <style>
      .cls-1 {
        stroke: #59526e;
      }

      .cls-1, .cls-2, .cls-3, .cls-4, .cls-5, .cls-6, .cls-7 {
        stroke-miterlimit: 10;
      }

      .cls-1, .cls-8, .cls-6 {
        fill: #fff;
      }

      .cls-1, .cls-4, .cls-5, .cls-6, .cls-7 {
        stroke-width: 1.5px;
      }

      .cls-2 {
        stroke: #fff;
        stroke-width: 2.769px;
      }

      .cls-2, .cls-3 {
        fill: none;
      }

      .cls-9 {
        fill: #575e75;
      }

      .cls-9, .cls-10, .cls-11, .cls-8, .cls-12 {
        stroke-width: 0px;
      }

      .cls-3 {
        stroke: #99dbdb;
        stroke-width: 1.3px;
      }

      .cls-10 {
        fill: #e9e9e9;
      }

      .cls-11 {
        fill: #a31515;
      }

      .cls-4 {
        fill: #00a4a6;
        stroke: #007b7d;
      }

      .cls-5 {
        fill: #1e90ff;
        stroke: #176cbf;
      }

      .cls-12 {
        fill: #039799;
      }

      .cls-6 {
        stroke: #bfbfbf;
      }

      .cls-7 {
        fill: #dc143c;
        stroke: #a50f2d;
      }
    </style>
  </defs>
  <path class="cls-5" d="m84.553,606.455h-21.05c-1.723,0-3.364-.74-4.505-2.031l-8.586-9.72c-1.141-1.292-2.781-2.031-4.505-2.031h-13.726c-3.32,0-6.011-2.755-6.011-6.074V83.176c0-3.32,2.691-6.011,6.011-6.011h13.331c1.723,0,3.364.74,4.505,2.031l8.586,9.72c1.141,1.292,2.781,2.031,4.505,2.031h21.05c1.691,0,3.304-.712,4.443-1.963l8.981-9.857c1.139-1.25,2.752-1.963,4.443-1.963h145.543c3.32,0,6.011-2.691,6.011-6.011V6.761c0-3.32-2.691-6.011-6.011-6.011H6.761C3.441.75.75,3.441.75,6.761v631.509c0,3.32,2.691,6.011,6.011,6.011h240.807c3.32,0,6.011-2.691,6.011-6.011v-39.586c0-3.32-2.691-6.011-6.011-6.011H102.42c-1.691,0-3.304.712-4.443,1.963l-8.981,9.857c-1.139,1.25-2.752,1.963-4.443,1.963Z"/>
  <path class="cls-4" d="m58.515,166.597h13.04c1.733,0,3.382.744,4.529,2.042l8.566,9.697c1.147,1.299,2.797,2.042,4.529,2.042h21.021c1.7,0,3.322-.716,4.467-1.973l8.961-9.836c1.145-1.257,2.767-1.973,4.467-1.973h425.442c3.172,0,5.744-2.572,5.744-5.744v-77.268c0-3.172-2.572-5.744-5.744-5.744H102.422c-1.7,0-3.322.716-4.467,1.973l-8.961,9.836c-1.145,1.257-2.767,1.973-4.468,1.973h-21.021c-1.733,0-3.382-.744-4.529-2.042l-8.566-9.697c-1.147-1.299-2.797-2.042-4.529-2.042h-13.283c-3.338,0-6.044,2.706-6.044,6.044v76.701h0v352.522c0,2.025,1.642,3.667,3.667,3.667h16.152c1.409,0,2.751.605,3.684,1.661l.657.744,8.42,9.531c1.036,1.173,2.527,1.845,4.092,1.845h21.542c1.536,0,3.002-.647,4.036-1.783l9.054-9.938c1.196-1.313,2.891-2.062,4.667-2.062h452.236c2.497,0,4.522-2.024,4.522-4.522v-39.762c0-2.497-2.024-4.522-4.522-4.522H126.603c-1.415,0-2.764.594-3.72,1.637l-9.17,10.064c-1.019,1.118-2.462,1.756-3.975,1.756h-22.012c-1.542,0-3.009-.662-4.03-1.817l-8.444-9.559-.331-.374h0c-.962-1.085-2.343-1.706-3.793-1.706h-13.987c-2.981,0-5.398-2.417-5.398-5.398v-63.901c0-2.111,1.712-3.823,3.823-3.823h16.039c1.733,0,3.382.744,4.53,2.043l8.566,9.697c1.147,1.299,2.797,2.042,4.529,2.042h21.021c1.7,0,3.322-.716,4.467-1.973l8.961-9.836c1.145-1.257,2.767-1.973,4.467-1.973h425.39c3.172,0,5.744-2.572,5.744-5.744v-64.468c0-3.172-2.572-5.744-5.744-5.744H128.149c-1.7,0-3.322.716-4.467,1.973l-8.961,9.836c-1.145,1.257-2.767,1.973-4.467,1.973h-21.021c-1.733,0-3.382-.744-4.529-2.042l-8.566-9.697c-1.147-1.299-2.797-2.043-4.53-2.043h-14.278c-3.084,0-5.584-2.5-5.584-5.584v-139.939c0-3.74,3.031-6.771,6.771-6.771Z"/>
  <g>
    <path class="cls-5" d="m127.216,166.66c-1.691,0-3.304.712-4.443,1.962l-8.981,9.857c-1.139,1.25-2.752,1.963-4.443,1.963h-21.051c-1.723,0-3.364-.74-4.505-2.031l-8.586-9.72c-1.141-1.292-2.781-2.031-4.505-2.031h-13.331c-3.32,0-6.011,2.691-6.011,6.011v63.934c0,3.32,2.691,6.011,6.011,6.011h13.331c1.723,0,3.364.74,4.505,2.031l8.586,9.72c1.141,1.292,2.781,2.031,4.505,2.031h21.051c1.691,0,3.304-.712,4.443-1.963l8.981-9.857c1.139-1.25,2.752-1.962,4.443-1.962h234.585c3.154,0,5.711-2.557,5.711-5.711v-64.534c0-3.154-2.557-5.711-5.711-5.711H127.216Z"/>
    <rect class="cls-6" x="221.56" y="178.581" width="130.064" height="50.382" rx="25.191" ry="25.191"/>
  </g>
  <path class="cls-7" d="m122.773,244.362l-8.981,9.857c-1.139,1.25-2.752,1.963-4.443,1.963h-21.05c-1.723,0-3.364-.74-4.505-2.031l-8.586-9.72c-1.141-1.292-2.781-2.031-4.505-2.031h-13.331c-3.32,0-6.011,2.691-6.011,6.011v63.934c0,3.32,2.691,6.011,6.011,6.011h13.331c1.723,0,3.364.74,4.505,2.031l8.586,9.72c1.141,1.292,2.781,2.031,4.505,2.031h21.05c1.691,0,3.304-.712,4.443-1.963l8.981-9.857c1.139-1.25,2.752-1.963,4.443-1.963h298.347c3.32,0,9.175-2.691,9.175-6.011v-63.934c0-3.32-5.856-6.011-9.175-6.011H127.216c-1.691,0-3.304.712-4.443,1.963Z"/>
  <rect class="cls-7" x="126.934" y="254.191" width="110.488" height="50.382" rx="5.743" ry="5.743"/>
  <path class="cls-8" d="m212.74,283.927l-6.78-6.353c-.801-.75-.27-2.093.827-2.093h13.56c1.097,0,1.628,1.343.827,2.093l-6.78,6.353c-.465.436-1.189.436-1.655,0Z"/>
  <rect class="cls-6" x="290.203" y="254.677" width="66.844" height="50.382" rx="25.191" ry="25.191"/>
  <g>
    <path class="cls-5" d="m127.216,392.077c-1.691,0-3.304.712-4.443,1.962l-8.981,9.857c-1.139,1.25-2.752,1.963-4.443,1.963h-21.051c-1.723,0-3.364-.74-4.505-2.031l-8.586-9.72c-1.141-1.292-2.781-2.031-4.505-2.031h-13.331c-3.32,0-6.011,2.691-6.011,6.011v63.934c0,3.32,2.691,6.011,6.011,6.011h13.331c1.723,0,3.364.74,4.505,2.031l8.586,9.72c1.141,1.292,2.781,2.031,4.505,2.031h21.051c1.691,0,3.304-.712,4.443-1.963l8.981-9.857c1.139-1.25,2.752-1.962,4.443-1.962h220.848c3.154,0,5.711-2.557,5.711-5.711v-64.534c0-3.154-2.557-5.711-5.711-5.711H127.216Z"/>
    <rect class="cls-6" x="223.091" y="403.997" width="116.703" height="50.382" rx="25.191" ry="25.191"/>
  </g>
  <g>
    <path class="cls-5" d="m102.407,516.73c-1.691,0-3.304.712-4.443,1.962l-8.981,9.857c-1.139,1.25-2.752,1.963-4.443,1.963h-21.051c-1.723,0-3.364-.74-4.505-2.031l-8.586-9.72c-1.141-1.292-2.781-2.031-4.505-2.031h-13.331c-3.32,0-6.011,2.691-6.011,6.011v63.934c0,3.32,2.691,6.011,6.011,6.011h13.331c1.723,0,3.364.74,4.505,2.031l8.586,9.72c1.141,1.292,2.781,2.031,4.505,2.031h21.051c1.691,0,3.304-.712,4.443-1.963l8.981-9.857c1.139-1.25,2.752-1.962,4.443-1.962h239.945c3.154,0,5.711-2.557,5.711-5.711v-64.534c0-3.154-2.557-5.711-5.711-5.711H102.407Z"/>
    <g>
      <path class="cls-8" d="m43.166,547.652c0-.773.154-1.499.463-2.178.308-.678.733-1.263,1.273-1.752.54-.489,1.174-.876,1.903-1.16.728-.284,1.521-.425,2.379-.425.839,0,1.624.142,2.353.425.728.284,1.358.67,1.89,1.16.531.49.952,1.074,1.26,1.752.309.679.463,1.405.463,2.178s-.154,1.5-.463,2.178c-.308.679-.729,1.263-1.26,1.752-.532.49-1.162.876-1.89,1.16-.729.284-1.513.425-2.353.425-.858,0-1.65-.142-2.379-.425-.729-.284-1.363-.67-1.903-1.16-.54-.489-.964-1.073-1.273-1.752-.309-.678-.463-1.405-.463-2.178Zm2.263.013c0,.514.09.99.27,1.427.18.437.433.814.758,1.131.326.318.72.566,1.183.746s.968.27,1.517.27,1.05-.09,1.504-.27c.454-.18.848-.428,1.183-.746.334-.317.591-.694.771-1.131.18-.437.27-.913.27-1.427s-.09-.99-.27-1.427c-.18-.437-.437-.811-.771-1.119-.335-.308-.729-.553-1.183-.733-.454-.18-.956-.27-1.504-.27s-1.05.09-1.504.27c-.454.18-.848.425-1.183.733-.334.308-.591.681-.771,1.119-.18.437-.27.913-.27,1.427Zm16.714,17.331h-15.274v-5.889h12.574v-2.262h-12.574v-1.852h14.76v5.914h-12.574v2.211h13.088v1.877Zm-2.726-23.22h2.212v11.88h-2.212v-11.88Z"/>
      <path class="cls-8" d="m68.88,560.11l-1.594-1.414c1.045-.754,2.014-1.62,2.906-2.597.891-.977,1.646-2.096,2.263-3.356.617-1.26,1.076-2.678,1.376-4.255.3-1.577.381-3.334.245-5.272h2.34c.034,1.132,0,2.203-.103,3.214-.103,1.012-.248,1.98-.437,2.906.617,1.766,1.491,3.381,2.623,4.847s2.477,2.722,4.037,3.767l-1.44,1.646c-1.286-.909-2.439-1.984-3.459-3.227-1.02-1.242-1.89-2.644-2.61-4.204-.652,1.68-1.496,3.176-2.533,4.487-1.037,1.311-2.241,2.465-3.613,3.458Zm16.251-18.334h2.212v23.477h-2.212v-23.477Z"/>
      <path class="cls-8" d="m103.337,556.896v-2.571h-10.08v-1.903h22.346v1.903h-10.003v2.571c2.289.121,4.005.57,5.149,1.35s1.716,1.736,1.716,2.867c0,.6-.167,1.166-.501,1.698-.334.531-.836.994-1.504,1.388-.669.394-1.5.702-2.494.926-.994.223-2.143.334-3.446.334-1.32,0-2.478-.112-3.472-.334-.994-.223-1.826-.532-2.494-.926-.669-.395-1.174-.858-1.517-1.388-.343-.532-.514-1.097-.514-1.698,0-1.131.569-2.083,1.71-2.854,1.14-.771,2.841-1.225,5.104-1.363Zm3.806-9.848c1.028.549,2.134,1.02,3.317,1.414s2.382.711,3.6.952l-1.028,1.749c-.6-.137-1.234-.309-1.903-.515-.669-.206-1.337-.441-2.006-.707-.669-.266-1.32-.553-1.954-.862-.634-.308-1.217-.634-1.749-.977-1.388.772-2.876,1.414-4.461,1.929-1.586.514-3.167.883-4.744,1.106l-1.054-1.697c1.44-.206,2.79-.488,4.05-.848s2.417-.772,3.472-1.235c1.054-.463,1.988-.964,2.803-1.504.814-.54,1.495-1.084,2.044-1.633-.909.035-1.804.056-2.687.065-.883.009-1.787.013-2.713.013h-5.169v-1.826h10.324c1.088,0,2.224-.017,3.407-.051.206-.017.343.048.411.193.068.146.06.296-.026.45-.411.738-.951,1.436-1.62,2.096-.668.66-1.44,1.29-2.314,1.89Zm2.931,14.066c0-.291-.09-.587-.27-.887-.18-.3-.489-.569-.926-.81-.437-.24-1.012-.433-1.723-.579-.712-.145-1.59-.219-2.636-.219-1.063,0-1.95.073-2.661.219-.712.146-1.286.338-1.723.579-.437.24-.746.51-.926.81-.18.3-.27.596-.27.887s.09.583.27.875.489.557.926.797c.437.24,1.011.437,1.723.592.711.154,1.598.231,2.661.231,1.045,0,1.924-.077,2.636-.231.711-.155,1.286-.352,1.723-.592.437-.24.746-.505.926-.797s.27-.583.27-.875Z"/>
      <path class="cls-8" d="m129.025,551.959c.72,1.132,1.569,2.224,2.546,3.279.977,1.054,2.031,1.993,3.163,2.816l-1.646,1.594c-1.029-.788-1.976-1.68-2.841-2.674-.866-.994-1.667-2.057-2.404-3.189-.994,1.389-2.1,2.649-3.317,3.78s-2.494,2.083-3.831,2.854l-1.492-1.492c1.371-.736,2.636-1.654,3.793-2.751,1.157-1.097,2.168-2.254,3.034-3.472.865-1.217,1.564-2.443,2.096-3.677.531-1.234.848-2.366.951-3.394-.977.034-1.933.056-2.867.065-.935.008-1.881.013-2.841.013h-2.777v-1.877h7.483c1.131,0,2.305-.017,3.523-.051-.051,1.388-.3,2.777-.746,4.166-.446,1.388-1.054,2.726-1.826,4.011Zm7.534-10.183h2.212v23.477h-2.212v-23.477Z"/>
    </g>
    <g>
      <path class="cls-8" d="m285.625,553.681c0,1.046.124,2.109.373,3.189.248,1.08.604,2.121,1.067,3.124s1.033,1.945,1.71,2.828,1.453,1.65,2.327,2.302v.257h-1.826c-.909-.617-1.732-1.359-2.469-2.224-.737-.866-1.363-1.808-1.877-2.829-.514-1.02-.913-2.091-1.196-3.214-.283-1.123-.424-2.267-.424-3.433,0-1.131.141-2.25.424-3.356.283-1.106.681-2.155,1.196-3.15.515-.994,1.14-1.916,1.877-2.764.737-.849,1.56-1.582,2.469-2.199h1.826v.257c-.874.652-1.65,1.406-2.327,2.263-.677.857-1.247,1.774-1.71,2.751-.463.977-.819,1.993-1.067,3.047-.249,1.054-.373,2.104-.373,3.15Z"/>
      <path class="cls-8" d="m300.025,550.133c.428-1.44,1.225-2.16,2.391-2.16.531,0,.964.094,1.298.283.335.189.6.484.797.887.197.403.334.922.411,1.556.077.634.116,1.388.116,2.263v8.46h-1.98v-8.537c0-.634-.013-1.166-.039-1.594-.025-.428-.073-.763-.141-1.003-.069-.24-.163-.411-.283-.514-.12-.103-.274-.155-.463-.155-.377,0-.681.099-.913.296s-.411.471-.54.823c-.128.352-.214.758-.257,1.221-.043.463-.065.952-.065,1.466v7.997h-2.005v-8.537c0-.634-.013-1.157-.039-1.569-.026-.411-.073-.741-.141-.99-.069-.248-.163-.42-.283-.514-.12-.094-.283-.141-.489-.141-.343,0-.63.107-.862.321-.231.214-.416.497-.553.849s-.236.758-.296,1.221c-.06.463-.09.935-.09,1.414v7.946h-1.98v-13.114h1.851l.051,1.388c.24-.549.574-.973,1.003-1.273.428-.3.84-.45,1.234-.45.72,0,1.238.159,1.556.476.317.317.553.879.707,1.684Z"/>
      <path class="cls-8" d="m307.585,558.49c.737.48,1.478.836,2.224,1.067.746.231,1.402.347,1.967.347.874,0,1.598-.15,2.173-.45.574-.299.862-.784.862-1.453,0-.377-.279-.78-.836-1.208-.557-.428-1.496-.926-2.816-1.491-1.132-.497-1.993-1.042-2.585-1.633s-.887-1.341-.887-2.25c0-1.097.394-1.945,1.183-2.546.788-.6,1.911-.9,3.368-.9.651,0,1.312.073,1.98.219.669.146,1.303.382,1.903.707v1.903h-.309c-.223-.155-.484-.296-.784-.424-.3-.129-.617-.24-.952-.335-.334-.094-.668-.167-1.003-.219-.334-.051-.647-.077-.938-.077-.669,0-1.205.133-1.607.398-.403.266-.604.656-.604,1.17,0,.292.064.549.193.772.129.223.334.437.617.643.283.206.647.411,1.093.617s.977.437,1.594.694c.445.189.891.399,1.337.63.445.231.844.501,1.196.81.351.308.634.668.849,1.08.214.411.321.883.321,1.414,0,.686-.146,1.269-.437,1.749-.292.48-.677.87-1.157,1.17-.48.301-1.042.519-1.684.656-.643.138-1.307.206-1.993.206-.789,0-1.543-.077-2.263-.231-.72-.155-1.491-.471-2.314-.952v-2.083h.309Z"/>
      <path class="cls-8" d="m325.893,553.681c0-1.045-.124-2.095-.373-3.15s-.604-2.07-1.067-3.047c-.463-.977-1.033-1.894-1.71-2.751-.678-.857-1.453-1.611-2.327-2.263v-.257h1.826c.908.617,1.731,1.35,2.469,2.199.737.848,1.363,1.77,1.877,2.764.514.994.913,2.044,1.196,3.15.283,1.106.424,2.224.424,3.356,0,1.166-.141,2.31-.424,3.433-.283,1.123-.681,2.194-1.196,3.214-.515,1.02-1.14,1.963-1.877,2.829-.738.865-1.56,1.607-2.469,2.224h-1.826v-.257c.874-.652,1.65-1.419,2.327-2.302.677-.883,1.247-1.825,1.71-2.828s.819-2.044,1.067-3.124.373-2.143.373-3.189Z"/>
    </g>
    <rect class="cls-1" x="152.7" y="528.65" width="114.201" height="50.382" rx="25.191" ry="25.191"/>
    <g>
      <path class="cls-9" d="m178.152,562.208v-2.391h3.317c0-2.074-.005-4.058-.013-5.953-.009-1.894-.013-3.879-.013-5.953-.24.154-.518.318-.836.489-.318.172-.643.338-.977.501-.335.163-.66.318-.977.463-.317.146-.587.27-.81.373h-.386v-2.443c.806-.36,1.594-.763,2.366-1.208s1.371-.883,1.8-1.312h2.649v15.043h3.137v2.391h-9.257Z"/>
      <path class="cls-9" d="m194.841,544.491c1.766,0,3.12.738,4.063,2.212.943,1.475,1.414,3.78,1.414,6.917,0,1.594-.12,2.953-.36,4.076s-.596,2.044-1.067,2.764c-.472.72-1.046,1.247-1.723,1.582-.678.334-1.453.501-2.327.501-.909,0-1.701-.167-2.379-.501-.677-.335-1.247-.862-1.71-1.582-.463-.72-.81-1.641-1.042-2.764s-.347-2.482-.347-4.076c0-3.137.463-5.443,1.388-6.917.926-1.474,2.289-2.212,4.089-2.212Zm0,2.263c-.874,0-1.565.57-2.07,1.71-.506,1.14-.733,2.884-.681,5.233.017.394.03.772.039,1.132.008.36.03.694.064,1.003l4.706-7.354c-.429-1.149-1.115-1.723-2.057-1.723Zm-.026,13.603c.515,0,.947-.124,1.299-.373.351-.248.63-.643.836-1.183.206-.54.355-1.235.45-2.083.094-.848.141-1.864.141-3.047,0-.463-.009-.896-.026-1.298s-.043-.793-.077-1.17l-4.731,7.431c.377,1.149,1.08,1.723,2.108,1.723Z"/>
      <path class="cls-9" d="m207.698,544.491c1.766,0,3.12.738,4.063,2.212.943,1.475,1.414,3.78,1.414,6.917,0,1.594-.12,2.953-.36,4.076s-.596,2.044-1.067,2.764c-.472.72-1.046,1.247-1.723,1.582-.678.334-1.453.501-2.327.501-.909,0-1.701-.167-2.379-.501-.677-.335-1.247-.862-1.71-1.582-.463-.72-.81-1.641-1.042-2.764s-.347-2.482-.347-4.076c0-3.137.463-5.443,1.388-6.917.926-1.474,2.289-2.212,4.089-2.212Zm0,2.263c-.874,0-1.565.57-2.07,1.71-.506,1.14-.733,2.884-.681,5.233.017.394.03.772.039,1.132.008.36.03.694.064,1.003l4.706-7.354c-.429-1.149-1.115-1.723-2.057-1.723Zm-.026,13.603c.515,0,.947-.124,1.299-.373.351-.248.63-.643.836-1.183.206-.54.355-1.235.45-2.083.094-.848.141-1.864.141-3.047,0-.463-.009-.896-.026-1.298s-.043-.793-.077-1.17l-4.731,7.431c.377,1.149,1.08,1.723,2.108,1.723Z"/>
    </g>
    <g>
      <path class="cls-9" d="m239.06,559.019c-.51,0-.996-.192-1.369-.542l-6.78-6.353c-.603-.565-.796-1.427-.493-2.196.304-.769,1.035-1.266,1.861-1.266h13.56c.827,0,1.557.497,1.861,1.266.304.769.11,1.631-.493,2.196l-6.78,6.353c-.372.349-.858.542-1.369.542Z"/>
      <path class="cls-10" d="m245.84,549.454c1.097,0,1.628,1.343.827,2.093l-6.78,6.353c-.233.218-.53.327-.827.327s-.595-.109-.827-.327l-6.78-6.353c-.801-.75-.27-2.093.827-2.093h13.56m0-1.582h-13.56c-1.154,0-2.173.693-2.597,1.766s-.154,2.276.688,3.064l6.78,6.353c.52.487,1.198.755,1.909.755s1.39-.268,1.909-.755l6.78-6.353c.842-.789,1.112-1.992.688-3.064s-1.443-1.766-2.597-1.766h0Z"/>
    </g>
  </g>
  <g>
    <path class="cls-8" d="m65.654,489.982h-4.862c-.592,0-1.072-.48-1.072-1.072v-4.862c0-.592-.48-1.072-1.072-1.072h-3.675c-.592,0-1.072.48-1.072,1.072v4.862c0,.592-.48,1.072-1.072,1.072h-4.862c-.592,0-1.072.48-1.072,1.072v3.675c0,.592.48,1.072,1.072,1.072h4.862c.592,0,1.072.48,1.072,1.072v4.862c0,.592.48,1.072,1.072,1.072h3.675c.592,0,1.072-.48,1.072-1.072v-4.862c0-.592.48-1.072,1.072-1.072h4.862c.592,0,1.072-.48,1.072-1.072v-3.675c0-.592-.48-1.072-1.072-1.072Z"/>
    <circle class="cls-2" cx="56.811" cy="492.892" r="16.654"/>
  </g>
  <polygon class="cls-3" points="449.229 84.069 150.549 84.069 111.991 122.047 150.549 160.025 449.229 160.025 487.787 122.047 449.229 84.069"/>
  <rect class="cls-4" x="286.413" y="96.966" width="70.29" height="50.382" rx="5.743" ry="5.743"/>
  <g>
    <path class="cls-8" d="m336.081,127.584c-.46,0-.898-.173-1.233-.487l-6.78-6.354c-.544-.51-.718-1.287-.444-1.979.274-.693.933-1.14,1.678-1.14h13.56c.745,0,1.403.448,1.678,1.141.273.693.099,1.47-.445,1.979l-6.778,6.354c-.336.314-.774.487-1.233.487Z"/>
    <path class="cls-12" d="m342.86,118.217c1.097,0,1.628,1.343.828,2.093l-6.78,6.353c-.233.218-.53.327-.827.327s-.595-.109-.827-.327l-6.78-6.353c-.801-.75-.27-2.093.827-2.093h13.56m0-1.187h-13.56c-.99,0-1.865.595-2.229,1.516-.364.921-.132,1.953.59,2.63l6.78,6.353c.446.418,1.028.648,1.639.648s1.193-.23,1.639-.648l6.78-6.353c.722-.677.954-1.709.59-2.63s-1.239-1.516-2.229-1.516h0Z"/>
  </g>
  <rect class="cls-6" x="369.145" y="96.966" width="80.167" height="50.382" rx="25.191" ry="25.191"/>
  <g>
    <rect class="cls-7" x="150.313" y="90.492" width="123.236" height="63.331" rx="31.665" ry="31.665"/>
    <path class="cls-8" d="m244.082,126.106l-6.78-6.353c-.801-.75-.27-2.093.827-2.093h13.56c1.097,0,1.628,1.343.827,2.093l-6.78,6.353c-.465.436-1.189.436-1.655,0Z"/>
  </g>
  <g>
    <path class="cls-8" d="m21.463,41.162v-1.877h21.857v1.877h-9.566v7.997h-2.263v-7.997h-10.028Zm3.626-4.835v-9.694h14.914v9.694h-14.914Zm12.703-7.766h-10.492v5.889h10.492v-5.889Z"/>
    <path class="cls-8" d="m47.1,31.21v-1.851h13.937v1.851h-13.937Zm6.943,9.72c-.977,0-1.826-.116-2.546-.347s-1.316-.544-1.787-.938c-.472-.394-.823-.849-1.054-1.363s-.347-1.054-.347-1.62.116-1.101.347-1.607.583-.955,1.054-1.35c.471-.394,1.067-.707,1.787-.938s1.569-.347,2.546-.347,1.825.116,2.546.347,1.315.544,1.787.938c.471.395.823.845,1.054,1.35s.347,1.041.347,1.607-.116,1.106-.347,1.62-.583.969-1.054,1.363c-.472.394-1.067.707-1.787.938s-1.569.347-2.546.347Zm-3.934-13.088v-1.852h7.946v1.852h-7.946Zm3.934,11.289c.634,0,1.174-.068,1.62-.206.445-.137.81-.321,1.093-.553.283-.231.488-.497.617-.797.129-.3.193-.605.193-.913s-.064-.608-.193-.9c-.129-.291-.334-.553-.617-.784-.283-.231-.647-.42-1.093-.566-.446-.146-.986-.219-1.62-.219s-1.174.073-1.62.219-.81.334-1.093.566c-.283.231-.488.493-.617.784-.129.292-.193.591-.193.9s.064.613.193.913c.129.3.334.566.617.797.283.231.647.416,1.093.553.446.138.986.206,1.62.206Zm12.111,9.694h-14.94v-5.632h2.263v3.703h12.677v1.929Zm3.163-13.012h-3.703v8.126h-2.212v-18.154h2.212v8.048h3.703v1.98Z"/>
    <path class="cls-8" d="m86.725,38.539v-11.855h2.186v4.037h6.454v-4.037h2.134v11.855h-10.774Zm8.64-5.94h-6.454v4.037h6.454v-4.037Zm9.335,16.226h-14.683v-7.2h2.263v5.271h12.42v1.929Zm3.188-14.94h-3.703v8.897h-2.212v-16.971h2.212v6.094h3.703v1.98Z"/>
    <path class="cls-8" d="m114.934,35.299v-9.309h2.34v2.751h10.26v-2.751h2.263v9.309h-6.325v2.726h10.08v1.903h-22.346v-1.903h10.003v-2.726h-6.274Zm12.805,14.066v-5.348h-13.294v-1.903h15.506v7.251h-2.212Zm-.206-18.746h-10.337v2.777h10.337v-2.777Z"/>
  </g>
  <g>
    <path class="cls-8" d="m79.493,210.323h-2.263v-4.988h-10.594v-1.903h22.346v1.903h-9.489v4.988Zm6.66,4.5h-15.814v-6.994h2.211v5.066h13.603v1.929Zm-15.788-14.066v-8.434h14.888v8.434h-14.888Zm12.626-1.877v-4.577h-10.363v4.577h10.363Z"/>
    <path class="cls-8" d="m101.813,201.812c.737,1.132,1.594,2.237,2.571,3.317.977,1.08,2.04,2.032,3.189,2.854l-1.646,1.594c-1.028-.788-1.976-1.68-2.841-2.674-.866-.994-1.676-2.057-2.43-3.189-.943,1.389-2.005,2.649-3.188,3.78-1.183,1.131-2.443,2.083-3.78,2.854l-1.569-1.492c1.371-.737,2.614-1.654,3.729-2.751,1.114-1.097,2.078-2.254,2.893-3.472.814-1.217,1.465-2.443,1.954-3.677s.784-2.366.887-3.394c-.977.034-1.933.056-2.867.064-.935.009-1.881.013-2.841.013h-2.417v-1.877h7.226c1.131,0,2.305-.017,3.523-.051-.052,1.388-.283,2.764-.695,4.127-.411,1.363-.977,2.687-1.697,3.973Zm13.14.9h-4.037v12.471h-2.211v-23.477h2.211v9.026h4.037v1.98Z"/>
    <path class="cls-8" d="m130.176,194.252h5.477v-2.546h2.212v11.88h-2.212v-2.854h-5.322c-.532.72-1.222,1.294-2.07,1.723-.848.429-1.796.643-2.841.643-.858,0-1.65-.141-2.379-.425-.729-.284-1.363-.67-1.903-1.16-.54-.489-.964-1.074-1.273-1.752-.309-.679-.463-1.405-.463-2.178s.154-1.499.463-2.178c.308-.678.733-1.263,1.273-1.752.54-.489,1.174-.876,1.903-1.16.728-.284,1.521-.425,2.379-.425.994,0,1.903.195,2.726.585.823.391,1.5.924,2.031,1.6Zm-8.511,3.343c0,.514.09.99.27,1.427.18.437.433.814.758,1.132.326.318.72.566,1.183.746s.968.27,1.517.27,1.05-.09,1.504-.27c.454-.18.848-.428,1.183-.746.334-.317.591-.694.771-1.132.18-.437.27-.913.27-1.427s-.09-.99-.27-1.427c-.18-.437-.437-.81-.771-1.118-.335-.309-.729-.553-1.183-.733-.454-.18-.956-.27-1.504-.27s-1.05.09-1.504.27c-.454.18-.848.424-1.183.733-.334.308-.591.681-.771,1.118-.18.437-.27.913-.27,1.427Zm16.714,17.332h-15.274v-5.889h12.574v-2.263h-12.574v-1.851h14.76v5.914h-12.574v2.211h13.088v1.877Zm-7.2-15.994h4.5v-2.906h-4.577c.155.498.231,1.02.231,1.569,0,.463-.051.909-.154,1.337Z"/>
    <path class="cls-8" d="m166.639,206.003v-2.185h-10.003v-1.774h22.346v1.774h-10.08v2.185h6.505v5.374h-12.986v1.98h13.603v1.826h-15.789v-5.528h12.986v-1.826h-12.986v-1.826h6.403Zm-6.48-11.726h10.376c1.071,0,2.199-.017,3.382-.051.188.017.321.107.398.27.077.163.073.313-.013.45-.343.566-.848,1.114-1.517,1.645-.668.532-1.457,1.038-2.366,1.517,2.022.652,4.251,1.149,6.685,1.492l-1.028,1.62c-1.337-.206-2.661-.493-3.973-.862-1.311-.368-2.558-.793-3.741-1.273-1.406.583-2.884,1.063-4.436,1.44-1.552.377-3.021.634-4.41.772l-.926-1.594c1.286-.12,2.541-.309,3.767-.566,1.225-.257,2.379-.557,3.458-.9,1.08-.343,2.057-.711,2.931-1.106.874-.394,1.611-.797,2.211-1.208-.96.034-1.912.06-2.854.077-.943.017-1.886.026-2.828.026h-5.117v-1.749Zm3.034-2.88h8.332v1.774h-8.332v-1.774Z"/>
    <path class="cls-8" d="m186.13,203.175h2.211c.994,0,1.916-.026,2.764-.077.849-.051,1.646-.12,2.391-.206s1.453-.189,2.121-.309c.669-.12,1.312-.248,1.929-.386v1.826c-1.32.309-2.799.557-4.435.746-1.637.189-3.33.283-5.079.283h-4.166v-7.303h7.74v-3.343h-7.792v-1.852h10.003v6.995h-7.688v3.626Zm13.808,12.086v-5.992h-12.96v-1.929h15.172v7.92h-2.212Zm-3.909-18.54v-1.8h3.909v-3.214h2.212v14.297h-2.212v-5.297h-3.909v-1.826h3.934v-2.16h-3.934Z"/>
  </g>
  <g>
    <path class="cls-11" d="m243.628,193.136h2.983l-.257,6.249h-1.98l-.746-6.249Zm5.195,0h3.008l-.746,6.249h-2.006l-.257-6.249Z"/>
    <path class="cls-9" d="m261.706,198.382l1.003,5.477.386,2.674.129-2.726.952-9.103h2.803l-1.749,17.434h-2.854l-1.492-7.766-.309-1.877-.257,1.903-1.543,7.74h-2.726l-1.851-17.434h2.828l.823,9.128.129,2.675c.017-.068.042-.236.077-.501.034-.266.073-.544.116-.836.042-.291.081-.57.116-.836.034-.265.06-.433.077-.501l1.106-5.451h2.237Z"/>
    <path class="cls-9" d="m268.854,202.342v-2.314c.754-.446,1.491-.772,2.211-.977.72-.206,1.517-.308,2.391-.308,1.577,0,2.768.428,3.574,1.286.805.857,1.208,2.134,1.208,3.831v8.28h-2.597l-.052-1.543c-.189.257-.416.497-.681.72-.266.223-.557.42-.874.591-.318.172-.647.309-.99.411-.343.103-.677.155-1.003.155-1.303,0-2.306-.338-3.008-1.016-.703-.677-1.054-1.633-1.054-2.867,0-1.217.33-2.156.99-2.816s1.684-1.11,3.073-1.35l3.42-.54v-.206c0-.926-.18-1.594-.54-2.006s-.9-.617-1.62-.617-1.41.103-2.07.309c-.66.206-1.342.532-2.044.977h-.334Zm6.685,3.472l-2.52.488c-.72.12-1.256.343-1.607.669-.352.326-.527.806-.527,1.44,0,.549.137.977.411,1.286.274.309.694.463,1.26.463.411,0,.797-.077,1.157-.231.36-.154.677-.36.951-.617.274-.257.489-.566.643-.926.155-.36.231-.746.231-1.157v-1.414Z"/>
    <path class="cls-9" d="m291.097,209.439v2.134c-.411.292-.887.501-1.427.63-.54.128-1.059.193-1.556.193-1.251,0-2.246-.304-2.983-.913-.737-.608-1.106-1.564-1.106-2.867v-7.303h-2.597v-2.289h2.597v-3.24l2.803-1.337v4.577h4.089v2.289h-4.089v7.097c0,1.097.6,1.646,1.8,1.646.428,0,.819-.064,1.17-.193.351-.129.673-.27.964-.425h.334Z"/>
    <path class="cls-9" d="m299.454,198.742c.874,0,1.628.15,2.263.45.634.3,1.161.712,1.582,1.234.42.523.728,1.149.926,1.877.197.729.296,1.513.296,2.353v1.209h-7.946c0,.6.056,1.157.167,1.671.111.514.291.96.54,1.337.248.377.57.678.964.9.394.223.883.334,1.466.334.274,0,.583-.034.926-.103.343-.068.694-.158,1.054-.27.36-.111.711-.253,1.054-.424.343-.171.651-.36.926-.566h.36v2.469c-.634.446-1.29.768-1.967.964-.677.197-1.478.296-2.404.296-1.063,0-1.967-.167-2.713-.501-.746-.335-1.363-.81-1.852-1.427-.488-.617-.845-1.35-1.067-2.199-.223-.849-.334-1.787-.334-2.816,0-1.045.116-1.984.347-2.816.231-.831.583-1.543,1.054-2.134.471-.591,1.067-1.046,1.787-1.363s1.577-.476,2.571-.476Zm-.077,2.263c-1.474,0-2.383.9-2.726,2.7l4.963-.077c-.172-1.749-.917-2.623-2.237-2.623Z"/>
    <path class="cls-9" d="m310.588,199.025l.103,2.289c.309-.737.81-1.35,1.504-1.839.694-.488,1.47-.732,2.327-.732.566,0,1.119.068,1.659.206.54.138,1.059.377,1.556.72v2.52h-.334c-.189-.12-.411-.236-.669-.347-.257-.111-.531-.21-.822-.296-.292-.086-.579-.158-.862-.219-.283-.06-.544-.09-.784-.09-.532,0-1.003.12-1.414.36-.411.24-.763.566-1.054.977-.292.411-.514.883-.669,1.414-.154.532-.231,1.08-.231,1.646v6.505h-2.803v-13.114h2.495Z"/>
    <path class="cls-11" d="m320.771,193.136h2.983l-.257,6.249h-1.98l-.746-6.249Zm5.195,0h3.008l-.746,6.249h-2.006l-.257-6.249Z"/>
  </g>
  <g>
    <path class="cls-8" d="m162.513,277.181v1.903h-22.372v-1.903h22.372Zm-10.209-7.586c.36.498.853.973,1.478,1.427.626.454,1.32.862,2.083,1.222.763.36,1.564.673,2.404.939s1.654.45,2.443.552l-1.157,1.749c-.84-.154-1.655-.377-2.443-.668-.789-.291-1.539-.626-2.25-1.003-.712-.377-1.38-.788-2.006-1.234-.626-.445-1.179-.908-1.659-1.388-.497.549-1.063,1.067-1.697,1.556-.634.488-1.311.926-2.031,1.311s-1.462.72-2.224,1.003c-.763.283-1.513.484-2.25.604l-1.132-1.697c1.217-.206,2.357-.532,3.42-.977s1.988-.977,2.777-1.594c.788-.617,1.405-1.299,1.851-2.044s.66-1.513.643-2.302h2.366c.034.446-.005.879-.116,1.299-.112.42-.279.836-.501,1.247Zm-8.408,20.571v-9.257h2.211v2.803h10.697v-2.803h2.211v9.257h-15.12Zm12.934-4.628h-10.748v2.725h10.748v-2.725Z"/>
    <path class="cls-8" d="m169.765,280.009v-10.929h14.682v1.929h-12.42v7.071h12.651v1.929h-6.351v5.143h9.643v1.877h-21.857v-1.877h9.951v-5.143h-6.3Z"/>
  </g>
  <path class="cls-8" d="m251.384,268.077h7.406c1.2,0,2.408-.017,3.626-.051-.103,1.32-.424,2.571-.964,3.754-.54,1.183-1.277,2.272-2.211,3.266-.935.994-2.057,1.881-3.368,2.662-1.312.78-2.79,1.419-4.436,1.915l-1.26-1.749c2.623-.772,4.765-1.8,6.429-3.086,1.662-1.286,2.726-2.914,3.188-4.886-1.028.035-2.049.056-3.06.065-1.011.009-2.031.013-3.06.013h-2.289v-1.903Zm9.668,22.14h-8.126v-9.514h2.083v2.751h3.986v-3.009h2.057v8.306c1.457-.977,2.486-2.177,3.086-3.6.6-1.422.823-3.086.668-4.988h2.134c.017.549.008,1.067-.026,1.555-.034.489-.086.964-.154,1.427.257,1.132.746,2.194,1.466,3.188.72.994,1.62,1.834,2.7,2.52l-1.594,1.594c-.772-.583-1.449-1.222-2.032-1.916-.583-.694-1.063-1.478-1.44-2.353-.394.874-.892,1.667-1.491,2.379-.6.711-1.312,1.375-2.134,1.993l-1.183-1.003v.669Zm-2.057-1.877v-3.137h-4.012v3.137h4.012Zm12.883-14.143h-3.703v4.834h-2.212v-11.983h2.212v5.169h3.703v1.98Z"/>
  <g>
    <path class="cls-8" d="m392.728,278.029v1.903h-22.372v-1.903h22.372Zm-8.486-5.735c1.045.549,2.168,1.025,3.368,1.427,1.2.403,2.417.725,3.652.964l-1.132,1.749c-.617-.137-1.26-.308-1.929-.514-.669-.206-1.337-.446-2.006-.72-.668-.274-1.324-.566-1.967-.875-.643-.308-1.23-.634-1.762-.977-1.44.771-2.974,1.419-4.603,1.941-1.629.523-3.249.896-4.86,1.119l-1.054-1.697c1.44-.206,2.807-.489,4.101-.849,1.294-.36,2.486-.771,3.574-1.234s2.053-.964,2.893-1.504,1.534-1.084,2.083-1.633c-1.835.051-3.66.077-5.477.077h-5.194v-1.825h10.478c1.106,0,2.258-.017,3.459-.052.206-.017.343.048.411.193.068.146.06.296-.026.45-.429.737-.986,1.436-1.671,2.096-.686.66-1.466,1.281-2.34,1.864Zm5.452,13.963c0,.634-.167,1.225-.501,1.774-.335.549-.836,1.02-1.504,1.414-.669.394-1.501.707-2.494.939-.994.231-2.143.347-3.446.347-1.32,0-2.477-.116-3.471-.347-.994-.232-1.826-.545-2.494-.939-.669-.395-1.174-.866-1.517-1.414-.343-.549-.515-1.14-.515-1.774,0-1.286.673-2.335,2.019-3.15,1.346-.814,3.339-1.221,5.978-1.221s4.624.407,5.953,1.221c1.328.814,1.993,1.864,1.993,3.15Zm-2.392.026c0-.326-.09-.643-.27-.952-.18-.308-.489-.587-.926-.836-.437-.248-1.011-.45-1.723-.604-.712-.154-1.59-.231-2.636-.231-1.063,0-1.95.077-2.661.231-.712.154-1.286.356-1.723.604-.437.249-.746.527-.926.836-.18.309-.27.626-.27.952,0,.309.09.622.27.938.18.317.488.596.926.836.437.24,1.011.437,1.723.591.711.155,1.598.232,2.661.232,1.046,0,1.924-.077,2.636-.232.711-.154,1.286-.352,1.723-.591.437-.24.746-.519.926-.836.18-.317.27-.63.27-.938Z"/>
    <path class="cls-8" d="m396.405,283.866c1.508-.754,2.837-1.611,3.985-2.571,1.149-.96,2.122-1.997,2.919-3.112.797-1.114,1.436-2.284,1.916-3.51.48-1.225.805-2.481.977-3.767-1.046.035-2.083.056-3.112.064-1.028.009-2.057.013-3.086.013h-2.649v-1.903h7.637c1.2,0,2.408-.017,3.626-.051-.24,3.531-1.218,6.69-2.931,9.475-1.715,2.786-4.311,5.113-7.792,6.982l-1.491-1.62Zm22.268-5.786h-4.037v12.446h-2.211v-23.477h2.211v9.052h4.037v1.98Z"/>
  </g>
  <g>
    <path class="cls-9" d="m313.346,288.235v-2.391h3.317c0-2.074-.005-4.058-.013-5.953-.009-1.894-.013-3.878-.013-5.953-.24.154-.518.318-.836.488-.318.172-.643.339-.977.501-.335.163-.66.318-.977.463-.317.146-.587.27-.81.373h-.386v-2.443c.806-.36,1.594-.763,2.366-1.208s1.371-.883,1.8-1.311h2.649v15.043h3.137v2.391h-9.257Z"/>
    <path class="cls-9" d="m330.034,270.518c1.766,0,3.12.738,4.063,2.212s1.414,3.78,1.414,6.917c0,1.594-.12,2.953-.36,4.076s-.596,2.044-1.067,2.764c-.472.72-1.046,1.247-1.723,1.581-.678.335-1.453.501-2.327.501-.909,0-1.701-.167-2.379-.501-.677-.334-1.247-.862-1.71-1.581s-.81-1.642-1.042-2.764-.347-2.482-.347-4.076c0-3.137.463-5.443,1.388-6.917s2.289-2.212,4.089-2.212Zm0,2.263c-.874,0-1.565.57-2.07,1.71-.506,1.14-.733,2.885-.681,5.233.017.394.03.771.039,1.131.008.36.03.695.064,1.003l4.706-7.354c-.429-1.148-1.115-1.723-2.057-1.723Zm-.026,13.603c.515,0,.947-.124,1.299-.372.351-.248.63-.643.836-1.183.206-.54.355-1.234.45-2.083.094-.848.141-1.864.141-3.047,0-.463-.009-.896-.026-1.298-.017-.403-.043-.793-.077-1.17l-4.731,7.431c.377,1.149,1.08,1.723,2.108,1.723Z"/>
  </g>
  <g>
    <path class="cls-8" d="m79.493,435.74h-2.263v-4.989h-10.594v-1.903h22.346v1.903h-9.489v4.989Zm6.66,4.5h-15.814v-6.994h2.211v5.066h13.603v1.929Zm-15.788-14.066v-8.434h14.888v8.434h-14.888Zm12.626-1.877v-4.577h-10.363v4.577h10.363Z"/>
    <path class="cls-8" d="m101.813,427.229c.737,1.131,1.594,2.237,2.571,3.317.977,1.08,2.04,2.031,3.189,2.854l-1.646,1.594c-1.028-.789-1.976-1.68-2.841-2.675-.866-.994-1.676-2.057-2.43-3.188-.943,1.389-2.005,2.649-3.188,3.78-1.183,1.131-2.443,2.083-3.78,2.854l-1.569-1.492c1.371-.737,2.614-1.654,3.729-2.751,1.114-1.097,2.078-2.254,2.893-3.472.814-1.217,1.465-2.443,1.954-3.677.489-1.235.784-2.366.887-3.394-.977.034-1.933.056-2.867.064-.935.009-1.881.013-2.841.013h-2.417v-1.878h7.226c1.131,0,2.305-.017,3.523-.051-.052,1.388-.283,2.764-.695,4.127s-.977,2.687-1.697,3.973Zm13.14.9h-4.037v12.471h-2.211v-23.477h2.211v9.025h4.037v1.98Z"/>
    <path class="cls-8" d="m130.176,419.668h5.477v-2.546h2.212v11.88h-2.212v-2.854h-5.322c-.532.72-1.222,1.295-2.07,1.723-.848.429-1.796.643-2.841.643-.858,0-1.65-.141-2.379-.425-.729-.284-1.363-.671-1.903-1.16-.54-.489-.964-1.074-1.273-1.753-.309-.678-.463-1.405-.463-2.178s.154-1.499.463-2.178c.308-.679.733-1.263,1.273-1.753.54-.489,1.174-.876,1.903-1.159.728-.284,1.521-.425,2.379-.425.994,0,1.903.195,2.726.585.823.391,1.5.924,2.031,1.6Zm-8.511,3.343c0,.514.09.99.27,1.427s.433.814.758,1.131c.326.318.72.566,1.183.746s.968.27,1.517.27,1.05-.09,1.504-.27c.454-.18.848-.428,1.183-.746.334-.317.591-.694.771-1.131s.27-.913.27-1.427-.09-.99-.27-1.427-.437-.81-.771-1.119c-.335-.308-.729-.552-1.183-.732-.454-.18-.956-.27-1.504-.27s-1.05.09-1.504.27c-.454.18-.848.424-1.183.732-.334.309-.591.681-.771,1.119s-.27.913-.27,1.427Zm16.714,17.332h-15.274v-5.889h12.574v-2.263h-12.574v-1.851h14.76v5.914h-12.574v2.211h13.088v1.878Zm-7.2-15.994h4.5v-2.906h-4.577c.155.498.231,1.02.231,1.569,0,.463-.051.909-.154,1.337Z"/>
    <path class="cls-8" d="m166.639,431.42v-2.185h-10.003v-1.774h22.346v1.774h-10.08v2.185h6.505v5.374h-12.986v1.98h13.603v1.826h-15.789v-5.529h12.986v-1.825h-12.986v-1.826h6.403Zm-6.48-11.726h10.376c1.071,0,2.199-.017,3.382-.052.188.018.321.107.398.27.077.163.073.313-.013.45-.343.566-.848,1.115-1.517,1.646-.668.532-1.457,1.038-2.366,1.517,2.022.652,4.251,1.149,6.685,1.492l-1.028,1.62c-1.337-.206-2.661-.493-3.973-.862-1.311-.368-2.558-.793-3.741-1.273-1.406.583-2.884,1.063-4.436,1.44s-3.021.634-4.41.771l-.926-1.594c1.286-.12,2.541-.309,3.767-.566,1.225-.257,2.379-.557,3.458-.9,1.08-.343,2.057-.711,2.931-1.106.874-.394,1.611-.797,2.211-1.208-.96.034-1.912.06-2.854.077-.943.017-1.886.026-2.828.026h-5.117v-1.749Zm3.034-2.88h8.332v1.774h-8.332v-1.774Z"/>
    <path class="cls-8" d="m186.13,428.591h2.211c.994,0,1.916-.026,2.764-.077.849-.052,1.646-.12,2.391-.206s1.453-.189,2.121-.309c.669-.12,1.312-.248,1.929-.386v1.826c-1.32.308-2.799.557-4.435.746-1.637.189-3.33.283-5.079.283h-4.166v-7.302h7.74v-3.343h-7.792v-1.851h10.003v6.994h-7.688v3.626Zm13.808,12.085v-5.991h-12.96v-1.929h15.172v7.92h-2.212Zm-3.909-18.54v-1.8h3.909v-3.214h2.212v14.297h-2.212v-5.297h-3.909v-1.826h3.934v-2.16h-3.934Z"/>
  </g>
  <g>
    <path class="cls-11" d="m243.628,418.553h2.983l-.257,6.249h-1.98l-.746-6.249Zm5.195,0h3.008l-.746,6.249h-2.006l-.257-6.249Z"/>
    <path class="cls-9" d="m254.943,433.622h.411c.805.566,1.624.994,2.456,1.286.831.291,1.607.437,2.327.437.977,0,1.727-.193,2.25-.578.523-.386.784-1.033.784-1.942,0-.634-.253-1.212-.759-1.736-.506-.523-1.136-.955-1.89-1.298-.874-.411-1.637-.81-2.289-1.196s-1.191-.789-1.62-1.209c-.428-.42-.75-.878-.964-1.375s-.321-1.063-.321-1.698c0-.771.146-1.439.437-2.005.291-.566.69-1.033,1.196-1.401.505-.369,1.088-.643,1.749-.823.66-.18,1.358-.27,2.095-.27.755,0,1.53.077,2.327.232.797.154,1.538.48,2.224.977v2.495h-.437c-.6-.394-1.264-.695-1.993-.9-.729-.206-1.419-.309-2.07-.309-.823,0-1.453.15-1.89.45-.437.3-.656.793-.656,1.478,0,.634.21,1.144.63,1.53.42.386.938.707,1.556.964,1.063.446,1.963.887,2.7,1.324.737.437,1.332.892,1.787,1.363.454.472.78.973.977,1.504.197.532.296,1.115.296,1.749,0,1.783-.544,3.099-1.633,3.948-1.089.848-2.602,1.273-4.539,1.273-.994,0-1.92-.141-2.777-.424s-1.646-.664-2.366-1.144v-2.7Z"/>
    <path class="cls-9" d="m278.24,434.855v2.134c-.411.292-.887.501-1.427.63-.54.128-1.059.192-1.556.192-1.251,0-2.246-.304-2.983-.913-.737-.608-1.106-1.564-1.106-2.867v-7.302h-2.597v-2.289h2.597v-3.24l2.803-1.337v4.577h4.089v2.289h-4.089v7.097c0,1.097.6,1.646,1.8,1.646.428,0,.819-.064,1.17-.193.351-.128.673-.27.964-.424h.334Z"/>
    <path class="cls-9" d="m286.34,437.89c-1.063,0-1.951-.18-2.661-.54-.712-.36-1.278-.848-1.697-1.466-.42-.617-.716-1.341-.887-2.173-.172-.831-.257-1.727-.257-2.687s.09-1.856.27-2.687.479-1.556.9-2.173c.42-.617.981-1.106,1.684-1.466.703-.36,1.585-.54,2.649-.54,1.028,0,1.89.18,2.584.54s1.256.849,1.684,1.466c.428.617.737,1.346.926,2.185.188.84.283,1.732.283,2.675,0,.96-.09,1.856-.27,2.687-.18.832-.48,1.556-.9,2.173-.42.617-.981,1.106-1.684,1.466-.703.36-1.577.54-2.623.54Zm0-2.16c.926,0,1.602-.42,2.031-1.26.428-.84.643-1.988.643-3.446,0-1.474-.215-2.627-.643-3.459-.429-.831-1.106-1.247-2.031-1.247-.96,0-1.65.416-2.07,1.247-.42.832-.63,1.985-.63,3.459,0,1.457.21,2.606.63,3.446s1.11,1.26,2.07,1.26Z"/>
    <path class="cls-9" d="m299.891,437.838c-.532,0-1.046-.154-1.543-.463s-.926-.78-1.286-1.414v5.966h-2.777v-17.485h2.546l.103,1.697c.137-.342.321-.638.553-.887.231-.248.48-.458.746-.63.265-.172.54-.296.822-.373.283-.077.544-.116.785-.116.977,0,1.774.189,2.391.566.617.377,1.101.887,1.453,1.53.351.643.591,1.38.72,2.211s.193,1.71.193,2.636c0,.806-.077,1.612-.231,2.417-.154.806-.416,1.53-.784,2.173-.369.643-.853,1.166-1.453,1.569-.6.403-1.346.604-2.237.604Zm-2.829-5.657c0,.411.03.823.09,1.234.06.411.176.78.347,1.106.171.326.403.588.694.784.291.197.668.296,1.131.296.72,0,1.312-.364,1.774-1.093s.694-1.898.694-3.51c0-.874-.048-1.602-.141-2.186-.094-.583-.24-1.05-.437-1.401-.197-.351-.446-.6-.746-.746-.3-.146-.656-.219-1.067-.219-.652,0-1.205.3-1.659.9-.454.6-.681,1.406-.681,2.418v2.417Z"/>
    <path class="cls-11" d="m307.914,418.553h2.983l-.257,6.249h-1.98l-.746-6.249Zm5.195,0h3.008l-.746,6.249h-2.006l-.257-6.249Z"/>
  </g>
  <g>
    <path class="cls-8" d="m57.926,357.025c0,1.374-.155,2.588-.464,3.644-.309,1.056-.73,1.936-1.262,2.64-.533.704-1.164,1.236-1.894,1.596-.731.361-1.516.541-2.358.541s-1.628-.18-2.358-.541c-.73-.36-1.366-.892-1.907-1.596s-.966-1.584-1.276-2.64-.464-2.27-.464-3.644.154-2.584.464-3.632c.309-1.047.734-1.923,1.276-2.627s1.177-1.236,1.907-1.597c.73-.36,1.516-.541,2.358-.541s1.628.181,2.358.541c.73.361,1.361.893,1.894,1.597.532.704.953,1.58,1.262,2.627.309,1.048.464,2.258.464,3.632Zm-2.263,0c0-.958-.082-1.83-.244-2.618-.163-.787-.403-1.462-.72-2.027-.317-.564-.707-1.001-1.17-1.308-.463-.308-.994-.462-1.594-.462s-1.132.154-1.594.462c-.463.308-.853.744-1.17,1.308-.318.565-.557,1.241-.72,2.027-.163.787-.244,1.66-.244,2.618s.081,1.831.244,2.618c.163.787.403,1.463.72,2.027.317.565.707,1.005,1.17,1.322s.994.475,1.594.475,1.132-.158,1.594-.475.853-.757,1.17-1.322.557-1.241.72-2.027c.163-.787.244-1.66.244-2.618Zm12.137.964h-4.037v12.78h-2.211v-23.477h2.211v8.717h4.037v1.98Z"/>
    <path class="cls-8" d="m78.42,364.007h-5.734v-15.017h2.263v13.037h3.78c1.731,0,3.317-.111,4.757-.334,1.44-.223,2.614-.437,3.523-.643v1.929c-.498.137-1.08.266-1.749.386-.669.12-1.38.228-2.134.321-.755.095-1.534.172-2.34.231-.806.06-1.594.09-2.366.09Zm10.08-16.714h2.212v23.477h-2.212v-23.477Z"/>
    <path class="cls-8" d="m109.123,350.893h5.091v-3.6h2.212v16.92h-2.212v-6.609h-5.091v2.571h-10.852v-11.649h10.852v2.366Zm-2.109,7.38v-7.868h-6.48v7.868h6.48Zm9.926,12.034h-15.197v-6.994h2.263v5.066h12.934v1.929Zm-7.817-14.58h5.117v-2.983h-5.117v2.983Z"/>
  </g>
  <g>
    <path class="cls-8" d="m57.129,124.944h-10.646v-11.314h10.646v11.314Zm-2.16-1.903v-7.534h-6.3v7.534h6.3Zm9.437,12.368h-14.683v-7.2h2.263v5.271h12.42v1.929Zm3.188-14.528h-3.703v8.434h-2.212v-16.894h2.212v6.48h3.703v1.98Z"/>
    <path class="cls-8" d="m71.606,118.812c0-.842.15-1.619.45-2.332.3-.713.72-1.336,1.26-1.868.54-.533,1.17-.95,1.89-1.25s1.508-.451,2.366-.451,1.65.151,2.379.451,1.363.717,1.903,1.25c.54.533.964,1.156,1.273,1.868.309.712.463,1.49.463,2.332s-.154,1.623-.463,2.345c-.308.722-.733,1.344-1.273,1.868-.54.524-1.174.936-1.903,1.237s-1.521.451-2.379.451-1.645-.15-2.366-.451-1.35-.713-1.89-1.237-.96-1.147-1.26-1.868c-.3-.722-.45-1.503-.45-2.345Zm2.185,0c0,.564.09,1.085.27,1.563.18.479.437.893.772,1.243s.733.624,1.196.821c.463.196.977.294,1.543.294s1.08-.098,1.543-.294c.463-.197.865-.47,1.208-.821.343-.35.608-.765.797-1.243.188-.478.283-.999.283-1.563s-.095-1.085-.283-1.563c-.189-.478-.455-.893-.797-1.243-.343-.35-.746-.624-1.208-.82-.463-.197-.977-.295-1.543-.295-.549,0-1.054.099-1.517.295-.463.196-.861.469-1.196.82-.334.35-.596.765-.784,1.243-.189.479-.283,1-.283,1.563Zm13.603,17.138v-6.686h-12.703v-1.903h14.914v8.589h-2.212Zm2.212-20.391h3.6v1.903h-3.626v3.06h3.626v1.903h-3.6v3.6h-2.212v-13.629h2.212v3.163Z"/>
  </g>
  <g>
    <path class="cls-8" d="m510.421,122.129c0,1.374-.155,2.588-.464,3.644s-.734,1.936-1.276,2.64c-.541.704-1.181,1.236-1.92,1.596-.739.361-1.529.541-2.371.541s-1.628-.18-2.358-.541c-.73-.36-1.37-.892-1.92-1.596-.55-.704-.984-1.584-1.302-2.64-.318-1.056-.476-2.27-.476-3.644s.159-2.584.476-3.632c.318-1.047.752-1.923,1.302-2.627s1.19-1.236,1.92-1.597c.73-.36,1.516-.541,2.358-.541s1.632.18,2.371.541c.738.361,1.378.893,1.92,1.597s.966,1.58,1.276,2.627c.309,1.048.464,2.258.464,3.632Zm-2.263,0c0-.958-.086-1.83-.257-2.618-.172-.787-.416-1.462-.733-2.027-.317-.564-.712-1.001-1.183-1.309-.472-.308-1.008-.462-1.607-.462s-1.136.155-1.607.462c-.472.308-.866.744-1.183,1.309-.318.565-.562,1.241-.733,2.027-.172.787-.257,1.66-.257,2.618s.086,1.831.257,2.618c.171.787.415,1.463.733,2.027.317.565.711,1.005,1.183,1.322.471.316,1.007.474,1.607.474s1.135-.158,1.607-.474c.471-.317.865-.757,1.183-1.322.317-.564.561-1.24.733-2.027.171-.787.257-1.66.257-2.618Zm6.685-9.733h2.212v23.477h-2.212v-23.477Z"/>
    <path class="cls-8" d="m535.467,115.996h5.091v-3.6h2.212v16.92h-2.212v-6.608h-5.091v2.571h-10.852v-11.649h10.852v2.366Zm-2.109,7.38v-7.868h-6.48v7.868h6.48Zm9.926,12.034h-15.197v-6.994h2.263v5.066h12.934v1.929Zm-7.817-14.58h5.117v-2.983h-5.117v2.983Z"/>
  </g>
  <g>
    <path class="cls-9" d="m395.502,130.833c-.977,0-1.856-.099-2.636-.296-.78-.197-1.504-.467-2.173-.81v-2.391h.309c.325.189.681.356,1.067.501.386.146.78.266,1.183.36.403.094.797.163,1.183.206.386.043.741.064,1.067.064.428,0,.831-.073,1.208-.218.377-.146.703-.338.977-.579.274-.24.489-.527.643-.862.155-.334.231-.698.231-1.093,0-2.074-1.097-3.112-3.291-3.112h-1.672v-2.186h1.466c.445-.017.857-.077,1.234-.18.377-.103.707-.265.99-.488.283-.223.501-.51.656-.862.154-.351.231-.793.231-1.324,0-.428-.069-.797-.206-1.106s-.321-.566-.553-.772c-.231-.206-.493-.355-.784-.45-.292-.094-.6-.141-.926-.141-.257,0-.557.022-.9.065s-.698.107-1.067.193c-.369.086-.733.193-1.093.321-.36.129-.677.279-.951.45h-.309v-2.186c1.234-.788,2.64-1.183,4.217-1.183.72,0,1.414.086,2.083.257.669.172,1.256.446,1.762.823.505.377.908.866,1.208,1.466.3.6.45,1.32.45,2.16,0,.909-.24,1.706-.72,2.391-.48.686-1.063,1.208-1.749,1.569.772.343,1.436.857,1.993,1.543s.836,1.577.836,2.674c0,.84-.15,1.581-.45,2.224-.3.643-.716,1.183-1.247,1.62-.532.437-1.162.771-1.89,1.003s-1.521.347-2.378.347Z"/>
    <path class="cls-9" d="m408.976,112.807c1.766,0,3.12.738,4.063,2.212s1.414,3.78,1.414,6.917c0,1.594-.12,2.953-.36,4.076-.24,1.123-.596,2.044-1.067,2.764-.472.72-1.046,1.247-1.723,1.582-.678.334-1.453.501-2.327.501-.909,0-1.701-.167-2.379-.501-.677-.335-1.247-.862-1.71-1.582-.463-.72-.81-1.641-1.042-2.764-.231-1.123-.347-2.481-.347-4.076,0-3.137.463-5.443,1.388-6.917s2.289-2.212,4.089-2.212Zm0,2.263c-.874,0-1.565.57-2.07,1.71-.506,1.14-.733,2.884-.681,5.233.017.394.03.772.039,1.132.008.36.03.694.064,1.003l4.706-7.354c-.429-1.148-1.115-1.723-2.057-1.723Zm-.026,13.603c.515,0,.947-.124,1.299-.373.351-.248.63-.643.836-1.183.206-.54.355-1.234.45-2.083.094-.849.141-1.864.141-3.047,0-.463-.009-.896-.026-1.298-.017-.403-.043-.793-.077-1.17l-4.731,7.431c.377,1.149,1.08,1.723,2.108,1.723Z"/>
    <path class="cls-9" d="m421.833,112.807c1.766,0,3.12.738,4.063,2.212s1.414,3.78,1.414,6.917c0,1.594-.12,2.953-.36,4.076-.24,1.123-.596,2.044-1.067,2.764-.472.72-1.046,1.247-1.723,1.582-.678.334-1.453.501-2.327.501-.909,0-1.701-.167-2.379-.501-.677-.335-1.247-.862-1.71-1.582-.463-.72-.81-1.641-1.042-2.764-.231-1.123-.347-2.481-.347-4.076,0-3.137.463-5.443,1.388-6.917s2.289-2.212,4.089-2.212Zm0,2.263c-.874,0-1.565.57-2.07,1.71-.506,1.14-.733,2.884-.681,5.233.017.394.03.772.039,1.132.008.36.03.694.064,1.003l4.706-7.354c-.429-1.148-1.115-1.723-2.057-1.723Zm-.026,13.603c.515,0,.947-.124,1.299-.373.351-.248.63-.643.836-1.183.206-.54.355-1.234.45-2.083.094-.849.141-1.864.141-3.047,0-.463-.009-.896-.026-1.298-.017-.403-.043-.793-.077-1.17l-4.731,7.431c.377,1.149,1.08,1.723,2.108,1.723Z"/>
  </g>
  <g>
    <path class="cls-8" d="m194.468,119.99v1.903h-22.372v-1.903h22.372Zm-10.209-7.586c.36.497.853.973,1.478,1.427.626.454,1.32.862,2.083,1.222.763.36,1.564.673,2.404.938.84.266,1.654.45,2.443.553l-1.157,1.749c-.84-.154-1.655-.377-2.443-.668-.789-.291-1.539-.626-2.25-1.003-.712-.377-1.38-.789-2.006-1.234s-1.179-.909-1.659-1.388c-.497.549-1.063,1.067-1.697,1.555-.634.489-1.311.926-2.031,1.312s-1.462.72-2.224,1.003c-.763.283-1.513.484-2.25.604l-1.132-1.697c1.217-.206,2.357-.531,3.42-.977s1.988-.977,2.777-1.594c.788-.617,1.405-1.298,1.851-2.044.446-.746.66-1.513.643-2.302h2.366c.034.446-.005.879-.116,1.299-.112.42-.279.836-.501,1.247Zm-8.408,20.571v-9.257h2.211v2.803h10.697v-2.803h2.211v9.257h-15.12Zm12.934-4.629h-10.748v2.726h10.748v-2.726Z"/>
    <path class="cls-8" d="m201.719,122.819v-10.929h14.682v1.929h-12.42v7.071h12.651v1.929h-6.351v5.143h9.643v1.877h-21.857v-1.877h9.951v-5.143h-6.3Z"/>
  </g>
  <path class="cls-8" d="m315.599,129.987h-3.088l-9.353-9.056,9.175-8.343h3.028v.356l-8.848,7.957,9.085,8.729v.356Z"/>
</svg>