<?xml version="1.0" encoding="UTF-8"?>
<svg id="_레이어_2" data-name="레이어 2" xmlns="http://www.w3.org/2000/svg" viewBox="0 0 297.75 69">
  <defs>
    <style>
      .cls-1 {
        fill: #1e90ff;
      }

      .cls-1, .cls-2 {
        stroke-width: 0px;
      }

      .cls-2, .cls-3 {
        fill: #fff;
      }

      .cls-3 {
        font-family: D2Coding, D2Coding;
        font-size: 26.581px;
      }
    </style>
  </defs>
  <rect class="cls-1" width="297.75" height="69"/>
  <g>
    <text class="cls-3" transform="translate(80.488 45.938)"><tspan x="0" y="0">기본</tspan></text>
    <g>
      <rect class="cls-2" x="15.956" y="19.048" width="11.565" height="9.774" rx="1.355" ry="1.355"/>
      <rect class="cls-2" x="29.94" y="19.048" width="11.565" height="9.774" rx="1.355" ry="1.355"/>
      <rect class="cls-2" x="43.923" y="19.048" width="11.565" height="9.774" rx="1.355" ry="1.355"/>
      <rect class="cls-2" x="15.956" y="31.097" width="11.565" height="9.774" rx="1.355" ry="1.355"/>
      <rect class="cls-2" x="29.94" y="31.097" width="11.565" height="9.774" rx="1.355" ry="1.355"/>
      <rect class="cls-2" x="43.923" y="31.097" width="11.565" height="9.774" rx="1.355" ry="1.355"/>
      <rect class="cls-2" x="15.956" y="43.145" width="11.565" height="9.774" rx="1.355" ry="1.355"/>
      <rect class="cls-2" x="29.94" y="43.145" width="11.565" height="9.774" rx="1.355" ry="1.355"/>
      <rect class="cls-2" x="43.923" y="43.145" width="11.565" height="9.774" rx="1.355" ry="1.355"/>
    </g>
  </g>
</svg>