<?xml version="1.0" encoding="UTF-8"?>
<svg id="_레이어_1" data-name="레이어 1" xmlns="http://www.w3.org/2000/svg" viewBox="0 0 837 304">
  <defs>
    <style>
      .cls-1, .cls-2, .cls-3, .cls-4, .cls-5, .cls-6, .cls-7, .cls-8, .cls-9, .cls-10, .cls-11 {
        stroke-width: 0px;
      }

      .cls-1, .cls-12, .cls-13 {
        fill: #fefefe;
      }

      .cls-2 {
        fill: #dc47d7;
      }

      .cls-3 {
        fill: #fefdfe;
      }

      .cls-12 {
        font-size: 25.968px;
      }

      .cls-12, .cls-14, .cls-13 {
        font-family: Pretendard-SemiBold-KSCpc-EUC-H, Pretendard;
        font-weight: 600;
      }

      .cls-14, .cls-13 {
        font-size: 21.973px;
      }

      .cls-4 {
        fill: #b719b2;
      }

      .cls-5 {
        fill: #fafdfa;
      }

      .cls-6 {
        fill: #f577f1;
      }

      .cls-7 {
        fill: #fedd81;
      }

      .cls-15 {
        letter-spacing: -.022em;
      }

      .cls-8 {
        fill: #f677f2;
      }

      .cls-9 {
        fill: #fe9b00;
      }

      .cls-10 {
        fill: #00b300;
      }

      .cls-11 {
        fill: #009300;
      }
    </style>
  </defs>
  <path class="cls-4" d="m320.218,66.08c.78.018,1.56.053,2.34.053,114.129.002,228.258.003,342.387.002,10.213,0,18.476,3.911,24.562,12.179,9.067,12.318,6.43,30.403-5.749,39.695-5.458,4.164-11.571,6.295-18.458,6.195-2.43-.035-172.359-.006-174.835.122,3.099,1.556,6.015,3.321,8.467,5.755,8.407,8.342,11.317,18.345,7.838,29.607-3.56,11.524-11.774,18.234-23.745,20.294-1.777.306-3.552.274-5.331.274-198.485.005-229.472.007-427.957-.031-1.586,0-2.684.442-3.769,1.571-3.125,3.251-6.389,6.368-9.54,9.594-.951.974-1.627,1.014-2.6.021-3.625-3.697-7.294-7.353-11.001-10.969-.751-.732-.76-1.526-.76-2.421.005-36.037.005-72.075.002-108.112,0-.722-.035-1.444-.053-2.165-.452-1.009-.162-1.65.939-1.893,1.173.042,1.908.839,2.658,1.578,2.658,2.618,5.279,5.273,7.935,7.894,1.448,1.429,1.679,1.434,3.114.024,2.661-2.615,5.309-5.244,7.922-7.906,1.252-1.275,2.677-1.945,4.473-1.837.611.037,1.226.003,1.839.003,86.809-.004,173.619.007,260.428-.006.279,0,.558-.004.836.027,1.89.088,3.779-.012,5.668-.019.817-.003,1.684-.14,2.391.469Z"/>
  <path class="cls-11" d="m320.218,66.08h-8.083c.277-.923,1.135-.767,1.786-.9,8.829-1.817,15.28-6.694,19.268-14.788,5.735-11.64,1.46-26.568-9.564-33.506-4.663-2.934-9.734-4.321-15.223-4.32-82.018.003-164.035-.006-246.053.04-2.482.001-4.346-.645-6.294-2.301C44.722.669,27.831-.454,15.002,9.518,2.898,18.927-.947,35.453,5.702,49.208c3.244,6.711,8.233,11.827,14.961,15.197.795.398,1.87.553,2.075,1.706-.654.363-.69.998-.722,1.635C8.393,62.268-.426,48.766.016,34.064.456,19.399,9.996,6.287,24.082,1.862c12.753-4.006,24.415-1.549,34.511,7.378.874.773,1.729.836,2.732.836,82.396-.004,164.791-.002,247.187-.006,9.767,0,17.731,3.747,23.747,11.429,11.18,14.277,6.077,35.795-10.303,43.645-.593.284-1.159.623-1.738.936Z"/>
  <path class="cls-2" d="m24.346,125.899c3.072,3.083,6.015,6.04,8.964,8.992q1.802,1.804,3.56.057c3.274-3.262,6.563-6.51,9.805-9.802.681-.691,1.38-1.079,2.351-.952.274.036.557.005.836.005,198.593,0,229.687.007,428.279-.025,7.81-.001,14.545,2.571,20.039,7.958,4.741,4.649,7.359,10.415,7.806,17.16.443,6.704-1.233,12.733-5.287,18.045-4.611,6.042-10.641,9.713-18.316,10.64-2.342.283-4.662.271-6.992.271-197.979.012-228.459.013-426.438-.023-1.643,0-2.801.459-3.927,1.636-2.924,3.058-5.987,5.982-8.951,9.002-.698.711-1.148.785-1.885.032-3.078-3.142-6.208-6.233-9.334-9.329-.499-.494-.792-1-.792-1.743.019-17.128.016-34.257.024-51.385,0-.091.083-.182.257-.539Z"/>
  <path class="cls-2" d="m24.181,69.701c3.334,3.333,6.444,6.36,9.449,9.489,1.138,1.185,1.907,1.099,3.01-.037,3.295-3.397,6.698-6.689,10.021-10.06.678-.688,1.372-1.097,2.347-.961.219.03.445.004.668.004,205.074,0,410.148,0,615.222-.002,11.034,0,19.459,4.758,24.802,14.291,3.994,7.126,4.405,14.853,1.372,22.487-3.393,8.539-9.688,14.047-18.62,16.421-2.467.656-5.009.877-7.582.877-205.297-.015-410.593-.012-615.89-.044-1.62,0-2.806.394-3.942,1.594-2.833,2.99-5.837,5.818-8.707,8.774-.861.887-1.393,1.095-2.367.077-2.925-3.057-5.959-6.01-8.97-8.984-.58-.573-.937-1.141-.936-2.018.025-16.963.018-33.926.021-50.888,0-.207.039-.414.1-1.02Z"/>
  <path class="cls-10" d="m22.738,66.111c-2.483-1.564-5.207-2.7-7.545-4.539-7.317-5.757-11.685-13.128-12.89-22.394-1.096-8.428.862-16.128,5.714-22.973C13.606,8.318,21.291,3.603,31.004,2.386c9.442-1.183,17.929,1.287,25.111,7.343,2.314,1.951,4.447,2.375,7.174,2.374,81.903-.036,163.807-.03,245.71-.029,13.078,0,24.472,9.264,26.803,22.032,2.816,15.423-7.769,29.781-23.075,31.714-.205.026-.396.169-.593.258-.891.019-1.782.053-2.673.053-86.859.003-173.717.006-260.576-.029-1.52,0-2.594.413-3.643,1.507-2.966,3.094-6.073,6.053-9.063,9.125-.789.81-1.251.906-2.093.038-3.14-3.236-6.364-6.392-9.56-9.574-.507-.505-.955-1.115-1.79-1.088Z"/>
  <path class="cls-4" d="m455.079,151.174c-.383-11.52,9.575-22.186,22.325-21.974,11.666.193,21.703,9.485,21.749,22.002.045,12.32-10.054,22.342-22.696,22.054-11.931-.272-21.761-10.368-21.378-22.082Z"/>
  <path class="cls-4" d="m685.828,95.309c.233,11.585-9.582,22.182-22.586,21.876-11.359-.267-21.519-9.438-21.505-22.076.014-12.565,10.425-22.25,22.625-21.966,11.967.278,21.782,10.196,21.466,22.167Z"/>
  <path class="cls-9" d="m199.362,116.19c-42.595,0-85.19.005-127.785-.004-10.17-.002-18.671-6.663-20.916-16.334-3.01-12.969,6.932-25.595,20.294-25.696,8.474-.064,16.949-.013,25.423-.013,76.827,0,153.655.002,230.482-.003,9.105,0,15.711,4.171,19.688,12.189,6.039,12.174-1.973,27.324-15.414,29.537-1.55.255-3.095.327-4.657.327-42.372-.004-84.744-.003-127.116-.003Z"/>
  <path class="cls-1" d="m35.103,63.121c-15.477-.004-28.07-12.56-28.077-27.994-.007-15.52,12.607-28.07,28.191-28.047,15.448.022,28.007,12.619,27.993,28.078-.014,15.424-12.622,27.968-28.107,27.964Z"/>
  <path class="cls-8" d="m476.811,141.223c3.972.048,6.604,2.13,7.168,5.529.235,1.419-.185,2.64-1.127,3.666-.864.942-1.773,1.852-2.73,2.699-1.025.907-1.868,1.889-2.144,3.276-.232,1.165-.936,1.73-2.155,1.538-1.231-.194-1.333-1.073-1.385-2.101-.103-2.066,1.042-3.436,2.43-4.703.657-.599,1.395-1.121,1.982-1.78,1.412-1.586,1.314-3.281-.17-4.339-1.397-.995-3.887-.624-4.787.785-.444.695-.76,1.481-1.061,2.254-.461,1.185-1.382,1.376-2.45,1.153-1.088-.227-1.328-1.053-1.253-2.04.193-2.568,1.812-4.11,3.934-5.156,1.186-.585,2.527-.864,3.747-.782Z"/>
  <path class="cls-6" d="m476.328,163.907c-1.319,0-2.19-.877-2.179-2.194.011-1.352.827-2.154,2.191-2.153,1.361,0,2.176.809,2.183,2.164.006,1.298-.885,2.184-2.195,2.183Z"/>
  <path class="cls-8" d="m664.1,85.159c1.42.066,3.282.498,4.795,1.902,2.463,2.287,2.614,5.31.341,7.803-.823.902-1.728,1.733-2.634,2.555-.847.768-1.497,1.639-1.723,2.776-.285,1.436-1.202,2.015-2.551,1.622-1.294-.377-1.297-1.57-1.154-2.618.299-2.2,1.859-3.588,3.426-4.946.334-.289.717-.536.999-.869,1.486-1.756,1.36-3.396-.321-4.531-1.47-.993-3.897-.403-4.808,1.207-.326.576-.531,1.219-.815,1.821-.523,1.109-1.419,1.648-2.58,1.202-1.144-.44-1.404-1.349-1.1-2.589.769-3.127,3.805-5.332,8.122-5.336Z"/>
  <path class="cls-6" d="m663.074,107.845c-1.27-.012-2.113-.923-2.058-2.255.054-1.309.741-2.042,2.063-2.093,1.32-.051,2.369.999,2.32,2.264-.048,1.224-1.02,2.095-2.324,2.083Z"/>
  <path class="cls-7" d="m199.478,76.146c42.54,0,85.081-.003,127.621.003,9.344.001,16.697,5.767,18.914,14.789,2.597,10.568-4.705,21.343-15.531,22.987-1.222.186-2.431.262-3.655.262-85.025,0-170.05.002-255.076,0-11.649,0-20.053-8.787-19.549-20.411.36-8.31,7.472-16.138,15.666-17.341,1.445-.212,2.875-.287,4.322-.287,42.429-.001,84.858,0,127.287,0Z"/>
  <path class="cls-10" d="m23.856,33.674c.099-1.894-.183-4.231.152-6.554.71-4.931,4.656-8.557,9.626-8.788,1.609-.075,3.235-.154,4.822.233,4.692,1.145,7.829,5.103,7.912,10.081.06,3.609.045,7.221.006,10.831-.07,6.414-4.58,10.603-11.357,10.598-6.62-.005-11.081-4.25-11.158-10.634-.021-1.777-.003-3.555-.003-5.767Z"/>
  <path class="cls-5" d="m33.185,27.534c.035-.716.008-1.44.123-2.141.154-.936.825-1.463,1.736-1.491.989-.03,1.793.497,1.874,1.507.118,1.476.107,2.974-.004,4.451-.07.928-.81,1.467-1.722,1.497-.995.033-1.71-.517-1.884-1.515-.131-.753-.088-1.537-.124-2.308Z"/>
  <text class="cls-12" transform="translate(74.277 47.195)"><tspan x="0" y="0">오브젝트를 클릭했을 때</tspan></text>
  <text class="cls-14" transform="translate(64.988 102.352)"><tspan x="0" y="0">바꿀 항목 번호를 입력하세요</tspan><tspan class="cls-15" x="243.523" y="0">.</tspan></text>
  <path class="cls-4" d="m689.507,190.174c-6.086-8.268-14.349-12.18-24.562-12.179l-614.048.473c-.613,0-1.229.034-1.839-.003-1.796-.109-3.221.562-4.473,1.837-2.613,2.662-5.261,5.291-7.922,7.906-1.435,1.41-1.666,1.405-3.114-.024-2.656-2.62-5.277-5.276-7.935-7.894-.75-.739-1.485-1.536-2.658-1.577-1.102.242-1.392-.115-.939.894.019.722.053,1.444.053,2.165.003,36.037.003,72.075-.002,108.112,0,.894.009,1.688.76,2.421,3.707,3.616,7.376,7.272,11.001,10.969.973.993,1.649.953,2.6-.021,3.151-3.227,6.415-6.343,9.54-9.594,1.085-1.129,2.184-1.571,3.769-1.571,198.485.038,558.263.036,756.748.031,1.779,0,3.554.031,5.331-.274,11.971-2.059,20.185-8.769,23.745-20.294,3.479-11.262.569-21.265-7.838-29.607-2.452-2.433-9.229-7.52-18.856-7.52-6.7,0-12.356-.04-15.626-.051-14.91-.053-66.395-.002-64.403.027,3.699.053-53.094,0-53.093,0,2.198-.81,5.486-2.6,8.012-4.528,12.179-9.292,14.816-27.377,5.749-39.695Z"/>
  <path class="cls-2" d="m24.346,237.76c3.072,3.083,6.015,6.04,8.964,8.992q1.802,1.804,3.56.057c3.274-3.262,6.563-6.51,9.805-9.802.681-.691,1.38-1.079,2.351-.952.274.036.557.005.836.005,198.593,0,558.478.007,757.07-.025,7.81-.001,14.545,2.571,20.039,7.958,4.741,4.649,7.359,10.415,7.806,17.16.443,6.704-1.233,12.733-5.287,18.045-4.611,6.042-10.641,9.713-18.316,10.64-2.342.283-4.662.271-6.992.271-197.979.012-557.25.013-755.229-.023-1.643,0-2.801.459-3.927,1.636-2.924,3.058-5.987,5.982-8.951,9.002-.698.711-1.148.785-1.885.032-3.078-3.142-6.208-6.233-9.334-9.329-.499-.494-.792-1-.792-1.743.019-17.128.016-34.257.024-51.385,0-.091.083-.182.257-.539Z"/>
  <path class="cls-2" d="m24.181,181.561c3.334,3.333,6.444,6.36,9.449,9.489,1.138,1.185,1.907,1.099,3.01-.037,3.295-3.397,6.698-6.689,10.021-10.06.678-.688,1.372-1.097,2.347-.961.219.03.445.004.668.004,205.074,0,410.148,0,615.222-.002,11.034,0,19.459,4.758,24.802,14.291,3.994,7.126,4.405,14.853,1.372,22.487-3.393,8.539-9.688,14.047-18.62,16.421-2.467.656-5.009.877-7.582.877-205.297-.015-410.593-.012-615.89-.044-1.62,0-2.806.394-3.942,1.594-2.833,2.99-5.837,5.818-8.707,8.774-.861.887-1.393,1.095-2.367.077-2.925-3.057-5.959-6.01-8.97-8.984-.58-.573-.937-1.141-.936-2.018.025-16.963.018-33.926.021-50.888,0-.207.039-.414.1-1.02Z"/>
  <path class="cls-4" d="m783.87,263.035c-.383-11.52,9.575-22.186,22.325-21.974,11.666.193,21.703,9.485,21.749,22.002.045,12.32-10.054,22.342-22.696,22.054-11.931-.272-21.761-10.368-21.378-22.082Z"/>
  <path class="cls-4" d="m685.828,207.169c.233,11.585-9.582,22.182-22.586,21.876-11.359-.267-21.519-9.438-21.505-22.076.014-12.565,10.425-22.25,22.625-21.966,11.967.278,21.782,10.196,21.466,22.167Z"/>
  <path class="cls-9" d="m199.362,228.051c-42.595,0-85.19.005-127.785-.004-10.17-.002-18.671-6.663-20.916-16.334-3.01-12.969,6.932-25.595,20.294-25.696,8.474-.064,16.949-.013,25.423-.013,76.827,0,153.655.002,230.482-.003,9.105,0,15.711,4.171,19.688,12.189,6.039,12.174-1.973,27.324-15.414,29.537-1.55.255-3.095.327-4.657.327-42.372-.004-84.744-.003-127.116-.003Z"/>
  <path class="cls-8" d="m805.602,253.083c3.972.048,6.604,2.13,7.168,5.529.235,1.419-.185,2.64-1.127,3.666-.864.942-1.773,1.852-2.73,2.699-1.025.907-1.868,1.889-2.144,3.276-.232,1.165-.936,1.73-2.155,1.538-1.231-.194-1.333-1.073-1.385-2.101-.103-2.066,1.042-3.436,2.43-4.703.657-.599,1.395-1.121,1.982-1.78,1.412-1.586,1.314-3.281-.17-4.339-1.397-.995-3.887-.624-4.787.785-.444.695-.76,1.481-1.061,2.254-.461,1.185-1.382,1.376-2.45,1.153-1.088-.227-1.328-1.053-1.253-2.04.193-2.568,1.812-4.11,3.934-5.156,1.186-.585,2.527-.864,3.747-.782Z"/>
  <path class="cls-6" d="m805.119,275.767c-1.319,0-2.19-.877-2.179-2.194.011-1.352.827-2.154,2.191-2.153,1.361,0,2.176.809,2.183,2.164.006,1.298-.885,2.184-2.195,2.183Z"/>
  <path class="cls-8" d="m664.1,197.019c1.42.066,3.282.498,4.795,1.902,2.463,2.287,2.614,5.31.341,7.803-.823.902-1.728,1.733-2.634,2.555-.847.768-1.497,1.639-1.723,2.776-.285,1.436-1.202,2.015-2.551,1.622-1.294-.377-1.297-1.57-1.154-2.618.299-2.2,1.859-3.588,3.426-4.946.334-.289.717-.536.999-.869,1.486-1.756,1.36-3.396-.321-4.531-1.47-.993-3.897-.403-4.808,1.207-.326.576-.531,1.219-.815,1.821-.523,1.109-1.419,1.648-2.58,1.202-1.144-.44-1.404-1.349-1.1-2.589.769-3.127,3.805-5.332,8.122-5.336Z"/>
  <path class="cls-6" d="m663.074,219.705c-1.27-.012-2.113-.923-2.058-2.255.054-1.309.741-2.042,2.063-2.093,1.32-.051,2.369.999,2.32,2.264-.048,1.224-1.02,2.095-2.324,2.083Z"/>
  <path class="cls-7" d="m199.478,188.006c42.54,0,85.081-.003,127.621.003,9.344.001,16.697,5.767,18.914,14.789,2.597,10.568-4.705,21.343-15.531,22.987-1.222.186-2.431.262-3.655.262-85.025,0-170.05.002-255.076,0-11.649,0-20.053-8.787-19.549-20.411.36-8.31,7.472-16.138,15.666-17.341,1.445-.212,2.875-.287,4.322-.287,42.429-.001,84.858,0,127.287,0Z"/>
  <text class="cls-14" transform="translate(64.988 214.212)"><tspan x="0" y="0">바꿀 버킷 리스트를 입력하세요</tspan><tspan class="cls-15" x="262.512" y="0">.</tspan></text>
  <text class="cls-12" transform="translate(362.483 103.898)"><tspan x="0" y="0">을(를) 묻고 대답 기다리기</tspan></text>
  <text class="cls-12" transform="translate(362.483 215.759)"><tspan x="0" y="0">을(를) 묻고 대답 기다리기</tspan></text>
  <g>
    <path class="cls-4" d="m145.152,131.207c28.321,0-.634,0,27.687,0,4.46,0,6.867,2.423,6.869,6.925.004,8.731.004,17.461,0,26.192-.002,4.503-2.409,6.926-6.869,6.926-56.643,0-56.009-.025-112.652.059-3.656.005-6.892-2.761-6.868-6.901.052-8.786.052-17.573,0-26.359-.025-4.14,3.211-6.918,6.867-6.904,28.321.11,56.643.061,84.964.061Z"/>
    <path class="cls-3" d="m162.699,145.98c1.503,0,3.005-.003,4.508.001.95.003,1.744.288,2.196,1.209.47.957.064,1.7-.534,2.422-1.451,1.751-2.859,3.539-4.343,5.262-1.318,1.531-2.388,1.521-3.719-.029-1.519-1.769-2.972-3.593-4.451-5.395-.521-.635-.812-1.311-.452-2.143.374-.864,1.045-1.292,1.954-1.307,1.613-.027,3.228-.008,4.841-.008v-.013Z"/>
    <text class="cls-13" transform="translate(63.698 159.055)"><tspan x="0" y="0">비밀 번호</tspan></text>
  </g>
  <text class="cls-12" transform="translate(190.643 159.829)"><tspan x="0" y="0">를</tspan></text>
  <text class="cls-12" transform="translate(306.751 159.829)"><tspan x="0" y="0">(으)로 정하기</tspan></text>
  <rect class="cls-1" x="223.928" y="129.673" width="74.051" height="42.785" rx="10" ry="10"/>
  <g>
    <path class="cls-4" d="m145.152,242.235c28.321,0,56.643,0,84.964,0,4.46,0,6.867,2.423,6.869,6.925.004,8.731.004,17.461,0,26.192-.002,4.503-2.409,6.926-6.869,6.926-56.643,0-113.286-.025-169.929.059-3.656.005-6.892-2.761-6.868-6.901.052-8.786.052-17.573,0-26.359-.025-4.14,3.211-6.918,6.867-6.904,28.321.11,56.643.061,84.964.061Z"/>
    <path class="cls-3" d="m219.977,257.008c1.503,0,3.005-.003,4.508.001.95.003,1.744.288,2.196,1.209.47.957.064,1.7-.534,2.422-1.451,1.751-2.859,3.539-4.343,5.262-1.318,1.531-2.388,1.521-3.719-.029-1.519-1.769-2.972-3.593-4.451-5.395-.521-.635-.812-1.311-.452-2.143.374-.864,1.045-1.292,1.954-1.307,1.613-.027,3.228-.008,4.841-.008v-.013Z"/>
    <text class="cls-12" transform="translate(248.955 270.832)"><tspan x="0" y="0">의</tspan></text>
    <text class="cls-12" transform="translate(440.405 270.832)"><tspan x="0" y="0">번째 항목을</tspan></text>
    <text class="cls-12" transform="translate(636.499 270.832)"><tspan x="0" y="0">(으)로</tspan></text>
    <text class="cls-13" transform="translate(63.698 270.083)"><tspan x="0" y="0">나의 버킷 리스트</tspan></text>
  </g>
  <rect class="cls-1" x="281.079" y="241.695" width="149.264" height="42.785" rx="10" ry="10"/>
  <rect class="cls-1" x="566.705" y="241.695" width="64.118" height="42.785" rx="10" ry="10"/>
  <rect class="cls-1" x="707.197" y="241.695" width="64.118" height="42.785" rx="10" ry="10"/>
</svg>