<?xml version="1.0" encoding="UTF-8"?>
<svg id="_레이어_2" data-name="레이어 2" xmlns="http://www.w3.org/2000/svg" viewBox="0 0 410.527 205.478">
  <defs>
    <style>
      .cls-1 {
        fill: #575e75;
      }

      .cls-1, .cls-2 {
        stroke-width: 0px;
      }

      .cls-3 {
        fill: #d400d4;
        stroke: #9f009f;
      }

      .cls-3, .cls-4, .cls-5 {
        stroke-miterlimit: 10;
        stroke-width: 1.5px;
      }

      .cls-2, .cls-4 {
        fill: #fff;
      }

      .cls-4 {
        stroke: #bfbfbf;
      }

      .cls-5 {
        fill: #dc143c;
        stroke: #a50f2d;
      }
    </style>
  </defs>
  <path class="cls-3" d="m84.158,166.903h-21.05c-1.723,0-3.364-.74-4.505-2.031l-8.586-9.72c-1.141-1.292-2.781-2.031-4.505-2.031h-13.331c-3.32,0-6.011-2.691-6.011-6.011v-63.934c0-3.32,2.691-6.011,6.011-6.011h13.331c1.723,0,3.364.74,4.505,2.031l8.586,9.72c1.141,1.292,2.781,2.031,4.505,2.031h21.05c1.691,0,3.304-.712,4.443-1.963l8.981-9.857c1.139-1.25,2.752-1.963,4.443-1.963h165.297c3.32,0,6.011-2.691,6.011-6.011V6.761c0-3.32-2.691-6.011-6.011-6.011H6.761C3.441.75.75,3.441.75,6.761v191.956c0,3.32,2.691,6.011,6.011,6.011h260.561c3.32,0,6.011-2.691,6.011-6.011v-39.586c0-3.32-2.691-6.011-6.011-6.011H102.025c-1.691,0-3.304.712-4.443,1.963l-8.981,9.857c-1.139,1.25-2.752,1.963-4.443,1.963Z"/>
  <path class="cls-5" d="m97.429,79.128l-8.981,9.857c-1.139,1.25-2.752,1.963-4.443,1.963h-21.05c-1.723,0-3.364-.74-4.505-2.031l-8.586-9.72c-1.141-1.292-2.781-2.031-4.505-2.031h-13.331c-3.32,0-6.011,2.691-6.011,6.011v63.934c0,3.32,2.691,6.011,6.011,6.011h13.331c1.723,0,3.364.74,4.505,2.031l8.586,9.72c1.141,1.292,2.781,2.031,4.505,2.031h21.05c1.691,0,3.304-.712,4.443-1.963l8.981-9.857c1.139-1.25,2.752-1.963,4.443-1.963h301.895c3.32,0,6.011-2.691,6.011-6.011v-63.934c0-3.32-2.691-6.011-6.011-6.011H101.872c-1.691,0-3.304.712-4.443,1.963Z"/>
  <rect class="cls-3" x="13.46" y="13.843" width="70.29" height="50.382" rx="5.743" ry="5.743"/>
  <rect class="cls-4" x="261.886" y="88.957" width="66.487" height="50.382" rx="25.191" ry="25.191"/>
  <g>
    <path class="cls-2" d="m109.771,35.555h5.503v-8.254h2.212v23.477h-2.212v-13.294h-5.503v6.891h-10.492l.026-15.3h2.263v5.811h6.017v-5.811h2.186v6.48Zm-2.16,1.209h-6.069v5.734h6.069v-5.734Z"/>
    <path class="cls-2" d="m145.771,40.029v1.903h-22.372v-1.903h22.372Zm-3.163,10.388h-15.557v-6.531h2.211v4.603h13.346v1.929Zm-15.48-12.368v-10.106h14.734v1.903h-12.523v2.289h12.317v1.8h-12.317v2.263h12.883v1.851h-15.094Z"/>
    <path class="cls-2" d="m162.228,42.395v-1.877h21.857v1.877h-9.566v8.254h-2.263v-8.254h-10.028Zm3.883-5.349v-9.18h2.263v7.277h12.934v1.903h-15.197Z"/>
    <path class="cls-2" d="m210.056,38.178v1.8h-22.372v-1.8h22.372Zm-18.874,12.6v-5.426h13.191v-1.929h-13.191v-1.8h15.377v5.426h-13.191v1.929h13.809v1.8h-15.994Zm.103-22.911h14.991v5.246h-12.78v1.8h13.346v1.723h-15.557v-5.169h12.806v-1.774h-12.806v-1.826Z"/>
    <path class="cls-2" d="m232.556,41.958v1.851c-.411.138-.896.249-1.453.334-.557.086-1.136.129-1.736.129h-2.185v-14.889h4.963v1.877h-2.751v11.083h.643c.531,0,1.011-.039,1.44-.116.428-.077.789-.167,1.08-.27Zm6.583-.103v1.826c-.394.172-.926.313-1.594.424-.668.112-1.371.167-2.109.167h-2.185v-14.889h4.86v1.877h-2.726v11.109h.591c.651,0,1.264-.055,1.839-.167.574-.111,1.016-.227,1.324-.347Zm7.431,8.923h-2.134v-12.934h-2.34v12.343h-2.083v-22.628h2.083v8.383h2.34v-8.64h2.134v23.477Z"/>
  </g>
  <path class="cls-2" d="m38.491,29.512l5.04,17.434h-2.314l-1.286-4.68h-5.452l-1.286,4.68h-2.263l4.937-17.434h2.623Zm-1.286,2.057l-.206,1.054-2.031,7.869h4.474l-2.006-7.869-.231-1.054Z"/>
  <path class="cls-2" d="m62.3,43.54l-6.78-6.353c-.801-.75-.27-2.093.827-2.093h13.56c1.097,0,1.628,1.343.827,2.093l-6.78,6.353c-.465.436-1.189.436-1.655,0Z"/>
  <rect class="cls-5" x="100.301" y="88.47" width="110.488" height="50.382" rx="5.743" ry="5.743"/>
  <g>
    <path class="cls-2" d="m135.88,111.461v1.903h-22.372v-1.903h22.372Zm-10.208-7.586c.36.497.852.973,1.478,1.427.626.455,1.32.862,2.083,1.222.763.36,1.565.673,2.405.939.84.266,1.654.45,2.442.553l-1.157,1.749c-.84-.154-1.655-.377-2.443-.669-.789-.291-1.538-.626-2.25-1.003-.712-.377-1.38-.788-2.006-1.234-.626-.446-1.178-.908-1.658-1.388-.498.549-1.063,1.067-1.698,1.556-.634.489-1.311.926-2.031,1.312-.72.386-1.462.72-2.224,1.003-.763.283-1.514.485-2.25.604l-1.132-1.697c1.217-.206,2.357-.531,3.42-.977,1.063-.446,1.989-.977,2.778-1.594.788-.617,1.405-1.299,1.851-2.044.446-.746.66-1.513.643-2.302h2.366c.034.446-.005.879-.116,1.299-.112.42-.279.836-.501,1.247Zm-8.409,20.571v-9.257h2.211v2.803h10.697v-2.803h2.211v9.257h-15.12Zm12.934-4.628h-10.748v2.726h10.748v-2.726Z"/>
    <path class="cls-2" d="m143.132,114.289v-10.929h14.683v1.929h-12.42v7.071h12.651v1.929h-6.351v5.143h9.643v1.877h-21.857v-1.877h9.952v-5.143h-6.3Z"/>
  </g>
  <g>
    <path class="cls-1" d="m285.028,122.515v-2.391h3.317c0-2.074-.005-4.058-.012-5.953-.009-1.894-.013-3.879-.013-5.953-.24.154-.518.318-.836.489-.318.172-.643.339-.977.501-.335.163-.661.318-.977.463-.318.146-.587.27-.81.373h-.386v-2.443c.806-.36,1.595-.762,2.366-1.208.772-.446,1.371-.883,1.8-1.311h2.649v15.043h3.137v2.391h-9.257Z"/>
    <path class="cls-1" d="m301.717,104.798c1.766,0,3.12.737,4.063,2.212.943,1.474,1.414,3.78,1.414,6.917,0,1.594-.12,2.953-.36,4.076-.24,1.123-.596,2.044-1.067,2.764s-1.045,1.247-1.722,1.581c-.678.334-1.453.501-2.327.501-.909,0-1.701-.167-2.379-.501-.677-.334-1.247-.862-1.71-1.581s-.81-1.641-1.042-2.764c-.231-1.123-.347-2.482-.347-4.076,0-3.137.463-5.443,1.388-6.917.926-1.474,2.289-2.212,4.089-2.212Zm0,2.263c-.875,0-1.565.57-2.07,1.71-.506,1.14-.733,2.885-.681,5.233.017.395.029.772.039,1.132.008.36.029.694.064,1.003l4.706-7.354c-.429-1.148-1.114-1.723-2.057-1.723Zm-.026,13.603c.515,0,.947-.124,1.299-.373.352-.248.63-.643.836-1.183.206-.54.355-1.234.45-2.083s.141-1.864.141-3.047c0-.463-.008-.896-.025-1.298-.017-.403-.043-.793-.077-1.17l-4.731,7.431c.376,1.149,1.079,1.723,2.108,1.723Z"/>
  </g>
  <g>
    <path class="cls-2" d="m366.095,112.309v1.903h-22.372v-1.903h22.372Zm-8.485-5.734c1.045.549,2.168,1.025,3.368,1.427,1.2.403,2.418.724,3.652.964l-1.131,1.749c-.617-.137-1.26-.308-1.929-.514-.669-.206-1.337-.446-2.006-.72-.668-.274-1.324-.566-1.967-.874-.643-.308-1.23-.634-1.762-.977-1.439.771-2.974,1.419-4.603,1.941-1.629.523-3.249.896-4.86,1.119l-1.054-1.697c1.439-.206,2.807-.489,4.101-.849,1.294-.36,2.486-.771,3.574-1.234,1.089-.463,2.053-.964,2.893-1.504.84-.54,1.534-1.084,2.083-1.633-1.835.051-3.661.077-5.477.077h-5.195v-1.826h10.479c1.106,0,2.258-.017,3.458-.052.206-.017.343.048.412.193.068.146.059.296-.026.45-.429.737-.986,1.436-1.671,2.096-.686.66-1.466,1.282-2.34,1.864Zm5.451,13.963c0,.634-.167,1.225-.501,1.774-.335.549-.836,1.02-1.504,1.414-.668.394-1.501.707-2.494.939-.994.231-2.143.347-3.446.347-1.32,0-2.477-.116-3.471-.347-.994-.231-1.826-.545-2.494-.939-.669-.395-1.174-.866-1.518-1.414-.343-.549-.515-1.14-.515-1.774,0-1.286.673-2.336,2.019-3.15,1.345-.814,3.339-1.221,5.978-1.221s4.624.407,5.953,1.221c1.328.814,1.993,1.864,1.993,3.15Zm-2.391.026c0-.325-.09-.643-.27-.951-.18-.309-.489-.587-.926-.836-.437-.248-1.011-.45-1.722-.604-.712-.154-1.59-.231-2.636-.231-1.062,0-1.95.077-2.661.231-.712.154-1.286.356-1.723.604-.437.249-.746.527-.926.836-.18.308-.27.626-.27.951,0,.309.09.622.27.939s.488.596.926.836c.437.24,1.011.437,1.723.591.711.154,1.599.231,2.661.231,1.046,0,1.925-.077,2.636-.231.711-.154,1.286-.352,1.722-.591.437-.24.746-.519.926-.836.179-.317.27-.63.27-.939Z"/>
    <path class="cls-2" d="m369.772,118.146c1.508-.754,2.837-1.611,3.985-2.571,1.149-.96,2.122-1.997,2.919-3.112.797-1.114,1.436-2.284,1.915-3.51.48-1.225.806-2.481.977-3.767-1.046.035-2.083.056-3.112.064-1.028.009-2.058.013-3.086.013h-2.649v-1.903h7.638c1.199,0,2.408-.017,3.625-.051-.24,3.532-1.218,6.69-2.931,9.476-1.715,2.786-4.311,5.113-7.792,6.981l-1.491-1.62Zm22.269-5.786h-4.037v12.446h-2.211v-23.477h2.211v9.052h4.037v1.98Z"/>
  </g>
  <path class="cls-2" d="m227.763,102.357h7.406c1.2,0,2.408-.017,3.626-.051-.103,1.32-.424,2.571-.964,3.754-.54,1.183-1.277,2.272-2.211,3.266-.935.994-2.057,1.881-3.368,2.661-1.312.78-2.79,1.419-4.436,1.916l-1.26-1.749c2.623-.772,4.765-1.8,6.429-3.086,1.662-1.286,2.726-2.914,3.188-4.886-1.028.035-2.049.056-3.06.064-1.011.009-2.031.013-3.06.013h-2.289v-1.903Zm9.668,22.14h-8.126v-9.514h2.083v2.751h3.986v-3.009h2.057v8.306c1.457-.977,2.486-2.177,3.086-3.6.6-1.423.823-3.086.668-4.988h2.134c.017.549.008,1.067-.026,1.556-.034.489-.086.964-.154,1.427.257,1.131.746,2.194,1.466,3.188.72.994,1.62,1.834,2.7,2.52l-1.594,1.594c-.772-.583-1.449-1.222-2.032-1.916-.583-.694-1.063-1.478-1.44-2.353-.394.874-.892,1.667-1.491,2.378-.6.711-1.312,1.376-2.134,1.993l-1.183-1.003v.669Zm-2.057-1.877v-3.137h-4.012v3.137h4.012Zm12.883-14.143h-3.703v4.834h-2.212v-11.983h2.212v5.169h3.703v1.98Z"/>
  <path class="cls-2" d="m186.107,118.207l-6.78-6.353c-.801-.75-.27-2.093.827-2.093h13.56c1.097,0,1.628,1.343.827,2.093l-6.78,6.353c-.465.436-1.189.436-1.655,0Z"/>
</svg>