<?xml version="1.0" encoding="UTF-8"?>
<svg id="_레이어_2" data-name="레이어 2" xmlns="http://www.w3.org/2000/svg" viewBox="0 0 430.879 68.75">
  <defs>
    <style>
      .cls-1 {
        fill: #78d5d3;
      }

      .cls-1, .cls-2, .cls-3, .cls-4 {
        stroke-width: 0px;
      }

      .cls-2 {
        fill: #008380;
      }

      .cls-5 {
        font-size: 22px;
        letter-spacing: -.01em;
      }

      .cls-5, .cls-6 {
        font-family: Pretendard-Bold-KSCpc-EUC-H, Pretendard;
        font-weight: 700;
      }

      .cls-7 {
        fill: #00b6b1;
        stroke: #008380;
        stroke-miterlimit: 10;
        stroke-width: 2px;
      }

      .cls-3 {
        fill: #fedd81;
      }

      .cls-4 {
        fill: #fe9b00;
      }

      .cls-6 {
        fill: #fefefe;
        font-size: 26px;
        letter-spacing: -.01em;
      }
    </style>
  </defs>
  <g>
    <path class="cls-7" d="m402.008,1l-375.82.101h0l-12.543,11.548h0L1.622,1.669c-.238-.218-.622-.049-.622.274v54.841l.171.168,11.328,10.345c.663.605,1.678.603,2.338-.004l10.91-10.045c.212-.195.49-.304.779-.304l375.483-.202c15.329,0,27.871-12.542,27.871-27.871s-12.542-27.871-27.871-27.871Z"/>
    <path class="cls-2" d="m422.957,28.915c.233,11.599-9.583,22.21-22.59,21.903-11.361-.268-21.522-9.449-21.508-22.104.014-12.581,10.427-22.278,22.629-21.994,11.969.279,21.786,10.209,21.47,22.194Z"/>
    <text class="cls-6" transform="translate(30.044 37.448)"><tspan x="0" y="0">LED에</tspan></text>
    <text class="cls-6" transform="translate(208.938 37.448)"><tspan x="0" y="0">을(를) 나타내기</tspan></text>
    <g>
      <path class="cls-1" d="m406.262,18.954c-1.047,0-1.949.579-2.434,1.427h-4.07c-.367,0-.719.145-.978.405l-7.704,7.688h-4.052c-.765,0-1.385.62-1.385,1.385s.62,1.385,1.385,1.385h4.624c.367,0,.719-.145.978-.405l7.704-7.688h3.497c.484.848,1.387,1.427,2.434,1.427,1.553,0,2.812-1.259,2.812-2.812s-1.259-2.812-2.812-2.812Z"/>
      <path class="cls-1" d="m396.36,37.39c1.047,0,1.949-.579,2.433-1.427h4.07c.367,0,.719-.145.978-.405l7.704-7.688h4.052c.765,0,1.385-.62,1.385-1.385s-.62-1.385-1.385-1.385h-4.624c-.367,0-.719.145-.978.405l-7.704,7.688h-3.497c-.484-.848-1.387-1.427-2.433-1.427-1.553,0-2.812,1.259-2.812,2.812s1.259,2.812,2.812,2.812Z"/>
    </g>
  </g>
  <g>
    <path class="cls-3" d="m130.601,48.673c-10.975,0-19.903-8.928-19.903-19.903s8.928-19.903,19.903-19.903h48.387c10.975,0,19.903,8.929,19.903,19.903s-8.929,19.903-19.903,19.903h-48.387Z"/>
    <path class="cls-4" d="m178.988,9.866c10.423,0,18.903,8.48,18.903,18.903s-8.48,18.903-18.903,18.903h-48.387c-10.423,0-18.903-8.48-18.903-18.903s8.48-18.903,18.903-18.903h48.387m0-2h-48.387c-11.497,0-20.903,9.406-20.903,20.903s9.406,20.903,20.903,20.903h48.387c11.497,0,20.903-9.406,20.903-20.903s-9.406-20.903-20.903-20.903h0Z"/>
  </g>
  <text class="cls-5" transform="translate(125.71 35.833)"><tspan x="0" y="0">Hello!</tspan></text>
</svg>