<?xml version="1.0" encoding="UTF-8"?>
<svg id="_레이어_1" data-name="레이어 1" xmlns="http://www.w3.org/2000/svg" viewBox="0 0 435.722 41.807">
  <defs>
    <style>
      .cls-1 {
        fill: #b819b3;
      }

      .cls-1, .cls-2, .cls-3 {
        stroke-width: 0px;
      }

      .cls-4 {
        fill: #fff;
        font-family: Pretendard-Bold-KSCpc-EUC-H, Pretendard;
        font-size: 22px;
        font-weight: 700;
        letter-spacing: -.025em;
      }

      .cls-2 {
        fill: #fefdfe;
      }

      .cls-3 {
        fill: #dd47d8;
      }
    </style>
  </defs>
  <g>
    <g>
      <path class="cls-3" d="m20.903,40.807C9.929,40.807,1,31.878,1,20.903S9.929,1,20.903,1h393.916c10.975,0,19.903,8.929,19.903,19.903s-8.929,19.903-19.903,19.903H20.903Z"/>
      <path class="cls-1" d="m414.819,2c10.423,0,18.903,8.48,18.903,18.903s-8.48,18.903-18.903,18.903H20.903c-10.423,0-18.903-8.48-18.903-18.903S10.48,2,20.903,2h393.916m0-2H20.903C9.406,0,0,9.406,0,20.903h0c0,11.497,9.406,20.903,20.903,20.903h393.916c11.497,0,20.903-9.406,20.903-20.903h0c0-11.497-9.406-20.903-20.903-20.903h0Z"/>
    </g>
    <rect class="cls-1" x="15.484" y="1.419" width="141.935" height="38.968" rx="3.871" ry="3.871"/>
    <text class="cls-4" transform="translate(337.763 27.966)"><tspan x="0" y="0">번째 항목</tspan></text>
    <text class="cls-4" transform="translate(171.648 27.966)"><tspan x="0" y="0">의</tspan></text>
    <text class="cls-4" transform="translate(26.009 27.966)"><tspan x="0" y="0">반티 리스트</tspan></text>
    <path class="cls-2" d="m139.726,16.226c1.503,0,3.006-.003,4.509.001.951.003,1.744.288,2.197,1.211.47.958.064,1.702-.534,2.425-1.451,1.754-2.859,3.543-4.343,5.268-1.318,1.533-2.389,1.523-3.72-.029-1.519-1.771-2.972-3.598-4.452-5.402-.521-.635-.812-1.313-.452-2.145.374-.865,1.045-1.293,1.954-1.309,1.614-.027,3.228-.008,4.842-.008v-.013Z"/>
  </g>
  <g>
    <g>
      <path class="cls-3" d="m222.166,40.807c-10.975,0-19.903-8.929-19.903-19.903S211.191,1,222.166,1h79.473c10.975,0,19.903,8.929,19.903,19.903s-8.928,19.903-19.903,19.903h-79.473Z"/>
      <path class="cls-1" d="m301.639,2c10.423,0,18.903,8.48,18.903,18.903s-8.48,18.903-18.903,18.903h-79.473c-10.423,0-18.903-8.48-18.903-18.903s8.48-18.903,18.903-18.903h79.473m0-2h-79.473c-11.497,0-20.903,9.406-20.903,20.903h0c0,11.497,9.406,20.903,20.903,20.903h79.473c11.497,0,20.903-9.406,20.903-20.903h0c0-11.497-9.406-20.903-20.903-20.903h0Z"/>
    </g>
    <rect class="cls-1" x="216.747" y="1.419" width="57.152" height="38.968" rx="3.871" ry="3.871"/>
    <text class="cls-4" transform="translate(286.809 27.966)"><tspan x="0" y="0">값</tspan></text>
    <text class="cls-4" transform="translate(227.272 27.966)"><tspan x="0" y="0">n</tspan></text>
    <path class="cls-2" d="m258.206,16.226c1.503,0,3.006-.003,4.509.001.951.003,1.744.288,2.197,1.211.47.958.064,1.702-.534,2.425-1.451,1.754-2.859,3.543-4.343,5.268-1.318,1.533-2.389,1.523-3.72-.029-1.519-1.771-2.972-3.598-4.452-5.402-.521-.635-.812-1.313-.452-2.145.374-.865,1.045-1.293,1.954-1.309,1.614-.027,3.228-.008,4.842-.008v-.013Z"/>
  </g>
</svg>