<?xml version="1.0" encoding="UTF-8"?>
<svg id="_레이어_1" data-name="레이어 1" xmlns="http://www.w3.org/2000/svg" viewBox="0 0 343.646 69.371">
  <defs>
    <style>
      .cls-1 {
        fill: #c72042;
      }

      .cls-1, .cls-2, .cls-3, .cls-4 {
        stroke-width: 0px;
      }

      .cls-5 {
        fill: #fff;
        font-size: 22px;
        letter-spacing: -.025em;
      }

      .cls-5, .cls-6 {
        font-family: Pretendard-Bold-KSCpc-EUC-H, Pretendard;
        font-weight: 700;
      }

      .cls-2 {
        fill: #fefdfe;
      }

      .cls-3 {
        fill: #c62042;
      }

      .cls-7 {
        fill: #fe3a61;
        stroke: #c62142;
        stroke-linecap: round;
        stroke-linejoin: round;
        stroke-width: 2px;
      }

      .cls-6 {
        fill: #fefefe;
        font-size: 26px;
        letter-spacing: -.025em;
      }

      .cls-4 {
        fill: #fe5576;
      }
    </style>
  </defs>
  <path class="cls-7" d="m314.775,1H26.189l-12.543,11.548L1.622,1.568c-.238-.218-.622-.049-.622.274v54.741c0,.102.042.198.115.269l12.53,11.519,12.543-11.629h288.587c15.329,0,27.871-12.542,27.871-27.871h0c0-15.329-12.542-27.871-27.871-27.871Z"/>
  <path class="cls-3" d="m290.49,28.394c.085-12.114,9.79-22.01,22.342-21.937,12.159.071,22.178,9.883,21.961,22.471-.203,11.764-9.754,21.773-22.498,21.598-12.042-.166-21.794-9.762-21.805-22.132Z"/>
  <path class="cls-4" d="m313.39,29.831c2.854.024,5.612,2.731,5.624,5.52.014,3.13-2.722,5.849-5.866,5.829-3.016-.018-5.566-2.746-5.533-5.919.031-3.007,2.636-5.457,5.775-5.43Z"/>
  <rect class="cls-4" x="315.778" y="20.216" width="9.448" height="9.448" transform="translate(111.508 -219.324) rotate(45)"/>
  <polygon class="cls-4" points="311.621 27.895 311.621 21.462 306.05 18.246 300.479 21.462 300.479 27.895 306.05 31.111 311.621 27.895"/>
  <text class="cls-6" transform="translate(120.85 38.973)"><tspan x="0" y="0">모양으로 바꾸기</tspan></text>
  <g>
    <rect class="cls-1" x="32.824" y="9.782" width="75.887" height="38.968" rx="3.871" ry="3.871"/>
    <text class="cls-5" transform="translate(43.349 37.619)"><tspan x="0" y="0">다음</tspan></text>
    <path class="cls-2" d="m92.211,24.589c1.503,0,3.006-.003,4.509.001.951.003,1.744.288,2.197,1.211.47.958.064,1.702-.534,2.425-1.451,1.754-2.859,3.543-4.343,5.268-1.318,1.533-2.389,1.523-3.72-.029-1.519-1.771-2.972-3.598-4.452-5.402-.521-.635-.812-1.313-.452-2.145.374-.865,1.045-1.293,1.954-1.309,1.614-.027,3.228-.008,4.842-.008v-.013Z"/>
  </g>
</svg>