<?xml version="1.0" encoding="UTF-8"?>
<svg id="_레이어_1" data-name="레이어 1" xmlns="http://www.w3.org/2000/svg" viewBox="0 0 380.742 76.941">
  <defs>
    <style>
      .cls-1, .cls-2 {
        fill: #fefefe;
      }

      .cls-1, .cls-3 {
        stroke-width: 0px;
      }

      .cls-4 {
        stroke: #019501;
        stroke-miterlimit: 10;
        stroke-width: 2px;
      }

      .cls-4, .cls-3 {
        fill: #00b300;
      }

      .cls-2 {
        font-family: Pretendard-Bold-KSCpc-EUC-H, Pretendard;
        font-size: 26px;
        font-weight: 700;
        letter-spacing: -.025em;
      }
    </style>
  </defs>
  <path class="cls-4" d="m351.871,9.516H56.344C50.108,3.9,41.733.613,32.586,1.037,15.227,1.84,1.265,16.277,1.004,33.652c-.23,15.293,9.898,28.249,23.818,32.328l8.81,9.726c.284.313.776.313,1.059,0l8.534-9.447c.575-.637,1.394-1.001,2.252-1.001h306.394c15.329,0,27.871-12.542,27.871-27.871h0c0-15.329-12.542-27.871-27.871-27.871Z"/>
  <g>
    <path class="cls-1" d="m34.372,6.769c15.057.016,27.302,12.292,27.291,27.36-.011,15.09-12.341,27.257-27.589,27.225-15.037-.031-27.234-12.332-27.209-27.441.024-14.987,12.36-27.16,27.508-27.144Z"/>
    <path class="cls-3" d="m26.988,34.006c0-2.979-.003-5.959.002-8.938.001-.871-.04-1.782.9-2.272.89-.464,1.669-.113,2.434.376,4.656,2.978,9.324,5.939,13.977,8.921,2.063,1.322,2.073,2.615.042,3.913-4.656,2.976-9.325,5.932-13.976,8.916-.771.494-1.55.863-2.428.428-.92-.456-.963-1.342-.958-2.244.016-3.033.006-6.067.006-9.101Z"/>
  </g>
  <text class="cls-2" transform="translate(72 45.194)"><tspan x="0" y="0">시작하기 버튼을 클릭했을 때</tspan></text>
</svg>