<?xml version="1.0" encoding="UTF-8"?>
<svg id="_레이어_1" data-name="레이어 1" xmlns="http://www.w3.org/2000/svg" viewBox="0 0 1159.485 873.013">
  <defs>
    <style>
      .cls-1, .cls-2, .cls-3, .cls-4, .cls-5, .cls-6, .cls-7, .cls-8, .cls-9, .cls-10, .cls-11, .cls-12, .cls-13, .cls-14, .cls-15, .cls-16, .cls-17, .cls-18, .cls-19 {
        stroke-width: 0px;
      }

      .cls-1, .cls-20, .cls-21, .cls-22 {
        fill: #fefefe;
      }

      .cls-2 {
        fill: #009400;
      }

      .cls-23, .cls-24 {
        stroke: #009400;
      }

      .cls-23, .cls-24, .cls-25, .cls-26, .cls-27 {
        stroke-width: 2px;
      }

      .cls-23, .cls-24, .cls-19 {
        fill: #00b300;
      }

      .cls-23, .cls-26, .cls-27 {
        stroke-linejoin: round;
      }

      .cls-28, .cls-29, .cls-30 {
        letter-spacing: -.025em;
      }

      .cls-3 {
        fill: #b819b3;
      }

      .cls-31 {
        letter-spacing: -.031em;
      }

      .cls-29, .cls-32, .cls-20, .cls-21, .cls-30, .cls-33, .cls-22, .cls-34 {
        font-family: Pretendard-Bold-KSCpc-EUC-H, Pretendard;
        font-weight: 700;
      }

      .cls-29, .cls-32, .cls-8, .cls-34 {
        fill: #fff;
      }

      .cls-29, .cls-32, .cls-21, .cls-30, .cls-33, .cls-34 {
        font-size: 22px;
      }

      .cls-4 {
        fill: #3bce3b;
      }

      .cls-32 {
        letter-spacing: -.025em;
      }

      .cls-5 {
        fill: #fefdfe;
      }

      .cls-24, .cls-25 {
        stroke-miterlimit: 10;
      }

      .cls-6 {
        fill: #1b3ad8;
      }

      .cls-20, .cls-22 {
        font-size: 26px;
      }

      .cls-7 {
        fill: #b719b2;
      }

      .cls-25 {
        fill: none;
        stroke: #fff;
      }

      .cls-26 {
        fill: #19baea;
        stroke: #1498c0;
      }

      .cls-26, .cls-27 {
        stroke-linecap: round;
      }

      .cls-9 {
        fill: #6dddfe;
      }

      .cls-10 {
        fill: #1498c0;
      }

      .cls-11, .cls-27 {
        fill: #dd47d8;
      }

      .cls-12 {
        fill: #008380;
      }

      .cls-13 {
        fill: #4562f5;
      }

      .cls-35 {
        letter-spacing: -.054em;
      }

      .cls-14 {
        fill: #00b6b1;
      }

      .cls-27 {
        stroke: #b819b3;
      }

      .cls-15 {
        fill: #f577f1;
      }

      .cls-16 {
        fill: #fedd81;
      }

      .cls-17 {
        fill: #f677f2;
      }

      .cls-18 {
        fill: #fe9b00;
      }

      .cls-22 {
        letter-spacing: -.01em;
      }
    </style>
  </defs>
  <g>
    <g>
      <g>
        <path class="cls-24" d="m378.366,33.954c-2.293-12.79-13.661-22.1-26.741-22.14-81.917-.248-207.345-.502-289.263-.713-2.727-.007-4.859-.438-7.168-2.398C48.028,2.617,39.547.119,30.1,1.274,20.381,2.464,12.681,7.161,7.067,15.04,2.193,21.879.212,29.582,1.283,38.024c1.177,9.281,5.523,16.675,12.825,22.461,2.165,1.716,6.8,4.434,7.455,4.816.055.032.101.067.148.11l11.686,10.762c.84.872,2.14.793,2.931-.015l10.743-9.885c.26-.239.6-.372.952-.372l301.593.032c1.539.004,3.069-.064,4.601-.205l.974-.089c15.315-1.89,25.945-16.233,23.175-31.685Z"/>
        <path class="cls-1" d="m34.016,62.097c-15.48-.051-28.037-12.66-27.997-28.114.04-15.539,12.694-28.067,28.28-27.997,15.45.069,27.973,12.72,27.913,28.197-.06,15.443-12.708,27.964-28.196,27.914Z"/>
        <text class="cls-20" transform="translate(73.185 46.249) rotate(.173)"><tspan x="0" y="0">시작하기 버튼을 클릭했을 때</tspan></text>
      </g>
      <path class="cls-19" d="m27.49,33.709c0-2.979-.003-5.959.002-8.938.001-.871-.04-1.782.9-2.272.89-.464,1.669-.113,2.434.376,4.656,2.978,9.324,5.939,13.977,8.921,2.063,1.322,2.073,2.615.042,3.913-4.656,2.976-9.325,5.932-13.976,8.916-.771.494-1.55.863-2.428.428-.92-.456-.963-1.342-.958-2.244.016-3.033.006-6.067.006-9.101Z"/>
    </g>
    <g>
      <g>
        <path class="cls-27" d="m445.998,65.57H47.079s0,0,0,0l-12.543,11.548s0,0,0,0l-12.023-10.98c-.238-.218-.622-.049-.622.274v54.741c0,.047.011.092.028.135h-.003l.004.004c.02.048.048.093.087.13h.056l11.328,10.345c.663.605,1.678.603,2.338-.005l10.91-10.045c.212-.195.49-.304.779-.304l398.583-.101c15.329,0,27.871-12.542,27.871-27.871h0c0-15.329-12.542-27.871-27.871-27.871Z"/>
        <g>
          <path class="cls-7" d="m466.947,93.485c.233,11.599-9.583,22.21-22.59,21.903-11.361-.268-21.522-9.45-21.508-22.104.014-12.581,10.427-22.278,22.629-21.994,11.969.279,21.786,10.209,21.47,22.194Z"/>
          <path class="cls-17" d="m445.215,83.322c1.421.066,3.283.498,4.796,1.905,2.464,2.29,2.614,5.317.342,7.812-.823.903-1.728,1.735-2.634,2.558-.847.769-1.497,1.641-1.723,2.78-.285,1.438-1.202,2.017-2.552,1.624-1.294-.377-1.297-1.572-1.154-2.621.299-2.203,1.86-3.593,3.427-4.952.334-.29.717-.537.999-.87,1.487-1.758,1.36-3.4-.321-4.537-1.47-.995-3.897-.403-4.808,1.208-.326.577-.531,1.221-.815,1.823-.524,1.11-1.42,1.65-2.58,1.204-1.144-.44-1.405-1.351-1.1-2.592.769-3.131,3.806-5.339,8.123-5.343Z"/>
          <path class="cls-15" d="m444.189,106.037c-1.271-.012-2.113-.925-2.059-2.258.054-1.311.741-2.044,2.063-2.095,1.32-.051,2.369,1,2.32,2.267-.048,1.226-1.02,2.098-2.324,2.086Z"/>
        </g>
      </g>
      <g>
        <path class="cls-3" d="m53.124,79.71v27.721c0,3.45,2.808,6.244,6.257,6.235,25.312-.061,37.945-.046,63.27-.044,3.444,0,6.242-2.791,6.242-6.235v-27.63c0-3.441-2.787-6.231-6.228-6.235l-63.299-.046c-3.447-.004-6.243,2.789-6.243,6.235Z"/>
        <text class="cls-21" transform="translate(63.503 101.41)"><tspan x="0" y="0">상태</tspan></text>
        <path class="cls-5" d="m115.314,89.677c1.503,0,3.006-.003,4.509.001.951.003,1.744.288,2.197,1.211.47.958.064,1.702-.534,2.425-1.451,1.754-2.859,3.543-4.343,5.268-1.318,1.533-2.389,1.523-3.72-.029-1.519-1.771-2.972-3.598-4.452-5.402-.521-.635-.812-1.313-.452-2.145.374-.865,1.045-1.293,1.954-1.309,1.614-.027,3.228-.008,4.842-.008v-.013Z"/>
      </g>
      <text class="cls-22" transform="translate(144.713 101.92)"><tspan x="0" y="0">을(를)</tspan></text>
      <text class="cls-22" transform="translate(277.821 101.92)"><tspan x="0" y="0">(으)로정하기</tspan></text>
      <g>
        <g>
          <path class="cls-16" d="m241.873,113.473c-10.975,0-19.903-8.929-19.903-19.903s8.928-19.903,19.903-19.903,19.903,8.928,19.903,19.903-8.929,19.903-19.903,19.903Z"/>
          <path class="cls-18" d="m241.873,74.667c10.423,0,18.903,8.48,18.903,18.903s-8.48,18.903-18.903,18.903-18.903-8.48-18.903-18.903,8.48-18.903,18.903-18.903m0-2c-11.497,0-20.903,9.406-20.903,20.903h0c0,11.497,9.407,20.903,20.903,20.903s20.903-9.406,20.903-20.903h0c0-11.497-9.406-20.903-20.903-20.903h0Z"/>
        </g>
        <text class="cls-30" transform="translate(235.622 100.632)"><tspan x="0" y="0">0</tspan></text>
      </g>
    </g>
    <g>
      <path class="cls-26" d="m247.927,828.835H73.252s-11.952,10.3-11.952,10.3l-12.334-10.977V178.311c0-.398.474-.606.766-.336l11.675,10.755,12.896-11.471,161.98-.091c16.083,0,29.097-13.805,27.779-30.15-1.175-14.565-13.733-25.592-28.345-25.592H47.078s-12.543,11.548-12.543,11.548l-12.023-10.98c-.238-.218-.622-.049-.622.274v54.741c0,.047.011.092.028.135h-.004l.091.134.056,683.123,12.379,11.613,12.516-11.613h201.416c8.969,0,16.191-7.482,15.764-16.546-.4-8.489-7.712-15.02-16.21-15.02Z"/>
      <g>
        <path class="cls-10" d="m254.032,149.341c.233,11.599-9.583,22.21-22.59,21.903-11.361-.268-21.522-9.45-21.508-22.104.014-12.581,10.427-22.278,22.629-21.994,11.969.279,21.786,10.209,21.47,22.194Z"/>
        <path class="cls-9" d="m240.116,150.873c-.095,0-.185.021-.279.028l-4.684-7.075c.647-.892.942-2.055.623-3.302-.356-1.388-1.5-2.504-2.899-2.812-2.553-.562-4.81,1.366-4.81,3.821,0,.859.284,1.646.753,2.292l-4.684,7.075c-.094-.007-.183-.028-.279-.028-2.466,0-4.4,2.277-3.814,4.843.323,1.416,1.474,2.567,2.89,2.89,2.566.586,4.843-1.348,4.843-3.814,0-1.153-.507-2.18-1.3-2.897l4.386-6.625c.358.108.731.183,1.124.183s.766-.076,1.124-.183l4.386,6.625c-1.013.917-1.56,2.338-1.178,3.884.344,1.389,1.482,2.51,2.877,2.828,2.564.583,4.839-1.35,4.839-3.815,0-2.165-1.755-3.919-3.919-3.919Z"/>
      </g>
      <text class="cls-20" transform="translate(55.9 157.098)"><tspan x="0" y="0">계속 반복하기</tspan></text>
    </g>
    <g>
      <g>
        <path class="cls-26" d="m315.317,773.491H73.908s0,0,0,0l-12.543,11.548s0,0,0,0l-12.023-10.98c-.238-.218-.622-.049-.622.274v54.741c0,.047.011.092.028.135h-.003l.004.004c.02.048.048.093.087.13h.056l11.328,10.345c.663.605,1.678.603,2.338-.005l10.91-10.045c.212-.195.49-.304.779-.304l241.072-.101c15.329,0,27.871-12.542,27.871-27.871h0c0-15.329-12.542-27.871-27.871-27.871Z"/>
        <g>
          <path class="cls-10" d="m336.066,801.406c.233,11.599-9.583,22.21-22.59,21.903-11.361-.268-21.522-9.45-21.508-22.104.014-12.581,10.427-22.278,22.629-21.994,11.969.279,21.786,10.209,21.47,22.194Z"/>
          <path class="cls-9" d="m322.149,802.938c-.095,0-.185.021-.279.028l-4.684-7.075c.468-.646.753-1.433.753-2.292,0-2.165-1.755-3.919-3.919-3.919s-3.919,1.755-3.919,3.919c0,.859.284,1.646.753,2.292l-4.684,7.075c-.094-.007-.183-.028-.279-.028-2.165,0-3.919,1.755-3.919,3.919s1.755,3.919,3.919,3.919,3.919-1.755,3.919-3.919c0-1.153-.507-2.18-1.3-2.897l4.386-6.625c.358.108.731.183,1.124.183s.766-.076,1.124-.183l4.386,6.625c-.793.717-1.3,1.744-1.3,2.897,0,2.165,1.755,3.919,3.919,3.919s3.919-1.755,3.919-3.919-1.755-3.919-3.919-3.919Z"/>
        </g>
      </g>
      <g>
        <g>
          <path class="cls-16" d="m97.08,821c-10.975,0-19.903-8.929-19.903-19.903s8.929-19.903,19.903-19.903h27.85c10.975,0,19.903,8.929,19.903,19.903s-8.929,19.903-19.903,19.903h-27.85Z"/>
          <path class="cls-18" d="m124.93,782.194c10.423,0,18.903,8.48,18.903,18.903s-8.48,18.903-18.903,18.903h-27.851c-10.423,0-18.903-8.48-18.903-18.903s8.48-18.903,18.903-18.903h27.851m0-2h-27.851c-11.497,0-20.903,9.406-20.903,20.903h0c0,11.497,9.406,20.903,20.903,20.903h27.851c11.497,0,20.903-9.406,20.903-20.903h0c0-11.497-9.407-20.903-20.903-20.903h0Z"/>
        </g>
        <text class="cls-33" transform="translate(94.617 808.159)"><tspan class="cls-35" x="0" y="0">0</tspan><tspan class="cls-31" x="13.34" y="0">.</tspan><tspan class="cls-28" x="18.87" y="0">5</tspan></text>
        <text class="cls-20" transform="translate(160.575 809.443)"><tspan x="0" y="0">초 기다리기</tspan></text>
      </g>
    </g>
    <g>
      <path class="cls-26" d="m1124.04,711.04H127.556s-12.026,11.522-12.026,11.522l-12.603-11.522v-253.512c0-.43.509-.657.829-.37l11.752,10.538,12.387-11.471,984.504-.092c16.082,0,29.096-13.803,27.779-30.148-1.174-14.566-13.732-25.593-28.345-25.593H128.226s-11.292,10.396-11.292,10.396c-.708.652-1.797.654-2.507.004l-11.526-10.536.026-55.345,12.441,11.461,12.387-11.472,984.643-.091c16.083,0,29.098-13.806,27.779-30.152-1.175-14.565-13.733-25.591-28.346-25.591H101.038s-12.543,11.549-12.543,11.549l-12.023-10.98c-.238-.218-.622-.049-.622.274l.171,452.694,12.379,11.613,12.516-11.613h1023.57c8.969,0,16.191-7.482,15.764-16.545-.399-8.489-7.712-15.02-16.21-15.02Z"/>
      <text class="cls-20" transform="translate(1003.449 324.74)"><tspan x="0" y="0">이라면</tspan></text>
      <text class="cls-20" transform="translate(111.082 324.74)"><tspan x="0" y="0">만일</tspan></text>
      <path class="cls-10" d="m1130.146,317.136c.233,11.599-9.583,22.21-22.59,21.903-11.361-.268-21.522-9.45-21.508-22.104.014-12.581,10.427-22.278,22.629-21.994,11.969.279,21.786,10.209,21.47,22.194Z"/>
      <path class="cls-9" d="m1116.23,318.668c-.095,0-.185.021-.279.028l-4.684-7.075c.647-.892.943-2.055.623-3.302-.356-1.388-1.5-2.503-2.899-2.812-2.553-.562-4.81,1.366-4.81,3.821,0,.859.284,1.646.753,2.292l-4.684,7.075c-.094-.007-.183-.028-.279-.028-2.466,0-4.4,2.277-3.814,4.843.323,1.416,1.474,2.567,2.89,2.89,2.566.586,4.843-1.348,4.843-3.814,0-1.153-.507-2.18-1.3-2.897l4.386-6.625c.358.108.731.183,1.124.183s.766-.076,1.124-.183l4.386,6.625c-1.013.917-1.56,2.338-1.178,3.884.344,1.389,1.482,2.51,2.878,2.828,2.564.583,4.839-1.35,4.839-3.815,0-2.165-1.755-3.919-3.919-3.919Z"/>
      <text class="cls-20" transform="translate(131.123 439.434)"><tspan x="0" y="0">아니면</tspan></text>
    </g>
    <g>
      <g>
        <g>
          <polygon class="cls-13" points="191.967 335.948 176.441 316.045 191.967 296.141 972.203 296.141 987.73 316.045 972.203 335.948 191.967 335.948"/>
          <path class="cls-6" d="m971.715,297.141l14.747,18.903-14.747,18.903H192.455l-14.746-18.903,14.746-18.903h779.26m.976-2H191.479l-16.307,20.903,16.307,20.903h781.212l16.307-20.903-16.307-20.903h0Z"/>
        </g>
        <g>
          <polygon class="cls-13" points="205.161 335.948 189.634 316.045 205.161 296.141 506.45 296.141 521.976 316.045 506.45 335.948 205.161 335.948"/>
          <path class="cls-6" d="m505.962,297.141l14.747,18.903-14.747,18.903H205.649l-14.747-18.903,14.747-18.903h300.312m.977-2H204.673l-16.307,20.903,16.307,20.903h302.266l16.307-20.903-16.307-20.903h0Z"/>
        </g>
        <g>
          <polygon class="cls-13" points="658.982 335.948 643.455 316.045 658.982 296.141 955.843 296.141 971.369 316.045 955.843 335.948 658.982 335.948"/>
          <path class="cls-6" d="m955.354,297.141l14.747,18.903-14.747,18.903h-295.884l-14.747-18.903,14.747-18.903h295.884m.977-2h-297.837l-16.307,20.903,16.307,20.903h297.837l16.307-20.903-16.307-20.903h0Z"/>
        </g>
      </g>
      <g>
        <g>
          <path class="cls-11" d="m227.407,335.775c-10.975,0-19.903-8.929-19.903-19.903s8.929-19.903,19.903-19.903h145.279c10.975,0,19.903,8.929,19.903,19.903s-8.928,19.903-19.903,19.903h-145.279Z"/>
          <path class="cls-3" d="m372.686,296.968c10.423,0,18.903,8.48,18.903,18.903s-8.48,18.903-18.903,18.903h-145.279c-10.423,0-18.903-8.48-18.903-18.903s8.48-18.903,18.903-18.903h145.279m0-2h-145.279c-11.497,0-20.903,9.406-20.903,20.903h0c0,11.497,9.407,20.903,20.903,20.903h145.279c11.497,0,20.903-9.406,20.903-20.903h0c0-11.497-9.406-20.903-20.903-20.903h0Z"/>
        </g>
        <rect class="cls-3" x="221.988" y="296.388" width="120.049" height="38.968" rx="3.871" ry="3.871"/>
        <text class="cls-29" transform="translate(354.945 322.933)"><tspan x="0" y="0">값</tspan></text>
        <text class="cls-29" transform="translate(232.512 322.933)"><tspan x="0" y="0">교실 온도</tspan></text>
        <path class="cls-5" d="m326.343,311.194c1.503,0,3.006-.003,4.509.001.951.003,1.744.288,2.197,1.211.47.958.064,1.702-.534,2.425-1.451,1.754-2.859,3.543-4.343,5.268-1.318,1.533-2.389,1.523-3.72-.029-1.519-1.771-2.972-3.598-4.452-5.402-.521-.635-.812-1.313-.452-2.145.374-.865,1.045-1.293,1.954-1.309,1.614-.027,3.228-.008,4.842-.008v-.013Z"/>
      </g>
    </g>
    <g>
      <rect class="cls-6" x="856.767" y="296.065" width="30.968" height="39.613" rx="3.355" ry="3.355"/>
      <g>
        <path class="cls-16" d="m923.415,335.775c-10.975,0-19.903-8.929-19.903-19.903s8.928-19.903,19.903-19.903h9.747c10.975,0,19.903,8.929,19.903,19.903s-8.929,19.903-19.903,19.903h-9.747Z"/>
        <path class="cls-18" d="m933.162,296.968c10.423,0,18.903,8.48,18.903,18.903s-8.48,18.903-18.903,18.903h-9.748c-10.423,0-18.903-8.48-18.903-18.903s8.48-18.903,18.903-18.903h9.748m0-2h-9.748c-11.497,0-20.903,9.406-20.903,20.903h0c0,11.497,9.406,20.903,20.903,20.903h9.748c11.497,0,20.903-9.406,20.903-20.903h0c0-11.497-9.406-20.903-20.903-20.903h0Z"/>
      </g>
      <text class="cls-30" transform="translate(915.162 322.934)"><tspan x="0" y="0">27</tspan></text>
      <g>
        <line class="cls-25" x1="866.17" y1="321.431" x2="878.332" y2="321.431"/>
        <path class="cls-8" d="m866.553,314.228l11.779-6.235v2.169s-8.536,4.519-8.536,4.519l8.536,4.16v2.074s-11.737-5.719-11.737-5.719c-.55-.269-.57-.689-.042-.967Z"/>
      </g>
    </g>
    <g>
      <rect class="cls-6" x="535.752" y="297.205" width="93.677" height="39.613" rx="3.355" ry="3.355"/>
      <text class="cls-29" transform="translate(544.082 324.074)"><tspan x="0" y="0">그리고</tspan></text>
      <path class="cls-5" d="m612.261,312.333c1.503,0,3.006-.003,4.509.001.951.003,1.744.288,2.197,1.211.47.958.064,1.702-.534,2.425-1.451,1.754-2.859,3.543-4.343,5.268-1.318,1.533-2.389,1.523-3.72-.029-1.519-1.771-2.972-3.598-4.452-5.402-.521-.635-.812-1.313-.452-2.145.374-.865,1.045-1.293,1.954-1.309,1.614-.027,3.228-.008,4.842-.008v-.013Z"/>
    </g>
    <g>
      <g>
        <path class="cls-11" d="m681.139,335.775c-10.975,0-19.903-8.929-19.903-19.903s8.929-19.903,19.903-19.903h140.986c10.975,0,19.903,8.929,19.903,19.903s-8.929,19.903-19.903,19.903h-140.986Z"/>
        <path class="cls-3" d="m822.125,296.968c10.423,0,18.903,8.48,18.903,18.903s-8.48,18.903-18.903,18.903h-140.986c-10.423,0-18.903-8.48-18.903-18.903s8.48-18.903,18.903-18.903h140.986m0-2h-140.986c-11.497,0-20.903,9.406-20.903,20.903h0c0,11.497,9.406,20.903,20.903,20.903h140.986c11.497,0,20.903-9.406,20.903-20.903h0c0-11.497-9.406-20.903-20.903-20.903h0Z"/>
      </g>
      <rect class="cls-3" x="675.719" y="296.388" width="118.666" height="38.968" rx="3.871" ry="3.871"/>
      <text class="cls-29" transform="translate(807.293 322.93)"><tspan x="0" y="0">값</tspan></text>
      <text class="cls-29" transform="translate(686.243 322.93)"><tspan x="0" y="0">교실 온도</tspan></text>
      <path class="cls-5" d="m778.692,311.194c1.503,0,3.006-.003,4.509.001.951.003,1.744.288,2.197,1.211.47.958.064,1.702-.534,2.425-1.451,1.754-2.859,3.543-4.343,5.268-1.318,1.533-2.389,1.523-3.72-.029-1.519-1.771-2.972-3.598-4.452-5.402-.521-.635-.812-1.313-.452-2.145.374-.865,1.045-1.293,1.954-1.309,1.614-.027,3.228-.008,4.842-.008v-.013Z"/>
    </g>
    <g>
      <rect class="cls-6" x="405.428" y="296.065" width="30.968" height="39.613" rx="3.355" ry="3.355"/>
      <g>
        <path class="cls-16" d="m472.075,335.775c-10.975,0-19.903-8.929-19.903-19.903s8.928-19.903,19.903-19.903h9.748c10.975,0,19.903,8.929,19.903,19.903s-8.928,19.903-19.903,19.903h-9.748Z"/>
        <path class="cls-18" d="m481.822,296.968c10.423,0,18.903,8.48,18.903,18.903s-8.48,18.903-18.903,18.903h-9.747c-10.423,0-18.903-8.48-18.903-18.903s8.48-18.903,18.903-18.903h9.747m0-2h-9.747c-11.497,0-20.903,9.406-20.903,20.903h0c0,11.497,9.406,20.903,20.903,20.903h9.747c11.497,0,20.903-9.406,20.903-20.903h0c0-11.497-9.406-20.903-20.903-20.903h0Z"/>
      </g>
      <text class="cls-30" transform="translate(463.822 322.934)"><tspan x="0" y="0">18</tspan></text>
      <g>
        <line class="cls-25" x1="426.992" y1="321.431" x2="414.83" y2="321.431"/>
        <path class="cls-8" d="m426.61,314.228l-11.779-6.235v2.169s8.536,4.519,8.536,4.519l-8.536,4.16v2.074s11.737-5.719,11.737-5.719c.55-.269.57-.689.042-.967Z"/>
      </g>
    </g>
    <g>
      <path class="cls-24" d="m484.09,344.496H127.921l-12.543,11.548h0l-12.023-10.98c-.238-.218-.622-.049-.622.274v54.841l.171.168,11.328,10.345c.663.605,1.678.603,2.338-.004l10.91-10.045c.212-.195.49-.304.779-.304l355.832-.101c15.329,0,27.871-12.542,27.871-27.871s-12.542-27.871-27.871-27.871Z"/>
      <text class="cls-20" transform="translate(233.025 380.669) rotate(.173)"><tspan x="0" y="0">신호 보내고 기다리기</tspan></text>
      <g>
        <path class="cls-2" d="m198.704,352.723c17.877,0-2.315,0,15.562,0,2.815,0,6.335,2.426,6.336,6.934.003,8.742.003,17.483,0,26.225-.001,4.509-3.521,6.935-6.336,6.935-35.754,0-38.44-.025-74.194.059-2.308.005-6.351-2.765-6.335-6.91.033-8.797.033-17.595,0-26.392-.015-4.145,4.027-6.926,6.335-6.912,17.877.11,40.755.061,58.632.061Z"/>
        <text class="cls-21" transform="translate(144.116 380.607)"><tspan x="0" y="0">1구간</tspan></text>
        <path class="cls-5" d="m205.369,368.871c1.503,0,3.006-.003,4.509.001.951.003,1.744.288,2.197,1.211.47.958.064,1.702-.534,2.425-1.451,1.754-2.859,3.543-4.343,5.268-1.318,1.533-2.389,1.523-3.72-.029-1.519-1.771-2.972-3.598-4.452-5.402-.521-.635-.812-1.313-.452-2.145.374-.865,1.045-1.293,1.954-1.309,1.614-.027,3.228-.008,4.842-.008v-.013Z"/>
      </g>
      <g>
        <path class="cls-2" d="m458.34,372.37c.085-12.114,9.79-22.01,22.342-21.937,12.159.071,22.178,9.883,21.961,22.471-.203,11.764-9.754,21.773-22.498,21.598-12.042-.166-21.794-9.762-21.805-22.132Z"/>
        <g>
          <path class="cls-4" d="m492.724,367.148c0,1.542-.008,3.085.003,4.627.007.98-.264,1.487-1.38,1.043-2.268-.902-4.509-.654-6.762.172-1.828.67-3.715,1.034-5.658.417-.884-.281-1.324-.78-1.303-1.8.062-3.028.029-6.059.018-9.089-.004-1.006.123-1.673,1.394-1.023,1.992,1.019,3.969.447,5.902-.261,2.224-.814,4.426-1.176,6.743-.28.829.321,1.084.737,1.057,1.566-.05,1.541-.014,3.084-.015,4.627Z"/>
          <path class="cls-4" d="m476.088,371.351c0,3.197.023,6.395-.016,9.592-.01.805.134,1.195,1.061,1.136,1.142-.072,2.005.452,1.928,1.706-.072,1.164-.992,1.47-2.018,1.474-1.655.007-3.309.007-4.964,0-1.047-.005-1.902-.364-1.951-1.54-.05-1.196.799-1.68,1.838-1.632,1.034.048,1.134-.418,1.13-1.268-.03-5.898-.016-11.797-.015-17.695,0-.441.007-.882,0-1.323-.018-1.057.309-1.93,1.507-1.952,1.222-.022,1.511.85,1.507,1.911-.014,3.197-.005,6.394-.005,9.592Z"/>
        </g>
      </g>
    </g>
    <g>
      <g>
        <path class="cls-26" d="m1142.256,679.393H154.773s-10.639,9.784-10.639,9.784c-.795.731-2.014.745-2.826.032l-11.165-9.816v-54.795c0-.43.509-.657.829-.37l11.752,10.538,12.387-11.471,975.503-.092c16.082,0,29.096-13.803,27.779-30.148-1.174-14.566-13.732-25.593-28.345-25.593H155.443s-11.292,10.396-11.292,10.396c-.708.652-1.797.654-2.507.004l-11.526-10.536.026-55.345,12.441,11.461,12.387-11.472,975.642-.091c16.083,0,29.098-13.806,27.779-30.152-1.175-14.565-13.733-25.591-28.346-25.591H128.255s-12.543,11.549-12.543,11.549l-12.023-10.98c-.238-.218-.622-.049-.622.274l.171,253.977,12.379,11.613,12.516-11.613h1014.569c8.969,0,16.191-7.482,15.764-16.545-.399-8.489-7.712-15.02-16.21-15.02Z"/>
        <text class="cls-20" transform="translate(1021.666 491.81)"><tspan x="0" y="0">이라면</tspan></text>
        <text class="cls-20" transform="translate(138.299 491.81)"><tspan x="0" y="0">만일</tspan></text>
        <path class="cls-10" d="m1148.362,484.205c.233,11.599-9.583,22.21-22.59,21.903-11.361-.268-21.522-9.45-21.508-22.104.014-12.581,10.427-22.278,22.629-21.994,11.969.279,21.786,10.209,21.47,22.194Z"/>
        <path class="cls-9" d="m1134.446,485.737c-.095,0-.185.021-.279.028l-4.684-7.075c.647-.892.943-2.055.623-3.302-.356-1.388-1.5-2.503-2.899-2.812-2.553-.562-4.81,1.366-4.81,3.821,0,.859.284,1.646.753,2.292l-4.684,7.075c-.094-.007-.183-.028-.279-.028-2.466,0-4.4,2.277-3.814,4.843.323,1.416,1.474,2.567,2.89,2.89,2.566.586,4.843-1.348,4.843-3.814,0-1.153-.507-2.18-1.3-2.897l4.386-6.625c.358.108.731.183,1.124.183s.766-.076,1.124-.183l4.386,6.625c-1.013.917-1.56,2.338-1.178,3.884.344,1.389,1.482,2.51,2.878,2.828,2.564.583,4.839-1.35,4.839-3.815,0-2.165-1.755-3.919-3.919-3.919Z"/>
        <text class="cls-20" transform="translate(158.34 606.503)"><tspan x="0" y="0">아니면</tspan></text>
      </g>
      <g>
        <g>
          <g>
            <polygon class="cls-13" points="219.185 503.018 203.658 483.114 219.185 463.211 990.419 463.211 1005.946 483.114 990.419 503.018 219.185 503.018"/>
            <path class="cls-6" d="m989.931,464.211l14.746,18.903-14.746,18.903H219.673l-14.746-18.903,14.746-18.903h770.259m.976-2H218.696l-16.306,20.903,16.306,20.903h772.212l16.306-20.903-16.306-20.903h0Z"/>
          </g>
          <g>
            <polygon class="cls-13" points="232.378 503.018 216.851 483.114 232.378 463.211 524.666 463.211 540.193 483.114 524.666 503.018 232.378 503.018"/>
            <path class="cls-6" d="m524.178,464.211l14.746,18.903-14.746,18.903H232.866l-14.746-18.903,14.746-18.903h291.312m.977-2H231.889l-16.306,20.903,16.306,20.903h293.265l16.306-20.903-16.306-20.903h0Z"/>
          </g>
          <g>
            <polygon class="cls-13" points="677.198 503.018 661.672 483.114 677.198 463.211 974.059 463.211 989.585 483.114 974.059 503.018 677.198 503.018"/>
            <path class="cls-6" d="m973.571,464.211l14.746,18.903-14.746,18.903h-295.885l-14.746-18.903,14.746-18.903h295.885m.976-2h-297.837l-16.306,20.903,16.306,20.903h297.837l16.306-20.903-16.306-20.903h0Z"/>
          </g>
        </g>
        <g>
          <g>
            <path class="cls-11" d="m254.624,502.845c-10.975,0-19.903-8.929-19.903-19.903s8.928-19.903,19.903-19.903h145.279c10.975,0,19.903,8.929,19.903,19.903s-8.929,19.903-19.903,19.903h-145.279Z"/>
            <path class="cls-3" d="m399.903,464.038c10.423,0,18.903,8.48,18.903,18.903s-8.48,18.903-18.903,18.903h-145.279c-10.423,0-18.903-8.48-18.903-18.903s8.48-18.903,18.903-18.903h145.279m0-2h-145.279c-11.497,0-20.903,9.406-20.903,20.903s9.406,20.903,20.903,20.903h145.279c11.497,0,20.903-9.406,20.903-20.903s-9.407-20.903-20.903-20.903h0Z"/>
          </g>
          <rect class="cls-3" x="249.205" y="463.457" width="120.049" height="38.968" rx="3.871" ry="3.871"/>
          <text class="cls-29" transform="translate(382.162 490.003)"><tspan x="0" y="0">값</tspan></text>
          <text class="cls-29" transform="translate(259.729 490.003)"><tspan x="0" y="0">교실 온도</tspan></text>
          <path class="cls-5" d="m353.56,478.264c1.503,0,3.006-.003,4.509.001.951.003,1.744.288,2.197,1.211.47.958.064,1.702-.534,2.425-1.451,1.754-2.859,3.543-4.343,5.268-1.318,1.533-2.389,1.523-3.72-.029-1.519-1.771-2.972-3.598-4.452-5.402-.521-.635-.812-1.313-.452-2.145.374-.865,1.045-1.293,1.954-1.309,1.614-.027,3.228-.008,4.842-.008v-.013Z"/>
        </g>
      </g>
      <g>
        <rect class="cls-6" x="874.983" y="463.135" width="30.968" height="39.613" rx="3.355" ry="3.355"/>
        <g>
          <path class="cls-16" d="m941.631,502.845c-10.975,0-19.903-8.929-19.903-19.903s8.929-19.903,19.903-19.903h9.748c10.975,0,19.903,8.929,19.903,19.903s-8.928,19.903-19.903,19.903h-9.748Z"/>
          <path class="cls-18" d="m951.378,464.038c10.423,0,18.903,8.48,18.903,18.903s-8.48,18.903-18.903,18.903h-9.748c-10.423,0-18.903-8.48-18.903-18.903s8.48-18.903,18.903-18.903h9.748m0-2h-9.748c-11.497,0-20.903,9.406-20.903,20.903s9.406,20.903,20.903,20.903h9.748c11.497,0,20.903-9.406,20.903-20.903s-9.406-20.903-20.903-20.903h0Z"/>
        </g>
        <text class="cls-30" transform="translate(933.378 490.004)"><tspan x="0" y="0">17</tspan></text>
        <g>
          <line class="cls-25" x1="884.386" y1="488.501" x2="896.549" y2="488.501"/>
          <path class="cls-8" d="m884.769,481.298l11.779-6.235v2.169s-8.536,4.519-8.536,4.519l8.536,4.16v2.074s-11.737-5.719-11.737-5.719c-.55-.269-.57-.689-.042-.967Z"/>
        </g>
      </g>
      <g>
        <rect class="cls-6" x="553.968" y="464.275" width="93.677" height="39.613" rx="3.355" ry="3.355"/>
        <text class="cls-29" transform="translate(562.299 491.144)"><tspan x="0" y="0">그리고</tspan></text>
        <path class="cls-5" d="m630.478,479.403c1.503,0,3.006-.003,4.509.001.951.003,1.744.288,2.197,1.211.47.958.064,1.702-.534,2.425-1.451,1.754-2.859,3.543-4.343,5.268-1.318,1.533-2.389,1.523-3.72-.029-1.519-1.771-2.972-3.598-4.452-5.402-.521-.635-.812-1.313-.452-2.145.374-.865,1.045-1.293,1.954-1.309,1.614-.027,3.228-.008,4.842-.008v-.013Z"/>
      </g>
      <g>
        <g>
          <path class="cls-11" d="m699.355,502.845c-10.975,0-19.903-8.929-19.903-19.903s8.929-19.903,19.903-19.903h140.986c10.975,0,19.903,8.929,19.903,19.903s-8.928,19.903-19.903,19.903h-140.986Z"/>
          <path class="cls-3" d="m840.341,464.038c10.423,0,18.903,8.48,18.903,18.903s-8.48,18.903-18.903,18.903h-140.986c-10.423,0-18.903-8.48-18.903-18.903s8.48-18.903,18.903-18.903h140.986m0-2h-140.986c-11.497,0-20.903,9.406-20.903,20.903s9.406,20.903,20.903,20.903h140.986c11.497,0,20.903-9.406,20.903-20.903s-9.407-20.903-20.903-20.903h0Z"/>
        </g>
        <rect class="cls-3" x="693.936" y="463.457" width="118.666" height="38.968" rx="3.871" ry="3.871"/>
        <text class="cls-29" transform="translate(825.509 490)"><tspan x="0" y="0">값</tspan></text>
        <text class="cls-29" transform="translate(704.46 490)"><tspan x="0" y="0">교실 온도</tspan></text>
        <path class="cls-5" d="m796.908,478.264c1.503,0,3.006-.003,4.509.001.951.003,1.744.288,2.197,1.211.47.958.064,1.702-.534,2.425-1.451,1.754-2.859,3.543-4.343,5.268-1.318,1.533-2.389,1.523-3.72-.029-1.519-1.771-2.972-3.598-4.452-5.402-.521-.635-.812-1.313-.452-2.145.374-.865,1.045-1.293,1.954-1.309,1.614-.027,3.228-.008,4.842-.008v-.013Z"/>
      </g>
      <g>
        <rect class="cls-6" x="432.645" y="463.135" width="30.968" height="39.613" rx="3.355" ry="3.355"/>
        <g>
          <path class="cls-16" d="m499.292,502.845c-10.975,0-19.903-8.929-19.903-19.903s8.928-19.903,19.903-19.903h.747c10.975,0,19.903,8.929,19.903,19.903s-8.928,19.903-19.903,19.903h-.747Z"/>
          <path class="cls-18" d="m500.039,464.038c10.423,0,18.903,8.48,18.903,18.903s-8.48,18.903-18.903,18.903h-.747c-10.423,0-18.903-8.48-18.903-18.903s8.48-18.903,18.903-18.903h.747m0-2h-.747c-11.497,0-20.903,9.406-20.903,20.903s9.407,20.903,20.903,20.903h.747c11.497,0,20.903-9.406,20.903-20.903s-9.406-20.903-20.903-20.903h0Z"/>
        </g>
        <text class="cls-30" transform="translate(493.039 490.004)"><tspan x="0" y="0">8</tspan></text>
        <g>
          <line class="cls-25" x1="454.209" y1="488.501" x2="442.047" y2="488.501"/>
          <path class="cls-8" d="m453.827,481.298l-11.779-6.235v2.169s8.536,4.519,8.536,4.519l-8.536,4.16v2.074s11.737-5.719,11.737-5.719c.55-.269.57-.689.042-.967Z"/>
        </g>
      </g>
    </g>
    <g>
      <path class="cls-23" d="m514.504,511.904H155.335l-12.543,11.548h0l-12.023-10.98c-.238-.218-.622-.049-.622.274v54.841l.171.168,11.328,10.345c.663.605,1.678.603,2.338-.004l10.91-10.045c.212-.195.49-.304.779-.304l358.832-.101c15.329,0,27.871-12.542,27.871-27.871s-12.542-27.871-27.871-27.871Z"/>
      <text class="cls-20" transform="translate(263.439 548.078) rotate(.173)"><tspan x="0" y="0">신호 보내고 기다리기</tspan></text>
      <g>
        <path class="cls-2" d="m229.118,520.131c17.877,0-2.315,0,15.562,0,2.815,0,6.335,2.426,6.336,6.934.003,8.742.003,17.483,0,26.225-.001,4.509-3.521,6.935-6.336,6.935-35.754,0-41.44-.025-77.194.059-2.308.005-6.351-2.765-6.335-6.91.033-8.797.033-17.595,0-26.392-.015-4.145,4.027-6.926,6.335-6.912,17.877.11,43.755.061,61.632.061Z"/>
        <text class="cls-21" transform="translate(171.53 548.015)"><tspan x="0" y="0">2구간</tspan></text>
        <path class="cls-5" d="m235.784,536.28c1.503,0,3.006-.003,4.509.001.951.003,1.744.288,2.197,1.211.47.958.064,1.702-.534,2.425-1.451,1.754-2.859,3.543-4.343,5.268-1.318,1.533-2.389,1.523-3.72-.029-1.519-1.771-2.972-3.598-4.452-5.402-.521-.635-.812-1.313-.452-2.145.374-.865,1.045-1.293,1.954-1.309,1.614-.027,3.228-.008,4.842-.008v-.013Z"/>
      </g>
      <g>
        <path class="cls-2" d="m488.755,539.778c.085-12.114,9.79-22.01,22.342-21.937,12.159.071,22.178,9.883,21.961,22.471-.203,11.764-9.754,21.773-22.498,21.598-12.042-.166-21.794-9.762-21.805-22.132Z"/>
        <g>
          <path class="cls-4" d="m523.139,534.556c0,1.542-.008,3.085.003,4.627.007.98-.264,1.487-1.38,1.043-2.268-.902-4.509-.654-6.762.172-1.828.67-3.715,1.034-5.658.417-.884-.281-1.324-.78-1.303-1.8.062-3.028.029-6.059.018-9.089-.004-1.006.123-1.673,1.394-1.023,1.992,1.019,3.969.447,5.902-.261,2.224-.814,4.426-1.176,6.743-.28.829.321,1.084.737,1.057,1.566-.05,1.541-.014,3.084-.015,4.627Z"/>
          <path class="cls-4" d="m506.503,538.759c0,3.197.023,6.395-.016,9.592-.01.805.134,1.195,1.061,1.136,1.142-.072,2.005.452,1.928,1.706-.072,1.164-.992,1.47-2.018,1.474-1.655.007-3.309.007-4.964,0-1.047-.005-1.902-.364-1.951-1.54-.05-1.196.799-1.68,1.838-1.632,1.034.048,1.134-.418,1.13-1.268-.03-5.898-.016-11.797-.015-17.695,0-.441.007-.882,0-1.323-.018-1.057.309-1.93,1.507-1.952,1.222-.022,1.511.85,1.507,1.911-.014,3.197-.005,6.394-.005,9.592Z"/>
        </g>
      </g>
    </g>
    <g>
      <path class="cls-24" d="m515.504,623.311H155.335l-12.543,11.548h0l-12.023-10.98c-.238-.218-.622-.049-.622.274v54.841l.171.168,11.328,10.345c.663.605,1.678.603,2.338-.004l10.91-10.045c.212-.195.49-.304.779-.304l359.833-.101c15.329,0,27.871-12.542,27.871-27.871s-12.542-27.871-27.871-27.871Z"/>
      <text class="cls-20" transform="translate(264.439 659.485) rotate(.173)"><tspan x="0" y="0">신호 보내고 기다리기</tspan></text>
      <g>
        <path class="cls-2" d="m230.118,631.538c17.877,0-2.315,0,15.562,0,2.815,0,6.335,2.426,6.336,6.934.003,8.742.003,17.483,0,26.225-.001,4.509-3.521,6.935-6.336,6.935-35.754,0-42.44-.025-78.195.059-2.308.005-6.351-2.765-6.335-6.91.033-8.797.033-17.595,0-26.392-.015-4.145,4.027-6.926,6.335-6.912,17.877.11,44.755.061,62.632.061Z"/>
        <text class="cls-21" transform="translate(171.53 659.422)"><tspan x="0" y="0">3구간</tspan></text>
        <path class="cls-5" d="m236.784,647.687c1.503,0,3.006-.003,4.509.001.951.003,1.744.288,2.197,1.211.47.958.064,1.702-.534,2.425-1.451,1.754-2.859,3.543-4.343,5.268-1.318,1.533-2.389,1.523-3.72-.029-1.519-1.771-2.972-3.598-4.452-5.402-.521-.635-.812-1.313-.452-2.145.374-.865,1.045-1.293,1.954-1.309,1.614-.027,3.228-.008,4.842-.008v-.013Z"/>
      </g>
      <g>
        <path class="cls-2" d="m489.755,651.185c.085-12.114,9.79-22.01,22.342-21.937,12.159.071,22.178,9.883,21.961,22.471-.203,11.764-9.754,21.773-22.498,21.598-12.042-.166-21.794-9.762-21.805-22.132Z"/>
        <g>
          <path class="cls-4" d="m524.139,645.964c0,1.542-.008,3.085.003,4.627.007.98-.264,1.487-1.38,1.043-2.268-.902-4.509-.654-6.762.172-1.828.67-3.715,1.034-5.658.417-.884-.281-1.324-.78-1.303-1.8.062-3.028.029-6.059.018-9.089-.004-1.006.123-1.673,1.394-1.023,1.992,1.019,3.969.447,5.902-.261,2.224-.814,4.426-1.176,6.743-.28.829.321,1.084.737,1.057,1.566-.05,1.541-.014,3.084-.015,4.627Z"/>
          <path class="cls-4" d="m507.503,650.166c0,3.197.023,6.395-.016,9.592-.01.805.134,1.195,1.061,1.136,1.142-.072,2.005.452,1.928,1.706-.072,1.164-.992,1.47-2.018,1.474-1.655.007-3.309.007-4.964,0-1.047-.005-1.902-.364-1.951-1.54-.05-1.196.799-1.68,1.838-1.632,1.034.048,1.134-.418,1.13-1.268-.03-5.898-.016-11.797-.015-17.695,0-.441.007-.882,0-1.323-.018-1.057.309-1.93,1.507-1.952,1.222-.022,1.511.85,1.507,1.911-.014,3.197-.005,6.394-.005,9.592Z"/>
        </g>
      </g>
    </g>
    <g>
      <g>
        <path class="cls-27" d="m535.606,177.337H74.159s0,0,0,0l-12.543,11.548s0,0,0,0l-12.023-10.98c-.238-.218-.622-.049-.622.274v54.741c0,.047.011.092.028.135h-.003l.004.004c.02.048.048.093.087.13h.056l11.328,10.345c.663.605,1.678.603,2.338-.005l10.91-10.045c.212-.195.49-.304.779-.304l461.111-.101c15.329,0,27.871-12.542,27.871-27.871h0c0-15.329-12.542-27.871-27.871-27.871Z"/>
        <g>
          <path class="cls-7" d="m556.555,205.252c.233,11.599-9.583,22.21-22.59,21.903-11.361-.268-21.522-9.45-21.508-22.104.014-12.581,10.427-22.278,22.629-21.994,11.969.279,21.786,10.209,21.47,22.194Z"/>
          <path class="cls-17" d="m534.823,195.089c1.421.066,3.283.498,4.796,1.905,2.464,2.29,2.614,5.317.342,7.812-.823.903-1.728,1.735-2.634,2.558-.847.769-1.497,1.641-1.723,2.78-.285,1.438-1.202,2.017-2.552,1.624-1.294-.377-1.297-1.572-1.154-2.621.299-2.203,1.86-3.593,3.427-4.952.334-.29.717-.537.999-.87,1.487-1.758,1.36-3.4-.321-4.537-1.47-.995-3.897-.403-4.808,1.208-.326.577-.531,1.221-.815,1.823-.524,1.11-1.42,1.65-2.58,1.204-1.144-.44-1.405-1.351-1.1-2.592.769-3.131,3.806-5.339,8.123-5.343Z"/>
          <path class="cls-15" d="m533.797,217.804c-1.271-.012-2.113-.925-2.059-2.258.054-1.311.741-2.044,2.063-2.095,1.32-.051,2.369,1,2.32,2.267-.048,1.226-1.02,2.098-2.324,2.086Z"/>
        </g>
      </g>
      <g>
        <path class="cls-3" d="m80.204,191.477v27.721c0,3.45,2.808,6.244,6.257,6.235,25.312-.061,81.118-.046,106.443-.044,3.444,0,6.242-2.791,6.242-6.235v-27.63c0-3.441-2.787-6.231-6.228-6.235l-106.472-.046c-3.447-.004-6.243,2.789-6.243,6.235Z"/>
        <text class="cls-21" transform="translate(90.583 213.177)"><tspan x="0" y="0">교실 온도</tspan></text>
        <path class="cls-5" d="m185.568,201.444c1.503,0,3.006-.003,4.509.001.951.003,1.744.288,2.197,1.211.47.958.064,1.702-.534,2.425-1.451,1.754-2.859,3.543-4.343,5.268-1.318,1.533-2.389,1.523-3.72-.029-1.519-1.771-2.972-3.598-4.452-5.402-.521-.635-.812-1.313-.452-2.145.374-.865,1.045-1.293,1.954-1.309,1.614-.027,3.228-.008,4.842-.008v-.013Z"/>
      </g>
      <text class="cls-22" transform="translate(214.966 213.687)"><tspan x="0" y="0">을(를)</tspan></text>
      <text class="cls-22" transform="translate(367.429 213.687)"><tspan x="0" y="0">(으)로정하기</tspan></text>
      <g>
        <g>
          <path class="cls-12" d="m354.234,196.489c-3.978-8.028-10.585-12.205-19.692-12.204l-23.634.017c-13.365.1-23.308,12.743-20.298,25.728,2.245,9.683,10.748,16.352,20.919,16.354l22.63.007c1.562,0,3.108-.072,4.657-.328,13.443-2.215,21.457-17.384,15.417-29.573Z"/>
          <path class="cls-14" d="m321.774,186.293c42.548,0-29.54-.003,13.008.003,9.346.001,16.7,5.774,18.918,14.808,2.597,10.582-4.706,21.37-15.534,23.016-1.222.186-2.431.263-3.655.263-85.04,0,62.236.002-22.804,0-11.651,0-20.056-8.798-19.553-20.436.36-8.321,7.473-16.158,15.669-17.363,1.445-.212,2.876-.287,4.323-.287,42.437-.001-32.807,0,9.629,0Z"/>
        </g>
        <text class="cls-34" transform="translate(304.511 210.654)"><tspan x="0" y="0">온도</tspan></text>
      </g>
    </g>
    <g>
      <path class="cls-26" d="m585.038,742.264l-483.897.255-12.741,11.698-12.507-11.954v-452.98l12.441,11.461,12.387-11.471,472.228-.091c16.083,0,29.098-13.806,27.779-30.151-1.175-14.565-13.733-25.591-28.345-25.591H74.004l-12.415,10.542-11.826-9.974c-.564-.217-.948-.048-.948.274l.171,539.546,12.379,11.613,12.516-11.613h511.155c8.716,0,15.782-7.066,15.782-15.783s-7.066-15.783-15.782-15.783Z"/>
      <g>
        <path class="cls-10" d="m590.697,261.356c.233,11.599-9.583,22.21-22.59,21.903-11.361-.268-21.522-9.45-21.508-22.104.014-12.581,10.427-22.278,22.629-21.994,11.969.279,21.786,10.209,21.47,22.194Z"/>
        <path class="cls-9" d="m576.781,262.888c-.095,0-.185.021-.279.028l-4.684-7.075c.647-.892.942-2.055.623-3.302-.356-1.388-1.5-2.504-2.899-2.812-2.553-.562-4.81,1.366-4.81,3.821,0,.859.284,1.646.753,2.292l-4.684,7.075c-.094-.007-.183-.028-.279-.028-2.466,0-4.4,2.277-3.814,4.843.323,1.416,1.474,2.567,2.89,2.89,2.566.586,4.843-1.348,4.843-3.814,0-1.153-.507-2.18-1.3-2.897l4.386-6.625c.358.108.731.183,1.124.183s.766-.076,1.124-.183l4.386,6.625c-1.013.917-1.56,2.338-1.178,3.884.344,1.389,1.482,2.51,2.877,2.828,2.564.583,4.839-1.35,4.839-3.815,0-2.165-1.755-3.919-3.919-3.919Z"/>
      </g>
      <text class="cls-20" transform="translate(85.923 269.112)"><tspan x="0" y="0">만일</tspan></text>
      <text class="cls-20" transform="translate(443.311 269.112)"><tspan x="0" y="0">(이)라면</tspan></text>
    </g>
    <g>
      <g>
        <polygon class="cls-13" points="162.628 280.848 147.101 260.945 162.628 241.042 411.158 241.042 426.684 260.945 411.158 280.848 162.628 280.848"/>
        <path class="cls-6" d="m410.67,242.042l14.746,18.903-14.746,18.903h-247.554l-14.746-18.903,14.746-18.903h247.554m.977-2h-249.507l-16.306,20.903,16.306,20.903h249.507l16.306-20.903-16.306-20.903h0Z"/>
      </g>
      <g>
        <g>
          <path class="cls-11" d="m183.841,280.848c-10.975,0-19.903-8.929-19.903-19.903s8.929-19.903,19.903-19.903h102.943c10.975,0,19.903,8.929,19.903,19.903s-8.929,19.903-19.903,19.903h-102.943Z"/>
          <path class="cls-3" d="m286.784,242.042c10.423,0,18.903,8.48,18.903,18.903s-8.48,18.903-18.903,18.903h-102.943c-10.423,0-18.903-8.48-18.903-18.903s8.48-18.903,18.903-18.903h102.943m0-2h-102.943c-11.497,0-20.903,9.406-20.903,20.903h0c0,11.497,9.406,20.903,20.903,20.903h102.943c11.497,0,20.903-9.406,20.903-20.903h0c0-11.497-9.406-20.903-20.903-20.903h0Z"/>
        </g>
        <rect class="cls-3" x="178.422" y="241.461" width="77.713" height="38.968" rx="3.871" ry="3.871"/>
        <text class="cls-29" transform="translate(269.042 268.006)"><tspan x="0" y="0">값</tspan></text>
        <text class="cls-29" transform="translate(188.946 268.006)"><tspan x="0" y="0">상태</tspan></text>
        <path class="cls-5" d="m240.441,256.267c1.503,0,3.006-.003,4.509.001.951.003,1.744.288,2.197,1.211.47.958.064,1.702-.534,2.425-1.451,1.754-2.859,3.543-4.343,5.268-1.318,1.533-2.389,1.523-3.72-.029-1.519-1.771-2.972-3.598-4.452-5.402-.521-.635-.812-1.313-.452-2.145.374-.865,1.045-1.293,1.954-1.309,1.614-.027,3.228-.008,4.842-.008v-.013Z"/>
      </g>
      <g>
        <rect class="cls-6" x="322.381" y="241.138" width="30.968" height="39.613" rx="3.355" ry="3.355"/>
        <g>
          <path class="cls-16" d="m389.028,280.848c-10.975,0-19.903-8.929-19.903-19.903s8.928-19.903,19.903-19.903h.382c10.975,0,19.903,8.929,19.903,19.903s-8.928,19.903-19.903,19.903h-.382Z"/>
          <path class="cls-18" d="m389.41,242.042c10.423,0,18.903,8.48,18.903,18.903s-8.48,18.903-18.903,18.903h-.382c-10.423,0-18.903-8.48-18.903-18.903s8.48-18.903,18.903-18.903h.382m0-2h-.382c-11.497,0-20.903,9.406-20.903,20.903h0c0,11.497,9.406,20.903,20.903,20.903h.382c11.497,0,20.903-9.406,20.903-20.903h0c0-11.497-9.406-20.903-20.903-20.903h0Z"/>
        </g>
        <text class="cls-30" transform="translate(383.776 268.008)"><tspan x="0" y="0">1</tspan></text>
        <text class="cls-32" transform="translate(330.755 266.505)"><tspan x="0" y="0">=</tspan></text>
      </g>
    </g>
  </g>
  <path class="cls-8" d="m354.234,196.489c-3.979-8.028-10.585-12.205-19.692-12.204l-23.634.017c-13.365.1-23.308,12.743-20.298,25.728,2.245,9.683,10.748,16.352,20.919,16.354l22.63.007c1.562,0,3.108-.072,4.657-.328,13.443-2.215,21.457-17.384,15.417-29.573Z"/>
  <rect class="cls-8" x="368.125" y="240.042" width="42.188" height="41.806" rx="20.903" ry="20.903"/>
  <rect class="cls-8" x="405.428" y="296.065" width="30.968" height="39.613" rx="3.355" ry="3.355"/>
  <rect class="cls-8" x="432.645" y="463.135" width="30.968" height="39.613" rx="3.355" ry="3.355"/>
  <rect class="cls-8" x="535.752" y="297.205" width="93.677" height="39.613" rx="3.355" ry="3.355"/>
  <rect class="cls-8" x="553.968" y="464.275" width="93.677" height="39.613" rx="3.355" ry="3.355"/>
  <rect class="cls-8" x="856.767" y="296.065" width="30.968" height="39.613" rx="3.355" ry="3.355"/>
  <rect class="cls-8" x="874.983" y="463.135" width="30.968" height="39.613" rx="3.355" ry="3.355"/>
</svg>