<?xml version="1.0" encoding="UTF-8"?>
<svg id="_레이어_1" data-name="레이어 1" xmlns="http://www.w3.org/2000/svg" viewBox="0 0 380.764 131.196">
  <defs>
    <style>
      .cls-1, .cls-2, .cls-3, .cls-4, .cls-5, .cls-6 {
        stroke-width: 0px;
      }

      .cls-1, .cls-7, .cls-8 {
        fill: #fefefe;
      }

      .cls-2 {
        fill: #009400;
      }

      .cls-3 {
        fill: #c62042;
      }

      .cls-9 {
        fill: #fe3a61;
        stroke: #c62142;
        stroke-linecap: round;
        stroke-linejoin: round;
        stroke-width: 2px;
      }

      .cls-7, .cls-8 {
        font-family: Pretendard-Bold-KSCpc-EUC-H, Pretendard;
        font-size: 26px;
        font-weight: 700;
      }

      .cls-8 {
        letter-spacing: -.025em;
      }

      .cls-4 {
        fill: #f2f2f2;
      }

      .cls-5 {
        fill: #fe5576;
      }

      .cls-6 {
        fill: #00b300;
      }
    </style>
  </defs>
  <g>
    <g>
      <path class="cls-6" d="m21.639,65.056s-5.2-2.719-7.532-4.568c-7.301-5.786-11.647-13.18-12.825-22.461C.211,29.585,2.193,21.881,7.066,15.042,12.681,7.163,20.381,2.466,30.1,1.277c9.447-1.156,17.928,1.343,25.093,7.428,2.309,1.961,4.441,2.392,7.168,2.399,81.918.211,208.299.465,290.217.713,13.081.04,24.448,9.349,26.741,22.14,2.77,15.451-7.86,29.794-23.175,31.684-.205.025-.396.168-.594.256-.891.016-1.782.048-2.673.045-87.321-.261-217.679-.521-304.556-.82-.618-.002-1.189.276-1.6.738-3.002,3.368-7.553,6.555-10.8,9.874-.791.809-1.254.903-2.094.031-3.131-3.25-7.215-6.419-10.402-9.615-.505-.507-1.787-1.095-1.787-1.095Z"/>
      <path class="cls-2" d="m34.858,77.381h-.007c-.761-.003-1.331-.494-1.743-.922-1.629-1.691-3.568-3.401-5.442-5.054-1.684-1.485-3.426-3.021-4.947-4.548-.256-.257-1.045-.685-1.497-.893l-.046-.022c-.216-.113-5.311-2.784-7.69-4.67C5.915,55.272,1.475,47.493.29,38.153c-1.095-8.632.911-16.603,5.962-23.691C12.092,6.266,20.075,1.496,29.978.284c9.769-1.195,18.471,1.381,25.862,7.659,2.119,1.799,3.996,2.155,6.523,2.161,31.289.081,69.063.167,108.37.258,63.604.146,131.218.302,181.847.455,13.686.042,25.345,9.7,27.723,22.964,1.389,7.748-.392,15.468-5.015,21.738-4.586,6.22-11.341,10.167-19.021,11.115.029,0-.012.026-.054.048-.084.046-.169.091-.255.129l-.186.083-1.036.022c-.621.014-1.239.03-1.861.027-36.774-.11-81.182-.219-126.76-.332-62.686-.155-127.507-.315-177.797-.488h-.003c-.314,0-.616.143-.848.403-1.688,1.895-3.855,3.735-5.95,5.514-1.692,1.438-3.442,2.924-4.88,4.394-.458.469-1.028.948-1.779.948Zm-12.776-13.223c.291.135,1.47.701,2.053,1.287,1.477,1.481,3.194,2.995,4.854,4.46,1.904,1.68,3.874,3.417,5.56,5.167.149.155.249.236.309.278.064-.045.174-.135.35-.314,1.502-1.536,3.289-3.053,5.016-4.52,2.043-1.735,4.156-3.529,5.752-5.321.608-.682,1.461-1.072,2.341-1.072h.009c50.29.173,115.11.333,177.795.488,45.579.113,89.986.222,126.761.332.608-.002,1.206-.013,1.808-.027l.611-.013c.179-.096.417-.216.723-.254,7.129-.879,13.4-4.543,17.657-10.317,4.293-5.823,5.947-12.997,4.656-20.198-2.207-12.312-13.041-21.277-25.76-21.316-50.629-.153-118.242-.309-181.846-.455-39.307-.09-77.082-.177-108.371-.258-2.834-.007-5.248-.458-7.813-2.637-6.947-5.901-15.131-8.324-24.324-7.198C20.898,3.41,13.382,7.903,7.881,15.622c-4.75,6.666-6.636,14.162-5.606,22.278,1.132,8.928,5.206,16.06,12.454,21.804,2.159,1.711,6.989,4.262,7.353,4.454Z"/>
    </g>
    <text class="cls-7" transform="translate(73.781 46.253) rotate(.173)"><tspan x="0" y="0">시작하기 버튼을 클릭했을 때</tspan></text>
    <g>
      <g>
        <path class="cls-1" d="m34.019,61.099c-14.927-.048-27.039-12.21-27-27.111.039-14.888,12.218-27,27.15-27h.125c14.901.067,26.976,12.266,26.917,27.193-.058,14.842-12.216,26.917-27.103,26.917h-.09Z"/>
        <path class="cls-4" d="m34.17,7.988h0,.12c14.349.064,25.978,11.813,25.922,26.189-.056,14.293-11.765,25.922-26.103,25.922h-.087c-14.375-.047-26.04-11.759-26.003-26.109.037-14.337,11.768-26.001,26.151-26.002m0-2c-15.526.001-28.111,12.502-28.151,27.997-.04,15.453,12.517,28.063,27.997,28.114.032,0,.062,0,.094,0,15.444,0,28.043-12.503,28.103-27.914.06-15.477-12.463-28.128-27.913-28.197-.044,0-.086,0-.129,0h0Z"/>
      </g>
      <path class="cls-6" d="m26.49,33.989c0-2.979-.003-5.959.002-8.938.001-.871-.04-1.782.9-2.272.89-.464,1.669-.113,2.434.376,4.656,2.978,9.324,5.939,13.977,8.921,2.063,1.322,2.073,2.615.042,3.913-4.656,2.976-9.325,5.932-13.976,8.916-.771.494-1.55.863-2.428.428-.92-.456-.963-1.342-.958-2.244.016-3.033.006-6.067.006-9.101Z"/>
    </g>
  </g>
  <g>
    <path class="cls-9" d="m203.455,65.201H47.416l-12.543,11.141-12.024-10.593c-.238-.21-.622-.047-.622.265v52.811c0,.098.042.191.115.259l12.53,11.113,12.543-11.219h156.04c15.329,0,27.871-12.1,27.871-26.888h0c0-14.789-12.542-26.888-27.871-26.888Z"/>
    <path class="cls-3" d="m179.17,92.595c.085-12.114,9.79-22.01,22.342-21.937,12.159.071,22.178,9.883,21.961,22.471-.203,11.764-9.754,21.773-22.498,21.598-12.042-.166-21.794-9.762-21.805-22.132Z"/>
    <path class="cls-5" d="m202.07,94.032c2.854.024,5.612,2.731,5.624,5.52.014,3.13-2.722,5.849-5.866,5.829-3.016-.018-5.566-2.746-5.533-5.919.031-3.007,2.636-5.457,5.775-5.43Z"/>
    <rect class="cls-5" x="204.458" y="84.417" width="9.448" height="9.448" transform="translate(124.3 -121.805) rotate(45)"/>
    <polygon class="cls-5" points="200.301 92.096 200.301 85.663 194.73 82.447 189.159 85.663 189.159 92.096 194.73 95.312 200.301 92.096"/>
    <text class="cls-8" transform="translate(48.915 100.883)"><tspan x="0" y="0">모양 숨기기</tspan></text>
  </g>
</svg>