<?xml version="1.0" encoding="UTF-8"?>
<svg id="_레이어_1" data-name="레이어 1" xmlns="http://www.w3.org/2000/svg" viewBox="0 0 313.53 77.378">
  <defs>
    <style>
      .cls-1, .cls-2, .cls-3, .cls-4 {
        stroke-width: 0px;
      }

      .cls-1, .cls-5 {
        fill: #fefefe;
      }

      .cls-2 {
        fill: #00b400;
      }

      .cls-6 {
        fill: #00b300;
        stroke: #009400;
        stroke-miterlimit: 10;
        stroke-width: 2px;
      }

      .cls-5 {
        font-family: Pretendard-Bold-KSCpc-EUC-H, Pretendard;
        font-size: 26px;
        font-weight: 700;
      }

      .cls-3 {
        fill: #fff;
      }

      .cls-4 {
        fill: #f2f2f2;
      }
    </style>
  </defs>
  <g>
    <g>
      <g>
        <path class="cls-6" d="m312.09,33.954c-2.293-12.79-13.66-22.1-26.741-22.14-81.918-.248-140.558-.502-222.476-.713-2.727-.007-4.859-.438-7.168-2.399C48.54,2.617,39.547.119,30.1,1.274,20.381,2.463,12.681,7.161,7.067,15.04,2.193,21.879.212,29.582,1.283,38.024c1.177,9.281,5.524,16.675,12.825,22.461,2.333,1.849,7.532,4.568,7.532,4.568,0,0,1.282.588,1.787,1.095,3.187,3.196,6.402,6.365,9.533,9.615.84.872,1.302.778,2.094-.031.035-.036.105-.107.105-.107l9.162-8.399c1.278-1.315,3.032-2.055,4.866-2.049,21.626.072,159.381.533,235.036.759.957.003,1.904-.04,2.857-.128l1.837-.17c15.315-1.89,25.945-16.233,23.174-31.684Z"/>
        <text/>
      </g>
      <g>
        <path class="cls-1" d="m34.68,61.097c-14.926-.049-27.038-12.211-27-27.111.038-14.888,12.219-27,27.152-27h.124c14.901.067,26.976,12.266,26.917,27.193-.058,14.843-12.216,26.918-27.103,26.918h-.091Z"/>
        <path class="cls-4" d="m34.831,7.986h0,.12c14.35.064,25.978,11.813,25.922,26.189-.056,14.293-11.765,25.922-26.103,25.922h-.087c-14.375-.047-26.04-11.759-26.003-26.109.037-14.337,11.768-26.001,26.151-26.002m0-2c-15.526.001-28.111,12.502-28.151,27.997-.04,15.453,12.517,28.063,27.997,28.114.032,0,.062,0,.094,0,15.444,0,28.042-12.503,28.103-27.914.061-15.477-12.463-28.128-27.913-28.197-.044,0-.086,0-.129,0h0Z"/>
      </g>
    </g>
    <g>
      <rect class="cls-2" x="20.433" y="29.401" width="27.677" height="17.677" rx="1.839" ry="1.839"/>
      <g>
        <g>
          <path class="cls-3" d="m20.478,29.26c-.171,0-.329-.111-.392-.276l2.244-6.231,3.779-1.019-2.365,6.661-3.159.852c-.035.009-.071.014-.106.014Z"/>
          <path class="cls-2" d="m25.91,21.916l-2.263,6.374-3.096.835c-.024.007-.049.01-.074.01-.094,0-.181-.048-.237-.125l2.185-6.154,3.485-.94m.395-.365l-4.072,1.098-2.265,6.38c.082.214.286.356.509.356.046,0,.093-.006.139-.019l3.223-.869,2.466-6.946h0Z"/>
        </g>
        <g>
          <polygon class="cls-2" points="26.401 21.654 31.58 20.257 29.216 26.917 24.037 28.314 26.401 21.654"/>
          <path class="cls-2" d="m31.383,20.44l-2.263,6.374-4.886,1.318,2.263-6.374,4.886-1.318m.395-.365l-5.472,1.476-2.466,6.946,5.473-1.476,2.466-6.946h0Z"/>
        </g>
        <g>
          <polygon class="cls-3" points="31.874 20.178 35.684 19.15 33.319 25.81 29.509 26.838 31.874 20.178"/>
          <path class="cls-2" d="m35.486,19.333l-2.263,6.374-3.517.949,2.263-6.374,3.517-.949m.395-.365l-4.104,1.107-2.466,6.946,4.103-1.107,2.466-6.946h0Z"/>
        </g>
        <g>
          <path class="cls-2" d="m18.771,24.15c-.061-.225.073-.458.299-.519l2.967-.8-2.057,5.795-1.208-4.476Z"/>
          <path class="cls-2" d="m21.839,23.014l-1.844,5.194-1.103-4.09c-.043-.159.052-.323.21-.366l2.736-.738m.395-.365l-3.197.862c-.291.079-.465.381-.387.672l1.294,4.796c.005.018.018.032.025.049l2.265-6.38h0Z"/>
        </g>
        <g>
          <path class="cls-2" d="m45.345,17.215l1.235,4.58c.029.108.014.223-.042.321-.056.099-.147.168-.256.198l-3.038.82,2.101-5.918Z"/>
          <path class="cls-2" d="m45.329,17.634l1.131,4.193c.021.076.01.157-.03.226-.04.069-.104.119-.18.14l-2.808.757,1.887-5.316m.016-.793l-2.299,6.475,3.268-.881c.291-.079.465-.381.386-.672l-1.293-4.796c-.013-.047-.039-.084-.062-.124h0Z"/>
        </g>
        <g>
          <polygon class="cls-2" points="35.977 19.071 41.212 17.659 38.847 24.319 33.613 25.731 35.977 19.071"/>
          <path class="cls-2" d="m41.014,17.842l-2.263,6.374-4.941,1.333,2.263-6.374,4.941-1.333m.395-.365l-5.528,1.491-2.466,6.946,5.528-1.491,2.466-6.946h0Z"/>
        </g>
        <g>
          <path class="cls-3" d="m41.505,17.58l3.262-.88c.034-.009.07-.014.104-.014.13,0,.254.064.334.172l-2.256,6.354-3.81,1.027,2.365-6.66Z"/>
          <path class="cls-2" d="m44.872,16.811c.07,0,.138.028.191.076l-2.209,6.222-3.517.948,2.263-6.374,3.199-.863c.024-.006.048-.01.072-.01m0-.25c-.045,0-.091.006-.137.018l-3.326.897-2.466,6.946,4.103-1.107,2.299-6.475c-.098-.171-.278-.28-.473-.28h0Z"/>
        </g>
      </g>
      <rect class="cls-3" x="23.839" y="33.336" width="10.026" height="2" rx="1" ry="1"/>
      <rect class="cls-3" x="23.839" y="37.317" width="18.07" height="2" rx="1" ry="1"/>
      <rect class="cls-3" x="23.839" y="41.298" width="20.207" height="2" rx="1" ry="1"/>
    </g>
  </g>
  <text class="cls-5" transform="translate(74.781 46.251) rotate(.173)"><tspan x="0" y="0">장면이 시작되었을 때</tspan></text>
</svg>