<?xml version="1.0" encoding="UTF-8"?>
<svg id="_레이어_1" data-name="레이어 1" xmlns="http://www.w3.org/2000/svg" viewBox="0 0 826.89 1816.859">
  <defs>
    <style>
      .cls-1, .cls-2, .cls-3, .cls-4, .cls-5, .cls-6, .cls-7, .cls-8, .cls-9, .cls-10, .cls-11, .cls-12, .cls-13, .cls-14, .cls-15, .cls-16, .cls-17, .cls-18, .cls-19, .cls-20, .cls-21, .cls-22, .cls-23, .cls-24 {
        stroke-width: 0px;
      }

      .cls-1, .cls-25, .cls-26, .cls-27 {
        fill: #fefefe;
      }

      .cls-2 {
        fill: #009400;
      }

      .cls-3, .cls-28 {
        fill: #dc47d7;
      }

      .cls-4 {
        fill: #b819b3;
      }

      .cls-5 {
        fill: #c72042;
      }

      .cls-28 {
        stroke: #b719b2;
      }

      .cls-28, .cls-29, .cls-30, .cls-31, .cls-32, .cls-33, .cls-34 {
        stroke-width: 2px;
      }

      .cls-28, .cls-30, .cls-31, .cls-34 {
        stroke-miterlimit: 10;
      }

      .cls-35, .cls-25, .cls-26, .cls-36, .cls-37, .cls-27, .cls-38, .cls-39 {
        font-family: Pretendard-Bold-KSCpc-EUC-H, Pretendard;
        font-weight: 700;
      }

      .cls-35, .cls-33, .cls-39 {
        fill: #fff;
      }

      .cls-35, .cls-26, .cls-36, .cls-37, .cls-38, .cls-39 {
        font-size: 22px;
      }

      .cls-35, .cls-37 {
        letter-spacing: -.025em;
      }

      .cls-6 {
        fill: #3bce3b;
      }

      .cls-7 {
        fill: #fefdfe;
      }

      .cls-8 {
        fill: #c62042;
      }

      .cls-29 {
        fill: #fe3a61;
        stroke: #c62142;
      }

      .cls-29, .cls-32, .cls-33 {
        stroke-linecap: round;
        stroke-linejoin: round;
      }

      .cls-30, .cls-31 {
        stroke: #009400;
      }

      .cls-30, .cls-24 {
        fill: #00b300;
      }

      .cls-40 {
        letter-spacing: -.042em;
      }

      .cls-9 {
        fill: none;
      }

      .cls-10 {
        fill: #1b3ad8;
      }

      .cls-25, .cls-27 {
        font-size: 26px;
      }

      .cls-31 {
        fill: #00b400;
      }

      .cls-11 {
        fill: #b719b2;
      }

      .cls-12 {
        fill: #ff7f00;
      }

      .cls-32 {
        fill: #19baea;
      }

      .cls-32, .cls-33 {
        stroke: #1498c0;
      }

      .cls-13 {
        fill: #6dddfe;
      }

      .cls-14 {
        fill: #1498c0;
      }

      .cls-15 {
        fill: #dd47d8;
      }

      .cls-36, .cls-41 {
        letter-spacing: -.01em;
      }

      .cls-16 {
        fill: #4562f5;
      }

      .cls-34 {
        stroke: #fe9b00;
      }

      .cls-34, .cls-19 {
        fill: #fedd81;
      }

      .cls-17 {
        fill: #fafdfa;
      }

      .cls-18 {
        fill: #f577f1;
      }

      .cls-20 {
        fill: #f4af18;
      }

      .cls-21 {
        fill: #f677f2;
      }

      .cls-27 {
        letter-spacing: -.025em;
      }

      .cls-22 {
        fill: #fe9b00;
      }

      .cls-42 {
        letter-spacing: -.042em;
      }

      .cls-23 {
        fill: #fe5576;
      }
    </style>
  </defs>
  <g>
    <path class="cls-30" d="m21.64,65.053s-5.2-2.719-7.532-4.568c-7.301-5.786-11.647-13.18-12.825-22.461C.212,29.582,2.193,21.879,7.067,15.04,12.681,7.161,20.381,2.463,30.1,1.274c9.447-1.156,17.928,1.343,25.093,7.428,2.309,1.961,4.441,2.392,7.168,2.399,81.918.211,163.835.465,245.753.713,13.081.04,24.448,9.349,26.741,22.14,2.77,15.451-7.86,29.794-23.175,31.684-.205.025-.396.168-.594.256-.891.016-1.782.048-2.673.045-86.874-.26-173.747-.518-260.621-.816-1.521-.005-2.596.406-3.649,1.498-2.976,3.089-6.092,6.042-9.092,9.109-.791.809-1.254.903-2.094.031-3.131-3.25-6.346-6.419-9.533-9.615-.505-.507-1.787-1.095-1.787-1.095Z"/>
    <path class="cls-1" d="m34.016,62.097c-15.48-.051-28.037-12.66-27.997-28.114.04-15.539,12.694-28.067,28.28-27.997,15.45.069,27.973,12.72,27.913,28.197-.06,15.443-12.708,27.964-28.196,27.914Z"/>
    <path class="cls-24" d="m22.752,33.067c.099-1.896-.183-4.236.152-6.562.711-4.937,4.657-8.567,9.628-8.799,1.609-.075,3.236-.154,4.823.234,4.693,1.146,7.831,5.11,7.914,10.093.06,3.614.045,7.23.006,10.844-.07,6.422-4.581,10.616-11.359,10.611-6.621-.005-11.083-4.255-11.16-10.647-.021-1.779-.003-3.559-.003-5.774Z"/>
    <path class="cls-17" d="m32.083,26.92c.035-.717.008-1.442.123-2.144.154-.937.826-1.465,1.736-1.493.99-.03,1.793.497,1.874,1.509.118,1.478.107,2.978-.004,4.457-.07.929-.81,1.468-1.722,1.499-.995.033-1.71-.518-1.884-1.517-.131-.754-.088-1.539-.124-2.311Z"/>
    <text class="cls-25" transform="translate(73.185 46.251) rotate(.173)"><tspan x="0" y="0">오브젝트를 클릭했을 때</tspan></text>
  </g>
  <g>
    <g>
      <path class="cls-28" d="m798.019,172.067H46.509l-12.543,11.141-12.024-10.593c-.238-.21-.622-.047-.622.265v52.811c0,.098.042.191.115.259l12.53,11.113,12.543-11.219h751.51c15.329,0,27.871-12.1,27.871-26.888h0c0-14.789-12.542-26.888-27.871-26.888Z"/>
      <path class="cls-11" d="m773.734,199.461c.085-12.114,9.79-22.01,22.342-21.937,12.159.071,22.178,9.883,21.961,22.471-.203,11.764-9.754,21.773-22.498,21.598-12.042-.166-21.794-9.762-21.805-22.132Z"/>
      <path class="cls-21" d="m795.694,189.516c3.973.048,6.605,2.132,7.169,5.536.236,1.421-.185,2.643-1.127,3.671-.864.943-1.773,1.854-2.731,2.702-1.025.909-1.869,1.892-2.145,3.28-.232,1.167-.936,1.732-2.155,1.54-1.232-.194-1.334-1.074-1.385-2.104-.103-2.069,1.042-3.441,2.431-4.709.657-.599,1.396-1.122,1.982-1.782,1.412-1.588,1.315-3.285-.17-4.344-1.397-.997-3.888-.624-4.788.786-.444.696-.76,1.483-1.061,2.257-.461,1.186-1.382,1.378-2.45,1.155-1.088-.227-1.328-1.054-1.254-2.043.193-2.571,1.812-4.116,3.935-5.163,1.186-.585,2.528-.865,3.748-.783Z"/>
      <path class="cls-18" d="m795.211,212.228c-1.32,0-2.19-.878-2.179-2.197.011-1.354.827-2.157,2.191-2.156,1.361,0,2.177.81,2.183,2.167.006,1.3-.885,2.187-2.195,2.186Z"/>
    </g>
    <g>
      <path class="cls-11" d="m182.735,178.653l-126.077-.061c-3.657-.014-6.893,2.767-6.868,6.912.052,8.797.052,17.595,0,26.392-.024,4.145,3.212,6.915,6.869,6.91,56.653-.084,69.424-.059,126.077-.059,4.46,0,6.868-2.426,6.87-6.935.004-8.742.004-17.483,0-26.225-.002-4.508-2.41-6.934-6.871-6.934Z"/>
      <path class="cls-7" d="m172.593,193.443c1.503,0,3.006-.003,4.509.001.951.003,1.744.288,2.197,1.211.47.958.064,1.702-.534,2.425-1.451,1.754-2.859,3.543-4.343,5.268-1.318,1.533-2.389,1.523-3.72-.029-1.519-1.771-2.972-3.598-4.452-5.402-.521-.635-.812-1.313-.452-2.145.374-.865,1.045-1.293,1.954-1.309,1.614-.027,3.228-.008,4.842-.008v-.013Z"/>
      <text class="cls-26" transform="translate(60.169 206.535)"><tspan x="0" y="0">컴퓨터 선택</tspan></text>
    </g>
    <g>
      <path class="cls-20" d="m297.775,219.463c-10.975,0-19.903-8.929-19.903-19.903s8.929-19.903,19.903-19.903h291.986c10.975,0,19.903,8.929,19.903,19.903s-8.929,19.903-19.903,19.903h-291.986Z"/>
      <path class="cls-12" d="m589.761,180.656c10.423,0,18.903,8.48,18.903,18.903s-8.48,18.903-18.903,18.903h-291.986c-10.423,0-18.903-8.48-18.903-18.903s8.48-18.903,18.903-18.903h291.986m0-2h-291.986c-11.497,0-20.903,9.406-20.903,20.903h0c0,11.497,9.406,20.903,20.903,20.903h291.986c11.497,0,20.903-9.406,20.903-20.903h0c0-11.497-9.406-20.903-20.903-20.903h0Z"/>
    </g>
    <text class="cls-35" transform="translate(344.059 206.622)"><tspan x="0" y="0">부터</tspan></text>
    <text class="cls-35" transform="translate(448.676 206.623)"><tspan x="0" y="0">사이의 무작위 수</tspan></text>
    <g>
      <path class="cls-19" d="m417.452,219.463c-10.975,0-19.903-8.929-19.903-19.903s8.929-19.903,19.903-19.903,19.903,8.929,19.903,19.903-8.928,19.903-19.903,19.903Z"/>
      <path class="cls-22" d="m417.452,180.656c10.423,0,18.903,8.48,18.903,18.903s-8.48,18.903-18.903,18.903-18.903-8.48-18.903-18.903,8.48-18.903,18.903-18.903m0-2h0c-11.497,0-20.903,9.406-20.903,20.903h0c0,11.497,9.406,20.903,20.903,20.903h0c11.497,0,20.903-9.406,20.903-20.903h0c0-11.497-9.406-20.903-20.903-20.903h0Z"/>
    </g>
    <text class="cls-36" transform="translate(410.246 206.622)"><tspan x="0" y="0">3</tspan></text>
    <g>
      <circle class="cls-19" cx="311.475" cy="199.56" r="19.903"/>
      <path class="cls-22" d="m311.476,180.656c10.423,0,18.903,8.48,18.903,18.903s-8.48,18.903-18.903,18.903-18.903-8.48-18.903-18.903,8.48-18.903,18.903-18.903m0-2h0c-11.497,0-20.903,9.406-20.903,20.903h0c0,11.497,9.406,20.903,20.903,20.903h0c11.497,0,20.903-9.406,20.903-20.903h0c0-11.497-9.406-20.903-20.903-20.903h0Z"/>
    </g>
    <text class="cls-37" transform="translate(305.997 206.622)"><tspan x="0" y="0">1</tspan></text>
    <text class="cls-27" transform="translate(203.118 206.623)"><tspan x="0" y="0">을(를)</tspan></text>
    <text class="cls-27" transform="translate(621.435 206.622)"><tspan x="0" y="0">(으)로 정하기</tspan></text>
  </g>
  <g>
    <g>
      <path class="cls-28" d="m497.694,119.03H46.509l-12.543,11.141-12.024-10.593c-.238-.21-.622-.047-.622.265v52.811c0,.098.042.191.115.259l12.53,11.113,12.543-11.219h451.185c15.329,0,27.871-12.1,27.871-26.888h0c0-14.789-12.542-26.888-27.871-26.888Z"/>
      <path class="cls-11" d="m473.408,145.423c.085-12.114,9.79-22.01,22.342-21.937,12.159.071,22.178,9.883,21.961,22.471-.203,11.764-9.754,21.773-22.498,21.598-12.042-.166-21.794-9.762-21.805-22.132Z"/>
      <path class="cls-21" d="m495.368,135.478c3.973.048,6.605,2.132,7.169,5.536.236,1.421-.185,2.643-1.127,3.671-.864.943-1.773,1.854-2.731,2.702-1.025.909-1.869,1.892-2.145,3.28-.232,1.167-.936,1.732-2.155,1.54-1.232-.194-1.334-1.074-1.385-2.104-.103-2.069,1.042-3.441,2.431-4.709.657-.599,1.396-1.122,1.982-1.782,1.412-1.588,1.315-3.285-.17-4.344-1.397-.997-3.888-.624-4.788.786-.444.696-.76,1.483-1.061,2.257-.461,1.186-1.382,1.378-2.45,1.155-1.088-.227-1.328-1.054-1.254-2.043.193-2.571,1.812-4.116,3.935-5.163,1.186-.585,2.528-.865,3.748-.783Z"/>
      <path class="cls-18" d="m494.885,158.191c-1.32,0-2.19-.878-2.179-2.197.011-1.354.827-2.157,2.191-2.156,1.361,0,2.177.81,2.183,2.167.006,1.3-.885,2.187-2.195,2.186Z"/>
    </g>
    <text class="cls-27" transform="translate(326.754 154.183)"><tspan x="0" y="0">(으)로 정하기</tspan></text>
    <text class="cls-27" transform="translate(168.148 154.183)"><tspan x="0" y="0">을(를)</tspan></text>
    <path class="cls-11" d="m147.297,125.476l-90.639-.061c-3.657-.014-6.893,2.767-6.868,6.912.052,8.797.052,17.595,0,26.392-.024,4.145,3.212,6.915,6.869,6.91,56.653-.084,33.986-.059,90.639-.059,4.46,0,6.868-2.426,6.87-6.935.004-8.742.004-17.483,0-26.225-.002-4.508-2.41-6.934-6.871-6.934Z"/>
    <path class="cls-7" d="m137.155,140.267c1.503,0,3.006-.003,4.509.001.951.003,1.744.288,2.197,1.211.47.958.064,1.702-.534,2.425-1.451,1.754-2.859,3.543-4.343,5.268-1.318,1.533-2.389,1.523-3.72-.029-1.519-1.771-2.972-3.598-4.452-5.402-.521-.635-.812-1.313-.452-2.145.374-.865,1.045-1.293,1.954-1.309,1.614-.027,3.228-.008,4.842-.008v-.013Z"/>
    <text class="cls-26" transform="translate(60.169 153.358)"><tspan x="0" y="0">내 선택</tspan></text>
    <g>
      <path class="cls-11" d="m307.933,136.673c-3.978-8.028-10.585-12.205-19.692-12.204l-23.634.017c-13.365.1-23.308,12.743-20.298,25.728,2.245,9.683,10.748,16.352,20.919,16.354l22.63.007c1.562,0,3.108-.072,4.657-.328,13.443-2.215,21.457-17.384,15.417-29.573Z"/>
      <path class="cls-3" d="m275.473,126.477c42.548,0-29.54-.003,13.008.003,9.346.001,16.7,5.774,18.918,14.808,2.597,10.582-4.706,21.37-15.534,23.016-1.222.186-2.431.263-3.655.263-85.04,0,62.236.002-22.804,0-11.651,0-20.056-8.798-19.553-20.436.36-8.321,7.473-16.158,15.669-17.363,1.445-.212,2.876-.287,4.323-.287,42.437-.001-32.807,0,9.629,0Z"/>
    </g>
    <text class="cls-39" transform="translate(258.21 150.841)"><tspan x="0" y="0">대답</tspan></text>
  </g>
  <g>
    <path class="cls-31" d="m355.229,225.657H46.509l-12.543,11.141-12.024-10.593c-.238-.21-.622-.047-.622.265v52.811c0,.098.042.191.115.259l12.53,11.113,12.543-11.219h308.721c15.329,0,27.871-12.1,27.871-26.888h0c0-14.789-12.542-26.888-27.871-26.888Z"/>
    <g>
      <path class="cls-2" d="m331.734,252.207c.085-12.114,9.79-22.01,22.342-21.937,12.159.071,22.178,9.883,21.961,22.471-.203,11.764-9.754,21.773-22.498,21.598-12.042-.166-21.794-9.762-21.805-22.132Z"/>
      <g>
        <path class="cls-6" d="m366.118,246.986c0,1.542-.008,3.085.003,4.627.007.98-.264,1.487-1.38,1.043-2.268-.902-4.509-.654-6.762.172-1.828.67-3.715,1.034-5.658.417-.884-.281-1.324-.78-1.303-1.8.062-3.028.029-6.059.018-9.089-.004-1.006.123-1.673,1.394-1.023,1.992,1.019,3.969.447,5.902-.261,2.224-.814,4.426-1.176,6.743-.28.829.321,1.084.737,1.057,1.566-.05,1.541-.014,3.084-.015,4.627Z"/>
        <path class="cls-6" d="m349.481,251.188c0,3.197.023,6.395-.016,9.592-.01.805.134,1.195,1.061,1.136,1.142-.072,2.005.452,1.928,1.706-.072,1.164-.992,1.47-2.018,1.474-1.655.007-3.309.007-4.964,0-1.047-.005-1.902-.364-1.951-1.54-.05-1.196.799-1.68,1.838-1.632,1.034.048,1.134-.418,1.13-1.268-.03-5.898-.016-11.797-.015-17.695,0-.441.007-.882,0-1.323-.018-1.057.309-1.93,1.507-1.952,1.222-.022,1.511.85,1.507,1.911-.014,3.197-.005,6.394-.005,9.592Z"/>
      </g>
    </g>
    <text class="cls-27" transform="translate(203.118 260.653)"><tspan x="0" y="0">신호 보내기</tspan></text>
    <g>
      <path class="cls-2" d="m181.402,232.103l-124.745-.061c-3.657-.014-6.893,2.767-6.868,6.912.052,8.797.052,17.595,0,26.392-.024,4.145,3.212,6.915,6.869,6.91,56.653-.084,68.092-.059,124.745-.059,4.46,0,6.868-2.426,6.87-6.935.004-8.742.004-17.483,0-26.225-.002-4.508-2.41-6.934-6.871-6.934Z"/>
      <path class="cls-7" d="m171.261,246.893c1.503,0,3.006-.003,4.509.001.951.003,1.744.288,2.197,1.211.47.958.064,1.702-.534,2.425-1.451,1.754-2.859,3.543-4.343,5.268-1.318,1.533-2.389,1.523-3.72-.029-1.519-1.771-2.972-3.598-4.452-5.402-.521-.635-.812-1.313-.452-2.145.374-.865,1.045-1.293,1.954-1.309,1.614-.027,3.228-.008,4.842-.008v-.013Z"/>
      <text class="cls-26" transform="translate(60.169 259.985)"><tspan x="0" y="0">모양 바꾸기</tspan></text>
    </g>
  </g>
  <g>
    <g>
      <path class="cls-28" d="m678.858,65.369H46.509l-12.543,11.141-12.024-10.593c-.238-.21-.622-.047-.622.265v52.811c0,.098.042.191.115.259l12.53,11.113,12.543-11.219h632.349c15.329,0,27.871-12.1,27.871-26.888h0c0-14.789-12.542-26.888-27.871-26.888Z"/>
      <path class="cls-11" d="m654.572,92.078c.085-12.114,9.79-22.01,22.342-21.937,12.159.071,22.178,9.883,21.961,22.471-.203,11.764-9.754,21.773-22.498,21.598-12.042-.166-21.794-9.762-21.805-22.132Z"/>
      <path class="cls-21" d="m676.532,82.133c3.973.048,6.605,2.132,7.169,5.536.236,1.421-.185,2.643-1.127,3.671-.864.943-1.773,1.854-2.731,2.702-1.025.909-1.869,1.892-2.145,3.28-.232,1.167-.936,1.732-2.155,1.54-1.232-.194-1.334-1.074-1.385-2.104-.103-2.069,1.042-3.441,2.431-4.709.657-.599,1.396-1.122,1.982-1.782,1.412-1.588,1.315-3.285-.17-4.344-1.397-.997-3.888-.624-4.788.786-.444.696-.76,1.483-1.061,2.257-.461,1.186-1.382,1.378-2.45,1.155-1.088-.227-1.328-1.054-1.254-2.043.193-2.571,1.812-4.116,3.935-5.163,1.186-.585,2.528-.865,3.748-.783Z"/>
      <path class="cls-18" d="m676.049,104.846c-1.32,0-2.19-.878-2.179-2.197.011-1.354.827-2.157,2.191-2.156,1.361,0,2.177.81,2.183,2.167.006,1.3-.885,2.187-2.195,2.186Z"/>
    </g>
    <text class="cls-27" transform="translate(378.693 99.241)"><tspan x="0" y="0">을(를) 묻고 대답 기다리기</tspan></text>
    <g>
      <g>
        <path class="cls-19" d="m68.692,112.08c-10.975,0-19.903-8.929-19.903-19.903s8.929-19.903,19.903-19.903h274.429c10.975,0,19.903,8.929,19.903,19.903s-8.929,19.903-19.903,19.903H68.692Z"/>
        <path class="cls-22" d="m343.121,73.274c10.423,0,18.903,8.48,18.903,18.903s-8.48,18.903-18.903,18.903H68.692c-10.423,0-18.903-8.48-18.903-18.903s8.48-18.903,18.903-18.903h274.429m0-2H68.692c-11.497,0-20.903,9.406-20.903,20.903s9.406,20.903,20.903,20.903h274.429c11.497,0,20.903-9.406,20.903-20.903h0c0-11.497-9.406-20.903-20.903-20.903h0Z"/>
      </g>
      <text class="cls-36" transform="translate(63.229 99.24)"><tspan x="0" y="0">가위 바위 보 중 하나를 선택해 봐!</tspan></text>
    </g>
  </g>
  <g>
    <g>
      <g>
        <path class="cls-32" d="m21.348,335s-.001-.01-.003-.015v.015s.003,0,.003,0Z"/>
        <path class="cls-32" d="m586.423,756.176H71.548l-10.506,11.226-12.645-11.226v-421.05l12.441,11.461,12.387-11.471,501.527-.091c16.083,0,29.097-13.805,27.779-30.151-1.175-14.565-13.733-25.591-28.345-25.591H46.509l-12.543,11.548-12.023-10.98c-.238-.218-.622-.049-.622.274v54.741c0,.042.011.081.025.119l.09-1.851.056,454.607,12.379,11.613,12.516-11.613h540.037c8.716,0,15.782-7.066,15.782-15.783s-7.066-15.783-15.782-15.783Z"/>
      </g>
      <g>
        <path class="cls-14" d="m595.307,307.257c.233,11.599-9.583,22.21-22.59,21.903-11.361-.268-21.522-9.45-21.508-22.104.014-12.581,10.427-22.278,22.629-21.994,11.969.279,21.786,10.209,21.47,22.194Z"/>
        <path class="cls-13" d="m581.391,308.79c-.095,0-.185.021-.279.028l-4.684-7.075c.647-.892.942-2.055.623-3.302-.356-1.388-1.5-2.504-2.899-2.812-2.553-.562-4.81,1.366-4.81,3.821,0,.859.284,1.646.753,2.292l-4.684,7.075c-.094-.007-.183-.028-.279-.028-2.466,0-4.4,2.277-3.814,4.843.323,1.416,1.474,2.567,2.89,2.89,2.566.586,4.843-1.348,4.843-3.814,0-1.153-.507-2.18-1.3-2.897l4.386-6.625c.358.108.731.183,1.124.183s.766-.076,1.124-.183l4.386,6.625c-1.013.917-1.56,2.338-1.178,3.884.344,1.389,1.482,2.51,2.877,2.828,2.564.583,4.839-1.35,4.839-3.815,0-2.165-1.755-3.919-3.919-3.919Z"/>
      </g>
      <text class="cls-25" transform="translate(53.225 315.251)"><tspan x="0" y="0">만일</tspan></text>
      <text class="cls-25" transform="translate(448.506 315.251)"><tspan x="0" y="0">(이)라면</tspan></text>
      <g>
        <g>
          <g>
            <polygon class="cls-16" points="109.795 306.904 125.323 287 418.637 286.601 434.163 306.503 418.636 326.407 125.322 326.807 109.795 306.904"/>
            <path class="cls-10" d="m418.149,287.601l14.745,18.902-14.747,18.905-292.338.399-14.745-18.902,14.747-18.905,292.338-.399m.975-2.001l-294.291.401-16.306,20.903,16.306,20.903,294.291-.401,16.306-20.903-16.306-20.903h0Z"/>
          </g>
          <polygon class="cls-9" points="348.603 300.912 348.603 313.029 354.149 307.221 348.603 300.912"/>
        </g>
        <g>
          <g>
            <g>
              <path class="cls-15" d="m147.015,326.808c-10.975,0-19.903-8.929-19.903-19.903s8.929-19.903,19.903-19.903h123.79c10.975,0,19.903,8.929,19.903,19.903s-8.929,19.903-19.903,19.903h-123.79Z"/>
              <path class="cls-4" d="m270.805,288.001c10.423,0,18.903,8.48,18.903,18.903s-8.48,18.903-18.903,18.903h-123.79c-10.423,0-18.903-8.48-18.903-18.903s8.48-18.903,18.903-18.903h123.79m0-2h-123.79c-11.497,0-20.903,9.406-20.903,20.903h0c0,11.497,9.406,20.903,20.903,20.903h123.79c11.497,0,20.903-9.406,20.903-20.903h0c0-11.497-9.406-20.903-20.903-20.903h0Z"/>
            </g>
            <rect class="cls-4" x="141.596" y="287.42" width="101.469" height="38.968" rx="3.871" ry="3.871"/>
            <text class="cls-35" transform="translate(255.975 313.967)"><tspan x="0" y="0">값</tspan></text>
            <text class="cls-35" transform="translate(152.121 313.967)"><tspan x="0" y="0">내 선택</tspan></text>
            <path class="cls-7" d="m227.372,302.227c1.503,0,3.006-.003,4.509.001.951.003,1.744.288,2.197,1.211.47.958.064,1.702-.534,2.425-1.451,1.754-2.859,3.543-4.343,5.268-1.318,1.533-2.389,1.523-3.72-.029-1.519-1.771-2.972-3.598-4.452-5.402-.521-.635-.812-1.313-.452-2.145.374-.865,1.045-1.293,1.954-1.309,1.614-.027,3.228-.008,4.842-.008v-.013Z"/>
          </g>
          <g>
            <g>
              <path class="cls-19" d="m372.355,326.808c-10.975,0-19.903-8.929-19.903-19.903s8.929-19.903,19.903-19.903h23.194c10.975,0,19.903,8.929,19.903,19.903s-8.928,19.903-19.903,19.903h-23.194Z"/>
              <path class="cls-22" d="m395.549,288.001c10.423,0,18.903,8.48,18.903,18.903s-8.48,18.903-18.903,18.903h-23.194c-10.423,0-18.903-8.48-18.903-18.903s8.48-18.903,18.903-18.903h23.194m0-2h-23.194c-11.497,0-20.903,9.406-20.903,20.903h0c0,11.497,9.406,20.903,20.903,20.903h23.194c11.497,0,20.903-9.406,20.903-20.903h0c0-11.497-9.406-20.903-20.903-20.903h0Z"/>
            </g>
            <text class="cls-37" transform="translate(364.102 313.967)"><tspan x="0" y="0">가위 </tspan></text>
          </g>
        </g>
        <rect class="cls-10" x="305.563" y="287.098" width="30.968" height="39.613" rx="3.355" ry="3.355"/>
        <text class="cls-35" transform="translate(311.008 313.967)"><tspan x="0" y="0">＝</tspan></text>
      </g>
      <path class="cls-34" d="m440.11,749.882h0"/>
    </g>
    <g>
      <g>
        <path class="cls-32" d="m48.536,530.307s-.001-.01-.003-.015v.015s.003,0,.003,0Z"/>
        <path class="cls-32" d="m613.611,583.946l-514.875-.142-10.506,11.226-12.645-11.226v-53.371l12.441,11.461,12.387-11.471,501.527-.091c16.083,0,29.097-13.805,27.779-30.151-1.175-14.565-13.733-25.591-28.345-25.591H73.697l-12.543,11.548-12.023-10.98c-.238-.218-.622-.049-.622.274v54.741c0,.042.011.081.025.119l.09-1.851.056,86.928,12.379,11.613,12.516-11.613,540.037.142c8.716,0,15.782-7.066,15.782-15.783s-7.066-15.783-15.782-15.783Z"/>
      </g>
      <g>
        <path class="cls-14" d="m622.495,502.565c.233,11.599-9.583,22.21-22.59,21.903-11.361-.268-21.522-9.45-21.508-22.104.014-12.581,10.427-22.278,22.629-21.994,11.969.279,21.786,10.209,21.47,22.194Z"/>
        <path class="cls-13" d="m608.579,504.097c-.095,0-.185.021-.279.028l-4.684-7.075c.647-.892.942-2.055.623-3.302-.356-1.388-1.5-2.504-2.899-2.812-2.553-.562-4.81,1.366-4.81,3.821,0,.859.284,1.646.753,2.292l-4.684,7.075c-.094-.007-.183-.028-.279-.028-2.466,0-4.4,2.277-3.814,4.843.323,1.416,1.474,2.567,2.89,2.89,2.566.586,4.843-1.348,4.843-3.814,0-1.153-.507-2.18-1.3-2.897l4.386-6.625c.358.108.731.183,1.124.183s.766-.076,1.124-.183l4.386,6.625c-1.013.917-1.56,2.338-1.178,3.884.344,1.389,1.482,2.51,2.877,2.828,2.564.583,4.839-1.35,4.839-3.815,0-2.165-1.755-3.919-3.919-3.919Z"/>
      </g>
      <text class="cls-25" transform="translate(80.413 510.558)"><tspan x="0" y="0">만일</tspan></text>
      <text class="cls-25" transform="translate(479.694 510.558)"><tspan x="0" y="0">(이)라면</tspan></text>
      <g>
        <g>
          <g>
            <polygon class="cls-16" points="136.983 502.212 152.511 482.308 456.663 481.908 472.189 501.81 456.662 521.714 152.51 522.113 136.983 502.212"/>
            <path class="cls-10" d="m456.175,482.908l14.745,18.902-14.747,18.905-303.176.399-14.745-18.902,14.747-18.904,303.176-.399m.975-2.001l-305.129.401-16.306,20.903,16.306,20.903,305.129-.401,16.306-20.903-16.306-20.903h0Z"/>
          </g>
          <polygon class="cls-9" points="411.35 496.219 411.35 508.337 416.897 502.529 411.35 496.219"/>
        </g>
        <g>
          <g>
            <g>
              <path class="cls-15" d="m174.203,522.114c-10.975,0-19.903-8.928-19.903-19.902s8.929-19.903,19.903-19.903h159.349c10.975,0,19.903,8.929,19.903,19.903s-8.929,19.902-19.903,19.902h-159.349Z"/>
              <path class="cls-4" d="m333.552,483.308c10.423,0,18.903,8.48,18.903,18.903s-8.48,18.903-18.903,18.903h-159.349c-10.423,0-18.903-8.48-18.903-18.903s8.48-18.903,18.903-18.903h159.349m0-2h-159.349c-11.497,0-20.903,9.406-20.903,20.903h0c0,11.497,9.406,20.903,20.903,20.903h159.349c11.497,0,20.903-9.406,20.903-20.903h0c0-11.497-9.406-20.903-20.903-20.903h0Z"/>
            </g>
            <rect class="cls-4" x="168.784" y="482.728" width="137.029" height="38.968" rx="3.871" ry="3.871"/>
            <text class="cls-35" transform="translate(318.722 509.274)"><tspan x="0" y="0">값</tspan></text>
            <text class="cls-35" transform="translate(179.309 509.274)"><tspan x="0" y="0">컴퓨터 선택</tspan></text>
            <path class="cls-7" d="m290.119,497.534c1.503,0,3.006-.003,4.509.001.951.003,1.744.288,2.197,1.211.47.958.064,1.702-.534,2.425-1.451,1.754-2.859,3.543-4.343,5.268-1.318,1.533-2.389,1.523-3.72-.029-1.519-1.771-2.972-3.598-4.452-5.402-.521-.635-.812-1.313-.452-2.145.374-.865,1.045-1.293,1.954-1.309,1.614-.027,3.228-.008,4.842-.008v-.013Z"/>
          </g>
          <g>
            <g>
              <path class="cls-19" d="m435.102,522.114c-10.975,0-19.903-8.928-19.903-19.902s8.929-19.903,19.903-19.903h1.145c10.975,0,19.903,8.929,19.903,19.903s-8.929,19.902-19.903,19.902h-1.145Z"/>
              <path class="cls-22" d="m436.248,483.308c10.423,0,18.903,8.48,18.903,18.903s-8.48,18.903-18.903,18.903h-1.145c-10.423,0-18.903-8.48-18.903-18.903s8.48-18.903,18.903-18.903h1.145m0-2h-1.145c-11.497,0-20.903,9.406-20.903,20.903h0c0,11.497,9.406,20.903,20.903,20.903h1.145c11.497,0,20.903-9.406,20.903-20.903h0c0-11.497-9.406-20.903-20.903-20.903h0Z"/>
            </g>
            <text class="cls-37" transform="translate(429.947 509.274)"><tspan x="0" y="0">2</tspan></text>
          </g>
        </g>
        <rect class="cls-10" x="368.31" y="482.405" width="30.968" height="39.613" rx="3.355" ry="3.355"/>
        <text class="cls-35" transform="translate(373.756 509.274)"><tspan x="0" y="0">＝</tspan></text>
      </g>
    </g>
    <g>
      <g>
        <path class="cls-32" d="m48.536,390.703s-.001-.01-.003-.015v.015s.003,0,.003,0Z"/>
        <path class="cls-32" d="m613.611,444.341l-514.875-.142-10.506,11.226-12.645-11.226v-53.371l12.441,11.461,12.387-11.471,501.527-.091c16.083,0,29.097-13.805,27.779-30.151-1.175-14.565-13.733-25.591-28.345-25.591H73.697l-12.543,11.548-12.023-10.98c-.238-.218-.622-.049-.622.274v54.741c0,.042.011.081.025.119l.09-1.851.056,86.928,12.379,11.613,12.516-11.613,540.037.142c8.716,0,15.782-7.066,15.782-15.783s-7.066-15.783-15.782-15.783Z"/>
      </g>
      <g>
        <path class="cls-14" d="m622.495,362.96c.233,11.599-9.583,22.21-22.59,21.903-11.361-.268-21.522-9.45-21.508-22.104.014-12.581,10.427-22.278,22.629-21.994,11.969.279,21.786,10.209,21.47,22.194Z"/>
        <path class="cls-13" d="m608.579,364.492c-.095,0-.185.021-.279.028l-4.684-7.075c.647-.892.942-2.055.623-3.302-.356-1.388-1.5-2.504-2.899-2.812-2.553-.562-4.81,1.366-4.81,3.821,0,.859.284,1.646.753,2.292l-4.684,7.075c-.094-.007-.183-.028-.279-.028-2.466,0-4.4,2.277-3.814,4.843.323,1.416,1.474,2.567,2.89,2.89,2.566.586,4.843-1.348,4.843-3.814,0-1.153-.507-2.18-1.3-2.897l4.386-6.625c.358.108.731.183,1.124.183s.766-.076,1.124-.183l4.386,6.625c-1.013.917-1.56,2.338-1.178,3.884.344,1.389,1.482,2.51,2.877,2.828,2.564.583,4.839-1.35,4.839-3.815,0-2.165-1.755-3.919-3.919-3.919Z"/>
      </g>
      <text class="cls-25" transform="translate(80.413 370.953)"><tspan x="0" y="0">만일</tspan></text>
      <text class="cls-25" transform="translate(479.694 370.953)"><tspan x="0" y="0">(이)라면</tspan></text>
      <g>
        <g>
          <g>
            <polygon class="cls-16" points="136.983 362.607 152.511 342.702 456.663 342.303 472.189 362.205 456.662 382.109 152.51 382.509 136.983 362.607"/>
            <path class="cls-10" d="m456.175,343.303l14.745,18.902-14.747,18.904-303.176.399-14.745-18.902,14.747-18.905,303.176-.399m.975-2.001l-305.129.401-16.306,20.903,16.306,20.903,305.129-.401,16.306-20.903-16.306-20.903h0Z"/>
          </g>
          <polygon class="cls-9" points="411.35 356.615 411.35 368.732 416.897 362.924 411.35 356.615"/>
        </g>
        <g>
          <g>
            <g>
              <path class="cls-15" d="m174.203,382.51c-10.975,0-19.903-8.929-19.903-19.903s8.929-19.903,19.903-19.903h159.349c10.975,0,19.903,8.929,19.903,19.903s-8.929,19.903-19.903,19.903h-159.349Z"/>
              <path class="cls-4" d="m333.552,343.703c10.423,0,18.903,8.48,18.903,18.903s-8.48,18.903-18.903,18.903h-159.349c-10.423,0-18.903-8.48-18.903-18.903s8.48-18.903,18.903-18.903h159.349m0-2h-159.349c-11.497,0-20.903,9.406-20.903,20.903s9.406,20.903,20.903,20.903h159.349c11.497,0,20.903-9.406,20.903-20.903s-9.406-20.903-20.903-20.903h0Z"/>
            </g>
            <rect class="cls-4" x="168.784" y="343.123" width="137.029" height="38.968" rx="3.871" ry="3.871"/>
            <text class="cls-35" transform="translate(318.722 369.669)"><tspan x="0" y="0">값</tspan></text>
            <text class="cls-35" transform="translate(179.309 369.669)"><tspan x="0" y="0">컴퓨터 선택</tspan></text>
            <path class="cls-7" d="m290.119,357.929c1.503,0,3.006-.003,4.509.001.951.003,1.744.288,2.197,1.211.47.958.064,1.702-.534,2.425-1.451,1.754-2.859,3.543-4.343,5.268-1.318,1.533-2.389,1.523-3.72-.029-1.519-1.771-2.972-3.598-4.452-5.402-.521-.635-.812-1.313-.452-2.145.374-.865,1.045-1.293,1.954-1.309,1.614-.027,3.228-.008,4.842-.008v-.013Z"/>
          </g>
          <g>
            <g>
              <path class="cls-19" d="m435.102,382.51c-10.975,0-19.903-8.929-19.903-19.903s8.929-19.903,19.903-19.903h1.145c10.975,0,19.903,8.929,19.903,19.903s-8.929,19.903-19.903,19.903h-1.145Z"/>
              <path class="cls-22" d="m436.248,343.703c10.423,0,18.903,8.48,18.903,18.903s-8.48,18.903-18.903,18.903h-1.145c-10.423,0-18.903-8.48-18.903-18.903s8.48-18.903,18.903-18.903h1.145m0-2h-1.145c-11.497,0-20.903,9.406-20.903,20.903h0c0,11.497,9.406,20.903,20.903,20.903h1.145c11.497,0,20.903-9.406,20.903-20.903h0c0-11.497-9.406-20.903-20.903-20.903h0Z"/>
            </g>
            <text class="cls-37" transform="translate(429.947 369.669)"><tspan x="0" y="0">1</tspan></text>
          </g>
        </g>
        <rect class="cls-10" x="368.31" y="342.8" width="30.968" height="39.613" rx="3.355" ry="3.355"/>
        <text class="cls-35" transform="translate(373.756 369.669)"><tspan x="0" y="0">＝</tspan></text>
      </g>
    </g>
    <g>
      <g>
        <path class="cls-32" d="m48.536,671.243s-.001-.01-.003-.015v.015s.003,0,.003,0Z"/>
        <path class="cls-32" d="m613.611,724.882l-514.875-.142-10.506,11.226-12.645-11.226v-53.371l12.441,11.461,12.387-11.471,501.527-.091c16.083,0,29.097-13.805,27.779-30.151-1.175-14.565-13.733-25.591-28.345-25.591H73.697l-12.543,11.548-12.023-10.98c-.238-.218-.622-.049-.622.274v54.741c0,.042.011.081.025.119l.09-1.851.056,86.928,12.379,11.613,12.516-11.613,540.037.142c8.716,0,15.782-7.066,15.782-15.783s-7.066-15.783-15.782-15.783Z"/>
      </g>
      <g>
        <path class="cls-14" d="m622.495,643.5c.233,11.599-9.583,22.21-22.59,21.903-11.361-.268-21.522-9.45-21.508-22.104.014-12.581,10.427-22.278,22.629-21.994,11.969.279,21.786,10.209,21.47,22.194Z"/>
        <path class="cls-13" d="m608.579,645.032c-.095,0-.185.021-.279.028l-4.684-7.075c.647-.892.942-2.055.623-3.302-.356-1.388-1.5-2.504-2.899-2.812-2.553-.562-4.81,1.366-4.81,3.821,0,.859.284,1.646.753,2.292l-4.684,7.075c-.094-.007-.183-.028-.279-.028-2.466,0-4.4,2.277-3.814,4.843.323,1.416,1.474,2.567,2.89,2.89,2.566.586,4.843-1.348,4.843-3.814,0-1.153-.507-2.18-1.3-2.897l4.386-6.625c.358.108.731.183,1.124.183s.766-.076,1.124-.183l4.386,6.625c-1.013.917-1.56,2.338-1.178,3.884.344,1.389,1.482,2.51,2.877,2.828,2.564.583,4.839-1.35,4.839-3.815,0-2.165-1.755-3.919-3.919-3.919Z"/>
      </g>
      <text class="cls-25" transform="translate(80.413 651.494)"><tspan x="0" y="0">만일</tspan></text>
      <text class="cls-25" transform="translate(479.694 651.493)"><tspan x="0" y="0">(이)라면</tspan></text>
      <g>
        <g>
          <g>
            <polygon class="cls-16" points="136.983 643.147 152.511 623.242 456.663 622.843 472.189 642.745 456.662 662.649 152.51 663.049 136.983 643.147"/>
            <path class="cls-10" d="m456.175,623.843l14.745,18.902-14.747,18.905-303.176.399-14.745-18.902,14.747-18.905,303.176-.399m.975-2.001l-305.129.401-16.306,20.903,16.306,20.903,305.129-.401,16.306-20.903-16.306-20.903h0Z"/>
          </g>
          <polygon class="cls-9" points="411.35 637.155 411.35 649.272 416.897 643.464 411.35 637.155"/>
        </g>
        <g>
          <g>
            <g>
              <path class="cls-15" d="m174.203,663.05c-10.975,0-19.903-8.929-19.903-19.903s8.929-19.903,19.903-19.903h159.349c10.975,0,19.903,8.929,19.903,19.903s-8.929,19.903-19.903,19.903h-159.349Z"/>
              <path class="cls-4" d="m333.552,624.243c10.423,0,18.903,8.48,18.903,18.903s-8.48,18.903-18.903,18.903h-159.349c-10.423,0-18.903-8.48-18.903-18.903s8.48-18.903,18.903-18.903h159.349m0-2h-159.349c-11.497,0-20.903,9.406-20.903,20.903s9.406,20.903,20.903,20.903h159.349c11.497,0,20.903-9.406,20.903-20.903s-9.406-20.903-20.903-20.903h0Z"/>
            </g>
            <rect class="cls-4" x="168.784" y="623.663" width="137.029" height="38.968" rx="3.871" ry="3.871"/>
            <text class="cls-35" transform="translate(318.722 650.209)"><tspan x="0" y="0">값</tspan></text>
            <text class="cls-35" transform="translate(179.309 650.21)"><tspan x="0" y="0">컴퓨터 선택</tspan></text>
            <path class="cls-7" d="m290.119,638.469c1.503,0,3.006-.003,4.509.001.951.003,1.744.288,2.197,1.211.47.958.064,1.702-.534,2.425-1.451,1.754-2.859,3.543-4.343,5.268-1.318,1.533-2.389,1.523-3.72-.029-1.519-1.771-2.972-3.598-4.452-5.402-.521-.635-.812-1.313-.452-2.145.374-.865,1.045-1.293,1.954-1.309,1.614-.027,3.228-.008,4.842-.008v-.013Z"/>
          </g>
          <g>
            <g>
              <path class="cls-19" d="m435.102,663.05c-10.975,0-19.903-8.929-19.903-19.903s8.929-19.903,19.903-19.903h1.145c10.975,0,19.903,8.929,19.903,19.903s-8.929,19.903-19.903,19.903h-1.145Z"/>
              <path class="cls-22" d="m436.248,624.243c10.423,0,18.903,8.48,18.903,18.903s-8.48,18.903-18.903,18.903h-1.145c-10.423,0-18.903-8.48-18.903-18.903s8.48-18.903,18.903-18.903h1.145m0-2h-1.145c-11.497,0-20.903,9.406-20.903,20.903s9.406,20.903,20.903,20.903h1.145c11.497,0,20.903-9.406,20.903-20.903s-9.406-20.903-20.903-20.903h0Z"/>
            </g>
            <text class="cls-37" transform="translate(429.947 650.209)"><tspan x="0" y="0">3</tspan></text>
          </g>
        </g>
        <rect class="cls-10" x="368.31" y="623.34" width="30.968" height="39.613" rx="3.355" ry="3.355"/>
        <text class="cls-35" transform="translate(373.756 650.21)"><tspan x="0" y="0">＝</tspan></text>
      </g>
    </g>
    <g>
      <g>
        <path class="cls-29" d="m604.47,390.906H100.763l-12.543,11.141-12.024-10.593c-.238-.21-.622-.047-.622.265v52.811c0,.098.042.191.115.259l12.53,11.113,12.543-11.219h503.708c15.329,0,27.871-12.1,27.871-26.888h0c0-14.789-12.542-26.888-27.871-26.888Z"/>
        <g>
          <path class="cls-8" d="m580.185,418.299c.085-12.114,9.79-22.01,22.342-21.937,12.159.071,22.178,9.883,21.961,22.471-.203,11.764-9.754,21.773-22.498,21.598-12.042-.166-21.794-9.762-21.805-22.132Z"/>
          <path class="cls-23" d="m603.085,419.737c2.854.024,5.612,2.731,5.624,5.52.014,3.13-2.722,5.849-5.866,5.829-3.016-.018-5.566-2.746-5.533-5.919.031-3.007,2.636-5.457,5.775-5.43Z"/>
          <rect class="cls-23" x="605.472" y="410.121" width="9.448" height="9.448" transform="translate(472.062 -309.969) rotate(45)"/>
          <polygon class="cls-23" points="601.315 417.8 601.315 411.368 595.745 408.151 590.174 411.368 590.174 417.8 595.745 421.016 601.315 417.8"/>
        </g>
      </g>
      <text class="cls-27" transform="translate(242.033 426.359)"><tspan x="0" y="0">을(를)</tspan></text>
      <text class="cls-27" transform="translate(378.643 426.359)"><tspan x="0" y="0">초 동안</tspan></text>
      <g>
        <g>
          <path class="cls-19" d="m122.529,437.915c-10.975,0-19.903-8.929-19.903-19.903s8.928-19.902,19.903-19.902h85.987c10.975,0,19.903,8.928,19.903,19.902s-8.929,19.903-19.903,19.903h-85.987Z"/>
          <path class="cls-22" d="m208.516,399.109c10.423,0,18.903,8.48,18.903,18.903s-8.48,18.903-18.903,18.903h-85.987c-10.423,0-18.903-8.48-18.903-18.903s8.48-18.903,18.903-18.903h85.987m0-2h-85.987c-11.497,0-20.903,9.406-20.903,20.903h0c0,11.497,9.406,20.903,20.903,20.903h85.987c11.497,0,20.903-9.406,20.903-20.903h0c0-11.497-9.406-20.903-20.903-20.903h0Z"/>
        </g>
        <text class="cls-38" transform="translate(117.066 425.075)"><tspan class="cls-41" x="0" y="0">비겼습니다</tspan><tspan class="cls-42" x="93.968" y="0">.</tspan></text>
      </g>
      <g>
        <rect class="cls-5" x="469.572" y="398.914" width="95.645" height="38.968" rx="3.871" ry="3.871"/>
        <text class="cls-35" transform="translate(480.096 425.461)"><tspan x="0" y="0">말하기</tspan></text>
        <path class="cls-7" d="m548.717,413.72c1.503,0,3.006-.003,4.509.001.951.003,1.744.288,2.197,1.211.47.958.064,1.702-.534,2.425-1.451,1.754-2.859,3.543-4.343,5.268-1.318,1.533-2.389,1.523-3.72-.029-1.519-1.771-2.972-3.598-4.452-5.402-.521-.635-.812-1.313-.452-2.145.374-.865,1.045-1.293,1.954-1.309,1.614-.027,3.228-.008,4.842-.008v-.013Z"/>
      </g>
      <g>
        <g>
          <path class="cls-19" d="m341.267,437.915c-10.975,0-19.903-8.929-19.903-19.903s8.928-19.902,19.903-19.902,19.903,8.928,19.903,19.902-8.929,19.903-19.903,19.903Z"/>
          <path class="cls-22" d="m341.267,399.109c10.423,0,18.903,8.48,18.903,18.903s-8.48,18.903-18.903,18.903-18.903-8.48-18.903-18.903,8.48-18.903,18.903-18.903m0-2h0c-11.497,0-20.903,9.406-20.903,20.903h0c0,11.497,9.406,20.903,20.903,20.903h0c11.497,0,20.903-9.406,20.903-20.903h0c0-11.497-9.406-20.903-20.903-20.903h0Z"/>
        </g>
        <text class="cls-37" transform="translate(333.014 425.075)"><tspan x="0" y="0">2</tspan></text>
      </g>
    </g>
    <g>
      <g>
        <path class="cls-29" d="m641.532,529.896H100.763l-12.543,11.141-12.024-10.593c-.238-.21-.622-.047-.622.265v52.811c0,.098.042.191.115.259l12.53,11.113,12.543-11.219h540.77c15.329,0,27.871-12.1,27.871-26.888h0c0-14.789-12.542-26.888-27.871-26.888Z"/>
        <g>
          <path class="cls-8" d="m617.247,557.289c.085-12.114,9.79-22.01,22.342-21.937,12.159.071,22.178,9.883,21.961,22.471-.203,11.764-9.754,21.773-22.498,21.598-12.042-.166-21.794-9.762-21.805-22.132Z"/>
          <path class="cls-23" d="m640.147,558.727c2.854.024,5.612,2.731,5.624,5.52.014,3.13-2.722,5.849-5.866,5.829-3.016-.018-5.566-2.746-5.533-5.919.031-3.007,2.636-5.457,5.775-5.43Z"/>
          <rect class="cls-23" x="642.534" y="549.111" width="9.448" height="9.448" transform="translate(581.198 -295.466) rotate(45)"/>
          <polygon class="cls-23" points="638.378 556.79 638.378 550.358 632.807 547.141 627.236 550.358 627.236 556.79 632.807 560.007 638.378 556.79"/>
        </g>
      </g>
      <text class="cls-27" transform="translate(289.613 565.349)"><tspan x="0" y="0">을(를)</tspan></text>
      <text class="cls-27" transform="translate(421.385 565.349)"><tspan x="0" y="0">초 동안</tspan></text>
      <g>
        <g>
          <path class="cls-19" d="m122.529,576.905c-10.975,0-19.903-8.929-19.903-19.903s8.928-19.903,19.903-19.903h131.349c10.975,0,19.903,8.929,19.903,19.903s-8.928,19.903-19.903,19.903H122.529Z"/>
          <path class="cls-22" d="m253.878,538.099c10.423,0,18.903,8.48,18.903,18.903s-8.48,18.903-18.903,18.903H122.529c-10.423,0-18.903-8.48-18.903-18.903s8.48-18.903,18.903-18.903h131.348m0-2H122.529c-11.497,0-20.903,9.406-20.903,20.903h0c0,11.497,9.406,20.903,20.903,20.903h131.348c11.497,0,20.903-9.406,20.903-20.903h0c0-11.497-9.406-20.903-20.903-20.903h0Z"/>
        </g>
        <text class="cls-38" transform="translate(117.066 564.065)"><tspan class="cls-41" x="0" y="0">사람이 졌습니다</tspan><tspan class="cls-40" x="136.406" y="0">.</tspan></text>
      </g>
      <g>
        <rect class="cls-5" x="508.829" y="537.904" width="95.645" height="38.968" rx="3.871" ry="3.871"/>
        <text class="cls-35" transform="translate(519.354 564.451)"><tspan x="0" y="0">말하기</tspan></text>
        <path class="cls-7" d="m587.975,552.71c1.503,0,3.006-.003,4.509.001.951.003,1.744.288,2.197,1.211.47.958.064,1.702-.534,2.425-1.451,1.754-2.859,3.543-4.343,5.268-1.318,1.533-2.389,1.523-3.72-.029-1.519-1.771-2.972-3.598-4.452-5.402-.521-.635-.812-1.313-.452-2.145.374-.865,1.045-1.293,1.954-1.309,1.614-.027,3.228-.008,4.842-.008v-.013Z"/>
      </g>
      <g>
        <g>
          <circle class="cls-19" cx="383.815" cy="557.002" r="19.903"/>
          <path class="cls-22" d="m383.815,538.099c10.423,0,18.903,8.48,18.903,18.903s-8.48,18.903-18.903,18.903-18.903-8.48-18.903-18.903,8.48-18.903,18.903-18.903m0-2h0c-11.497,0-20.903,9.406-20.903,20.903h0c0,11.497,9.406,20.903,20.903,20.903h0c11.497,0,20.903-9.406,20.903-20.903h0c0-11.497-9.406-20.903-20.903-20.903h0Z"/>
        </g>
        <text class="cls-37" transform="translate(376.53 564.065)"><tspan x="0" y="0">2</tspan></text>
      </g>
    </g>
    <g>
      <g>
        <path class="cls-29" d="m659.76,671.227H100.763l-12.543,11.141-12.024-10.593c-.238-.21-.622-.047-.622.265v52.811c0,.098.042.191.115.259l12.53,11.113,12.543-11.219h558.998c15.329,0,27.871-12.1,27.871-26.888h0c0-14.789-12.542-26.888-27.871-26.888Z"/>
        <g>
          <path class="cls-8" d="m635.475,698.621c.085-12.114,9.79-22.01,22.342-21.937,12.159.071,22.178,9.883,21.961,22.471-.203,11.764-9.754,21.773-22.498,21.598-12.042-.166-21.794-9.762-21.805-22.132Z"/>
          <path class="cls-23" d="m658.375,700.059c2.854.024,5.612,2.731,5.624,5.52.014,3.13-2.722,5.849-5.866,5.829-3.016-.018-5.566-2.746-5.533-5.919.031-3.007,2.636-5.457,5.775-5.43Z"/>
          <rect class="cls-23" x="660.762" y="690.443" width="9.448" height="9.448" transform="translate(686.474 -266.96) rotate(45)"/>
          <polygon class="cls-23" points="656.605 698.122 656.605 691.689 651.035 688.473 645.464 691.689 645.464 698.122 651.035 701.338 656.605 698.122"/>
        </g>
      </g>
      <text class="cls-27" transform="translate(308 706.681)"><tspan x="0" y="0">을(를)</tspan></text>
      <text class="cls-27" transform="translate(439.772 706.681)"><tspan x="0" y="0">초 동안</tspan></text>
      <g>
        <g>
          <path class="cls-19" d="m122.529,718.237c-10.975,0-19.903-8.929-19.903-19.903s8.928-19.903,19.903-19.903h152.251c10.975,0,19.903,8.929,19.903,19.903s-8.929,19.903-19.903,19.903H122.529Z"/>
          <path class="cls-22" d="m274.781,679.431c10.423,0,18.903,8.48,18.903,18.903s-8.48,18.903-18.903,18.903H122.529c-10.423,0-18.903-8.48-18.903-18.903s8.48-18.903,18.903-18.903h152.251m0-2H122.529c-11.497,0-20.903,9.406-20.903,20.903s9.406,20.903,20.903,20.903h152.251c11.497,0,20.903-9.406,20.903-20.903s-9.406-20.903-20.903-20.903h0Z"/>
        </g>
        <text class="cls-38" transform="translate(117.066 705.397)"><tspan class="cls-41" x="0" y="0">사람이 이겼습니다</tspan><tspan class="cls-40" x="155.2" y="0">.</tspan></text>
      </g>
      <g>
        <rect class="cls-5" x="526.055" y="679.236" width="95.645" height="38.968" rx="3.871" ry="3.871"/>
        <text class="cls-35" transform="translate(536.58 705.782)"><tspan x="0" y="0">말하기</tspan></text>
        <path class="cls-7" d="m605.2,694.042c1.503,0,3.006-.003,4.509.001.951.003,1.744.288,2.197,1.211.47.958.064,1.702-.534,2.425-1.451,1.754-2.859,3.543-4.343,5.268-1.318,1.533-2.389,1.523-3.72-.029-1.519-1.771-2.972-3.598-4.452-5.402-.521-.635-.812-1.313-.452-2.145.374-.865,1.045-1.293,1.954-1.309,1.614-.027,3.228-.008,4.842-.008v-.013Z"/>
      </g>
      <g>
        <g>
          <path class="cls-19" d="m404.719,718.237c-10.975,0-19.903-8.929-19.903-19.903s8.929-19.903,19.903-19.903,19.903,8.929,19.903,19.903-8.928,19.903-19.903,19.903Z"/>
          <path class="cls-22" d="m404.718,679.431c10.423,0,18.903,8.48,18.903,18.903s-8.48,18.903-18.903,18.903-18.903-8.48-18.903-18.903,8.48-18.903,18.903-18.903m0-2c-11.497,0-20.903,9.406-20.903,20.903s9.406,20.903,20.903,20.903,20.903-9.406,20.903-20.903-9.406-20.903-20.903-20.903h0Z"/>
        </g>
        <text class="cls-37" transform="translate(398.401 705.396)"><tspan x="0" y="0">2</tspan></text>
      </g>
    </g>
  </g>
  <rect class="cls-1" x="135.715" y="481.138" width="337.742" height="42.839" rx="10" ry="10"/>
  <g>
    <g>
      <g>
        <g>
          <path class="cls-32" d="m21.348,1351.505s-.001-.01-.003-.015v.015s.003,0,.003,0Z"/>
          <path class="cls-32" d="m564.818,1772.681H71.548l-10.506,11.226-12.645-11.226v-421.05l12.441,11.461,12.387-11.471,479.922-.091c16.083,0,29.097-13.805,27.779-30.151-1.175-14.565-13.733-25.591-28.345-25.591H46.509l-12.543,11.548-12.023-10.98c-.238-.218-.622-.049-.622.274v54.741c0,.042.011.081.025.119l.09-1.851.056,454.607,12.379,11.613,12.516-11.613h518.432c8.716,0,15.782-7.066,15.782-15.783s-7.066-15.783-15.782-15.783Z"/>
        </g>
        <g>
          <path class="cls-14" d="m573.702,1323.762c.233,11.599-9.583,22.21-22.59,21.903-11.361-.268-21.522-9.45-21.508-22.104.014-12.581,10.427-22.278,22.629-21.994,11.969.279,21.786,10.209,21.47,22.194Z"/>
          <path class="cls-13" d="m559.786,1325.294c-.095,0-.185.021-.279.028l-4.684-7.075c.647-.892.942-2.055.623-3.302-.356-1.388-1.5-2.504-2.899-2.812-2.553-.562-4.81,1.366-4.81,3.821,0,.859.284,1.646.753,2.292l-4.684,7.075c-.094-.007-.183-.028-.279-.028-2.466,0-4.4,2.277-3.814,4.843.323,1.416,1.474,2.567,2.89,2.89,2.566.586,4.843-1.348,4.843-3.814,0-1.153-.507-2.18-1.3-2.897l4.386-6.625c.358.108.731.183,1.124.183s.766-.076,1.124-.183l4.386,6.625c-1.013.917-1.56,2.338-1.178,3.884.344,1.389,1.482,2.51,2.877,2.828,2.564.583,4.839-1.35,4.839-3.815,0-2.165-1.755-3.919-3.919-3.919Z"/>
        </g>
        <text class="cls-25" transform="translate(53.225 1331.756)"><tspan x="0" y="0">만일</tspan></text>
        <text class="cls-25" transform="translate(426.901 1331.756)"><tspan x="0" y="0">(이)라면</tspan></text>
        <g>
          <g>
            <g>
              <polygon class="cls-16" points="109.795 1323.409 125.323 1303.505 397.032 1303.106 412.558 1323.008 397.031 1342.912 125.322 1343.312 109.795 1323.409"/>
              <path class="cls-10" d="m396.544,1304.106l14.745,18.902-14.747,18.905-270.733.398-14.745-18.902,14.747-18.905,270.733-.398m.975-2.001l-272.686.401-16.306,20.903,16.306,20.903,272.686-.401,16.306-20.903-16.306-20.903h0Z"/>
            </g>
            <polygon class="cls-9" points="348.603 1317.417 348.603 1329.534 354.149 1323.726 348.603 1317.417"/>
          </g>
          <g>
            <g>
              <g>
                <path class="cls-15" d="m147.015,1343.313c-10.975,0-19.903-8.929-19.903-19.903s8.929-19.903,19.903-19.903h123.79c10.975,0,19.903,8.929,19.903,19.903s-8.929,19.903-19.903,19.903h-123.79Z"/>
                <path class="cls-4" d="m270.805,1304.506c10.423,0,18.903,8.48,18.903,18.903s-8.48,18.903-18.903,18.903h-123.79c-10.423,0-18.903-8.48-18.903-18.903s8.48-18.903,18.903-18.903h123.79m0-2h-123.79c-11.497,0-20.903,9.406-20.903,20.903s9.406,20.903,20.903,20.903h123.79c11.497,0,20.903-9.406,20.903-20.903s-9.406-20.903-20.903-20.903h0Z"/>
              </g>
              <rect class="cls-4" x="141.596" y="1303.925" width="101.469" height="38.968" rx="3.871" ry="3.871"/>
              <text class="cls-35" transform="translate(255.975 1330.471)"><tspan x="0" y="0">값</tspan></text>
              <text class="cls-35" transform="translate(152.121 1330.472)"><tspan x="0" y="0">내 선택</tspan></text>
              <path class="cls-7" d="m227.372,1318.732c1.503,0,3.006-.003,4.509.001.951.003,1.744.288,2.197,1.211.47.958.064,1.702-.534,2.425-1.451,1.754-2.859,3.543-4.343,5.268-1.318,1.533-2.389,1.523-3.72-.029-1.519-1.771-2.972-3.598-4.452-5.402-.521-.635-.812-1.313-.452-2.145.374-.865,1.045-1.293,1.954-1.309,1.614-.027,3.228-.008,4.842-.008v-.013Z"/>
            </g>
            <g>
              <g>
                <path class="cls-19" d="m372.355,1343.313c-10.975,0-19.903-8.929-19.903-19.903s8.929-19.903,19.903-19.903h1.588c10.975,0,19.903,8.929,19.903,19.903s-8.929,19.903-19.903,19.903h-1.588Z"/>
                <path class="cls-22" d="m373.943,1304.506c10.423,0,18.903,8.48,18.903,18.903s-8.48,18.903-18.903,18.903h-1.589c-10.423,0-18.903-8.48-18.903-18.903s8.48-18.903,18.903-18.903h1.589m0-2h-1.589c-11.497,0-20.903,9.406-20.903,20.903s9.406,20.903,20.903,20.903h1.589c11.497,0,20.903-9.406,20.903-20.903s-9.406-20.903-20.903-20.903h0Z"/>
              </g>
              <text class="cls-37" transform="translate(364.102 1330.471)"><tspan x="0" y="0">보</tspan></text>
            </g>
          </g>
          <rect class="cls-10" x="305.563" y="1303.603" width="30.968" height="39.613" rx="3.355" ry="3.355"/>
          <text class="cls-35" transform="translate(311.009 1330.472)"><tspan x="0" y="0">＝</tspan></text>
        </g>
        <path class="cls-34" d="m440.11,1766.387h0"/>
      </g>
      <g>
        <path class="cls-32" d="m48.536,1546.812s-.001-.01-.003-.015v.015s.003,0,.003,0Z"/>
        <path class="cls-33" d="m613.611,1600.451l-514.875-.142-10.506,11.226-12.645-11.226v-53.371l12.441,11.461,12.387-11.471,501.527-.091c16.083,0,29.097-13.805,27.779-30.151-1.175-14.565-13.733-25.591-28.345-25.591H73.697l-12.543,11.548-12.023-10.98c-.238-.218-.622-.049-.622.274v54.741c0,.042.011.081.025.119l.09-1.851.056,86.928,12.379,11.613,12.516-11.613,540.037.142c8.716,0,15.782-7.066,15.782-15.783s-7.066-15.783-15.782-15.783Z"/>
      </g>
      <g>
        <path class="cls-32" d="m48.536,1407.208s-.001-.01-.003-.015v.015s.003,0,.003,0Z"/>
        <path class="cls-33" d="m613.611,1460.846l-514.875-.142-10.506,11.226-12.645-11.226v-53.371l12.441,11.461,12.387-11.471,501.527-.091c16.083,0,29.097-13.805,27.779-30.151-1.175-14.565-13.733-25.591-28.345-25.591H73.697l-12.543,11.548-12.023-10.98c-.238-.218-.622-.049-.622.274v54.741c0,.042.011.081.025.119l.09-1.851.056,86.928,12.379,11.613,12.516-11.613,540.037.142c8.716,0,15.782-7.066,15.782-15.783s-7.066-15.783-15.782-15.783Z"/>
      </g>
      <g>
        <path class="cls-32" d="m48.536,1687.748s-.001-.01-.003-.015v.015s.003,0,.003,0Z"/>
        <path class="cls-33" d="m613.611,1741.386l-514.875-.142-10.506,11.226-12.645-11.226v-53.371l12.441,11.461,12.387-11.471,501.527-.091c16.083,0,29.097-13.805,27.779-30.151-1.175-14.565-13.733-25.591-28.345-25.591H73.697l-12.543,11.548-12.023-10.98c-.238-.218-.622-.049-.622.274v54.741c0,.042.011.081.025.119l.09-1.851.056,86.928,12.379,11.613,12.516-11.613,540.037.142c8.716,0,15.782-7.066,15.782-15.783s-7.066-15.783-15.782-15.783Z"/>
      </g>
      <g>
        <g>
          <path class="cls-29" d="m659.76,1546.401H100.763l-12.543,11.141-12.024-10.593c-.238-.21-.622-.047-.622.265v52.811c0,.098.042.191.115.259l12.53,11.113,12.543-11.219h558.998c15.329,0,27.871-12.1,27.871-26.888h0c0-14.789-12.542-26.888-27.871-26.888Z"/>
          <g>
            <path class="cls-8" d="m635.475,1573.794c.085-12.114,9.79-22.01,22.342-21.937,12.159.071,22.178,9.883,21.961,22.471-.203,11.764-9.754,21.773-22.498,21.598-12.042-.166-21.794-9.762-21.805-22.132Z"/>
            <path class="cls-23" d="m658.375,1575.232c2.854.024,5.612,2.731,5.624,5.52.014,3.13-2.722,5.849-5.866,5.829-3.016-.018-5.566-2.746-5.533-5.919.031-3.007,2.636-5.457,5.775-5.43Z"/>
            <rect class="cls-23" x="660.762" y="1565.616" width="9.448" height="9.448" transform="translate(1305.315 -10.628) rotate(45)"/>
            <polygon class="cls-23" points="656.605 1573.295 656.605 1566.863 651.035 1563.646 645.464 1566.863 645.464 1573.295 651.035 1576.511 656.605 1573.295"/>
          </g>
        </g>
        <text class="cls-27" transform="translate(308 1581.854)"><tspan x="0" y="0">을(를)</tspan></text>
        <text class="cls-27" transform="translate(439.772 1581.854)"><tspan x="0" y="0">초 동안</tspan></text>
        <g>
          <g>
            <path class="cls-19" d="m122.529,1593.41c-10.975,0-19.903-8.929-19.903-19.903s8.928-19.903,19.903-19.903h152.251c10.975,0,19.903,8.929,19.903,19.903s-8.929,19.903-19.903,19.903H122.529Z"/>
            <path class="cls-22" d="m274.781,1554.604c10.423,0,18.903,8.48,18.903,18.903s-8.48,18.903-18.903,18.903H122.529c-10.423,0-18.903-8.48-18.903-18.903s8.48-18.903,18.903-18.903h152.251m0-2H122.529c-11.497,0-20.903,9.406-20.903,20.903h0c0,11.497,9.406,20.903,20.903,20.903h152.251c11.497,0,20.903-9.406,20.903-20.903h0c0-11.497-9.406-20.903-20.903-20.903h0Z"/>
          </g>
          <text class="cls-38" transform="translate(117.066 1580.57)"><tspan class="cls-41" x="0" y="0">사람이 이겼습니다</tspan><tspan class="cls-40" x="155.2" y="0">.</tspan></text>
        </g>
        <g>
          <rect class="cls-5" x="526.055" y="1554.409" width="95.645" height="38.968" rx="3.871" ry="3.871"/>
          <text class="cls-35" transform="translate(536.58 1580.955)"><tspan x="0" y="0">말하기</tspan></text>
          <path class="cls-7" d="m605.2,1569.215c1.503,0,3.006-.003,4.509.001.951.003,1.744.288,2.197,1.211.47.958.064,1.702-.534,2.425-1.451,1.754-2.859,3.543-4.343,5.268-1.318,1.533-2.389,1.523-3.72-.029-1.519-1.771-2.972-3.598-4.452-5.402-.521-.635-.812-1.313-.452-2.145.374-.865,1.045-1.293,1.954-1.309,1.614-.027,3.228-.008,4.842-.008v-.013Z"/>
        </g>
        <g>
          <g>
            <path class="cls-19" d="m404.719,1593.41c-10.975,0-19.903-8.929-19.903-19.903s8.929-19.903,19.903-19.903,19.903,8.929,19.903,19.903-8.928,19.903-19.903,19.903Z"/>
            <path class="cls-22" d="m404.718,1554.604c10.423,0,18.903,8.48,18.903,18.903s-8.48,18.903-18.903,18.903-18.903-8.48-18.903-18.903,8.48-18.903,18.903-18.903m0-2c-11.497,0-20.903,9.406-20.903,20.903h0c0,11.497,9.406,20.903,20.903,20.903s20.903-9.406,20.903-20.903h0c0-11.497-9.406-20.903-20.903-20.903h0Z"/>
          </g>
          <text class="cls-37" transform="translate(398.401 1580.569)"><tspan x="0" y="0">2</tspan></text>
        </g>
      </g>
      <g>
        <g>
          <path class="cls-29" d="m641.532,1407.41H100.763l-12.543,11.141-12.024-10.593c-.238-.21-.622-.047-.622.265v52.811c0,.098.042.191.115.259l12.53,11.113,12.543-11.219h540.77c15.329,0,27.871-12.1,27.871-26.888h0c0-14.789-12.542-26.888-27.871-26.888Z"/>
          <g>
            <path class="cls-8" d="m617.247,1434.804c.085-12.114,9.79-22.01,22.342-21.937,12.159.071,22.178,9.883,21.961,22.471-.203,11.764-9.754,21.773-22.498,21.598-12.042-.166-21.794-9.762-21.805-22.132Z"/>
            <path class="cls-23" d="m640.147,1436.242c2.854.024,5.612,2.731,5.624,5.52.014,3.13-2.722,5.849-5.866,5.829-3.016-.018-5.566-2.746-5.533-5.919.031-3.007,2.636-5.457,5.775-5.43Z"/>
            <rect class="cls-23" x="642.534" y="1426.626" width="9.448" height="9.448" transform="translate(1201.695 -38.448) rotate(45)"/>
            <polygon class="cls-23" points="638.378 1434.305 638.378 1427.873 632.807 1424.656 627.236 1427.873 627.236 1434.305 632.807 1437.521 638.378 1434.305"/>
          </g>
        </g>
        <text class="cls-27" transform="translate(289.613 1442.864)"><tspan x="0" y="0">을(를)</tspan></text>
        <text class="cls-27" transform="translate(421.385 1442.864)"><tspan x="0" y="0">초 동안</tspan></text>
        <g>
          <g>
            <path class="cls-19" d="m122.529,1454.42c-10.975,0-19.903-8.929-19.903-19.903s8.928-19.902,19.903-19.902h131.349c10.975,0,19.903,8.928,19.903,19.902s-8.928,19.903-19.903,19.903H122.529Z"/>
            <path class="cls-22" d="m253.878,1415.614c10.423,0,18.903,8.48,18.903,18.903s-8.48,18.903-18.903,18.903H122.529c-10.423,0-18.903-8.48-18.903-18.903s8.48-18.903,18.903-18.903h131.348m0-2H122.529c-11.497,0-20.903,9.406-20.903,20.903h0c0,11.497,9.406,20.903,20.903,20.903h131.348c11.497,0,20.903-9.406,20.903-20.903h0c0-11.497-9.406-20.903-20.903-20.903h0Z"/>
          </g>
          <text class="cls-38" transform="translate(117.066 1441.58)"><tspan class="cls-41" x="0" y="0">사람이 졌습니다</tspan><tspan class="cls-40" x="136.406" y="0">.</tspan></text>
        </g>
        <g>
          <rect class="cls-5" x="508.829" y="1415.419" width="95.645" height="38.968" rx="3.871" ry="3.871"/>
          <text class="cls-35" transform="translate(519.354 1441.966)"><tspan x="0" y="0">말하기</tspan></text>
          <path class="cls-7" d="m587.975,1430.225c1.503,0,3.006-.003,4.509.001.951.003,1.744.288,2.197,1.211.47.958.064,1.702-.534,2.425-1.451,1.754-2.859,3.543-4.343,5.268-1.318,1.533-2.389,1.523-3.72-.029-1.519-1.771-2.972-3.598-4.452-5.402-.521-.635-.812-1.313-.452-2.145.374-.865,1.045-1.293,1.954-1.309,1.614-.027,3.228-.008,4.842-.008v-.013Z"/>
        </g>
        <g>
          <g>
            <path class="cls-19" d="m383.815,1454.42c-10.975,0-19.903-8.929-19.903-19.903s8.929-19.902,19.903-19.902,19.903,8.928,19.903,19.902-8.929,19.903-19.903,19.903Z"/>
            <path class="cls-22" d="m383.815,1415.614c10.423,0,18.903,8.48,18.903,18.903s-8.48,18.903-18.903,18.903-18.903-8.48-18.903-18.903,8.48-18.903,18.903-18.903m0-2h0c-11.497,0-20.903,9.406-20.903,20.903h0c0,11.497,9.406,20.903,20.903,20.903h0c11.497,0,20.903-9.406,20.903-20.903h0c0-11.497-9.406-20.903-20.903-20.903h0Z"/>
          </g>
          <text class="cls-37" transform="translate(376.53 1441.58)"><tspan x="0" y="0">2</tspan></text>
        </g>
      </g>
      <g>
        <g>
          <path class="cls-29" d="m604.47,1687.732H100.763l-12.543,11.141-12.024-10.593c-.238-.21-.622-.047-.622.265v52.811c0,.098.042.191.115.259l12.53,11.113,12.543-11.219h503.708c15.329,0,27.871-12.1,27.871-26.888h0c0-14.789-12.542-26.888-27.871-26.888Z"/>
          <g>
            <path class="cls-8" d="m580.185,1715.126c.085-12.114,9.79-22.01,22.342-21.937,12.159.071,22.178,9.883,21.961,22.471-.203,11.764-9.754,21.773-22.498,21.598-12.042-.166-21.794-9.762-21.805-22.132Z"/>
            <path class="cls-23" d="m603.085,1716.564c2.854.024,5.612,2.731,5.624,5.52.014,3.13-2.722,5.849-5.866,5.829-3.016-.018-5.566-2.746-5.533-5.919.031-3.007,2.636-5.457,5.775-5.43Z"/>
            <rect class="cls-23" x="605.472" y="1706.948" width="9.448" height="9.448" transform="translate(1389.057 69.863) rotate(45)"/>
            <polygon class="cls-23" points="601.315 1714.627 601.315 1708.194 595.745 1704.978 590.174 1708.194 590.174 1714.627 595.745 1717.843 601.315 1714.627"/>
          </g>
        </g>
        <text class="cls-27" transform="translate(242.033 1723.186)"><tspan x="0" y="0">을(를)</tspan></text>
        <text class="cls-27" transform="translate(378.643 1723.186)"><tspan x="0" y="0">초 동안</tspan></text>
        <g>
          <g>
            <path class="cls-19" d="m122.529,1734.742c-10.975,0-19.903-8.929-19.903-19.903s8.928-19.903,19.903-19.903h85.987c10.975,0,19.903,8.929,19.903,19.903s-8.929,19.903-19.903,19.903h-85.987Z"/>
            <path class="cls-22" d="m208.516,1695.936c10.423,0,18.903,8.48,18.903,18.903s-8.48,18.903-18.903,18.903h-85.987c-10.423,0-18.903-8.48-18.903-18.903s8.48-18.903,18.903-18.903h85.987m0-2h-85.987c-11.497,0-20.903,9.406-20.903,20.903s9.406,20.903,20.903,20.903h85.987c11.497,0,20.903-9.406,20.903-20.903s-9.406-20.903-20.903-20.903h0Z"/>
          </g>
          <text class="cls-38" transform="translate(117.066 1721.902)"><tspan class="cls-41" x="0" y="0">비겼습니다</tspan><tspan class="cls-42" x="93.968" y="0">.</tspan></text>
        </g>
        <g>
          <rect class="cls-5" x="469.572" y="1695.741" width="95.645" height="38.968" rx="3.871" ry="3.871"/>
          <text class="cls-35" transform="translate(480.096 1722.287)"><tspan x="0" y="0">말하기</tspan></text>
          <path class="cls-7" d="m548.717,1710.547c1.503,0,3.006-.003,4.509.001.951.003,1.744.288,2.197,1.211.47.958.064,1.702-.534,2.425-1.451,1.754-2.859,3.543-4.343,5.268-1.318,1.533-2.389,1.523-3.72-.029-1.519-1.771-2.972-3.598-4.452-5.402-.521-.635-.812-1.313-.452-2.145.374-.865,1.045-1.293,1.954-1.309,1.614-.027,3.228-.008,4.842-.008v-.013Z"/>
        </g>
        <g>
          <g>
            <path class="cls-19" d="m341.267,1734.742c-10.975,0-19.903-8.929-19.903-19.903s8.928-19.903,19.903-19.903,19.903,8.929,19.903,19.903-8.929,19.903-19.903,19.903Z"/>
            <path class="cls-22" d="m341.267,1695.936c10.423,0,18.903,8.48,18.903,18.903s-8.48,18.903-18.903,18.903-18.903-8.48-18.903-18.903,8.48-18.903,18.903-18.903m0-2h0c-11.497,0-20.903,9.406-20.903,20.903s9.406,20.903,20.903,20.903h0c11.497,0,20.903-9.406,20.903-20.903s-9.406-20.903-20.903-20.903h0Z"/>
          </g>
          <text class="cls-37" transform="translate(333.014 1721.901)"><tspan x="0" y="0">2</tspan></text>
        </g>
      </g>
    </g>
    <rect class="cls-1" x="108.527" y="1301.789" width="305.299" height="42.839" rx="10" ry="10"/>
  </g>
  <rect class="cls-1" x="135.715" y="621.527" width="337.742" height="42.839" rx="10" ry="10"/>
  <g>
    <g>
      <g>
        <path class="cls-32" d="m21.348,843.598s-.001-.01-.003-.015v.015s.003,0,.003,0Z"/>
        <path class="cls-32" d="m586.423,1264.774H71.548l-10.506,11.226-12.645-11.226v-421.05l12.441,11.461,12.387-11.471,501.527-.091c16.083,0,29.097-13.805,27.779-30.151-1.175-14.565-13.733-25.591-28.345-25.591H46.509l-12.543,11.548-12.023-10.98c-.238-.218-.622-.049-.622.274v54.741c0,.042.011.081.025.119l.09-1.851.056,454.607,12.379,11.613,12.516-11.613h540.037c8.716,0,15.782-7.066,15.782-15.783s-7.066-15.783-15.782-15.783Z"/>
      </g>
      <g>
        <path class="cls-14" d="m595.307,815.856c.233,11.599-9.583,22.21-22.59,21.903-11.361-.268-21.522-9.45-21.508-22.104.014-12.581,10.427-22.278,22.629-21.994,11.969.279,21.786,10.209,21.47,22.194Z"/>
        <path class="cls-13" d="m581.391,817.388c-.095,0-.185.021-.279.028l-4.684-7.075c.647-.892.942-2.055.623-3.302-.356-1.388-1.5-2.504-2.899-2.812-2.553-.562-4.81,1.366-4.81,3.821,0,.859.284,1.646.753,2.292l-4.684,7.075c-.094-.007-.183-.028-.279-.028-2.466,0-4.4,2.277-3.814,4.843.323,1.416,1.474,2.567,2.89,2.89,2.566.586,4.843-1.348,4.843-3.814,0-1.153-.507-2.18-1.3-2.897l4.386-6.625c.358.108.731.183,1.124.183s.766-.076,1.124-.183l4.386,6.625c-1.013.917-1.56,2.338-1.178,3.884.344,1.389,1.482,2.51,2.877,2.828,2.564.583,4.839-1.35,4.839-3.815,0-2.165-1.755-3.919-3.919-3.919Z"/>
      </g>
      <text class="cls-25" transform="translate(53.225 823.849)"><tspan x="0" y="0">만일</tspan></text>
      <text class="cls-25" transform="translate(448.506 823.849)"><tspan x="0" y="0">(이)라면</tspan></text>
      <g>
        <g>
          <g>
            <polygon class="cls-16" points="109.795 815.502 125.323 795.598 418.637 795.198 434.163 815.101 418.636 835.005 125.322 835.404 109.795 815.502"/>
            <path class="cls-10" d="m418.149,796.199l14.745,18.902-14.747,18.905-292.338.399-14.745-18.902,14.747-18.905,292.338-.399m.975-2.001l-294.291.401-16.306,20.903,16.306,20.903,294.291-.401,16.306-20.903-16.306-20.903h0Z"/>
          </g>
          <polygon class="cls-9" points="348.603 809.51 348.603 821.628 354.149 815.82 348.603 809.51"/>
        </g>
        <g>
          <g>
            <g>
              <path class="cls-15" d="m147.015,835.405c-10.975,0-19.903-8.929-19.903-19.903s8.929-19.902,19.903-19.902h123.79c10.975,0,19.903,8.928,19.903,19.902s-8.929,19.903-19.903,19.903h-123.79Z"/>
              <path class="cls-4" d="m270.805,796.599c10.423,0,18.903,8.48,18.903,18.903s-8.48,18.903-18.903,18.903h-123.79c-10.423,0-18.903-8.48-18.903-18.903s8.48-18.903,18.903-18.903h123.79m0-2h-123.79c-11.497,0-20.903,9.406-20.903,20.903s9.406,20.903,20.903,20.903h123.79c11.497,0,20.903-9.406,20.903-20.903s-9.406-20.903-20.903-20.903h0Z"/>
            </g>
            <rect class="cls-4" x="141.596" y="796.019" width="101.469" height="38.968" rx="3.871" ry="3.871"/>
            <text class="cls-35" transform="translate(255.975 822.565)"><tspan x="0" y="0">값</tspan></text>
            <text class="cls-35" transform="translate(152.121 822.565)"><tspan x="0" y="0">내 선택</tspan></text>
            <path class="cls-7" d="m227.372,810.825c1.503,0,3.006-.003,4.509.001.951.003,1.744.288,2.197,1.211.47.958.064,1.702-.534,2.425-1.451,1.754-2.859,3.543-4.343,5.268-1.318,1.533-2.389,1.523-3.72-.029-1.519-1.771-2.972-3.598-4.452-5.402-.521-.635-.812-1.313-.452-2.145.374-.865,1.045-1.293,1.954-1.309,1.614-.027,3.228-.008,4.842-.008v-.013Z"/>
          </g>
          <g>
            <g>
              <path class="cls-19" d="m372.355,835.405c-10.975,0-19.903-8.929-19.903-19.903s8.929-19.902,19.903-19.902h23.194c10.975,0,19.903,8.928,19.903,19.902s-8.928,19.903-19.903,19.903h-23.194Z"/>
              <path class="cls-22" d="m395.549,796.599c10.423,0,18.903,8.48,18.903,18.903s-8.48,18.903-18.903,18.903h-23.194c-10.423,0-18.903-8.48-18.903-18.903s8.48-18.903,18.903-18.903h23.194m0-2h-23.194c-11.497,0-20.903,9.406-20.903,20.903s9.406,20.903,20.903,20.903h23.194c11.497,0,20.903-9.406,20.903-20.903s-9.406-20.903-20.903-20.903h0Z"/>
            </g>
            <text class="cls-37" transform="translate(364.102 822.565)"><tspan x="0" y="0">바위</tspan></text>
          </g>
        </g>
        <rect class="cls-10" x="305.563" y="795.696" width="30.968" height="39.613" rx="3.355" ry="3.355"/>
        <text class="cls-35" transform="translate(311.009 822.565)"><tspan x="0" y="0">＝</tspan></text>
      </g>
      <path class="cls-34" d="m440.11,1258.48h0"/>
    </g>
    <g>
      <g>
        <g>
          <path class="cls-32" d="m48.536,1038.906s-.001-.01-.003-.015v.015s.003,0,.003,0Z"/>
          <path class="cls-33" d="m613.611,1092.545l-514.875-.142-10.506,11.226-12.645-11.226v-53.371l12.441,11.461,12.387-11.471,501.527-.091c16.083,0,29.097-13.805,27.779-30.151-1.175-14.565-13.733-25.591-28.345-25.591H73.697l-12.543,11.548-12.023-10.98c-.238-.218-.622-.049-.622.274v54.741c0,.042.011.081.025.119l.09-1.851.056,86.928,12.379,11.613,12.516-11.613,540.037.142c8.716,0,15.782-7.066,15.782-15.783s-7.066-15.783-15.782-15.783Z"/>
        </g>
        <g>
          <g>
            <path class="cls-29" d="m604.47,1038.494H100.763l-12.543,11.141-12.024-10.593c-.238-.21-.622-.047-.622.265v52.811c0,.098.042.191.115.259l12.53,11.113,12.543-11.219h503.708c15.329,0,27.871-12.1,27.871-26.888h0c0-14.789-12.542-26.888-27.871-26.888Z"/>
            <g>
              <path class="cls-8" d="m580.185,1065.888c.085-12.114,9.79-22.01,22.342-21.937,12.159.071,22.178,9.883,21.961,22.471-.203,11.764-9.754,21.773-22.498,21.598-12.042-.166-21.794-9.762-21.805-22.132Z"/>
              <path class="cls-23" d="m603.085,1067.325c2.854.024,5.612,2.731,5.624,5.52.014,3.13-2.722,5.849-5.866,5.829-3.016-.018-5.566-2.746-5.533-5.919.031-3.007,2.636-5.457,5.775-5.43Z"/>
              <rect class="cls-23" x="605.472" y="1057.71" width="9.448" height="9.448" transform="translate(929.976 -120.294) rotate(45)"/>
              <polygon class="cls-23" points="601.315 1065.389 601.315 1058.956 595.745 1055.74 590.174 1058.956 590.174 1065.389 595.745 1068.605 601.315 1065.389"/>
            </g>
          </g>
          <text class="cls-27" transform="translate(242.033 1073.947)"><tspan x="0" y="0">을(를)</tspan></text>
          <text class="cls-27" transform="translate(378.643 1073.947)"><tspan x="0" y="0">초 동안</tspan></text>
          <g>
            <g>
              <path class="cls-19" d="m122.529,1085.504c-10.975,0-19.903-8.929-19.903-19.903s8.928-19.903,19.903-19.903h85.987c10.975,0,19.903,8.929,19.903,19.903s-8.929,19.903-19.903,19.903h-85.987Z"/>
              <path class="cls-22" d="m208.516,1046.697c10.423,0,18.903,8.48,18.903,18.903s-8.48,18.903-18.903,18.903h-85.987c-10.423,0-18.903-8.48-18.903-18.903s8.48-18.903,18.903-18.903h85.987m0-2h-85.987c-11.497,0-20.903,9.406-20.903,20.903s9.406,20.903,20.903,20.903h85.987c11.497,0,20.903-9.406,20.903-20.903s-9.406-20.903-20.903-20.903h0Z"/>
            </g>
            <text class="cls-38" transform="translate(117.066 1072.663)"><tspan class="cls-41" x="0" y="0">비겼습니다</tspan><tspan class="cls-42" x="93.968" y="0">.</tspan></text>
          </g>
          <g>
            <rect class="cls-5" x="469.572" y="1046.502" width="95.645" height="38.968" rx="3.871" ry="3.871"/>
            <text class="cls-35" transform="translate(480.096 1073.049)"><tspan x="0" y="0">말하기</tspan></text>
            <path class="cls-7" d="m548.717,1061.309c1.503,0,3.006-.003,4.509.001.951.003,1.744.288,2.197,1.211.47.958.064,1.702-.534,2.425-1.451,1.754-2.859,3.543-4.343,5.268-1.318,1.533-2.389,1.523-3.72-.029-1.519-1.771-2.972-3.598-4.452-5.402-.521-.635-.812-1.313-.452-2.145.374-.865,1.045-1.293,1.954-1.309,1.614-.027,3.228-.008,4.842-.008v-.013Z"/>
          </g>
          <g>
            <g>
              <path class="cls-19" d="m341.267,1085.504c-10.975,0-19.903-8.929-19.903-19.903s8.928-19.903,19.903-19.903,19.903,8.929,19.903,19.903-8.929,19.903-19.903,19.903Z"/>
              <path class="cls-22" d="m341.267,1046.697c10.423,0,18.903,8.48,18.903,18.903s-8.48,18.903-18.903,18.903-18.903-8.48-18.903-18.903,8.48-18.903,18.903-18.903m0-2h0c-11.497,0-20.903,9.406-20.903,20.903s9.406,20.903,20.903,20.903h0c11.497,0,20.903-9.406,20.903-20.903s-9.406-20.903-20.903-20.903h0Z"/>
            </g>
            <text class="cls-37" transform="translate(333.014 1072.663)"><tspan x="0" y="0">2</tspan></text>
          </g>
        </g>
      </g>
      <g>
        <g>
          <path class="cls-32" d="m48.536,899.301s-.001-.01-.003-.015v.015s.003,0,.003,0Z"/>
          <path class="cls-33" d="m613.611,952.94l-514.875-.142-10.506,11.226-12.645-11.226v-53.371l12.441,11.461,12.387-11.471,501.527-.091c16.083,0,29.097-13.805,27.779-30.151-1.175-14.565-13.733-25.591-28.345-25.591H73.697l-12.543,11.548-12.023-10.98c-.238-.218-.622-.049-.622.274v54.741c0,.042.011.081.025.119l.09-1.851.056,86.928,12.379,11.613,12.516-11.613,540.037.142c8.716,0,15.782-7.066,15.782-15.783s-7.066-15.783-15.782-15.783Z"/>
        </g>
        <g>
          <g>
            <path class="cls-29" d="m659.76,899.504H100.763l-12.543,11.141-12.024-10.593c-.238-.21-.622-.047-.622.265v52.811c0,.098.042.191.115.259l12.53,11.113,12.543-11.219h558.998c15.329,0,27.871-12.1,27.871-26.888h0c0-14.789-12.542-26.888-27.871-26.888Z"/>
            <g>
              <path class="cls-8" d="m635.475,926.897c.085-12.114,9.79-22.01,22.342-21.937,12.159.071,22.178,9.883,21.961,22.471-.203,11.764-9.754,21.773-22.498,21.598-12.042-.166-21.794-9.762-21.805-22.132Z"/>
              <path class="cls-23" d="m658.375,928.335c2.854.024,5.612,2.731,5.624,5.52.014,3.13-2.722,5.849-5.866,5.829-3.016-.018-5.566-2.746-5.533-5.919.031-3.007,2.636-5.457,5.775-5.43Z"/>
              <rect class="cls-23" x="660.762" y="918.719" width="9.448" height="9.448" transform="translate(847.89 -200.099) rotate(45)"/>
              <polygon class="cls-23" points="656.605 926.398 656.605 919.966 651.035 916.75 645.464 919.966 645.464 926.398 651.035 929.615 656.605 926.398"/>
            </g>
          </g>
          <text class="cls-27" transform="translate(308 934.957)"><tspan x="0" y="0">을(를)</tspan></text>
          <text class="cls-27" transform="translate(439.772 934.957)"><tspan x="0" y="0">초 동안</tspan></text>
          <g>
            <g>
              <path class="cls-19" d="m122.529,946.514c-10.975,0-19.903-8.929-19.903-19.903s8.928-19.903,19.903-19.903h152.251c10.975,0,19.903,8.929,19.903,19.903s-8.929,19.903-19.903,19.903H122.529Z"/>
              <path class="cls-22" d="m274.781,907.707c10.423,0,18.903,8.48,18.903,18.903s-8.48,18.903-18.903,18.903H122.529c-10.423,0-18.903-8.48-18.903-18.903s8.48-18.903,18.903-18.903h152.251m0-2H122.529c-11.497,0-20.903,9.406-20.903,20.903s9.406,20.903,20.903,20.903h152.251c11.497,0,20.903-9.406,20.903-20.903s-9.406-20.903-20.903-20.903h0Z"/>
            </g>
            <text class="cls-38" transform="translate(117.066 933.672)"><tspan class="cls-41" x="0" y="0">사람이 이겼습니다</tspan><tspan class="cls-40" x="155.2" y="0">.</tspan></text>
          </g>
          <g>
            <rect class="cls-5" x="526.055" y="907.512" width="95.645" height="38.968" rx="3.871" ry="3.871"/>
            <text class="cls-35" transform="translate(536.58 934.058)"><tspan x="0" y="0">말하기</tspan></text>
            <path class="cls-7" d="m605.2,922.319c1.503,0,3.006-.003,4.509.001.951.003,1.744.288,2.197,1.211.47.958.064,1.702-.534,2.425-1.451,1.754-2.859,3.543-4.343,5.268-1.318,1.533-2.389,1.523-3.72-.029-1.519-1.771-2.972-3.598-4.452-5.402-.521-.635-.812-1.313-.452-2.145.374-.865,1.045-1.293,1.954-1.309,1.614-.027,3.228-.008,4.842-.008v-.013Z"/>
          </g>
          <g>
            <g>
              <path class="cls-19" d="m404.719,946.514c-10.975,0-19.903-8.929-19.903-19.903s8.929-19.903,19.903-19.903,19.903,8.929,19.903,19.903-8.928,19.903-19.903,19.903Z"/>
              <path class="cls-22" d="m404.718,907.707c10.423,0,18.903,8.48,18.903,18.903s-8.48,18.903-18.903,18.903-18.903-8.48-18.903-18.903,8.48-18.903,18.903-18.903m0-2c-11.497,0-20.903,9.406-20.903,20.903s9.406,20.903,20.903,20.903,20.903-9.406,20.903-20.903-9.406-20.903-20.903-20.903h0Z"/>
            </g>
            <text class="cls-37" transform="translate(398.401 933.672)"><tspan x="0" y="0">2</tspan></text>
          </g>
        </g>
      </g>
      <g>
        <g>
          <path class="cls-32" d="m48.536,1179.841s-.001-.01-.003-.015v.015s.003,0,.003,0Z"/>
          <path class="cls-33" d="m613.611,1233.48l-514.875-.142-10.506,11.226-12.645-11.226v-53.371l12.441,11.461,12.387-11.471,501.527-.091c16.083,0,29.097-13.805,27.779-30.151-1.175-14.565-13.733-25.591-28.345-25.591H73.697l-12.543,11.548-12.023-10.98c-.238-.218-.622-.049-.622.274v54.741c0,.042.011.081.025.119l.09-1.851.056,86.928,12.379,11.613,12.516-11.613,540.037.142c8.716,0,15.782-7.066,15.782-15.783s-7.066-15.783-15.782-15.783Z"/>
        </g>
        <g>
          <g>
            <path class="cls-29" d="m641.532,1179.826H100.763l-12.543,11.141-12.024-10.593c-.238-.21-.622-.047-.622.265v52.811c0,.098.042.191.115.259l12.53,11.113,12.543-11.219h540.77c15.329,0,27.871-12.1,27.871-26.888h0c0-14.789-12.542-26.888-27.871-26.888Z"/>
            <g>
              <path class="cls-8" d="m617.247,1207.219c.085-12.114,9.79-22.01,22.342-21.937,12.159.071,22.178,9.883,21.961,22.471-.203,11.764-9.754,21.773-22.498,21.598-12.042-.166-21.794-9.762-21.805-22.132Z"/>
              <path class="cls-23" d="m640.147,1208.657c2.854.024,5.612,2.731,5.624,5.52.014,3.13-2.722,5.849-5.866,5.829-3.016-.018-5.566-2.746-5.533-5.919.031-3.007,2.636-5.457,5.775-5.43Z"/>
              <rect class="cls-23" x="642.534" y="1199.041" width="9.448" height="9.448" transform="translate(1040.768 -105.106) rotate(45)"/>
              <polygon class="cls-23" points="638.378 1206.72 638.378 1200.288 632.807 1197.071 627.236 1200.288 627.236 1206.72 632.807 1209.937 638.378 1206.72"/>
            </g>
          </g>
          <text class="cls-27" transform="translate(289.613 1215.279)"><tspan x="0" y="0">을(를)</tspan></text>
          <text class="cls-27" transform="translate(421.385 1215.279)"><tspan x="0" y="0">초 동안</tspan></text>
          <g>
            <g>
              <path class="cls-19" d="m122.529,1226.835c-10.975,0-19.903-8.928-19.903-19.902s8.928-19.903,19.903-19.903h131.349c10.975,0,19.903,8.929,19.903,19.903s-8.928,19.902-19.903,19.902H122.529Z"/>
              <path class="cls-22" d="m253.878,1188.029c10.423,0,18.903,8.48,18.903,18.903s-8.48,18.903-18.903,18.903H122.529c-10.423,0-18.903-8.48-18.903-18.903s8.48-18.903,18.903-18.903h131.348m0-2H122.529c-11.497,0-20.903,9.406-20.903,20.903h0c0,11.497,9.406,20.903,20.903,20.903h131.348c11.497,0,20.903-9.406,20.903-20.903h0c0-11.497-9.406-20.903-20.903-20.903h0Z"/>
            </g>
            <text class="cls-38" transform="translate(117.066 1213.995)"><tspan class="cls-41" x="0" y="0">사람이 졌습니다</tspan><tspan class="cls-40" x="136.406" y="0">.</tspan></text>
          </g>
          <g>
            <rect class="cls-5" x="508.829" y="1187.834" width="95.645" height="38.968" rx="3.871" ry="3.871"/>
            <text class="cls-35" transform="translate(519.354 1214.38)"><tspan x="0" y="0">말하기</tspan></text>
            <path class="cls-7" d="m587.975,1202.64c1.503,0,3.006-.003,4.509.001.951.003,1.744.288,2.197,1.211.47.958.064,1.702-.534,2.425-1.451,1.754-2.859,3.543-4.343,5.268-1.318,1.533-2.389,1.523-3.72-.029-1.519-1.771-2.972-3.598-4.452-5.402-.521-.635-.812-1.313-.452-2.145.374-.865,1.045-1.293,1.954-1.309,1.614-.027,3.228-.008,4.842-.008v-.013Z"/>
          </g>
          <g>
            <g>
              <path class="cls-19" d="m383.815,1226.835c-10.975,0-19.903-8.928-19.903-19.902s8.929-19.903,19.903-19.903,19.903,8.929,19.903,19.903-8.929,19.902-19.903,19.902Z"/>
              <path class="cls-22" d="m383.815,1188.029c10.423,0,18.903,8.48,18.903,18.903s-8.48,18.903-18.903,18.903-18.903-8.48-18.903-18.903,8.48-18.903,18.903-18.903m0-2h0c-11.497,0-20.903,9.406-20.903,20.903h0c0,11.497,9.406,20.903,20.903,20.903h0c11.497,0,20.903-9.406,20.903-20.903h0c0-11.497-9.406-20.903-20.903-20.903h0Z"/>
            </g>
            <text class="cls-37" transform="translate(376.53 1213.994)"><tspan x="0" y="0">2</tspan></text>
          </g>
        </g>
      </g>
    </g>
  </g>
</svg>