<?xml version="1.0" encoding="UTF-8"?>
<svg id="_레이어_2" data-name="레이어 2" xmlns="http://www.w3.org/2000/svg" viewBox="0 0 245.414 160.28">
  <defs>
    <style>
      .cls-1 {
        fill: #d400d4;
        stroke: #9f009f;
        stroke-miterlimit: 10;
        stroke-width: 1.5px;
      }

      .cls-2 {
        stroke-width: 0px;
      }

      .cls-2, .cls-3 {
        fill: #fff;
      }

      .cls-3 {
        font-family: D2Coding, D2Coding;
        font-size: 25px;
      }
    </style>
  </defs>
  <path class="cls-1" d="m84.158,121.705h-21.05c-1.723,0-3.364-.74-4.505-2.031l-8.586-9.72c-1.141-1.292-2.781-2.031-4.505-2.031h-13.331c-3.32,0-6.011-2.691-6.011-6.011v-18.737c0-3.32,2.691-6.011,6.011-6.011h13.331c1.723,0,3.364.74,4.505,2.031l8.586,9.72c1.141,1.292,2.781,2.031,4.505,2.031h21.05c1.691,0,3.304-.712,4.443-1.963l8.981-9.857c1.139-1.25,2.752-1.963,4.443-1.963h136.629c3.32,0,6.011-2.691,6.011-6.011V6.761c0-3.32-2.691-6.011-6.011-6.011H6.761C3.441.75.75,3.441.75,6.761v146.759c0,3.32,2.691,6.011,6.011,6.011h231.893c3.32,0,6.011-2.691,6.011-6.011v-39.586c0-3.32-2.691-6.011-6.011-6.011H102.025c-1.691,0-3.304.712-4.443,1.963l-8.981,9.857c-1.139,1.25-2.752,1.963-4.443,1.963Z"/>
  <g>
    <rect class="cls-1" x="80.011" y="13.843" width="101.69" height="50.382" rx="5.743" ry="5.743"/>
    <path class="cls-2" d="m160.252,43.54l-6.78-6.353c-.801-.75-.27-2.093.827-2.093h13.56c1.097,0,1.628,1.343.827,2.093l-6.78,6.353c-.465.436-1.189.436-1.655,0Z"/>
    <text class="cls-3" transform="translate(14.443 47.152)"><tspan x="0" y="0">로고</tspan></text>
    <text class="cls-3" transform="translate(89.378 47.152)"><tspan x="0" y="0">누를</tspan></text>
  </g>
  <text class="cls-3" transform="translate(196.62 47.152)"><tspan x="0" y="0">때</tspan></text>
</svg>