<?xml version="1.0" encoding="UTF-8"?>
<svg id="_레이어_2" data-name="레이어 2" xmlns="http://www.w3.org/2000/svg" viewBox="0 0 826.89 1816.859">
  <defs>
    <style>
      .cls-1, .cls-2, .cls-3, .cls-4, .cls-5, .cls-6, .cls-7, .cls-8, .cls-9, .cls-10, .cls-11, .cls-12, .cls-13, .cls-14, .cls-15, .cls-16, .cls-17, .cls-18, .cls-19, .cls-20, .cls-21, .cls-22, .cls-23, .cls-24 {
        stroke-width: 0px;
      }

      .cls-1, .cls-25, .cls-26 {
        fill: #fefefe;
      }

      .cls-2 {
        fill: #009400;
      }

      .cls-3, .cls-27 {
        fill: #dc47d7;
      }

      .cls-28 {
        letter-spacing: -.032em;
      }

      .cls-4 {
        fill: #b819b3;
      }

      .cls-5 {
        fill: #c72042;
      }

      .cls-27 {
        stroke: #b719b2;
      }

      .cls-27, .cls-29, .cls-30, .cls-31, .cls-32, .cls-33 {
        stroke-width: 2px;
      }

      .cls-27, .cls-30, .cls-31, .cls-33 {
        stroke-miterlimit: 10;
      }

      .cls-6 {
        fill: #3bce3b;
      }

      .cls-7 {
        fill: #fefdfe;
      }

      .cls-8 {
        fill: #c62042;
      }

      .cls-29 {
        fill: #fe3a61;
        stroke: #c62142;
      }

      .cls-29, .cls-32 {
        stroke-linecap: round;
        stroke-linejoin: round;
      }

      .cls-30, .cls-31 {
        stroke: #009400;
      }

      .cls-30, .cls-24 {
        fill: #00b300;
      }

      .cls-9 {
        fill: #1b3ad8;
      }

      .cls-25 {
        font-size: 26px;
      }

      .cls-25, .cls-26, .cls-34, .cls-35 {
        font-family: Pretendard-Bold-KSCpc-EUC-H, Pretendard;
        font-weight: 700;
      }

      .cls-31 {
        fill: #00b400;
      }

      .cls-10 {
        fill: #b719b2;
      }

      .cls-11 {
        fill: #ff7f00;
      }

      .cls-32 {
        fill: #19baea;
        stroke: #1498c0;
      }

      .cls-12, .cls-35 {
        fill: #fff;
      }

      .cls-13 {
        fill: #6dddfe;
      }

      .cls-14 {
        fill: #1498c0;
      }

      .cls-26, .cls-34, .cls-35 {
        font-size: 22px;
      }

      .cls-15 {
        fill: #dd47d8;
      }

      .cls-16 {
        fill: #4562f5;
      }

      .cls-33 {
        stroke: #fe9b00;
      }

      .cls-33, .cls-19 {
        fill: #fedd81;
      }

      .cls-17 {
        fill: #fafdfa;
      }

      .cls-18 {
        fill: #f577f1;
      }

      .cls-20 {
        fill: #f4af18;
      }

      .cls-21 {
        fill: #f677f2;
      }

      .cls-22 {
        fill: #fe9b00;
      }

      .cls-23 {
        fill: #fe5576;
      }
    </style>
  </defs>
  <g>
    <g>
      <path class="cls-30" d="m20.64,64.053s-5.2-2.719-7.532-4.568C5.806,53.699,1.46,46.305.283,37.024c-1.071-8.442.911-16.145,5.784-22.984C11.681,6.161,19.381,1.463,29.1.274c9.447-1.156,17.928,1.343,25.093,7.428,2.309,1.961,4.441,2.392,7.168,2.399,81.918.211,163.835.465,245.753.713,13.081.04,24.448,9.349,26.741,22.14,2.77,15.451-7.86,29.794-23.175,31.684-.205.025-.396.168-.594.256-.891.016-1.782.048-2.673.045-86.874-.26-173.747-.518-260.621-.816-1.521-.005-2.596.406-3.649,1.498-2.976,3.089-6.092,6.042-9.092,9.109-.791.809-1.254.903-2.094.031-3.131-3.25-6.346-6.419-9.533-9.615-.505-.507-1.787-1.095-1.787-1.095Z"/>
      <path class="cls-1" d="m33.016,61.097c-15.48-.051-28.037-12.66-27.997-28.114.04-15.539,12.694-28.067,28.28-27.997,15.45.069,27.973,12.72,27.913,28.197-.06,15.443-12.708,27.964-28.196,27.914Z"/>
      <path class="cls-24" d="m21.752,32.067c.099-1.896-.183-4.236.152-6.562.711-4.937,4.657-8.567,9.628-8.799,1.609-.075,3.236-.154,4.823.234,4.693,1.146,7.831,5.11,7.914,10.093.06,3.614.045,7.23.006,10.844-.07,6.422-4.581,10.616-11.359,10.611-6.621-.005-11.083-4.255-11.16-10.647-.021-1.779-.003-3.559-.003-5.774Z"/>
      <path class="cls-17" d="m31.083,25.92c.035-.717.008-1.442.123-2.144.154-.937.826-1.465,1.736-1.493.99-.03,1.793.497,1.874,1.509.118,1.478.107,2.978-.004,4.457-.07.929-.81,1.468-1.722,1.499-.995.033-1.71-.518-1.884-1.517-.131-.754-.088-1.539-.124-2.311Z"/>
      <text class="cls-25" transform="translate(72.185 45.251) rotate(.173)"><tspan x="0" y="0">오브젝트를 클릭했을 때</tspan></text>
    </g>
    <g>
      <g>
        <path class="cls-27" d="m797.019,171.067H45.509l-12.543,11.141-12.024-10.593c-.238-.21-.622-.047-.622.265v52.811c0,.098.042.191.115.259l12.53,11.113,12.543-11.219h751.51c15.329,0,27.871-12.1,27.871-26.888h0c0-14.789-12.542-26.888-27.871-26.888Z"/>
        <path class="cls-10" d="m772.734,198.461c.085-12.114,9.79-22.01,22.342-21.937,12.159.071,22.178,9.883,21.961,22.471-.203,11.764-9.754,21.773-22.498,21.598-12.042-.166-21.794-9.762-21.805-22.132Z"/>
        <path class="cls-21" d="m794.694,188.516c3.973.048,6.605,2.132,7.169,5.536.236,1.421-.185,2.643-1.127,3.671-.864.943-1.773,1.854-2.731,2.702-1.025.909-1.869,1.892-2.145,3.28-.232,1.167-.936,1.732-2.155,1.54-1.232-.194-1.334-1.074-1.385-2.104-.103-2.069,1.042-3.441,2.431-4.709.657-.599,1.396-1.122,1.982-1.782,1.412-1.588,1.315-3.285-.17-4.344-1.397-.997-3.888-.624-4.788.786-.444.696-.76,1.483-1.061,2.257-.461,1.186-1.382,1.378-2.45,1.155-1.088-.227-1.328-1.054-1.254-2.043.193-2.571,1.812-4.116,3.935-5.163,1.186-.585,2.528-.865,3.748-.783Z"/>
        <path class="cls-18" d="m794.211,211.228c-1.32,0-2.19-.878-2.179-2.197.011-1.354.827-2.157,2.191-2.156,1.361,0,2.177.81,2.183,2.167.006,1.3-.885,2.187-2.195,2.186Z"/>
      </g>
      <g>
        <path class="cls-10" d="m181.735,177.653l-126.077-.061c-3.657-.014-6.893,2.767-6.868,6.912.052,8.797.052,17.595,0,26.392-.024,4.145,3.212,6.915,6.869,6.91,56.653-.084,69.424-.059,126.077-.059,4.46,0,6.868-2.426,6.87-6.935.004-8.742.004-17.483,0-26.225-.002-4.508-2.41-6.934-6.871-6.934Z"/>
        <path class="cls-7" d="m171.593,192.443c1.503,0,3.006-.003,4.509.001.951.003,1.744.288,2.197,1.211.47.958.064,1.702-.534,2.425-1.451,1.754-2.859,3.543-4.343,5.268-1.318,1.533-2.389,1.523-3.72-.029-1.519-1.771-2.972-3.598-4.452-5.402-.521-.635-.812-1.313-.452-2.145.374-.865,1.045-1.293,1.954-1.309,1.614-.027,3.228-.008,4.842-.008v-.013Z"/>
        <text class="cls-26" transform="translate(59.169 205.535)"><tspan x="0" y="0">컴퓨터 선택</tspan></text>
      </g>
      <g>
        <path class="cls-20" d="m296.775,218.463c-10.975,0-19.903-8.929-19.903-19.903s8.929-19.903,19.903-19.903h291.986c10.975,0,19.903,8.929,19.903,19.903s-8.929,19.903-19.903,19.903h-291.986Z"/>
        <path class="cls-11" d="m588.761,179.656c10.423,0,18.903,8.48,18.903,18.903s-8.48,18.903-18.903,18.903h-291.986c-10.423,0-18.903-8.48-18.903-18.903s8.48-18.903,18.903-18.903h291.986m0-2h-291.986c-11.497,0-20.903,9.406-20.903,20.903h0c0,11.497,9.406,20.903,20.903,20.903h291.986c11.497,0,20.903-9.406,20.903-20.903h0c0-11.497-9.406-20.903-20.903-20.903h0Z"/>
      </g>
      <text class="cls-35" transform="translate(343.059 205.622)"><tspan x="0" y="0">부터</tspan></text>
      <text class="cls-35" transform="translate(447.676 205.623)"><tspan x="0" y="0">사이의 무작위 수</tspan></text>
      <g>
        <path class="cls-19" d="m416.452,218.463c-10.975,0-19.903-8.929-19.903-19.903s8.929-19.903,19.903-19.903,19.903,8.929,19.903,19.903-8.928,19.903-19.903,19.903Z"/>
        <path class="cls-22" d="m416.452,179.656c10.423,0,18.903,8.48,18.903,18.903s-8.48,18.903-18.903,18.903-18.903-8.48-18.903-18.903,8.48-18.903,18.903-18.903m0-2h0c-11.497,0-20.903,9.406-20.903,20.903h0c0,11.497,9.406,20.903,20.903,20.903h0c11.497,0,20.903-9.406,20.903-20.903h0c0-11.497-9.406-20.903-20.903-20.903h0Z"/>
      </g>
      <text class="cls-34" transform="translate(409.245 205.622)"><tspan x="0" y="0">3</tspan></text>
      <g>
        <circle class="cls-19" cx="310.475" cy="198.56" r="19.903"/>
        <path class="cls-22" d="m310.476,179.656c10.423,0,18.903,8.48,18.903,18.903s-8.48,18.903-18.903,18.903-18.903-8.48-18.903-18.903,8.48-18.903,18.903-18.903m0-2h0c-11.497,0-20.903,9.406-20.903,20.903h0c0,11.497,9.406,20.903,20.903,20.903h0c11.497,0,20.903-9.406,20.903-20.903h0c0-11.497-9.406-20.903-20.903-20.903h0Z"/>
      </g>
      <text class="cls-34" transform="translate(304.997 205.622)"><tspan x="0" y="0">1</tspan></text>
      <text class="cls-25" transform="translate(202.118 205.623)"><tspan x="0" y="0">을(를)</tspan></text>
      <text class="cls-25" transform="translate(620.435 205.622)"><tspan x="0" y="0">(으)로 정하기</tspan></text>
    </g>
    <g>
      <g>
        <path class="cls-27" d="m496.694,118.03H45.509l-12.543,11.141-12.024-10.593c-.238-.21-.622-.047-.622.265v52.811c0,.098.042.191.115.259l12.53,11.113,12.543-11.219h451.185c15.329,0,27.871-12.1,27.871-26.888h0c0-14.789-12.542-26.888-27.871-26.888Z"/>
        <path class="cls-10" d="m472.408,144.423c.085-12.114,9.79-22.01,22.342-21.937,12.159.071,22.178,9.883,21.961,22.471-.203,11.764-9.754,21.773-22.498,21.598-12.042-.166-21.794-9.762-21.805-22.132Z"/>
        <path class="cls-21" d="m494.368,134.478c3.973.048,6.605,2.132,7.169,5.536.236,1.421-.185,2.643-1.127,3.671-.864.943-1.773,1.854-2.731,2.702-1.025.909-1.869,1.892-2.145,3.28-.232,1.167-.936,1.732-2.155,1.54-1.232-.194-1.334-1.074-1.385-2.104-.103-2.069,1.042-3.441,2.431-4.709.657-.599,1.396-1.122,1.982-1.782,1.412-1.588,1.315-3.285-.17-4.344-1.397-.997-3.888-.624-4.788.786-.444.696-.76,1.483-1.061,2.257-.461,1.186-1.382,1.378-2.45,1.155-1.088-.227-1.328-1.054-1.254-2.043.193-2.571,1.812-4.116,3.935-5.163,1.186-.585,2.528-.865,3.748-.783Z"/>
        <path class="cls-18" d="m493.885,157.191c-1.32,0-2.19-.878-2.179-2.197.011-1.354.827-2.157,2.191-2.156,1.361,0,2.177.81,2.183,2.167.006,1.3-.885,2.187-2.195,2.186Z"/>
      </g>
      <text class="cls-25" transform="translate(325.754 153.183)"><tspan x="0" y="0">(으)로 정하기</tspan></text>
      <text class="cls-25" transform="translate(167.148 153.183)"><tspan x="0" y="0">을(를)</tspan></text>
      <path class="cls-10" d="m146.297,124.476l-90.639-.061c-3.657-.014-6.893,2.767-6.868,6.912.052,8.797.052,17.595,0,26.392-.024,4.145,3.212,6.915,6.869,6.91,56.653-.084,33.986-.059,90.639-.059,4.46,0,6.868-2.426,6.87-6.935.004-8.742.004-17.483,0-26.225-.002-4.508-2.41-6.934-6.871-6.934Z"/>
      <path class="cls-7" d="m136.155,139.267c1.503,0,3.006-.003,4.509.001.951.003,1.744.288,2.197,1.211.47.958.064,1.702-.534,2.425-1.451,1.754-2.859,3.543-4.343,5.268-1.318,1.533-2.389,1.523-3.72-.029-1.519-1.771-2.972-3.598-4.452-5.402-.521-.635-.812-1.313-.452-2.145.374-.865,1.045-1.293,1.954-1.309,1.614-.027,3.228-.008,4.842-.008v-.013Z"/>
      <text class="cls-26" transform="translate(59.169 152.358)"><tspan x="0" y="0">내 선택</tspan></text>
      <g>
        <path class="cls-10" d="m306.933,135.673c-3.978-8.028-10.585-12.205-19.692-12.204l-23.634.017c-13.365.1-23.308,12.743-20.298,25.728,2.245,9.683,10.748,16.352,20.919,16.354l22.63.007c1.562,0,3.108-.072,4.657-.328,13.443-2.215,21.457-17.384,15.417-29.573Z"/>
        <path class="cls-3" d="m274.473,125.477c42.548,0-29.54-.003,13.008.003,9.346.001,16.7,5.774,18.918,14.808,2.597,10.582-4.706,21.37-15.534,23.016-1.222.186-2.431.263-3.655.263-85.04,0,62.236.002-22.804,0-11.651,0-20.056-8.798-19.553-20.436.36-8.321,7.473-16.158,15.669-17.363,1.445-.212,2.876-.287,4.323-.287,42.437-.001-32.807,0,9.629,0Z"/>
      </g>
      <text class="cls-35" transform="translate(257.209 149.841)"><tspan x="0" y="0">대답</tspan></text>
    </g>
    <g>
      <path class="cls-31" d="m354.229,224.657H45.509l-12.543,11.141-12.024-10.593c-.238-.21-.622-.047-.622.265v52.811c0,.098.042.191.115.259l12.53,11.113,12.543-11.219h308.721c15.329,0,27.871-12.1,27.871-26.888h0c0-14.789-12.542-26.888-27.871-26.888Z"/>
      <g>
        <path class="cls-2" d="m330.734,251.207c.085-12.114,9.79-22.01,22.342-21.937,12.159.071,22.178,9.883,21.961,22.471-.203,11.764-9.754,21.773-22.498,21.598-12.042-.166-21.794-9.762-21.805-22.132Z"/>
        <g>
          <path class="cls-6" d="m365.118,245.986c0,1.542-.008,3.085.003,4.627.007.98-.264,1.487-1.38,1.043-2.268-.902-4.509-.654-6.762.172-1.828.67-3.715,1.034-5.658.417-.884-.281-1.324-.78-1.303-1.8.062-3.028.029-6.059.018-9.089-.004-1.006.123-1.673,1.394-1.023,1.992,1.019,3.969.447,5.902-.261,2.224-.814,4.426-1.176,6.743-.28.829.321,1.084.737,1.057,1.566-.05,1.541-.014,3.084-.015,4.627Z"/>
          <path class="cls-6" d="m348.481,250.188c0,3.197.023,6.395-.016,9.592-.01.805.134,1.195,1.061,1.136,1.142-.072,2.005.452,1.928,1.706-.072,1.164-.992,1.47-2.018,1.474-1.655.007-3.309.007-4.964,0-1.047-.005-1.902-.364-1.951-1.54-.05-1.196.799-1.68,1.838-1.632,1.034.048,1.134-.418,1.13-1.268-.03-5.898-.016-11.797-.015-17.695,0-.441.007-.882,0-1.323-.018-1.057.309-1.93,1.507-1.952,1.222-.022,1.511.85,1.507,1.911-.014,3.197-.005,6.394-.005,9.592Z"/>
        </g>
      </g>
      <text class="cls-25" transform="translate(202.118 259.653)"><tspan x="0" y="0">신호 보내기</tspan></text>
      <g>
        <path class="cls-2" d="m180.402,231.103l-124.745-.061c-3.657-.014-6.893,2.767-6.868,6.912.052,8.797.052,17.595,0,26.392-.024,4.145,3.212,6.915,6.869,6.91,56.653-.084,68.092-.059,124.745-.059,4.46,0,6.868-2.426,6.87-6.935.004-8.742.004-17.483,0-26.225-.002-4.508-2.41-6.934-6.871-6.934Z"/>
        <path class="cls-7" d="m170.261,245.893c1.503,0,3.006-.003,4.509.001.951.003,1.744.288,2.197,1.211.47.958.064,1.702-.534,2.425-1.451,1.754-2.859,3.543-4.343,5.268-1.318,1.533-2.389,1.523-3.72-.029-1.519-1.771-2.972-3.598-4.452-5.402-.521-.635-.812-1.313-.452-2.145.374-.865,1.045-1.293,1.954-1.309,1.614-.027,3.228-.008,4.842-.008v-.013Z"/>
        <text class="cls-26" transform="translate(59.169 258.985)"><tspan x="0" y="0">모양 바꾸기</tspan></text>
      </g>
    </g>
    <g>
      <g>
        <path class="cls-27" d="m677.858,64.369H45.509l-12.543,11.141-12.024-10.593c-.238-.21-.622-.047-.622.265v52.811c0,.098.042.191.115.259l12.53,11.113,12.543-11.219h632.349c15.329,0,27.871-12.1,27.871-26.888h0c0-14.789-12.542-26.888-27.871-26.888Z"/>
        <path class="cls-10" d="m653.572,91.078c.085-12.114,9.79-22.01,22.342-21.937,12.159.071,22.178,9.883,21.961,22.471-.203,11.764-9.754,21.773-22.498,21.598-12.042-.166-21.794-9.762-21.805-22.132Z"/>
        <path class="cls-21" d="m675.532,81.133c3.973.048,6.605,2.132,7.169,5.536.236,1.421-.185,2.643-1.127,3.671-.864.943-1.773,1.854-2.731,2.702-1.025.909-1.869,1.892-2.145,3.28-.232,1.167-.936,1.732-2.155,1.54-1.232-.194-1.334-1.074-1.385-2.104-.103-2.069,1.042-3.441,2.431-4.709.657-.599,1.396-1.122,1.982-1.782,1.412-1.588,1.315-3.285-.17-4.344-1.397-.997-3.888-.624-4.788.786-.444.696-.76,1.483-1.061,2.257-.461,1.186-1.382,1.378-2.45,1.155-1.088-.227-1.328-1.054-1.254-2.043.193-2.571,1.812-4.116,3.935-5.163,1.186-.585,2.528-.865,3.748-.783Z"/>
        <path class="cls-18" d="m675.049,103.846c-1.32,0-2.19-.878-2.179-2.197.011-1.354.827-2.157,2.191-2.156,1.361,0,2.177.81,2.183,2.167.006,1.3-.885,2.187-2.195,2.186Z"/>
      </g>
      <text class="cls-25" transform="translate(377.693 98.241)"><tspan x="0" y="0">을(를) 묻고 대답 기다리기</tspan></text>
      <g>
        <g>
          <path class="cls-19" d="m67.692,111.08c-10.975,0-19.903-8.929-19.903-19.903s8.929-19.903,19.903-19.903h274.429c10.975,0,19.903,8.929,19.903,19.903s-8.929,19.903-19.903,19.903H67.692Z"/>
          <path class="cls-22" d="m342.121,72.274c10.423,0,18.903,8.48,18.903,18.903s-8.48,18.903-18.903,18.903H67.692c-10.423,0-18.903-8.48-18.903-18.903s8.48-18.903,18.903-18.903h274.429m0-2H67.692c-11.497,0-20.903,9.406-20.903,20.903s9.406,20.903,20.903,20.903h274.429c11.497,0,20.903-9.406,20.903-20.903h0c0-11.497-9.406-20.903-20.903-20.903h0Z"/>
        </g>
        <text class="cls-34" transform="translate(62.228 98.24)"><tspan x="0" y="0">가위 바위 보 중 하나를 선택해 봐!</tspan></text>
      </g>
    </g>
    <g>
      <g>
        <g>
          <path class="cls-32" d="m20.348,334s-.001-.01-.003-.015v.015s.003,0,.003,0Z"/>
          <path class="cls-32" d="m585.423,755.176H70.548l-10.506,11.226-12.645-11.226v-421.05l12.441,11.461,12.387-11.471,501.527-.091c16.083,0,29.097-13.805,27.779-30.151-1.175-14.565-13.733-25.591-28.345-25.591H45.509l-12.543,11.548-12.023-10.98c-.238-.218-.622-.049-.622.274v54.741c0,.042.011.081.025.119l.09-1.851.056,454.607,12.379,11.613,12.516-11.613h540.037c8.716,0,15.782-7.066,15.782-15.783s-7.066-15.783-15.782-15.783Z"/>
        </g>
        <g>
          <path class="cls-14" d="m594.307,306.257c.233,11.599-9.583,22.21-22.59,21.903-11.361-.268-21.522-9.45-21.508-22.104.014-12.581,10.427-22.278,22.629-21.994,11.969.279,21.786,10.209,21.47,22.194Z"/>
          <path class="cls-13" d="m580.391,307.79c-.095,0-.185.021-.279.028l-4.684-7.075c.647-.892.942-2.055.623-3.302-.356-1.388-1.5-2.504-2.899-2.812-2.553-.562-4.81,1.366-4.81,3.821,0,.859.284,1.646.753,2.292l-4.684,7.075c-.094-.007-.183-.028-.279-.028-2.466,0-4.4,2.277-3.814,4.843.323,1.416,1.474,2.567,2.89,2.89,2.566.586,4.843-1.348,4.843-3.814,0-1.153-.507-2.18-1.3-2.897l4.386-6.625c.358.108.731.183,1.124.183s.766-.076,1.124-.183l4.386,6.625c-1.013.917-1.56,2.338-1.178,3.884.344,1.389,1.482,2.51,2.877,2.828,2.564.583,4.839-1.35,4.839-3.815,0-2.165-1.755-3.919-3.919-3.919Z"/>
        </g>
        <text class="cls-25" transform="translate(52.225 314.251)"><tspan x="0" y="0">만일</tspan></text>
        <text class="cls-25" transform="translate(447.506 314.251)"><tspan x="0" y="0">(이)라면</tspan></text>
        <g>
          <g>
            <polygon class="cls-16" points="108.795 305.904 124.323 286 417.637 285.601 433.163 305.503 417.636 325.407 124.322 325.807 108.795 305.904"/>
            <path class="cls-9" d="m417.149,286.601l14.745,18.902-14.747,18.905-292.338.399-14.745-18.902,14.747-18.905,292.338-.399m.975-2.001l-294.291.401-16.306,20.903,16.306,20.903,294.291-.401,16.306-20.903-16.306-20.903h0Z"/>
          </g>
          <g>
            <g>
              <g>
                <path class="cls-15" d="m146.015,325.808c-10.975,0-19.903-8.929-19.903-19.903s8.929-19.903,19.903-19.903h123.79c10.975,0,19.903,8.929,19.903,19.903s-8.929,19.903-19.903,19.903h-123.79Z"/>
                <path class="cls-4" d="m269.805,287.001c10.423,0,18.903,8.48,18.903,18.903s-8.48,18.903-18.903,18.903h-123.79c-10.423,0-18.903-8.48-18.903-18.903s8.48-18.903,18.903-18.903h123.79m0-2h-123.79c-11.497,0-20.903,9.406-20.903,20.903h0c0,11.497,9.406,20.903,20.903,20.903h123.79c11.497,0,20.903-9.406,20.903-20.903h0c0-11.497-9.406-20.903-20.903-20.903h0Z"/>
              </g>
              <rect class="cls-4" x="140.596" y="286.42" width="101.469" height="38.968" rx="3.871" ry="3.871"/>
              <text class="cls-35" transform="translate(254.974 312.967)"><tspan x="0" y="0">값</tspan></text>
              <text class="cls-35" transform="translate(151.121 312.967)"><tspan x="0" y="0">내 선택</tspan></text>
              <path class="cls-7" d="m226.372,301.227c1.503,0,3.006-.003,4.509.001.951.003,1.744.288,2.197,1.211.47.958.064,1.702-.534,2.425-1.451,1.754-2.859,3.543-4.343,5.268-1.318,1.533-2.389,1.523-3.72-.029-1.519-1.771-2.972-3.598-4.452-5.402-.521-.635-.812-1.313-.452-2.145.374-.865,1.045-1.293,1.954-1.309,1.614-.027,3.228-.008,4.842-.008v-.013Z"/>
            </g>
            <g>
              <g>
                <path class="cls-19" d="m371.355,325.808c-10.975,0-19.903-8.929-19.903-19.903s8.929-19.903,19.903-19.903h23.194c10.975,0,19.903,8.929,19.903,19.903s-8.928,19.903-19.903,19.903h-23.194Z"/>
                <path class="cls-22" d="m394.549,287.001c10.423,0,18.903,8.48,18.903,18.903s-8.48,18.903-18.903,18.903h-23.194c-10.423,0-18.903-8.48-18.903-18.903s8.48-18.903,18.903-18.903h23.194m0-2h-23.194c-11.497,0-20.903,9.406-20.903,20.903h0c0,11.497,9.406,20.903,20.903,20.903h23.194c11.497,0,20.903-9.406,20.903-20.903h0c0-11.497-9.406-20.903-20.903-20.903h0Z"/>
              </g>
              <text class="cls-34" transform="translate(363.102 312.967)"><tspan x="0" y="0">가위 </tspan></text>
            </g>
          </g>
          <rect class="cls-9" x="304.563" y="286.098" width="30.968" height="39.613" rx="3.355" ry="3.355"/>
          <text class="cls-35" transform="translate(310.008 312.967)"><tspan x="0" y="0">＝</tspan></text>
        </g>
        <line class="cls-33" x1="439.11" y1="748.882" x2="439.11" y2="748.882"/>
      </g>
      <g>
        <g>
          <path class="cls-32" d="m47.536,529.307s-.001-.01-.003-.015v.015s.003,0,.003,0Z"/>
          <path class="cls-32" d="m612.611,582.946l-514.875-.142-10.506,11.226-12.645-11.226v-53.371l12.441,11.461,12.387-11.471,501.527-.091c16.083,0,29.097-13.805,27.779-30.151-1.175-14.565-13.733-25.591-28.345-25.591H72.697l-12.543,11.548-12.023-10.98c-.238-.218-.622-.049-.622.274v54.741c0,.042.011.081.025.119l.09-1.851.056,86.928,12.379,11.613,12.516-11.613,540.037.142c8.716,0,15.782-7.066,15.782-15.783s-7.066-15.783-15.782-15.783Z"/>
        </g>
        <g>
          <path class="cls-14" d="m621.495,501.565c.233,11.599-9.583,22.21-22.59,21.903-11.361-.268-21.522-9.45-21.508-22.104.014-12.581,10.427-22.278,22.629-21.994,11.969.279,21.786,10.209,21.47,22.194Z"/>
          <path class="cls-13" d="m607.579,503.097c-.095,0-.185.021-.279.028l-4.684-7.075c.647-.892.942-2.055.623-3.302-.356-1.388-1.5-2.504-2.899-2.812-2.553-.562-4.81,1.366-4.81,3.821,0,.859.284,1.646.753,2.292l-4.684,7.075c-.094-.007-.183-.028-.279-.028-2.466,0-4.4,2.277-3.814,4.843.323,1.416,1.474,2.567,2.89,2.89,2.566.586,4.843-1.348,4.843-3.814,0-1.153-.507-2.18-1.3-2.897l4.386-6.625c.358.108.731.183,1.124.183s.766-.076,1.124-.183l4.386,6.625c-1.013.917-1.56,2.338-1.178,3.884.344,1.389,1.482,2.51,2.877,2.828,2.564.583,4.839-1.35,4.839-3.815,0-2.165-1.755-3.919-3.919-3.919Z"/>
        </g>
        <text class="cls-25" transform="translate(79.412 509.558)"><tspan x="0" y="0">만일</tspan></text>
        <text class="cls-25" transform="translate(478.694 509.558)"><tspan x="0" y="0">(이)라면</tspan></text>
        <g>
          <g>
            <polygon class="cls-16" points="135.983 501.212 151.511 481.308 455.663 480.908 471.189 500.81 455.662 520.714 151.51 521.113 135.983 501.212"/>
            <path class="cls-9" d="m455.175,481.908l14.745,18.902-14.747,18.905-303.176.399-14.745-18.902,14.747-18.904,303.176-.399m.975-2.001l-305.129.401-16.306,20.903,16.306,20.903,305.129-.401,16.306-20.903-16.306-20.903h0Z"/>
          </g>
          <g>
            <g>
              <g>
                <path class="cls-15" d="m173.203,521.114c-10.975,0-19.903-8.928-19.903-19.902s8.929-19.903,19.903-19.903h159.349c10.975,0,19.903,8.929,19.903,19.903s-8.929,19.902-19.903,19.902h-159.349Z"/>
                <path class="cls-4" d="m332.552,482.308c10.423,0,18.903,8.48,18.903,18.903s-8.48,18.903-18.903,18.903h-159.349c-10.423,0-18.903-8.48-18.903-18.903s8.48-18.903,18.903-18.903h159.349m0-2h-159.349c-11.497,0-20.903,9.406-20.903,20.903h0c0,11.497,9.406,20.903,20.903,20.903h159.349c11.497,0,20.903-9.406,20.903-20.903h0c0-11.497-9.406-20.903-20.903-20.903h0Z"/>
              </g>
              <rect class="cls-4" x="167.784" y="481.728" width="137.029" height="38.968" rx="3.871" ry="3.871"/>
              <text class="cls-35" transform="translate(317.722 508.274)"><tspan x="0" y="0">값</tspan></text>
              <text class="cls-35" transform="translate(178.309 508.274)"><tspan x="0" y="0">컴퓨터 선택</tspan></text>
              <path class="cls-7" d="m289.119,496.534c1.503,0,3.006-.003,4.509.001.951.003,1.744.288,2.197,1.211.47.958.064,1.702-.534,2.425-1.451,1.754-2.859,3.543-4.343,5.268-1.318,1.533-2.389,1.523-3.72-.029-1.519-1.771-2.972-3.598-4.452-5.402-.521-.635-.812-1.313-.452-2.145.374-.865,1.045-1.293,1.954-1.309,1.614-.027,3.228-.008,4.842-.008v-.013Z"/>
            </g>
            <g>
              <g>
                <path class="cls-19" d="m434.102,521.114c-10.975,0-19.903-8.928-19.903-19.902s8.929-19.903,19.903-19.903h1.145c10.975,0,19.903,8.929,19.903,19.903s-8.929,19.902-19.903,19.902h-1.145Z"/>
                <path class="cls-22" d="m435.248,482.308c10.423,0,18.903,8.48,18.903,18.903s-8.48,18.903-18.903,18.903h-1.145c-10.423,0-18.903-8.48-18.903-18.903s8.48-18.903,18.903-18.903h1.145m0-2h-1.145c-11.497,0-20.903,9.406-20.903,20.903h0c0,11.497,9.406,20.903,20.903,20.903h1.145c11.497,0,20.903-9.406,20.903-20.903h0c0-11.497-9.406-20.903-20.903-20.903h0Z"/>
              </g>
              <text class="cls-34" transform="translate(428.946 508.274)"><tspan x="0" y="0">2</tspan></text>
            </g>
          </g>
          <rect class="cls-9" x="367.31" y="481.405" width="30.968" height="39.613" rx="3.355" ry="3.355"/>
          <text class="cls-35" transform="translate(372.756 508.274)"><tspan x="0" y="0">＝</tspan></text>
        </g>
      </g>
      <g>
        <g>
          <path class="cls-32" d="m47.536,389.703s-.001-.01-.003-.015v.015s.003,0,.003,0Z"/>
          <path class="cls-32" d="m612.611,443.341l-514.875-.142-10.506,11.226-12.645-11.226v-53.371l12.441,11.461,12.387-11.471,501.527-.091c16.083,0,29.097-13.805,27.779-30.151-1.175-14.565-13.733-25.591-28.345-25.591H72.697l-12.543,11.548-12.023-10.98c-.238-.218-.622-.049-.622.274v54.741c0,.042.011.081.025.119l.09-1.851.056,86.928,12.379,11.613,12.516-11.613,540.037.142c8.716,0,15.782-7.066,15.782-15.783s-7.066-15.783-15.782-15.783Z"/>
        </g>
        <g>
          <path class="cls-14" d="m621.495,361.96c.233,11.599-9.583,22.21-22.59,21.903-11.361-.268-21.522-9.45-21.508-22.104.014-12.581,10.427-22.278,22.629-21.994,11.969.279,21.786,10.209,21.47,22.194Z"/>
          <path class="cls-13" d="m607.579,363.492c-.095,0-.185.021-.279.028l-4.684-7.075c.647-.892.942-2.055.623-3.302-.356-1.388-1.5-2.504-2.899-2.812-2.553-.562-4.81,1.366-4.81,3.821,0,.859.284,1.646.753,2.292l-4.684,7.075c-.094-.007-.183-.028-.279-.028-2.466,0-4.4,2.277-3.814,4.843.323,1.416,1.474,2.567,2.89,2.89,2.566.586,4.843-1.348,4.843-3.814,0-1.153-.507-2.18-1.3-2.897l4.386-6.625c.358.108.731.183,1.124.183s.766-.076,1.124-.183l4.386,6.625c-1.013.917-1.56,2.338-1.178,3.884.344,1.389,1.482,2.51,2.877,2.828,2.564.583,4.839-1.35,4.839-3.815,0-2.165-1.755-3.919-3.919-3.919Z"/>
        </g>
        <text class="cls-25" transform="translate(79.412 369.953)"><tspan x="0" y="0">만일</tspan></text>
        <text class="cls-25" transform="translate(478.694 369.953)"><tspan x="0" y="0">(이)라면</tspan></text>
        <g>
          <g>
            <polygon class="cls-16" points="135.983 361.607 151.511 341.702 455.663 341.303 471.189 361.205 455.662 381.109 151.51 381.509 135.983 361.607"/>
            <path class="cls-9" d="m455.175,342.303l14.745,18.902-14.747,18.904-303.176.399-14.745-18.902,14.747-18.905,303.176-.399m.975-2.001l-305.129.401-16.306,20.903,16.306,20.903,305.129-.401,16.306-20.903-16.306-20.903h0Z"/>
          </g>
          <g>
            <g>
              <g>
                <path class="cls-15" d="m173.203,381.51c-10.975,0-19.903-8.929-19.903-19.903s8.929-19.903,19.903-19.903h159.349c10.975,0,19.903,8.929,19.903,19.903s-8.929,19.903-19.903,19.903h-159.349Z"/>
                <path class="cls-4" d="m332.552,342.703c10.423,0,18.903,8.48,18.903,18.903s-8.48,18.903-18.903,18.903h-159.349c-10.423,0-18.903-8.48-18.903-18.903s8.48-18.903,18.903-18.903h159.349m0-2h-159.349c-11.497,0-20.903,9.406-20.903,20.903s9.406,20.903,20.903,20.903h159.349c11.497,0,20.903-9.406,20.903-20.903s-9.406-20.903-20.903-20.903h0Z"/>
              </g>
              <rect class="cls-4" x="167.784" y="342.123" width="137.029" height="38.968" rx="3.871" ry="3.871"/>
              <text class="cls-35" transform="translate(317.722 368.669)"><tspan x="0" y="0">값</tspan></text>
              <text class="cls-35" transform="translate(178.309 368.669)"><tspan x="0" y="0">컴퓨터 선택</tspan></text>
              <path class="cls-7" d="m289.119,356.929c1.503,0,3.006-.003,4.509.001.951.003,1.744.288,2.197,1.211.47.958.064,1.702-.534,2.425-1.451,1.754-2.859,3.543-4.343,5.268-1.318,1.533-2.389,1.523-3.72-.029-1.519-1.771-2.972-3.598-4.452-5.402-.521-.635-.812-1.313-.452-2.145.374-.865,1.045-1.293,1.954-1.309,1.614-.027,3.228-.008,4.842-.008v-.013Z"/>
            </g>
            <g>
              <g>
                <path class="cls-19" d="m434.102,381.51c-10.975,0-19.903-8.929-19.903-19.903s8.929-19.903,19.903-19.903h1.145c10.975,0,19.903,8.929,19.903,19.903s-8.929,19.903-19.903,19.903h-1.145Z"/>
                <path class="cls-22" d="m435.248,342.703c10.423,0,18.903,8.48,18.903,18.903s-8.48,18.903-18.903,18.903h-1.145c-10.423,0-18.903-8.48-18.903-18.903s8.48-18.903,18.903-18.903h1.145m0-2h-1.145c-11.497,0-20.903,9.406-20.903,20.903h0c0,11.497,9.406,20.903,20.903,20.903h1.145c11.497,0,20.903-9.406,20.903-20.903h0c0-11.497-9.406-20.903-20.903-20.903h0Z"/>
              </g>
              <text class="cls-34" transform="translate(428.946 368.669)"><tspan x="0" y="0">1</tspan></text>
            </g>
          </g>
          <rect class="cls-9" x="367.31" y="341.8" width="30.968" height="39.613" rx="3.355" ry="3.355"/>
          <text class="cls-35" transform="translate(372.756 368.669)"><tspan x="0" y="0">＝</tspan></text>
        </g>
      </g>
      <g>
        <g>
          <path class="cls-32" d="m47.536,670.243s-.001-.01-.003-.015v.015s.003,0,.003,0Z"/>
          <path class="cls-32" d="m612.611,723.882l-514.875-.142-10.506,11.226-12.645-11.226v-53.371l12.441,11.461,12.387-11.471,501.527-.091c16.083,0,29.097-13.805,27.779-30.151-1.175-14.565-13.733-25.591-28.345-25.591H72.697l-12.543,11.548-12.023-10.98c-.238-.218-.622-.049-.622.274v54.741c0,.042.011.081.025.119l.09-1.851.056,86.928,12.379,11.613,12.516-11.613,540.037.142c8.716,0,15.782-7.066,15.782-15.783s-7.066-15.783-15.782-15.783Z"/>
        </g>
        <g>
          <path class="cls-14" d="m621.495,642.5c.233,11.599-9.583,22.21-22.59,21.903-11.361-.268-21.522-9.45-21.508-22.104.014-12.581,10.427-22.278,22.629-21.994,11.969.279,21.786,10.209,21.47,22.194Z"/>
          <path class="cls-13" d="m607.579,644.032c-.095,0-.185.021-.279.028l-4.684-7.075c.647-.892.942-2.055.623-3.302-.356-1.388-1.5-2.504-2.899-2.812-2.553-.562-4.81,1.366-4.81,3.821,0,.859.284,1.646.753,2.292l-4.684,7.075c-.094-.007-.183-.028-.279-.028-2.466,0-4.4,2.277-3.814,4.843.323,1.416,1.474,2.567,2.89,2.89,2.566.586,4.843-1.348,4.843-3.814,0-1.153-.507-2.18-1.3-2.897l4.386-6.625c.358.108.731.183,1.124.183s.766-.076,1.124-.183l4.386,6.625c-1.013.917-1.56,2.338-1.178,3.884.344,1.389,1.482,2.51,2.877,2.828,2.564.583,4.839-1.35,4.839-3.815,0-2.165-1.755-3.919-3.919-3.919Z"/>
        </g>
        <text class="cls-25" transform="translate(79.412 650.494)"><tspan x="0" y="0">만일</tspan></text>
        <text class="cls-25" transform="translate(478.694 650.493)"><tspan x="0" y="0">(이)라면</tspan></text>
        <g>
          <g>
            <polygon class="cls-16" points="135.983 642.147 151.511 622.242 455.663 621.843 471.189 641.745 455.662 661.649 151.51 662.049 135.983 642.147"/>
            <path class="cls-9" d="m455.175,622.843l14.745,18.902-14.747,18.905-303.176.399-14.745-18.902,14.747-18.905,303.176-.399m.975-2.001l-305.129.401-16.306,20.903,16.306,20.903,305.129-.401,16.306-20.903-16.306-20.903h0Z"/>
          </g>
          <g>
            <g>
              <g>
                <path class="cls-15" d="m173.203,662.05c-10.975,0-19.903-8.929-19.903-19.903s8.929-19.903,19.903-19.903h159.349c10.975,0,19.903,8.929,19.903,19.903s-8.929,19.903-19.903,19.903h-159.349Z"/>
                <path class="cls-4" d="m332.552,623.243c10.423,0,18.903,8.48,18.903,18.903s-8.48,18.903-18.903,18.903h-159.349c-10.423,0-18.903-8.48-18.903-18.903s8.48-18.903,18.903-18.903h159.349m0-2h-159.349c-11.497,0-20.903,9.406-20.903,20.903s9.406,20.903,20.903,20.903h159.349c11.497,0,20.903-9.406,20.903-20.903s-9.406-20.903-20.903-20.903h0Z"/>
              </g>
              <rect class="cls-4" x="167.784" y="622.663" width="137.029" height="38.968" rx="3.871" ry="3.871"/>
              <text class="cls-35" transform="translate(317.722 649.209)"><tspan x="0" y="0">값</tspan></text>
              <text class="cls-35" transform="translate(178.309 649.21)"><tspan x="0" y="0">컴퓨터 선택</tspan></text>
              <path class="cls-7" d="m289.119,637.469c1.503,0,3.006-.003,4.509.001.951.003,1.744.288,2.197,1.211.47.958.064,1.702-.534,2.425-1.451,1.754-2.859,3.543-4.343,5.268-1.318,1.533-2.389,1.523-3.72-.029-1.519-1.771-2.972-3.598-4.452-5.402-.521-.635-.812-1.313-.452-2.145.374-.865,1.045-1.293,1.954-1.309,1.614-.027,3.228-.008,4.842-.008v-.013Z"/>
            </g>
            <g>
              <g>
                <path class="cls-19" d="m434.102,662.05c-10.975,0-19.903-8.929-19.903-19.903s8.929-19.903,19.903-19.903h1.145c10.975,0,19.903,8.929,19.903,19.903s-8.929,19.903-19.903,19.903h-1.145Z"/>
                <path class="cls-22" d="m435.248,623.243c10.423,0,18.903,8.48,18.903,18.903s-8.48,18.903-18.903,18.903h-1.145c-10.423,0-18.903-8.48-18.903-18.903s8.48-18.903,18.903-18.903h1.145m0-2h-1.145c-11.497,0-20.903,9.406-20.903,20.903s9.406,20.903,20.903,20.903h1.145c11.497,0,20.903-9.406,20.903-20.903s-9.406-20.903-20.903-20.903h0Z"/>
              </g>
              <text class="cls-34" transform="translate(428.946 649.209)"><tspan x="0" y="0">3</tspan></text>
            </g>
          </g>
          <rect class="cls-9" x="367.31" y="622.34" width="30.968" height="39.613" rx="3.355" ry="3.355"/>
          <text class="cls-35" transform="translate(372.756 649.21)"><tspan x="0" y="0">＝</tspan></text>
        </g>
      </g>
      <g>
        <g>
          <path class="cls-29" d="m606.47,389.906H102.763l-15.544,11.141-12.024-10.593c-.238-.21-.622-.047-.622.265v52.811c0,.098.042.191.115.259l12.53,11.113,15.544-11.219h503.708c12.329,0,24.871-12.1,24.871-26.888h0c0-14.789-12.542-26.888-24.871-26.888Z"/>
          <g>
            <path class="cls-8" d="m579.185,417.299c.085-12.114,9.79-22.01,22.342-21.937,12.159.071,22.178,9.883,21.961,22.471-.203,11.764-9.754,21.773-22.498,21.598-12.042-.166-21.794-9.762-21.805-22.132Z"/>
            <path class="cls-23" d="m602.085,418.737c2.854.024,5.612,2.731,5.624,5.52.014,3.13-2.722,5.849-5.866,5.829-3.016-.018-5.566-2.746-5.533-5.919.031-3.007,2.636-5.457,5.775-5.43Z"/>
            <rect class="cls-23" x="604.472" y="409.121" width="9.448" height="9.448" transform="translate(471.062 -309.554) rotate(45)"/>
            <polygon class="cls-23" points="600.315 416.8 600.315 410.368 594.745 407.151 589.174 410.368 589.174 416.8 594.745 420.016 600.315 416.8"/>
          </g>
        </g>
        <text class="cls-25" transform="translate(241.033 425.359)"><tspan x="0" y="0">을(를)</tspan></text>
        <text class="cls-25" transform="translate(377.643 425.359)"><tspan x="0" y="0">초 동안</tspan></text>
        <g>
          <g>
            <path class="cls-19" d="m118.529,436.915c-10.975,0-19.903-8.929-19.903-19.903s8.929-19.902,19.903-19.902h88.987c10.975,0,19.903,8.928,19.903,19.902s-8.929,19.903-19.903,19.903h-88.987Z"/>
            <path class="cls-22" d="m207.516,398.109c10.423,0,18.903,8.48,18.903,18.903s-8.48,18.903-18.903,18.903h-88.987c-10.423,0-18.903-8.48-18.903-18.903s8.48-18.903,18.903-18.903h88.987m0-2h-88.987c-11.497,0-20.903,9.406-20.903,20.903h0c0,11.497,9.406,20.903,20.903,20.903h88.987c11.497,0,20.903-9.406,20.903-20.903h0c0-11.497-9.406-20.903-20.903-20.903h0Z"/>
          </g>
          <text class="cls-34" transform="translate(114.066 424.075)"><tspan x="0" y="0">비겼습니다</tspan><tspan class="cls-28" x="95.068" y="0">.</tspan></text>
        </g>
        <g>
          <rect class="cls-5" x="468.572" y="397.914" width="95.645" height="38.968" rx="3.871" ry="3.871"/>
          <text class="cls-35" transform="translate(479.096 424.461)"><tspan x="0" y="0">말하기</tspan></text>
          <path class="cls-7" d="m547.717,412.72c1.503,0,3.006-.003,4.509.001.951.003,1.744.288,2.197,1.211.47.958.064,1.702-.534,2.425-1.451,1.754-2.859,3.543-4.343,5.268-1.318,1.533-2.389,1.523-3.72-.029-1.519-1.771-2.972-3.598-4.452-5.402-.521-.635-.812-1.313-.452-2.145.374-.865,1.045-1.293,1.954-1.309,1.614-.027,3.228-.008,4.842-.008v-.013Z"/>
        </g>
        <g>
          <g>
            <path class="cls-19" d="m340.267,436.915c-10.975,0-19.903-8.929-19.903-19.903s8.928-19.902,19.903-19.902,19.903,8.928,19.903,19.902-8.929,19.903-19.903,19.903Z"/>
            <path class="cls-22" d="m340.267,398.109c10.423,0,18.903,8.48,18.903,18.903s-8.48,18.903-18.903,18.903-18.903-8.48-18.903-18.903,8.48-18.903,18.903-18.903m0-2h0c-11.497,0-20.903,9.406-20.903,20.903h0c0,11.497,9.406,20.903,20.903,20.903h0c11.497,0,20.903-9.406,20.903-20.903h0c0-11.497-9.406-20.903-20.903-20.903h0Z"/>
          </g>
          <text class="cls-34" transform="translate(333.949 424.075)"><tspan x="0" y="0">2</tspan></text>
        </g>
      </g>
      <g>
        <g>
          <path class="cls-29" d="m640.532,528.896H99.763l-12.543,11.141-12.024-10.593c-.238-.21-.622-.047-.622.265v52.811c0,.098.042.191.115.259l12.53,11.113,12.543-11.219h540.77c15.329,0,27.871-12.1,27.871-26.888h0c0-14.789-12.542-26.888-27.871-26.888Z"/>
          <g>
            <path class="cls-8" d="m616.247,556.289c.085-12.114,9.79-22.01,22.342-21.937,12.159.071,22.178,9.883,21.961,22.471-.203,11.764-9.754,21.773-22.498,21.598-12.042-.166-21.794-9.762-21.805-22.132Z"/>
            <path class="cls-23" d="m639.147,557.727c2.854.024,5.612,2.731,5.624,5.52.014,3.13-2.722,5.849-5.866,5.829-3.016-.018-5.566-2.746-5.533-5.919.031-3.007,2.636-5.457,5.775-5.43Z"/>
            <rect class="cls-23" x="641.534" y="548.111" width="9.448" height="9.448" transform="translate(580.198 -295.052) rotate(45)"/>
            <polygon class="cls-23" points="637.378 555.79 637.378 549.358 631.807 546.141 626.236 549.358 626.236 555.79 631.807 559.007 637.378 555.79"/>
          </g>
        </g>
        <text class="cls-25" transform="translate(288.613 564.349)"><tspan x="0" y="0">을(를)</tspan></text>
        <text class="cls-25" transform="translate(420.385 564.349)"><tspan x="0" y="0">초 동안</tspan></text>
        <g>
          <g>
            <path class="cls-19" d="m118.529,575.905c-10.975,0-19.903-8.929-19.903-19.903s8.929-19.903,19.903-19.903h136.349c10.975,0,19.903,8.929,19.903,19.903s-8.929,19.903-19.903,19.903H118.529Z"/>
            <path class="cls-22" d="m254.878,537.099c10.423,0,18.903,8.48,18.903,18.903s-8.48,18.903-18.903,18.903H118.529c-10.423,0-18.903-8.48-18.903-18.903s8.48-18.903,18.903-18.903h136.349m0-2H118.529c-11.497,0-20.903,9.406-20.903,20.903h0c0,11.497,9.406,20.903,20.903,20.903h136.349c11.497,0,20.903-9.406,20.903-20.903h0c0-11.497-9.406-20.903-20.903-20.903h0Z"/>
          </g>
          <text class="cls-34" transform="translate(114.065 563.065)"><tspan x="0" y="0">사람이 졌습니다</tspan><tspan class="cls-28" x="138.166" y="0">.</tspan></text>
        </g>
        <g>
          <rect class="cls-5" x="507.829" y="536.904" width="95.645" height="38.968" rx="3.871" ry="3.871"/>
          <text class="cls-35" transform="translate(518.353 563.451)"><tspan x="0" y="0">말하기</tspan></text>
          <path class="cls-7" d="m586.975,551.71c1.503,0,3.006-.003,4.509.001.951.003,1.744.288,2.197,1.211.47.958.064,1.702-.534,2.425-1.451,1.754-2.859,3.543-4.343,5.268-1.318,1.533-2.389,1.523-3.72-.029-1.519-1.771-2.972-3.598-4.452-5.402-.521-.635-.812-1.313-.452-2.145.374-.865,1.045-1.293,1.954-1.309,1.614-.027,3.228-.008,4.842-.008v-.013Z"/>
        </g>
        <g>
          <g>
            <circle class="cls-19" cx="382.815" cy="556.002" r="19.903"/>
            <path class="cls-22" d="m382.815,537.099c10.423,0,18.903,8.48,18.903,18.903s-8.48,18.903-18.903,18.903-18.903-8.48-18.903-18.903,8.48-18.903,18.903-18.903m0-2h0c-11.497,0-20.903,9.406-20.903,20.903h0c0,11.497,9.406,20.903,20.903,20.903h0c11.497,0,20.903-9.406,20.903-20.903h0c0-11.497-9.406-20.903-20.903-20.903h0Z"/>
          </g>
          <text class="cls-34" transform="translate(375.53 563.065)"><tspan x="0" y="0">2</tspan></text>
        </g>
      </g>
      <g>
        <g>
          <path class="cls-29" d="m658.76,670.227H99.763l-12.543,11.141-12.024-10.593c-.238-.21-.622-.047-.622.265v52.811c0,.098.042.191.115.259l12.53,11.113,12.543-11.219h558.998c15.329,0,27.871-12.1,27.871-26.888h0c0-14.789-12.542-26.888-27.871-26.888Z"/>
          <g>
            <path class="cls-8" d="m634.475,697.621c.085-12.114,9.79-22.01,22.342-21.937,12.159.071,22.178,9.883,21.961,22.471-.203,11.764-9.754,21.773-22.498,21.598-12.042-.166-21.794-9.762-21.805-22.132Z"/>
            <path class="cls-23" d="m657.375,699.059c2.854.024,5.612,2.731,5.624,5.52.014,3.13-2.722,5.849-5.866,5.829-3.016-.018-5.566-2.746-5.533-5.919.031-3.007,2.636-5.457,5.775-5.43Z"/>
            <rect class="cls-23" x="659.762" y="689.443" width="9.448" height="9.448" transform="translate(685.474 -266.546) rotate(45)"/>
            <polygon class="cls-23" points="655.605 697.122 655.605 690.689 650.035 687.473 644.464 690.689 644.464 697.122 650.035 700.338 655.605 697.122"/>
          </g>
        </g>
        <text class="cls-25" transform="translate(307 705.681)"><tspan x="0" y="0">을(를)</tspan></text>
        <text class="cls-25" transform="translate(438.772 705.681)"><tspan x="0" y="0">초 동안</tspan></text>
        <g>
          <g>
            <path class="cls-19" d="m118.529,717.237c-10.975,0-19.903-8.929-19.903-19.903s8.929-19.903,19.903-19.903h155.251c10.975,0,19.903,8.929,19.903,19.903s-8.929,19.903-19.903,19.903H118.529Z"/>
            <path class="cls-22" d="m273.781,678.431c10.423,0,18.903,8.48,18.903,18.903s-8.48,18.903-18.903,18.903H118.529c-10.423,0-18.903-8.48-18.903-18.903s8.48-18.903,18.903-18.903h155.252m0-2H118.529c-11.497,0-20.903,9.406-20.903,20.903s9.406,20.903,20.903,20.903h155.252c11.497,0,20.903-9.406,20.903-20.903s-9.406-20.903-20.903-20.903h0Z"/>
          </g>
          <text class="cls-34" transform="translate(114.066 704.397)"><tspan x="0" y="0">사람이 이겼습니다</tspan><tspan class="cls-28" x="157.18" y="0">.</tspan></text>
        </g>
        <g>
          <rect class="cls-5" x="525.055" y="678.236" width="95.645" height="38.968" rx="3.871" ry="3.871"/>
          <text class="cls-35" transform="translate(535.58 704.782)"><tspan x="0" y="0">말하기</tspan></text>
          <path class="cls-7" d="m604.2,693.042c1.503,0,3.006-.003,4.509.001.951.003,1.744.288,2.197,1.211.47.958.064,1.702-.534,2.425-1.451,1.754-2.859,3.543-4.343,5.268-1.318,1.533-2.389,1.523-3.72-.029-1.519-1.771-2.972-3.598-4.452-5.402-.521-.635-.812-1.313-.452-2.145.374-.865,1.045-1.293,1.954-1.309,1.614-.027,3.228-.008,4.842-.008v-.013Z"/>
        </g>
        <g>
          <g>
            <path class="cls-19" d="m403.719,717.237c-10.975,0-19.903-8.929-19.903-19.903s8.929-19.903,19.903-19.903,19.903,8.929,19.903,19.903-8.928,19.903-19.903,19.903Z"/>
            <path class="cls-22" d="m403.718,678.431c10.423,0,18.903,8.48,18.903,18.903s-8.48,18.903-18.903,18.903-18.903-8.48-18.903-18.903,8.48-18.903,18.903-18.903m0-2c-11.497,0-20.903,9.406-20.903,20.903s9.406,20.903,20.903,20.903,20.903-9.406,20.903-20.903-9.406-20.903-20.903-20.903h0Z"/>
          </g>
          <text class="cls-34" transform="translate(397.401 704.396)"><tspan x="0" y="0">2</tspan></text>
        </g>
      </g>
    </g>
    <g>
      <g>
        <g>
          <path class="cls-32" d="m20.348,1350.505s-.001-.01-.003-.015v.015s.003,0,.003,0Z"/>
          <path class="cls-32" d="m563.818,1771.681H70.548l-10.506,11.226-12.645-11.226v-421.05l12.441,11.461,12.387-11.471,479.922-.091c16.083,0,29.097-13.805,27.779-30.151-1.175-14.565-13.733-25.591-28.345-25.591H45.509l-12.543,11.548-12.023-10.98c-.238-.218-.622-.049-.622.274v54.741c0,.042.011.081.025.119l.09-1.851.056,454.607,12.379,11.613,12.516-11.613h518.432c8.716,0,15.782-7.066,15.782-15.783s-7.066-15.783-15.782-15.783Z"/>
        </g>
        <g>
          <path class="cls-14" d="m572.702,1322.762c.233,11.599-9.583,22.21-22.59,21.903-11.361-.268-21.522-9.45-21.508-22.104.014-12.581,10.427-22.278,22.629-21.994,11.969.279,21.786,10.209,21.47,22.194Z"/>
          <path class="cls-13" d="m558.786,1324.294c-.095,0-.185.021-.279.028l-4.684-7.075c.647-.892.942-2.055.623-3.302-.356-1.388-1.5-2.504-2.899-2.812-2.553-.562-4.81,1.366-4.81,3.821,0,.859.284,1.646.753,2.292l-4.684,7.075c-.094-.007-.183-.028-.279-.028-2.466,0-4.4,2.277-3.814,4.843.323,1.416,1.474,2.567,2.89,2.89,2.566.586,4.843-1.348,4.843-3.814,0-1.153-.507-2.18-1.3-2.897l4.386-6.625c.358.108.731.183,1.124.183s.766-.076,1.124-.183l4.386,6.625c-1.013.917-1.56,2.338-1.178,3.884.344,1.389,1.482,2.51,2.877,2.828,2.564.583,4.839-1.35,4.839-3.815,0-2.165-1.755-3.919-3.919-3.919Z"/>
        </g>
        <text class="cls-25" transform="translate(52.225 1330.756)"><tspan x="0" y="0">만일</tspan></text>
        <text class="cls-25" transform="translate(425.901 1330.756)"><tspan x="0" y="0">(이)라면</tspan></text>
        <g>
          <g>
            <polygon class="cls-16" points="108.795 1322.409 124.323 1302.505 396.032 1302.106 411.558 1322.008 396.031 1341.912 124.322 1342.312 108.795 1322.409"/>
            <path class="cls-9" d="m395.544,1303.106l14.745,18.902-14.747,18.905-270.733.398-14.745-18.902,14.747-18.905,270.733-.398m.975-2.001l-272.686.401-16.306,20.903,16.306,20.903,272.686-.401,16.306-20.903-16.306-20.903h0Z"/>
          </g>
          <g>
            <g>
              <g>
                <path class="cls-15" d="m146.015,1342.313c-10.975,0-19.903-8.929-19.903-19.903s8.929-19.903,19.903-19.903h123.79c10.975,0,19.903,8.929,19.903,19.903s-8.929,19.903-19.903,19.903h-123.79Z"/>
                <path class="cls-4" d="m269.805,1303.506c10.423,0,18.903,8.48,18.903,18.903s-8.48,18.903-18.903,18.903h-123.79c-10.423,0-18.903-8.48-18.903-18.903s8.48-18.903,18.903-18.903h123.79m0-2h-123.79c-11.497,0-20.903,9.406-20.903,20.903s9.406,20.903,20.903,20.903h123.79c11.497,0,20.903-9.406,20.903-20.903s-9.406-20.903-20.903-20.903h0Z"/>
              </g>
              <rect class="cls-4" x="140.596" y="1302.925" width="101.469" height="38.968" rx="3.871" ry="3.871"/>
              <text class="cls-35" transform="translate(254.974 1329.471)"><tspan x="0" y="0">값</tspan></text>
              <text class="cls-35" transform="translate(151.121 1329.472)"><tspan x="0" y="0">내 선택</tspan></text>
              <path class="cls-7" d="m226.372,1317.732c1.503,0,3.006-.003,4.509.001.951.003,1.744.288,2.197,1.211.47.958.064,1.702-.534,2.425-1.451,1.754-2.859,3.543-4.343,5.268-1.318,1.533-2.389,1.523-3.72-.029-1.519-1.771-2.972-3.598-4.452-5.402-.521-.635-.812-1.313-.452-2.145.374-.865,1.045-1.293,1.954-1.309,1.614-.027,3.228-.008,4.842-.008v-.013Z"/>
            </g>
            <g>
              <g>
                <path class="cls-19" d="m371.355,1342.313c-10.975,0-19.903-8.929-19.903-19.903s8.929-19.903,19.903-19.903h1.588c10.975,0,19.903,8.929,19.903,19.903s-8.929,19.903-19.903,19.903h-1.588Z"/>
                <path class="cls-22" d="m372.943,1303.506c10.423,0,18.903,8.48,18.903,18.903s-8.48,18.903-18.903,18.903h-1.589c-10.423,0-18.903-8.48-18.903-18.903s8.48-18.903,18.903-18.903h1.589m0-2h-1.589c-11.497,0-20.903,9.406-20.903,20.903s9.406,20.903,20.903,20.903h1.589c11.497,0,20.903-9.406,20.903-20.903s-9.406-20.903-20.903-20.903h0Z"/>
              </g>
              <text class="cls-34" transform="translate(363.102 1329.471)"><tspan x="0" y="0">보</tspan></text>
            </g>
          </g>
          <rect class="cls-9" x="304.563" y="1302.603" width="30.968" height="39.613" rx="3.355" ry="3.355"/>
          <text class="cls-35" transform="translate(310.008 1329.472)"><tspan x="0" y="0">＝</tspan></text>
        </g>
        <line class="cls-33" x1="439.11" y1="1765.387" x2="439.11" y2="1765.387"/>
      </g>
      <g>
        <path class="cls-32" d="m47.536,1545.812s-.001-.01-.003-.015v.015s.003,0,.003,0Z"/>
        <path class="cls-32" d="m612.611,1599.451l-514.875-.142-10.506,11.226-12.645-11.226v-53.371l12.441,11.461,12.387-11.471,501.527-.091c16.083,0,29.097-13.805,27.779-30.151-1.175-14.565-13.733-25.591-28.345-25.591H72.697l-12.543,11.548-12.023-10.98c-.238-.218-.622-.049-.622.274v54.741c0,.042.011.081.025.119l.09-1.851.056,86.928,12.379,11.613,12.516-11.613,540.037.142c8.716,0,15.782-7.066,15.782-15.783s-7.066-15.783-15.782-15.783Z"/>
      </g>
      <g>
        <path class="cls-32" d="m47.536,1406.208s-.001-.01-.003-.015v.015s.003,0,.003,0Z"/>
        <path class="cls-32" d="m612.611,1459.846l-514.875-.142-10.506,11.226-12.645-11.226v-53.371l12.441,11.461,12.387-11.471,501.527-.091c16.083,0,29.097-13.805,27.779-30.151-1.175-14.565-13.733-25.591-28.345-25.591H72.697l-12.543,11.548-12.023-10.98c-.238-.218-.622-.049-.622.274v54.741c0,.042.011.081.025.119l.09-1.851.056,86.928,12.379,11.613,12.516-11.613,540.037.142c8.716,0,15.782-7.066,15.782-15.783s-7.066-15.783-15.782-15.783Z"/>
      </g>
      <g>
        <path class="cls-32" d="m47.536,1686.748s-.001-.01-.003-.015v.015s.003,0,.003,0Z"/>
        <path class="cls-32" d="m612.611,1740.386l-514.875-.142-10.506,11.226-12.645-11.226v-53.371l12.441,11.461,12.387-11.471,501.527-.091c16.083,0,29.097-13.805,27.779-30.151-1.175-14.565-13.733-25.591-28.345-25.591H72.697l-12.543,11.548-12.023-10.98c-.238-.218-.622-.049-.622.274v54.741c0,.042.011.081.025.119l.09-1.851.056,86.928,12.379,11.613,12.516-11.613,540.037.142c8.716,0,15.782-7.066,15.782-15.783s-7.066-15.783-15.782-15.783Z"/>
      </g>
      <g>
        <g>
          <path class="cls-29" d="m658.76,1545.401H99.763l-12.543,11.141-12.024-10.593c-.238-.21-.622-.047-.622.265v52.811c0,.098.042.191.115.259l12.53,11.113,12.543-11.219h558.998c15.329,0,27.871-12.1,27.871-26.888h0c0-14.789-12.542-26.888-27.871-26.888Z"/>
          <g>
            <path class="cls-8" d="m634.475,1572.794c.085-12.114,9.79-22.01,22.342-21.937,12.159.071,22.178,9.883,21.961,22.471-.203,11.764-9.754,21.773-22.498,21.598-12.042-.166-21.794-9.762-21.805-22.132Z"/>
            <path class="cls-23" d="m657.375,1574.232c2.854.024,5.612,2.731,5.624,5.52.014,3.13-2.722,5.849-5.866,5.829-3.016-.018-5.566-2.746-5.533-5.919.031-3.007,2.636-5.457,5.775-5.43Z"/>
            <rect class="cls-23" x="659.762" y="1564.616" width="9.448" height="9.448" transform="translate(1304.315 -10.214) rotate(45)"/>
            <polygon class="cls-23" points="655.605 1572.295 655.605 1565.863 650.035 1562.646 644.464 1565.863 644.464 1572.295 650.035 1575.511 655.605 1572.295"/>
          </g>
        </g>
        <text class="cls-25" transform="translate(307 1580.854)"><tspan x="0" y="0">을(를)</tspan></text>
        <text class="cls-25" transform="translate(438.772 1580.854)"><tspan x="0" y="0">초 동안</tspan></text>
        <g>
          <g>
            <path class="cls-19" d="m118.529,1592.41c-10.975,0-19.903-8.929-19.903-19.903s8.929-19.903,19.903-19.903h155.251c10.975,0,19.903,8.929,19.903,19.903s-8.929,19.903-19.903,19.903H118.529Z"/>
            <path class="cls-22" d="m273.781,1553.604c10.423,0,18.903,8.48,18.903,18.903s-8.48,18.903-18.903,18.903H118.529c-10.423,0-18.903-8.48-18.903-18.903s8.48-18.903,18.903-18.903h155.252m0-2H118.529c-11.497,0-20.903,9.406-20.903,20.903h0c0,11.497,9.406,20.903,20.903,20.903h155.252c11.497,0,20.903-9.406,20.903-20.903h0c0-11.497-9.406-20.903-20.903-20.903h0Z"/>
          </g>
          <text class="cls-34" transform="translate(114.065 1579.57)"><tspan x="0" y="0">사람이 이겼습니다</tspan><tspan class="cls-28" x="157.18" y="0">.</tspan></text>
        </g>
        <g>
          <rect class="cls-5" x="525.055" y="1553.409" width="95.645" height="38.968" rx="3.871" ry="3.871"/>
          <text class="cls-35" transform="translate(535.58 1579.955)"><tspan x="0" y="0">말하기</tspan></text>
          <path class="cls-7" d="m604.2,1568.215c1.503,0,3.006-.003,4.509.001.951.003,1.744.288,2.197,1.211.47.958.064,1.702-.534,2.425-1.451,1.754-2.859,3.543-4.343,5.268-1.318,1.533-2.389,1.523-3.72-.029-1.519-1.771-2.972-3.598-4.452-5.402-.521-.635-.812-1.313-.452-2.145.374-.865,1.045-1.293,1.954-1.309,1.614-.027,3.228-.008,4.842-.008v-.013Z"/>
        </g>
        <g>
          <g>
            <path class="cls-19" d="m403.719,1592.41c-10.975,0-19.903-8.929-19.903-19.903s8.929-19.903,19.903-19.903,19.903,8.929,19.903,19.903-8.928,19.903-19.903,19.903Z"/>
            <path class="cls-22" d="m403.718,1553.604c10.423,0,18.903,8.48,18.903,18.903s-8.48,18.903-18.903,18.903-18.903-8.48-18.903-18.903,8.48-18.903,18.903-18.903m0-2c-11.497,0-20.903,9.406-20.903,20.903h0c0,11.497,9.406,20.903,20.903,20.903s20.903-9.406,20.903-20.903h0c0-11.497-9.406-20.903-20.903-20.903h0Z"/>
          </g>
          <text class="cls-34" transform="translate(397.401 1579.569)"><tspan x="0" y="0">2</tspan></text>
        </g>
      </g>
      <g>
        <g>
          <path class="cls-29" d="m640.532,1406.41H99.763l-12.543,11.141-12.024-10.593c-.238-.21-.622-.047-.622.265v52.811c0,.098.042.191.115.259l12.53,11.113,12.543-11.219h540.77c15.329,0,27.871-12.1,27.871-26.888h0c0-14.789-12.542-26.888-27.871-26.888Z"/>
          <g>
            <path class="cls-8" d="m616.247,1433.804c.085-12.114,9.79-22.01,22.342-21.937,12.159.071,22.178,9.883,21.961,22.471-.203,11.764-9.754,21.773-22.498,21.598-12.042-.166-21.794-9.762-21.805-22.132Z"/>
            <path class="cls-23" d="m639.147,1435.242c2.854.024,5.612,2.731,5.624,5.52.014,3.13-2.722,5.849-5.866,5.829-3.016-.018-5.566-2.746-5.533-5.919.031-3.007,2.636-5.457,5.775-5.43Z"/>
            <rect class="cls-23" x="641.534" y="1425.626" width="9.448" height="9.448" transform="translate(1200.695 -38.034) rotate(45)"/>
            <polygon class="cls-23" points="637.378 1433.305 637.378 1426.873 631.807 1423.656 626.236 1426.873 626.236 1433.305 631.807 1436.521 637.378 1433.305"/>
          </g>
        </g>
        <text class="cls-25" transform="translate(288.613 1441.864)"><tspan x="0" y="0">을(를)</tspan></text>
        <text class="cls-25" transform="translate(420.385 1441.864)"><tspan x="0" y="0">초 동안</tspan></text>
        <g>
          <g>
            <path class="cls-19" d="m118.529,1453.42c-10.975,0-19.903-8.929-19.903-19.903s8.929-19.902,19.903-19.902h134.349c10.975,0,19.903,8.928,19.903,19.902s-8.928,19.903-19.903,19.903H118.529Z"/>
            <path class="cls-22" d="m252.878,1414.614c10.423,0,18.903,8.48,18.903,18.903s-8.48,18.903-18.903,18.903H118.529c-10.423,0-18.903-8.48-18.903-18.903s8.48-18.903,18.903-18.903h134.349m0-2H118.529c-11.497,0-20.903,9.406-20.903,20.903h0c0,11.497,9.406,20.903,20.903,20.903h134.349c11.497,0,20.903-9.406,20.903-20.903h0c0-11.497-9.406-20.903-20.903-20.903h0Z"/>
          </g>
          <text class="cls-34" transform="translate(114.065 1440.58)"><tspan x="0" y="0">사람이 졌습니다</tspan><tspan class="cls-28" x="138.166" y="0">.</tspan></text>
        </g>
        <g>
          <rect class="cls-5" x="507.829" y="1414.419" width="95.645" height="38.968" rx="3.871" ry="3.871"/>
          <text class="cls-35" transform="translate(518.353 1440.966)"><tspan x="0" y="0">말하기</tspan></text>
          <path class="cls-7" d="m586.975,1429.225c1.503,0,3.006-.003,4.509.001.951.003,1.744.288,2.197,1.211.47.958.064,1.702-.534,2.425-1.451,1.754-2.859,3.543-4.343,5.268-1.318,1.533-2.389,1.523-3.72-.029-1.519-1.771-2.972-3.598-4.452-5.402-.521-.635-.812-1.313-.452-2.145.374-.865,1.045-1.293,1.954-1.309,1.614-.027,3.228-.008,4.842-.008v-.013Z"/>
        </g>
        <g>
          <g>
            <path class="cls-19" d="m382.815,1453.42c-10.975,0-19.903-8.929-19.903-19.903s8.929-19.902,19.903-19.902,19.903,8.928,19.903,19.902-8.929,19.903-19.903,19.903Z"/>
            <path class="cls-22" d="m382.815,1414.614c10.423,0,18.903,8.48,18.903,18.903s-8.48,18.903-18.903,18.903-18.903-8.48-18.903-18.903,8.48-18.903,18.903-18.903m0-2h0c-11.497,0-20.903,9.406-20.903,20.903h0c0,11.497,9.406,20.903,20.903,20.903h0c11.497,0,20.903-9.406,20.903-20.903h0c0-11.497-9.406-20.903-20.903-20.903h0Z"/>
          </g>
          <text class="cls-34" transform="translate(375.529 1440.58)"><tspan x="0" y="0">2</tspan></text>
        </g>
      </g>
      <g>
        <g>
          <path class="cls-29" d="m603.47,1686.732H99.763l-12.543,11.141-12.024-10.593c-.238-.21-.622-.047-.622.265v52.811c0,.098.042.191.115.259l12.53,11.113,12.543-11.219h503.708c15.329,0,27.871-12.1,27.871-26.888h0c0-14.789-12.542-26.888-27.871-26.888Z"/>
          <g>
            <path class="cls-8" d="m579.185,1714.126c.085-12.114,9.79-22.01,22.342-21.937,12.159.071,22.178,9.883,21.961,22.471-.203,11.764-9.754,21.773-22.498,21.598-12.042-.166-21.794-9.762-21.805-22.132Z"/>
            <path class="cls-23" d="m602.085,1715.564c2.854.024,5.612,2.731,5.624,5.52.014,3.13-2.722,5.849-5.866,5.829-3.016-.018-5.566-2.746-5.533-5.919.031-3.007,2.636-5.457,5.775-5.43Z"/>
            <rect class="cls-23" x="604.472" y="1705.948" width="9.448" height="9.448" transform="translate(1388.057 70.277) rotate(45)"/>
            <polygon class="cls-23" points="600.315 1713.627 600.315 1707.194 594.745 1703.978 589.174 1707.194 589.174 1713.627 594.745 1716.843 600.315 1713.627"/>
          </g>
        </g>
        <text class="cls-25" transform="translate(241.033 1722.186)"><tspan x="0" y="0">을(를)</tspan></text>
        <text class="cls-25" transform="translate(377.643 1722.186)"><tspan x="0" y="0">초 동안</tspan></text>
        <g>
          <g>
            <path class="cls-19" d="m118.529,1733.742c-10.975,0-19.903-8.929-19.903-19.903s8.929-19.903,19.903-19.903h88.987c10.975,0,19.903,8.929,19.903,19.903s-8.929,19.903-19.903,19.903h-88.987Z"/>
            <path class="cls-22" d="m207.516,1694.936c10.423,0,18.903,8.48,18.903,18.903s-8.48,18.903-18.903,18.903h-88.987c-10.423,0-18.903-8.48-18.903-18.903s8.48-18.903,18.903-18.903h88.987m0-2h-88.987c-11.497,0-20.903,9.406-20.903,20.903s9.406,20.903,20.903,20.903h88.987c11.497,0,20.903-9.406,20.903-20.903s-9.406-20.903-20.903-20.903h0Z"/>
          </g>
          <text class="cls-34" transform="translate(114.065 1720.902)"><tspan x="0" y="0">비겼습니다</tspan><tspan class="cls-28" x="95.068" y="0">.</tspan></text>
        </g>
        <g>
          <rect class="cls-5" x="468.572" y="1694.741" width="95.645" height="38.968" rx="3.871" ry="3.871"/>
          <text class="cls-35" transform="translate(479.096 1721.287)"><tspan x="0" y="0">말하기</tspan></text>
          <path class="cls-7" d="m547.717,1709.547c1.503,0,3.006-.003,4.509.001.951.003,1.744.288,2.197,1.211.47.958.064,1.702-.534,2.425-1.451,1.754-2.859,3.543-4.343,5.268-1.318,1.533-2.389,1.523-3.72-.029-1.519-1.771-2.972-3.598-4.452-5.402-.521-.635-.812-1.313-.452-2.145.374-.865,1.045-1.293,1.954-1.309,1.614-.027,3.228-.008,4.842-.008v-.013Z"/>
        </g>
        <g>
          <g>
            <path class="cls-19" d="m340.267,1733.742c-10.975,0-19.903-8.929-19.903-19.903s8.928-19.903,19.903-19.903,19.903,8.929,19.903,19.903-8.929,19.903-19.903,19.903Z"/>
            <path class="cls-22" d="m340.267,1694.936c10.423,0,18.903,8.48,18.903,18.903s-8.48,18.903-18.903,18.903-18.903-8.48-18.903-18.903,8.48-18.903,18.903-18.903m0-2h0c-11.497,0-20.903,9.406-20.903,20.903s9.406,20.903,20.903,20.903h0c11.497,0,20.903-9.406,20.903-20.903s-9.406-20.903-20.903-20.903h0Z"/>
          </g>
          <text class="cls-34" transform="translate(333.949 1720.901)"><tspan x="0" y="0">2</tspan></text>
        </g>
      </g>
    </g>
    <g>
      <g>
        <g>
          <path class="cls-32" d="m20.348,842.598s-.001-.01-.003-.015v.015s.003,0,.003,0Z"/>
          <path class="cls-32" d="m585.423,1263.774H70.548l-10.506,11.226-12.645-11.226v-421.05l12.441,11.461,12.387-11.471,501.527-.091c16.083,0,29.097-13.805,27.779-30.151-1.175-14.565-13.733-25.591-28.345-25.591H45.509l-12.543,11.548-12.023-10.98c-.238-.218-.622-.049-.622.274v54.741c0,.042.011.081.025.119l.09-1.851.056,454.607,12.379,11.613,12.516-11.613h540.037c8.716,0,15.782-7.066,15.782-15.783s-7.066-15.783-15.782-15.783Z"/>
        </g>
        <g>
          <path class="cls-14" d="m594.307,814.856c.233,11.599-9.583,22.21-22.59,21.903-11.361-.268-21.522-9.45-21.508-22.104.014-12.581,10.427-22.278,22.629-21.994,11.969.279,21.786,10.209,21.47,22.194Z"/>
          <path class="cls-13" d="m580.391,816.388c-.095,0-.185.021-.279.028l-4.684-7.075c.647-.892.942-2.055.623-3.302-.356-1.388-1.5-2.504-2.899-2.812-2.553-.562-4.81,1.366-4.81,3.821,0,.859.284,1.646.753,2.292l-4.684,7.075c-.094-.007-.183-.028-.279-.028-2.466,0-4.4,2.277-3.814,4.843.323,1.416,1.474,2.567,2.89,2.89,2.566.586,4.843-1.348,4.843-3.814,0-1.153-.507-2.18-1.3-2.897l4.386-6.625c.358.108.731.183,1.124.183s.766-.076,1.124-.183l4.386,6.625c-1.013.917-1.56,2.338-1.178,3.884.344,1.389,1.482,2.51,2.877,2.828,2.564.583,4.839-1.35,4.839-3.815,0-2.165-1.755-3.919-3.919-3.919Z"/>
        </g>
        <text class="cls-25" transform="translate(52.225 822.849)"><tspan x="0" y="0">만일</tspan></text>
        <text class="cls-25" transform="translate(447.506 822.849)"><tspan x="0" y="0">(이)라면</tspan></text>
        <g>
          <g>
            <polygon class="cls-16" points="108.795 814.502 124.323 794.598 417.637 794.198 433.163 814.101 417.636 834.005 124.322 834.404 108.795 814.502"/>
            <path class="cls-9" d="m417.149,795.199l14.745,18.902-14.747,18.905-292.338.399-14.745-18.902,14.747-18.905,292.338-.399m.975-2.001l-294.291.401-16.306,20.903,16.306,20.903,294.291-.401,16.306-20.903-16.306-20.903h0Z"/>
          </g>
          <g>
            <g>
              <g>
                <path class="cls-15" d="m146.015,834.405c-10.975,0-19.903-8.929-19.903-19.903s8.929-19.902,19.903-19.902h123.79c10.975,0,19.903,8.928,19.903,19.902s-8.929,19.903-19.903,19.903h-123.79Z"/>
                <path class="cls-4" d="m269.805,795.599c10.423,0,18.903,8.48,18.903,18.903s-8.48,18.903-18.903,18.903h-123.79c-10.423,0-18.903-8.48-18.903-18.903s8.48-18.903,18.903-18.903h123.79m0-2h-123.79c-11.497,0-20.903,9.406-20.903,20.903s9.406,20.903,20.903,20.903h123.79c11.497,0,20.903-9.406,20.903-20.903s-9.406-20.903-20.903-20.903h0Z"/>
              </g>
              <rect class="cls-4" x="140.596" y="795.019" width="101.469" height="38.968" rx="3.871" ry="3.871"/>
              <text class="cls-35" transform="translate(254.974 821.565)"><tspan x="0" y="0">값</tspan></text>
              <text class="cls-35" transform="translate(151.12 821.565)"><tspan x="0" y="0">내 선택</tspan></text>
              <path class="cls-7" d="m226.372,809.825c1.503,0,3.006-.003,4.509.001.951.003,1.744.288,2.197,1.211.47.958.064,1.702-.534,2.425-1.451,1.754-2.859,3.543-4.343,5.268-1.318,1.533-2.389,1.523-3.72-.029-1.519-1.771-2.972-3.598-4.452-5.402-.521-.635-.812-1.313-.452-2.145.374-.865,1.045-1.293,1.954-1.309,1.614-.027,3.228-.008,4.842-.008v-.013Z"/>
            </g>
            <g>
              <g>
                <path class="cls-19" d="m371.355,834.405c-10.975,0-19.903-8.929-19.903-19.903s8.929-19.902,19.903-19.902h23.194c10.975,0,19.903,8.928,19.903,19.902s-8.928,19.903-19.903,19.903h-23.194Z"/>
                <path class="cls-22" d="m394.549,795.599c10.423,0,18.903,8.48,18.903,18.903s-8.48,18.903-18.903,18.903h-23.194c-10.423,0-18.903-8.48-18.903-18.903s8.48-18.903,18.903-18.903h23.194m0-2h-23.194c-11.497,0-20.903,9.406-20.903,20.903s9.406,20.903,20.903,20.903h23.194c11.497,0,20.903-9.406,20.903-20.903s-9.406-20.903-20.903-20.903h0Z"/>
              </g>
              <text class="cls-34" transform="translate(363.102 821.565)"><tspan x="0" y="0">바위</tspan></text>
            </g>
          </g>
          <rect class="cls-9" x="304.563" y="794.696" width="30.968" height="39.613" rx="3.355" ry="3.355"/>
          <text class="cls-35" transform="translate(310.009 821.565)"><tspan x="0" y="0">＝</tspan></text>
        </g>
        <line class="cls-33" x1="439.11" y1="1257.48" x2="439.11" y2="1257.48"/>
      </g>
      <g>
        <g>
          <g>
            <path class="cls-32" d="m47.536,1037.906s-.001-.01-.003-.015v.015s.003,0,.003,0Z"/>
            <path class="cls-32" d="m612.611,1091.545l-514.875-.142-10.506,11.226-12.645-11.226v-53.371l12.441,11.461,12.387-11.471,501.527-.091c16.083,0,29.097-13.805,27.779-30.151-1.175-14.565-13.733-25.591-28.345-25.591H72.697l-12.543,11.548-12.023-10.98c-.238-.218-.622-.049-.622.274v54.741c0,.042.011.081.025.119l.09-1.851.056,86.928,12.379,11.613,12.516-11.613,540.037.142c8.716,0,15.782-7.066,15.782-15.783s-7.066-15.783-15.782-15.783Z"/>
          </g>
          <g>
            <g>
              <path class="cls-29" d="m603.47,1037.494H99.763l-12.543,11.141-12.024-10.593c-.238-.21-.622-.047-.622.265v52.811c0,.098.042.191.115.259l12.53,11.113,12.543-11.219h503.708c15.329,0,27.871-12.1,27.871-26.888h0c0-14.789-12.542-26.888-27.871-26.888Z"/>
              <g>
                <path class="cls-8" d="m579.185,1064.888c.085-12.114,9.79-22.01,22.342-21.937,12.159.071,22.178,9.883,21.961,22.471-.203,11.764-9.754,21.773-22.498,21.598-12.042-.166-21.794-9.762-21.805-22.132Z"/>
                <path class="cls-23" d="m602.085,1066.325c2.854.024,5.612,2.731,5.624,5.52.014,3.13-2.722,5.849-5.866,5.829-3.016-.018-5.566-2.746-5.533-5.919.031-3.007,2.636-5.457,5.775-5.43Z"/>
                <rect class="cls-23" x="604.472" y="1056.71" width="9.448" height="9.448" transform="translate(928.976 -119.88) rotate(45)"/>
                <polygon class="cls-23" points="600.315 1064.389 600.315 1057.956 594.745 1054.74 589.174 1057.956 589.174 1064.389 594.745 1067.605 600.315 1064.389"/>
              </g>
            </g>
            <text class="cls-25" transform="translate(241.033 1072.947)"><tspan x="0" y="0">을(를)</tspan></text>
            <text class="cls-25" transform="translate(377.643 1072.947)"><tspan x="0" y="0">초 동안</tspan></text>
            <g>
              <g>
                <path class="cls-19" d="m118.529,1084.504c-10.975,0-19.903-8.929-19.903-19.903s8.929-19.903,19.903-19.903h88.987c10.975,0,19.903,8.929,19.903,19.903s-8.929,19.903-19.903,19.903h-88.987Z"/>
                <path class="cls-22" d="m207.516,1045.697c10.423,0,18.903,8.48,18.903,18.903s-8.48,18.903-18.903,18.903h-88.987c-10.423,0-18.903-8.48-18.903-18.903s8.48-18.903,18.903-18.903h88.987m0-2h-88.987c-11.497,0-20.903,9.406-20.903,20.903s9.406,20.903,20.903,20.903h88.987c11.497,0,20.903-9.406,20.903-20.903s-9.406-20.903-20.903-20.903h0Z"/>
              </g>
              <text class="cls-34" transform="translate(114.065 1071.663)"><tspan x="0" y="0">비겼습니다</tspan><tspan class="cls-28" x="95.068" y="0">.</tspan></text>
            </g>
            <g>
              <rect class="cls-5" x="468.572" y="1045.502" width="95.645" height="38.968" rx="3.871" ry="3.871"/>
              <text class="cls-35" transform="translate(479.096 1072.049)"><tspan x="0" y="0">말하기</tspan></text>
              <path class="cls-7" d="m547.717,1060.309c1.503,0,3.006-.003,4.509.001.951.003,1.744.288,2.197,1.211.47.958.064,1.702-.534,2.425-1.451,1.754-2.859,3.543-4.343,5.268-1.318,1.533-2.389,1.523-3.72-.029-1.519-1.771-2.972-3.598-4.452-5.402-.521-.635-.812-1.313-.452-2.145.374-.865,1.045-1.293,1.954-1.309,1.614-.027,3.228-.008,4.842-.008v-.013Z"/>
            </g>
            <g>
              <g>
                <path class="cls-19" d="m340.267,1084.504c-10.975,0-19.903-8.929-19.903-19.903s8.928-19.903,19.903-19.903,19.903,8.929,19.903,19.903-8.929,19.903-19.903,19.903Z"/>
                <path class="cls-22" d="m340.267,1045.697c10.423,0,18.903,8.48,18.903,18.903s-8.48,18.903-18.903,18.903-18.903-8.48-18.903-18.903,8.48-18.903,18.903-18.903m0-2h0c-11.497,0-20.903,9.406-20.903,20.903s9.406,20.903,20.903,20.903h0c11.497,0,20.903-9.406,20.903-20.903s-9.406-20.903-20.903-20.903h0Z"/>
              </g>
              <text class="cls-34" transform="translate(333.562 1071.663)"><tspan x="0" y="0">2</tspan></text>
            </g>
          </g>
        </g>
        <g>
          <g>
            <path class="cls-32" d="m47.536,898.301s-.001-.01-.003-.015v.015s.003,0,.003,0Z"/>
            <path class="cls-32" d="m612.611,951.94l-514.875-.142-10.506,11.226-12.645-11.226v-53.371l12.441,11.461,12.387-11.471,501.527-.091c16.083,0,29.097-13.805,27.779-30.151-1.175-14.565-13.733-25.591-28.345-25.591H72.697l-12.543,11.548-12.023-10.98c-.238-.218-.622-.049-.622.274v54.741c0,.042.011.081.025.119l.09-1.851.056,86.928,12.379,11.613,12.516-11.613,540.037.142c8.716,0,15.782-7.066,15.782-15.783s-7.066-15.783-15.782-15.783Z"/>
          </g>
          <g>
            <g>
              <path class="cls-29" d="m658.76,898.504H99.763l-12.543,11.141-12.024-10.593c-.238-.21-.622-.047-.622.265v52.811c0,.098.042.191.115.259l12.53,11.113,12.543-11.219h558.998c15.329,0,27.871-12.1,27.871-26.888h0c0-14.789-12.542-26.888-27.871-26.888Z"/>
              <g>
                <path class="cls-8" d="m634.475,925.897c.085-12.114,9.79-22.01,22.342-21.937,12.159.071,22.178,9.883,21.961,22.471-.203,11.764-9.754,21.773-22.498,21.598-12.042-.166-21.794-9.762-21.805-22.132Z"/>
                <path class="cls-23" d="m657.375,927.335c2.854.024,5.612,2.731,5.624,5.52.014,3.13-2.722,5.849-5.866,5.829-3.016-.018-5.566-2.746-5.533-5.919.031-3.007,2.636-5.457,5.775-5.43Z"/>
                <rect class="cls-23" x="659.762" y="917.719" width="9.448" height="9.448" transform="translate(846.89 -199.685) rotate(45)"/>
                <polygon class="cls-23" points="655.605 925.398 655.605 918.966 650.035 915.75 644.464 918.966 644.464 925.398 650.035 928.615 655.605 925.398"/>
              </g>
            </g>
            <text class="cls-25" transform="translate(307 933.957)"><tspan x="0" y="0">을(를)</tspan></text>
            <text class="cls-25" transform="translate(438.772 933.957)"><tspan x="0" y="0">초 동안</tspan></text>
            <g>
              <g>
                <path class="cls-19" d="m118.529,945.514c-10.975,0-19.903-8.929-19.903-19.903s8.929-19.903,19.903-19.903h155.251c10.975,0,19.903,8.929,19.903,19.903s-8.929,19.903-19.903,19.903H118.529Z"/>
                <path class="cls-22" d="m273.781,906.707c10.423,0,18.903,8.48,18.903,18.903s-8.48,18.903-18.903,18.903H118.529c-10.423,0-18.903-8.48-18.903-18.903s8.48-18.903,18.903-18.903h155.252m0-2H118.529c-11.497,0-20.903,9.406-20.903,20.903s9.406,20.903,20.903,20.903h155.252c11.497,0,20.903-9.406,20.903-20.903s-9.406-20.903-20.903-20.903h0Z"/>
              </g>
              <text class="cls-34" transform="translate(114.065 932.672)"><tspan x="0" y="0">사람이 이겼습니다</tspan><tspan class="cls-28" x="157.18" y="0">.</tspan></text>
            </g>
            <g>
              <rect class="cls-5" x="525.055" y="906.512" width="95.645" height="38.968" rx="3.871" ry="3.871"/>
              <text class="cls-35" transform="translate(535.58 933.058)"><tspan x="0" y="0">말하기</tspan></text>
              <path class="cls-7" d="m604.2,921.319c1.503,0,3.006-.003,4.509.001.951.003,1.744.288,2.197,1.211.47.958.064,1.702-.534,2.425-1.451,1.754-2.859,3.543-4.343,5.268-1.318,1.533-2.389,1.523-3.72-.029-1.519-1.771-2.972-3.598-4.452-5.402-.521-.635-.812-1.313-.452-2.145.374-.865,1.045-1.293,1.954-1.309,1.614-.027,3.228-.008,4.842-.008v-.013Z"/>
            </g>
            <g>
              <g>
                <path class="cls-19" d="m403.719,945.514c-10.975,0-19.903-8.929-19.903-19.903s8.929-19.903,19.903-19.903,19.903,8.929,19.903,19.903-8.928,19.903-19.903,19.903Z"/>
                <path class="cls-22" d="m403.718,906.707c10.423,0,18.903,8.48,18.903,18.903s-8.48,18.903-18.903,18.903-18.903-8.48-18.903-18.903,8.48-18.903,18.903-18.903m0-2c-11.497,0-20.903,9.406-20.903,20.903s9.406,20.903,20.903,20.903,20.903-9.406,20.903-20.903-9.406-20.903-20.903-20.903h0Z"/>
              </g>
              <text class="cls-34" transform="translate(397.401 932.672)"><tspan x="0" y="0">2</tspan></text>
            </g>
          </g>
        </g>
        <g>
          <g>
            <path class="cls-32" d="m47.536,1178.841s-.001-.01-.003-.015v.015s.003,0,.003,0Z"/>
            <path class="cls-32" d="m612.611,1232.48l-514.875-.142-10.506,11.226-12.645-11.226v-53.371l12.441,11.461,12.387-11.471,501.527-.091c16.083,0,29.097-13.805,27.779-30.151-1.175-14.565-13.733-25.591-28.345-25.591H72.697l-12.543,11.548-12.023-10.98c-.238-.218-.622-.049-.622.274v54.741c0,.042.011.081.025.119l.09-1.851.056,86.928,12.379,11.613,12.516-11.613,540.037.142c8.716,0,15.782-7.066,15.782-15.783s-7.066-15.783-15.782-15.783Z"/>
          </g>
          <g>
            <g>
              <path class="cls-29" d="m640.532,1178.826H99.763l-12.543,11.141-12.024-10.593c-.238-.21-.622-.047-.622.265v52.811c0,.098.042.191.115.259l12.53,11.113,12.543-11.219h540.77c15.329,0,27.871-12.1,27.871-26.888h0c0-14.789-12.542-26.888-27.871-26.888Z"/>
              <g>
                <path class="cls-8" d="m616.247,1206.219c.085-12.114,9.79-22.01,22.342-21.937,12.159.071,22.178,9.883,21.961,22.471-.203,11.764-9.754,21.773-22.498,21.598-12.042-.166-21.794-9.762-21.805-22.132Z"/>
                <path class="cls-23" d="m639.147,1207.657c2.854.024,5.612,2.731,5.624,5.52.014,3.13-2.722,5.849-5.866,5.829-3.016-.018-5.566-2.746-5.533-5.919.031-3.007,2.636-5.457,5.775-5.43Z"/>
                <rect class="cls-23" x="641.534" y="1198.041" width="9.448" height="9.448" transform="translate(1039.768 -104.692) rotate(45)"/>
                <polygon class="cls-23" points="637.378 1205.72 637.378 1199.288 631.807 1196.071 626.236 1199.288 626.236 1205.72 631.807 1208.937 637.378 1205.72"/>
              </g>
            </g>
            <text class="cls-25" transform="translate(288.613 1214.279)"><tspan x="0" y="0">을(를)</tspan></text>
            <text class="cls-25" transform="translate(420.385 1214.279)"><tspan x="0" y="0">초 동안</tspan></text>
            <g>
              <g>
                <path class="cls-19" d="m118.529,1225.835c-10.975,0-19.903-8.928-19.903-19.902s8.929-19.903,19.903-19.903h134.349c10.975,0,19.903,8.929,19.903,19.903s-8.928,19.902-19.903,19.902H118.529Z"/>
                <path class="cls-22" d="m252.878,1187.029c10.423,0,18.903,8.48,18.903,18.903s-8.48,18.903-18.903,18.903H118.529c-10.423,0-18.903-8.48-18.903-18.903s8.48-18.903,18.903-18.903h134.349m0-2H118.529c-11.497,0-20.903,9.406-20.903,20.903h0c0,11.497,9.406,20.903,20.903,20.903h134.349c11.497,0,20.903-9.406,20.903-20.903h0c0-11.497-9.406-20.903-20.903-20.903h0Z"/>
              </g>
              <text class="cls-34" transform="translate(114.065 1212.995)"><tspan x="0" y="0">사람이 졌습니다</tspan><tspan class="cls-28" x="138.166" y="0">.</tspan></text>
            </g>
            <g>
              <rect class="cls-5" x="507.829" y="1186.834" width="95.645" height="38.968" rx="3.871" ry="3.871"/>
              <text class="cls-35" transform="translate(518.353 1213.38)"><tspan x="0" y="0">말하기</tspan></text>
              <path class="cls-7" d="m586.975,1201.64c1.503,0,3.006-.003,4.509.001.951.003,1.744.288,2.197,1.211.47.958.064,1.702-.534,2.425-1.451,1.754-2.859,3.543-4.343,5.268-1.318,1.533-2.389,1.523-3.72-.029-1.519-1.771-2.972-3.598-4.452-5.402-.521-.635-.812-1.313-.452-2.145.374-.865,1.045-1.293,1.954-1.309,1.614-.027,3.228-.008,4.842-.008v-.013Z"/>
            </g>
            <g>
              <g>
                <path class="cls-19" d="m382.815,1225.835c-10.975,0-19.903-8.928-19.903-19.902s8.929-19.903,19.903-19.903,19.903,8.929,19.903,19.903-8.929,19.902-19.903,19.902Z"/>
                <path class="cls-22" d="m382.815,1187.029c10.423,0,18.903,8.48,18.903,18.903s-8.48,18.903-18.903,18.903-18.903-8.48-18.903-18.903,8.48-18.903,18.903-18.903m0-2h0c-11.497,0-20.903,9.406-20.903,20.903h0c0,11.497,9.406,20.903,20.903,20.903h0c11.497,0,20.903-9.406,20.903-20.903h0c0-11.497-9.406-20.903-20.903-20.903h0Z"/>
              </g>
              <text class="cls-34" transform="translate(375.529 1212.994)"><tspan x="0" y="0">2</tspan></text>
            </g>
          </g>
        </g>
      </g>
    </g>
  </g>
  <text class="cls-25" transform="translate(79.413 877.831)"><tspan x="0" y="0">만일</tspan></text>
  <g>
    <g>
      <polygon class="cls-16" points="136.402 870.244 151.929 850.34 451.815 849.94 467.341 869.843 451.814 889.747 151.928 890.147 136.402 870.244"/>
      <path class="cls-9" d="m451.327,850.941l14.745,18.902-14.747,18.905-298.91.399-14.745-18.902,14.747-18.905,298.91-.399m.975-2.001l-300.862.401-16.306,20.903,16.306,20.903,300.862-.401,16.306-20.903-16.306-20.903h0Z"/>
    </g>
    <g>
      <g>
        <g>
          <path class="cls-15" d="m173.621,890.148c-10.975,0-19.903-8.929-19.903-19.903s8.929-19.903,19.903-19.903h156.66c10.975,0,19.903,8.929,19.903,19.903s-8.929,19.903-19.903,19.903h-156.66Z"/>
          <path class="cls-4" d="m330.282,851.341c10.423,0,18.903,8.48,18.903,18.903s-8.48,18.903-18.903,18.903h-156.66c-10.423,0-18.903-8.48-18.903-18.903s8.48-18.903,18.903-18.903h156.66m0-2h-156.66c-11.497,0-20.903,9.406-20.903,20.903s9.406,20.903,20.903,20.903h156.66c11.497,0,20.903-9.406,20.903-20.903s-9.406-20.903-20.903-20.903h0Z"/>
        </g>
        <rect class="cls-4" x="168.202" y="850.76" width="135.34" height="38.968" rx="3.871" ry="3.871"/>
        <text class="cls-35" transform="translate(315.451 877.306)"><tspan x="0" y="0">값</tspan></text>
        <text class="cls-35" transform="translate(177.727 877.307)"><tspan x="0" y="0">컴퓨터 선택</tspan></text>
        <path class="cls-7" d="m287.849,865.567c1.503,0,3.006-.003,4.509.001.951.003,1.744.288,2.197,1.211.47.958.064,1.702-.534,2.425-1.451,1.754-2.859,3.543-4.343,5.268-1.318,1.533-2.389,1.523-3.72-.029-1.519-1.771-2.972-3.598-4.452-5.402-.521-.635-.812-1.313-.452-2.145.374-.865,1.045-1.293,1.954-1.309,1.614-.027,3.228-.008,4.842-.008v-.013Z"/>
      </g>
      <g>
        <circle class="cls-19" cx="429.831" cy="870.244" r="19.903"/>
        <path class="cls-22" d="m429.832,851.341c10.423,0,18.903,8.48,18.903,18.903s-8.48,18.903-18.903,18.903-18.903-8.48-18.903-18.903,8.48-18.903,18.903-18.903m0-2h0c-11.497,0-20.903,9.406-20.903,20.903s9.406,20.903,20.903,20.903h0c11.497,0,20.903-9.406,20.903-20.903s-9.406-20.903-20.903-20.903h0Z"/>
      </g>
      <text class="cls-34" transform="translate(422.578 877.306)"><tspan x="0" y="0">1</tspan></text>
    </g>
    <rect class="cls-9" x="364.039" y="850.438" width="30.968" height="39.613" rx="3.355" ry="3.355"/>
    <text class="cls-35" transform="translate(369.486 877.307)"><tspan x="0" y="0">＝</tspan></text>
  </g>
  <text class="cls-25" transform="translate(479.391 877.831)"><tspan x="0" y="0">(이)라면</tspan></text>
  <g>
    <path class="cls-14" d="m621.99,870.735c.233,11.599-9.583,22.21-22.59,21.903-11.361-.268-21.522-9.45-21.508-22.104.014-12.581,10.427-22.278,22.629-21.994,11.969.279,21.786,10.209,21.47,22.194Z"/>
    <path class="cls-13" d="m608.074,872.268c-.095,0-.185.021-.279.028l-4.684-7.075c.647-.892.942-2.055.623-3.302-.356-1.388-1.5-2.504-2.899-2.812-2.553-.562-4.81,1.366-4.81,3.821,0,.859.284,1.646.753,2.292l-4.684,7.075c-.094-.007-.183-.028-.279-.028-2.466,0-4.4,2.277-3.814,4.843.323,1.416,1.474,2.567,2.89,2.89,2.566.586,4.843-1.348,4.843-3.814,0-1.153-.507-2.18-1.3-2.897l4.386-6.625c.358.108.731.183,1.124.183s.766-.076,1.124-.183l4.386,6.625c-1.013.917-1.56,2.338-1.178,3.884.344,1.389,1.482,2.51,2.877,2.828,2.564.583,4.839-1.35,4.839-3.815,0-2.165-1.755-3.919-3.919-3.919Z"/>
  </g>
  <text class="cls-25" transform="translate(79.413 1017.443)"><tspan x="0" y="0">만일</tspan></text>
  <g>
    <g>
      <polygon class="cls-16" points="136.402 1009.857 151.929 989.952 451.815 989.553 467.341 1009.455 451.814 1029.358 151.928 1029.759 136.402 1009.857"/>
      <path class="cls-9" d="m451.327,990.553l14.745,18.902-14.747,18.905-298.91.399-14.745-18.902,14.747-18.905,298.91-.399m.975-2.001l-300.862.401-16.306,20.903,16.306,20.903,300.862-.401,16.306-20.903-16.306-20.903h0Z"/>
    </g>
    <g>
      <g>
        <g>
          <path class="cls-15" d="m173.621,1029.759c-10.975,0-19.903-8.928-19.903-19.902s8.929-19.903,19.903-19.903h156.66c10.975,0,19.903,8.929,19.903,19.903s-8.929,19.902-19.903,19.902h-156.66Z"/>
          <path class="cls-4" d="m330.282,990.953c10.423,0,18.903,8.48,18.903,18.903s-8.48,18.903-18.903,18.903h-156.66c-10.423,0-18.903-8.48-18.903-18.903s8.48-18.903,18.903-18.903h156.66m0-2h-156.66c-11.497,0-20.903,9.406-20.903,20.903h0c0,11.497,9.406,20.903,20.903,20.903h156.66c11.497,0,20.903-9.406,20.903-20.903h0c0-11.497-9.406-20.903-20.903-20.903h0Z"/>
        </g>
        <rect class="cls-4" x="168.202" y="990.372" width="135.34" height="38.968" rx="3.871" ry="3.871"/>
        <text class="cls-35" transform="translate(315.451 1016.918)"><tspan x="0" y="0">값</tspan></text>
        <text class="cls-35" transform="translate(177.727 1016.918)"><tspan x="0" y="0">컴퓨터 선택</tspan></text>
        <path class="cls-7" d="m287.849,1005.179c1.503,0,3.006-.003,4.509.001.951.003,1.744.288,2.197,1.211.47.958.064,1.702-.534,2.425-1.451,1.754-2.859,3.543-4.343,5.268-1.318,1.533-2.389,1.523-3.72-.029-1.519-1.771-2.972-3.598-4.452-5.402-.521-.635-.812-1.313-.452-2.145.374-.865,1.045-1.293,1.954-1.309,1.614-.027,3.228-.008,4.842-.008v-.013Z"/>
      </g>
      <g>
        <path class="cls-19" d="m429.831,1029.759c-10.975,0-19.903-8.928-19.903-19.902s8.929-19.903,19.903-19.903,19.903,8.929,19.903,19.903-8.929,19.902-19.903,19.902Z"/>
        <path class="cls-22" d="m429.832,990.953c10.423,0,18.903,8.48,18.903,18.903s-8.48,18.903-18.903,18.903-18.903-8.48-18.903-18.903,8.48-18.903,18.903-18.903m0-2h0c-11.497,0-20.903,9.406-20.903,20.903h0c0,11.497,9.406,20.903,20.903,20.903h0c11.497,0,20.903-9.406,20.903-20.903h0c0-11.497-9.406-20.903-20.903-20.903h0Z"/>
      </g>
      <text class="cls-34" transform="translate(422.578 1016.918)"><tspan x="0" y="0">2</tspan></text>
    </g>
    <rect class="cls-9" x="364.039" y="990.05" width="30.968" height="39.613" rx="3.355" ry="3.355"/>
    <text class="cls-35" transform="translate(369.486 1016.919)"><tspan x="0" y="0">＝</tspan></text>
  </g>
  <text class="cls-25" transform="translate(479.391 1017.443)"><tspan x="0" y="0">(이)라면</tspan></text>
  <text class="cls-25" transform="translate(79.413 1159.055)"><tspan x="0" y="0">만일</tspan></text>
  <text class="cls-25" transform="translate(479.391 1159.055)"><tspan x="0" y="0">(이)라면</tspan></text>
  <g>
    <path class="cls-14" d="m621.99,1010.347c.233,11.599-9.583,22.21-22.59,21.903-11.361-.268-21.522-9.45-21.508-22.104.014-12.581,10.427-22.278,22.629-21.994,11.969.279,21.786,10.209,21.47,22.194Z"/>
    <path class="cls-13" d="m608.074,1011.879c-.095,0-.185.021-.279.028l-4.684-7.075c.647-.892.942-2.055.623-3.302-.356-1.388-1.5-2.504-2.899-2.812-2.553-.562-4.81,1.366-4.81,3.821,0,.859.284,1.646.753,2.292l-4.684,7.075c-.094-.007-.183-.028-.279-.028-2.466,0-4.4,2.277-3.814,4.843.323,1.416,1.474,2.567,2.89,2.89,2.566.586,4.843-1.348,4.843-3.814,0-1.153-.507-2.18-1.3-2.897l4.386-6.625c.358.108.731.183,1.124.183s.766-.076,1.124-.183l4.386,6.625c-1.013.917-1.56,2.338-1.178,3.884.344,1.389,1.482,2.51,2.877,2.828,2.564.583,4.839-1.35,4.839-3.815,0-2.165-1.755-3.919-3.919-3.919Z"/>
  </g>
  <g>
    <path class="cls-14" d="m621.99,1151.413c.233,11.599-9.583,22.21-22.59,21.903-11.361-.268-21.522-9.45-21.508-22.104.014-12.581,10.427-22.278,22.629-21.994,11.969.279,21.786,10.209,21.47,22.194Z"/>
    <path class="cls-13" d="m608.074,1152.945c-.095,0-.185.021-.279.028l-4.684-7.075c.647-.892.942-2.055.623-3.302-.356-1.388-1.5-2.504-2.899-2.812-2.553-.562-4.81,1.366-4.81,3.821,0,.859.284,1.646.753,2.292l-4.684,7.075c-.094-.007-.183-.028-.279-.028-2.466,0-4.4,2.277-3.814,4.843.323,1.416,1.474,2.567,2.89,2.89,2.566.586,4.843-1.348,4.843-3.814,0-1.153-.507-2.18-1.3-2.897l4.386-6.625c.358.108.731.183,1.124.183s.766-.076,1.124-.183l4.386,6.625c-1.013.917-1.56,2.338-1.178,3.884.344,1.389,1.482,2.51,2.877,2.828,2.564.583,4.839-1.35,4.839-3.815,0-2.165-1.755-3.919-3.919-3.919Z"/>
  </g>
  <text class="cls-25" transform="translate(79.413 1386.407)"><tspan x="0" y="0">만일</tspan></text>
  <text class="cls-25" transform="translate(479.391 1386.407)"><tspan x="0" y="0">(이)라면</tspan></text>
  <text class="cls-25" transform="translate(79.413 1525.981)"><tspan x="0" y="0">만일</tspan></text>
  <g>
    <g>
      <polygon class="cls-16" points="136.402 1518.396 151.929 1498.491 451.815 1498.092 467.341 1517.994 451.814 1537.899 151.928 1538.298 136.402 1518.396"/>
      <path class="cls-9" d="m451.327,1499.092l14.745,18.902-14.747,18.905-298.91.399-14.745-18.902,14.747-18.905,298.91-.399m.975-2.001l-300.862.401-16.306,20.903,16.306,20.903,300.862-.401,16.306-20.903-16.306-20.903h0Z"/>
    </g>
    <g>
      <g>
        <g>
          <path class="cls-15" d="m173.621,1538.299c-10.975,0-19.903-8.929-19.903-19.903s8.929-19.903,19.903-19.903h156.66c10.975,0,19.903,8.929,19.903,19.903s-8.929,19.903-19.903,19.903h-156.66Z"/>
          <path class="cls-4" d="m330.282,1499.492c10.423,0,18.903,8.48,18.903,18.903s-8.48,18.903-18.903,18.903h-156.66c-10.423,0-18.903-8.48-18.903-18.903s8.48-18.903,18.903-18.903h156.66m0-2h-156.66c-11.497,0-20.903,9.406-20.903,20.903s9.406,20.903,20.903,20.903h156.66c11.497,0,20.903-9.406,20.903-20.903s-9.406-20.903-20.903-20.903h0Z"/>
        </g>
        <rect class="cls-4" x="168.202" y="1498.911" width="135.34" height="38.968" rx="3.871" ry="3.871"/>
        <text class="cls-35" transform="translate(315.451 1525.456)"><tspan x="0" y="0">값</tspan></text>
        <text class="cls-35" transform="translate(177.727 1525.457)"><tspan x="0" y="0">컴퓨터 선택</tspan></text>
        <path class="cls-7" d="m287.849,1513.718c1.503,0,3.006-.003,4.509.001.951.003,1.744.288,2.197,1.211.47.958.064,1.702-.534,2.425-1.451,1.754-2.859,3.543-4.343,5.268-1.318,1.533-2.389,1.523-3.72-.029-1.519-1.771-2.972-3.598-4.452-5.402-.521-.635-.812-1.313-.452-2.145.374-.865,1.045-1.293,1.954-1.309,1.614-.027,3.228-.008,4.842-.008v-.013Z"/>
      </g>
      <g>
        <circle class="cls-19" cx="429.831" cy="1518.396" r="19.903"/>
        <path class="cls-22" d="m429.832,1499.492c10.423,0,18.903,8.48,18.903,18.903s-8.48,18.903-18.903,18.903-18.903-8.48-18.903-18.903,8.48-18.903,18.903-18.903m0-2h0c-11.497,0-20.903,9.406-20.903,20.903s9.406,20.903,20.903,20.903h0c11.497,0,20.903-9.406,20.903-20.903s-9.406-20.903-20.903-20.903h0Z"/>
      </g>
      <text class="cls-34" transform="translate(422.578 1525.456)"><tspan x="0" y="0">2</tspan></text>
    </g>
    <rect class="cls-9" x="364.039" y="1498.589" width="30.968" height="39.613" rx="3.355" ry="3.355"/>
    <text class="cls-35" transform="translate(369.486 1525.458)"><tspan x="0" y="0">＝</tspan></text>
  </g>
  <text class="cls-25" transform="translate(479.391 1525.981)"><tspan x="0" y="0">(이)라면</tspan></text>
  <text class="cls-25" transform="translate(79.413 1666.555)"><tspan x="0" y="0">만일</tspan></text>
  <g>
    <g>
      <polygon class="cls-16" points="136.402 1658.969 151.929 1639.065 451.815 1638.666 467.341 1658.567 451.814 1678.472 151.928 1678.871 136.402 1658.969"/>
      <path class="cls-9" d="m451.327,1639.666l14.745,18.902-14.747,18.905-298.91.399-14.745-18.902,14.747-18.905,298.91-.399m.975-2.001l-300.862.401-16.306,20.903,16.306,20.903,300.862-.401,16.306-20.903-16.306-20.903h0Z"/>
    </g>
    <g>
      <g>
        <g>
          <path class="cls-15" d="m173.621,1678.872c-10.975,0-19.903-8.928-19.903-19.902s8.929-19.903,19.903-19.903h156.66c10.975,0,19.903,8.928,19.903,19.902s-8.929,19.903-19.903,19.903h-156.66Z"/>
          <path class="cls-4" d="m330.282,1640.066c10.423,0,18.903,8.48,18.903,18.903s-8.48,18.903-18.903,18.903h-156.66c-10.423,0-18.903-8.48-18.903-18.903s8.48-18.903,18.903-18.903h156.66m0-2h-156.66c-11.497,0-20.903,9.406-20.903,20.903s9.406,20.903,20.903,20.903h156.66c11.497,0,20.903-9.406,20.903-20.903s-9.406-20.903-20.903-20.903h0Z"/>
        </g>
        <rect class="cls-4" x="168.202" y="1639.485" width="135.34" height="38.968" rx="3.871" ry="3.871"/>
        <text class="cls-35" transform="translate(315.451 1666.03)"><tspan x="0" y="0">값</tspan></text>
        <text class="cls-35" transform="translate(177.727 1666.031)"><tspan x="0" y="0">컴퓨터 선택</tspan></text>
        <path class="cls-7" d="m287.849,1654.292c1.503,0,3.006-.003,4.509.001.951.003,1.744.288,2.197,1.211.47.958.064,1.702-.534,2.425-1.451,1.754-2.859,3.543-4.343,5.268-1.318,1.533-2.389,1.523-3.72-.029-1.519-1.771-2.972-3.598-4.452-5.402-.521-.635-.812-1.313-.452-2.145.374-.865,1.045-1.293,1.954-1.309,1.614-.027,3.228-.008,4.842-.008v-.013Z"/>
      </g>
      <g>
        <path class="cls-19" d="m429.831,1678.872c-10.975,0-19.903-8.928-19.903-19.902s8.929-19.903,19.903-19.903,19.903,8.928,19.903,19.902-8.929,19.903-19.903,19.903Z"/>
        <path class="cls-22" d="m429.832,1640.066c10.423,0,18.903,8.48,18.903,18.903s-8.48,18.903-18.903,18.903-18.903-8.48-18.903-18.903,8.48-18.903,18.903-18.903m0-2h0c-11.497,0-20.903,9.406-20.903,20.903s9.406,20.903,20.903,20.903h0c11.497,0,20.903-9.406,20.903-20.903s-9.406-20.903-20.903-20.903h0Z"/>
      </g>
      <text class="cls-34" transform="translate(422.578 1666.03)"><tspan x="0" y="0">3</tspan></text>
    </g>
    <rect class="cls-9" x="364.039" y="1639.163" width="30.968" height="39.613" rx="3.355" ry="3.355"/>
    <text class="cls-35" transform="translate(369.486 1666.032)"><tspan x="0" y="0">＝</tspan></text>
  </g>
  <text class="cls-25" transform="translate(479.391 1666.555)"><tspan x="0" y="0">(이)라면</tspan></text>
  <g>
    <path class="cls-14" d="m621.99,1378.766c.233,11.599-9.583,22.21-22.59,21.903-11.361-.268-21.522-9.45-21.508-22.104.014-12.581,10.427-22.278,22.629-21.994,11.969.279,21.786,10.209,21.47,22.194Z"/>
    <path class="cls-13" d="m608.074,1380.298c-.095,0-.185.021-.279.028l-4.684-7.075c.647-.892.942-2.055.623-3.302-.356-1.388-1.5-2.504-2.899-2.812-2.553-.562-4.81,1.366-4.81,3.821,0,.859.284,1.646.753,2.292l-4.684,7.075c-.094-.007-.183-.028-.279-.028-2.466,0-4.4,2.277-3.814,4.843.323,1.416,1.474,2.567,2.89,2.89,2.566.586,4.843-1.348,4.843-3.814,0-1.153-.507-2.18-1.3-2.897l4.386-6.625c.358.108.731.183,1.124.183s.766-.076,1.124-.183l4.386,6.625c-1.013.917-1.56,2.338-1.178,3.884.344,1.389,1.482,2.51,2.877,2.828,2.564.583,4.839-1.35,4.839-3.815,0-2.165-1.755-3.919-3.919-3.919Z"/>
  </g>
  <g>
    <g>
      <polygon class="cls-16" points="136.402 1378.821 151.929 1358.917 451.815 1358.518 467.341 1378.42 451.814 1398.324 151.928 1398.724 136.402 1378.821"/>
      <path class="cls-9" d="m451.327,1359.518l14.745,18.902-14.747,18.905-298.91.399-14.745-18.902,14.747-18.905,298.91-.399m.975-2.001l-300.862.401-16.306,20.903,16.306,20.903,300.862-.401,16.306-20.903-16.306-20.903h0Z"/>
    </g>
    <g>
      <g>
        <g>
          <path class="cls-15" d="m173.621,1398.725c-10.975,0-19.903-8.929-19.903-19.903s8.929-19.903,19.903-19.903h156.66c10.975,0,19.903,8.929,19.903,19.903s-8.929,19.903-19.903,19.903h-156.66Z"/>
          <path class="cls-4" d="m330.282,1359.918c10.423,0,18.903,8.48,18.903,18.903s-8.48,18.903-18.903,18.903h-156.66c-10.423,0-18.903-8.48-18.903-18.903s8.48-18.903,18.903-18.903h156.66m0-2h-156.66c-11.497,0-20.903,9.406-20.903,20.903s9.406,20.903,20.903,20.903h156.66c11.497,0,20.903-9.406,20.903-20.903s-9.406-20.903-20.903-20.903h0Z"/>
        </g>
        <rect class="cls-4" x="168.202" y="1359.337" width="135.34" height="38.968" rx="3.871" ry="3.871"/>
        <text class="cls-35" transform="translate(315.451 1385.882)"><tspan x="0" y="0">값</tspan></text>
        <text class="cls-35" transform="translate(177.727 1385.883)"><tspan x="0" y="0">컴퓨터 선택</tspan></text>
        <path class="cls-7" d="m287.849,1374.144c1.503,0,3.006-.003,4.509.001.951.003,1.744.288,2.197,1.211.47.958.064,1.702-.534,2.425-1.451,1.754-2.859,3.543-4.343,5.268-1.318,1.533-2.389,1.523-3.72-.029-1.519-1.771-2.972-3.598-4.452-5.402-.521-.635-.812-1.313-.452-2.145.374-.865,1.045-1.293,1.954-1.309,1.614-.027,3.228-.008,4.842-.008v-.013Z"/>
      </g>
      <g>
        <circle class="cls-19" cx="429.831" cy="1378.821" r="19.903"/>
        <path class="cls-22" d="m429.832,1359.918c10.423,0,18.903,8.48,18.903,18.903s-8.48,18.903-18.903,18.903-18.903-8.48-18.903-18.903,8.48-18.903,18.903-18.903m0-2h0c-11.497,0-20.903,9.406-20.903,20.903s9.406,20.903,20.903,20.903h0c11.497,0,20.903-9.406,20.903-20.903s-9.406-20.903-20.903-20.903h0Z"/>
      </g>
      <text class="cls-34" transform="translate(424.578 1385.882)"><tspan x="0" y="0">1</tspan></text>
    </g>
    <rect class="cls-9" x="364.039" y="1359.015" width="30.968" height="39.613" rx="3.355" ry="3.355"/>
    <text class="cls-35" transform="translate(369.486 1385.884)"><tspan x="0" y="0">＝</tspan></text>
  </g>
  <polygon class="cls-12" points="452.303 848.94 151.44 849.341 135.134 870.244 151.44 891.148 452.303 890.746 468.609 869.843 452.303 848.94"/>
  <polygon class="cls-12" points="452.303 988.762 151.44 989.164 135.134 1010.067 151.44 1030.97 452.303 1030.569 468.609 1009.665 452.303 988.762"/>
  <path class="cls-12" d="m76.366,856.77v26.057c0,4.373,3.563,7.909,7.937,7.874l35.347-.278c4.325-.034,7.813-3.55,7.813-7.874v-26.057c0-4.373-3.563-7.909-7.937-7.874l-35.347.278c-4.325.034-7.813,3.55-7.813,7.874Z"/>
  <path class="cls-12" d="m478.694,856.77v26.057c0,4.373,3.563,7.909,7.937,7.874l73.742-.278c4.325-.034,7.813-3.55,7.813-7.874v-26.057c0-4.373-3.563-7.909-7.937-7.874l-73.742.278c-4.325.034-7.813,3.55-7.813,7.874Z"/>
  <path class="cls-12" d="m76.366,996.977v26.057c0,4.373,3.563,7.909,7.937,7.874l35.347-.278c4.325-.034,7.813-3.55,7.813-7.874v-26.057c0-4.373-3.563-7.909-7.937-7.874l-35.347.278c-4.325.034-7.813,3.55-7.813,7.874Z"/>
  <path class="cls-12" d="m478.694,996.977v26.057c0,4.373,3.563,7.909,7.937,7.874l73.742-.278c4.325-.034,7.813-3.55,7.813-7.874v-26.057c0-4.373-3.563-7.909-7.937-7.874l-73.742.278c-4.325.034-7.813,3.55-7.813,7.874Z"/>
  <path class="cls-12" d="m76.366,1365.699v26.057c0,4.373,3.563,7.909,7.937,7.874l35.347-.278c4.325-.034,7.813-3.55,7.813-7.874v-26.057c0-4.373-3.563-7.909-7.937-7.874l-35.347.278c-4.325.034-7.813,3.55-7.813,7.874Z"/>
  <path class="cls-12" d="m478.694,1365.699v26.057c0,4.373,3.563,7.909,7.937,7.874l73.742-.278c4.325-.034,7.813-3.55,7.813-7.874v-26.057c0-4.373-3.563-7.909-7.937-7.874l-73.742.278c-4.325.034-7.813,3.55-7.813,7.874Z"/>
  <path class="cls-12" d="m76.366,1505.243v26.057c0,4.373,3.563,7.909,7.937,7.874l35.347-.278c4.325-.034,7.813-3.55,7.813-7.874v-26.057c0-4.373-3.563-7.909-7.937-7.874l-35.347.278c-4.325.034-7.813,3.55-7.813,7.874Z"/>
  <path class="cls-12" d="m478.694,1505.243v26.057c0,4.373,3.563,7.909,7.937,7.874l73.742-.278c4.325-.034,7.813-3.55,7.813-7.874v-26.057c0-4.373-3.563-7.909-7.937-7.874l-73.742.278c-4.325.034-7.813,3.55-7.813,7.874Z"/>
  <path class="cls-12" d="m76.366,1645.817v26.057c0,4.373,3.563,7.909,7.937,7.874l35.347-.278c4.325-.034,7.813-3.55,7.813-7.874v-26.057c0-4.373-3.563-7.909-7.937-7.874l-35.347.278c-4.325.034-7.813,3.55-7.813,7.874Z"/>
  <path class="cls-12" d="m478.694,1645.817v26.057c0,4.373,3.563,7.909,7.937,7.874l73.742-.278c4.325-.034,7.813-3.55,7.813-7.874v-26.057c0-4.373-3.563-7.909-7.937-7.874l-73.742.278c-4.325.034-7.813,3.55-7.813,7.874Z"/>
  <polygon class="cls-12" points="396.52 1301.104 123.834 1301.506 107.527 1322.409 123.834 1343.312 396.52 1342.911 412.826 1322.008 396.52 1301.104"/>
  <polygon class="cls-12" points="452.303 1497.091 151.44 1497.492 135.134 1518.395 151.44 1539.298 452.303 1538.897 468.609 1517.994 452.303 1497.091"/>
  <polygon class="cls-12" points="452.303 1637.665 151.44 1638.066 135.134 1658.969 151.44 1679.873 452.303 1679.471 468.609 1658.568 452.303 1637.665"/>
  <polygon class="cls-12" points="452.303 1357.517 151.44 1357.918 135.134 1378.821 151.44 1399.724 452.303 1399.323 468.609 1378.42 452.303 1357.517"/>
  <rect class="cls-12" x="413.199" y="480.308" width="42.952" height="41.806" rx="20.903" ry="20.903"/>
  <rect class="cls-12" x="152.3" y="621.244" width="201.156" height="41.806" rx="20.903" ry="20.903"/>
  <rect class="cls-12" x="413.199" y="621.244" width="42.952" height="41.806" rx="20.903" ry="20.903"/>
  <g>
    <g>
      <polygon class="cls-16" points="136.402 1151.468 151.929 1131.564 451.815 1131.164 467.341 1151.066 451.814 1170.971 151.928 1171.37 136.402 1151.468"/>
      <path class="cls-9" d="m451.327,1132.165l14.745,18.902-14.747,18.905-298.91.399-14.745-18.902,14.747-18.905,298.91-.399m.975-2.001l-300.862.401-16.306,20.903,16.306,20.903,300.862-.401,16.306-20.903-16.306-20.903h0Z"/>
    </g>
    <g>
      <g>
        <g>
          <path class="cls-15" d="m173.621,1171.371c-10.975,0-19.903-8.929-19.903-19.903s8.929-19.903,19.903-19.903h156.66c10.975,0,19.903,8.929,19.903,19.903s-8.929,19.903-19.903,19.903h-156.66Z"/>
          <path class="cls-4" d="m330.282,1132.565c10.423,0,18.903,8.48,18.903,18.903s-8.48,18.903-18.903,18.903h-156.66c-10.423,0-18.903-8.48-18.903-18.903s8.48-18.903,18.903-18.903h156.66m0-2h-156.66c-11.497,0-20.903,9.406-20.903,20.903s9.406,20.903,20.903,20.903h156.66c11.497,0,20.903-9.406,20.903-20.903s-9.406-20.903-20.903-20.903h0Z"/>
        </g>
        <rect class="cls-4" x="168.202" y="1131.984" width="135.34" height="38.968" rx="3.871" ry="3.871"/>
        <text class="cls-35" transform="translate(315.451 1158.53)"><tspan x="0" y="0">값</tspan></text>
        <text class="cls-35" transform="translate(177.727 1158.53)"><tspan x="0" y="0">컴퓨터 선택</tspan></text>
        <path class="cls-7" d="m287.849,1146.791c1.503,0,3.006-.003,4.509.001.951.003,1.744.288,2.197,1.211.47.958.064,1.702-.534,2.425-1.451,1.754-2.859,3.543-4.343,5.268-1.318,1.533-2.389,1.523-3.72-.029-1.519-1.771-2.972-3.598-4.452-5.402-.521-.635-.812-1.313-.452-2.145.374-.865,1.045-1.293,1.954-1.309,1.614-.027,3.228-.008,4.842-.008v-.013Z"/>
      </g>
      <g>
        <circle class="cls-19" cx="429.831" cy="1151.066" r="19.903"/>
        <path class="cls-22" d="m429.832,1132.163c10.423,0,18.903,8.48,18.903,18.903s-8.48,18.903-18.903,18.903-18.903-8.48-18.903-18.903,8.48-18.903,18.903-18.903m0-2h0c-11.497,0-20.903,9.406-20.903,20.903s9.406,20.903,20.903,20.903h0c11.497,0,20.903-9.406,20.903-20.903s-9.406-20.903-20.903-20.903h0Z"/>
      </g>
      <text class="cls-34" transform="translate(422.578 1158.53)"><tspan x="0" y="0">3</tspan></text>
    </g>
    <rect class="cls-9" x="364.039" y="1131.662" width="30.968" height="39.613" rx="3.355" ry="3.355"/>
    <text class="cls-35" transform="translate(369.486 1158.531)"><tspan x="0" y="0">＝</tspan></text>
  </g>
  <g>
    <polygon class="cls-12" points="452.303 1130.163 151.44 1130.565 135.134 1151.468 151.44 1172.371 452.303 1171.97 468.609 1151.067 452.303 1130.163"/>
    <path class="cls-12" d="m76.366,1138.378v26.057c0,4.373,3.563,7.909,7.937,7.874l35.347-.278c4.325-.034,7.813-3.55,7.813-7.874v-26.057c0-4.373-3.563-7.909-7.937-7.874l-35.347.278c-4.325.034-7.813,3.55-7.813,7.874Z"/>
    <path class="cls-12" d="m478.694,1138.378v26.057c0,4.373,3.563,7.909,7.937,7.874l73.742-.278c4.325-.034,7.813-3.55,7.813-7.874v-26.057c0-4.373-3.563-7.909-7.937-7.874l-73.742.278c-4.325.034-7.813,3.55-7.813,7.874Z"/>
  </g>
</svg>