<?xml version="1.0" encoding="UTF-8"?>
<svg xmlns="http://www.w3.org/2000/svg" viewBox="0 0 317.474 130.968">
  <defs>
    <style>
      .cls-1 {
        fill: #4f80ff;
      }

      .cls-1, .cls-2, .cls-3, .cls-4 {
        stroke-width: 0px;
      }

      .cls-5, .cls-6 {
        font-family: Pretendard-Bold-KSCpc-EUC-H, Pretendard;
        font-weight: 700;
      }

      .cls-2, .cls-7 {
        fill: #fff;
      }

      .cls-8 {
        stroke-width: .5px;
      }

      .cls-8, .cls-9, .cls-7, .cls-10 {
        stroke-miterlimit: 10;
      }

      .cls-8, .cls-9, .cls-10, .cls-11 {
        fill: none;
      }

      .cls-8, .cls-10 {
        stroke: #4f80ff;
      }

      .cls-6, .cls-12 {
        fill: #2c313d;
        font-size: 8.5px;
        letter-spacing: .01em;
      }

      .cls-9, .cls-7 {
        stroke: #e2e2e2;
        stroke-width: .75px;
      }

      .cls-3 {
        fill: #f9f9f9;
      }

      .cls-4 {
        fill: #ffb500;
      }

      .cls-13 {
        fill: #555;
        font-size: 7.5px;
        letter-spacing: .01em;
      }

      .cls-10 {
        stroke-linecap: round;
        stroke-width: 2px;
      }

      .cls-11 {
        stroke: red;
        stroke-dasharray: 0 0 4.004 2.002;
        stroke-linejoin: round;
        stroke-width: 1.5px;
      }
    </style>
  </defs>
  <g id="_레이어_1" data-name="레이어 1">
    <g>
      <rect class="cls-3" x="0" y="0" width="317.474" height="130.968"/>
      <line class="cls-9" x1="45.752" y1=".411" x2="45.752" y2="108.798"/>
      <path class="cls-7" d="m304.796,47.032H30.001l-6.307-6.302-6.307,6.302h-5.365c-1.55,0-2.806,1.256-2.806,2.806v72.581c0,1.55,1.257,2.806,2.806,2.806h292.774c1.55,0,2.807-1.257,2.807-2.806V49.839c0-1.55-1.257-2.806-2.807-2.806Z"/>
      <g>
        <g>
          <rect class="cls-2" x="9.182" y="7.988" width="28.145" height="28.145" rx="2.46" ry="2.46"/>
          <path class="cls-1" d="m34.868,8.238c1.219,0,2.21.991,2.21,2.21v23.226c0,1.219-.991,2.21-2.21,2.21H11.642c-1.219,0-2.21-.991-2.21-2.21V10.448c0-1.219.991-2.21,2.21-2.21h23.226m0-.5H11.642c-1.497,0-2.71,1.213-2.71,2.71v23.226c0,1.497,1.213,2.71,2.71,2.71h23.226c1.497,0,2.71-1.213,2.71-2.71V10.448c0-1.497-1.213-2.71-2.71-2.71h0Z"/>
        </g>
        <line class="cls-10" x1="23.255" y1="16.835" x2="23.255" y2="27.287"/>
        <line class="cls-10" x1="28.481" y1="22.061" x2="18.029" y2="22.061"/>
      </g>
      <g>
        <g>
          <g>
            <rect class="cls-2" x="268.113" y="58.449" width="28.145" height="28.145" rx="2.46" ry="2.46"/>
            <path class="cls-1" d="m293.798,58.699c1.219,0,2.21.991,2.21,2.209v23.226c0,1.218-.991,2.209-2.21,2.209h-23.226c-1.219,0-2.21-.991-2.21-2.209v-23.226c0-1.218.991-2.209,2.21-2.209h23.226m0-.5h-23.226c-1.497,0-2.71,1.213-2.71,2.709v23.226c0,1.496,1.213,2.709,2.71,2.709h23.226c1.497,0,2.71-1.213,2.71-2.709v-23.226c0-1.497-1.213-2.709-2.71-2.709h0Z"/>
          </g>
          <g>
            <polygon class="cls-4" points="280.377 67.214 280.377 70.004 277.568 70.004 277.568 74.239 274.794 74.239 274.794 80.064 283.173 80.064 283.173 75.829 283.173 74.239 283.173 73.039 283.173 70.004 283.173 67.214 280.377 67.214"/>
            <polygon class="cls-1" points="286.003 74.231 286.003 69.328 283.164 69.328 283.164 74.231 283.164 75.661 280.358 75.661 280.358 80.064 283.164 80.064 284.374 80.064 288.842 80.064 288.842 74.231 286.003 74.231"/>
            <polyline class="cls-8" points="291.992 80.296 272.379 80.296 272.379 64.747"/>
          </g>
        </g>
        <text class="cls-6" transform="translate(263.607 102.153)"><tspan x="0" y="0">히스토그램</tspan></text>
      </g>
      <g>
        <g>
          <g>
            <rect class="cls-2" x="218.671" y="58.449" width="28.145" height="28.145" rx="2.46" ry="2.46"/>
            <path class="cls-1" d="m244.357,58.699c1.219,0,2.21.991,2.21,2.209v23.226c0,1.218-.991,2.209-2.21,2.209h-23.226c-1.219,0-2.21-.991-2.21-2.209v-23.226c0-1.218.991-2.209,2.21-2.209h23.226m0-.5h-23.226c-1.497,0-2.71,1.213-2.71,2.709v23.226c0,1.496,1.213,2.709,2.71,2.709h23.226c1.497,0,2.71-1.213,2.71-2.709v-23.226c0-1.497-1.213-2.709-2.71-2.709h0Z"/>
          </g>
          <polyline class="cls-8" points="242.55 80.296 222.937 80.296 222.937 64.747"/>
          <g>
            <circle class="cls-4" cx="236.963" cy="65.749" r="1.002"/>
            <circle class="cls-4" cx="236.963" cy="69.378" r="1.002"/>
            <circle class="cls-4" cx="240.479" cy="67.233" r="1.002"/>
            <circle class="cls-4" cx="229.931" cy="74.188" r="1.002"/>
            <circle class="cls-4" cx="229.237" cy="77.756" r="1.002"/>
            <circle class="cls-4" cx="226.431" cy="76.304" r="1.002"/>
          </g>
          <line class="cls-8" x1="222.937" y1="72.06" x2="242.195" y2="72.06"/>
          <line class="cls-8" x1="233.642" y1="80.296" x2="233.642" y2="64.747"/>
        </g>
        <text class="cls-6" transform="translate(213.144 102.153)"><tspan x="0" y="0">산점도 행렬</tspan></text>
      </g>
      <g>
        <g>
          <g>
            <g>
              <rect class="cls-2" x="169.23" y="58.449" width="28.145" height="28.145" rx="2.46" ry="2.46"/>
              <path class="cls-1" d="m194.915,58.699c1.219,0,2.21.991,2.21,2.209v23.226c0,1.218-.991,2.209-2.21,2.209h-23.226c-1.219,0-2.21-.991-2.21-2.209v-23.226c0-1.218.991-2.209,2.21-2.209h23.226m0-.5h-23.226c-1.497,0-2.71,1.213-2.71,2.709v23.226c0,1.496,1.213,2.709,2.71,2.709h23.226c1.496,0,2.71-1.213,2.71-2.709v-23.226c0-1.497-1.213-2.709-2.71-2.709h0Z"/>
            </g>
            <polyline class="cls-8" points="193.109 80.296 173.496 80.296 173.496 64.747"/>
          </g>
          <g>
            <circle class="cls-4" cx="176.882" cy="76.273" r=".999"/>
            <circle class="cls-4" cx="176.087" cy="69.23" r=".999"/>
            <circle class="cls-4" cx="181.759" cy="76.273" r=".999"/>
            <circle class="cls-4" cx="181.073" cy="72.06" r=".999"/>
            <circle class="cls-1" cx="185.976" cy="72.785" r=".999"/>
            <circle class="cls-1" cx="188.831" cy="76.273" r=".999"/>
            <circle class="cls-1" cx="189.54" cy="70.656" r=".999"/>
            <circle class="cls-1" cx="183.169" cy="68.495" r=".999"/>
            <circle class="cls-1" cx="187.427" cy="65.672" r=".999"/>
          </g>
        </g>
        <text class="cls-5" transform="translate(179.592 102.153)"><tspan class="cls-12"><tspan x="0" y="0">점</tspan></tspan><tspan class="cls-13"><tspan x="-6.125" y="10">산점도</tspan></tspan></text>
      </g>
      <g>
        <g>
          <g>
            <rect class="cls-2" x="119.788" y="58.449" width="28.145" height="28.145" rx="2.46" ry="2.46"/>
            <path class="cls-1" d="m145.474,58.699c1.219,0,2.21.991,2.21,2.209v23.226c0,1.218-.991,2.209-2.21,2.209h-23.226c-1.219,0-2.21-.991-2.21-2.209v-23.226c0-1.218.991-2.209,2.21-2.209h23.226m0-.5h-23.226c-1.497,0-2.71,1.213-2.71,2.709v23.226c0,1.496,1.213,2.709,2.71,2.709h23.226c1.497,0,2.71-1.213,2.71-2.709v-23.226c0-1.497-1.213-2.709-2.71-2.709h0Z"/>
          </g>
          <g>
            <path class="cls-1" d="m136.527,64.477c-.838-.284-1.733-.444-2.667-.444-4.596,0-8.323,3.726-8.323,8.323s3.726,8.323,8.323,8.323c.198,0,.393-.016.588-.03l-1.127-8.393,3.206-7.778Z"/>
            <path class="cls-4" d="m141.433,68.914c-.819-1.798-2.256-3.249-4.042-4.088l-2.758,6.696,6.8-2.607Z"/>
            <path class="cls-4" d="m134.313,72.641l1.06,7.893c3.874-.712,6.811-4.1,6.811-8.179,0-.899-.146-1.763-.41-2.574l-7.46,2.86Z"/>
          </g>
        </g>
        <text class="cls-5" transform="translate(130.15 102.153)"><tspan class="cls-12"><tspan x="0" y="0">원</tspan></tspan><tspan class="cls-13"><tspan x="-9.403" y="10">파이차트</tspan></tspan></text>
      </g>
      <g>
        <g>
          <g>
            <rect class="cls-2" x="70.347" y="58.449" width="28.145" height="28.145" rx="2.46" ry="2.46"/>
            <path class="cls-1" d="m96.032,58.699c1.219,0,2.21.991,2.21,2.209v23.226c0,1.218-.991,2.209-2.21,2.209h-23.226c-1.219,0-2.21-.991-2.21-2.209v-23.226c0-1.218.991-2.209,2.21-2.209h23.226m0-.5h-23.226c-1.497,0-2.71,1.213-2.71,2.709v23.226c0,1.496,1.213,2.709,2.71,2.709h23.226c1.496,0,2.71-1.213,2.71-2.709v-23.226c0-1.497-1.213-2.709-2.71-2.709h0Z"/>
          </g>
          <g>
            <polyline class="cls-8" points="94.226 80.296 74.613 80.296 74.613 64.747"/>
            <g>
              <polyline class="cls-8" points="77.814 72.981 81.895 69.707 86.202 75.288 91.04 72.642"/>
              <circle class="cls-4" cx="77.524" cy="73.207" r="1.323"/>
              <circle class="cls-4" cx="81.895" cy="69.626" r="1.323"/>
              <circle class="cls-4" cx="86.202" cy="75.417" r="1.323"/>
              <circle class="cls-4" cx="91.314" cy="72.497" r="1.323"/>
            </g>
          </g>
        </g>
        <text class="cls-5" transform="translate(80.709 102.153)"><tspan class="cls-12"><tspan x="0" y="0">선</tspan></tspan><tspan class="cls-13"><tspan x="-12.682" y="10">라인그래프</tspan></tspan></text>
      </g>
      <g>
        <g>
          <g>
            <g>
              <rect class="cls-2" x="20.905" y="58.449" width="28.145" height="28.145" rx="2.46" ry="2.46"/>
              <path class="cls-1" d="m46.591,58.699c1.219,0,2.21.991,2.21,2.209v23.226c0,1.218-.991,2.209-2.21,2.209h-23.226c-1.219,0-2.21-.991-2.21-2.209v-23.226c0-1.218.991-2.209,2.21-2.209h23.226m0-.5h-23.226c-1.497,0-2.71,1.213-2.71,2.709v23.226c0,1.496,1.213,2.709,2.71,2.709h23.226c1.497,0,2.71-1.213,2.71-2.709v-23.226c0-1.497-1.213-2.709-2.71-2.709h0Z"/>
            </g>
            <polyline class="cls-8" points="44.784 80.296 25.171 80.296 25.171 64.747"/>
          </g>
          <rect class="cls-4" x="27.9" y="71.032" width="2.758" height="7.04"/>
          <rect class="cls-1" x="32.2" y="72.435" width="2.758" height="5.637"/>
          <rect class="cls-4" x="36.5" y="64.621" width="2.758" height="13.452"/>
          <rect class="cls-1" x="40.8" y="68.177" width="2.758" height="9.895"/>
        </g>
        <text class="cls-5" transform="translate(27.552 102.492)"><tspan class="cls-12"><tspan x="0" y="0">막대</tspan></tspan><tspan class="cls-13"><tspan x="-5.688" y="10">바그래프</tspan></tspan></text>
      </g>
    </g>
  </g>
  <g id="_레이어_2" data-name="레이어 2">
    <path class="cls-11" d="m65.254,52.949h39.25c1.809,0,3.278,1.469,3.278,3.278v61.572c0,1.809-1.469,3.278-3.278,3.278h-39.25c-1.809,0-3.279-1.469-3.279-3.279v-61.572c0-1.809,1.469-3.278,3.278-3.278Z"/>
  </g>
</svg>