<?xml version="1.0" encoding="UTF-8"?>
<svg id="_레이어_1" data-name="레이어 1" xmlns="http://www.w3.org/2000/svg" viewBox="0 0 543.371 243.504">
  <defs>
    <style>
      .cls-1, .cls-2, .cls-3, .cls-4, .cls-5, .cls-6, .cls-7, .cls-8, .cls-9, .cls-10, .cls-11, .cls-12, .cls-13, .cls-14, .cls-15 {
        stroke-width: 0px;
      }

      .cls-1, .cls-16, .cls-17, .cls-18, .cls-19 {
        fill: #fefefe;
      }

      .cls-2 {
        fill: #78d5d3;
      }

      .cls-3 {
        fill: #b819b3;
      }

      .cls-4 {
        fill: #c72042;
      }

      .cls-20 {
        fill: #fff;
      }

      .cls-20, .cls-16, .cls-17, .cls-21, .cls-22, .cls-18, .cls-19 {
        font-family: Pretendard-Bold-KSCpc-EUC-H, Pretendard;
        font-weight: 700;
      }

      .cls-20, .cls-17, .cls-21, .cls-22 {
        font-size: 22px;
      }

      .cls-20, .cls-22 {
        letter-spacing: -.025em;
      }

      .cls-5 {
        fill: #fefdfe;
      }

      .cls-6 {
        fill: #c62042;
      }

      .cls-23 {
        fill: #fe3a61;
        stroke: #c62142;
      }

      .cls-23, .cls-24, .cls-25 {
        stroke-width: 2px;
      }

      .cls-23, .cls-25 {
        stroke-linecap: round;
        stroke-linejoin: round;
      }

      .cls-16, .cls-18, .cls-19 {
        font-size: 26px;
      }

      .cls-7 {
        fill: #b719b2;
      }

      .cls-8 {
        fill: #008380;
      }

      .cls-21 {
        letter-spacing: -.01em;
      }

      .cls-24 {
        stroke: #008380;
        stroke-miterlimit: 10;
      }

      .cls-24, .cls-9 {
        fill: #00b6b1;
      }

      .cls-25 {
        fill: #dd47d8;
        stroke: #b819b3;
      }

      .cls-10 {
        fill: #f577f1;
      }

      .cls-11 {
        fill: #fedd81;
      }

      .cls-12 {
        fill: #f677f2;
      }

      .cls-18 {
        letter-spacing: -.025em;
      }

      .cls-13 {
        fill: #fe9b00;
      }

      .cls-19 {
        letter-spacing: -.01em;
      }

      .cls-14 {
        fill: #f2f2f2;
      }

      .cls-15 {
        fill: #fe5576;
      }
    </style>
  </defs>
  <g>
    <path class="cls-24" d="m331.197,33.954c-2.293-12.79-13.66-22.1-26.741-22.14-81.918-.248-160.177-.502-242.094-.713-2.727-.007-4.859-.438-7.168-2.399C48.028,2.617,39.547.119,30.1,1.274,20.381,2.463,12.681,7.161,7.067,15.04,2.193,21.879.212,29.582,1.283,38.024c1.177,9.281,5.524,16.675,12.825,22.461,2.04,1.617,6.09,3.722,7.073,4.225.147.075.282.172.401.286l11.318,10.9c.643.62,1.658.631,2.315.026l10.886-10.023c.313-.288.718-.448,1.143-.446,87.06.295,170.857.228,257.512.487.891.003,1.782-.029,2.673-.045.198-.088.388-.231.594-.257,15.315-1.89,25.945-16.233,23.175-31.684Z"/>
    <g>
      <path class="cls-1" d="m34.019,61.097c-14.926-.049-27.039-12.211-27-27.111.038-14.888,12.218-27,27.151-27h.124c14.901.067,26.976,12.266,26.917,27.194-.058,14.842-12.216,26.917-27.102,26.917h-.091Z"/>
      <path class="cls-14" d="m34.17,7.986h.121c14.35.064,25.978,11.813,25.922,26.189-.056,14.293-11.765,25.922-26.103,25.922h-.087c-14.375-.047-26.04-11.759-26.003-26.109.037-14.337,11.768-26.001,26.151-26.002m0-2c-15.525.001-28.111,12.502-28.151,27.997-.04,15.453,12.518,28.063,27.997,28.114.032,0,.062,0,.094,0,15.444,0,28.042-12.503,28.103-27.914.061-15.477-12.463-28.128-27.913-28.197-.044,0-.085,0-.129,0h0Z"/>
    </g>
    <g>
      <path class="cls-9" d="m40.927,21.335c-1.332,0-2.481.737-3.098,1.817h-5.182c-.467,0-.915.185-1.245.515l-9.808,9.787h-5.158c-.974,0-1.763.79-1.763,1.763s.79,1.763,1.763,1.763h5.887c.467,0,.915-.185,1.245-.515l9.808-9.787h4.452c.616,1.08,1.766,1.817,3.098,1.817,1.977,0,3.58-1.603,3.58-3.58s-1.603-3.58-3.58-3.58Z"/>
      <path class="cls-9" d="m28.321,44.805c1.332,0,2.481-.737,3.098-1.817h5.182c.467,0,.915-.185,1.245-.515l9.808-9.787h5.158c.974,0,1.763-.79,1.763-1.763s-.79-1.763-1.763-1.763h-5.887c-.467,0-.915.185-1.245.515l-9.808,9.787h-4.452c-.616-1.08-1.766-1.817-3.098-1.817-1.977,0-3.58,1.603-3.58,3.58s1.603,3.58,3.58,3.58Z"/>
    </g>
    <text class="cls-16" transform="translate(141.557 46.251) rotate(.173)"><tspan x="0" y="0">버튼을 눌렀을 때</tspan></text>
    <path class="cls-8" d="m128.061,22.907c0-2.542-2.06-4.603-4.601-4.605l-43.701-.054c-2.545-.002-4.608,2.06-4.608,4.605v30.991c0,2.547,2.075,4.61,4.622,4.605l43.676-.049c2.543,0,4.613-2.062,4.613-4.605v-30.888Z"/>
    <g>
      <text class="cls-17" transform="translate(85.531 46.188)"><tspan x="0" y="0">B</tspan></text>
      <path class="cls-5" d="m113.9,34.454c1.503,0,3.006-.003,4.509.001.951.003,1.744.288,2.197,1.211.47.958.064,1.702-.534,2.425-1.451,1.754-2.859,3.543-4.343,5.268-1.318,1.533-2.389,1.523-3.72-.029-1.519-1.771-2.972-3.598-4.452-5.402-.521-.635-.812-1.313-.452-2.145.374-.865,1.045-1.293,1.954-1.309,1.614-.027,3.228-.008,4.842-.008v-.013Z"/>
    </g>
  </g>
  <g>
    <g>
      <path class="cls-25" d="m445.629,65.394H46.71s0,0,0,0l-12.543,11.548s0,0,0,0l-12.023-10.98c-.238-.218-.622-.049-.622.274v54.741c0,.047.011.092.028.135h-.003l.004.004c.02.048.048.093.087.13h.056l11.328,10.345c.663.605,1.678.603,2.338-.005l10.91-10.045c.212-.195.49-.304.779-.304l398.583-.101c15.329,0,27.871-12.542,27.871-27.871h0c0-15.329-12.542-27.871-27.871-27.871Z"/>
      <g>
        <path class="cls-7" d="m466.578,93.309c.233,11.599-9.583,22.21-22.59,21.903-11.361-.268-21.522-9.45-21.508-22.104.014-12.581,10.427-22.278,22.629-21.994,11.969.279,21.786,10.209,21.47,22.194Z"/>
        <path class="cls-12" d="m444.846,83.146c1.421.066,3.283.498,4.796,1.905,2.464,2.29,2.614,5.317.342,7.812-.823.903-1.728,1.735-2.634,2.558-.847.769-1.497,1.641-1.723,2.78-.285,1.438-1.202,2.017-2.552,1.624-1.294-.377-1.297-1.572-1.154-2.621.299-2.203,1.86-3.593,3.427-4.952.334-.29.717-.537.999-.87,1.487-1.758,1.36-3.4-.321-4.537-1.47-.995-3.897-.403-4.808,1.208-.326.577-.531,1.221-.815,1.823-.524,1.11-1.42,1.65-2.58,1.204-1.144-.44-1.405-1.351-1.1-2.592.769-3.131,3.806-5.339,8.123-5.343Z"/>
        <path class="cls-10" d="m443.82,105.86c-1.271-.012-2.113-.925-2.059-2.258.054-1.311.741-2.044,2.063-2.095,1.32-.051,2.369,1,2.32,2.267-.048,1.226-1.02,2.098-2.324,2.086Z"/>
      </g>
    </g>
    <g>
      <path class="cls-3" d="m52.755,79.534v27.721c0,3.45,2.808,6.244,6.257,6.235,25.312-.061,37.945-.046,63.27-.044,3.444,0,6.242-2.791,6.242-6.235v-27.63c0-3.441-2.787-6.231-6.228-6.235l-63.299-.046c-3.447-.004-6.243,2.789-6.243,6.235Z"/>
      <text class="cls-17" transform="translate(63.135 101.234)"><tspan x="0" y="0">상태</tspan></text>
      <path class="cls-5" d="m114.946,89.5c1.503,0,3.006-.003,4.509.001.951.003,1.744.288,2.197,1.211.47.958.064,1.702-.534,2.425-1.451,1.754-2.859,3.543-4.343,5.268-1.318,1.533-2.389,1.523-3.72-.029-1.519-1.771-2.972-3.598-4.452-5.402-.521-.635-.812-1.313-.452-2.145.374-.865,1.045-1.293,1.954-1.309,1.614-.027,3.228-.008,4.842-.008v-.013Z"/>
    </g>
    <text class="cls-19" transform="translate(144.345 101.744)"><tspan x="0" y="0">을(를)</tspan></text>
    <text class="cls-19" transform="translate(277.453 101.744)"><tspan x="0" y="0">(으)로정하기</tspan></text>
    <g>
      <g>
        <circle class="cls-11" cx="241.505" cy="93.394" r="19.903" transform="translate(110.632 316.82) rotate(-80.782)"/>
        <path class="cls-13" d="m241.505,74.491c10.423,0,18.903,8.48,18.903,18.903s-8.48,18.903-18.903,18.903-18.903-8.48-18.903-18.903,8.48-18.903,18.903-18.903m0-2c-11.497,0-20.903,9.406-20.903,20.903h0c0,11.497,9.407,20.903,20.903,20.903s20.903-9.406,20.903-20.903h0c0-11.497-9.406-20.903-20.903-20.903h0Z"/>
      </g>
      <text class="cls-22" transform="translate(235.253 100.456)"><tspan x="0" y="0">0</tspan></text>
    </g>
  </g>
  <g>
    <path class="cls-24" d="m375.118,121.343l-328.408.101h0l-12.543,11.548h0l-12.023-10.98c-.238-.218-.622-.049-.622.274v54.841l.171.168,11.328,10.345c.663.605,1.678.603,2.338-.004l10.91-10.045c.212-.195.49-.304.779-.304l328.071-.202c15.329,0,27.871-12.542,27.871-27.871s-12.542-27.871-27.871-27.871Z"/>
    <path class="cls-8" d="m396.067,149.257c.233,11.599-9.583,22.21-22.59,21.903-11.361-.268-21.522-9.45-21.508-22.104.014-12.581,10.427-22.278,22.629-21.994,11.969.279,21.786,10.209,21.47,22.194Z"/>
    <text class="cls-19" transform="translate(50.565 157.79)"><tspan x="0" y="0">LED에</tspan></text>
    <text class="cls-19" transform="translate(199.051 157.79)"><tspan x="0" y="0">모양 나타내기</tspan></text>
    <g>
      <path class="cls-2" d="m379.372,139.297c-1.047,0-1.949.579-2.433,1.427h-4.07c-.367,0-.719.145-.978.405l-7.704,7.688h-4.052c-.765,0-1.385.62-1.385,1.385s.62,1.385,1.385,1.385h4.624c.367,0,.719-.145.978-.405l7.704-7.688h3.497c.484.848,1.387,1.427,2.433,1.427,1.553,0,2.812-1.259,2.812-2.812s-1.259-2.812-2.812-2.812Z"/>
      <path class="cls-2" d="m369.469,157.732c1.047,0,1.949-.579,2.433-1.427h4.07c.367,0,.719-.145.978-.405l7.704-7.688h4.052c.765,0,1.385-.62,1.385-1.385s-.62-1.385-1.385-1.385h-4.624c-.367,0-.719.145-.978.405l-7.704,7.688h-3.497c-.484-.848-1.387-1.427-2.433-1.427-1.553,0-2.812,1.259-2.812,2.812s1.259,2.812,2.812,2.812Z"/>
    </g>
    <g>
      <path class="cls-8" d="m182.383,129.595l-46.062-.054c-2.545-.002-4.608,2.06-4.608,4.605v30.991c0,2.547,2.076,4.61,4.622,4.605,32.802-.069,13.229-.051,46.037-.049,2.543,0,4.613-2.062,4.612-4.605v-30.888c0-2.542-2.06-4.603-4.601-4.605Z"/>
      <g>
        <text class="cls-17" transform="translate(142.092 157.481)"><tspan x="0" y="0">노</tspan></text>
        <path class="cls-5" d="m172.823,145.747c1.503,0,3.006-.003,4.509.001.951.003,1.744.288,2.197,1.211.47.958.064,1.702-.534,2.425-1.451,1.754-2.859,3.543-4.343,5.268-1.318,1.533-2.389,1.523-3.72-.029-1.519-1.771-2.972-3.598-4.452-5.402-.521-.635-.812-1.313-.452-2.145.374-.865,1.045-1.293,1.954-1.309,1.614-.027,3.228-.008,4.842-.008v-.013Z"/>
      </g>
    </g>
  </g>
  <g>
    <g>
      <path class="cls-23" d="m514.5,177.312H46.71l-12.543,11.141-12.024-10.593c-.238-.21-.622-.047-.622.265v52.811c0,.098.042.191.115.259l12.53,11.31,12.351-11.415h468.399c16.516,0,27.454-12.1,27.454-26.888h0c0-14.789-12.542-26.888-27.871-26.888Z"/>
      <g>
        <path class="cls-6" d="m490.214,204.706c.085-12.114,9.79-22.01,22.342-21.937,12.159.071,22.178,9.883,21.961,22.471-.203,11.764-9.754,21.773-22.498,21.598-12.042-.166-21.794-9.762-21.805-22.132Z"/>
        <path class="cls-15" d="m513.114,206.143c2.854.024,5.612,2.731,5.624,5.52.014,3.13-2.722,5.849-5.866,5.829-3.016-.018-5.566-2.746-5.533-5.919.031-3.007,2.636-5.457,5.775-5.43Z"/>
        <rect class="cls-15" x="515.502" y="196.528" width="9.448" height="9.448" transform="translate(294.677 -308.91) rotate(45)"/>
        <polygon class="cls-15" points="511.345 204.206 511.345 197.774 505.774 194.558 500.204 197.774 500.204 204.206 505.774 207.423 511.345 204.206"/>
      </g>
    </g>
    <text class="cls-18" transform="translate(151.266 212.766)"><tspan x="0" y="0">을(를)</tspan></text>
    <text class="cls-18" transform="translate(288.674 212.766)"><tspan x="0" y="0">초 동안</tspan></text>
    <g>
      <g>
        <path class="cls-11" d="m68.477,224.322c-10.975,0-19.903-8.929-19.903-19.903s8.929-19.903,19.903-19.903h48.387c10.975,0,19.903,8.929,19.903,19.903s-8.929,19.903-19.903,19.903h-48.387Z"/>
        <path class="cls-13" d="m116.864,185.515c10.423,0,18.903,8.48,18.903,18.903s-8.48,18.903-18.903,18.903h-48.387c-10.423,0-18.903-8.48-18.903-18.903s8.48-18.903,18.903-18.903h48.387m0-2h-48.387c-11.497,0-20.903,9.406-20.903,20.903h0c0,11.497,9.407,20.903,20.903,20.903h48.387c11.497,0,20.903-9.406,20.903-20.903h0c0-11.497-9.407-20.903-20.903-20.903h0Z"/>
      </g>
      <text class="cls-21" transform="translate(63.014 211.482)"><tspan x="0" y="0">비작동</tspan></text>
    </g>
    <g>
      <rect class="cls-4" x="379.601" y="185.32" width="95.645" height="38.968" rx="3.871" ry="3.871"/>
      <text class="cls-20" transform="translate(390.126 211.867)"><tspan x="0" y="0">말하기</tspan></text>
      <path class="cls-5" d="m458.746,200.127c1.503,0,3.006-.003,4.509.001.951.003,1.744.288,2.197,1.211.47.958.064,1.702-.534,2.425-1.451,1.754-2.859,3.543-4.343,5.268-1.318,1.533-2.389,1.523-3.72-.029-1.519-1.771-2.972-3.598-4.452-5.402-.521-.635-.812-1.313-.452-2.145.374-.865,1.045-1.293,1.954-1.309,1.614-.027,3.228-.008,4.842-.008v-.013Z"/>
    </g>
    <g>
      <g>
        <path class="cls-11" d="m250.5,224.321c-10.975,0-19.903-8.928-19.903-19.903s8.928-19.903,19.903-19.903,19.903,8.929,19.903,19.903-8.928,19.903-19.903,19.903Z"/>
        <path class="cls-13" d="m250.5,185.515c10.423,0,18.903,8.48,18.903,18.903s-8.48,18.903-18.903,18.903-18.903-8.48-18.903-18.903,8.48-18.903,18.903-18.903m0-2c-11.497,0-20.903,9.406-20.903,20.903h0c0,11.497,9.406,20.903,20.903,20.903s20.903-9.406,20.903-20.903h0c0-11.497-9.406-20.903-20.903-20.903h0Z"/>
      </g>
      <text class="cls-22" transform="translate(243.796 211.481)"><tspan x="0" y="0">1</tspan></text>
    </g>
  </g>
</svg>