<?xml version="1.0" encoding="UTF-8"?>
<svg id="_레이어_1" data-name="레이어 1" xmlns="http://www.w3.org/2000/svg" viewBox="0 0 66.207 42.105">
  <defs>
    <style>
      .cls-1 {
        fill: #dc47d7;
      }

      .cls-1, .cls-2 {
        stroke-width: 0px;
      }

      .cls-2 {
        fill: #b719b2;
      }

      .cls-3 {
        fill: #fff;
        font-family: Pretendard-Bold-KSCpc-EUC-H, Pretendard;
        font-size: 22px;
        font-weight: 700;
      }
    </style>
  </defs>
  <g>
    <path class="cls-2" d="m64.164,12.204C60.186,4.176,53.579,0,44.472,0l-23.634.017C7.474.117-2.47,12.759.541,25.744c2.245,9.683,10.748,16.352,20.919,16.354l22.63.007c1.562,0,3.108-.072,4.657-.328,13.443-2.215,21.457-17.384,15.417-29.573Z"/>
    <path class="cls-1" d="m31.705,2.008c42.548,0-29.54-.003,13.008.003,9.346.001,16.7,5.774,18.918,14.808,2.597,10.582-4.706,21.37-15.534,23.016-1.222.186-2.431.263-3.655.263-85.04,0,62.236.002-22.804,0-11.651,0-20.056-8.798-19.553-20.436C2.444,11.339,9.557,3.501,17.753,2.296c1.445-.212,2.876-.287,4.323-.287,42.437-.001-32.807,0,9.629,0Z"/>
  </g>
  <text class="cls-3" transform="translate(14.441 26.374)"><tspan x="0" y="0">대답</tspan></text>
</svg>