<?xml version="1.0" encoding="UTF-8"?>
<svg id="_레이어_1" data-name="레이어 1" xmlns="http://www.w3.org/2000/svg" viewBox="0 0 85 35">
  <defs>
    <style>
      .cls-1 {
        fill: #fee671;
      }

      .cls-1, .cls-2, .cls-3, .cls-4, .cls-5 {
        stroke-width: 0px;
      }

      .cls-2 {
        fill: #21be30;
      }

      .cls-3 {
        fill: #20be30;
      }

      .cls-4 {
        fill: #fdf6b5;
      }

      .cls-5 {
        fill: #1fbd2f;
      }
    </style>
  </defs>
  <g>
    <path class="cls-4" d="m80.883,0H4.117C1.843,0,0,1.744,0,3.895v23.369c0,2.151,1.843,3.895,4.117,3.895h76.766c2.274,0,4.117-1.744,4.117-3.895V3.895c0-2.151-1.843-3.895-4.117-3.895Z"/>
    <path class="cls-1" d="m80.883,31.159H4.117c-2.274,0-4.117-1.744-4.117-3.895v3.841c0,2.151,1.843,3.895,4.117,3.895h76.766c2.274,0,4.117-1.744,4.117-3.895v-3.841c0,2.151-1.843,3.895-4.117,3.895Z"/>
  </g>
  <g>
    <path class="cls-5" d="m56.388,15.468c0-3.013,0-6.027,0-9.04,0-.743.105-.845.864-.848.507-.002,1.014-.002,1.522,0,.616.003.729.111.73.72.003,2.053.011,4.107-.007,6.16-.003.369.097.48.465.463.639-.03,1.281-.014,1.922-.006.423.006.544.13.551.556.008.467.009.933,0,1.4-.008.474-.156.627-.626.635-.627.01-1.255.021-1.882-.004-.331-.013-.431.084-.429.422.013,2.893.008,5.787.007,8.68,0,.764-.022.786-.787.789-.587.003-1.175-.007-1.762.001-.368.005-.541-.177-.559-.528-.008-.16-.009-.32-.009-.48,0-2.973,0-5.947,0-8.92Z"/>
    <path class="cls-5" d="m37.469,15.634c0-3.013,0-6.027,0-9.04,0-.743.105-.845.864-.848.507-.002,1.014-.002,1.522,0,.616.003.729.111.73.72.003,2.053.011,4.107-.007,6.16-.003.369.097.48.465.463.639-.03,1.281-.014,1.922-.006.423.006.544.13.551.556.008.467.009.933,0,1.4-.008.474-.156.627-.626.635-.627.01-1.255.021-1.882-.004-.331-.013-.431.084-.429.422.013,2.893.008,5.787.007,8.68,0,.764-.022.786-.787.789-.587.003-1.175-.007-1.762.001-.368.005-.541-.177-.559-.528-.008-.16-.009-.32-.009-.48,0-2.973,0-5.947,0-8.92Z"/>
    <path class="cls-5" d="m30.489,7.329c1.214,0,2.428-.004,3.643,0,1.271.004,1.437.762,1.435,1.695,0,.41-.064.821-.12,1.228-.093.676-.292,1.325-.486,1.979-.124.416-.304.808-.437,1.219-.148.456-.382.895-.643,1.3-.544.843-1.074,1.696-1.764,2.442-.97,1.048-1.995,2.024-3.161,2.857-.594.424-1.245.749-1.84,1.168-.329.231-.703.108-.935-.241-.292-.439-.58-.881-.857-1.33-.163-.264-.05-.477.164-.663.433-.374.939-.639,1.415-.945,1.345-.866,2.511-1.917,3.486-3.184.568-.738,1.041-1.536,1.41-2.384.295-.677.45-1.409.598-2.134.073-.358-.099-.528-.501-.529-1.574-.005-3.149.017-4.723-.009-1.34-.022-1.067-.131-1.093-1.076-.008-.306.004-.613,0-.919-.004-.332.145-.478.487-.476,1.308.009,2.615.004,3.923.003Z"/>
    <path class="cls-5" d="m19.266,12.596c-.077-.278.172-.378.353-.514.642-.483,1.201-1.012,1.45-1.831.235-.776-.452-1.576-1.215-1.57-1.655.013-3.311.004-4.966.004-1.682,0-3.364.008-5.046-.006-.347-.003-.485.106-.465.458.022.399.003.8.005,1.199.002.513.062.575.578.575,1.856.002,3.711,0,5.567.001.16,0,.32.004.48.009.132.005.237.055.262.198.023.135-.062.385-.331.489-.482.185-.738.263-1.219.436-.659.236-1.314.481-1.978.705l-4.235,1.247c-.295.087-.462.399-.37.693l.352,1.121c.09.287.394.449.682.363l6.351-1.892,6.589,1.557c.23.054.462-.079.531-.305l.446-1.463c.074-.243-.069-.499-.315-.563l-3.507-.912Z"/>
    <path class="cls-2" d="m15.592,7.891c-.868,0-1.735-.006-2.603.003-.416.004-.652-.196-.723-.591-.088-.488-.1-.977.019-1.464.057-.235.19-.368.447-.374.239-.006.478-.049.716-.05,1.508-.005,3.016-.003,4.525-.002.146,0,.295-.001.439.019.537.075.6.146.606.684.004.36.006.72-.004,1.079-.013.443-.25.685-.699.689-.907.01-1.815.003-2.723.003,0,0,0,.002,0,.003Z"/>
    <path class="cls-5" d="m54.096,16.228c-.742-4.496-8.457-4.65-9.092-.012-1.234,6.611,10.216,6.601,9.092.012Zm-4.568,2.52c-2.324.063-2.265-3.359-.016-3.409,2.226-.067,2.418,3.563.016,3.409Z"/>
    <rect class="cls-3" x="46.019" y="6.6" width="6.986" height="2.474" rx="1.237" ry="1.237"/>
    <rect class="cls-3" x="43.618" y="9.912" width="11.788" height="2.474" rx="1.237" ry="1.237"/>
    <path class="cls-5" d="m67.699,7.209c1.068,0,2.135,0,3.203,0,.2,0,.4.002.6.011,1.099.048,1.619.623,1.554,1.727-.094,1.584-.453,3.102-1.106,4.553-1.58,3.506-4.2,6.014-7.522,7.851-.451.249-.668.19-.954-.216-.291-.414-.573-.835-.843-1.262-.293-.463-.233-.747.244-1.03,1.288-.765,2.504-1.624,3.581-2.668,1.152-1.118,2.049-2.411,2.645-3.907.252-.634.42-1.289.555-1.956.085-.422.063-.466-.364-.467-1.748-.002-3.497,0-5.245-.001-.651,0-.727-.077-.732-.741-.003-.44-.006-.88.002-1.32.007-.439.136-.568.58-.57,1.268-.005,2.536-.002,3.804-.002h0Z"/>
    <path class="cls-5" d="m78.404,15.636c0,3.052,0,6.103,0,9.155,0,.65-.062.714-.706.72-.587.005-1.174.005-1.761,0-.532-.004-.628-.093-.628-.636-.003-6.183-.002-12.366,0-18.55,0-.485.136-.617.622-.625.587-.009,1.174-.007,1.761-.003.576.004.709.135.71.703.002,3.078,0,6.157.001,9.235Z"/>
    <path class="cls-3" d="m24.211,16.846H7.009c-.229,0-.414.185-.414.414v1.801c0,.229.185.414.414.414h7.239v5.061c0,.229.185.414.414.414h1.896c.229,0,.414-.185.414-.414v-5.061h7.239c.229,0,.414-.185.414-.414v-1.801c0-.229-.185-.414-.414-.414Z"/>
  </g>
</svg>