<?xml version="1.0" encoding="UTF-8"?>
<svg id="_레이어_2" data-name="레이어 2" xmlns="http://www.w3.org/2000/svg" viewBox="0 0 336.7 231.559">
  <defs>
    <style>
      .cls-1 {
        fill: #1874cd;
      }

      .cls-1, .cls-2, .cls-3 {
        stroke-width: 0px;
      }

      .cls-4 {
        fill: #d400d4;
        stroke: #9f009f;
      }

      .cls-4, .cls-5 {
        stroke-miterlimit: 10;
        stroke-width: 1.5px;
      }

      .cls-2, .cls-6, .cls-7 {
        fill: #fff;
      }

      .cls-6 {
        font-size: 26.581px;
      }

      .cls-6, .cls-7 {
        font-family: D2Coding, D2Coding;
      }

      .cls-7 {
        font-size: 25px;
      }

      .cls-5 {
        fill: #1e90ff;
        stroke: #176cbf;
      }

      .cls-3 {
        fill: #1e85e9;
      }
    </style>
  </defs>
  <g>
    <path class="cls-4" d="m83.408,192.996h-21.05c-1.723,0-3.364-.74-4.505-2.031l-8.586-9.72c-1.141-1.292-2.781-2.031-4.505-2.031h-13.331c-3.32,0-6.011-2.691-6.011-6.011v-90.778c0-3.32,2.691-6.011,6.011-6.011h13.331c1.723,0,3.364.74,4.505,2.031l8.586,9.72c1.141,1.292,2.781,2.031,4.505,2.031h21.05c1.691,0,3.304-.712,4.443-1.963l8.981-9.857c1.139-1.25,2.752-1.963,4.443-1.963h136.629c3.32,0,6.011-2.691,6.011-6.011V6.011C243.914,2.691,241.223,0,237.903,0H6.011C2.691,0,0,2.691,0,6.011v218.8c0,3.32,2.691,6.011,6.011,6.011h231.893c3.32,0,6.011-2.691,6.011-6.011v-39.586c0-3.32-2.691-6.011-6.011-6.011H101.275c-1.691,0-3.304.712-4.443,1.963l-8.981,9.857c-1.139,1.25-2.752,1.963-4.443,1.963Z"/>
    <g>
      <rect class="cls-4" x="79.261" y="13.093" width="101.69" height="50.382" rx="5.743" ry="5.743"/>
      <path class="cls-2" d="m159.502,42.79l-6.78-6.353c-.801-.75-.27-2.093.827-2.093h13.56c1.097,0,1.628,1.343.827,2.093l-6.78,6.353c-.465.436-1.189.436-1.655,0Z"/>
      <text class="cls-7" transform="translate(13.693 46.401)"><tspan x="0" y="0">로고</tspan></text>
      <text class="cls-7" transform="translate(88.627 46.401)"><tspan x="0" y="0">누를</tspan></text>
    </g>
    <text class="cls-7" transform="translate(195.869 46.401)"><tspan x="0" y="0">때</tspan></text>
  </g>
  <g>
    <path class="cls-5" d="m101.666,77.003c-1.691,0-3.304.712-4.443,1.962l-8.981,9.857c-1.139,1.25-2.752,1.963-4.443,1.963h-21.051c-1.723,0-3.364-.74-4.505-2.031l-8.586-9.72c-1.141-1.292-2.781-2.031-4.505-2.031h-13.331c-3.32,0-6.011,2.691-6.011,6.011v89.914c0,3.32,2.691,6.011,6.011,6.011h13.331c1.723,0,3.364.74,4.505,2.031l8.586,9.72c1.141,1.292,2.781,2.031,4.505,2.031h21.051c1.691,0,3.304-.712,4.443-1.963l8.981-9.857c1.139-1.25,2.752-1.962,4.443-1.962h228.573c3.154,0,5.711-2.557,5.711-5.711v-90.514c0-3.154-2.557-5.711-5.711-5.711H101.666Z"/>
    <text class="cls-6" transform="translate(40.932 134.986)"><tspan x="0" y="0">아이콘 출력</tspan></text>
    <g>
      <rect class="cls-5" x="205.921" y="89.859" width="116.71" height="75.29" rx="6.387" ry="6.387"/>
      <g>
        <rect class="cls-2" x="220.389" y="99.755" width="8.661" height="8.661" rx="1.016" ry="1.016"/>
        <rect class="cls-1" x="232.123" y="99.755" width="8.661" height="8.661" rx="1.016" ry="1.016"/>
        <rect class="cls-1" x="243.857" y="99.755" width="8.661" height="8.661" rx="1.016" ry="1.016"/>
        <rect class="cls-1" x="255.591" y="99.755" width="8.661" height="8.661" rx="1.016" ry="1.016"/>
        <rect class="cls-2" x="267.325" y="99.755" width="8.661" height="8.661" rx="1.016" ry="1.016"/>
        <rect class="cls-1" x="220.389" y="111.464" width="8.661" height="8.661" rx="1.016" ry="1.016"/>
        <rect class="cls-2" x="232.123" y="111.464" width="8.661" height="8.661" rx="1.016" ry="1.016"/>
        <rect class="cls-1" x="243.857" y="111.464" width="8.661" height="8.661" rx="1.016" ry="1.016"/>
        <rect class="cls-2" x="255.591" y="111.464" width="8.661" height="8.661" rx="1.016" ry="1.016"/>
        <rect class="cls-1" x="267.325" y="111.464" width="8.661" height="8.661" rx="1.016" ry="1.016"/>
        <rect class="cls-1" x="220.389" y="123.174" width="8.661" height="8.661" rx="1.016" ry="1.016"/>
        <rect class="cls-1" x="232.123" y="123.174" width="8.661" height="8.661" rx="1.016" ry="1.016"/>
        <rect class="cls-1" x="243.857" y="123.174" width="8.661" height="8.661" rx="1.016" ry="1.016"/>
        <rect class="cls-1" x="255.591" y="123.174" width="8.661" height="8.661" rx="1.016" ry="1.016"/>
        <rect class="cls-1" x="267.325" y="123.174" width="8.661" height="8.661" rx="1.016" ry="1.016"/>
        <rect class="cls-2" x="220.389" y="134.884" width="8.661" height="8.661" rx="1.016" ry="1.016"/>
        <rect class="cls-2" x="232.123" y="134.884" width="8.661" height="8.661" rx="1.016" ry="1.016"/>
        <rect class="cls-2" x="243.857" y="134.884" width="8.661" height="8.661" rx="1.016" ry="1.016"/>
        <rect class="cls-2" x="255.591" y="134.884" width="8.661" height="8.661" rx="1.016" ry="1.016"/>
        <rect class="cls-2" x="267.325" y="134.884" width="8.661" height="8.661" rx="1.016" ry="1.016"/>
        <rect class="cls-2" x="220.389" y="146.593" width="8.661" height="8.661" rx="1.016" ry="1.016"/>
        <rect class="cls-1" x="232.123" y="146.593" width="8.661" height="8.661" rx="1.016" ry="1.016"/>
        <rect class="cls-2" x="243.857" y="146.593" width="8.661" height="8.661" rx="1.016" ry="1.016"/>
        <rect class="cls-1" x="255.591" y="146.593" width="8.661" height="8.661" rx="1.016" ry="1.016"/>
        <rect class="cls-2" x="267.325" y="146.593" width="8.661" height="8.661" rx="1.016" ry="1.016"/>
      </g>
      <g>
        <path class="cls-2" d="m299.212,132.391c-.436,0-.851-.164-1.169-.462l-6.78-6.354c-.516-.483-.681-1.219-.421-1.876.26-.657.884-1.082,1.59-1.082h13.56c.707,0,1.331.424,1.59,1.082.26.657.094,1.393-.421,1.876l-6.78,6.354c-.318.298-.733.462-1.169.462Z"/>
        <path class="cls-3" d="m305.992,123.118c1.097,0,1.628,1.343.828,2.093l-6.78,6.353c-.233.218-.53.327-.828.327s-.595-.109-.827-.327l-6.78-6.353c-.801-.75-.27-2.093.827-2.093h13.56m0-1h-13.56c-.913,0-1.72.549-2.055,1.398-.336.849-.122,1.801.544,2.425l6.78,6.353c.411.385.948.597,1.511.597s1.1-.212,1.511-.597l6.78-6.353c.666-.624.88-1.576.544-2.425-.336-.849-1.142-1.398-2.055-1.398h0Z"/>
      </g>
    </g>
  </g>
</svg>