<?xml version="1.0" encoding="UTF-8"?>
<svg id="_레이어_1" data-name="레이어 1" xmlns="http://www.w3.org/2000/svg" viewBox="0 0 633.096 192.379">
  <defs>
    <style>
      .cls-1, .cls-2, .cls-3, .cls-4, .cls-5, .cls-6, .cls-7, .cls-8, .cls-9, .cls-10 {
        stroke-width: 0px;
      }

      .cls-1, .cls-11 {
        fill: #fefefe;
      }

      .cls-2 {
        fill: #dc47d7;
      }

      .cls-12 {
        letter-spacing: -.032em;
      }

      .cls-11 {
        font-size: 26px;
      }

      .cls-11, .cls-13 {
        font-family: Pretendard-Bold-KSCpc-EUC-H, Pretendard;
        font-weight: 700;
      }

      .cls-3 {
        fill: #b719b2;
      }

      .cls-4 {
        fill: #fafdfa;
      }

      .cls-5 {
        fill: #f577f1;
      }

      .cls-6 {
        fill: #fedd81;
      }

      .cls-7 {
        fill: #f677f2;
      }

      .cls-13 {
        font-size: 22px;
      }

      .cls-8 {
        fill: #fe9b00;
      }

      .cls-9 {
        fill: #00b300;
      }

      .cls-10 {
        fill: #009300;
      }
    </style>
  </defs>
  <path class="cls-3" d="m320.275,66.162c.78.018,1.56.053,2.34.053,114.149.002,166.363.003,280.512.002,10.215,0,18.479,3.916,24.567,12.195,9.069,12.334,6.431,30.441-5.75,39.745-5.459,4.17-11.573,6.302-18.462,6.203-2.43-.035-55.422-.006-57.898.122,3.099,1.558,6.016,3.325,8.469,5.762,8.409,8.353,11.319,18.368,7.839,29.644-3.56,11.539-11.776,18.257-23.749,20.319-1.778.306-3.552.275-5.332.275-198.52.005-284.545.007-483.065-.031-1.586,0-2.685.443-3.77,1.573-3.125,3.255-6.39,6.376-9.542,9.606-.951.975-1.627,1.015-2.601.021-3.626-3.702-7.295-7.362-11.003-10.983-.751-.733-.76-1.528-.76-2.424.005-36.082.005-72.165.002-108.247,0-.723-.035-1.445-.053-2.168-.452-1.01-.162-1.652.94-1.895,1.174.042,1.908.84,2.658,1.579,2.658,2.621,5.28,5.28,7.936,7.904,1.449,1.431,1.679,1.436,3.115.024,2.661-2.618,5.31-5.251,7.924-7.916,1.252-1.276,2.678-1.948,4.474-1.839.611.037,1.226.003,1.84.003,86.825-.004,173.649.007,260.474-.006.279,0,.558-.004.836.027,1.89.088,3.779-.012,5.669-.019.817-.003,1.685-.14,2.391.47Z"/>
  <path class="cls-10" d="m320.275,66.162h-8.084c.277-.924,1.135-.768,1.786-.902,8.831-1.819,15.283-6.702,19.271-14.806,5.736-11.655,1.461-26.601-9.566-33.547-4.664-2.938-9.735-4.326-15.226-4.326-82.032.003-164.064-.006-246.096.04-2.483.001-4.347-.646-6.295-2.304C44.73.67,27.836-.454,15.005,9.53,2.899,18.95-.948,35.497,5.703,49.269c3.245,6.719,8.235,11.842,14.963,15.216.795.399,1.871.554,2.075,1.708-.654.364-.69,1-.722,1.637C8.395,62.346-.426,48.827.016,34.107.456,19.423,9.998,6.294,24.086,1.864c12.756-4.011,24.419-1.551,34.517,7.387.874.774,1.729.837,2.733.837,82.41-.004,164.821-.002,247.231-.006,9.768,0,17.734,3.752,23.751,11.443,11.182,14.295,6.078,35.84-10.304,43.699-.593.284-1.159.624-1.738.937Z"/>
  <path class="cls-2" d="m24.35,126.056c3.073,3.086,6.016,6.048,8.966,9.003q1.803,1.806,3.56.057c3.275-3.266,6.564-6.518,9.807-9.814.681-.692,1.38-1.08,2.351-.953.274.036.557.005.836.005,198.628,0,284.76.007,483.388-.025,7.812-.001,14.548,2.574,20.042,7.968,4.742,4.655,7.361,10.428,7.807,17.182.444,6.713-1.234,12.749-5.288,18.067-4.612,6.049-10.643,9.725-18.319,10.653-2.342.283-4.663.272-6.993.272-198.014.012-283.532.013-481.546-.023-1.643,0-2.802.46-3.927,1.638-2.924,3.061-5.988,5.99-8.952,9.013-.698.712-1.148.786-1.885.032-3.078-3.146-6.209-6.241-9.335-9.341-.499-.495-.793-1.001-.792-1.745.019-17.15.016-34.3.024-51.449,0-.091.083-.182.257-.54Z"/>
  <path class="cls-2" d="m24.186,69.788c3.334,3.337,6.446,6.368,9.451,9.501,1.139,1.187,1.908,1.101,3.01-.037,3.296-3.401,6.699-6.698,10.023-10.072.678-.689,1.372-1.098,2.347-.962.219.03.446.004.669.004,205.111,0,348.286,0,553.396-.002,11.036,0,19.462,4.764,24.807,14.309,3.995,7.135,4.406,14.872,1.372,22.515-3.394,8.55-9.689,14.065-18.623,16.441-2.468.656-5.01.879-7.583.878-205.333-.015-348.73-.012-554.063-.044-1.62,0-2.807.395-3.943,1.596-2.833,2.994-5.838,5.825-8.708,8.785-.861.888-1.393,1.096-2.367.077-2.925-3.061-5.96-6.018-8.972-8.995-.58-.574-.937-1.143-.936-2.021.025-16.984.018-33.968.021-50.952,0-.207.039-.414.1-1.021Z"/>
  <path class="cls-9" d="m22.742,66.193c-2.483-1.566-5.208-2.703-7.546-4.545-7.319-5.764-11.687-13.145-12.892-22.422-1.096-8.439.862-16.148,5.715-23.002C13.609,8.328,21.294,3.608,31.01,2.389c9.443-1.184,17.932,1.289,25.116,7.353,2.315,1.954,4.448,2.378,7.175,2.377,81.918-.036,163.836-.03,245.754-.029,13.081,0,24.476,9.276,26.808,22.059,2.817,15.443-7.77,29.818-23.079,31.754-.205.026-.396.17-.593.258-.891.019-1.782.053-2.673.053-86.874.003-173.748.006-260.622-.029-1.521,0-2.594.413-3.644,1.509-2.967,3.097-6.074,6.061-9.065,9.136-.789.811-1.251.907-2.094.038-3.141-3.24-6.365-6.399-9.562-9.586-.507-.505-.955-1.117-1.79-1.09Z"/>
  <path class="cls-3" d="m510.192,151.363c-.383-11.535,9.577-22.213,22.329-22.002,11.668.194,21.707,9.497,21.753,22.029.045,12.335-10.056,22.37-22.7,22.082-11.933-.272-21.765-10.381-21.382-22.109Z"/>
  <path class="cls-3" d="m624.014,95.428c.233,11.599-9.583,22.21-22.59,21.903-11.361-.268-21.522-9.45-21.508-22.104.014-12.581,10.427-22.278,22.629-21.994,11.969.279,21.786,10.209,21.47,22.194Z"/>
  <path class="cls-8" d="m199.397,116.335c-42.603,0-85.205.005-127.808-.004-10.172-.002-18.674-6.672-20.919-16.354-3.011-12.985,6.933-25.627,20.298-25.728,8.475-.064,16.952-.013,25.428-.013,76.841,0,92.588.002,169.429-.003,9.107,0,15.714,4.176,19.692,12.204,6.04,12.189-1.973,27.359-15.417,29.573-1.55.255-3.096.328-4.657.328-42.38-.004-23.665-.003-66.045-.003Z"/>
  <path class="cls-1" d="m35.109,63.2c-15.48-.004-28.075-12.576-28.082-28.029-.007-15.539,12.61-28.105,28.196-28.082,15.45.022,28.012,12.635,27.998,28.113-.014,15.443-12.624,28.003-28.112,27.999Z"/>
  <path class="cls-7" d="m531.928,141.399c3.973.048,6.605,2.132,7.169,5.536.236,1.421-.185,2.643-1.127,3.671-.864.943-1.773,1.854-2.731,2.702-1.025.909-1.869,1.892-2.145,3.28-.232,1.167-.936,1.732-2.155,1.54-1.232-.194-1.334-1.074-1.385-2.104-.103-2.069,1.042-3.441,2.431-4.709.657-.599,1.396-1.122,1.982-1.782,1.412-1.588,1.315-3.285-.17-4.344-1.397-.997-3.888-.624-4.788.786-.444.696-.76,1.483-1.061,2.257-.461,1.186-1.382,1.378-2.45,1.155-1.088-.227-1.328-1.054-1.254-2.043.193-2.571,1.812-4.116,3.935-5.163,1.186-.585,2.528-.865,3.748-.783Z"/>
  <path class="cls-5" d="m531.445,164.111c-1.32,0-2.19-.878-2.179-2.197.011-1.354.827-2.157,2.191-2.156,1.361,0,2.177.81,2.183,2.167.006,1.3-.885,2.187-2.195,2.186Z"/>
  <path class="cls-7" d="m602.282,85.265c1.421.066,3.283.498,4.796,1.905,2.464,2.29,2.614,5.317.342,7.812-.823.903-1.728,1.735-2.634,2.558-.847.769-1.497,1.641-1.723,2.78-.285,1.438-1.202,2.017-2.552,1.624-1.294-.377-1.297-1.572-1.154-2.621.299-2.203,1.86-3.593,3.427-4.952.334-.29.717-.537.999-.87,1.487-1.758,1.36-3.4-.321-4.537-1.47-.995-3.897-.403-4.808,1.208-.326.577-.531,1.221-.815,1.823-.524,1.11-1.42,1.65-2.58,1.204-1.144-.44-1.405-1.351-1.1-2.592.769-3.131,3.806-5.339,8.123-5.343Z"/>
  <path class="cls-5" d="m601.256,107.979c-1.271-.012-2.113-.925-2.059-2.258.054-1.311.741-2.044,2.063-2.095,1.32-.051,2.369,1,2.32,2.267-.048,1.226-1.02,2.098-2.324,2.086Z"/>
  <path class="cls-6" d="m199.514,76.241c42.548,0,24.002-.003,66.55.003,9.346.001,16.7,5.774,18.918,14.808,2.597,10.582-4.706,21.37-15.534,23.016-1.222.186-2.431.263-3.655.263-85.04,0-108.986.002-194.027,0-11.651,0-20.056-8.798-19.553-20.436.36-8.321,7.473-16.158,15.669-17.363,1.445-.212,2.876-.287,4.323-.287,42.437-.001,84.873,0,127.31,0Z"/>
  <path class="cls-9" d="m23.86,33.716c.099-1.896-.183-4.236.152-6.562.711-4.937,4.657-8.567,9.628-8.799,1.609-.075,3.236-.154,4.823.234,4.693,1.146,7.831,5.11,7.914,10.093.06,3.614.045,7.23.006,10.844-.07,6.422-4.581,10.616-11.359,10.611-6.621-.005-11.083-4.255-11.16-10.647-.021-1.779-.003-3.559-.003-5.774Z"/>
  <path class="cls-4" d="m33.191,27.569c.035-.717.008-1.442.123-2.144.154-.937.826-1.465,1.736-1.493.99-.03,1.793.497,1.874,1.509.118,1.478.107,2.978-.004,4.457-.07.929-.81,1.468-1.722,1.499-.995.033-1.71-.518-1.884-1.517-.131-.754-.088-1.539-.124-2.311Z"/>
  <text class="cls-11" transform="translate(74.29 47.254)"><tspan x="0" y="0">오브젝트를 클릭했을 때</tspan></text>
  <text class="cls-13" transform="translate(65 102.48)"><tspan x="0" y="0">반티 이름을 입력하세요</tspan><tspan class="cls-12" x="200.277" y="0">.</tspan></text>
  <text class="cls-11" transform="translate(300.613 104.028)"><tspan x="0" y="0">을(를) 묻고 대답 기다리기</tspan></text>
  <text class="cls-11" transform="translate(134.16 160.029)"><tspan x="0" y="0">항목을</tspan></text>
  <rect class="cls-1" x="212.225" y="129.835" width="285.548" height="42.839" rx="10" ry="10"/>
  <rect class="cls-1" x="49" y="129.835" width="74.065" height="42.839" rx="10" ry="10"/>
</svg>