<?xml version="1.0" encoding="UTF-8"?>
<svg id="_레이어_2" data-name="레이어 2" xmlns="http://www.w3.org/2000/svg" viewBox="0 0 507.525 90.4">
  <defs>
    <style>
      .cls-1 {
        fill: #e63022;
      }

      .cls-1, .cls-2 {
        stroke: #ad241a;
        stroke-miterlimit: 10;
        stroke-width: 1.5px;
      }

      .cls-3, .cls-4 {
        fill: #fff;
      }

      .cls-3, .cls-5, .cls-6 {
        stroke-width: 0px;
      }

      .cls-4 {
        font-family: D2Coding, D2Coding;
        font-size: 26.581px;
      }

      .cls-5 {
        fill: #b4281d;
      }

      .cls-2 {
        fill: #c4291d;
      }

      .cls-6 {
        fill: #d22e22;
      }
    </style>
  </defs>
  <path class="cls-1" d="m76.604.75c-1.691,0-3.304.712-4.443,1.962l-8.981,9.857c-1.139,1.25-2.752,1.963-4.443,1.963h-21.051c-1.723,0-3.364-.74-4.505-2.031L24.596,2.781c-1.141-1.292-2.781-2.031-4.505-2.031H6.761C3.441.75.75,3.441.75,6.761v63.097c0,3.32,2.691,6.011,6.011,6.011h13.331c1.723,0,3.364.74,4.505,2.031l8.586,9.72c1.141,1.292,2.781,2.031,4.505,2.031h21.051c1.691,0,3.304-.712,4.443-1.963l8.981-9.857c1.139-1.25,2.752-1.962,4.443-1.962h424.46c3.154,0,5.711-2.557,5.711-5.711V6.461c0-3.154-2.557-5.711-5.711-5.711H76.604Z"/>
  <text class="cls-4" transform="translate(13.289 45.92)"><tspan x="0" y="0">재생</tspan></text>
  <g>
    <rect class="cls-2" x="78.743" y="12.374" width="173.761" height="50.839" rx="25.419" ry="25.419"/>
    <text class="cls-4" transform="translate(97.676 45.92)"><tspan x="0" y="0">키득키득</tspan></text>
    <g>
      <path class="cls-3" d="m225.343,43.884c-.436,0-.852-.164-1.169-.462l-6.78-6.354c-.516-.483-.681-1.219-.421-1.876.26-.657.884-1.082,1.59-1.082h13.56c.707,0,1.331.424,1.59,1.082.26.657.094,1.393-.421,1.876l-6.78,6.354c-.318.298-.733.462-1.169.462Z"/>
      <path class="cls-5" d="m232.123,34.61c1.097,0,1.628,1.343.827,2.093l-6.78,6.353c-.233.218-.53.327-.827.327s-.595-.109-.827-.327l-6.78-6.353c-.801-.75-.27-2.093.827-2.093h13.56m0-1h-13.56c-.913,0-1.72.549-2.055,1.398-.336.849-.122,1.801.544,2.425l6.78,6.353c.411.385.948.597,1.511.597s1.1-.212,1.511-.597l6.78-6.353c.666-.624.88-1.576.544-2.425-.336-.849-1.142-1.398-2.055-1.398h0Z"/>
    </g>
  </g>
  <g>
    <rect class="cls-1" x="264.194" y="12.374" width="229.29" height="50.839" rx="6.097" ry="6.097"/>
    <text class="cls-4" transform="translate(276.71 45.92)"><tspan x="0" y="0">완료될 때까지</tspan></text>
    <g>
      <path class="cls-3" d="m473.407,43.884c-.436,0-.851-.164-1.169-.462l-6.78-6.354c-.516-.482-.681-1.219-.421-1.876.26-.657.884-1.082,1.591-1.082h13.56c.707,0,1.331.424,1.59,1.082.26.657.094,1.393-.421,1.876l-6.78,6.354c-.318.298-.733.462-1.169.462Z"/>
      <path class="cls-6" d="m480.187,34.61c1.097,0,1.628,1.343.827,2.093l-6.78,6.353c-.233.218-.53.327-.827.327s-.595-.109-.827-.327l-6.78-6.353c-.801-.75-.27-2.093.827-2.093h13.56m0-1h-13.56c-.913,0-1.72.549-2.055,1.398-.336.849-.122,1.801.544,2.425l6.78,6.353c.411.385.948.597,1.511.597s1.1-.212,1.511-.597l6.78-6.353c.666-.624.88-1.576.544-2.425-.336-.849-1.142-1.398-2.055-1.398h0Z"/>
    </g>
  </g>
</svg>