<?xml version="1.0" encoding="UTF-8"?>
<svg id="_레이어_1" data-name="레이어 1" xmlns="http://www.w3.org/2000/svg" viewBox="0 0 525.119 187.534">
  <defs>
    <style>
      .cls-1, .cls-2, .cls-3, .cls-4, .cls-5, .cls-6, .cls-7, .cls-8, .cls-9, .cls-10, .cls-11, .cls-12, .cls-13, .cls-14 {
        stroke-width: 0px;
      }

      .cls-1, .cls-15, .cls-16, .cls-17, .cls-18 {
        fill: #fefefe;
      }

      .cls-2 {
        fill: #b819b3;
      }

      .cls-3 {
        fill: #c72042;
      }

      .cls-19 {
        fill: #fff;
      }

      .cls-19, .cls-15, .cls-16, .cls-20, .cls-21, .cls-17, .cls-18 {
        font-family: Pretendard-Bold-KSCpc-EUC-H, Pretendard;
        font-weight: 700;
      }

      .cls-19, .cls-16, .cls-20, .cls-21 {
        font-size: 22px;
      }

      .cls-19, .cls-21 {
        letter-spacing: -.025em;
      }

      .cls-4 {
        fill: #fefdfe;
      }

      .cls-5 {
        fill: #c62042;
      }

      .cls-22 {
        fill: #fe3a61;
        stroke: #c62142;
      }

      .cls-22, .cls-23, .cls-24 {
        stroke-width: 2px;
      }

      .cls-22, .cls-24 {
        stroke-linecap: round;
        stroke-linejoin: round;
      }

      .cls-15, .cls-17, .cls-18 {
        font-size: 26px;
      }

      .cls-6 {
        fill: #b719b2;
      }

      .cls-7 {
        fill: #008380;
      }

      .cls-20 {
        letter-spacing: -.01em;
      }

      .cls-23 {
        stroke: #008380;
        stroke-miterlimit: 10;
      }

      .cls-23, .cls-8 {
        fill: #00b6b1;
      }

      .cls-24 {
        fill: #dd47d8;
        stroke: #b819b3;
      }

      .cls-9 {
        fill: #f577f1;
      }

      .cls-10 {
        fill: #fedd81;
      }

      .cls-11 {
        fill: #f677f2;
      }

      .cls-17 {
        letter-spacing: -.025em;
      }

      .cls-12 {
        fill: #fe9b00;
      }

      .cls-18 {
        letter-spacing: -.01em;
      }

      .cls-13 {
        fill: #f2f2f2;
      }

      .cls-14 {
        fill: #fe5576;
      }
    </style>
  </defs>
  <g>
    <path class="cls-23" d="m331.197,33.954c-2.293-12.79-13.66-22.1-26.741-22.14-81.918-.248-160.177-.502-242.094-.713-2.727-.007-4.859-.438-7.168-2.399C48.028,2.617,39.547.119,30.1,1.274,20.381,2.463,12.681,7.161,7.067,15.04,2.193,21.879.212,29.582,1.283,38.024c1.177,9.281,5.524,16.675,12.825,22.461,2.04,1.617,6.09,3.722,7.073,4.225.147.075.282.172.401.286l11.318,10.9c.643.62,1.658.631,2.315.026l10.886-10.023c.313-.288.718-.448,1.143-.446,87.06.295,170.857.228,257.512.487.891.003,1.782-.029,2.673-.045.198-.088.388-.231.594-.257,15.315-1.89,25.945-16.233,23.175-31.684Z"/>
    <g>
      <path class="cls-1" d="m34.019,61.097c-14.927-.049-27.039-12.211-27-27.111.038-14.888,12.218-27,27.151-27h.124c14.9.067,26.976,12.266,26.917,27.194-.058,14.842-12.216,26.917-27.102,26.917h-.091Z"/>
      <path class="cls-13" d="m34.17,7.986h.121c14.349.064,25.978,11.813,25.921,26.189-.056,14.293-11.765,25.922-26.103,25.922h-.087c-14.375-.047-26.04-11.76-26.003-26.109.037-14.337,11.768-26.001,26.151-26.002m0-2c-15.525.001-28.111,12.502-28.151,27.997-.04,15.453,12.517,28.063,27.997,28.114.032,0,.062,0,.094,0,15.444,0,28.042-12.503,28.103-27.914.061-15.477-12.462-28.128-27.913-28.197-.044,0-.085,0-.129,0h0Z"/>
    </g>
    <g>
      <path class="cls-8" d="m40.927,21.335c-1.332,0-2.481.737-3.098,1.817h-5.182c-.467,0-.915.185-1.245.515l-9.808,9.787h-5.158c-.974,0-1.763.79-1.763,1.763s.79,1.763,1.763,1.763h5.887c.467,0,.915-.185,1.245-.515l9.808-9.787h4.452c.616,1.08,1.766,1.817,3.098,1.817,1.977,0,3.58-1.603,3.58-3.58s-1.603-3.58-3.58-3.58Z"/>
      <path class="cls-8" d="m28.321,44.805c1.332,0,2.481-.737,3.098-1.817h5.182c.467,0,.915-.185,1.245-.515l9.808-9.787h5.158c.974,0,1.763-.79,1.763-1.763s-.79-1.763-1.763-1.763h-5.887c-.467,0-.915.185-1.245.515l-9.808,9.787h-4.452c-.616-1.08-1.766-1.817-3.098-1.817-1.977,0-3.58,1.603-3.58,3.58s1.603,3.58,3.58,3.58Z"/>
    </g>
    <text class="cls-15" transform="translate(141.557 46.251) rotate(.173)"><tspan x="0" y="0">버튼을 눌렀을 때</tspan></text>
    <path class="cls-7" d="m128.061,22.907c0-2.542-2.06-4.603-4.601-4.605l-43.701-.054c-2.545-.002-4.608,2.06-4.608,4.605v30.991c0,2.547,2.075,4.61,4.622,4.605l43.676-.049c2.543,0,4.613-2.062,4.613-4.605v-30.888Z"/>
    <g>
      <text class="cls-16" transform="translate(85.53 46.188)"><tspan x="0" y="0">A</tspan></text>
      <path class="cls-4" d="m113.9,34.454c1.503,0,3.006-.003,4.509.001.951.003,1.744.288,2.197,1.211.47.958.064,1.702-.534,2.425-1.451,1.754-2.859,3.543-4.343,5.268-1.318,1.533-2.389,1.523-3.72-.029-1.519-1.771-2.972-3.598-4.452-5.402-.521-.635-.812-1.313-.452-2.145.374-.865,1.045-1.293,1.954-1.309,1.614-.027,3.228-.008,4.842-.008v-.013Z"/>
    </g>
  </g>
  <g>
    <g>
      <path class="cls-24" d="m445.629,65.394H46.71s0,0,0,0l-12.543,11.548s0,0,0,0l-12.023-10.98c-.238-.218-.622-.049-.622.274v54.741c0,.047.011.092.028.135h-.003l.004.004c.02.048.048.093.087.13h.056l11.328,10.345c.663.605,1.678.603,2.338-.005l10.91-10.045c.212-.195.49-.304.779-.304l398.583-.101c15.329,0,27.871-12.542,27.871-27.871h0c0-15.329-12.542-27.871-27.871-27.871Z"/>
      <g>
        <path class="cls-6" d="m466.578,93.309c.233,11.599-9.583,22.21-22.59,21.903-11.361-.268-21.522-9.45-21.508-22.104.014-12.581,10.427-22.278,22.629-21.994,11.969.279,21.786,10.209,21.47,22.194Z"/>
        <path class="cls-11" d="m444.846,83.146c1.421.066,3.283.498,4.796,1.905,2.464,2.29,2.614,5.317.342,7.812-.823.903-1.728,1.735-2.634,2.558-.847.769-1.497,1.641-1.723,2.78-.285,1.438-1.202,2.017-2.552,1.624-1.294-.377-1.297-1.572-1.154-2.621.299-2.203,1.86-3.593,3.427-4.952.334-.29.717-.537.999-.87,1.487-1.758,1.36-3.4-.321-4.537-1.47-.995-3.897-.403-4.808,1.208-.326.577-.531,1.221-.815,1.823-.524,1.11-1.42,1.65-2.58,1.204-1.144-.44-1.405-1.351-1.1-2.592.769-3.131,3.806-5.339,8.123-5.343Z"/>
        <path class="cls-9" d="m443.82,105.86c-1.271-.012-2.113-.925-2.059-2.258.054-1.311.741-2.044,2.063-2.095,1.32-.051,2.369,1,2.32,2.267-.048,1.226-1.02,2.098-2.324,2.086Z"/>
      </g>
    </g>
    <g>
      <path class="cls-2" d="m52.755,79.534v27.721c0,3.45,2.808,6.244,6.257,6.235,25.312-.061,37.945-.046,63.27-.044,3.444,0,6.242-2.791,6.242-6.235v-27.63c0-3.441-2.787-6.231-6.228-6.235l-63.299-.046c-3.447-.004-6.243,2.789-6.243,6.235Z"/>
      <text class="cls-16" transform="translate(63.135 101.234)"><tspan x="0" y="0">상태</tspan></text>
      <path class="cls-4" d="m114.946,89.5c1.503,0,3.006-.003,4.509.001.951.003,1.744.288,2.197,1.211.47.958.064,1.702-.534,2.425-1.451,1.754-2.859,3.543-4.343,5.268-1.318,1.533-2.389,1.523-3.72-.029-1.519-1.771-2.972-3.598-4.452-5.402-.521-.635-.812-1.313-.452-2.145.374-.865,1.045-1.293,1.954-1.309,1.614-.027,3.228-.008,4.842-.008v-.013Z"/>
    </g>
    <text class="cls-18" transform="translate(144.345 101.744)"><tspan x="0" y="0">을(를)</tspan></text>
    <text class="cls-18" transform="translate(277.452 101.744)"><tspan x="0" y="0">(으)로정하기</tspan></text>
    <g>
      <g>
        <circle class="cls-10" cx="241.505" cy="93.394" r="19.903"/>
        <path class="cls-12" d="m241.505,74.491c10.423,0,18.903,8.48,18.903,18.903s-8.48,18.903-18.903,18.903-18.903-8.48-18.903-18.903,8.48-18.903,18.903-18.903m0-2c-11.497,0-20.903,9.406-20.903,20.903h0c0,11.497,9.406,20.903,20.903,20.903s20.903-9.406,20.903-20.903h0c0-11.497-9.406-20.903-20.903-20.903h0Z"/>
      </g>
      <text class="cls-21" transform="translate(235.253 100.456)"><tspan x="0" y="0">1</tspan></text>
    </g>
  </g>
  <g>
    <g>
      <path class="cls-22" d="m496.248,121.343H46.71l-12.543,11.141-12.024-10.593c-.238-.21-.622-.047-.622.265v52.811c0,.098.042.191.115.259l12.53,11.31,12.351-11.415h450.147c16.516,0,27.454-12.1,27.454-26.888h0c0-14.789-12.542-26.888-27.871-26.888Z"/>
      <g>
        <path class="cls-5" d="m471.963,148.736c.085-12.114,9.79-22.01,22.342-21.937,12.159.071,22.178,9.883,21.961,22.471-.203,11.764-9.754,21.773-22.498,21.598-12.042-.166-21.794-9.762-21.805-22.132Z"/>
        <path class="cls-14" d="m494.863,150.174c2.854.024,5.612,2.731,5.624,5.52.014,3.13-2.722,5.849-5.866,5.829-3.016-.018-5.566-2.746-5.533-5.919.031-3.007,2.636-5.457,5.775-5.43Z"/>
        <rect class="cls-14" x="497.25" y="140.558" width="9.448" height="9.448" transform="translate(249.755 -312.397) rotate(45)"/>
        <polygon class="cls-14" points="493.093 148.237 493.093 141.805 487.522 138.588 481.952 141.805 481.952 148.237 487.522 151.453 493.093 148.237"/>
      </g>
    </g>
    <text class="cls-17" transform="translate(133.014 156.796)"><tspan x="0" y="0">을(를)</tspan></text>
    <text class="cls-17" transform="translate(270.421 156.796)"><tspan x="0" y="0">초 동안</tspan></text>
    <g>
      <g>
        <path class="cls-10" d="m68.477,168.352c-10.975,0-19.903-8.929-19.903-19.903s8.928-19.903,19.903-19.903h30.135c10.975,0,19.903,8.928,19.903,19.903s-8.928,19.903-19.903,19.903h-30.135Z"/>
        <path class="cls-12" d="m98.612,129.546c10.423,0,18.903,8.48,18.903,18.903s-8.48,18.903-18.903,18.903h-30.135c-10.423,0-18.903-8.48-18.903-18.903s8.48-18.903,18.903-18.903h30.135m0-2h-30.135c-11.497,0-20.903,9.406-20.903,20.903s9.406,20.903,20.903,20.903h30.135c11.497,0,20.903-9.406,20.903-20.903s-9.407-20.903-20.903-20.903h0Z"/>
      </g>
      <text class="cls-20" transform="translate(64.014 155.512)"><tspan x="0" y="0">작동</tspan></text>
    </g>
    <g>
      <rect class="cls-3" x="361.349" y="129.351" width="95.645" height="38.968" rx="3.871" ry="3.871"/>
      <text class="cls-19" transform="translate(371.875 155.898)"><tspan x="0" y="0">말하기</tspan></text>
      <path class="cls-4" d="m440.495,144.157c1.503,0,3.006-.003,4.509.001.951.003,1.744.288,2.197,1.211.47.958.064,1.702-.534,2.425-1.451,1.754-2.859,3.543-4.343,5.268-1.318,1.533-2.389,1.523-3.72-.029-1.519-1.771-2.972-3.598-4.452-5.402-.521-.635-.812-1.313-.452-2.145.374-.865,1.045-1.293,1.954-1.309,1.614-.027,3.228-.008,4.842-.008v-.013Z"/>
    </g>
    <g>
      <g>
        <path class="cls-10" d="m232.248,168.352c-10.975,0-19.903-8.929-19.903-19.903s8.928-19.903,19.903-19.903,19.903,8.928,19.903,19.903-8.929,19.903-19.903,19.903Z"/>
        <path class="cls-12" d="m232.248,129.546c10.423,0,18.903,8.48,18.903,18.903s-8.48,18.903-18.903,18.903-18.903-8.48-18.903-18.903,8.48-18.903,18.903-18.903m0-2c-11.497,0-20.903,9.406-20.903,20.903h0c0,11.497,9.406,20.903,20.903,20.903s20.903-9.406,20.903-20.903h0c0-11.497-9.406-20.903-20.903-20.903h0Z"/>
      </g>
      <text class="cls-21" transform="translate(225.544 155.512)"><tspan x="0" y="0">1</tspan></text>
    </g>
  </g>
</svg>