<?xml version="1.0" encoding="UTF-8"?>
<svg id="_레이어_1" data-name="레이어 1" xmlns="http://www.w3.org/2000/svg" viewBox="0 0 523.141 66.995">
  <defs>
    <style>
      .cls-1 {
        fill: #c72042;
      }

      .cls-1, .cls-2, .cls-3, .cls-4, .cls-5, .cls-6 {
        stroke-width: 0px;
      }

      .cls-7 {
        fill: #fff;
        letter-spacing: -.025em;
      }

      .cls-7, .cls-8, .cls-9 {
        font-family: Pretendard-Bold-KSCpc-EUC-H, Pretendard;
        font-weight: 700;
      }

      .cls-7, .cls-9 {
        font-size: 22px;
      }

      .cls-2 {
        fill: #fefdfe;
      }

      .cls-3 {
        fill: #c62042;
      }

      .cls-10 {
        fill: #fe3a61;
        stroke: #c62142;
        stroke-linecap: round;
        stroke-linejoin: round;
        stroke-width: 2px;
      }

      .cls-4 {
        fill: #fedd81;
      }

      .cls-8 {
        fill: #fefefe;
        font-size: 26px;
        letter-spacing: -.025em;
      }

      .cls-5 {
        fill: #fe9b00;
      }

      .cls-11 {
        letter-spacing: -.01em;
      }

      .cls-12 {
        letter-spacing: -.042em;
      }

      .cls-6 {
        fill: #fe5576;
      }
    </style>
  </defs>
  <g>
    <path class="cls-10" d="m494.27,1H26.189l-12.543,11.141L1.622,1.548c-.238-.21-.622-.047-.622.265v52.811c0,.098.042.191.115.259l12.53,11.113,12.543-11.219h468.081c15.329,0,27.871-12.1,27.871-26.888h0c0-14.789-12.542-26.888-27.871-26.888Z"/>
    <g>
      <path class="cls-3" d="m469.985,28.394c.085-12.114,9.79-22.01,22.342-21.937,12.159.071,22.178,9.883,21.961,22.471-.203,11.764-9.754,21.773-22.498,21.598-12.042-.166-21.794-9.762-21.805-22.132Z"/>
      <path class="cls-6" d="m492.885,29.831c2.854.024,5.612,2.731,5.624,5.52.014,3.13-2.722,5.849-5.866,5.829-3.016-.018-5.566-2.746-5.533-5.919.031-3.007,2.636-5.457,5.775-5.43Z"/>
      <rect class="cls-6" x="495.272" y="20.216" width="9.448" height="9.448" transform="translate(164.08 -346.246) rotate(45)"/>
      <polygon class="cls-6" points="491.115 27.895 491.115 21.462 485.545 18.246 479.974 21.462 479.974 27.895 485.545 31.111 491.115 27.895"/>
    </g>
  </g>
  <text class="cls-8" transform="translate(278.856 36.454)"><tspan x="0" y="0">을(를)</tspan></text>
  <g>
    <g>
      <path class="cls-4" d="m47.955,48.01c-10.975,0-19.903-8.928-19.903-19.903s8.929-19.903,19.903-19.903h193.875c10.975,0,19.903,8.929,19.903,19.903s-8.929,19.903-19.903,19.903H47.955Z"/>
      <path class="cls-5" d="m241.831,9.203c10.423,0,18.903,8.48,18.903,18.903s-8.48,18.903-18.903,18.903H47.956c-10.423,0-18.903-8.48-18.903-18.903s8.48-18.903,18.903-18.903h193.875m0-2H47.955c-11.497,0-20.903,9.406-20.903,20.903s9.406,20.903,20.903,20.903h193.875c11.497,0,20.903-9.407,20.903-20.903s-9.406-20.903-20.903-20.903h0Z"/>
    </g>
    <text class="cls-9" transform="translate(42.492 35.169)"><tspan class="cls-11" x="0" y="0">반티 투표가 끝났습니다</tspan><tspan class="cls-12" x="197.637" y="0">.</tspan></text>
  </g>
  <g>
    <rect class="cls-1" x="359.371" y="9.008" width="95.645" height="38.968" rx="3.871" ry="3.871"/>
    <text class="cls-7" transform="translate(369.896 35.555)"><tspan x="0" y="0">말하기</tspan></text>
    <path class="cls-2" d="m438.517,23.815c1.503,0,3.006-.003,4.509.001.951.003,1.744.288,2.197,1.211.47.958.064,1.702-.534,2.425-1.451,1.754-2.859,3.543-4.343,5.268-1.318,1.533-2.389,1.523-3.72-.029-1.519-1.771-2.972-3.598-4.452-5.402-.521-.635-.812-1.313-.452-2.145.374-.865,1.045-1.293,1.954-1.309,1.614-.027,3.228-.008,4.842-.008v-.013Z"/>
  </g>
</svg>