<?xml version="1.0" encoding="UTF-8"?>
<svg id="_레이어_1" data-name="레이어 1" xmlns="http://www.w3.org/2000/svg" viewBox="0 0 464.383 441.971">
  <defs>
    <style>
      .cls-1 {
        fill: #8b19db;
      }

      .cls-1, .cls-2, .cls-3, .cls-4, .cls-5, .cls-6, .cls-7, .cls-8, .cls-9, .cls-10, .cls-11 {
        stroke-width: 0px;
      }

      .cls-2, .cls-12, .cls-13 {
        fill: #fefefe;
      }

      .cls-14 {
        letter-spacing: -.071em;
      }

      .cls-15, .cls-13 {
        letter-spacing: -.01em;
      }

      .cls-3 {
        fill: #ffb250;
      }

      .cls-16 {
        fill: #fff;
        stroke: #a14100;
      }

      .cls-16, .cls-17, .cls-18, .cls-19, .cls-20 {
        stroke-width: 2px;
      }

      .cls-16, .cls-17, .cls-19 {
        stroke-miterlimit: 10;
      }

      .cls-17 {
        stroke: #009400;
      }

      .cls-17, .cls-11 {
        fill: #00b300;
      }

      .cls-4 {
        fill: #fc6500;
      }

      .cls-12, .cls-21, .cls-13 {
        font-family: Pretendard-Bold-KSCpc-EUC-H, Pretendard;
        font-weight: 700;
      }

      .cls-12, .cls-13 {
        font-size: 26px;
      }

      .cls-18 {
        fill: #19baea;
        stroke: #1498c0;
      }

      .cls-18, .cls-20 {
        stroke-linecap: round;
        stroke-linejoin: round;
      }

      .cls-5 {
        fill: #6dddfe;
      }

      .cls-6 {
        fill: #1498c0;
      }

      .cls-19 {
        fill: #ff9b00;
        stroke: #fc6500;
      }

      .cls-21 {
        font-size: 22px;
        letter-spacing: -.025em;
      }

      .cls-7 {
        fill: #bd65fb;
      }

      .cls-20 {
        fill: #ad3efb;
        stroke: #8b19db;
      }

      .cls-8 {
        fill: #fafdfa;
      }

      .cls-9 {
        fill: #fedd81;
      }

      .cls-10 {
        fill: #fe9b00;
      }
    </style>
  </defs>
  <g>
    <path class="cls-17" d="m334.856,33.954c-2.293-12.791-13.66-22.101-26.741-22.14-81.918-.248-163.835-.501-245.753-.712-2.727-.007-4.859-.438-7.168-2.399C48.028,2.617,39.547.119,30.1,1.274,20.381,2.463,12.681,7.161,7.067,15.04,2.193,21.879.212,29.582,1.283,38.024c1.177,9.281,5.523,16.675,12.825,22.461,2.333,1.849,6.893,4.567,6.893,4.567l11.959,10.71c.84.872,1.302.777,2.094-.032l11.135-10.678c86.873.298,175.353.627,262.226.887.891.002,1.782-.029,2.673-.045.198-.088.388-.231.594-.256,15.315-1.89,25.945-16.233,23.175-31.684Z"/>
    <path class="cls-2" d="m34.016,62.097c-15.48-.051-28.037-12.66-27.997-28.114.04-15.539,12.694-28.067,28.28-27.997,15.45.069,27.973,12.72,27.913,28.197-.06,15.443-12.708,27.964-28.196,27.914Z"/>
    <path class="cls-11" d="m22.752,33.067c.099-1.896-.183-4.236.152-6.562.711-4.937,4.657-8.567,9.628-8.799,1.609-.075,3.236-.154,4.823.234,4.693,1.146,7.831,5.11,7.914,10.093.06,3.614.045,7.23.006,10.844-.07,6.422-4.581,10.616-11.359,10.611-6.621-.005-11.083-4.255-11.16-10.647-.021-1.779-.003-3.559-.003-5.774Z"/>
    <path class="cls-8" d="m32.083,26.919c.035-.717.008-1.442.123-2.144.154-.937.826-1.465,1.736-1.493.99-.03,1.793.497,1.874,1.509.118,1.478.107,2.978-.004,4.457-.07.929-.81,1.468-1.722,1.499-.995.033-1.71-.518-1.884-1.517-.131-.754-.088-1.539-.124-2.311Z"/>
    <text class="cls-12" transform="translate(73.184 46.254) rotate(.173)"><tspan x="0" y="0">오브젝트를 클릭했을 때</tspan></text>
  </g>
  <g>
    <g>
      <g>
        <path class="cls-20" d="m435.512,65.996H46.188l-12.543,11.548h0l-12.023-10.98c-.238-.218-.622-.049-.622.274v54.841l.171.168,11.328,10.345c.663.605,1.678.603,2.338-.004l10.91-10.045c.212-.195.49-.304.779-.304l388.987-.101c15.329,0,27.871-12.542,27.871-27.871s-12.542-27.871-27.871-27.871Z"/>
        <g>
          <path class="cls-1" d="m412.363,93.687c.085-12.114,9.79-22.01,22.342-21.937,12.159.071,22.178,9.883,21.961,22.471-.203,11.764-9.754,21.773-22.498,21.598-12.042-.166-21.794-9.762-21.805-22.132Z"/>
          <g>
            <path class="cls-7" d="m446.47,88.217l-5.089-3.84c-.502-.379-1.222-.021-1.222.609v1.614l-8.892-.884c-.449-.045-.838.308-.838.759v4.703c0,.451.389.803.838.759l8.892-.884v1.614c0,.629.719.988,1.222.609l5.089-3.84c.404-.305.404-.912,0-1.217Z"/>
            <path class="cls-7" d="m422.561,99.354l5.089,3.84c.502.379,1.222.021,1.222-.609v-1.614l8.892.884c.449.045.838-.308.838-.759v-4.703c0-.451-.389-.803-.838-.759l-8.892.884v-1.614c0-.629-.719-.988-1.222-.609l-5.089,3.84c-.404.305-.404.912,0,1.217Z"/>
          </g>
        </g>
      </g>
      <text class="cls-12" transform="translate(50.044 102.346)"><tspan class="cls-15" x="0" y="0" xml:space="preserve">X:           </tspan><tspan class="cls-14" x="87.696" y="0">Y</tspan><tspan class="cls-15" x="103.94" y="0">:</tspan></text>
      <text class="cls-13" transform="translate(238.846 102.346)"><tspan x="0" y="0">위치로 이동하기</tspan></text>
    </g>
    <g>
      <path class="cls-9" d="m191.428,113.669c-10.975,0-19.903-8.928-19.903-19.903s8.929-19.903,19.903-19.903h9.414c10.975,0,19.903,8.929,19.903,19.903s-8.929,19.903-19.903,19.903h-9.414Z"/>
      <path class="cls-10" d="m200.842,74.863c10.423,0,18.903,8.48,18.903,18.903s-8.48,18.903-18.903,18.903h-9.414c-10.423,0-18.903-8.48-18.903-18.903s8.48-18.903,18.903-18.903h9.414m0-2h-9.414c-11.497,0-20.903,9.406-20.903,20.903s9.406,20.903,20.903,20.903h9.414c11.497,0,20.903-9.407,20.903-20.903s-9.406-20.903-20.903-20.903h0Z"/>
    </g>
    <text class="cls-21" transform="translate(182.835 100.827)"><tspan x="0" y="0">50</tspan></text>
    <g>
      <circle class="cls-9" cx="104.454" cy="93.766" r="19.903"/>
      <path class="cls-10" d="m104.454,74.863c10.423,0,18.903,8.48,18.903,18.903s-8.48,18.903-18.903,18.903-18.903-8.48-18.903-18.903,8.48-18.903,18.903-18.903m0-2h0c-11.497,0-20.903,9.407-20.903,20.903s9.406,20.903,20.903,20.903h0c11.497,0,20.903-9.407,20.903-20.903s-9.406-20.903-20.903-20.903h0Z"/>
    </g>
    <text class="cls-21" transform="translate(96.796 100.827)"><tspan x="0" y="0">0</tspan></text>
  </g>
  <g>
    <g>
      <g>
        <path class="cls-19" d="m233.083,121.872H46.188l-12.543,11.548h0l-12.023-10.98c-.238-.218-.622-.049-.622.274v54.841l.171.168,11.328,10.345c.663.605,1.678.603,2.338-.004l10.91-10.045c.212-.195.49-.304.779-.304l186.558-.101c15.329,0,27.871-12.542,27.871-27.871s-12.542-27.871-27.871-27.871Z"/>
        <path class="cls-4" d="m254.032,149.787c.233,11.599-9.583,22.21-22.59,21.903-11.361-.268-21.522-9.45-21.508-22.104.014-12.581,10.427-22.278,22.629-21.994,11.969.279,21.786,10.209,21.47,22.194Z"/>
        <g>
          <path class="cls-3" d="m231.774,153.119c-.521,0-1.047-.154-1.507-.474-1.198-.834-1.493-2.481-.659-3.679l7.808-11.217c.834-1.198,2.481-1.493,3.679-.659,1.198.834,1.493,2.481.659,3.679l-7.808,11.217c-.514.738-1.336,1.133-2.172,1.133Z"/>
          <path class="cls-3" d="m229.93,153.517c-1.151-.831-3.517-1.662-5.371.767s.128,4.731-2.813,6.586c0,0,4.448,1.779,8.184-1.535,3.676-3.261,0-5.818,0-5.818Z"/>
        </g>
      </g>
      <text class="cls-13" transform="translate(50.044 158.225)"><tspan x="0" y="0">모든 붓 지우기</tspan></text>
    </g>
    <g>
      <g>
        <path class="cls-19" d="m249.804,177.872H46.188l-12.543,11.548h0l-12.023-10.98c-.238-.218-.622-.049-.622.274v54.841l.171.168,11.328,10.345c.663.605,1.678.603,2.338-.004l10.91-10.045c.212-.195.49-.304.779-.304l203.279-.101c15.329,0,27.871-12.542,27.871-27.871s-12.542-27.871-27.871-27.871Z"/>
        <path class="cls-4" d="m270.753,205.787c.233,11.599-9.583,22.21-22.59,21.903-11.361-.268-21.522-9.45-21.508-22.104.014-12.581,10.427-22.278,22.629-21.994,11.969.279,21.786,10.209,21.47,22.194Z"/>
        <g>
          <path class="cls-3" d="m248.495,209.119c-.521,0-1.047-.154-1.507-.474-1.198-.834-1.493-2.481-.659-3.679l7.808-11.217c.834-1.198,2.481-1.493,3.679-.659,1.198.834,1.493,2.481.659,3.679l-7.808,11.217c-.514.738-1.336,1.133-2.172,1.133Z"/>
          <path class="cls-3" d="m246.65,209.517c-1.151-.831-3.517-1.662-5.371.767s.128,4.731-2.813,6.586c0,0,4.448,1.779,8.184-1.535,3.676-3.261,0-5.818,0-5.818Z"/>
        </g>
      </g>
      <text class="cls-13" transform="translate(50.044 214.225)"><tspan x="0" y="0">그리기 시작하기</tspan></text>
    </g>
  </g>
  <g>
    <g>
      <path class="cls-18" d="m21.115,289.776l.056,139.582,12.38,11.613,12.516-11.613h227.161c7.696,0,13.935-6.239,13.935-13.935h0c0-7.696-6.239-13.935-13.935-13.935H71.228l-11.613,11.226-11.538-11.226v-111.719l12.441,11.461,12.387-11.471,187.096-.091c15.329,0,27.871-12.542,27.871-27.871h0c0-15.329-12.542-27.871-27.871-27.871H46.188s-12.543,11.548-12.543,11.548h0s-12.023-10.98-12.023-10.98c-.238-.218-.622-.049-.622.274v54.741c0,.047.011.092.028.135h-.003"/>
      <g>
        <path class="cls-6" d="m280.75,261.84c.233,11.599-9.583,22.21-22.59,21.903-11.361-.268-21.522-9.45-21.508-22.104.014-12.581,10.427-22.278,22.629-21.994,11.969.279,21.786,10.209,21.47,22.194Z"/>
        <path class="cls-5" d="m266.833,263.372c-.095,0-.185.021-.279.028l-4.684-7.075c.647-.892.942-2.055.623-3.302-.356-1.388-1.5-2.504-2.899-2.812-2.553-.562-4.81,1.366-4.81,3.821,0,.859.284,1.646.753,2.292l-4.684,7.075c-.094-.007-.183-.028-.279-.028-2.466,0-4.4,2.277-3.814,4.843.323,1.416,1.474,2.567,2.89,2.89,2.566.586,4.843-1.348,4.843-3.814,0-1.153-.507-2.18-1.3-2.897l4.386-6.625c.358.108.731.183,1.124.183s.766-.076,1.124-.183l4.386,6.625c-1.013.917-1.56,2.338-1.178,3.884.344,1.389,1.482,2.51,2.877,2.828,2.564.583,4.839-1.35,4.839-3.815,0-2.165-1.755-3.919-3.919-3.919Z"/>
      </g>
    </g>
    <g>
      <g>
        <circle class="cls-9" cx="69.119" cy="261.249" r="19.903"/>
        <path class="cls-10" d="m69.119,242.345c10.423,0,18.903,8.48,18.903,18.903s-8.48,18.903-18.903,18.903-18.903-8.48-18.903-18.903,8.48-18.903,18.903-18.903m0-2c-11.497,0-20.903,9.407-20.903,20.903s9.406,20.903,20.903,20.903,20.903-9.406,20.903-20.903-9.406-20.903-20.903-20.903h0Z"/>
      </g>
      <text class="cls-12" transform="translate(104.454 269.6)"><tspan x="0" y="0">번 반복하기 </tspan></text>
    </g>
  </g>
  <path class="cls-16" d="m277.02,289.742H73.404l-12.543,11.548h0l-12.023-10.98c-.238-.218-.622-.049-.622.274v54.841l.171.168,11.328,10.345c.663.605,1.678.603,2.338-.004l10.91-10.045c.212-.195.49-.304.779-.304l203.279-.101c15.329,0,27.871-12.542,27.871-27.871s-12.542-27.871-27.871-27.871Z"/>
  <g>
    <g>
      <g>
        <path class="cls-20" d="m401.605,345.48H73.404l-12.543,11.548h0l-12.023-10.98c-.238-.218-.622-.049-.622.274v54.841l.171.168,11.328,10.345c.663.605,1.678.603,2.338-.004l10.91-10.045c.212-.195.49-.304.779-.304l327.863-.101c15.329,0,27.871-12.542,27.871-27.871s-12.542-27.871-27.871-27.871Z"/>
        <g>
          <path class="cls-1" d="m378.455,373.17c.085-12.114,9.79-22.01,22.342-21.937,12.159.071,22.178,9.883,21.961,22.471-.203,11.764-9.754,21.773-22.498,21.598-12.042-.166-21.794-9.762-21.805-22.132Z"/>
          <g>
            <path class="cls-7" d="m412.563,367.701l-5.089-3.84c-.502-.379-1.222-.021-1.222.609v1.614l-8.892-.884c-.449-.045-.838.308-.838.759v4.703c0,.451.389.803.838.759l8.892-.884v1.614c0,.629.719.988,1.222.609l5.089-3.84c.404-.305.404-.912,0-1.217Z"/>
            <path class="cls-7" d="m388.653,378.837l5.089,3.84c.502.379,1.222.021,1.222-.609v-1.614l8.892.884c.449.045.838-.308.838-.759v-4.703c0-.451-.389-.803-.838-.759l-8.892.884v-1.614c0-.629-.719-.988-1.222-.609l-5.089,3.84c-.404.305-.404.912,0,1.217Z"/>
          </g>
        </g>
      </g>
      <text class="cls-13" transform="translate(77.26 381.829)"><tspan x="0" y="0">방향을</tspan></text>
      <text class="cls-13" transform="translate(226.655 381.829)"><tspan x="0" y="0">만큼 회전하기</tspan></text>
    </g>
    <g>
      <path class="cls-9" d="m176.554,393.153c-10.975,0-19.903-8.928-19.903-19.903s8.929-19.903,19.903-19.903h16.568c10.975,0,19.903,8.929,19.903,19.903s-8.929,19.903-19.903,19.903h-16.568Z"/>
      <path class="cls-10" d="m193.122,354.346c10.423,0,18.903,8.48,18.903,18.903s-8.48,18.903-18.903,18.903h-16.568c-10.423,0-18.903-8.48-18.903-18.903s8.48-18.903,18.903-18.903h16.568m0-2h-16.568c-11.497,0-20.903,9.406-20.903,20.903s9.406,20.903,20.903,20.903h16.568c11.497,0,20.903-9.407,20.903-20.903s-9.406-20.903-20.903-20.903h0Z"/>
    </g>
    <text class="cls-21" transform="translate(166.962 380.312)"><tspan x="0" y="0">45º</tspan></text>
  </g>
  <rect class="cls-2" x="48.216" y="239.829" width="41.806" height="42.839" rx="10" ry="10"/>
  <rect class="cls-2" x="155.65" y="352.205" width="59.587" height="42.839" rx="10" ry="10"/>
</svg>