<?xml version="1.0" encoding="UTF-8"?>
<svg id="_레이어_2" data-name="레이어 2" xmlns="http://www.w3.org/2000/svg" viewBox="0 0 377.46 90.4">
  <defs>
    <style>
      .cls-1 {
        font-size: 26px;
      }

      .cls-1, .cls-2, .cls-3, .cls-4 {
        fill: #fff;
      }

      .cls-1, .cls-3, .cls-5 {
        font-family: D2Coding, D2Coding;
      }

      .cls-2, .cls-6 {
        stroke-width: 0px;
      }

      .cls-3 {
        font-size: 26.581px;
      }

      .cls-5 {
        fill: #575e75;
        font-size: 23px;
      }

      .cls-6 {
        fill: #c91539;
      }

      .cls-4 {
        stroke: #bfbfbf;
      }

      .cls-4, .cls-7 {
        stroke-miterlimit: 10;
        stroke-width: 1.5px;
      }

      .cls-7 {
        fill: #dc143c;
        stroke: #a50f2d;
      }
    </style>
  </defs>
  <g>
    <g>
      <path class="cls-7" d="m76.604.75c-1.691,0-3.304.712-4.443,1.962l-8.981,9.857c-1.139,1.25-2.752,1.963-4.443,1.963h-21.051c-1.723,0-3.364-.74-4.505-2.031L24.596,2.781c-1.141-1.292-2.781-2.031-4.505-2.031H6.761C3.441.75.75,3.441.75,6.761v63.097c0,3.32,2.691,6.011,6.011,6.011h13.331c1.723,0,3.364.74,4.505,2.031l8.586,9.72c1.141,1.292,2.781,2.031,4.505,2.031h21.051c1.691,0,3.304-.712,4.443-1.963l8.981-9.857c1.139-1.25,2.752-1.962,4.443-1.962h294.396c3.154,0,5.711-2.557,5.711-5.711V6.461c0-3.154-2.557-5.711-5.711-5.711H76.604Z"/>
      <text class="cls-3" transform="translate(307.096 45.92)"><tspan x="0" y="0">증가</tspan></text>
      <text class="cls-3" transform="translate(190.708 45.92)"><tspan x="0" y="0">값</tspan></text>
    </g>
    <g>
      <rect class="cls-4" x="234.081" y="13.845" width="60.126" height="48.194" rx="24.097" ry="24.097"/>
      <text class="cls-5" transform="translate(258.394 45.2)"><tspan x="0" y="0">1</tspan></text>
    </g>
  </g>
  <g>
    <rect class="cls-7" x="75.01" y="12.523" width="103.27" height="50.839" rx="6.097" ry="6.097"/>
    <text class="cls-1" transform="translate(87.526 46.07)"><tspan x="0" y="0">변수</tspan></text>
    <g>
      <path class="cls-2" d="m154.202,44.033c-.437,0-.852-.165-1.169-.462l-6.78-6.353c-.516-.483-.681-1.22-.421-1.876.26-.657.884-1.082,1.59-1.082h13.561c.706,0,1.33.424,1.59,1.082.26.657.095,1.394-.421,1.876l-6.78,6.353c-.317.298-.732.462-1.169.462Z"/>
      <path class="cls-6" d="m160.982,34.76c1.097,0,1.628,1.343.828,2.093l-6.78,6.353c-.233.218-.53.327-.828.327s-.595-.109-.827-.327l-6.78-6.353c-.801-.75-.27-2.093.827-2.093h13.56m0-1h-13.56c-.913,0-1.72.549-2.055,1.398-.336.849-.122,1.801.544,2.425l6.78,6.353c.411.385.948.597,1.511.597s1.1-.212,1.511-.597l6.78-6.353c.666-.624.88-1.576.544-2.425-.336-.849-1.142-1.398-2.055-1.398h0Z"/>
    </g>
  </g>
</svg>