<?xml version="1.0" encoding="UTF-8"?>
<svg id="_레이어_1" data-name="레이어 1" xmlns="http://www.w3.org/2000/svg" viewBox="0 0 1417.642 582.07">
  <defs>
    <style>
      .cls-1, .cls-2, .cls-3, .cls-4, .cls-5, .cls-6, .cls-7, .cls-8, .cls-9, .cls-10, .cls-11, .cls-12, .cls-13, .cls-14, .cls-15, .cls-16, .cls-17, .cls-18, .cls-19, .cls-20, .cls-21, .cls-22 {
        stroke-width: 0px;
      }

      .cls-1, .cls-23, .cls-24, .cls-25, .cls-26 {
        fill: #fefefe;
      }

      .cls-2 {
        fill: #009400;
      }

      .cls-3 {
        fill: #b819b3;
      }

      .cls-4 {
        fill: #c72042;
      }

      .cls-27, .cls-23, .cls-24, .cls-28, .cls-29, .cls-30, .cls-25, .cls-31, .cls-26 {
        font-family: Pretendard-Bold-KSCpc-EUC-H, Pretendard;
        font-weight: 700;
      }

      .cls-27, .cls-32, .cls-10, .cls-29 {
        fill: #fff;
      }

      .cls-27, .cls-24, .cls-28, .cls-29, .cls-30, .cls-31 {
        font-size: 22px;
      }

      .cls-27, .cls-30 {
        letter-spacing: -.025em;
      }

      .cls-5 {
        fill: #fefdfe;
      }

      .cls-6 {
        fill: #c62042;
      }

      .cls-33 {
        fill: #fe3a61;
        stroke: #c62142;
      }

      .cls-33, .cls-34, .cls-35, .cls-32, .cls-36 {
        stroke-width: 2px;
      }

      .cls-33, .cls-35, .cls-32, .cls-36 {
        stroke-linecap: round;
        stroke-linejoin: round;
      }

      .cls-37 {
        letter-spacing: -.042em;
      }

      .cls-7 {
        fill: #1b3ad8;
      }

      .cls-23, .cls-25, .cls-26 {
        font-size: 26px;
      }

      .cls-8 {
        fill: #b719b2;
      }

      .cls-34 {
        fill: none;
        stroke: #fff;
        stroke-miterlimit: 10;
      }

      .cls-9 {
        fill: #ff7f00;
      }

      .cls-35 {
        fill: #19baea;
      }

      .cls-35, .cls-32 {
        stroke: #1498c0;
      }

      .cls-11 {
        fill: #6dddfe;
      }

      .cls-12 {
        fill: #1498c0;
      }

      .cls-13, .cls-36 {
        fill: #dd47d8;
      }

      .cls-28, .cls-29, .cls-38 {
        letter-spacing: -.01em;
      }

      .cls-14 {
        fill: #4562f5;
      }

      .cls-36 {
        stroke: #b819b3;
      }

      .cls-15 {
        fill: #f577f1;
      }

      .cls-16 {
        fill: #fedd81;
      }

      .cls-17 {
        fill: #f4af18;
      }

      .cls-18 {
        fill: #f677f2;
      }

      .cls-25 {
        letter-spacing: -.025em;
      }

      .cls-19 {
        fill: #fe9b00;
      }

      .cls-26 {
        letter-spacing: -.01em;
      }

      .cls-20 {
        fill: #f2f2f2;
      }

      .cls-39 {
        letter-spacing: -.042em;
      }

      .cls-21 {
        fill: #fe5576;
      }

      .cls-22 {
        fill: #00b300;
      }
    </style>
  </defs>
  <g>
    <g>
      <path class="cls-22" d="m21.639,65.056s-5.2-2.719-7.532-4.568c-7.301-5.786-11.647-13.18-12.825-22.461C.211,29.585,2.193,21.881,7.066,15.042,12.681,7.163,20.381,2.466,30.1,1.277c9.447-1.156,17.928,1.343,25.093,7.428,2.309,1.961,4.441,2.392,7.168,2.399,81.918.211,208.299.465,290.217.713,13.081.04,24.448,9.349,26.741,22.14,2.77,15.451-7.86,29.794-23.175,31.684-.205.025-.396.168-.594.256-.891.016-1.782.048-2.673.045-87.321-.261-217.679-.521-304.556-.82-.618-.002-1.189.276-1.6.738-3.002,3.368-7.553,6.555-10.8,9.874-.791.809-1.254.903-2.094.031-3.131-3.25-7.215-6.419-10.402-9.615-.505-.507-1.787-1.095-1.787-1.095Z"/>
      <path class="cls-2" d="m34.858,77.381h-.007c-.761-.003-1.331-.494-1.743-.922-1.629-1.691-3.568-3.401-5.442-5.054-1.684-1.485-3.426-3.021-4.947-4.548-.256-.257-1.045-.685-1.497-.893l-.046-.022c-.216-.113-5.311-2.784-7.69-4.67C5.915,55.272,1.475,47.493.29,38.153c-1.095-8.632.911-16.603,5.962-23.691C12.092,6.266,20.075,1.496,29.978.284c9.769-1.195,18.471,1.381,25.862,7.659,2.119,1.799,3.996,2.155,6.523,2.161,31.289.081,69.063.167,108.37.258,63.604.146,131.218.302,181.847.455,13.686.042,25.345,9.7,27.723,22.964,1.389,7.748-.392,15.468-5.015,21.738-4.586,6.22-11.341,10.167-19.021,11.115.029,0-.012.026-.054.048-.084.046-.169.091-.255.129l-.186.083-1.036.022c-.621.014-1.239.03-1.861.027-36.774-.11-81.182-.219-126.76-.332-62.686-.155-127.507-.315-177.797-.488h-.003c-.314,0-.616.143-.848.403-1.688,1.895-3.855,3.735-5.95,5.514-1.692,1.438-3.442,2.924-4.88,4.394-.458.469-1.028.948-1.779.948Zm-12.776-13.223c.291.135,1.47.701,2.053,1.287,1.477,1.481,3.194,2.995,4.854,4.46,1.904,1.68,3.874,3.417,5.56,5.167.149.155.249.236.309.278.064-.045.174-.135.35-.314,1.502-1.536,3.289-3.053,5.016-4.52,2.043-1.735,4.156-3.529,5.752-5.321.608-.682,1.461-1.072,2.341-1.072h.009c50.29.173,115.11.333,177.795.488,45.579.113,89.986.222,126.761.332.608-.002,1.206-.013,1.808-.027l.611-.013c.179-.096.417-.216.723-.254,7.129-.879,13.4-4.543,17.657-10.317,4.293-5.823,5.947-12.997,4.656-20.198-2.207-12.312-13.041-21.277-25.76-21.316-50.629-.153-118.242-.309-181.846-.455-39.307-.09-77.082-.177-108.371-.258-2.834-.007-5.248-.458-7.813-2.637-6.947-5.901-15.131-8.324-24.324-7.198C20.898,3.41,13.382,7.903,7.881,15.622c-4.75,6.666-6.636,14.162-5.606,22.278,1.132,8.928,5.206,16.06,12.454,21.804,2.159,1.711,6.989,4.262,7.353,4.454Z"/>
    </g>
    <text class="cls-23" transform="translate(73.78 46.254) rotate(.173)"><tspan x="0" y="0">시작하기 버튼을 클릭했을 때</tspan></text>
    <g>
      <g>
        <path class="cls-1" d="m34.019,61.099c-14.927-.049-27.039-12.211-27-27.111.038-14.888,12.218-27,27.151-27h.125c14.9.067,26.976,12.266,26.917,27.193-.058,14.843-12.216,26.918-27.102,26.918h-.091Z"/>
        <path class="cls-20" d="m34.17,7.988h.121c14.349.064,25.978,11.812,25.921,26.189-.056,14.293-11.766,25.922-26.104,25.922h-.086c-14.375-.047-26.04-11.759-26.003-26.108.037-14.337,11.768-26.002,26.151-26.003m0-2c-15.525,0-28.11,12.502-28.15,27.998-.04,15.453,12.517,28.063,27.997,28.114h.093c15.446,0,28.043-12.502,28.104-27.914.061-15.477-12.462-28.128-27.913-28.197-.044,0-.086,0-.13,0h0Z"/>
      </g>
      <path class="cls-22" d="m26.49,33.989c0-2.979-.003-5.959.002-8.938.001-.871-.04-1.782.9-2.272.89-.464,1.669-.113,2.434.376,4.656,2.978,9.324,5.939,13.977,8.921,2.063,1.322,2.073,2.615.042,3.913-4.656,2.976-9.325,5.932-13.976,8.916-.771.494-1.55.863-2.428.428-.92-.456-.963-1.342-.958-2.244.016-3.033.006-6.067.006-9.101Z"/>
    </g>
  </g>
  <g>
    <g>
      <path class="cls-33" d="m876.782,65.088H47.101l-12.543,11.141-12.024-10.593c-.238-.21-.622-.047-.622.265v52.811c0,.098.042.191.115.259l12.53,11.31,12.351-11.415h830.29c16.516,0,27.454-12.1,27.454-26.888h0c0-14.789-12.542-26.888-27.871-26.888Z"/>
      <g>
        <path class="cls-6" d="m852.497,92.482c.085-12.114,9.79-22.01,22.342-21.937,12.159.071,22.178,9.883,21.961,22.471-.203,11.764-9.754,21.773-22.498,21.598-12.042-.166-21.794-9.762-21.805-22.132Z"/>
        <path class="cls-21" d="m875.397,93.919c2.854.024,5.612,2.731,5.624,5.52.014,3.13-2.722,5.849-5.866,5.829-3.016-.018-5.566-2.746-5.533-5.919.031-3.007,2.636-5.457,5.775-5.43Z"/>
        <rect class="cls-21" x="877.784" y="84.304" width="9.448" height="9.448" transform="translate(321.433 -597.952) rotate(45)"/>
        <polygon class="cls-21" points="873.627 91.983 873.627 85.55 868.057 82.334 862.486 85.55 862.486 91.983 868.057 95.199 873.627 91.983"/>
      </g>
    </g>
    <text class="cls-25" transform="translate(513.548 100.542)"><tspan x="0" y="0">을(를)</tspan></text>
    <text class="cls-25" transform="translate(650.955 100.542)"><tspan x="0" y="0">초 동안</tspan></text>
    <g>
      <g>
        <path class="cls-16" d="m68.868,112.098c-10.975,0-19.903-8.928-19.903-19.903s8.928-19.903,19.903-19.903h407.655c10.975,0,19.903,8.929,19.903,19.903s-8.929,19.903-19.903,19.903H68.868Z"/>
        <path class="cls-19" d="m476.523,73.292c10.423,0,18.903,8.48,18.903,18.903s-8.48,18.903-18.903,18.903H68.868c-10.423,0-18.903-8.48-18.903-18.903s8.48-18.903,18.903-18.903h407.655m0-2H68.868c-11.497,0-20.903,9.406-20.903,20.903s9.406,20.903,20.903,20.903h407.655c11.497,0,20.903-9.406,20.903-20.903s-9.406-20.903-20.903-20.903h0Z"/>
      </g>
      <text class="cls-31" transform="translate(63.405 99.258)"><tspan class="cls-38" x="0" y="0">1부터 100까지의 수 중에서 짝수의 합을 구해볼게</tspan><tspan class="cls-39" x="416.18" y="0">.</tspan></text>
    </g>
    <g>
      <rect class="cls-4" x="741.884" y="73.096" width="95.645" height="38.968" rx="3.871" ry="3.871"/>
      <text class="cls-27" transform="translate(752.408 99.643)"><tspan x="0" y="0">말하기</tspan></text>
      <path class="cls-5" d="m821.029,87.903c1.503,0,3.006-.003,4.509.001.951.003,1.744.288,2.197,1.211.47.958.064,1.702-.534,2.425-1.451,1.754-2.859,3.543-4.343,5.268-1.318,1.533-2.389,1.523-3.72-.029-1.519-1.771-2.972-3.598-4.452-5.402-.521-.635-.812-1.313-.452-2.145.374-.865,1.045-1.293,1.954-1.309,1.614-.027,3.228-.008,4.842-.008v-.013Z"/>
    </g>
    <g>
      <g>
        <circle class="cls-16" cx="612.783" cy="92.195" r="19.903" transform="translate(114.288 460.306) rotate(-45)"/>
        <path class="cls-19" d="m612.783,73.292c10.423,0,18.903,8.48,18.903,18.903s-8.48,18.903-18.903,18.903-18.903-8.48-18.903-18.903,8.48-18.903,18.903-18.903m0-2c-11.497,0-20.903,9.406-20.903,20.903s9.406,20.903,20.903,20.903,20.903-9.406,20.903-20.903-9.406-20.903-20.903-20.903h0Z"/>
      </g>
      <text class="cls-30" transform="translate(606.078 99.257)"><tspan x="0" y="0">2</tspan></text>
    </g>
  </g>
  <g>
    <g>
      <path class="cls-36" d="m429.609,118.731H47.101s0,0,0,0l-12.543,11.548s0,0,0,0l-12.023-10.98c-.238-.218-.622-.049-.622.274v54.741c0,.047.011.092.028.135h-.003l.004.004c.02.048.048.093.087.13h.056l11.328,10.345c.663.605,1.678.603,2.338-.005l10.91-10.045c.212-.195.49-.304.779-.304l382.171-.101c15.329,0,27.871-12.542,27.871-27.871h0c0-15.329-12.542-27.871-27.871-27.871Z"/>
      <g>
        <path class="cls-8" d="m450.558,146.646c.233,11.599-9.583,22.21-22.59,21.903-11.361-.268-21.522-9.45-21.508-22.104.014-12.581,10.427-22.278,22.629-21.994,11.969.279,21.786,10.209,21.47,22.194Z"/>
        <path class="cls-18" d="m428.826,136.483c1.421.066,3.283.498,4.796,1.905,2.464,2.29,2.614,5.317.342,7.812-.823.903-1.728,1.735-2.634,2.558-.847.769-1.497,1.641-1.723,2.78-.285,1.438-1.202,2.017-2.552,1.624-1.294-.377-1.297-1.572-1.154-2.621.299-2.203,1.86-3.593,3.427-4.952.334-.29.717-.537.999-.87,1.487-1.758,1.36-3.4-.321-4.537-1.47-.995-3.897-.403-4.808,1.208-.326.577-.531,1.221-.815,1.823-.524,1.11-1.42,1.65-2.58,1.204-1.144-.44-1.405-1.351-1.1-2.592.769-3.131,3.806-5.339,8.123-5.343Z"/>
        <path class="cls-15" d="m427.8,159.198c-1.271-.012-2.113-.925-2.059-2.258.054-1.311.741-2.044,2.063-2.095,1.32-.051,2.369,1,2.32,2.267-.048,1.226-1.02,2.098-2.324,2.086Z"/>
      </g>
      <g>
        <g>
          <circle class="cls-16" cx="219.467" cy="145.883" r="19.903" transform="translate(-38.874 197.915) rotate(-45)"/>
          <path class="cls-19" d="m219.467,126.979c10.423,0,18.903,8.48,18.903,18.903s-8.48,18.903-18.903,18.903-18.903-8.48-18.903-18.903,8.48-18.903,18.903-18.903m0-2c-11.497,0-20.903,9.407-20.903,20.903s9.407,20.903,20.903,20.903,20.903-9.407,20.903-20.903-9.406-20.903-20.903-20.903h0Z"/>
        </g>
        <text class="cls-30" transform="translate(213.794 152.946)"><tspan x="0" y="0">1</tspan></text>
      </g>
    </g>
    <g>
      <path class="cls-3" d="m50.818,132.871v27.721c0,3.45,2.808,6.244,6.257,6.235,25.312-.061,20.186-.046,45.511-.044,3.444,0,6.242-2.791,6.242-6.235v-27.63c0-3.441-2.787-6.231-6.228-6.235l-45.54-.046c-3.447-.004-6.243,2.789-6.243,6.235Z"/>
      <text class="cls-24" transform="translate(61.197 154.57)"><tspan x="0" y="0">수</tspan></text>
      <path class="cls-5" d="m95.249,142.838c1.503,0,3.006-.003,4.509.001.951.003,1.744.288,2.197,1.211.47.958.064,1.702-.534,2.425-1.451,1.754-2.859,3.543-4.343,5.268-1.318,1.533-2.389,1.523-3.72-.029-1.519-1.771-2.972-3.598-4.452-5.402-.521-.635-.812-1.313-.452-2.145.374-.865,1.045-1.293,1.954-1.309,1.614-.027,3.228-.008,4.842-.008v-.013Z"/>
    </g>
    <text class="cls-26" transform="translate(124.198 155.08)"><tspan x="0" y="0">을(를)</tspan></text>
    <text class="cls-26" transform="translate(254.391 155.08)"><tspan x="0" y="0">(으)로 정하기</tspan></text>
  </g>
  <g>
    <g>
      <path class="cls-36" d="m429.609,174.445H47.101s0,0,0,0l-12.543,11.548s0,0,0,0l-12.023-10.98c-.238-.218-.622-.049-.622.274v54.741c0,.047.011.092.028.135h-.003l.004.004c.02.048.048.093.087.13h.056l11.328,10.345c.663.605,1.678.603,2.338-.005l10.91-10.045c.212-.195.49-.304.779-.304l382.171-.101c15.329,0,27.871-12.542,27.871-27.871h0c0-15.329-12.542-27.871-27.871-27.871Z"/>
      <g>
        <path class="cls-8" d="m450.558,202.36c.233,11.599-9.583,22.21-22.59,21.903-11.361-.268-21.522-9.45-21.508-22.104.014-12.581,10.427-22.278,22.629-21.994,11.969.279,21.786,10.209,21.47,22.194Z"/>
        <path class="cls-18" d="m428.826,192.197c1.421.066,3.283.498,4.796,1.905,2.464,2.29,2.614,5.317.342,7.812-.823.903-1.728,1.735-2.634,2.558-.847.769-1.497,1.641-1.723,2.78-.285,1.438-1.202,2.017-2.552,1.624-1.294-.377-1.297-1.572-1.154-2.621.299-2.203,1.86-3.593,3.427-4.952.334-.29.717-.537.999-.87,1.487-1.758,1.36-3.4-.321-4.537-1.47-.995-3.897-.403-4.808,1.208-.326.577-.531,1.221-.815,1.823-.524,1.11-1.42,1.65-2.58,1.204-1.144-.44-1.405-1.351-1.1-2.592.769-3.131,3.806-5.339,8.123-5.343Z"/>
        <path class="cls-15" d="m427.8,214.911c-1.271-.012-2.113-.925-2.059-2.258.054-1.311.741-2.044,2.063-2.095,1.32-.051,2.369,1,2.32,2.267-.048,1.226-1.02,2.098-2.324,2.086Z"/>
      </g>
      <g>
        <g>
          <circle class="cls-16" cx="219.467" cy="201.596" r="19.903" transform="translate(-50.77 327.21) rotate(-67.5)"/>
          <path class="cls-19" d="m219.467,182.693c10.423,0,18.903,8.48,18.903,18.903s-8.48,18.903-18.903,18.903-18.903-8.48-18.903-18.903,8.48-18.903,18.903-18.903m0-2c-11.497,0-20.903,9.407-20.903,20.903s9.407,20.903,20.903,20.903,20.903-9.406,20.903-20.903-9.406-20.903-20.903-20.903h0Z"/>
        </g>
        <text class="cls-30" transform="translate(213.794 208.659)"><tspan x="0" y="0">0</tspan></text>
      </g>
    </g>
    <g>
      <path class="cls-3" d="m50.818,188.584v27.721c0,3.45,2.808,6.244,6.257,6.235,25.312-.061,20.186-.046,45.511-.044,3.444,0,6.242-2.791,6.242-6.235v-27.63c0-3.441-2.787-6.231-6.228-6.235l-45.54-.046c-3.447-.004-6.243,2.789-6.243,6.235Z"/>
      <text class="cls-24" transform="translate(61.197 210.283)"><tspan x="0" y="0">합</tspan></text>
      <path class="cls-5" d="m95.249,198.551c1.503,0,3.006-.003,4.509.001.951.003,1.744.288,2.197,1.211.47.958.064,1.702-.534,2.425-1.451,1.754-2.859,3.543-4.343,5.268-1.318,1.533-2.389,1.523-3.72-.029-1.519-1.771-2.972-3.598-4.452-5.402-.521-.635-.812-1.313-.452-2.145.374-.865,1.045-1.293,1.954-1.309,1.614-.027,3.228-.008,4.842-.008v-.013Z"/>
    </g>
    <text class="cls-26" transform="translate(124.198 210.793)"><tspan x="0" y="0">을(를)</tspan></text>
    <text class="cls-26" transform="translate(254.391 210.793)"><tspan x="0" y="0">(으)로 정하기</tspan></text>
  </g>
  <g>
    <path class="cls-35" d="m606.949,484.692H73.618l-11.613,11.226-13.016-11.226v-198.558l12.441,11.461,12.387-11.471,521.042-.091c16.083,0,29.097-13.806,27.779-30.151-1.175-14.565-13.733-25.591-28.345-25.591H47.101l-12.543,11.548-12.023-10.98c-.238-.217-.622-.048-.622.274l.171,285.124,12.379,11.613,12.516-11.613h559.97c8.716,0,15.782-7.066,15.782-15.783s-7.066-15.783-15.782-15.783Z"/>
    <path class="cls-12" d="m612.608,258.206c.233,11.599-9.583,22.21-22.59,21.903-11.361-.268-21.522-9.45-21.508-22.104.014-12.581,10.427-22.278,22.629-21.994,11.969.279,21.786,10.209,21.47,22.194Z"/>
    <path class="cls-11" d="m598.692,259.738c-.095,0-.185.021-.279.028l-4.684-7.075c.647-.892.942-2.055.623-3.302-.356-1.388-1.5-2.504-2.899-2.812-2.553-.562-4.81,1.366-4.81,3.821,0,.859.284,1.646.753,2.292l-4.684,7.075c-.094-.007-.183-.028-.279-.028-2.466,0-4.4,2.277-3.814,4.843.323,1.416,1.474,2.567,2.89,2.89,2.566.586,4.843-1.348,4.843-3.814,0-1.153-.507-2.18-1.3-2.897l4.386-6.625c.358.108.731.183,1.124.183s.766-.076,1.124-.183l4.386,6.625c-1.013.917-1.56,2.338-1.178,3.884.344,1.389,1.482,2.51,2.877,2.828,2.564.583,4.839-1.35,4.839-3.815,0-2.165-1.755-3.919-3.919-3.919Z"/>
    <text class="cls-23" transform="translate(463.539 265.963)"><tspan x="0" y="0">반복하기</tspan></text>
    <g>
      <g>
        <g>
          <polygon class="cls-14" points="67.611 277.964 52.085 258.061 67.611 238.158 307.242 238.158 322.768 258.061 307.242 277.964 67.611 277.964"/>
          <path class="cls-7" d="m306.754,239.158l14.746,18.903-14.746,18.903H68.099l-14.746-18.903,14.746-18.903h238.655m.976-2H67.122l-16.306,20.903,16.306,20.903h240.608l16.306-20.903-16.306-20.903h0Z"/>
        </g>
        <g>
          <path class="cls-13" d="m86.913,277.964c-10.975,0-19.903-8.929-19.903-19.903s8.928-19.903,19.903-19.903h79.62c10.975,0,19.903,8.929,19.903,19.903s-8.929,19.903-19.903,19.903h-79.62Z"/>
          <path class="cls-3" d="m166.534,239.158c10.423,0,18.903,8.48,18.903,18.903s-8.48,18.903-18.903,18.903h-79.621c-10.423,0-18.903-8.48-18.903-18.903s8.48-18.903,18.903-18.903h79.621m0-2h-79.621c-11.497,0-20.903,9.407-20.903,20.903s9.407,20.903,20.903,20.903h79.621c11.497,0,20.903-9.407,20.903-20.903s-9.406-20.903-20.903-20.903h0Z"/>
        </g>
        <rect class="cls-3" x="81.494" y="238.577" width="57.3" height="38.968" rx="3.871" ry="3.871"/>
        <text class="cls-27" transform="translate(151.703 265.124)"><tspan x="0" y="0">값</tspan></text>
        <text class="cls-27" transform="translate(92.019 265.124)"><tspan x="0" y="0">수</tspan></text>
        <path class="cls-5" d="m123.1,253.384c1.503,0,3.006-.003,4.509.001.951.003,1.744.288,2.197,1.211.47.958.064,1.702-.534,2.425-1.451,1.754-2.859,3.543-4.343,5.268-1.318,1.533-2.389,1.523-3.72-.029-1.519-1.771-2.972-3.598-4.452-5.402-.521-.635-.812-1.313-.452-2.145.374-.865,1.045-1.293,1.954-1.309,1.614-.027,3.228-.008,4.842-.008v-.013Z"/>
        <rect class="cls-7" x="201.501" y="238.255" width="30.968" height="39.613" rx="3.355" ry="3.355"/>
        <g>
          <path class="cls-16" d="m267.149,277.964c-10.975,0-19.903-8.929-19.903-19.903s8.929-19.903,19.903-19.903h20.471c10.975,0,19.903,8.929,19.903,19.903s-8.928,19.903-19.903,19.903h-20.471Z"/>
          <path class="cls-19" d="m287.62,239.158c10.423,0,18.903,8.48,18.903,18.903s-8.48,18.903-18.903,18.903h-20.471c-10.423,0-18.903-8.48-18.903-18.903s8.48-18.903,18.903-18.903h20.471m0-2h-20.471c-11.497,0-20.903,9.407-20.903,20.903s9.406,20.903,20.903,20.903h20.471c11.497,0,20.903-9.407,20.903-20.903s-9.406-20.903-20.903-20.903h0Z"/>
        </g>
        <text class="cls-30" transform="translate(258.896 265.124)"><tspan x="0" y="0">100</tspan></text>
      </g>
      <g>
        <line class="cls-34" x1="210.904" y1="263.621" x2="223.066" y2="263.621"/>
        <path class="cls-10" d="m211.287,256.418l11.779-6.235v2.169s-8.536,4.519-8.536,4.519l8.536,4.16v2.074s-11.737-5.719-11.737-5.719c-.55-.269-.57-.689-.042-.967Z"/>
      </g>
    </g>
    <g>
      <g>
        <rect class="cls-12" x="338.618" y="238.255" width="104.846" height="39.613" rx="3.355" ry="3.355"/>
        <path class="cls-5" d="m426.294,254.081c1.294,0,2.588-.003,3.883,0,.819.002,1.502.248,1.892,1.043.405.825.055,1.466-.46,2.088-1.25,1.51-2.462,3.051-3.74,4.537-1.135,1.32-2.057,1.312-3.204-.025-1.308-1.525-2.559-3.098-3.834-4.652-.449-.547-.699-1.13-.389-1.847.322-.745.9-1.114,1.683-1.127,1.39-.024,2.78-.007,4.17-.007v-.011Z"/>
      </g>
      <text class="cls-24" transform="translate(348.231 264.809)"><tspan x="0" y="0">인 동안</tspan></text>
    </g>
    <g>
      <path class="cls-32" d="m806.352,397.322H102.156l-12.808,11.226-13.102-11.226v-55.682l12.441,11.461,12.387-11.471,692.463-.091c16.083,0,29.097-13.806,27.779-30.151-1.175-14.565-13.733-25.591-28.345-25.591H74.357l-12.543,11.548-12.023-10.98c-.238-.217-.622-.048-.622.274l.171,142.249,12.379,11.613,12.516-11.613h732.117c8.716,0,15.782-7.066,15.782-15.783s-7.066-15.783-15.782-15.783Z"/>
      <text class="cls-23" transform="translate(662.219 321.468)"><tspan x="0" y="0">(이)라면</tspan></text>
      <g>
        <polygon class="cls-14" points="159.419 333.469 143.892 313.566 159.419 293.663 626.476 293.663 642.002 313.566 626.476 333.469 159.419 333.469"/>
        <path class="cls-7" d="m625.988,294.663l14.746,18.903-14.746,18.903H159.907l-14.746-18.903,14.746-18.903h466.081m.976-2H158.93l-16.306,20.903,16.306,20.903h468.034l16.306-20.903-16.306-20.903h0Z"/>
      </g>
      <rect class="cls-7" x="537.737" y="293.76" width="30.968" height="39.613" rx="3.355" ry="3.355"/>
      <g>
        <path class="cls-16" d="m605.385,333.469c-10.975,0-19.903-8.928-19.903-19.903s8.928-19.903,19.903-19.903h1.469c10.975,0,19.903,8.928,19.903,19.903s-8.928,19.903-19.903,19.903h-1.469Z"/>
        <path class="cls-19" d="m606.854,294.663c10.423,0,18.903,8.48,18.903,18.903s-8.48,18.903-18.903,18.903h-1.469c-10.423,0-18.903-8.48-18.903-18.903s8.48-18.903,18.903-18.903h1.469m0-2h-1.469c-11.497,0-20.903,9.406-20.903,20.903s9.406,20.903,20.903,20.903h1.469c11.497,0,20.903-9.406,20.903-20.903s-9.406-20.903-20.903-20.903h0Z"/>
      </g>
      <text class="cls-30" transform="translate(599.133 320.629)"><tspan x="0" y="0">0</tspan></text>
      <g>
        <g>
          <path class="cls-36" d="m504.604,341.605H101.819s0,0,0,0l-12.543,11.548s0,0,0,0l-12.023-10.98c-.238-.218-.622-.049-.622.274v54.741c0,.047.011.092.028.135h-.003l.004.004c.02.048.048.093.087.13h.056l11.328,10.345c.663.605,1.678.603,2.338-.005l10.91-10.045c.212-.195.49-.304.779-.304l402.448-.101c15.329,0,27.871-12.542,27.871-27.871h0c0-15.329-12.542-27.871-27.871-27.871Z"/>
          <g>
            <path class="cls-8" d="m525.553,369.52c.233,11.599-9.583,22.21-22.59,21.903-11.361-.268-21.522-9.45-21.508-22.104.014-12.581,10.427-22.278,22.629-21.994,11.969.279,21.786,10.209,21.47,22.194Z"/>
            <path class="cls-18" d="m503.821,359.357c1.421.066,3.283.498,4.796,1.905,2.464,2.29,2.614,5.317.342,7.812-.823.903-1.728,1.735-2.634,2.558-.847.769-1.497,1.641-1.723,2.78-.285,1.438-1.202,2.017-2.552,1.624-1.294-.377-1.297-1.572-1.154-2.621.299-2.203,1.86-3.593,3.427-4.952.334-.29.717-.537.999-.87,1.487-1.758,1.36-3.4-.321-4.537-1.47-.995-3.897-.403-4.808,1.208-.326.577-.531,1.221-.815,1.823-.524,1.11-1.42,1.65-2.58,1.204-1.144-.44-1.405-1.351-1.1-2.592.769-3.131,3.806-5.339,8.123-5.343Z"/>
            <path class="cls-15" d="m502.795,382.072c-1.271-.012-2.113-.925-2.059-2.258.054-1.311.741-2.044,2.063-2.095,1.32-.051,2.369,1,2.32,2.267-.048,1.226-1.02,2.098-2.324,2.086Z"/>
          </g>
        </g>
        <g>
          <path class="cls-3" d="m105.535,355.745v27.721c0,3.45,2.808,6.244,6.257,6.235,25.312-.061,20.186-.046,45.511-.044,3.444,0,6.242-2.791,6.242-6.235v-27.63c0-3.441-2.787-6.231-6.228-6.235l-45.54-.046c-3.447-.004-6.243,2.789-6.243,6.235Z"/>
          <text class="cls-24" transform="translate(115.915 377.444)"><tspan x="0" y="0">합</tspan></text>
          <path class="cls-5" d="m149.967,365.711c1.503,0,3.006-.003,4.509.001.951.003,1.744.288,2.197,1.211.47.958.064,1.702-.534,2.425-1.451,1.754-2.859,3.543-4.343,5.268-1.318,1.533-2.389,1.523-3.72-.029-1.519-1.771-2.972-3.598-4.452-5.402-.521-.635-.812-1.313-.452-2.145.374-.865,1.045-1.293,1.954-1.309,1.614-.027,3.228-.008,4.842-.008v-.013Z"/>
        </g>
        <text class="cls-26" transform="translate(178.915 377.954)"><tspan x="0" y="0">에</tspan></text>
        <text class="cls-26" transform="translate(351.292 377.954)"><tspan x="0" y="0">만큼 더하기</tspan></text>
      </g>
      <g>
        <path class="cls-13" d="m238.312,388.66c-10.975,0-19.903-8.928-19.903-19.903s8.929-19.903,19.903-19.903h79.62c10.975,0,19.903,8.928,19.903,19.903s-8.928,19.903-19.903,19.903h-79.62Z"/>
        <path class="cls-3" d="m317.933,349.854c10.423,0,18.903,8.48,18.903,18.903s-8.48,18.903-18.903,18.903h-79.62c-10.423,0-18.903-8.48-18.903-18.903s8.48-18.903,18.903-18.903h79.62m0-2h-79.62c-11.497,0-20.903,9.406-20.903,20.903s9.407,20.903,20.903,20.903h79.62c11.497,0,20.903-9.407,20.903-20.903s-9.406-20.903-20.903-20.903h0Z"/>
      </g>
      <rect class="cls-3" x="232.893" y="349.273" width="57.3" height="38.968" rx="3.871" ry="3.871"/>
      <text class="cls-27" transform="translate(303.103 375.819)"><tspan x="0" y="0">값</tspan></text>
      <text class="cls-27" transform="translate(243.418 375.82)"><tspan x="0" y="0">수</tspan></text>
      <path class="cls-5" d="m274.5,364.079c1.503,0,3.006-.003,4.509.001.951.003,1.744.288,2.197,1.211.47.958.064,1.702-.534,2.425-1.451,1.754-2.859,3.543-4.343,5.268-1.318,1.533-2.389,1.523-3.72-.029-1.519-1.771-2.972-3.598-4.452-5.402-.521-.635-.812-1.313-.452-2.145.374-.865,1.045-1.293,1.954-1.309,1.614-.027,3.228-.008,4.842-.008v-.013Z"/>
      <g>
        <g>
          <path class="cls-36" d="m398.063,428.791H74.357s0,0,0,0l-12.543,11.548s0,0,0,0l-12.023-10.98c-.238-.218-.622-.049-.622.274v54.741c0,.047.011.092.028.135h-.003l.004.004c.02.048.048.093.087.13h.056l11.328,10.345c.663.605,1.678.603,2.338-.005l10.91-10.045c.212-.195.49-.304.779-.304l323.37-.101c15.329,0,27.871-12.542,27.871-27.871h0c0-15.329-12.542-27.871-27.871-27.871Z"/>
          <g>
            <path class="cls-8" d="m419.012,456.706c.233,11.599-9.583,22.21-22.59,21.903-11.361-.268-21.522-9.45-21.508-22.104.014-12.581,10.427-22.278,22.629-21.994,11.969.279,21.786,10.209,21.47,22.194Z"/>
            <path class="cls-18" d="m397.28,446.543c1.421.066,3.283.498,4.796,1.905,2.464,2.29,2.614,5.317.342,7.812-.823.903-1.728,1.735-2.634,2.558-.847.769-1.497,1.641-1.723,2.78-.285,1.438-1.202,2.017-2.552,1.624-1.294-.377-1.297-1.572-1.154-2.621.299-2.203,1.86-3.593,3.427-4.952.334-.29.717-.537.999-.87,1.487-1.758,1.36-3.4-.321-4.537-1.47-.995-3.897-.403-4.808,1.208-.326.577-.531,1.221-.815,1.823-.524,1.11-1.42,1.65-2.58,1.204-1.144-.44-1.405-1.351-1.1-2.592.769-3.131,3.806-5.339,8.123-5.343Z"/>
            <path class="cls-15" d="m396.254,469.257c-1.271-.012-2.113-.925-2.059-2.258.054-1.311.741-2.044,2.063-2.095,1.32-.051,2.369,1,2.32,2.267-.048,1.226-1.02,2.098-2.324,2.086Z"/>
          </g>
          <g>
            <g>
              <circle class="cls-16" cx="209.827" cy="455.942" r="19.903" transform="translate(-273.838 590.026) rotate(-80.782)"/>
              <path class="cls-19" d="m209.828,437.039c10.423,0,18.903,8.48,18.903,18.903s-8.48,18.903-18.903,18.903-18.903-8.48-18.903-18.903,8.48-18.903,18.903-18.903m0-2c-11.497,0-20.903,9.406-20.903,20.903h0c0,11.497,9.406,20.903,20.903,20.903s20.903-9.406,20.903-20.903h0c0-11.497-9.406-20.903-20.903-20.903h0Z"/>
            </g>
            <text class="cls-30" transform="translate(204.155 463.005)"><tspan x="0" y="0">1</tspan></text>
          </g>
        </g>
        <g>
          <path class="cls-3" d="m78.073,442.93v27.721c0,3.45,2.808,6.244,6.257,6.235,25.312-.061,20.186-.046,45.511-.044,3.444,0,6.242-2.791,6.242-6.235v-27.63c0-3.441-2.787-6.231-6.228-6.235l-45.54-.046c-3.447-.004-6.243,2.789-6.243,6.235Z"/>
          <text class="cls-24" transform="translate(88.452 464.629)"><tspan x="0" y="0">수</tspan></text>
          <path class="cls-5" d="m122.505,452.897c1.503,0,3.006-.003,4.509.001.951.003,1.744.288,2.197,1.211.47.958.064,1.702-.534,2.425-1.451,1.754-2.859,3.543-4.343,5.268-1.318,1.533-2.389,1.523-3.72-.029-1.519-1.771-2.972-3.598-4.452-5.402-.521-.635-.812-1.313-.452-2.145.374-.865,1.045-1.293,1.954-1.309,1.614-.027,3.228-.008,4.842-.008v-.013Z"/>
        </g>
        <text class="cls-26" transform="translate(151.453 465.139)"><tspan x="0" y="0">에</tspan></text>
        <text class="cls-26" transform="translate(244.751 465.139)"><tspan x="0" y="0">만큼 더하기</tspan></text>
      </g>
      <g>
        <g>
          <path class="cls-17" d="m178.721,333.469c-10.975,0-19.903-8.928-19.903-19.903s8.929-19.903,19.903-19.903h323.272c10.975,0,19.903,8.928,19.903,19.903s-8.929,19.903-19.903,19.903H178.721Z"/>
          <path class="cls-9" d="m501.992,294.663c10.423,0,18.903,8.48,18.903,18.903s-8.48,18.903-18.903,18.903H178.721c-10.423,0-18.903-8.48-18.903-18.903s8.48-18.903,18.903-18.903h323.272m0-2H178.721c-11.497,0-20.903,9.406-20.903,20.903s9.407,20.903,20.903,20.903h323.272c11.497,0,20.903-9.406,20.903-20.903s-9.406-20.903-20.903-20.903h0Z"/>
        </g>
        <g>
          <g>
            <path class="cls-13" d="m191.083,333.469c-10.975,0-19.903-8.928-19.903-19.903s8.928-19.903,19.903-19.903h79.62c10.975,0,19.903,8.928,19.903,19.903s-8.929,19.903-19.903,19.903h-79.62Z"/>
            <path class="cls-3" d="m270.703,294.663c10.423,0,18.903,8.48,18.903,18.903s-8.48,18.903-18.903,18.903h-79.62c-10.423,0-18.903-8.48-18.903-18.903s8.48-18.903,18.903-18.903h79.62m0-2h-79.62c-11.497,0-20.903,9.406-20.903,20.903s9.406,20.903,20.903,20.903h79.62c11.497,0,20.903-9.406,20.903-20.903s-9.406-20.903-20.903-20.903h0Z"/>
          </g>
          <rect class="cls-3" x="185.663" y="294.082" width="57.3" height="38.968" rx="3.871" ry="3.871"/>
          <text class="cls-27" transform="translate(255.873 320.629)"><tspan x="0" y="0">값</tspan></text>
          <text class="cls-27" transform="translate(196.188 320.629)"><tspan x="0" y="0">수</tspan></text>
          <path class="cls-5" d="m227.27,308.889c1.503,0,3.006-.003,4.509.001.951.003,1.744.288,2.197,1.211.47.958.064,1.702-.534,2.425-1.451,1.754-2.859,3.543-4.343,5.268-1.318,1.533-2.389,1.523-3.72-.029-1.519-1.771-2.972-3.598-4.452-5.402-.521-.635-.812-1.313-.452-2.145.374-.865,1.045-1.293,1.954-1.309,1.614-.027,3.228-.008,4.842-.008v-.013Z"/>
        </g>
        <g>
          <path class="cls-9" d="m415.157,299.706v27.721c0,3.45,2.808,6.244,6.257,6.235,25.312-.061,55.572-.046,80.898-.044,3.444,0,6.242-2.791,6.242-6.235v-27.63c0-3.441-2.787-6.231-6.228-6.235l-80.927-.046c-3.447-.004-6.243,2.789-6.243,6.235Z"/>
          <text class="cls-24" transform="translate(425.537 321.405)"><tspan x="0" y="0">나머지</tspan></text>
          <path class="cls-5" d="m494.975,309.673c1.503,0,3.006-.003,4.509.001.951.003,1.744.288,2.197,1.211.47.958.064,1.702-.534,2.425-1.451,1.754-2.859,3.543-4.343,5.268-1.318,1.533-2.389,1.523-3.72-.029-1.519-1.771-2.972-3.598-4.452-5.402-.521-.635-.812-1.313-.452-2.145.374-.865,1.045-1.293,1.954-1.309,1.614-.027,3.228-.008,4.842-.008v-.013Z"/>
        </g>
      </g>
      <text class="cls-24" transform="translate(306.54 320.314)"><tspan x="0" y="0">/</tspan></text>
      <text class="cls-24" transform="translate(546.637 320.314)"><tspan x="0" y="0">=</tspan></text>
      <text class="cls-24" transform="translate(386.192 320.314)"><tspan x="0" y="0">의</tspan></text>
      <g>
        <g>
          <circle class="cls-16" cx="351.778" cy="313.566" r="19.903" transform="translate(-34.222 583.891) rotate(-76.718)"/>
          <path class="cls-19" d="m351.778,294.663c10.423,0,18.903,8.48,18.903,18.903s-8.48,18.903-18.903,18.903-18.903-8.48-18.903-18.903,8.48-18.903,18.903-18.903m0-2c-11.497,0-20.903,9.406-20.903,20.903s9.406,20.903,20.903,20.903,20.903-9.406,20.903-20.903-9.406-20.903-20.903-20.903h0Z"/>
        </g>
        <text class="cls-30" transform="translate(345.073 320.629)"><tspan x="0" y="0">2</tspan></text>
      </g>
    </g>
  </g>
  <g>
    <path class="cls-33" d="m1388.771,515.878H47.101l-12.543,11.141-12.024-10.593c-.238-.21-.622-.047-.622.265v52.811c0,.098.042.191.115.259l12.53,11.31,12.351-11.415h1342.249c15.484,0,27.484-12.1,27.484-26.888h0c0-14.789-12.542-26.888-27.871-26.888Z"/>
    <g>
      <path class="cls-6" d="m1364.485,543.272c.085-12.114,9.79-22.01,22.342-21.937,12.159.071,22.178,9.883,21.961,22.471-.203,11.764-9.754,21.773-22.498,21.598-12.042-.166-21.794-9.762-21.805-22.132Z"/>
      <path class="cls-21" d="m1387.385,544.709c2.854.024,5.612,2.731,5.624,5.52.014,3.13-2.722,5.849-5.866,5.829-3.016-.018-5.566-2.746-5.533-5.919.031-3.007,2.636-5.457,5.775-5.43Z"/>
      <rect class="cls-21" x="1389.773" y="535.094" width="9.448" height="9.448" transform="translate(790.147 -827.949) rotate(45)"/>
      <polygon class="cls-21" points="1385.616 542.773 1385.616 536.34 1380.045 533.124 1374.474 536.34 1374.474 542.773 1380.045 545.989 1385.616 542.773"/>
    </g>
  </g>
  <text class="cls-25" transform="translate(1025.537 551.332)"><tspan x="0" y="0">을(를)</tspan></text>
  <text class="cls-25" transform="translate(1162.944 551.332)"><tspan x="0" y="0">초 동안</tspan></text>
  <g>
    <rect class="cls-4" x="1253.872" y="523.886" width="95.645" height="38.968" rx="3.871" ry="3.871"/>
    <text class="cls-27" transform="translate(1264.397 550.433)"><tspan x="0" y="0">말하기</tspan></text>
    <path class="cls-5" d="m1333.017,538.693c1.503,0,3.006-.003,4.509.001.951.003,1.744.288,2.197,1.211.47.958.064,1.702-.534,2.425-1.451,1.754-2.859,3.543-4.343,5.268-1.318,1.533-2.389,1.523-3.72-.029-1.519-1.771-2.972-3.598-4.452-5.402-.521-.635-.812-1.313-.452-2.145.374-.865,1.045-1.293,1.954-1.309,1.614-.027,3.228-.008,4.842-.008v-.013Z"/>
  </g>
  <g>
    <g>
      <circle class="cls-16" cx="1124.771" cy="542.985" r="19.903" transform="translate(-54.51 954.37) rotate(-45)"/>
      <path class="cls-19" d="m1124.771,524.082c10.423,0,18.903,8.48,18.903,18.903s-8.48,18.903-18.903,18.903-18.903-8.48-18.903-18.903,8.48-18.903,18.903-18.903m0-2c-11.497,0-20.903,9.406-20.903,20.903s9.406,20.903,20.903,20.903,20.903-9.406,20.903-20.903-9.406-20.903-20.903-20.903h0Z"/>
    </g>
    <text class="cls-30" transform="translate(1118.066 550.047)"><tspan x="0" y="0">2</tspan></text>
  </g>
  <text class="cls-25" transform="translate(513.548 551.332)"><tspan x="0" y="0">을(를)</tspan></text>
  <text class="cls-25" transform="translate(650.955 551.332)"><tspan x="0" y="0">초 동안</tspan></text>
  <text class="cls-27" transform="translate(752.408 550.433)"><tspan x="0" y="0">말하기</tspan></text>
  <text class="cls-30" transform="translate(606.078 550.047)"><tspan x="0" y="0">2</tspan></text>
  <g>
    <g>
      <path class="cls-17" d="m60.753,562.888c-10.975,0-19.903-8.928-19.903-19.903s8.928-19.903,19.903-19.903h926.639c10.975,0,19.903,8.928,19.903,19.903s-8.928,19.903-19.903,19.903H60.753Z"/>
      <path class="cls-9" d="m987.393,524.082c10.423,0,18.903,8.479,18.903,18.903s-8.48,18.903-18.903,18.903H60.753c-10.423,0-18.903-8.48-18.903-18.903s8.48-18.903,18.903-18.903h926.639m0-2H60.753c-11.497,0-20.903,9.406-20.903,20.903s9.406,20.903,20.903,20.903h926.639c11.497,0,20.903-9.406,20.903-20.903s-9.406-20.903-20.903-20.903h0Z"/>
    </g>
    <g>
      <path class="cls-17" d="m434.06,562.888c-10.975,0-19.903-8.928-19.903-19.903s8.929-19.903,19.903-19.903h402.996c10.975,0,19.903,8.929,19.903,19.903s-8.928,19.903-19.903,19.903h-402.996Z"/>
      <path class="cls-9" d="m837.056,524.082c10.423,0,18.903,8.48,18.903,18.903s-8.48,18.903-18.903,18.903h-402.996c-10.423,0-18.903-8.48-18.903-18.903s8.48-18.903,18.903-18.903h402.996m0-2h-402.996c-11.497,0-20.903,9.406-20.903,20.903s9.406,20.903,20.903,20.903h402.996c11.497,0,20.903-9.406,20.903-20.903s-9.406-20.903-20.903-20.903h0Z"/>
    </g>
    <g>
      <g>
        <path class="cls-13" d="m446.051,562.888c-10.975,0-19.903-8.928-19.903-19.903s8.928-19.903,19.903-19.903h79.62c10.975,0,19.903,8.928,19.903,19.903s-8.929,19.903-19.903,19.903h-79.62Z"/>
        <path class="cls-3" d="m525.672,524.082c10.423,0,18.903,8.48,18.903,18.903s-8.48,18.903-18.903,18.903h-79.62c-10.423,0-18.903-8.48-18.903-18.903s8.48-18.903,18.903-18.903h79.62m0-2h-79.62c-11.497,0-20.903,9.406-20.903,20.903s9.406,20.903,20.903,20.903h79.62c11.497,0,20.903-9.406,20.903-20.903s-9.406-20.903-20.903-20.903h0Z"/>
      </g>
      <rect class="cls-3" x="440.632" y="523.501" width="57.3" height="38.968" rx="3.871" ry="3.871"/>
      <text class="cls-27" transform="translate(510.842 550.047)"><tspan x="0" y="0">값</tspan></text>
      <text class="cls-27" transform="translate(451.157 550.047)"><tspan x="0" y="0">합</tspan></text>
      <path class="cls-5" d="m482.239,538.307c1.503,0,3.006-.003,4.509.001.951.003,1.744.288,2.197,1.211.47.958.064,1.702-.534,2.425-1.451,1.754-2.859,3.543-4.343,5.268-1.318,1.533-2.389,1.523-3.72-.029-1.519-1.771-2.972-3.598-4.452-5.402-.521-.635-.812-1.313-.452-2.145.374-.865,1.045-1.293,1.954-1.309,1.614-.027,3.228-.008,4.842-.008v-.013Z"/>
    </g>
    <g>
      <path class="cls-16" d="m83.403,562.888c-10.975,0-19.903-8.928-19.903-19.903s8.929-19.903,19.903-19.903h225.233c10.975,0,19.903,8.929,19.903,19.903s-8.929,19.903-19.903,19.903H83.403Z"/>
      <path class="cls-19" d="m308.636,524.082c10.423,0,18.903,8.48,18.903,18.903s-8.48,18.903-18.903,18.903H83.403c-10.423,0-18.903-8.48-18.903-18.903s8.48-18.903,18.903-18.903h225.233m0-2H83.403c-11.497,0-20.903,9.406-20.903,20.903s9.406,20.903,20.903,20.903h225.233c11.497,0,20.903-9.406,20.903-20.903s-9.406-20.903-20.903-20.903h0Z"/>
    </g>
    <text class="cls-28" transform="translate(77.94 550.048)"><tspan x="0" y="0">1부터 100까지 짝수의 합은</tspan></text>
    <g>
      <path class="cls-16" d="m650.57,562.888c-10.975,0-19.903-8.928-19.903-19.903s8.928-19.903,19.903-19.903h34.629c10.975,0,19.903,8.929,19.903,19.903s-8.928,19.903-19.903,19.903h-34.629Z"/>
      <path class="cls-19" d="m685.199,524.082c10.423,0,18.903,8.48,18.903,18.903s-8.48,18.903-18.903,18.903h-34.629c-10.423,0-18.903-8.48-18.903-18.903s8.48-18.903,18.903-18.903h34.629m0-2h-34.629c-11.497,0-20.903,9.406-20.903,20.903s9.406,20.903,20.903,20.903h34.629c11.497,0,20.903-9.406,20.903-20.903s-9.406-20.903-20.903-20.903h0Z"/>
    </g>
    <text class="cls-31" transform="translate(646.107 550.048)"><tspan class="cls-38" x="0" y="0">이야</tspan><tspan class="cls-37" x="37.587" y="0">.</tspan></text>
    <text class="cls-29" transform="translate(344.153 550.048)"><tspan x="0" y="0">과(와)</tspan></text>
    <text class="cls-29" transform="translate(562.509 550.048)"><tspan x="0" y="0">과(와)</tspan></text>
    <text class="cls-29" transform="translate(720.606 550.048)"><tspan x="0" y="0">을(를) 합친 값</tspan></text>
    <text class="cls-29" transform="translate(872.735 550.048)"><tspan x="0" y="0">을(를) 합친 값</tspan></text>
  </g>
  <rect class="cls-1" x="456.669" y="236.987" width="100.143" height="42.839" rx="10" ry="10"/>
  <rect class="cls-1" x="217.472" y="348.186" width="121.364" height="42.839" rx="10" ry="10"/>
  <rect class="cls-1" x="188.924" y="434.523" width="42.839" height="42.839" rx="10" ry="10"/>
  <rect class="cls-1" x="341.857" y="241.133" width="73.3" height="33.857" rx="10" ry="10"/>
</svg>