<?xml version="1.0" encoding="UTF-8"?>
<svg id="_레이어_1" data-name="레이어 1" xmlns="http://www.w3.org/2000/svg" viewBox="0 0 623.195 68.649">
  <defs>
    <style>
      .cls-1 {
        fill: #c72042;
      }

      .cls-1, .cls-2, .cls-3, .cls-4, .cls-5, .cls-6 {
        stroke-width: 0px;
      }

      .cls-7 {
        fill: #fff;
      }

      .cls-7, .cls-8, .cls-9 {
        font-family: Pretendard-Bold-KSCpc-EUC-H, Pretendard;
        font-weight: 700;
      }

      .cls-7, .cls-9 {
        font-size: 22px;
        letter-spacing: -.025em;
      }

      .cls-2 {
        fill: #fefdfe;
      }

      .cls-3 {
        fill: #c62042;
      }

      .cls-10 {
        fill: #fe3a61;
        stroke: #c62142;
        stroke-linecap: round;
        stroke-linejoin: round;
        stroke-width: 2px;
      }

      .cls-8 {
        fill: #fefefe;
        font-size: 26px;
      }

      .cls-4 {
        fill: #fedd81;
      }

      .cls-5 {
        fill: #fe9b00;
      }

      .cls-6 {
        fill: #fe5576;
      }
    </style>
  </defs>
  <path class="cls-10" d="m594.324,1H26.189s0,0,0,0l-12.543,11.548s0,0,0,0L1.622,1.568c-.238-.218-.622-.049-.622.274v54.741c0,.047.011.092.028.135h-.003l.004.004c.02.048.048.093.087.13h.056l11.328,10.345c.663.605,1.678.603,2.338-.005l10.91-10.045c.212-.195.49-.304.779-.304l567.799-.101c15.329,0,27.871-12.542,27.871-27.871h0c0-15.329-12.542-27.871-27.871-27.871Z"/>
  <g>
    <path class="cls-3" d="m570.975,28.652c.085-12.114,9.79-22.01,22.342-21.937,12.159.071,22.178,9.883,21.961,22.471-.203,11.764-9.754,21.773-22.498,21.598-12.042-.166-21.794-9.762-21.805-22.132Z"/>
    <path class="cls-6" d="m593.875,30.089c2.854.024,5.612,2.731,5.624,5.52.014,3.13-2.722,5.849-5.866,5.829-3.016-.018-5.566-2.746-5.533-5.919.031-3.007,2.636-5.457,5.775-5.43Z"/>
    <rect class="cls-6" x="596.262" y="20.474" width="9.448" height="9.448" transform="translate(193.842 -417.581) rotate(45)"/>
    <polygon class="cls-6" points="592.106 28.153 592.106 21.72 586.535 18.504 580.964 21.72 580.964 28.153 586.535 31.369 592.106 28.153"/>
  </g>
  <g>
    <rect class="cls-1" x="458.213" y="9.287" width="95.645" height="38.968" rx="3.871" ry="3.871"/>
    <text class="cls-7" transform="translate(468.738 35.833)"><tspan x="0" y="0">말하기</tspan></text>
    <path class="cls-2" d="m537.358,24.094c1.503,0,3.006-.003,4.509.001.951.003,1.744.288,2.197,1.211.47.958.064,1.702-.534,2.425-1.451,1.754-2.859,3.543-4.343,5.268-1.318,1.533-2.389,1.523-3.72-.029-1.519-1.771-2.972-3.598-4.452-5.402-.521-.635-.812-1.313-.452-2.145.374-.865,1.045-1.293,1.954-1.309,1.614-.027,3.228-.008,4.842-.008v-.013Z"/>
  </g>
  <g>
    <path class="cls-4" d="m49.313,48.674c-10.975,0-19.903-8.929-19.903-19.903s8.928-19.902,19.903-19.902h161.786c10.975,0,19.903,8.928,19.903,19.902s-8.929,19.903-19.903,19.903H49.313Z"/>
    <path class="cls-5" d="m211.099,9.868c10.423,0,18.903,8.48,18.903,18.903s-8.48,18.903-18.903,18.903H49.313c-10.423,0-18.903-8.48-18.903-18.903s8.48-18.903,18.903-18.903h161.786m0-2H49.313c-11.497,0-20.903,9.406-20.903,20.903s9.406,20.903,20.903,20.903h161.786c11.497,0,20.903-9.406,20.903-20.903s-9.406-20.903-20.903-20.903h0Z"/>
  </g>
  <text class="cls-9" transform="translate(46.85 35.833)"><tspan x="0" y="0">간식으로 뭘 먹을까?</tspan></text>
  <g>
    <g>
      <path class="cls-4" d="m338.655,48.674c-10.975,0-19.903-8.929-19.903-19.903s8.929-19.902,19.903-19.902,19.903,8.928,19.903,19.902-8.929,19.903-19.903,19.903Z"/>
      <path class="cls-5" d="m338.655,9.868c10.423,0,18.903,8.48,18.903,18.903s-8.48,18.903-18.903,18.903-18.903-8.48-18.903-18.903,8.48-18.903,18.903-18.903m0-2c-11.544,0-20.903,9.359-20.903,20.903s9.359,20.903,20.903,20.903,20.903-9.359,20.903-20.903-9.359-20.903-20.903-20.903h0Z"/>
    </g>
    <text class="cls-9" transform="translate(332.216 35.497)"><tspan x="0" y="0">2</tspan></text>
  </g>
  <text class="cls-8" transform="translate(241.712 36.954)"><tspan x="0" y="0">을(를)</tspan></text>
  <text class="cls-8" transform="translate(371.776 36.954)"><tspan x="0" y="0">초 동안</tspan></text>
</svg>