<?xml version="1.0" encoding="UTF-8"?>
<svg id="_레이어_1" data-name="레이어 1" xmlns="http://www.w3.org/2000/svg" viewBox="0 0 1539.52 356.335">
  <defs>
    <style>
      .cls-1, .cls-2, .cls-3, .cls-4, .cls-5, .cls-6 {
        stroke-width: 2px;
      }

      .cls-1, .cls-4 {
        stroke-miterlimit: 10;
      }

      .cls-1, .cls-7, .cls-6 {
        fill: #dd47d8;
      }

      .cls-1, .cls-6 {
        stroke: #b819b3;
      }

      .cls-8, .cls-9, .cls-10, .cls-11, .cls-12, .cls-13, .cls-14, .cls-15, .cls-16, .cls-17, .cls-18, .cls-19, .cls-7, .cls-20, .cls-21, .cls-22, .cls-23, .cls-24, .cls-25, .cls-26, .cls-27 {
        stroke-width: 0px;
      }

      .cls-8, .cls-28, .cls-29 {
        fill: #fefefe;
      }

      .cls-9 {
        fill: #009400;
      }

      .cls-30 {
        letter-spacing: -.025em;
      }

      .cls-10 {
        fill: #b819b3;
      }

      .cls-2 {
        fill: #00b400;
      }

      .cls-2, .cls-3, .cls-5, .cls-6 {
        stroke-linecap: round;
        stroke-linejoin: round;
      }

      .cls-2, .cls-4 {
        stroke: #009400;
      }

      .cls-11 {
        fill: #c72042;
      }

      .cls-31 {
        fill: #fff;
      }

      .cls-31, .cls-28, .cls-29, .cls-32, .cls-33 {
        font-family: Pretendard-Bold-KSCpc-EUC-H, Pretendard;
        font-weight: 700;
      }

      .cls-31, .cls-29, .cls-32, .cls-33 {
        font-size: 22px;
      }

      .cls-31, .cls-32 {
        letter-spacing: -.025em;
      }

      .cls-12 {
        fill: #3bce3b;
      }

      .cls-13 {
        fill: #fefdfe;
      }

      .cls-34 {
        letter-spacing: -.057em;
      }

      .cls-14 {
        fill: #c62042;
      }

      .cls-3 {
        fill: #fe3a61;
        stroke: #c62142;
      }

      .cls-4, .cls-27 {
        fill: #00b300;
      }

      .cls-28 {
        font-size: 26px;
      }

      .cls-15 {
        fill: #b719b2;
      }

      .cls-16 {
        fill: #fe9b01;
      }

      .cls-17 {
        fill: #ff7f00;
      }

      .cls-5 {
        fill: #19baea;
        stroke: #1498c0;
      }

      .cls-18 {
        fill: #6dddfe;
      }

      .cls-19 {
        fill: #1498c0;
      }

      .cls-20 {
        fill: #fafdfa;
      }

      .cls-21 {
        fill: #f577f1;
      }

      .cls-22 {
        fill: #fedd81;
      }

      .cls-23 {
        fill: #f4af18;
      }

      .cls-24 {
        fill: #f677f2;
      }

      .cls-25 {
        fill: #fe9b00;
      }

      .cls-26 {
        fill: #fe5576;
      }
    </style>
  </defs>
  <g>
    <g>
      <path class="cls-2" d="m339.768,66.478l-293.296-.885s0,0,0,0l-12.578,11.51s0,0,0,0l-11.99-11.017c-.238-.218-.622-.05-.623.272l-.165,54.741c0,.047.011.092.027.135h-.003s.004.004.004.004c.019.049.048.093.086.13h.056s11.296,10.379,11.296,10.379c.661.607,1.676.608,2.338.002l10.941-10.012c.213-.195.491-.303.78-.302l292.959.783c15.329.046,27.909-12.458,27.955-27.787h0c.046-15.329-12.458-27.909-27.787-27.955Z"/>
      <text class="cls-28" transform="translate(183.595 101.296) rotate(.173)"><tspan x="0" y="0">신호 보내기</tspan></text>
      <g>
        <path class="cls-9" d="m316.335,94.059c.122-12.113,9.856-21.98,22.408-21.869,12.158.108,22.148,9.95,21.893,22.537-.239,11.764-9.82,21.744-22.563,21.53-12.041-.202-21.764-9.827-21.738-22.198Z"/>
        <g>
          <path class="cls-12" d="m350.8,88.439c0,1.542-.008,3.085.003,4.627.007.98-.264,1.487-1.38,1.043-2.268-.902-4.509-.654-6.762.172-1.828.67-3.715,1.034-5.658.417-.884-.281-1.324-.78-1.303-1.8.062-3.028.029-6.059.018-9.089-.004-1.006.123-1.673,1.394-1.023,1.992,1.019,3.969.447,5.902-.261,2.224-.814,4.426-1.176,6.743-.28.829.321,1.084.737,1.057,1.566-.05,1.541-.014,3.084-.015,4.627Z"/>
          <path class="cls-12" d="m334.164,92.641c0,3.197.023,6.395-.016,9.592-.01.805.134,1.195,1.061,1.136,1.142-.072,2.005.452,1.928,1.706-.072,1.164-.992,1.47-2.018,1.474-1.655.007-3.309.007-4.964,0-1.047-.005-1.902-.364-1.951-1.54-.05-1.196.799-1.68,1.838-1.632,1.034.048,1.134-.418,1.13-1.268-.03-5.898-.016-11.797-.015-17.695,0-.441.007-.882,0-1.323-.018-1.057.309-1.93,1.507-1.952,1.222-.022,1.511.85,1.507,1.911-.014,3.197-.005,6.394-.005,9.592Z"/>
        </g>
      </g>
      <g>
        <path class="cls-9" d="m109.003,73.207c17.877.054,35.754.108,53.631.162,2.815.009,4.327,2.439,4.315,6.947-.024,8.742-.05,17.483-.079,26.225-.015,4.509-1.542,6.93-4.357,6.922-35.754-.107-71.508-.241-107.262-.265-2.308-.002-4.342-2.778-4.314-6.923.059-8.797.086-17.595.08-26.392-.003-4.145,2.048-6.92,4.356-6.899,17.876.164,35.754.169,53.631.222Z"/>
        <text class="cls-29" transform="translate(61.273 100.927) rotate(.173)"><tspan x="0" y="0">아무거나 </tspan></text>
        <path class="cls-13" d="m150.914,89.483c1.503.005,3.006.006,4.509.015.951.006,1.743.294,2.193,1.217.467.959.059,1.702-.542,2.423-1.456,1.749-2.87,3.535-4.359,5.255-1.323,1.529-2.393,1.516-3.72-.04-1.514-1.775-2.961-3.607-4.436-5.415-.519-.637-.808-1.315-.445-2.147.377-.864,1.049-1.29,1.958-1.303,1.614-.023,3.228.002,4.842.007v-.013Z"/>
      </g>
    </g>
    <g>
      <path class="cls-4" d="m21.64,65.053s-5.2-2.719-7.532-4.568c-7.301-5.786-11.647-13.18-12.825-22.461C.212,29.582,2.193,21.879,7.067,15.04,12.681,7.161,20.381,2.463,30.1,1.274c9.447-1.156,17.928,1.343,25.093,7.428,2.309,1.961,4.441,2.392,7.168,2.399,81.918.211,163.835.465,245.753.713,13.081.04,24.448,9.349,26.741,22.14,2.77,15.451-7.86,29.794-23.175,31.684-.205.025-.396.168-.594.256-.891.016-1.782.048-2.673.045-86.874-.26-173.747-.518-260.621-.816-1.521-.005-2.596.406-3.649,1.498-2.976,3.089-6.092,6.042-9.092,9.109-.791.809-1.254.903-2.094.031-3.131-3.25-6.346-6.419-9.533-9.615-.505-.507-1.787-1.095-1.787-1.095Z"/>
      <path class="cls-8" d="m34.016,62.097c-15.48-.051-28.037-12.66-27.997-28.114.04-15.539,12.694-28.067,28.28-27.997,15.45.069,27.973,12.72,27.913,28.197-.06,15.443-12.708,27.964-28.196,27.914Z"/>
      <path class="cls-27" d="m22.752,33.067c.099-1.896-.183-4.236.152-6.562.711-4.937,4.657-8.567,9.628-8.799,1.609-.075,3.236-.154,4.823.234,4.693,1.146,7.831,5.11,7.914,10.093.06,3.614.045,7.23.006,10.844-.07,6.422-4.581,10.616-11.359,10.611-6.621-.005-11.083-4.255-11.16-10.647-.021-1.779-.003-3.559-.003-5.774Z"/>
      <path class="cls-20" d="m32.083,26.92c.035-.717.008-1.442.123-2.144.154-.937.826-1.465,1.736-1.493.99-.03,1.793.497,1.874,1.509.118,1.478.107,2.978-.004,4.457-.07.929-.81,1.468-1.722,1.499-.995.033-1.71-.518-1.884-1.517-.131-.754-.088-1.539-.124-2.311Z"/>
      <text class="cls-28" transform="translate(73.185 46.251) rotate(.173)"><tspan x="0" y="0">오브젝트를 클릭했을 때</tspan></text>
    </g>
    <g>
      <path class="cls-6" d="m393.795,121.46H46.305s0,0,0,0l-12.543,11.548s0,0,0,0l-12.023-10.98c-.238-.218-.622-.049-.622.274v54.741c0,.047.011.092.028.135h-.003l.004.004c.02.048.048.093.087.13h.056l11.328,10.345c.663.605,1.678.603,2.338-.005l10.91-10.045c.212-.195.49-.304.779-.304l347.154-.101c15.329,0,27.871-12.542,27.871-27.871h0c0-15.329-12.542-27.871-27.871-27.871Z"/>
      <text class="cls-28" transform="translate(289.183 156.769)"><tspan x="0" y="0">숨기기</tspan></text>
      <text class="cls-28" transform="translate(51.86 156.769)"><tspan x="0" y="0">리스트</tspan></text>
      <g>
        <path class="cls-10" d="m191.374,128.886c17.877,0,59.434,0,77.311,0,2.815,0,4.335,2.426,4.336,6.934.003,8.742.003,17.483,0,26.225-.001,4.509-1.521,6.935-4.336,6.935-35.754,0-95.188-.025-130.942.059-2.308.005-4.351-2.765-4.335-6.91.033-8.797.033-17.595,0-26.392-.015-4.145,2.027-6.926,4.335-6.912,17.877.11,35.754.061,53.631.061Z"/>
        <text class="cls-29" transform="translate(143.788 156.769)"><tspan x="0" y="0">간식 리스트</tspan></text>
        <path class="cls-13" d="m257.014,145.035c1.503,0,3.006-.003,4.509.001.951.003,1.744.288,2.197,1.211.47.958.064,1.702-.534,2.425-1.451,1.754-2.859,3.543-4.343,5.268-1.318,1.533-2.389,1.523-3.72-.029-1.519-1.771-2.972-3.598-4.452-5.402-.521-.635-.812-1.313-.452-2.145.374-.865,1.045-1.293,1.954-1.309,1.614-.027,3.228-.008,4.842-.008v-.013Z"/>
      </g>
      <g>
        <path class="cls-15" d="m414.744,149.375c.233,11.599-9.583,22.21-22.59,21.903-11.361-.268-21.522-9.45-21.508-22.104.014-12.581,10.427-22.278,22.629-21.994,11.969.279,21.786,10.209,21.47,22.194Z"/>
        <path class="cls-24" d="m393.012,139.212c1.421.066,3.283.498,4.796,1.905,2.464,2.29,2.614,5.317.342,7.812-.823.903-1.728,1.735-2.634,2.558-.847.769-1.497,1.641-1.723,2.78-.285,1.438-1.202,2.017-2.552,1.624-1.294-.377-1.297-1.572-1.154-2.621.299-2.203,1.86-3.593,3.427-4.952.334-.29.717-.537.999-.87,1.487-1.758,1.36-3.4-.321-4.537-1.47-.995-3.897-.403-4.808,1.208-.326.577-.531,1.221-.815,1.823-.524,1.11-1.42,1.65-2.58,1.204-1.144-.44-1.405-1.351-1.1-2.592.769-3.131,3.806-5.339,8.123-5.343Z"/>
        <path class="cls-21" d="m391.986,161.927c-1.271-.012-2.113-.925-2.059-2.258.054-1.311.741-2.044,2.063-2.095,1.32-.051,2.369,1,2.32,2.267-.048,1.226-1.02,2.098-2.324,2.086Z"/>
      </g>
    </g>
    <g>
      <g>
        <path class="cls-5" d="m268.118,177.202H46.305s0,0,0,0l-12.543,11.548s0,0,0,0l-12.023-10.98c-.238-.218-.622-.049-.622.274v54.741c0,.047.011.092.028.135h-.003l.004.004c.02.048.048.093.087.13h.056l11.328,10.345c.663.605,1.678.603,2.338-.005l10.91-10.045c.212-.195.49-.304.779-.304l221.477-.101c15.329,0,27.871-12.542,27.871-27.871h0c0-15.329-12.542-27.871-27.871-27.871Z"/>
        <text class="cls-28" transform="translate(107.723 213.285)"><tspan x="0" y="0">초 기다리기</tspan></text>
        <g>
          <path class="cls-19" d="m288.866,205.117c.233,11.599-9.583,22.21-22.59,21.903-11.361-.268-21.522-9.45-21.508-22.104.014-12.581,10.427-22.278,22.629-21.994,11.969.279,21.786,10.209,21.47,22.194Z"/>
          <path class="cls-18" d="m274.95,206.649c-.095,0-.185.021-.279.028l-4.684-7.075c.468-.646.753-1.433.753-2.292,0-2.165-1.755-3.919-3.919-3.919s-3.919,1.755-3.919,3.919c0,.859.284,1.646.753,2.292l-4.684,7.075c-.094-.007-.183-.028-.279-.028-2.165,0-3.919,1.755-3.919,3.919s1.755,3.919,3.919,3.919,3.919-1.755,3.919-3.919c0-1.153-.507-2.18-1.3-2.897l4.386-6.625c.358.108.731.183,1.124.183s.766-.076,1.124-.183l4.386,6.625c-.793.717-1.3,1.744-1.3,2.897,0,2.165,1.755,3.919,3.919,3.919s3.919-1.755,3.919-3.919-1.755-3.919-3.919-3.919Z"/>
        </g>
      </g>
      <g>
        <path class="cls-16" d="m90.19,204.096c.462,11.521-9.772,20.946-20.786,21.039-11.933.1-21.41-9.928-21.395-21.035.015-11.196,9.427-21.07,20.981-21.145,11.874-.077,21.767,10.091,21.199,21.141Z"/>
        <path class="cls-22" d="m88.18,204.211c.429,9.99-8.671,18.974-19.039,18.913-11.074-.066-19.206-9.679-19.129-19.142.082-10.145,8.896-19.056,19.081-19.017,10.739.041,19.646,9.25,19.087,19.247Z"/>
        <text class="cls-32" transform="translate(61.856 211.161)"><tspan x="0" y="0">2</tspan></text>
      </g>
    </g>
    <g>
      <g>
        <path class="cls-1" d="m999.602,232.944H46.305s0,0,0,0l-12.543,11.548s0,0,0,0l-12.023-10.98c-.238-.218-.622-.049-.622.274v54.741c0,.047.011.092.028.135h-.003l.004.004c.02.048.048.093.087.13h.056l11.328,10.345c.663.605,1.678.603,2.338-.005l10.91-10.045c.212-.195.49-.304.779-.304l952.961-.101c15.329,0,27.871-12.542,27.871-27.871h0c0-15.329-12.542-27.871-27.871-27.871Z"/>
        <path class="cls-10" d="m108.858,240.37c17.877,0,41.174,0,59.051,0,2.815,0,4.335,2.426,4.336,6.934.003,8.742.003,17.483,0,26.225-.001,4.509-1.521,6.935-4.336,6.935-35.754,0-76.928-.025-112.682.059-2.308.005-4.351-2.765-4.335-6.91.033-8.797.033-17.595,0-26.392-.015-4.145,2.027-6.926,4.335-6.912,17.877.11,35.754.061,53.631.061Z"/>
        <text class="cls-29" transform="translate(61.272 268.253)"><tspan x="0" y="0">항목 번호</tspan></text>
        <text class="cls-28" transform="translate(186.691 268.253)"><tspan x="0" y="0">을(를)</tspan></text>
        <text class="cls-28" transform="translate(824.175 268.253)"><tspan x="0" y="0">(으)로 정하기</tspan></text>
        <path class="cls-13" d="m156.237,256.519c1.503,0,3.006-.003,4.509.001.951.003,1.744.288,2.197,1.211.47.958.064,1.702-.534,2.425-1.451,1.754-2.859,3.543-4.343,5.268-1.318,1.533-2.389,1.523-3.72-.029-1.519-1.771-2.972-3.598-4.452-5.402-.521-.635-.812-1.313-.452-2.145.374-.865,1.045-1.293,1.954-1.309,1.614-.027,3.228-.008,4.842-.008v-.013Z"/>
        <g>
          <path class="cls-15" d="m1020.551,260.859c.233,11.599-9.583,22.21-22.59,21.903-11.361-.268-21.522-9.45-21.508-22.104.014-12.581,10.427-22.278,22.629-21.994,11.969.279,21.786,10.209,21.47,22.194Z"/>
          <path class="cls-24" d="m998.819,250.696c1.421.066,3.283.498,4.796,1.905,2.464,2.29,2.614,5.317.342,7.812-.823.903-1.728,1.735-2.634,2.558-.847.769-1.497,1.641-1.723,2.78-.285,1.438-1.202,2.017-2.552,1.624-1.294-.377-1.297-1.572-1.154-2.621.299-2.203,1.86-3.593,3.427-4.952.334-.29.717-.537.999-.87,1.487-1.758,1.36-3.4-.321-4.537-1.47-.995-3.897-.403-4.808,1.208-.326.577-.531,1.221-.815,1.823-.524,1.11-1.42,1.65-2.58,1.204-1.144-.44-1.405-1.351-1.1-2.592.769-3.131,3.806-5.339,8.123-5.343Z"/>
          <path class="cls-21" d="m997.793,273.41c-1.271-.012-2.113-.925-2.059-2.258.054-1.311.741-2.044,2.063-2.095,1.32-.051,2.369,1,2.32,2.267-.048,1.226-1.02,2.098-2.324,2.086Z"/>
        </g>
      </g>
      <g>
        <path class="cls-23" d="m278.977,280.616c-10.975,0-19.903-8.928-19.903-19.903s8.929-19.903,19.903-19.903h509.657c10.975,0,19.903,8.929,19.903,19.903s-8.929,19.903-19.903,19.903h-509.657Z"/>
        <path class="cls-17" d="m788.634,241.809c10.423,0,18.903,8.48,18.903,18.903s-8.48,18.903-18.903,18.903h-509.657c-10.423,0-18.903-8.48-18.903-18.903s8.48-18.903,18.903-18.903h509.657m0-2h-509.657c-11.497,0-20.903,9.406-20.903,20.903s9.406,20.903,20.903,20.903h509.657c11.497,0,20.903-9.406,20.903-20.903s-9.406-20.903-20.903-20.903h0Z"/>
      </g>
      <g>
        <path class="cls-16" d="m314.19,260.763c.462,11.521-9.772,20.946-20.786,21.039-11.933.1-21.41-9.928-21.395-21.035.015-11.196,9.427-21.07,20.981-21.145,11.874-.077,21.767,10.091,21.199,21.141Z"/>
        <path class="cls-22" d="m312.18,260.879c.429,9.99-8.671,18.974-19.039,18.913-11.074-.066-19.206-9.679-19.129-19.142.082-10.145,8.896-19.056,19.081-19.017,10.739.041,19.646,9.25,19.087,19.247Z"/>
        <text class="cls-32" transform="translate(286.856 267.828)"><tspan x="0" y="0">1</tspan></text>
      </g>
      <text class="cls-31" transform="translate(330.396 267.775)"><tspan x="0" y="0">부터</tspan></text>
      <text class="cls-31" transform="translate(649.751 267.775)"><tspan x="0" y="0">사이의 무작위 수</tspan></text>
      <g>
        <g>
          <path class="cls-7" d="m407.409,280.616c-10.975,0-19.903-8.928-19.903-19.903s8.929-19.903,19.903-19.903h206.968c10.975,0,19.903,8.929,19.903,19.903s-8.929,19.903-19.903,19.903h-206.968Z"/>
          <path class="cls-10" d="m614.376,241.809c10.423,0,18.903,8.48,18.903,18.903s-8.48,18.903-18.903,18.903h-206.968c-10.423,0-18.903-8.48-18.903-18.903s8.48-18.903,18.903-18.903h206.968m0-2h-206.968c-11.497,0-20.903,9.406-20.903,20.903s9.406,20.903,20.903,20.903h206.968c11.497,0,20.903-9.406,20.903-20.903s-9.406-20.903-20.903-20.903h0Z"/>
        </g>
        <rect class="cls-10" x="401.989" y="241.229" width="141.935" height="38.968" rx="3.871" ry="3.871"/>
        <text class="cls-31" transform="translate(557.288 267.775)"><tspan x="0" y="0">항목 수</tspan></text>
        <text class="cls-31" transform="translate(412.514 267.775)"><tspan x="0" y="0">간식 리스트</tspan></text>
        <path class="cls-13" d="m526.231,256.035c1.503,0,3.006-.003,4.509.001.951.003,1.744.288,2.197,1.211.47.958.064,1.702-.534,2.425-1.451,1.754-2.859,3.543-4.343,5.268-1.318,1.533-2.389,1.523-3.72-.029-1.519-1.771-2.972-3.598-4.452-5.402-.521-.635-.812-1.313-.452-2.145.374-.865,1.045-1.293,1.954-1.309,1.614-.027,3.228-.008,4.842-.008v-.013Z"/>
      </g>
    </g>
    <g>
      <g>
        <path class="cls-3" d="m1510.649,288.686H46.305s0,0,0,0l-12.543,11.548s0,0,0,0l-12.023-10.98c-.238-.218-.622-.049-.622.274v54.741c0,.047.011.092.028.135h-.003l.004.004c.02.048.048.093.087.13h.056l11.328,10.345c.663.605,1.678.603,2.338-.005l10.91-10.045c.212-.195.49-.304.779-.304l1464.008-.101c15.329,0,27.871-12.542,27.871-27.871h0c0-15.329-12.542-27.871-27.871-27.871Z"/>
        <text class="cls-28" transform="translate(1291.465 323.995)"><tspan x="0" y="0">을(를)</tspan></text>
        <g>
          <path class="cls-14" d="m1487.299,316.338c.085-12.114,9.79-22.01,22.342-21.937,12.159.071,22.178,9.883,21.961,22.471-.203,11.764-9.754,21.773-22.498,21.598-12.042-.166-21.794-9.762-21.805-22.132Z"/>
          <path class="cls-26" d="m1510.199,317.775c2.854.024,5.612,2.731,5.624,5.52.014,3.13-2.722,5.849-5.866,5.829-3.016-.018-5.566-2.746-5.533-5.919.031-3.007,2.636-5.457,5.775-5.43Z"/>
          <rect class="cls-26" x="1512.587" y="308.16" width="9.448" height="9.448" transform="translate(665.652 -981.259) rotate(45)"/>
          <polygon class="cls-26" points="1508.43 315.838 1508.43 309.406 1502.859 306.19 1497.289 309.406 1497.289 315.838 1502.859 319.055 1508.43 315.838"/>
        </g>
      </g>
      <g>
        <path class="cls-23" d="m68.397,336.36c-10.975,0-19.903-8.929-19.903-19.903s8.929-19.903,19.903-19.903h1191.721c10.975,0,19.903,8.929,19.903,19.903s-8.929,19.903-19.903,19.903H68.397Z"/>
        <path class="cls-17" d="m1260.118,297.554c10.423,0,18.903,8.48,18.903,18.903s-8.48,18.903-18.903,18.903H68.397c-10.423,0-18.903-8.48-18.903-18.903s8.48-18.903,18.903-18.903h1191.721m0-2H68.397c-11.497,0-20.903,9.406-20.903,20.903s9.406,20.903,20.903,20.903h1191.721c11.497,0,20.903-9.406,20.903-20.903s-9.407-20.903-20.903-20.903h0Z"/>
      </g>
      <g>
        <path class="cls-23" d="m254.203,336.36c-10.975,0-19.903-8.929-19.903-19.903s8.929-19.903,19.903-19.903h853.012c10.975,0,19.902,8.929,19.902,19.903s-8.928,19.903-19.902,19.903H254.203Z"/>
        <path class="cls-17" d="m1107.215,297.554c10.423,0,18.903,8.48,18.903,18.903s-8.48,18.903-18.903,18.903H254.203c-10.423,0-18.903-8.48-18.903-18.903s8.48-18.903,18.903-18.903h853.012m0-2H254.203c-11.497,0-20.903,9.406-20.903,20.903s9.406,20.903,20.903,20.903h853.012c11.497,0,20.903-9.406,20.903-20.903s-9.407-20.903-20.903-20.903h0Z"/>
      </g>
      <g>
        <g>
          <path class="cls-7" d="m270.376,336.36c-10.975,0-19.903-8.929-19.903-19.903s8.929-19.903,19.903-19.903h457.548c10.975,0,19.903,8.929,19.903,19.903s-8.929,19.903-19.903,19.903h-457.548Z"/>
          <path class="cls-10" d="m727.924,297.554c10.423,0,18.903,8.48,18.903,18.903s-8.48,18.903-18.903,18.903h-457.548c-10.423,0-18.903-8.48-18.903-18.903s8.48-18.903,18.903-18.903h457.548m0-2h-457.548c-11.497,0-20.903,9.406-20.903,20.903s9.406,20.903,20.903,20.903h457.548c11.497,0,20.903-9.406,20.903-20.903s-9.406-20.903-20.903-20.903h0Z"/>
        </g>
        <rect class="cls-10" x="264.957" y="296.973" width="141.935" height="38.968" rx="3.871" ry="3.871"/>
        <text class="cls-31" transform="translate(420.256 323.52)"><tspan x="0" y="0">의</tspan></text>
        <text class="cls-31" transform="translate(650.966 323.52)"><tspan x="0" y="0">번째 항목</tspan></text>
        <text class="cls-31" transform="translate(762.45 323.52)"><tspan x="0" y="0">과(와)</tspan></text>
        <text class="cls-31" transform="translate(993.482 323.52)"><tspan x="0" y="0">을(를) 합친 값</tspan></text>
        <text class="cls-31" transform="translate(1145.223 323.52)"><tspan x="0" y="0">을(를) 합친 값</tspan></text>
        <text class="cls-31" transform="translate(169.418 323.52)"><tspan x="0" y="0">과(와)</tspan></text>
        <text class="cls-31" transform="translate(275.482 323.52)"><tspan x="0" y="0">간식 리스트</tspan></text>
        <path class="cls-13" d="m389.199,311.78c1.503,0,3.006-.003,4.509.001.951.003,1.744.288,2.197,1.211.47.958.064,1.702-.534,2.425-1.451,1.754-2.859,3.543-4.343,5.268-1.318,1.533-2.389,1.523-3.72-.029-1.519-1.771-2.972-3.598-4.452-5.402-.521-.635-.812-1.313-.452-2.145.374-.865,1.045-1.293,1.954-1.309,1.614-.027,3.228-.008,4.842-.008v-.013Z"/>
      </g>
      <g>
        <g>
          <path class="cls-7" d="m470.118,336.36c-10.975,0-19.902-8.929-19.902-19.903s8.928-19.903,19.902-19.903h145.613c10.975,0,19.903,8.929,19.903,19.903s-8.929,19.903-19.903,19.903h-145.613Z"/>
          <path class="cls-10" d="m615.731,297.554c10.423,0,18.903,8.48,18.903,18.903s-8.48,18.903-18.903,18.903h-145.613c-10.423,0-18.903-8.48-18.903-18.903s8.48-18.903,18.903-18.903h145.613m0-2h-145.613c-11.497,0-20.903,9.406-20.903,20.903s9.406,20.903,20.903,20.903h145.613c11.497,0,20.903-9.406,20.903-20.903s-9.406-20.903-20.903-20.903h0Z"/>
        </g>
        <rect class="cls-10" x="464.699" y="296.973" width="121.613" height="38.968" rx="3.871" ry="3.871"/>
        <text class="cls-31" transform="translate(599.869 323.52)"><tspan x="0" y="0">값</tspan></text>
        <text class="cls-31" transform="translate(475.224 323.52)"><tspan x="0" y="0">항목 번호</tspan></text>
        <path class="cls-13" d="m568.812,311.78c1.503,0,3.006-.003,4.509.001.951.003,1.744.288,2.197,1.211.47.958.064,1.702-.534,2.425-1.451,1.754-2.859,3.543-4.343,5.268-1.318,1.533-2.389,1.523-3.72-.029-1.519-1.771-2.972-3.598-4.452-5.402-.521-.635-.812-1.313-.452-2.145.374-.865,1.045-1.293,1.954-1.309,1.614-.027,3.228-.008,4.842-.008v-.013Z"/>
      </g>
      <g>
        <path class="cls-22" d="m82.332,336.36c-10.975,0-19.903-8.929-19.903-19.903s8.929-19.903,19.903-19.903h50.56c10.975,0,19.903,8.929,19.903,19.903s-8.929,19.903-19.903,19.903h-50.56Z"/>
        <path class="cls-25" d="m132.892,297.554c10.423,0,18.903,8.48,18.903,18.903s-8.48,18.903-18.903,18.903h-50.56c-10.423,0-18.903-8.48-18.903-18.903s8.48-18.903,18.903-18.903h50.56m0-2h-50.56c-11.497,0-20.903,9.406-20.903,20.903s9.406,20.903,20.903,20.903h50.56c11.497,0,20.903-9.406,20.903-20.903s-9.406-20.903-20.903-20.903h0Z"/>
      </g>
      <g>
        <path class="cls-22" d="m850.332,336.36c-10.975,0-19.903-8.929-19.903-19.903s8.929-19.903,19.903-19.903h107.851c10.975,0,19.902,8.929,19.902,19.903s-8.928,19.903-19.902,19.903h-107.851Z"/>
        <path class="cls-25" d="m958.182,297.554c10.423,0,18.903,8.48,18.903,18.903s-8.48,18.903-18.903,18.903h-107.85c-10.423,0-18.903-8.48-18.903-18.903s8.48-18.903,18.903-18.903h107.85m0-2h-107.85c-11.497,0-20.903,9.406-20.903,20.903s9.406,20.903,20.903,20.903h107.85c11.497,0,20.903-9.406,20.903-20.903s-9.406-20.903-20.903-20.903h0Z"/>
      </g>
      <text class="cls-32" transform="translate(79.869 323.52)"><tspan x="0" y="0">오늘은</tspan></text>
      <text class="cls-33" transform="translate(847.095 323.52)"><tspan class="cls-34" x="0" y="0">,</tspan><tspan class="cls-30" x="5.068" y="0" xml:space="preserve"> 너로 정했어!</tspan></text>
      <g>
        <rect class="cls-11" x="1374.537" y="296.973" width="95.645" height="38.968" rx="3.871" ry="3.871"/>
        <text class="cls-31" transform="translate(1385.062 323.52)"><tspan x="0" y="0">말하기</tspan></text>
        <path class="cls-13" d="m1453.683,311.78c1.503,0,3.006-.003,4.509.001.951.003,1.744.288,2.197,1.211.47.958.064,1.702-.534,2.425-1.451,1.754-2.859,3.543-4.343,5.268-1.318,1.533-2.389,1.523-3.72-.029-1.519-1.771-2.972-3.598-4.452-5.402-.521-.635-.812-1.313-.452-2.145.374-.865,1.045-1.293,1.954-1.309,1.614-.027,3.228-.008,4.842-.008v-.013Z"/>
      </g>
    </g>
  </g>
  <rect class="cls-8" x="386.505" y="238.997" width="248.774" height="42.839" rx="10" ry="10"/>
  <rect class="cls-8" x="271.722" y="238.997" width="42.839" height="42.839" rx="10" ry="10"/>
  <rect class="cls-8" x="249.473" y="295.383" width="499.355" height="42.839" rx="10" ry="10"/>
</svg>