<?xml version="1.0" encoding="UTF-8"?>
<svg id="_레이어_1" data-name="레이어 1" xmlns="http://www.w3.org/2000/svg" viewBox="0 0 115 105">
  <defs>
    <style>
      .cls-1 {
        fill: #fff;
      }

      .cls-1, .cls-2 {
        stroke-width: 0px;
      }

      .cls-2 {
        fill: #00b6b1;
      }

      .cls-3 {
        fill: #fefefe;
        font-family: Pretendard-Bold-KSCpc-EUC-H, Pretendard;
        font-size: 26px;
        font-weight: 700;
        letter-spacing: -.025em;
      }
    </style>
  </defs>
  <rect class="cls-2" width="115" height="105"/>
  <text class="cls-3" transform="translate(13.859 93.533)"><tspan x="0" y="0">하드웨어</tspan></text>
  <g>
    <path class="cls-1" d="m64.654,27.748c-1.512,0-2.816.836-3.516,2.062h-5.881c-.53,0-1.038.21-1.414.585l-11.132,11.109h-5.854c-1.105,0-2.001.896-2.001,2.001s.896,2.001,2.001,2.001h6.682c.53,0,1.038-.21,1.414-.585l11.132-11.109h5.053c.7,1.226,2.004,2.062,3.516,2.062,2.244,0,4.063-1.82,4.063-4.063s-1.819-4.063-4.063-4.063Z"/>
    <path class="cls-1" d="m50.346,54.386c1.512,0,2.816-.836,3.516-2.062h5.881c.53,0,1.038-.21,1.414-.585l11.132-11.109h5.854c1.105,0,2.001-.896,2.001-2.001s-.896-2.001-2.001-2.001h-6.682c-.53,0-1.038.21-1.414.585l-11.132,11.109h-5.053c-.7-1.226-2.004-2.062-3.516-2.062-2.244,0-4.063,1.82-4.063,4.063s1.819,4.063,4.063,4.063Z"/>
  </g>
</svg>