<?xml version="1.0" encoding="UTF-8"?>
<svg xmlns="http://www.w3.org/2000/svg" viewBox="0 0 408.905 144.982">
  <defs>
    <style>
      .cls-1, .cls-2, .cls-3, .cls-4, .cls-5, .cls-6 {
        stroke-width: 0px;
      }

      .cls-1, .cls-7 {
        fill: #4f80ff;
      }

      .cls-8, .cls-2, .cls-9 {
        fill: #fff;
      }

      .cls-8, .cls-10, .cls-7, .cls-11 {
        font-family: Pretendard-Bold-KSCpc-EUC-H, Pretendard;
        font-weight: 700;
      }

      .cls-8, .cls-7 {
        font-size: 10.606px;
      }

      .cls-3 {
        fill: #f8fcff;
      }

      .cls-12 {
        stroke-width: .5px;
      }

      .cls-12, .cls-13, .cls-14, .cls-15 {
        fill: none;
      }

      .cls-12, .cls-14, .cls-9, .cls-15 {
        stroke-miterlimit: 10;
      }

      .cls-12, .cls-15 {
        stroke: #4f80ff;
      }

      .cls-13 {
        stroke: red;
        stroke-dasharray: 0 0 4.001 2.001;
        stroke-linejoin: round;
        stroke-width: 1.5px;
      }

      .cls-10 {
        fill: #2c313d;
      }

      .cls-10, .cls-11 {
        font-size: 10.274px;
        letter-spacing: .01em;
      }

      .cls-14, .cls-9 {
        stroke: #e2e2e2;
        stroke-width: .75px;
      }

      .cls-4 {
        fill: #f9f9f9;
      }

      .cls-5 {
        fill: #979797;
      }

      .cls-6 {
        fill: #ffb500;
      }

      .cls-11 {
        fill: #555;
      }

      .cls-15 {
        stroke-linecap: round;
        stroke-width: 2px;
      }
    </style>
  </defs>
  <g id="_레이어_1" data-name="레이어 1">
    <g>
      <g>
        <path class="cls-3" d="m13.742,48.129h395.163V0H0v144.982h11.689V50.183c0-1.134.919-2.053,2.053-2.053Z"/>
        <path class="cls-4" d="m408.905,48.129H13.742c-1.134,0-2.053.919-2.053,2.053v94.8h397.216V48.129Z"/>
      </g>
      <g>
        <g>
          <rect class="cls-2" x="19.864" y="59.542" width="28.145" height="28.145" rx="2.46" ry="2.46"/>
          <path class="cls-1" d="m45.55,59.792c1.219,0,2.21.991,2.21,2.209v23.226c0,1.219-.991,2.21-2.21,2.21h-23.226c-1.219,0-2.21-.991-2.21-2.21v-23.226c0-1.218.991-2.209,2.21-2.209h23.226m0-.5h-23.226c-1.497,0-2.71,1.213-2.71,2.709v23.226c0,1.497,1.213,2.71,2.71,2.71h23.226c1.497,0,2.71-1.213,2.71-2.71v-23.226c0-1.496-1.213-2.709-2.71-2.709h0Z"/>
        </g>
        <g>
          <polyline class="cls-12" points="43.743 81.389 24.13 81.389 24.13 65.841"/>
          <g>
            <polyline class="cls-12" points="27.332 74.075 31.413 70.8 35.719 76.381 40.558 73.736"/>
            <circle class="cls-6" cx="27.042" cy="74.3" r="1.323"/>
            <circle class="cls-6" cx="31.413" cy="70.72" r="1.323"/>
            <circle class="cls-6" cx="35.719" cy="76.51" r="1.323"/>
            <circle class="cls-6" cx="40.832" cy="73.591" r="1.323"/>
          </g>
        </g>
      </g>
      <g>
        <rect class="cls-2" x="19.87" y="97.34" width="28.145" height="28.145" rx="2.46" ry="2.46"/>
        <path class="cls-1" d="m45.555,97.59c1.219,0,2.21.991,2.21,2.21v23.226c0,1.219-.991,2.21-2.21,2.21h-23.226c-1.219,0-2.21-.991-2.21-2.21v-23.226c0-1.219.991-2.21,2.21-2.21h23.226m0-.5h-23.226c-1.497,0-2.71,1.213-2.71,2.71v23.226c0,1.497,1.213,2.71,2.71,2.71h23.226c1.497,0,2.71-1.213,2.71-2.71v-23.226c0-1.497-1.213-2.71-2.71-2.71h0Z"/>
      </g>
      <line class="cls-15" x1="33.942" y1="106.187" x2="33.942" y2="116.638"/>
      <line class="cls-15" x1="39.168" y1="111.412" x2="28.716" y2="111.412"/>
      <rect class="cls-9" x="119.872" y="100.767" width="109.935" height="28.645" rx="2.806" ry="2.806"/>
      <rect class="cls-9" x="284.001" y="100.767" width="109.935" height="28.645" rx="2.806" ry="2.806"/>
      <path class="cls-9" d="m408.905,60.961H122.679c-1.55,0-2.806,1.256-2.806,2.806v23.032c0,1.55,1.256,2.807,2.806,2.807h286.226"/>
      <rect class="cls-9" x="11.268" y="9.904" width="22.666" height="22.965" rx="3.314" ry="3.314"/>
      <rect class="cls-1" x="91.511" y="9.551" width="51.148" height="23.671"/>
      <g>
        <path class="cls-2" d="m43.41,32.972c-1.188,0-2.156-.967-2.156-2.156V11.956c0-1.188.967-2.156,2.156-2.156h47.851v23.171h-47.851Z"/>
        <path class="cls-1" d="m91.011,10.051v22.671h-47.601c-1.051,0-1.906-.855-1.906-1.906V11.957c0-1.051.855-1.906,1.906-1.906h47.601m.5-.5h-48.101c-1.329,0-2.406,1.077-2.406,2.406v18.859c0,1.329,1.077,2.406,2.406,2.406h48.101V9.551h0Z"/>
      </g>
      <g>
        <path class="cls-2" d="m142.908,32.972V9.801h47.167c1.188,0,2.156.967,2.156,2.156v18.86c0,1.188-.967,2.156-2.156,2.156h-47.167Z"/>
        <path class="cls-1" d="m190.075,10.051c1.051,0,1.906.855,1.906,1.906v18.859c0,1.051-.855,1.906-1.906,1.906h-46.917V10.051h46.917m0-.5h-47.417v23.671h47.417c1.328,0,2.406-1.077,2.406-2.406V11.957c0-1.329-1.077-2.406-2.406-2.406h0Z"/>
      </g>
      <g>
        <path class="cls-5" d="m19.636,14.652l-3.299-.083c-.231-.006-.421.184-.415.415l.083,3.299c.009.356.439.528.691.276l.93-.93,2.31,2.31c.066.066.172.066.238,0l1.118-1.118c.066-.066.066-.172,0-.238l-2.31-2.31.93-.93c.252-.252.08-.682-.276-.691Z"/>
        <path class="cls-5" d="m29.196,18.283l.083-3.299c.006-.231-.184-.421-.415-.415l-3.299.083c-.356.009-.528.439-.276.691l.93.93-2.31,2.31c-.066.066-.066.172,0,.238l1.118,1.118c.066.066.172.066.238,0l2.31-2.31.93.93c.252.252.682.08.691-.276Z"/>
        <path class="cls-5" d="m25.565,28.12l3.299.083c.231.006.421-.184.415-.415l-.083-3.299c-.009-.356-.439-.528-.691-.276l-.93.93-2.31-2.31c-.066-.066-.172-.066-.238,0l-1.118,1.118c-.066.066-.066.172,0,.238l2.31,2.31-.93.93c-.252.252-.08.682.276.691Z"/>
        <path class="cls-5" d="m16.006,24.49l-.083,3.299c-.006.231.184.421.415.415l3.299-.083c.356-.009.528-.439.276-.691l-.93-.93,2.31-2.31c.066-.066.066-.172,0-.238l-1.118-1.118c-.066-.066-.172-.066-.238,0l-2.31,2.31-.93-.93c-.252-.252-.682-.08-.691.276Z"/>
      </g>
      <text class="cls-7" transform="translate(52.103 26.02)"><tspan x="0" y="0">테이블</tspan></text>
      <text class="cls-8" transform="translate(107.466 26.02)"><tspan x="0" y="0">차트</tspan></text>
      <text class="cls-7" transform="translate(158.247 26.02)"><tspan x="0" y="0">정보</tspan></text>
      <text class="cls-10" transform="translate(70.802 118.998)"><tspan x="0" y="0">가로축</tspan></text>
      <text class="cls-10" transform="translate(250.673 118.998)"><tspan x="0" y="0">계열</tspan></text>
      <text class="cls-10" transform="translate(70.802 80.389)"><tspan x="0" y="0">차트 이름</tspan></text>
      <text class="cls-11" transform="translate(128.603 118.998)"><tspan x="0" y="0">연도</tspan></text>
      <text class="cls-10" transform="translate(128.603 80.389)"><tspan x="0" y="0">월평균 미세먼지농도_차트 제목</tspan></text>
      <text class="cls-11" transform="translate(292.216 118.998)"><tspan x="0" y="0">전국</tspan></text>
      <path class="cls-14" d="m408.905,48.129H13.742c-1.134,0-2.053.919-2.053,2.053v94.8"/>
    </g>
  </g>
  <g id="_레이어_2" data-name="레이어 2">
    <path class="cls-13" d="m66.326,95.348h329.814c2.576,0,4.667,2.091,4.667,4.667v30.669c0,2.576-2.091,4.667-4.667,4.667H66.326c-2.576,0-4.667-2.091-4.667-4.667v-30.669c0-2.575,2.091-4.666,4.666-4.666Z"/>
  </g>
</svg>