<?xml version="1.0" encoding="UTF-8"?>
<svg id="_레이어_1" data-name="레이어 1" xmlns="http://www.w3.org/2000/svg" viewBox="0 0 1174.764 440.297">
  <defs>
    <style>
      .cls-1 {
        fill: #8b19db;
      }

      .cls-1, .cls-2, .cls-3, .cls-4, .cls-5, .cls-6, .cls-7, .cls-8, .cls-9, .cls-10, .cls-11, .cls-12, .cls-13 {
        stroke-width: 0px;
      }

      .cls-2, .cls-14, .cls-15, .cls-16 {
        fill: #fefefe;
      }

      .cls-17, .cls-18, .cls-19 {
        letter-spacing: -.025em;
      }

      .cls-20 {
        letter-spacing: -.025em;
      }

      .cls-21 {
        letter-spacing: -.04em;
      }

      .cls-18 {
        fill: #fff;
      }

      .cls-18, .cls-14, .cls-19, .cls-15, .cls-22, .cls-16 {
        font-family: Pretendard-Bold-KSCpc-EUC-H, Pretendard;
        font-weight: 700;
      }

      .cls-18, .cls-19, .cls-22 {
        font-size: 22px;
      }

      .cls-3 {
        fill: #c62042;
      }

      .cls-23 {
        fill: #fe3a61;
        stroke: #c62142;
      }

      .cls-23, .cls-24, .cls-25, .cls-26 {
        stroke-width: 2px;
      }

      .cls-23, .cls-25, .cls-26 {
        stroke-linecap: round;
        stroke-linejoin: round;
      }

      .cls-24 {
        stroke: #009400;
      }

      .cls-24, .cls-27 {
        stroke-miterlimit: 10;
      }

      .cls-24, .cls-13 {
        fill: #00b300;
      }

      .cls-14, .cls-15, .cls-16 {
        font-size: 26px;
      }

      .cls-28 {
        letter-spacing: -.04em;
      }

      .cls-4 {
        fill: #fe9b01;
      }

      .cls-5 {
        fill: #ff7f00;
      }

      .cls-25 {
        fill: #19baea;
        stroke: #1498c0;
      }

      .cls-6 {
        fill: #6dddfe;
      }

      .cls-7 {
        fill: #1498c0;
      }

      .cls-29 {
        letter-spacing: -.071em;
      }

      .cls-27 {
        fill: none;
        stroke: red;
        stroke-dasharray: 0 0 6.988 2.995;
        stroke-width: 4px;
      }

      .cls-8 {
        fill: #bd65fb;
      }

      .cls-30 {
        letter-spacing: -.045em;
      }

      .cls-26 {
        fill: #ad3efb;
        stroke: #8b19db;
      }

      .cls-9 {
        fill: #fedd81;
      }

      .cls-10 {
        fill: #f4af18;
      }

      .cls-15 {
        letter-spacing: -.025em;
      }

      .cls-11 {
        fill: #fe9b00;
      }

      .cls-31 {
        letter-spacing: -.01em;
      }

      .cls-16 {
        letter-spacing: -.01em;
      }

      .cls-12 {
        fill: #fe5576;
      }
    </style>
  </defs>
  <g>
    <g>
      <g>
        <path class="cls-24" d="m378.366,33.954c-2.293-12.79-13.661-22.1-26.741-22.14-81.917-.248-207.345-.502-289.263-.713-2.727-.007-4.859-.438-7.168-2.398C48.028,2.617,39.547.119,30.1,1.274,20.381,2.464,12.681,7.161,7.067,15.04,2.193,21.879.212,29.582,1.283,38.024c1.177,9.281,5.523,16.675,12.825,22.461,2.165,1.716,6.8,4.434,7.455,4.816.055.032.101.067.148.11l11.686,10.762c.84.872,2.14.793,2.931-.015l10.743-9.885c.26-.239.6-.372.952-.372l301.593.032c1.539.004,3.069-.064,4.601-.205l.974-.089c15.315-1.89,25.945-16.233,23.175-31.685Z"/>
        <path class="cls-2" d="m34.016,62.097c-15.48-.051-28.037-12.66-27.997-28.114.04-15.539,12.694-28.067,28.28-27.997,15.45.069,27.973,12.72,27.913,28.197-.06,15.443-12.708,27.964-28.196,27.914Z"/>
        <text class="cls-14" transform="translate(73.186 46.249) rotate(.173)"><tspan x="0" y="0">시작하기 버튼을 클릭했을 때</tspan></text>
      </g>
      <path class="cls-13" d="m27.49,33.709c0-2.979-.003-5.959.002-8.938.001-.871-.04-1.782.9-2.272.89-.464,1.669-.113,2.434.376,4.656,2.978,9.324,5.939,13.977,8.921,2.063,1.322,2.073,2.615.042,3.913-4.656,2.976-9.325,5.932-13.976,8.916-.771.494-1.55.863-2.428.428-.92-.456-.963-1.342-.958-2.244.016-3.033.006-6.067.006-9.101Z"/>
    </g>
    <g>
      <path class="cls-25" d="m248.507,396.119H73.833s-11.952,10.3-11.952,10.3l-12.334-10.977V122.569c0-.398.474-.606.766-.336l11.675,10.755,12.896-11.471,161.98-.091c16.083,0,29.097-13.805,27.779-30.15-1.175-14.565-13.733-25.592-28.345-25.592H47.659s-12.543,11.548-12.543,11.548l-12.023-10.98c-.238-.218-.622-.049-.622.274v54.741c0,.047.011.092.028.135h-.004l.091.134.056,306.149,12.379,11.613,12.516-11.613h201.416c8.969,0,16.191-7.482,15.764-16.546-.4-8.489-7.712-15.02-16.21-15.02Z"/>
      <g>
        <path class="cls-7" d="m254.613,93.599c.233,11.599-9.583,22.21-22.59,21.903-11.361-.268-21.522-9.45-21.508-22.104.014-12.581,10.427-22.278,22.629-21.994,11.969.279,21.786,10.209,21.47,22.194Z"/>
        <path class="cls-6" d="m240.697,95.131c-.095,0-.185.021-.279.028l-4.684-7.075c.647-.892.942-2.055.623-3.302-.356-1.388-1.5-2.504-2.899-2.812-2.553-.562-4.81,1.366-4.81,3.821,0,.859.284,1.646.753,2.292l-4.684,7.075c-.094-.007-.183-.028-.279-.028-2.466,0-4.4,2.277-3.814,4.843.323,1.416,1.474,2.567,2.89,2.89,2.566.586,4.843-1.348,4.843-3.814,0-1.153-.507-2.18-1.3-2.897l4.386-6.625c.358.108.731.183,1.124.183s.766-.076,1.124-.183l4.386,6.625c-1.013.917-1.56,2.338-1.178,3.884.344,1.389,1.482,2.51,2.877,2.828,2.564.583,4.839-1.35,4.839-3.815,0-2.165-1.755-3.919-3.919-3.919Z"/>
      </g>
      <text class="cls-14" transform="translate(56.481 101.356)"><tspan x="0" y="0">계속 반복하기</tspan></text>
    </g>
  </g>
  <g>
    <path class="cls-23" d="m230.798,121.21H74.758l-12.543,11.141-12.024-10.593c-.238-.21-.622-.047-.622.265v52.811c0,.098.042.191.115.259l12.53,11.113,12.543-11.219h156.04c15.329,0,27.871-12.1,27.871-26.888h0c0-14.789-12.542-26.888-27.871-26.888Z"/>
    <path class="cls-3" d="m206.512,148.604c.085-12.114,9.79-22.01,22.342-21.937,12.159.071,22.178,9.883,21.961,22.471-.203,11.764-9.754,21.773-22.498,21.598-12.042-.166-21.794-9.762-21.805-22.132Z"/>
    <path class="cls-12" d="m229.412,150.041c2.854.024,5.612,2.731,5.624,5.52.014,3.13-2.722,5.849-5.866,5.829-3.016-.018-5.566-2.746-5.533-5.919.031-3.007,2.636-5.457,5.775-5.43Z"/>
    <rect class="cls-12" x="231.8" y="140.426" width="9.448" height="9.448" transform="translate(171.913 -124.734) rotate(45)"/>
    <polygon class="cls-12" points="227.643 148.105 227.643 141.672 222.072 138.456 216.502 141.672 216.502 148.105 222.072 151.321 227.643 148.105"/>
    <text class="cls-15" transform="translate(76.258 156.892)"><tspan x="0" y="0">모양 숨기기</tspan></text>
  </g>
  <g>
    <g>
      <path class="cls-25" d="m296.571,174.924H74.758s0,0,0,0l-12.543,11.548s0,0,0,0l-12.023-10.98c-.238-.218-.622-.049-.622.274v54.741c0,.047.011.092.028.135h-.003l.004.004c.02.048.048.093.087.13h.056l11.328,10.345c.663.605,1.678.603,2.338-.005l10.91-10.045c.212-.195.49-.304.779-.304l221.477-.101c15.329,0,27.871-12.542,27.871-27.871h0c0-15.329-12.542-27.871-27.871-27.871Z"/>
      <text class="cls-14" transform="translate(136.178 211.007)"><tspan x="0" y="0">초 기다리기</tspan></text>
      <g>
        <path class="cls-7" d="m317.32,202.839c.233,11.599-9.583,22.21-22.59,21.903-11.361-.268-21.522-9.45-21.508-22.104.014-12.581,10.427-22.278,22.629-21.994,11.969.279,21.786,10.209,21.47,22.194Z"/>
        <path class="cls-6" d="m303.403,204.371c-.095,0-.185.021-.279.028l-4.684-7.075c.468-.646.753-1.433.753-2.292,0-2.165-1.755-3.919-3.919-3.919s-3.919,1.755-3.919,3.919c0,.859.284,1.646.753,2.292l-4.684,7.075c-.094-.007-.183-.028-.279-.028-2.165,0-3.919,1.755-3.919,3.919s1.755,3.919,3.919,3.919,3.919-1.755,3.919-3.919c0-1.153-.507-2.18-1.3-2.897l4.386-6.625c.358.108.731.183,1.124.183s.766-.076,1.124-.183l4.386,6.625c-.793.717-1.3,1.744-1.3,2.897,0,2.165,1.755,3.919,3.919,3.919s3.919-1.755,3.919-3.919-1.755-3.919-3.919-3.919Z"/>
      </g>
    </g>
    <g>
      <path class="cls-4" d="m118.643,201.818c.462,11.521-9.772,20.946-20.786,21.039-11.933.1-21.41-9.928-21.395-21.035.015-11.196,9.427-21.07,20.981-21.145,11.874-.077,21.767,10.091,21.199,21.141Z"/>
      <path class="cls-9" d="m116.634,201.933c.429,9.99-8.671,18.974-19.039,18.913-11.074-.066-19.206-9.679-19.129-19.142.082-10.145,8.896-19.056,19.081-19.017,10.739.041,19.646,9.25,19.087,19.247Z"/>
      <text class="cls-19" transform="translate(91.858 208.884)"><tspan x="0" y="0">1</tspan></text>
    </g>
  </g>
  <g>
    <path class="cls-26" d="m1132.211,230.924H74.758l-12.543,11.548h0l-12.023-10.98c-.238-.218-.622-.049-.622.274v54.841l.171.168,11.328,10.345c.663.605,1.678.603,2.338-.004l10.91-10.045c.212-.195.49-.304.779-.304l1057.116-.101c15.329,0,27.871-12.542,27.871-27.871s-12.542-27.871-27.871-27.871Z"/>
    <path class="cls-1" d="m1109.061,258.614c.085-12.114,9.79-22.01,22.342-21.937,12.159.071,22.178,9.883,21.961,22.471-.203,11.764-9.754,21.773-22.498,21.598-12.042-.166-21.794-9.762-21.805-22.132Z"/>
    <g>
      <path class="cls-8" d="m1143.169,253.145l-5.089-3.84c-.502-.379-1.222-.021-1.222.609v1.614l-8.892-.884c-.449-.045-.838.308-.838.759v4.703c0,.451.389.803.838.759l8.892-.884v1.614c0,.629.719.988,1.222.609l5.089-3.84c.404-.305.404-.912,0-1.217Z"/>
      <path class="cls-8" d="m1119.259,264.281l5.089,3.84c.502.379,1.222.021,1.222-.609v-1.614l8.892.884c.449.045.838-.308.838-.759v-4.703c0-.451-.389-.803-.838-.759l-8.892.884v-1.614c0-.629-.719-.988-1.222-.609l-5.089,3.84c-.404.305-.404.912,0,1.217Z"/>
    </g>
    <text class="cls-16" transform="translate(78.613 267.274)"><tspan x="0" y="0">X:</tspan></text>
    <text class="cls-14" transform="translate(507.258 267.274)"><tspan class="cls-29" x="0" y="0">Y</tspan><tspan class="cls-31" x="16.244" y="0">:</tspan></text>
    <text class="cls-16" transform="translate(935.544 267.274)"><tspan x="0" y="0">위치로 이동하기</tspan></text>
    <g>
      <g>
        <path class="cls-10" d="m133.023,278.597c-10.975,0-19.903-8.928-19.903-19.903s8.929-19.903,19.903-19.903h342.805c10.975,0,19.903,8.928,19.903,19.903s-8.929,19.903-19.903,19.903H133.023Z"/>
        <path class="cls-5" d="m475.828,239.79c10.423,0,18.903,8.48,18.903,18.903s-8.48,18.903-18.903,18.903H133.023c-10.423,0-18.903-8.48-18.903-18.903s8.48-18.903,18.903-18.903h342.805m0-2H133.023c-11.497,0-20.903,9.406-20.903,20.903s9.406,20.903,20.903,20.903h342.805c11.497,0,20.903-9.406,20.903-20.903s-9.407-20.903-20.903-20.903h0Z"/>
      </g>
      <g>
        <text class="cls-18" transform="translate(210.736 265.758)"><tspan x="0" y="0">부터</tspan></text>
        <text class="cls-18" transform="translate(341.541 265.758)"><tspan x="0" y="0">사이의 무작위 수</tspan></text>
      </g>
      <g>
        <path class="cls-9" d="m145.248,278.597c-10.975,0-19.903-8.929-19.903-19.903s8.929-19.903,19.903-19.903h33.373c10.975,0,19.903,8.928,19.903,19.903s-8.929,19.903-19.903,19.903h-33.373Z"/>
        <path class="cls-11" d="m178.621,239.79c10.423,0,18.903,8.48,18.903,18.903s-8.48,18.903-18.903,18.903h-33.374c-10.423,0-18.903-8.48-18.903-18.903s8.48-18.903,18.903-18.903h33.374m0-2h-33.374c-11.497,0-20.903,9.406-20.903,20.903s9.406,20.903,20.903,20.903h33.374c11.497,0,20.903-9.406,20.903-20.903s-9.406-20.903-20.903-20.903h0Z"/>
      </g>
      <text class="cls-22" transform="translate(137.138 265.758)"><tspan class="cls-30" x="0" y="0">-</tspan><tspan class="cls-21" x="8.882" y="0">2</tspan><tspan class="cls-17" x="21.426" y="0">40</tspan></text>
      <g>
        <path class="cls-9" d="m281.506,278.597c-10.975,0-19.903-8.928-19.903-19.903s8.929-19.903,19.903-19.903h29.244c10.975,0,19.903,8.928,19.903,19.903s-8.929,19.903-19.903,19.903h-29.244Z"/>
        <path class="cls-11" d="m310.75,239.79c10.423,0,18.903,8.48,18.903,18.903s-8.48,18.903-18.903,18.903h-29.245c-10.423,0-18.903-8.48-18.903-18.903s8.48-18.903,18.903-18.903h29.245m0-2h-29.245c-11.497,0-20.903,9.406-20.903,20.903s9.407,20.903,20.903,20.903h29.245c11.497,0,20.903-9.406,20.903-20.903s-9.407-20.903-20.903-20.903h0Z"/>
      </g>
      <text class="cls-22" transform="translate(275.46 265.758)"><tspan class="cls-28" x="0" y="0">2</tspan><tspan class="cls-20" x="12.545" y="0">40</tspan></text>
    </g>
    <g>
      <g>
        <path class="cls-10" d="m558.32,278.597c-10.975,0-19.903-8.928-19.903-19.903s8.929-19.903,19.903-19.903h342.806c10.975,0,19.903,8.928,19.903,19.903s-8.929,19.903-19.903,19.903h-342.806Z"/>
        <path class="cls-5" d="m901.125,239.79c10.423,0,18.903,8.48,18.903,18.903s-8.48,18.903-18.903,18.903h-342.805c-10.423,0-18.903-8.48-18.903-18.903s8.48-18.903,18.903-18.903h342.805m0-2h-342.805c-11.497,0-20.903,9.406-20.903,20.903s9.407,20.903,20.903,20.903h342.805c11.497,0,20.903-9.406,20.903-20.903s-9.406-20.903-20.903-20.903h0Z"/>
      </g>
      <g>
        <text class="cls-18" transform="translate(636.033 265.758)"><tspan x="0" y="0">부터</tspan></text>
        <text class="cls-18" transform="translate(766.838 265.758)"><tspan x="0" y="0">사이의 무작위 수</tspan></text>
      </g>
      <g>
        <path class="cls-9" d="m570.545,278.597c-10.975,0-19.903-8.929-19.903-19.903s8.929-19.903,19.903-19.903h33.374c10.975,0,19.902,8.928,19.902,19.903s-8.928,19.903-19.902,19.903h-33.374Z"/>
        <path class="cls-11" d="m603.918,239.79c10.423,0,18.903,8.48,18.903,18.903s-8.48,18.903-18.903,18.903h-33.374c-10.423,0-18.903-8.48-18.903-18.903s8.48-18.903,18.903-18.903h33.374m0-2h-33.374c-11.497,0-20.903,9.406-20.903,20.903s9.407,20.903,20.903,20.903h33.374c11.497,0,20.903-9.406,20.903-20.903s-9.407-20.903-20.903-20.903h0Z"/>
      </g>
      <text class="cls-19" transform="translate(562.435 265.758)"><tspan x="0" y="0">-135</tspan></text>
      <g>
        <path class="cls-9" d="m706.803,278.597c-10.975,0-19.903-8.928-19.903-19.903s8.929-19.903,19.903-19.903h29.245c10.975,0,19.903,8.928,19.903,19.903s-8.929,19.903-19.903,19.903h-29.245Z"/>
        <path class="cls-11" d="m736.047,239.79c10.423,0,18.903,8.48,18.903,18.903s-8.48,18.903-18.903,18.903h-29.244c-10.423,0-18.903-8.48-18.903-18.903s8.48-18.903,18.903-18.903h29.244m0-2h-29.244c-11.497,0-20.903,9.406-20.903,20.903s9.406,20.903,20.903,20.903h29.244c11.497,0,20.903-9.406,20.903-20.903s-9.406-20.903-20.903-20.903h0Z"/>
      </g>
      <text class="cls-19" transform="translate(701.532 265.758)"><tspan x="0" y="0">135</tspan></text>
    </g>
  </g>
  <g>
    <path class="cls-23" d="m230.798,286.402H74.758l-12.543,11.141-12.024-10.593c-.238-.21-.622-.047-.622.265v52.811c0,.098.042.191.115.259l12.53,11.113,12.543-11.219h156.04c15.329,0,27.871-12.1,27.871-26.888h0c0-14.789-12.542-26.888-27.871-26.888Z"/>
    <path class="cls-3" d="m206.512,313.796c.085-12.114,9.79-22.01,22.342-21.937,12.159.071,22.178,9.883,21.961,22.471-.203,11.764-9.754,21.773-22.498,21.598-12.042-.166-21.794-9.762-21.805-22.132Z"/>
    <path class="cls-12" d="m229.412,315.234c2.854.024,5.612,2.731,5.624,5.52.014,3.13-2.722,5.849-5.866,5.829-3.016-.018-5.566-2.746-5.533-5.919.031-3.007,2.636-5.457,5.775-5.43Z"/>
    <rect class="cls-12" x="231.8" y="305.618" width="9.448" height="9.448" transform="translate(288.721 -76.351) rotate(45)"/>
    <polygon class="cls-12" points="227.643 313.297 227.643 306.864 222.072 303.648 216.502 306.864 216.502 313.297 222.072 316.513 227.643 313.297"/>
    <text class="cls-15" transform="translate(76.258 322.084)"><tspan x="0" y="0">모양 보이기</tspan></text>
  </g>
  <g>
    <g>
      <path class="cls-25" d="m296.571,340.116H74.758s0,0,0,0l-12.543,11.548s0,0,0,0l-12.023-10.98c-.238-.218-.622-.049-.622.274v54.741c0,.047.011.092.028.135h-.003l.004.004c.02.048.048.093.087.13h.056l11.328,10.345c.663.605,1.678.603,2.338-.005l10.91-10.045c.212-.195.49-.304.779-.304l221.477-.101c15.329,0,27.871-12.542,27.871-27.871h0c0-15.329-12.542-27.871-27.871-27.871Z"/>
      <text class="cls-14" transform="translate(136.178 376.199)"><tspan x="0" y="0">초 기다리기</tspan></text>
      <g>
        <path class="cls-7" d="m317.32,368.031c.233,11.599-9.583,22.21-22.59,21.903-11.361-.268-21.522-9.45-21.508-22.104.014-12.581,10.427-22.278,22.629-21.994,11.969.279,21.786,10.209,21.47,22.194Z"/>
        <path class="cls-6" d="m303.403,369.563c-.095,0-.185.021-.279.028l-4.684-7.075c.468-.646.753-1.433.753-2.292,0-2.165-1.755-3.919-3.919-3.919s-3.919,1.755-3.919,3.919c0,.859.284,1.646.753,2.292l-4.684,7.075c-.094-.007-.183-.028-.279-.028-2.165,0-3.919,1.755-3.919,3.919s1.755,3.919,3.919,3.919,3.919-1.755,3.919-3.919c0-1.153-.507-2.18-1.3-2.897l4.386-6.625c.358.108.731.183,1.124.183s.766-.076,1.124-.183l4.386,6.625c-.793.717-1.3,1.744-1.3,2.897,0,2.165,1.755,3.919,3.919,3.919s3.919-1.755,3.919-3.919-1.755-3.919-3.919-3.919Z"/>
      </g>
    </g>
    <g>
      <path class="cls-4" d="m118.643,367.01c.462,11.521-9.772,20.946-20.786,21.039-11.933.1-21.41-9.928-21.395-21.035.015-11.196,9.427-21.07,20.981-21.145,11.874-.077,21.767,10.091,21.199,21.141Z"/>
      <path class="cls-9" d="m116.634,367.125c.429,9.99-8.671,18.974-19.039,18.913-11.074-.066-19.206-9.679-19.129-19.142.082-10.145,8.896-19.056,19.081-19.017,10.739.041,19.646,9.25,19.087,19.247Z"/>
      <text class="cls-19" transform="translate(91.858 374.076)"><tspan x="0" y="0">1</tspan></text>
    </g>
  </g>
  <path class="cls-27" d="m54.217,222.574h1101.283c9.529,0,17.265,7.736,17.265,17.265v37.368c0,9.528-7.736,17.264-17.264,17.264H54.217c-9.529,0-17.265-7.736-17.265-17.265v-37.368c0-9.529,7.736-17.265,17.265-17.265Z"/>
</svg>