<?xml version="1.0" encoding="UTF-8"?>
<svg id="_레이어_2" data-name="레이어 2" xmlns="http://www.w3.org/2000/svg" viewBox="0 0 965.664 852.836">
  <defs>
    <style>
      .cls-1, .cls-2, .cls-3, .cls-4, .cls-5, .cls-6, .cls-7, .cls-8, .cls-9, .cls-10, .cls-11, .cls-12, .cls-13, .cls-14, .cls-15, .cls-16, .cls-17, .cls-18, .cls-19, .cls-20 {
        stroke-width: 0px;
      }

      .cls-1, .cls-21, .cls-22, .cls-23, .cls-24 {
        fill: #fefefe;
      }

      .cls-25, .cls-26, .cls-27 {
        letter-spacing: -.025em;
      }

      .cls-2 {
        fill: #b819b3;
      }

      .cls-3 {
        fill: #c72042;
      }

      .cls-28 {
        letter-spacing: -.031em;
      }

      .cls-26, .cls-21, .cls-22, .cls-29, .cls-30, .cls-31, .cls-27, .cls-23, .cls-32, .cls-24 {
        font-family: Pretendard-Bold-KSCpc-EUC-H, Pretendard;
        font-weight: 700;
      }

      .cls-26, .cls-8, .cls-31 {
        fill: #fff;
      }

      .cls-26, .cls-22, .cls-29, .cls-30, .cls-31, .cls-27, .cls-32 {
        font-size: 22px;
      }

      .cls-4 {
        fill: #fefdfe;
      }

      .cls-5 {
        fill: #c62042;
      }

      .cls-33 {
        fill: #fe3a61;
        stroke: #c62142;
      }

      .cls-33, .cls-34, .cls-35, .cls-36, .cls-37, .cls-38 {
        stroke-width: 2px;
      }

      .cls-33, .cls-35, .cls-37, .cls-38 {
        stroke-linecap: round;
        stroke-linejoin: round;
      }

      .cls-34 {
        stroke: #009400;
      }

      .cls-34, .cls-36 {
        stroke-miterlimit: 10;
      }

      .cls-34, .cls-20 {
        fill: #00b300;
      }

      .cls-21, .cls-23, .cls-24 {
        font-size: 26px;
      }

      .cls-6 {
        fill: #b719b2;
      }

      .cls-7 {
        fill: #ff7f00;
      }

      .cls-35 {
        fill: #19baea;
        stroke: #1498c0;
      }

      .cls-9 {
        fill: #6dddfe;
      }

      .cls-10 {
        fill: #1498c0;
      }

      .cls-11, .cls-38 {
        fill: #dd47d8;
      }

      .cls-12 {
        fill: #ad2800;
      }

      .cls-29 {
        fill: #ff6739;
      }

      .cls-30, .cls-31, .cls-39 {
        letter-spacing: -.01em;
      }

      .cls-40 {
        letter-spacing: -.054em;
      }

      .cls-36, .cls-37 {
        fill: #e43500;
        stroke: #ad2800;
      }

      .cls-38 {
        stroke: #b819b3;
      }

      .cls-13 {
        fill: #f577f1;
      }

      .cls-14 {
        fill: #fedd81;
      }

      .cls-15 {
        fill: #f4af18;
      }

      .cls-16 {
        fill: #f677f2;
      }

      .cls-23 {
        letter-spacing: -.025em;
      }

      .cls-17 {
        fill: #fe9b00;
      }

      .cls-24 {
        letter-spacing: -.01em;
      }

      .cls-18 {
        fill: #f2f2f2;
      }

      .cls-41 {
        letter-spacing: -.042em;
      }

      .cls-19 {
        fill: #fe5576;
      }
    </style>
  </defs>
  <g>
    <g>
      <g>
        <path class="cls-34" d="m380.861,33.954c-2.293-12.791-13.661-22.101-26.741-22.14-81.917-.248-209.84-.501-291.758-.712-2.727-.007-4.859-.438-7.168-2.399C48.028,2.617,39.547.119,30.1,1.274,20.381,2.464,12.681,7.161,7.067,15.04,2.193,21.879.212,29.582,1.283,38.024c1.177,9.281,5.523,16.675,12.825,22.461,2.333,1.849,7.226,4.577,7.226,4.577l11.626,10.7c.839.872,1.302.778,2.093-.031l11.369-10.607c85.789.294,217.813.55,304.723.806,2.186.006,4.365-.091,6.542-.292,15.315-1.89,25.945-16.233,23.175-31.684Z"/>
        <g>
          <path class="cls-1" d="m34.019,61.097c-14.926-.049-27.038-12.211-27-27.111.038-14.888,12.218-27,27.151-27h.125c14.901.067,26.976,12.266,26.917,27.193-.058,14.843-12.216,26.918-27.102,26.918h-.091Z"/>
          <path class="cls-18" d="m34.17,7.986h0,.121c14.35.064,25.978,11.812,25.922,26.189-.056,14.293-11.765,25.921-26.103,25.921h-.087c-14.375-.047-26.04-11.759-26.003-26.108.037-14.337,11.768-26.001,26.151-26.002m0-2c-15.525,0-28.11,12.501-28.15,27.997-.04,15.454,12.518,28.063,27.997,28.114h.094c15.444,0,28.042-12.502,28.103-27.914.061-15.478-12.463-28.128-27.913-28.197-.044,0-.086,0-.13,0h0Z"/>
        </g>
        <text class="cls-21" transform="translate(73.781 46.251) rotate(.173)"><tspan x="0" y="0">시작하기 버튼을 클릭했을 때</tspan></text>
        <path class="cls-20" d="m26.49,33.987c0-2.979-.003-5.959.002-8.938.001-.871-.04-1.782.9-2.272.89-.464,1.669-.113,2.434.376,4.656,2.978,9.324,5.939,13.977,8.921,2.063,1.322,2.073,2.615.042,3.913-4.656,2.976-9.325,5.932-13.976,8.916-.771.494-1.55.863-2.428.428-.92-.456-.963-1.342-.958-2.244.016-3.033.006-6.067.006-9.101Z"/>
      </g>
      <g>
        <g>
          <path class="cls-38" d="m427.541,65.062H46.522c1.489,0,0,0,0,0l-12.543,11.548s0,0,0,0l-12.023-10.98c-.238-.218-.622-.049-.622.274v54.741c0,.047.011.092.028.135h-.003l.004.004c.02.048.048.093.087.13h.056l11.328,10.345c.663.605,1.678.603,2.338-.005l10.91-10.045c.212-.195.49-.304.779-.304l382.171-.101c15.329,0,27.871-12.542,27.871-27.871h0c0-15.329-12.542-27.871-29.36-27.871Z"/>
          <g>
            <path class="cls-6" d="m449.979,92.977c.233,11.599-9.583,22.21-22.59,21.903-11.361-.268-21.522-9.45-21.508-22.104.014-12.581,10.427-22.278,22.629-21.994,11.969.279,21.786,10.209,21.47,22.194Z"/>
            <path class="cls-16" d="m428.247,82.814c1.421.066,3.283.498,4.796,1.905,2.464,2.29,2.614,5.317.342,7.812-.823.903-1.728,1.735-2.634,2.558-.847.769-1.497,1.641-1.723,2.78-.285,1.438-1.202,2.017-2.552,1.624-1.294-.377-1.297-1.572-1.154-2.621.299-2.203,1.86-3.593,3.427-4.952.334-.29.717-.537.999-.87,1.487-1.758,1.36-3.4-.321-4.537-1.47-.995-3.897-.403-4.808,1.208-.326.577-.531,1.221-.815,1.823-.524,1.11-1.42,1.65-2.58,1.204-1.144-.44-1.405-1.351-1.1-2.592.769-3.131,3.806-5.339,8.123-5.343Z"/>
            <path class="cls-13" d="m427.221,105.529c-1.271-.012-2.113-.925-2.059-2.258.054-1.311.741-2.044,2.063-2.095,1.32-.051,2.369,1,2.32,2.267-.048,1.226-1.02,2.098-2.324,2.086Z"/>
          </g>
          <g>
            <g>
              <circle class="cls-14" cx="218.888" cy="92.214" r="19.903"/>
              <path class="cls-17" d="m218.888,73.311c10.423,0,18.903,8.48,18.903,18.903s-8.48,18.903-18.903,18.903-18.903-8.48-18.903-18.903,8.48-18.903,18.903-18.903m0-2h0c-11.497,0-20.903,9.406-20.903,20.903s9.406,20.903,20.903,20.903h0c11.497,0,20.903-9.406,20.903-20.903s-9.406-20.903-20.903-20.903h0Z"/>
            </g>
            <text class="cls-27" transform="translate(213.215 99.276)"><tspan x="0" y="0">1</tspan></text>
          </g>
        </g>
        <g>
          <path class="cls-2" d="m50.239,79.202v27.721c0,3.45,2.808,6.244,6.257,6.235,25.312-.061,20.186-.046,45.511-.044,3.444,0,6.242-2.791,6.242-6.235v-27.63c0-3.441-2.787-6.231-6.228-6.235l-45.54-.046c-3.447-.004-6.243,2.789-6.243,6.235Z"/>
          <text class="cls-22" transform="translate(60.619 100.901)"><tspan x="0" y="0">단</tspan></text>
          <path class="cls-4" d="m94.67,89.169c1.503,0,3.006-.003,4.509.001.951.003,1.744.288,2.197,1.211.47.958.064,1.702-.534,2.425-1.451,1.754-2.859,3.543-4.343,5.268-1.318,1.533-2.389,1.523-3.72-.029-1.519-1.771-2.972-3.598-4.452-5.402-.521-.635-.812-1.313-.452-2.145.374-.865,1.045-1.293,1.954-1.309,1.614-.027,3.228-.008,4.842-.008v-.013Z"/>
        </g>
        <text class="cls-24" transform="translate(123.619 101.411)"><tspan x="0" y="0">을(를)</tspan></text>
        <text class="cls-24" transform="translate(253.812 101.411)"><tspan x="0" y="0">(으)로 정하기</tspan></text>
      </g>
      <g>
        <g>
          <g>
            <path class="cls-35" d="m311.596,721.087l-211.012.255-12.239,10.719-13.009-10.975v-326.243l12.441,11.461,12.387-11.471,199.342-.091c16.083,0,29.098-13.806,27.779-30.151-1.175-14.565-13.733-25.591-28.345-25.591H73.448l-11.323,10.725-12.918-10.157c-.564-.217-.948-.048-.948.274l.171,412.81,12.379,11.613,12.516-11.613h238.27c8.716,0,15.782-7.066,15.782-15.783s-7.066-15.783-15.782-15.783Z"/>
            <g>
              <path class="cls-10" d="m317.256,366.916c.233,11.599-9.583,22.21-22.59,21.903-11.361-.268-21.522-9.45-21.508-22.104.014-12.581,10.427-22.278,22.629-21.994,11.969.279,21.786,10.209,21.47,22.194Z"/>
              <path class="cls-9" d="m303.339,368.448c-.095,0-.185.021-.279.028l-4.684-7.075c.647-.892.942-2.055.623-3.302-.356-1.388-1.5-2.504-2.899-2.812-2.553-.562-4.81,1.366-4.81,3.821,0,.859.284,1.646.753,2.292l-4.684,7.075c-.094-.007-.183-.028-.279-.028-2.466,0-4.4,2.277-3.814,4.843.323,1.416,1.474,2.567,2.89,2.89,2.566.586,4.843-1.348,4.843-3.814,0-1.153-.507-2.18-1.3-2.897l4.386-6.625c.358.108.731.183,1.124.183s.766-.076,1.124-.183l4.386,6.625c-1.013.917-1.56,2.338-1.178,3.884.344,1.389,1.482,2.51,2.877,2.828,2.564.583,4.839-1.35,4.839-3.815,0-2.165-1.755-3.919-3.919-3.919Z"/>
            </g>
            <text class="cls-21" transform="translate(138.528 374.672)"><tspan x="0" y="0">번 반복하기</tspan></text>
          </g>
          <g>
            <g>
              <path class="cls-14" d="m98.068,385.642c-10.975,0-19.903-8.928-19.903-19.903s8.929-19.903,19.903-19.903h2.367c10.975,0,19.903,8.928,19.903,19.903s-8.929,19.903-19.903,19.903h-2.367Z"/>
              <path class="cls-17" d="m100.434,346.835c10.423,0,18.903,8.48,18.903,18.903s-8.48,18.903-18.903,18.903h-2.367c-10.423,0-18.903-8.48-18.903-18.903s8.48-18.903,18.903-18.903h2.367m0-2h-2.367c-11.497,0-20.903,9.406-20.903,20.903s9.406,20.903,20.903,20.903h2.367c11.497,0,20.903-9.406,20.903-20.903s-9.406-20.903-20.903-20.903h0Z"/>
            </g>
            <text class="cls-27" transform="translate(92.683 372.801)"><tspan x="0" y="0">9</tspan></text>
          </g>
        </g>
        <g>
          <path class="cls-35" d="m284.67,808.658H73.949l-12.263,10.702-13.277-11.38V176.831l12.441,11.461,12.387-11.471,199.342-.091c16.083,0,29.097-13.805,27.779-30.151-1.175-14.565-13.733-25.591-28.345-25.591H46.522l-12.543,11.548-12.023-10.98c-.238-.218-.622-.049-.622.274v54.741c0,.047.011.092.028.135h-.004l.091.134.056,663.384,12.379,11.613,12.516-11.613h238.27c8.716,0,15.782-7.066,15.782-15.783s-7.066-15.783-15.782-15.783Z"/>
          <g>
            <path class="cls-10" d="m290.33,148.903c.233,11.599-9.583,22.21-22.59,21.903-11.361-.268-21.522-9.45-21.508-22.104.014-12.581,10.427-22.278,22.629-21.994,11.969.279,21.786,10.209,21.47,22.194Z"/>
            <path class="cls-9" d="m276.413,150.436c-.095,0-.185.021-.279.028l-4.684-7.075c.647-.892.942-2.055.623-3.302-.356-1.388-1.5-2.504-2.899-2.812-2.553-.562-4.81,1.366-4.81,3.821,0,.859.284,1.646.753,2.292l-4.684,7.075c-.094-.007-.183-.028-.279-.028-2.466,0-4.4,2.277-3.814,4.843.323,1.416,1.474,2.567,2.89,2.89,2.566.586,4.843-1.348,4.843-3.814,0-1.153-.507-2.18-1.3-2.897l4.386-6.625c.358.108.731.183,1.124.183s.766-.076,1.124-.183l4.386,6.625c-1.013.917-1.56,2.338-1.178,3.884.344,1.389,1.482,2.51,2.877,2.828,2.564.583,4.839-1.35,4.839-3.815,0-2.165-1.755-3.919-3.919-3.919Z"/>
          </g>
          <text class="cls-21" transform="translate(111.602 156.66)"><tspan x="0" y="0">번 반복하기</tspan></text>
        </g>
        <g>
          <g>
            <path class="cls-14" d="m71.141,167.629c-10.975,0-19.903-8.929-19.903-19.903s8.929-19.903,19.903-19.903h2.367c10.975,0,19.903,8.929,19.903,19.903s-8.929,19.903-19.903,19.903h-2.367Z"/>
            <path class="cls-17" d="m73.508,128.823c10.423,0,18.903,8.48,18.903,18.903s-8.48,18.903-18.903,18.903h-2.367c-10.423,0-18.903-8.48-18.903-18.903s8.48-18.903,18.903-18.903h2.367m0-2h-2.367c-11.497,0-20.903,9.407-20.903,20.903s9.406,20.903,20.903,20.903h2.367c11.497,0,20.903-9.407,20.903-20.903s-9.406-20.903-20.903-20.903h0Z"/>
          </g>
          <text class="cls-27" transform="translate(65.757 154.789)"><tspan x="0" y="0">9</tspan></text>
        </g>
      </g>
      <g>
        <g>
          <path class="cls-36" d="m310.088,176.49H74.329l-12.543,11.141-12.024-10.593c-.238-.21-.622-.047-.622.265v52.811c0,.098.042.191.115.259l12.53,11.31,12.351-11.415h236.368c16.516,0,27.454-12.1,27.454-26.888h0c0-14.789-12.542-26.888-27.871-26.888Z"/>
          <g>
            <path class="cls-12" d="m285.802,203.884c.085-12.114,9.79-22.01,22.342-21.937,12.159.071,22.178,9.883,21.961,22.471-.203,11.764-9.754,21.773-22.498,21.598-12.042-.166-21.794-9.762-21.805-22.132Z"/>
            <text class="cls-29" transform="translate(298.395 211.912)"><tspan x="0" y="0">가</tspan></text>
          </g>
        </g>
        <text class="cls-21" transform="translate(77.95 210.751)"><tspan x="0" y="0">텍스트 모두 지우기</tspan></text>
      </g>
      <g>
        <g>
          <path class="cls-36" d="m336.022,394.583H100.263l-12.543,11.141-12.024-10.593c-.238-.21-.622-.047-.622.265v52.811c0,.098.042.191.115.259l12.53,11.31,12.351-11.415h236.368c16.516,0,27.454-12.1,27.454-26.888h0c0-14.789-12.542-26.888-27.871-26.888Z"/>
          <g>
            <path class="cls-12" d="m311.737,421.976c.085-12.114,9.79-22.01,22.342-21.937,12.159.071,22.178,9.883,21.961,22.471-.203,11.764-9.754,21.773-22.498,21.598-12.042-.166-21.794-9.762-21.805-22.132Z"/>
            <text class="cls-29" transform="translate(324.329 430.005)"><tspan x="0" y="0">가</tspan></text>
          </g>
        </g>
        <text class="cls-21" transform="translate(103.884 428.843)"><tspan x="0" y="0">텍스트 모두 지우기</tspan></text>
      </g>
      <g>
        <g>
          <path class="cls-33" d="m936.793,230.115H74.329l-12.543,11.141-12.024-10.593c-.238-.21-.622-.047-.622.265v52.811c0,.098.042.191.115.259l12.53,11.31,12.351-11.415h863.073c16.516,0,27.454-12.1,27.454-26.888h0c0-14.789-12.542-26.888-27.871-26.888Z"/>
          <g>
            <path class="cls-5" d="m912.507,257.509c.085-12.114,9.79-22.01,22.342-21.937,12.159.071,22.178,9.883,21.961,22.471-.203,11.764-9.754,21.773-22.498,21.598-12.042-.166-21.794-9.762-21.805-22.132Z"/>
            <path class="cls-19" d="m935.407,258.947c2.854.024,5.612,2.731,5.624,5.52.014,3.13-2.722,5.849-5.866,5.829-3.016-.018-5.566-2.746-5.533-5.919.031-3.007,2.636-5.457,5.775-5.43Z"/>
            <rect class="cls-19" x="937.795" y="249.331" width="9.448" height="9.448" transform="translate(455.702 -592.05) rotate(45)"/>
            <polygon class="cls-19" points="933.638 257.01 933.638 250.578 928.067 247.361 922.497 250.578 922.497 257.01 928.067 260.226 933.638 257.01"/>
          </g>
        </g>
        <text class="cls-23" transform="translate(573.56 265.569)"><tspan x="0" y="0">을(를)</tspan></text>
        <text class="cls-23" transform="translate(710.967 265.569)"><tspan x="0" y="0">초 동안</tspan></text>
        <g>
          <rect class="cls-3" x="801.894" y="238.124" width="95.645" height="38.968" rx="3.871" ry="3.871"/>
          <text class="cls-26" transform="translate(812.419 264.671)"><tspan x="0" y="0">말하기</tspan></text>
          <path class="cls-4" d="m881.039,252.93c1.503,0,3.006-.003,4.509.001.951.003,1.744.288,2.197,1.211.47.958.064,1.702-.534,2.425-1.451,1.754-2.859,3.543-4.343,5.268-1.318,1.533-2.389,1.523-3.72-.029-1.519-1.771-2.972-3.598-4.452-5.402-.521-.635-.812-1.313-.452-2.145.374-.865,1.045-1.293,1.954-1.309,1.614-.027,3.228-.008,4.842-.008v-.013Z"/>
        </g>
        <g>
          <g>
            <path class="cls-14" d="m672.793,277.125c-10.975,0-19.903-8.928-19.903-19.903s8.928-19.903,19.903-19.903,19.903,8.928,19.903,19.903-8.928,19.903-19.903,19.903Z"/>
            <path class="cls-17" d="m672.793,238.319c10.423,0,18.903,8.48,18.903,18.903s-8.48,18.903-18.903,18.903-18.903-8.48-18.903-18.903,8.48-18.903,18.903-18.903m0-2c-11.497,0-20.903,9.407-20.903,20.903s9.406,20.903,20.903,20.903,20.903-9.406,20.903-20.903-9.406-20.903-20.903-20.903h0Z"/>
          </g>
          <text class="cls-27" transform="translate(667.088 264.285)"><tspan x="0" y="0">1</tspan></text>
        </g>
        <g>
          <g>
            <path class="cls-15" d="m96.096,277.125c-10.975,0-19.903-8.928-19.903-19.903s8.929-19.903,19.903-19.903h442.362c10.975,0,19.903,8.928,19.903,19.903s-8.928,19.903-19.903,19.903H96.096Z"/>
            <path class="cls-7" d="m538.458,238.319c10.423,0,18.903,8.48,18.903,18.903s-8.48,18.903-18.903,18.903H96.096c-10.423,0-18.903-8.48-18.903-18.903s8.48-18.903,18.903-18.903h442.362m0-2H96.096c-11.497,0-20.903,9.407-20.903,20.903s9.406,20.903,20.903,20.903h442.362c11.497,0,20.903-9.406,20.903-20.903s-9.406-20.903-20.903-20.903h0Z"/>
          </g>
          <g>
            <g>
              <path class="cls-11" d="m108.087,277.125c-10.975,0-19.903-8.928-19.903-19.903s8.929-19.903,19.903-19.903h79.62c10.975,0,19.903,8.928,19.903,19.903s-8.929,19.903-19.903,19.903h-79.62Z"/>
              <path class="cls-2" d="m187.707,238.319c10.423,0,18.903,8.48,18.903,18.903s-8.48,18.903-18.903,18.903h-79.621c-10.423,0-18.903-8.48-18.903-18.903s8.48-18.903,18.903-18.903h79.621m0-2h-79.621c-11.497,0-20.903,9.407-20.903,20.903s9.406,20.903,20.903,20.903h79.621c11.497,0,20.903-9.406,20.903-20.903s-9.407-20.903-20.903-20.903h0Z"/>
            </g>
            <rect class="cls-2" x="102.667" y="237.738" width="57.3" height="38.968" rx="3.871" ry="3.871"/>
            <text class="cls-26" transform="translate(172.877 264.285)"><tspan x="0" y="0">값</tspan></text>
            <text class="cls-26" transform="translate(113.192 264.285)"><tspan x="0" y="0">단</tspan></text>
            <path class="cls-4" d="m144.274,252.545c1.503,0,3.006-.003,4.509.001.951.003,1.744.288,2.197,1.211.47.958.064,1.702-.534,2.425-1.451,1.754-2.859,3.543-4.343,5.268-1.318,1.533-2.389,1.523-3.72-.029-1.519-1.771-2.972-3.598-4.452-5.402-.521-.635-.812-1.313-.452-2.145.374-.865,1.045-1.293,1.954-1.309,1.614-.027,3.228-.008,4.842-.008v-.013Z"/>
          </g>
          <g>
            <path class="cls-14" d="m312.605,277.125c-10.975,0-19.903-8.928-19.903-19.903s8.929-19.903,19.903-19.903h73.995c10.975,0,19.903,8.928,19.903,19.903s-8.929,19.903-19.903,19.903h-73.995Z"/>
            <path class="cls-17" d="m386.6,238.319c10.423,0,18.903,8.48,18.903,18.903s-8.48,18.903-18.903,18.903h-73.995c-10.423,0-18.903-8.48-18.903-18.903s8.48-18.903,18.903-18.903h73.995m0-2h-73.995c-11.497,0-20.903,9.407-20.903,20.903s9.406,20.903,20.903,20.903h73.995c11.497,0,20.903-9.406,20.903-20.903s-9.407-20.903-20.903-20.903h0Z"/>
          </g>
          <text class="cls-31" transform="translate(224.544 264.286)"><tspan x="0" y="0">과(와)</tspan></text>
          <text class="cls-32" transform="translate(308.19 264.286)"><tspan class="cls-39" x="0" y="0">단 입니다</tspan><tspan class="cls-41" x="80.025" y="0">.</tspan></text>
          <text class="cls-31" transform="translate(422.007 264.286)"><tspan x="0" y="0">을(를) 합친 값</tspan></text>
        </g>
      </g>
      <g>
        <g>
          <path class="cls-38" d="m516.238,283.077H74.329s0,0,0,0l-12.543,11.548s0,0,0,0l-12.023-10.98c-.238-.218-.622-.049-.622.274v54.741c0,.047.011.092.028.135h-.003l.004.004c.02.048.048.093.087.13h.056l11.328,10.345c.663.605,1.678.603,2.338-.005l10.91-10.045c.212-.195.49-.304.779-.304l441.572-.101c15.329,0,27.871-12.542,27.871-27.871h0c0-15.329-12.542-27.871-27.871-27.871Z"/>
          <g>
            <path class="cls-6" d="m537.186,310.992c.233,11.599-9.583,22.21-22.59,21.903-11.361-.268-21.522-9.45-21.508-22.104.014-12.581,10.427-22.278,22.629-21.994,11.969.279,21.786,10.209,21.47,22.194Z"/>
            <path class="cls-16" d="m515.455,300.829c1.421.066,3.283.498,4.796,1.905,2.464,2.29,2.614,5.317.342,7.812-.823.903-1.728,1.735-2.634,2.558-.847.769-1.497,1.641-1.723,2.78-.285,1.438-1.202,2.017-2.552,1.624-1.294-.377-1.297-1.572-1.154-2.621.299-2.203,1.86-3.593,3.427-4.952.334-.29.717-.537.999-.87,1.487-1.758,1.36-3.4-.321-4.537-1.47-.995-3.897-.403-4.808,1.208-.326.577-.531,1.221-.815,1.823-.524,1.11-1.42,1.65-2.58,1.204-1.144-.44-1.405-1.351-1.1-2.592.769-3.131,3.806-5.339,8.123-5.343Z"/>
            <path class="cls-13" d="m514.429,323.544c-1.271-.012-2.113-.925-2.059-2.258.054-1.311.741-2.044,2.063-2.095,1.32-.051,2.369,1,2.32,2.267-.048,1.226-1.02,2.098-2.324,2.086Z"/>
          </g>
          <g>
            <g>
              <circle class="cls-14" cx="306.095" cy="310.229" r="19.903" transform="translate(-66.161 536.86) rotate(-76.718)"/>
              <path class="cls-17" d="m306.095,291.326c10.423,0,18.903,8.48,18.903,18.903s-8.48,18.903-18.903,18.903-18.903-8.48-18.903-18.903,8.48-18.903,18.903-18.903m0-2c-11.497,0-20.903,9.407-20.903,20.903s9.407,20.903,20.903,20.903,20.903-9.406,20.903-20.903-9.406-20.903-20.903-20.903h0Z"/>
            </g>
            <text class="cls-27" transform="translate(300.423 317.292)"><tspan x="0" y="0">1</tspan></text>
          </g>
        </g>
        <g>
          <path class="cls-2" d="m78.045,297.217v27.721c0,3.45,2.808,6.244,6.257,6.235,25.312-.061,79.587-.046,104.912-.044,3.444,0,6.242-2.791,6.242-6.235v-27.63c0-3.441-2.787-6.231-6.228-6.235l-104.941-.046c-3.447-.004-6.243,2.789-6.243,6.235Z"/>
          <text class="cls-22" transform="translate(88.425 318.916)"><tspan x="0" y="0">곱하는 수</tspan></text>
          <path class="cls-4" d="m181.878,307.184c1.503,0,3.006-.003,4.509.001.951.003,1.744.288,2.197,1.211.47.958.064,1.702-.534,2.425-1.451,1.754-2.859,3.543-4.343,5.268-1.318,1.533-2.389,1.523-3.72-.029-1.519-1.771-2.972-3.598-4.452-5.402-.521-.635-.812-1.313-.452-2.145.374-.865,1.045-1.293,1.954-1.309,1.614-.027,3.228-.008,4.842-.008v-.013Z"/>
        </g>
        <text class="cls-24" transform="translate(210.827 319.427)"><tspan x="0" y="0">을(를)</tspan></text>
        <text class="cls-24" transform="translate(341.02 319.427)"><tspan x="0" y="0">(으)로 정하기</tspan></text>
      </g>
      <g>
        <path class="cls-36" d="m779.923,447.648H100.263l-12.543,11.141-12.024-10.593c-.238-.21-.622-.047-.622.265v52.811c0,.098.042.191.115.259l12.53,11.31,12.351-11.415h680.269c16.516,0,27.454-12.1,27.454-26.888h0c0-14.789-12.542-26.888-27.871-26.888Z"/>
        <g>
          <path class="cls-12" d="m755.638,475.041c.085-12.114,9.79-22.01,22.342-21.937,12.159.071,22.178,9.883,21.961,22.471-.203,11.764-9.754,21.773-22.498,21.598-12.042-.166-21.794-9.762-21.805-22.132Z"/>
          <text class="cls-29" transform="translate(768.23 483.07)"><tspan x="0" y="0">가</tspan></text>
        </g>
        <text class="cls-21" transform="translate(529.74 481.908)"><tspan x="0" y="0" xml:space="preserve">을(를)  뒤에 추가하기</tspan></text>
        <g>
          <path class="cls-15" d="m123.03,494.043c-10.975,0-19.903-8.928-19.903-19.903s8.928-19.903,19.903-19.903h370.171c10.975,0,19.903,8.928,19.903,19.903s-8.929,19.903-19.903,19.903H123.03Z"/>
          <path class="cls-7" d="m493.201,455.237c10.423,0,18.903,8.48,18.903,18.903s-8.48,18.903-18.903,18.903H123.03c-10.423,0-18.903-8.48-18.903-18.903s8.48-18.903,18.903-18.903h370.171m0-2H123.03c-11.497,0-20.903,9.406-20.903,20.903s9.407,20.903,20.903,20.903h370.171c11.497,0,20.903-9.407,20.903-20.903s-9.407-20.903-20.903-20.903h0Z"/>
        </g>
        <g>
          <path class="cls-11" d="m137.022,494.043c-10.975,0-19.903-8.928-19.903-19.903s8.929-19.903,19.903-19.903h79.62c10.975,0,19.903,8.929,19.903,19.903s-8.929,19.903-19.903,19.903h-79.62Z"/>
          <path class="cls-2" d="m216.642,455.237c10.423,0,18.903,8.48,18.903,18.903s-8.48,18.903-18.903,18.903h-79.621c-10.423,0-18.903-8.48-18.903-18.903s8.48-18.903,18.903-18.903h79.621m0-2h-79.621c-11.497,0-20.903,9.406-20.903,20.903s9.406,20.903,20.903,20.903h79.621c11.497,0,20.903-9.407,20.903-20.903s-9.407-20.903-20.903-20.903h0Z"/>
        </g>
        <rect class="cls-2" x="131.602" y="454.656" width="57.3" height="38.968" rx="3.871" ry="3.871"/>
        <text class="cls-26" transform="translate(201.812 481.202)"><tspan x="0" y="0">값</tspan></text>
        <text class="cls-26" transform="translate(142.127 481.202)"><tspan x="0" y="0">단</tspan></text>
        <path class="cls-4" d="m173.209,469.462c1.503,0,3.006-.003,4.509.001.951.003,1.744.288,2.197,1.211.47.958.064,1.702-.534,2.425-1.451,1.754-2.859,3.543-4.343,5.268-1.318,1.533-2.389,1.523-3.72-.029-1.519-1.771-2.972-3.598-4.452-5.402-.521-.635-.812-1.313-.452-2.145.374-.865,1.045-1.293,1.954-1.309,1.614-.027,3.228-.008,4.842-.008v-.013Z"/>
        <g>
          <path class="cls-14" d="m341.54,494.043c-10.975,0-19.903-8.928-19.903-19.903s8.929-19.903,19.903-19.903h1.803c10.975,0,19.903,8.929,19.903,19.903s-8.929,19.903-19.903,19.903h-1.803Z"/>
          <path class="cls-17" d="m343.344,455.237c10.423,0,18.903,8.48,18.903,18.903s-8.48,18.903-18.903,18.903h-1.804c-10.423,0-18.903-8.48-18.903-18.903s8.48-18.903,18.903-18.903h1.804m0-2h-1.804c-11.497,0-20.903,9.406-20.903,20.903s9.406,20.903,20.903,20.903h1.804c11.497,0,20.903-9.407,20.903-20.903s-9.407-20.903-20.903-20.903h0Z"/>
        </g>
        <text class="cls-31" transform="translate(253.479 481.203)"><tspan x="0" y="0">과(와)</tspan></text>
        <text class="cls-30" transform="translate(335.125 482.203)"><tspan x="0" y="0">X</tspan></text>
        <text class="cls-31" transform="translate(378.751 481.203)"><tspan x="0" y="0">을(를) 합친 값</tspan></text>
      </g>
      <g>
        <g>
          <path class="cls-36" d="m848.888,501.401H100.263l-12.543,11.141-12.024-10.593c-.238-.21-.622-.047-.622.265v52.811c0,.098.042.191.115.259l12.53,11.31,12.351-11.415h749.234c16.516,0,27.454-12.1,27.454-26.888h0c0-14.789-12.542-26.888-27.871-26.888Z"/>
          <g>
            <path class="cls-12" d="m824.603,528.795c.085-12.114,9.79-22.01,22.342-21.937,12.159.071,22.178,9.883,21.961,22.471-.203,11.764-9.754,21.773-22.498,21.598-12.042-.166-21.794-9.762-21.805-22.132Z"/>
            <text class="cls-29" transform="translate(837.195 536.823)"><tspan x="0" y="0">가</tspan></text>
          </g>
        </g>
        <text class="cls-21" transform="translate(595.705 535.661)"><tspan x="0" y="0" xml:space="preserve">을(를)  뒤에 추가하기</tspan></text>
        <g>
          <path class="cls-15" d="m123.03,547.796c-10.975,0-19.903-8.928-19.903-19.903s8.929-19.903,19.903-19.903h431.135c10.975,0,19.903,8.928,19.903,19.903s-8.928,19.903-19.903,19.903H123.03Z"/>
          <path class="cls-7" d="m554.166,508.99c10.423,0,18.903,8.48,18.903,18.903s-8.48,18.903-18.903,18.903H123.03c-10.423,0-18.903-8.48-18.903-18.903s8.48-18.903,18.903-18.903h431.135m0-2H123.03c-11.497,0-20.903,9.406-20.903,20.903s9.407,20.903,20.903,20.903h431.135c11.497,0,20.903-9.407,20.903-20.903s-9.407-20.903-20.903-20.903h0Z"/>
        </g>
        <g>
          <path class="cls-11" d="m137.022,547.796c-10.975,0-19.903-8.928-19.903-19.903s8.929-19.903,19.903-19.903h141.734c10.975,0,19.903,8.929,19.903,19.903s-8.929,19.903-19.903,19.903h-141.734Z"/>
          <path class="cls-2" d="m278.756,508.99c10.423,0,18.903,8.48,18.903,18.903s-8.48,18.903-18.903,18.903h-141.735c-10.423,0-18.903-8.48-18.903-18.903s8.48-18.903,18.903-18.903h141.735m0-2h-141.735c-11.497,0-20.903,9.406-20.903,20.903s9.406,20.903,20.903,20.903h141.735c11.497,0,20.903-9.407,20.903-20.903s-9.406-20.903-20.903-20.903h0Z"/>
        </g>
        <rect class="cls-2" x="131.602" y="508.409" width="119.414" height="38.968" rx="3.871" ry="3.871"/>
        <text class="cls-26" transform="translate(263.926 534.956)"><tspan x="0" y="0">값</tspan></text>
        <text class="cls-26" transform="translate(142.127 534.956)"><tspan x="0" y="0">곱하는 수</tspan></text>
        <path class="cls-4" d="m235.323,523.216c1.503,0,3.006-.003,4.509.001.951.003,1.744.288,2.197,1.211.47.958.064,1.702-.534,2.425-1.451,1.754-2.859,3.543-4.343,5.268-1.318,1.533-2.389,1.523-3.72-.029-1.519-1.771-2.972-3.598-4.452-5.402-.521-.635-.812-1.313-.452-2.145.374-.865,1.045-1.293,1.954-1.309,1.614-.027,3.228-.008,4.842-.008v-.013Z"/>
        <g>
          <path class="cls-14" d="m403.654,547.796c-10.975,0-19.903-8.928-19.903-19.903s8.929-19.903,19.903-19.903h.654c10.975,0,19.903,8.929,19.903,19.903s-8.929,19.903-19.903,19.903h-.654Z"/>
          <path class="cls-17" d="m404.308,508.99c10.423,0,18.903,8.48,18.903,18.903s-8.48,18.903-18.903,18.903h-.654c-10.423,0-18.903-8.48-18.903-18.903s8.48-18.903,18.903-18.903h.654m0-2h-.654c-11.497,0-20.903,9.406-20.903,20.903s9.407,20.903,20.903,20.903h.654c11.497,0,20.903-9.407,20.903-20.903s-9.407-20.903-20.903-20.903h0Z"/>
        </g>
        <text class="cls-31" transform="translate(315.593 534.957)"><tspan x="0" y="0">과(와)</tspan></text>
        <text class="cls-30" transform="translate(396.916 533.997)"><tspan x="0" y="0">=</tspan></text>
        <text class="cls-31" transform="translate(439.715 534.957)"><tspan x="0" y="0">을(를) 합친 값</tspan></text>
      </g>
      <g>
        <g>
          <path class="cls-37" d="m768.887,555.592H100.263l-12.543,11.141-12.024-10.593c-.238-.21-.622-.047-.622.265v52.811c0,.098.042.191.115.259l12.53,11.31,12.351-11.415h669.233c16.516,0,27.454-12.1,27.454-26.888h0c0-14.789-12.542-26.888-27.871-26.888Z"/>
          <g>
            <path class="cls-12" d="m744.602,582.986c.085-12.114,9.79-22.01,22.342-21.937,12.159.071,22.178,9.883,21.961,22.471-.203,11.764-9.754,21.773-22.498,21.598-12.042-.166-21.794-9.762-21.805-22.132Z"/>
            <text class="cls-29" transform="translate(757.194 591.014)"><tspan x="0" y="0">가</tspan></text>
          </g>
        </g>
        <text class="cls-21" transform="translate(518.705 589.852)"><tspan x="0" y="0" xml:space="preserve">을(를)  뒤에 추가하기</tspan></text>
        <g>
          <path class="cls-15" d="m123.03,601.987c-10.975,0-19.903-8.928-19.903-19.903s8.929-19.903,19.903-19.903h359.135c10.975,0,19.903,8.928,19.903,19.903s-8.928,19.903-19.903,19.903H123.03Z"/>
          <path class="cls-7" d="m482.166,563.181c10.423,0,18.903,8.48,18.903,18.903s-8.48,18.903-18.903,18.903H123.03c-10.423,0-18.903-8.48-18.903-18.903s8.48-18.903,18.903-18.903h359.135m0-2H123.03c-11.497,0-20.903,9.406-20.903,20.903h0c0,11.497,9.407,20.903,20.903,20.903h359.135c11.497,0,20.903-9.406,20.903-20.903h0c0-11.497-9.407-20.903-20.903-20.903h0Z"/>
        </g>
        <g>
          <path class="cls-11" d="m137.022,601.987c-10.975,0-19.903-8.929-19.903-19.903s8.929-19.903,19.903-19.903h79.62c10.975,0,19.903,8.929,19.903,19.903s-8.929,19.903-19.903,19.903h-79.62Z"/>
          <path class="cls-2" d="m216.642,563.181c10.423,0,18.903,8.48,18.903,18.903s-8.48,18.903-18.903,18.903h-79.621c-10.423,0-18.903-8.48-18.903-18.903s8.48-18.903,18.903-18.903h79.621m0-2h-79.621c-11.497,0-20.903,9.406-20.903,20.903h0c0,11.497,9.406,20.903,20.903,20.903h79.621c11.497,0,20.903-9.406,20.903-20.903h0c0-11.497-9.407-20.903-20.903-20.903h0Z"/>
        </g>
        <rect class="cls-2" x="131.602" y="562.6" width="57.3" height="38.968" rx="3.871" ry="3.871"/>
        <text class="cls-26" transform="translate(201.812 589.147)"><tspan x="0" y="0">값</tspan></text>
        <text class="cls-26" transform="translate(142.127 589.147)"><tspan x="0" y="0">단</tspan></text>
        <path class="cls-4" d="m173.209,577.407c1.503,0,3.006-.003,4.509.001.951.003,1.744.288,2.197,1.211.47.958.064,1.702-.534,2.425-1.451,1.754-2.859,3.543-4.343,5.268-1.318,1.533-2.389,1.523-3.72-.029-1.519-1.771-2.972-3.598-4.452-5.402-.521-.635-.812-1.313-.452-2.145.374-.865,1.045-1.293,1.954-1.309,1.614-.027,3.228-.008,4.842-.008v-.013Z"/>
        <g>
          <path class="cls-11" d="m326.049,601.987c-10.975,0-19.903-8.929-19.903-19.903s8.929-19.903,19.903-19.903h141.734c10.975,0,19.903,8.929,19.903,19.903s-8.929,19.903-19.903,19.903h-141.734Z"/>
          <path class="cls-2" d="m467.784,563.181c10.423,0,18.903,8.48,18.903,18.903s-8.48,18.903-18.903,18.903h-141.735c-10.423,0-18.903-8.48-18.903-18.903s8.48-18.903,18.903-18.903h141.735m0-2h-141.735c-11.497,0-20.903,9.406-20.903,20.903h0c0,11.497,9.406,20.903,20.903,20.903h141.735c11.497,0,20.903-9.406,20.903-20.903h0c0-11.497-9.406-20.903-20.903-20.903h0Z"/>
        </g>
        <rect class="cls-2" x="320.63" y="562.6" width="119.414" height="38.968" rx="3.871" ry="3.871"/>
        <text class="cls-26" transform="translate(452.953 589.147)"><tspan x="0" y="0">값</tspan></text>
        <text class="cls-26" transform="translate(331.154 589.147)"><tspan x="0" y="0">곱하는 수</tspan></text>
        <path class="cls-4" d="m424.35,577.407c1.503,0,3.006-.003,4.509.001.951.003,1.744.288,2.197,1.211.47.958.064,1.702-.534,2.425-1.451,1.754-2.859,3.543-4.343,5.268-1.318,1.533-2.389,1.523-3.72-.029-1.519-1.771-2.972-3.598-4.452-5.402-.521-.635-.812-1.313-.452-2.145.374-.865,1.045-1.293,1.954-1.309,1.614-.027,3.228-.008,4.842-.008v-.013Z"/>
        <rect class="cls-7" x="255.777" y="563.052" width="28.258" height="38.065" rx="2.645" ry="2.645"/>
        <text class="cls-31" transform="translate(263.926 587.852)"><tspan x="0" y="0">x</tspan></text>
      </g>
      <g>
        <g>
          <path class="cls-35" d="m341.673,609.331H100.263s0,0,0,0l-12.543,11.548s0,0,0,0l-12.023-10.98c-.238-.218-.622-.049-.622.274v54.741c0,.047.011.092.028.135h-.003l.004.004c.02.048.048.093.087.13h.056l11.328,10.345c.663.605,1.678.603,2.338-.005l10.91-10.045c.212-.195.49-.304.779-.304l241.072-.101c15.329,0,27.871-12.542,27.871-27.871h0c0-15.329-12.542-27.871-27.871-27.871Z"/>
          <g>
            <path class="cls-10" d="m362.421,637.246c.233,11.599-9.583,22.21-22.59,21.903-11.361-.268-21.522-9.45-21.508-22.104.014-12.581,10.427-22.278,22.629-21.994,11.969.279,21.786,10.209,21.47,22.194Z"/>
            <path class="cls-9" d="m348.505,638.778c-.095,0-.185.021-.279.028l-4.684-7.075c.468-.646.753-1.433.753-2.292,0-2.165-1.755-3.919-3.919-3.919s-3.919,1.755-3.919,3.919c0,.859.284,1.646.753,2.292l-4.684,7.075c-.094-.007-.183-.028-.279-.028-2.165,0-3.919,1.755-3.919,3.919s1.755,3.919,3.919,3.919,3.919-1.755,3.919-3.919c0-1.153-.507-2.18-1.3-2.897l4.386-6.625c.358.108.731.183,1.124.183s.766-.076,1.124-.183l4.386,6.625c-.793.717-1.3,1.744-1.3,2.897,0,2.165,1.755,3.919,3.919,3.919s3.919-1.755,3.919-3.919-1.755-3.919-3.919-3.919Z"/>
          </g>
        </g>
        <g>
          <g>
            <path class="cls-14" d="m123.435,656.84c-10.975,0-19.903-8.928-19.903-19.903s8.929-19.903,19.903-19.903h27.85c10.975,0,19.903,8.928,19.903,19.903s-8.929,19.903-19.903,19.903h-27.85Z"/>
            <path class="cls-17" d="m151.286,618.034c10.423,0,18.903,8.48,18.903,18.903s-8.48,18.903-18.903,18.903h-27.851c-10.423,0-18.903-8.48-18.903-18.903s8.48-18.903,18.903-18.903h27.851m0-2h-27.851c-11.497,0-20.903,9.407-20.903,20.903s9.407,20.903,20.903,20.903h27.851c11.497,0,20.903-9.407,20.903-20.903s-9.406-20.903-20.903-20.903h0Z"/>
          </g>
          <text class="cls-32" transform="translate(120.972 643.999)"><tspan class="cls-40" x="0" y="0">0</tspan><tspan class="cls-28" x="13.34" y="0">.</tspan><tspan class="cls-25" x="18.87" y="0">5</tspan></text>
          <text class="cls-21" transform="translate(186.931 645.284)"><tspan x="0" y="0">초 기다리기</tspan></text>
        </g>
      </g>
    </g>
    <rect class="cls-8" x="131.602" y="562.6" width="57.3" height="38.968" rx="3.871" ry="3.871"/>
    <rect class="cls-8" x="320.63" y="562.6" width="119.414" height="38.968" rx="3.871" ry="3.871"/>
    <rect class="cls-8" x="255.777" y="561.159" width="28.258" height="41.71" rx="5.369" ry="5.369"/>
    <rect class="cls-8" x="77.164" y="344.835" width="44.173" height="41.806" rx="20.903" ry="20.903"/>
    <rect class="cls-8" x="50.238" y="126.823" width="44.173" height="41.806" rx="20.903" ry="20.903"/>
    <g>
      <g>
        <path class="cls-38" d="m398.614,752.755H73.603s0,0,0,0l-12.543,11.548s0,0,0,0l-12.023-10.98c-.238-.218-.622-.049-.622.274v54.741c0,.047.011.092.028.135h-.003l.004.004c.02.048.048.093.087.13h.056l11.328,10.345c.663.605,1.678.603,2.338-.005l10.91-10.045c.212-.195.49-.304.779-.304l324.674-.101c15.329,0,27.871-12.542,27.871-27.871h0c0-15.329-12.542-27.871-27.871-27.871Z"/>
        <g>
          <path class="cls-6" d="m419.563,780.67c.233,11.599-9.583,22.21-22.59,21.903-11.361-.268-21.522-9.45-21.508-22.104.014-12.581,10.427-22.278,22.629-21.994,11.969.279,21.786,10.209,21.47,22.194Z"/>
          <path class="cls-16" d="m397.831,770.507c1.421.066,3.283.498,4.796,1.905,2.464,2.29,2.614,5.317.342,7.812-.823.903-1.728,1.735-2.634,2.558-.847.769-1.497,1.641-1.723,2.78-.285,1.438-1.202,2.017-2.552,1.624-1.294-.377-1.297-1.572-1.154-2.621.299-2.203,1.86-3.593,3.427-4.952.334-.29.717-.537.999-.87,1.487-1.758,1.36-3.4-.321-4.537-1.47-.995-3.897-.403-4.808,1.208-.326.577-.531,1.221-.815,1.823-.524,1.11-1.42,1.65-2.58,1.204-1.144-.44-1.405-1.351-1.1-2.592.769-3.131,3.806-5.339,8.123-5.343Z"/>
          <path class="cls-13" d="m396.805,793.222c-1.271-.012-2.113-.925-2.059-2.258.054-1.311.741-2.044,2.063-2.095,1.32-.051,2.369,1,2.32,2.267-.048,1.226-1.02,2.098-2.324,2.086Z"/>
        </g>
        <g>
          <g>
            <path class="cls-14" d="m207.858,799.81c-10.975,0-19.903-8.928-19.903-19.903s8.929-19.903,19.903-19.903,19.903,8.928,19.903,19.903-8.929,19.903-19.903,19.903Z"/>
            <path class="cls-17" d="m207.857,761.003c10.423,0,18.903,8.48,18.903,18.903s-8.48,18.903-18.903,18.903-18.903-8.48-18.903-18.903,8.48-18.903,18.903-18.903m0-2c-11.497,0-20.903,9.407-20.903,20.903s9.407,20.903,20.903,20.903,20.903-9.406,20.903-20.903-9.406-20.903-20.903-20.903h0Z"/>
          </g>
          <text class="cls-27" transform="translate(202.185 786.97)"><tspan x="0" y="0">1</tspan></text>
        </g>
      </g>
      <g>
        <path class="cls-2" d="m77.32,766.895v27.721c0,3.45,2.808,6.244,6.257,6.235,25.312-.061,19.494-.046,44.82-.044,3.444,0,6.242-2.791,6.242-6.235v-27.63c0-3.441-2.787-6.231-6.228-6.235l-44.849-.046c-3.447-.004-6.243,2.789-6.243,6.235Z"/>
        <text class="cls-22" transform="translate(87.7 788.594)"><tspan x="0" y="0">단</tspan></text>
        <path class="cls-4" d="m121.059,776.861c1.503,0,3.006-.003,4.509.001.951.003,1.744.288,2.197,1.211.47.958.064,1.702-.534,2.425-1.451,1.754-2.859,3.543-4.343,5.268-1.318,1.533-2.389,1.523-3.72-.029-1.519-1.771-2.972-3.598-4.452-5.402-.521-.635-.812-1.313-.452-2.145.374-.865,1.045-1.293,1.954-1.309,1.614-.027,3.228-.008,4.842-.008v-.013Z"/>
      </g>
      <text class="cls-24" transform="translate(150.008 789.104)"><tspan x="0" y="0">에</tspan></text>
      <text class="cls-24" transform="translate(242.782 789.104)"><tspan x="0" y="0">만큼 더하기</tspan></text>
    </g>
    <g>
      <g>
        <path class="cls-38" d="m482.485,664.981H100.7s0,0,0,0l-12.543,11.548s0,0,0,0l-12.023-10.98c-.238-.218-.622-.049-.622.274v54.741c0,.047.011.092.028.135h-.003l.004.004c.02.048.048.093.087.13h.056l11.328,10.345c.663.605,1.678.603,2.338-.005l10.91-10.045c.212-.195.49-.304.779-.304l381.449-.101c15.329,0,27.871-12.542,27.871-27.871h0c0-15.329-12.542-27.871-27.871-27.871Z"/>
        <g>
          <path class="cls-6" d="m503.434,692.896c.233,11.599-9.583,22.21-22.59,21.903-11.361-.268-21.522-9.45-21.508-22.104.014-12.581,10.427-22.278,22.629-21.994,11.969.279,21.786,10.209,21.47,22.194Z"/>
          <path class="cls-16" d="m481.702,682.733c1.421.066,3.283.498,4.796,1.905,2.464,2.29,2.614,5.317.342,7.812-.823.903-1.728,1.735-2.634,2.558-.847.769-1.497,1.641-1.723,2.78-.285,1.438-1.202,2.017-2.552,1.624-1.294-.377-1.297-1.572-1.154-2.621.299-2.203,1.86-3.593,3.427-4.952.334-.29.717-.537.999-.87,1.487-1.758,1.36-3.4-.321-4.537-1.47-.995-3.897-.403-4.808,1.208-.326.577-.531,1.221-.815,1.823-.524,1.11-1.42,1.65-2.58,1.204-1.144-.44-1.405-1.351-1.1-2.592.769-3.131,3.806-5.339,8.123-5.343Z"/>
          <path class="cls-13" d="m480.676,705.447c-1.271-.012-2.113-.925-2.059-2.258.054-1.311.741-2.044,2.063-2.095,1.32-.051,2.369,1,2.32,2.267-.048,1.226-1.02,2.098-2.324,2.086Z"/>
        </g>
        <g>
          <g>
            <circle class="cls-14" cx="291.728" cy="692.132" r="19.903" transform="translate(-403.966 409.004) rotate(-45)"/>
            <path class="cls-17" d="m291.729,673.229c10.423,0,18.903,8.48,18.903,18.903s-8.48,18.903-18.903,18.903-18.903-8.48-18.903-18.903,8.48-18.903,18.903-18.903m0-2c-11.497,0-20.903,9.406-20.903,20.903s9.406,20.903,20.903,20.903,20.903-9.407,20.903-20.903-9.407-20.903-20.903-20.903h0Z"/>
          </g>
          <text class="cls-27" transform="translate(286.056 699.195)"><tspan x="0" y="0">1</tspan></text>
        </g>
      </g>
      <g>
        <path class="cls-2" d="m104.416,679.12v27.721c0,3.45,2.808,6.244,6.257,6.235,25.312-.061,78.849-.046,104.174-.044,3.444,0,6.242-2.791,6.242-6.235v-27.63c0-3.441-2.787-6.231-6.228-6.235l-104.203-.046c-3.447-.004-6.243,2.789-6.243,6.235Z"/>
        <text class="cls-22" transform="translate(114.022 700.819)"><tspan x="0" y="0">곱하는 수</tspan></text>
        <path class="cls-4" d="m207.511,689.087c1.503,0,3.006-.003,4.509.001.951.003,1.744.288,2.197,1.211.47.958.064,1.702-.534,2.425-1.451,1.754-2.859,3.543-4.343,5.268-1.318,1.533-2.389,1.523-3.72-.029-1.519-1.771-2.972-3.598-4.452-5.402-.521-.635-.812-1.313-.452-2.145.374-.865,1.045-1.293,1.954-1.309,1.614-.027,3.228-.008,4.842-.008v-.013Z"/>
      </g>
      <text class="cls-24" transform="translate(236.46 701.33)"><tspan x="0" y="0">에</tspan></text>
      <text class="cls-24" transform="translate(326.653 701.33)"><tspan x="0" y="0">만큼 더하기</tspan></text>
    </g>
  </g>
  <rect class="cls-8" x="270.825" y="671.229" width="41.806" height="41.806" rx="20.903" ry="20.903"/>
  <rect class="cls-8" x="186.954" y="759.003" width="41.806" height="41.806" rx="20.903" ry="20.903"/>
</svg>