<?xml version="1.0" encoding="UTF-8"?>
<svg id="_레이어_1" data-name="레이어 1" xmlns="http://www.w3.org/2000/svg" viewBox="0 0 426.326 188.944">
  <defs>
    <style>
      .cls-1, .cls-2, .cls-3, .cls-4, .cls-5, .cls-6, .cls-7 {
        stroke-width: 0px;
      }

      .cls-1, .cls-8, .cls-9, .cls-10 {
        fill: #fefefe;
      }

      .cls-2 {
        fill: #78d5d3;
      }

      .cls-3 {
        fill: #009400;
      }

      .cls-4 {
        fill: #00b400;
      }

      .cls-5 {
        fill: #fefdfe;
      }

      .cls-11 {
        fill: #00b300;
        stroke: #009400;
      }

      .cls-11, .cls-12 {
        stroke-miterlimit: 10;
        stroke-width: 2px;
      }

      .cls-8, .cls-9, .cls-10 {
        font-family: Pretendard-Bold-KSCpc-EUC-H, Pretendard;
        font-weight: 700;
      }

      .cls-8, .cls-10 {
        font-size: 26px;
      }

      .cls-9 {
        font-size: 22px;
      }

      .cls-6 {
        fill: #008380;
      }

      .cls-12 {
        fill: #00b6b1;
        stroke: #008380;
      }

      .cls-10 {
        letter-spacing: -.01em;
      }

      .cls-7 {
        fill: #f2f2f2;
      }
    </style>
  </defs>
  <g>
    <path class="cls-11" d="m365.969,33.954c-2.293-12.79-13.66-22.1-26.741-22.14-81.918-.248-194.948-.502-276.866-.713-2.727-.007-4.859-.438-7.168-2.399C48.028,2.617,39.547.119,30.1,1.274,20.381,2.463,12.681,7.161,7.067,15.04,2.193,21.879.212,29.582,1.283,38.024c1.177,9.281,5.524,16.675,12.825,22.461,2.04,1.617,6.09,3.722,7.073,4.225.147.075.282.172.401.286l11.318,10.9c.643.62,1.658.631,2.315.026l10.886-10.023c.313-.288.718-.448,1.143-.446,87.06.295,205.629.228,292.284.487.891.003,1.782-.029,2.673-.045.198-.088.388-.231.594-.257,15.315-1.89,25.945-16.233,23.175-31.684Z"/>
    <g>
      <path class="cls-1" d="m34.019,61.097c-14.927-.049-27.039-12.211-27-27.111.039-14.888,12.218-27,27.151-27h.125c14.9.067,26.976,12.266,26.917,27.193-.058,14.843-12.216,26.918-27.103,26.918h-.09Z"/>
      <path class="cls-7" d="m34.17,7.986h0,.12c14.35.064,25.978,11.813,25.922,26.189-.056,14.293-11.765,25.922-26.103,25.922h-.087c-14.375-.047-26.04-11.759-26.003-26.109.037-14.337,11.768-26.001,26.151-26.002m0-2c-15.526.001-28.111,12.502-28.151,27.997-.04,15.453,12.517,28.063,27.997,28.114.032,0,.062,0,.094,0,15.444,0,28.043-12.503,28.103-27.914.06-15.477-12.463-28.128-27.913-28.197-.044,0-.086,0-.129,0h0Z"/>
    </g>
    <text class="cls-8" transform="translate(176.329 46.251) rotate(.173)"><tspan x="0" y="0">신호를 받았을 때</tspan></text>
    <path class="cls-3" d="m158.231,18.302l-78.472-.054c-2.545-.002-4.608,2.06-4.608,4.605v30.991c0,2.547,2.076,4.61,4.622,4.605,32.802-.069,45.639-.051,78.447-.049,2.543,0,4.613-2.062,4.612-4.605v-30.888c0-2.542-2.06-4.603-4.601-4.605Z"/>
    <g>
      <text class="cls-9" transform="translate(85.531 46.188)"><tspan x="0" y="0">3구간</tspan></text>
      <path class="cls-5" d="m148.672,34.454c1.503,0,3.006-.003,4.509.001.951.003,1.744.288,2.197,1.211.47.958.064,1.702-.534,2.425-1.451,1.754-2.859,3.543-4.343,5.268-1.318,1.533-2.389,1.523-3.72-.029-1.519-1.771-2.972-3.598-4.452-5.402-.521-.635-.812-1.313-.452-2.145.374-.865,1.045-1.293,1.954-1.309,1.614-.027,3.228-.008,4.842-.008v-.013Z"/>
    </g>
    <g>
      <path class="cls-4" d="m27.646,34.608h-.141l-4.232,12.492h16.332l-2.189-7.805c-3.859-.251-7.305-2.005-9.77-4.687Z"/>
      <path class="cls-4" d="m40.898,29.902l.36-.915.36-.915,1.763-4.482c1.417-.239,2.502-1.466,2.502-2.95,0-1.654-1.346-3-3-3-1.604,0-2.907,1.268-2.985,2.853l-4.144,1.677-.905.366-.905.366-5.662-5.697c-1.562,2.119-2.496,4.729-2.496,7.563,0,3.959,1.802,7.496,4.628,9.839,1.856,1.538,4.156,2.556,6.678,2.845.482.055.971.091,1.468.091,2.806,0,5.392-.915,7.499-2.449l-5.161-5.194Zm1.026-8.071l.028-.072.076.03-.105.042Zm.959-2.19c.551,0,1,.449,1,1s-.449,1-1,1-1-.449-1-1,.449-1,1-1Zm-3.165,7.797l-.36.915-3.885-3.91.905-.366.905-.366,3.195-1.293c.242.326.547.598.899.804l-1.299,3.302-.36.915Z"/>
    </g>
  </g>
  <path class="cls-12" d="m397.455,65.482l-350.743.101h0l-12.543,11.548h0l-12.023-10.98c-.238-.218-.622-.049-.622.274v54.841l.171.168,11.328,10.345c.663.605,1.678.603,2.338-.004l10.91-10.045c.212-.195.49-.304.779-.304l350.406-.202c15.329,0,27.871-12.542,27.871-27.871s-12.542-27.871-27.871-27.871Z"/>
  <path class="cls-6" d="m418.404,93.397c.233,11.599-9.583,22.21-22.59,21.903-11.361-.268-21.522-9.45-21.508-22.104.014-12.581,10.427-22.278,22.629-21.994,11.969.279,21.786,10.209,21.47,22.194Z"/>
  <g>
    <path class="cls-2" d="m401.709,83.436c-1.047,0-1.949.579-2.433,1.427h-4.07c-.367,0-.719.145-.978.405l-7.704,7.688h-4.052c-.765,0-1.385.62-1.385,1.385s.62,1.385,1.385,1.385h4.624c.367,0,.719-.145.978-.405l7.704-7.688h3.497c.484.848,1.387,1.427,2.433,1.427,1.553,0,2.812-1.259,2.812-2.812s-1.259-2.812-2.812-2.812Z"/>
    <path class="cls-2" d="m391.806,101.871c1.047,0,1.949-.579,2.433-1.427h4.07c.367,0,.719-.145.978-.405l7.704-7.688h4.052c.765,0,1.385-.62,1.385-1.385s-.62-1.385-1.385-1.385h-4.624c-.367,0-.719.145-.978.405l-7.704,7.688h-3.497c-.484-.848-1.387-1.427-2.433-1.427-1.553,0-2.812,1.259-2.812,2.812s1.259,2.812,2.812,2.812Z"/>
  </g>
  <path class="cls-12" d="m359.331,121.194l-312.619.101h0l-12.543,11.548h0l-12.023-10.98c-.238-.218-.622-.049-.622.274v54.841l.171.168,11.328,10.345c.663.605,1.678.603,2.338-.004l10.91-10.045c.212-.195.49-.304.779-.304l312.282-.202c15.329,0,27.871-12.542,27.871-27.871s-12.542-27.871-27.871-27.871Z"/>
  <path class="cls-6" d="m380.28,149.109c.233,11.599-9.583,22.21-22.59,21.903-11.361-.268-21.522-9.45-21.508-22.104.014-12.581,10.427-22.278,22.629-21.994,11.969.279,21.786,10.209,21.47,22.194Z"/>
  <g>
    <path class="cls-2" d="m363.585,139.149c-1.047,0-1.949.579-2.433,1.427h-4.07c-.367,0-.719.145-.978.405l-7.704,7.688h-4.052c-.765,0-1.385.62-1.385,1.385s.62,1.385,1.385,1.385h4.624c.367,0,.719-.145.978-.405l7.704-7.688h3.497c.484.848,1.387,1.427,2.433,1.427,1.553,0,2.812-1.259,2.812-2.812s-1.259-2.812-2.812-2.812Z"/>
    <path class="cls-2" d="m353.683,157.584c1.047,0,1.949-.579,2.433-1.427h4.07c.367,0,.719-.145.978-.405l7.704-7.688h4.052c.765,0,1.385-.62,1.385-1.385s-.62-1.385-1.385-1.385h-4.624c-.367,0-.719.145-.978.405l-7.704,7.688h-3.497c-.484-.848-1.387-1.427-2.433-1.427-1.553,0-2.812,1.259-2.812,2.812s1.259,2.812,2.812,2.812Z"/>
  </g>
  <text class="cls-10" transform="translate(50.568 101.4)"><tspan x="0" y="0">LED에</tspan></text>
  <text class="cls-10" transform="translate(222.462 101.4)"><tspan x="0" y="0">모양 나타내기</tspan></text>
  <g>
    <path class="cls-6" d="m204.794,73.205l-68.471-.054c-2.545-.002-4.608,2.06-4.608,4.605v30.991c0,2.547,2.076,4.61,4.622,4.605,32.802-.069,35.638-.051,68.446-.049,2.543,0,4.613-2.062,4.612-4.605v-30.888c0-2.542-2.06-4.603-4.601-4.605Z"/>
    <g>
      <text class="cls-9" transform="translate(142.095 101.091)"><tspan x="0" y="0">슬픔</tspan></text>
      <path class="cls-5" d="m195.235,89.357c1.503,0,3.006-.003,4.509.001.951.003,1.744.288,2.197,1.211.47.958.064,1.702-.534,2.425-1.451,1.754-2.859,3.543-4.343,5.268-1.318,1.533-2.389,1.523-3.72-.029-1.519-1.771-2.972-3.598-4.452-5.402-.521-.635-.812-1.313-.452-2.145.374-.865,1.045-1.293,1.954-1.309,1.614-.027,3.228-.008,4.842-.008v-.013Z"/>
    </g>
  </g>
  <g>
    <text class="cls-10" transform="translate(141.315 157.113)"><tspan x="0" y="0">효과음을 연주하기</tspan></text>
    <g>
      <path class="cls-6" d="m123.647,128.917l-68.471-.054c-2.545-.002-4.608,2.06-4.608,4.605v30.991c0,2.547,2.076,4.61,4.622,4.605,32.802-.069,35.638-.051,68.446-.049,2.543,0,4.613-2.062,4.612-4.605v-30.888c0-2.542-2.06-4.603-4.601-4.605Z"/>
      <g>
        <text class="cls-9" transform="translate(60.948 156.804)"><tspan x="0" y="0">슬픔</tspan></text>
        <path class="cls-5" d="m114.088,145.069c1.503,0,3.006-.003,4.509.001.951.003,1.744.288,2.197,1.211.47.958.064,1.702-.534,2.425-1.451,1.754-2.859,3.543-4.343,5.268-1.318,1.533-2.389,1.523-3.72-.029-1.519-1.771-2.972-3.598-4.452-5.402-.521-.635-.812-1.313-.452-2.145.374-.865,1.045-1.293,1.954-1.309,1.614-.027,3.228-.008,4.842-.008v-.013Z"/>
      </g>
    </g>
  </g>
</svg>