<?xml version="1.0" encoding="UTF-8"?>
<svg id="_레이어_2" data-name="레이어 2" xmlns="http://www.w3.org/2000/svg" viewBox="0 0 302.255 160.28">
  <defs>
    <style>
      .cls-1 {
        font-family: D2Coding, D2Coding;
        font-size: 26px;
      }

      .cls-1, .cls-2 {
        fill: #fff;
      }

      .cls-3 {
        fill: #d400d4;
        stroke: #9f009f;
        stroke-miterlimit: 10;
        stroke-width: 1.5px;
      }

      .cls-2, .cls-4 {
        stroke-width: 0px;
      }

      .cls-4 {
        fill: #c203c2;
      }
    </style>
  </defs>
  <path class="cls-3" d="m84.158,121.705h-21.05c-1.723,0-3.364-.74-4.505-2.031l-8.586-9.72c-1.141-1.292-2.781-2.031-4.505-2.031h-13.331c-3.32,0-6.011-2.691-6.011-6.011v-18.737c0-3.32,2.691-6.011,6.011-6.011h13.331c1.723,0,3.364.74,4.505,2.031l8.586,9.72c1.141,1.292,2.781,2.031,4.505,2.031h21.05c1.691,0,3.304-.712,4.443-1.963l8.981-9.857c1.139-1.25,2.752-1.963,4.443-1.963h193.47c3.32,0,6.011-2.691,6.011-6.011V6.761c0-3.32-2.691-6.011-6.011-6.011H6.761C3.441.75.75,3.441.75,6.761v146.759c0,3.32,2.691,6.011,6.011,6.011h288.734c3.32,0,6.011-2.691,6.011-6.011v-39.586c0-3.32-2.691-6.011-6.011-6.011H102.025c-1.691,0-3.304.712-4.443,1.963l-8.981,9.857c-1.139,1.25-2.752,1.963-4.443,1.963Z"/>
  <text class="cls-1" transform="translate(164.071 47.871)"><tspan x="0" y="0">감지될 때</tspan></text>
  <g>
    <rect class="cls-3" x="13.289" y="11.802" width="132.68" height="50.839" rx="6.097" ry="6.097"/>
    <text class="cls-1" transform="translate(25.805 45.349)"><tspan x="0" y="0">흔들림</tspan></text>
    <g>
      <path class="cls-2" d="m121.892,43.313c-.437,0-.852-.165-1.169-.463l-6.78-6.353c-.516-.483-.681-1.22-.421-1.876.26-.657.884-1.082,1.59-1.082h13.561c.706,0,1.33.424,1.59,1.082.26.657.095,1.394-.421,1.876l-6.78,6.353c-.317.298-.732.463-1.169.463Z"/>
      <path class="cls-4" d="m128.671,34.039c1.097,0,1.628,1.343.828,2.093l-6.78,6.353c-.233.218-.53.327-.828.327s-.595-.109-.827-.327l-6.78-6.353c-.801-.75-.27-2.093.827-2.093h13.56m0-1h-13.56c-.913,0-1.72.549-2.055,1.398-.336.849-.122,1.801.544,2.425l6.78,6.353c.411.385.948.597,1.511.597s1.1-.212,1.511-.597l6.78-6.353c.666-.624.88-1.576.544-2.425-.336-.849-1.142-1.398-2.055-1.398h0Z"/>
    </g>
  </g>
</svg>