<?xml version="1.0" encoding="UTF-8"?>
<svg id="_레이어_1" data-name="레이어 1" xmlns="http://www.w3.org/2000/svg" viewBox="0 0 379.805 133.606">
  <defs>
    <style>
      .cls-1, .cls-2, .cls-3, .cls-4 {
        stroke-width: 0px;
      }

      .cls-1, .cls-5, .cls-6 {
        fill: #fefefe;
      }

      .cls-2 {
        fill: #ffb250;
      }

      .cls-7 {
        fill: #ff9b00;
        stroke: #fc6500;
        stroke-linecap: round;
        stroke-linejoin: round;
      }

      .cls-7, .cls-8 {
        stroke-width: 2px;
      }

      .cls-8 {
        stroke: #009400;
        stroke-miterlimit: 10;
      }

      .cls-8, .cls-4 {
        fill: #00b300;
      }

      .cls-3 {
        fill: #fc6500;
      }

      .cls-5, .cls-6 {
        font-family: Pretendard-Bold-KSCpc-EUC-H, Pretendard;
        font-size: 26px;
        font-weight: 700;
      }

      .cls-6 {
        letter-spacing: -.01em;
      }
    </style>
  </defs>
  <g>
    <g>
      <path class="cls-8" d="m378.366,33.954c-2.293-12.79-13.661-22.1-26.741-22.14-81.917-.248-207.345-.502-289.263-.713-2.727-.007-4.859-.438-7.168-2.398C48.028,2.617,39.547.119,30.1,1.274,20.381,2.464,12.681,7.161,7.067,15.04,2.193,21.879.212,29.582,1.283,38.024c1.177,9.281,5.523,16.675,12.825,22.461,2.165,1.716,6.8,4.434,7.455,4.816.055.032.101.067.148.11l11.686,10.762c.84.872,2.14.793,2.931-.015l10.743-9.885c.26-.239.6-.372.952-.372l301.593.032c1.539.004,3.069-.064,4.601-.205l.974-.089c15.315-1.89,25.945-16.233,23.175-31.685Z"/>
      <path class="cls-1" d="m34.016,62.097c-15.48-.051-28.037-12.66-27.997-28.114.04-15.539,12.694-28.067,28.28-27.997,15.45.069,27.973,12.72,27.913,28.197-.06,15.443-12.708,27.964-28.196,27.914Z"/>
      <text class="cls-5" transform="translate(73.185 46.248) rotate(.173)"><tspan x="0" y="0">시작하기 버튼을 클릭했을 때</tspan></text>
    </g>
    <path class="cls-4" d="m27.49,33.709c0-2.979-.003-5.959.002-8.938.001-.871-.04-1.782.9-2.272.89-.464,1.669-.113,2.434.376,4.656,2.978,9.324,5.939,13.977,8.921,2.063,1.322,2.073,2.615.042,3.913-4.656,2.976-9.325,5.932-13.976,8.916-.771.494-1.55.863-2.428.428-.92-.456-.963-1.342-.958-2.244.016-3.033.006-6.067.006-9.101Z"/>
  </g>
  <g>
    <g>
      <path class="cls-7" d="m234.295,65.957H47.4l-12.543,11.548h0l-12.023-10.98c-.238-.218-.622-.049-.622.274v54.841l.171.168,11.328,10.345c.663.605,1.678.603,2.338-.004l10.91-10.045c.212-.195.49-.304.779-.304l186.558-.101c15.329,0,27.871-12.542,27.871-27.871s-12.542-27.871-27.871-27.871Z"/>
      <path class="cls-3" d="m255.244,93.872c.233,11.599-9.583,22.21-22.59,21.903-11.361-.268-21.522-9.45-21.508-22.104.014-12.581,10.427-22.278,22.629-21.994,11.969.279,21.786,10.209,21.47,22.194Z"/>
      <g>
        <path class="cls-2" d="m232.986,97.204c-.521,0-1.047-.154-1.507-.474-1.198-.834-1.493-2.481-.659-3.679l7.808-11.217c.834-1.198,2.481-1.493,3.679-.659,1.198.834,1.493,2.481.659,3.679l-7.808,11.217c-.514.738-1.336,1.133-2.172,1.133Z"/>
        <path class="cls-2" d="m231.142,97.602c-1.151-.831-3.517-1.662-5.371.767-1.854,2.43.128,4.731-2.813,6.586,0,0,4.448,1.779,8.184-1.535,3.676-3.261,0-5.818,0-5.818Z"/>
      </g>
    </g>
    <text class="cls-6" transform="translate(51.255 102.305)"><tspan x="0" y="0">모든 붓 지우기</tspan></text>
  </g>
</svg>