<?xml version="1.0" encoding="UTF-8"?>
<svg id="_레이어_1" data-name="레이어 1" xmlns="http://www.w3.org/2000/svg" viewBox="0 0 336.296 77.378">
  <defs>
    <style>
      .cls-1, .cls-2 {
        fill: #fefefe;
      }

      .cls-1, .cls-3, .cls-4, .cls-5 {
        stroke-width: 0px;
      }

      .cls-6 {
        stroke: #009400;
        stroke-miterlimit: 10;
        stroke-width: 2px;
      }

      .cls-6, .cls-5 {
        fill: #00b300;
      }

      .cls-2 {
        font-family: Pretendard-Bold-KSCpc-EUC-H, Pretendard;
        font-size: 26px;
        font-weight: 700;
      }

      .cls-3 {
        fill: #fafdfa;
      }

      .cls-4 {
        fill: #f2f2f2;
      }
    </style>
  </defs>
  <g>
    <path class="cls-6" d="m334.856,33.954c-2.293-12.79-13.66-22.1-26.741-22.14-81.918-.248-163.324-.502-245.242-.713-2.727-.007-4.859-.438-7.168-2.399C48.54,2.617,39.547.119,30.1,1.274,20.381,2.463,12.681,7.161,7.067,15.04,2.193,21.879.212,29.582,1.283,38.024c1.177,9.281,5.524,16.675,12.825,22.461,2.333,1.849,7.532,4.568,7.532,4.568,0,0,1.282.588,1.787,1.095,3.187,3.196,6.402,6.365,9.533,9.615.84.872,1.302.778,2.094-.031.035-.036.105-.107.105-.107l9.162-8.399c1.278-1.315,3.032-2.055,4.866-2.049,21.626.072,182.146.533,257.802.759.957.003,1.904-.04,2.857-.128l1.837-.17c15.315-1.89,25.945-16.233,23.174-31.684Z"/>
    <g>
      <g>
        <path class="cls-1" d="m34.68,61.097c-14.926-.049-27.038-12.211-27-27.111.038-14.888,12.219-27,27.152-27h.124c14.901.066,26.976,12.266,26.917,27.193-.058,14.843-12.216,26.918-27.103,26.918h-.091Z"/>
        <path class="cls-4" d="m34.831,7.986h.12c14.35.064,25.978,11.813,25.922,26.189-.056,14.293-11.765,25.922-26.103,25.922h-.087c-14.375-.047-26.04-11.76-26.003-26.109.037-14.337,11.768-26.001,26.151-26.002m0-2c-15.526,0-28.111,12.502-28.151,27.997-.04,15.453,12.517,28.063,27.997,28.114.031,0,.062,0,.094,0,15.445,0,28.043-12.502,28.103-27.914.061-15.477-12.463-28.128-27.913-28.197-.044,0-.086,0-.129,0h0Z"/>
      </g>
      <g>
        <path class="cls-5" d="m23.413,33.067c.099-1.896-.183-4.236.152-6.562.711-4.937,4.657-8.567,9.628-8.799,1.609-.075,3.236-.154,4.823.234,4.693,1.146,7.831,5.11,7.914,10.093.06,3.614.045,7.23.006,10.844-.07,6.422-4.581,10.616-11.359,10.611-6.621-.005-11.083-4.255-11.16-10.647-.021-1.779-.003-3.559-.003-5.774Z"/>
        <path class="cls-3" d="m32.744,26.92c.035-.717.008-1.442.123-2.144.154-.937.826-1.465,1.736-1.493.99-.03,1.793.497,1.874,1.509.118,1.478.107,2.978-.004,4.457-.07.929-.81,1.468-1.722,1.499-.995.033-1.71-.518-1.884-1.517-.131-.754-.088-1.539-.124-2.311Z"/>
      </g>
    </g>
  </g>
  <text class="cls-2" transform="translate(74.781 46.251) rotate(.173)"><tspan x="0" y="0">오브젝트를 클릭했을 때</tspan></text>
</svg>