<?xml version="1.0" encoding="UTF-8"?>
<svg id="_레이어_1" data-name="레이어 1" xmlns="http://www.w3.org/2000/svg" viewBox="0 0 115 105">
  <defs>
    <style>
      .cls-1, .cls-2 {
        stroke-width: 0px;
      }

      .cls-1, .cls-3 {
        fill: #fefefe;
      }

      .cls-2 {
        fill: #00b400;
      }

      .cls-3 {
        font-family: Pretendard-Bold-KSCpc-EUC-H, Pretendard;
        font-size: 26px;
        font-weight: 700;
        letter-spacing: -.025em;
      }
    </style>
  </defs>
  <rect class="cls-2" width="115" height="105"/>
  <text class="cls-3" transform="translate(35.005 93.533)"><tspan x="0" y="0">시작</tspan></text>
  <g>
    <path class="cls-1" d="m74.584,33.481c0,2.334-.012,4.667.004,7.001.01,1.484-.4,2.25-2.088,1.579-3.431-1.365-6.823-.989-10.23.26-2.766,1.014-5.621,1.564-8.56.631-1.338-.425-2.003-1.18-1.971-2.724.094-4.582.044-9.167.028-13.751-.005-1.522.186-2.532,2.11-1.548,3.015,1.542,6.005.677,8.93-.394,3.364-1.232,6.697-1.779,10.202-.423,1.254.485,1.639,1.115,1.599,2.37-.076,2.331-.022,4.667-.022,7Z"/>
    <path class="cls-1" d="m49.413,39.84c0,4.838.034,9.675-.024,14.512-.015,1.218.203,1.807,1.605,1.718,1.728-.11,3.033.684,2.917,2.581-.108,1.761-1.5,2.224-3.054,2.23-2.504.01-5.007.011-7.511,0-1.584-.007-2.878-.55-2.952-2.33-.075-1.81,1.209-2.542,2.78-2.469,1.564.073,1.716-.632,1.709-1.919-.045-8.924-.024-17.849-.023-26.773,0-.667.011-1.335,0-2.002-.027-1.6.467-2.92,2.28-2.953,1.85-.034,2.286,1.286,2.279,2.892-.021,4.837-.007,9.675-.007,14.513Z"/>
  </g>
</svg>