<?xml version="1.0" encoding="UTF-8"?>
<svg id="_레이어_1" data-name="레이어 1" xmlns="http://www.w3.org/2000/svg" viewBox="0 0 737.497 442.403">
  <defs>
    <style>
      .cls-1, .cls-2, .cls-3, .cls-4, .cls-5, .cls-6, .cls-7, .cls-8, .cls-9, .cls-10, .cls-11, .cls-12, .cls-13, .cls-14, .cls-15, .cls-16, .cls-17, .cls-18, .cls-19, .cls-20, .cls-21 {
        stroke-width: 0px;
      }

      .cls-1, .cls-22, .cls-23, .cls-24, .cls-25 {
        fill: #fefefe;
      }

      .cls-2 {
        fill: #fe7a22;
      }

      .cls-3 {
        fill: #b819b3;
      }

      .cls-4 {
        fill: #c72042;
      }

      .cls-26, .cls-22, .cls-23, .cls-27, .cls-24, .cls-28, .cls-25 {
        font-family: Pretendard-Bold-KSCpc-EUC-H, Pretendard;
        font-weight: 700;
      }

      .cls-26, .cls-9 {
        fill: #fff;
      }

      .cls-26, .cls-23, .cls-27, .cls-28 {
        font-size: 22px;
      }

      .cls-26, .cls-27 {
        letter-spacing: -.025em;
      }

      .cls-5 {
        fill: #fefdfe;
      }

      .cls-6 {
        fill: #c62042;
      }

      .cls-29 {
        fill: #fe3a61;
        stroke: #c62142;
      }

      .cls-29, .cls-30, .cls-31, .cls-32, .cls-33 {
        stroke-width: 2px;
      }

      .cls-29, .cls-31, .cls-32 {
        stroke-linecap: round;
        stroke-linejoin: round;
      }

      .cls-30 {
        stroke: #009400;
      }

      .cls-30, .cls-33 {
        stroke-miterlimit: 10;
      }

      .cls-30, .cls-21 {
        fill: #00b300;
      }

      .cls-7 {
        fill: #1b3ad8;
      }

      .cls-22, .cls-24, .cls-25 {
        font-size: 26px;
      }

      .cls-8 {
        fill: #b719b2;
      }

      .cls-31 {
        fill: #19baea;
        stroke: #1498c0;
      }

      .cls-10 {
        fill: #6dddfe;
      }

      .cls-11 {
        fill: #1498c0;
      }

      .cls-12, .cls-32 {
        fill: #dd47d8;
      }

      .cls-13 {
        fill: #4562f5;
      }

      .cls-32 {
        stroke: #b819b3;
      }

      .cls-14 {
        fill: #fafdfa;
      }

      .cls-15 {
        fill: #f577f1;
      }

      .cls-16 {
        fill: #fedd81;
      }

      .cls-33 {
        fill: #de5c04;
        stroke: #a14100;
      }

      .cls-17 {
        fill: #f677f2;
      }

      .cls-24 {
        letter-spacing: -.025em;
      }

      .cls-18 {
        fill: #fe9b00;
      }

      .cls-34 {
        letter-spacing: -.01em;
      }

      .cls-25 {
        letter-spacing: -.01em;
      }

      .cls-19 {
        fill: #a14100;
      }

      .cls-35 {
        letter-spacing: -.042em;
      }

      .cls-20 {
        fill: #fe5576;
      }
    </style>
  </defs>
  <g>
    <path class="cls-30" d="m334.856,33.954c-2.293-12.791-13.66-22.101-26.741-22.14-81.918-.248-163.835-.501-245.753-.712-2.727-.007-4.859-.438-7.168-2.399C48.028,2.617,39.547.119,30.1,1.274,20.381,2.463,12.681,7.161,7.067,15.04,2.193,21.879.212,29.582,1.283,38.024c1.177,9.281,5.523,16.675,12.825,22.461,2.333,1.849,6.893,4.567,6.893,4.567l11.959,10.71c.84.872,1.302.777,2.094-.032l11.135-10.678c86.873.298,175.353.627,262.226.887.891.002,1.782-.029,2.673-.045.198-.088.388-.231.594-.256,15.315-1.89,25.945-16.233,23.175-31.684Z"/>
    <path class="cls-1" d="m34.016,62.097c-15.48-.051-28.037-12.66-27.997-28.114.04-15.539,12.694-28.067,28.28-27.997,15.45.069,27.973,12.72,27.913,28.197-.06,15.443-12.708,27.964-28.196,27.914Z"/>
    <path class="cls-21" d="m22.752,33.067c.099-1.896-.183-4.236.152-6.562.711-4.937,4.657-8.567,9.628-8.799,1.609-.075,3.236-.154,4.823.234,4.693,1.146,7.831,5.11,7.914,10.093.06,3.614.045,7.23.006,10.844-.07,6.422-4.581,10.616-11.359,10.611-6.621-.005-11.083-4.255-11.16-10.647-.021-1.779-.003-3.559-.003-5.774Z"/>
    <path class="cls-14" d="m32.083,26.919c.035-.717.008-1.442.123-2.144.154-.937.826-1.465,1.736-1.493.99-.03,1.793.497,1.874,1.509.118,1.478.107,2.978-.004,4.457-.07.929-.81,1.468-1.722,1.499-.995.033-1.71-.518-1.884-1.517-.131-.754-.088-1.539-.124-2.311Z"/>
    <text class="cls-22" transform="translate(73.184 46.254) rotate(.173)"><tspan x="0" y="0">오브젝트를 클릭했을 때</tspan></text>
  </g>
  <g>
    <g>
      <path class="cls-32" d="m420.559,65.326H46.465s0,0,0,0l-12.543,11.548s0,0,0,0l-12.023-10.98c-.238-.218-.622-.049-.622.274v54.741c0,.047.011.092.028.135h-.003l.004.004c.02.048.048.093.087.13h.056l11.328,10.345c.663.605,1.678.603,2.338-.005l10.91-10.045c.212-.195.49-.304.779-.304l373.757-.101c15.329,0,27.871-12.542,27.871-27.871h0c0-15.329-12.542-27.871-27.871-27.871Z"/>
      <g>
        <path class="cls-8" d="m441.508,93.241c.233,11.599-9.583,22.21-22.59,21.903-11.361-.268-21.522-9.45-21.508-22.104.014-12.581,10.427-22.278,22.629-21.994,11.969.279,21.786,10.209,21.47,22.194Z"/>
        <path class="cls-17" d="m419.776,83.078c1.421.066,3.283.498,4.796,1.905,2.464,2.29,2.614,5.317.342,7.812-.823.903-1.728,1.735-2.634,2.558-.847.769-1.497,1.641-1.723,2.78-.285,1.438-1.202,2.017-2.552,1.624-1.294-.377-1.297-1.572-1.154-2.621.299-2.203,1.86-3.593,3.427-4.952.334-.29.717-.537.999-.87,1.487-1.758,1.36-3.4-.321-4.537-1.47-.995-3.897-.403-4.808,1.208-.326.577-.531,1.221-.815,1.823-.524,1.11-1.42,1.65-2.58,1.204-1.144-.44-1.405-1.351-1.1-2.592.769-3.131,3.806-5.339,8.123-5.343Z"/>
        <path class="cls-15" d="m418.75,105.793c-1.271-.012-2.113-.925-2.059-2.258.054-1.311.741-2.044,2.063-2.095,1.32-.051,2.369,1,2.32,2.267-.048,1.226-1.02,2.098-2.324,2.086Z"/>
      </g>
    </g>
    <g>
      <path class="cls-3" d="m52.511,79.466v27.721c0,3.45,2.808,6.244,6.257,6.235,25.312-.061,13.119-.046,38.445-.044,3.444,0,6.242-2.791,6.242-6.235v-27.63c0-3.441-2.787-6.231-6.228-6.235l-38.474-.046c-3.447-.004-6.243,2.789-6.243,6.235Z"/>
      <text class="cls-23" transform="translate(62.89 101.166)"><tspan x="0" y="0">n</tspan></text>
      <path class="cls-5" d="m89.875,89.433c1.503,0,3.006-.003,4.509.001.951.003,1.744.288,2.197,1.211.47.958.064,1.702-.534,2.425-1.451,1.754-2.859,3.543-4.343,5.268-1.318,1.533-2.389,1.523-3.72-.029-1.519-1.771-2.972-3.598-4.452-5.402-.521-.635-.812-1.313-.452-2.145.374-.865,1.045-1.293,1.954-1.309,1.614-.027,3.228-.008,4.842-.008v-.013Z"/>
    </g>
    <text class="cls-25" transform="translate(119.274 101.676)"><tspan x="0" y="0">을(를)</tspan></text>
    <text class="cls-25" transform="translate(252.382 101.676)"><tspan x="0" y="0">(으)로정하기</tspan></text>
    <g>
      <g>
        <circle class="cls-16" cx="216.435" cy="93.326" r="19.903"/>
        <path class="cls-18" d="m216.434,74.423c10.423,0,18.903,8.48,18.903,18.903s-8.48,18.903-18.903,18.903-18.903-8.48-18.903-18.903,8.48-18.903,18.903-18.903m0-2c-11.497,0-20.903,9.406-20.903,20.903s9.407,20.903,20.903,20.903,20.903-9.406,20.903-20.903-9.406-20.903-20.903-20.903h0Z"/>
      </g>
      <text class="cls-27" transform="translate(210.182 100.388)"><tspan x="0" y="0">0</tspan></text>
    </g>
  </g>
  <g>
    <path class="cls-31" d="m720.269,398.225H72.983s-12.037,11.07-12.037,11.07l-12.592-11.07v-52.638c0-.43.509-.657.829-.37l11.752,10.538,12.387-11.471,635.305-.092c16.082,0,29.096-13.803,27.779-30.148-1.174-14.566-13.732-25.593-28.345-25.593H73.653s-11.292,10.396-11.292,10.396c-.708.652-1.797.654-2.507.004l-11.526-10.536.026-111.3,12.441,11.461,12.387-11.472,635.444-.091c16.083,0,29.098-13.806,27.779-30.152-1.175-14.565-13.733-25.591-28.346-25.591H46.465s-12.543,11.549-12.543,11.549l-12.023-10.98c-.238-.218-.622-.049-.622.274l.171,307.776,12.379,11.613,12.516-11.613h674.371c8.969,0,16.191-7.482,15.764-16.545-.399-8.489-7.712-15.02-16.21-15.02Z"/>
    <text class="cls-22" transform="translate(599.677 156.843)"><tspan x="0" y="0">이라면</tspan></text>
    <text class="cls-22" transform="translate(56.509 156.843)"><tspan x="0" y="0">만일</tspan></text>
    <path class="cls-11" d="m726.374,149.238c.233,11.599-9.583,22.21-22.59,21.903-11.361-.268-21.522-9.45-21.508-22.104.014-12.581,10.427-22.278,22.629-21.994,11.969.279,21.786,10.209,21.47,22.194Z"/>
    <path class="cls-10" d="m712.458,150.771c-.095,0-.185.021-.279.028l-4.684-7.075c.647-.892.943-2.055.623-3.302-.356-1.388-1.5-2.503-2.899-2.812-2.553-.562-4.81,1.366-4.81,3.821,0,.859.284,1.646.753,2.292l-4.684,7.075c-.094-.007-.183-.028-.279-.028-2.466,0-4.4,2.277-3.814,4.843.323,1.416,1.474,2.567,2.89,2.89,2.566.586,4.843-1.348,4.843-3.814,0-1.153-.507-2.18-1.3-2.897l4.386-6.625c.358.108.731.183,1.124.183s.766-.076,1.124-.183l4.386,6.625c-1.013.917-1.56,2.338-1.178,3.884.344,1.389,1.482,2.51,2.878,2.828,2.564.583,4.839-1.35,4.839-3.815,0-2.165-1.755-3.919-3.919-3.919Z"/>
    <text class="cls-22" transform="translate(76.55 327.492)"><tspan x="0" y="0">아니면</tspan></text>
  </g>
  <g>
    <g>
      <g>
        <polygon class="cls-13" points="134.298 169.017 118.772 149.114 134.298 129.211 565.706 129.211 581.233 149.114 565.706 169.017 134.298 169.017"/>
        <path class="cls-7" d="m565.218,130.211l14.746,18.903-14.746,18.903H134.786l-14.747-18.903,14.747-18.903h430.432m.977-2H133.809l-16.307,20.903,16.307,20.903h432.385l16.306-20.903-16.306-20.903h0Z"/>
      </g>
      <rect class="cls-7" x="354.844" y="129.308" width="29.373" height="39.613" rx="3.355" ry="3.355"/>
      <path class="cls-9" d="m365.828,149.429l7.654,8.706v-3.029s-5.546-6.309-5.546-6.309l5.546-5.808v-2.896s-7.626,7.985-7.626,7.985c-.357.375-.37.961-.027,1.351Z"/>
    </g>
    <g>
      <g>
        <path class="cls-12" d="m420.378,169.017c-10.975,0-19.903-8.928-19.903-19.903s8.929-19.903,19.903-19.903h123.18c10.975,0,19.903,8.928,19.903,19.903s-8.929,19.903-19.903,19.903h-123.18Z"/>
        <path class="cls-3" d="m543.558,130.211c10.423,0,18.903,8.48,18.903,18.903s-8.48,18.903-18.903,18.903h-123.18c-10.423,0-18.903-8.48-18.903-18.903s8.48-18.903,18.903-18.903h123.18m0-2h-123.18c-11.497,0-20.903,9.407-20.903,20.903s9.406,20.903,20.903,20.903h123.18c11.497,0,20.903-9.406,20.903-20.903s-9.406-20.903-20.903-20.903h0Z"/>
      </g>
      <rect class="cls-3" x="414.959" y="129.63" width="100.859" height="38.968" rx="3.871" ry="3.871"/>
      <text class="cls-26" transform="translate(528.727 156.173)"><tspan x="0" y="0">값</tspan></text>
      <text class="cls-26" transform="translate(425.483 156.173)"><tspan x="0" y="0">총 인원 </tspan></text>
      <path class="cls-5" d="m500.125,144.437c1.503,0,3.006-.003,4.509.001.951.003,1.744.288,2.197,1.211.47.958.064,1.702-.534,2.425-1.451,1.754-2.859,3.543-4.343,5.268-1.318,1.533-2.389,1.523-3.72-.029-1.519-1.771-2.972-3.598-4.452-5.402-.521-.635-.812-1.313-.452-2.145.374-.865,1.045-1.293,1.954-1.309,1.614-.027,3.228-.008,4.842-.008v-.013Z"/>
    </g>
    <g>
      <g>
        <path class="cls-12" d="m155.495,168.845c-10.975,0-19.903-8.929-19.903-19.903s8.929-19.903,19.903-19.903h165.313c10.975,0,19.903,8.928,19.903,19.903s-8.929,19.903-19.903,19.903h-165.313Z"/>
        <path class="cls-3" d="m320.808,130.038c10.423,0,18.903,8.48,18.903,18.903s-8.48,18.903-18.903,18.903h-165.313c-10.423,0-18.903-8.48-18.903-18.903s8.48-18.903,18.903-18.903h165.313m0-2h-165.313c-11.497,0-20.903,9.407-20.903,20.903s9.407,20.903,20.903,20.903h165.313c11.497,0,20.903-9.406,20.903-20.903s-9.406-20.903-20.903-20.903h0Z"/>
      </g>
      <rect class="cls-3" x="150.075" y="129.457" width="140.083" height="38.968" rx="3.871" ry="3.871"/>
      <text class="cls-26" transform="translate(303.067 156.003)"><tspan x="0" y="0">값</tspan></text>
      <text class="cls-26" transform="translate(160.6 156.003)"><tspan x="0" y="0">투표한 사람</tspan></text>
      <path class="cls-5" d="m274.465,144.264c1.503,0,3.006-.003,4.509.001.951.003,1.744.288,2.197,1.211.47.958.064,1.702-.534,2.425-1.451,1.754-2.859,3.543-4.343,5.268-1.318,1.533-2.389,1.523-3.72-.029-1.519-1.771-2.972-3.598-4.452-5.402-.521-.635-.812-1.313-.452-2.145.374-.865,1.045-1.293,1.954-1.309,1.614-.027,3.228-.008,4.842-.008v-.013Z"/>
    </g>
  </g>
  <g>
    <g>
      <path class="cls-32" d="m488.965,232.598H73.489s0,0,0,0l-12.543,11.548s0,0,0,0l-12.023-10.98c-.238-.218-.622-.049-.622.274v54.741c0,.047.011.092.028.135h-.003l.004.004c.02.048.048.093.087.13h.056l11.328,10.345c.663.605,1.678.603,2.338-.005l10.91-10.045c.212-.195.49-.304.779-.304l415.14-.101c15.329,0,27.871-12.542,27.871-27.871h0c0-15.329-12.542-27.871-27.871-27.871Z"/>
      <g>
        <path class="cls-8" d="m509.914,260.513c.233,11.599-9.583,22.21-22.59,21.903-11.361-.268-21.522-9.45-21.508-22.104.014-12.581,10.427-22.278,22.629-21.994,11.969.279,21.786,10.209,21.47,22.194Z"/>
        <path class="cls-17" d="m488.182,250.35c1.421.066,3.283.498,4.796,1.905,2.464,2.29,2.614,5.317.342,7.812-.823.903-1.728,1.735-2.634,2.558-.847.769-1.497,1.641-1.723,2.78-.285,1.438-1.202,2.017-2.552,1.624-1.294-.377-1.297-1.572-1.154-2.621.299-2.203,1.86-3.593,3.427-4.952.334-.29.717-.537.999-.87,1.487-1.758,1.36-3.4-.321-4.537-1.47-.995-3.897-.403-4.808,1.208-.326.577-.531,1.221-.815,1.823-.524,1.11-1.42,1.65-2.58,1.204-1.144-.44-1.405-1.351-1.1-2.592.769-3.131,3.806-5.339,8.123-5.343Z"/>
        <path class="cls-15" d="m487.156,273.064c-1.271-.012-2.113-.925-2.059-2.258.054-1.311.741-2.044,2.063-2.095,1.32-.051,2.369,1,2.32,2.267-.048,1.226-1.02,2.098-2.324,2.086Z"/>
      </g>
    </g>
    <g>
      <path class="cls-3" d="m79.534,246.737v27.721c0,3.45,2.808,6.244,6.257,6.235,25.312-.061,103.232-.046,128.558-.044,3.444,0,6.242-2.791,6.242-6.235v-27.63c0-3.441-2.787-6.231-6.228-6.235l-128.587-.046c-3.447-.004-6.243,2.789-6.243,6.235Z"/>
      <text class="cls-23" transform="translate(89.913 268.437)"><tspan x="0" y="0">투표한 사람</tspan></text>
      <path class="cls-5" d="m207.012,256.704c1.503,0,3.006-.003,4.509.001.951.003,1.744.288,2.197,1.211.47.958.064,1.702-.534,2.425-1.451,1.754-2.859,3.543-4.343,5.268-1.318,1.533-2.389,1.523-3.72-.029-1.519-1.771-2.972-3.598-4.452-5.402-.521-.635-.812-1.313-.452-2.145.374-.865,1.045-1.293,1.954-1.309,1.614-.027,3.228-.008,4.842-.008v-.013Z"/>
    </g>
    <text class="cls-25" transform="translate(236.411 268.947)"><tspan x="0" y="0">에</tspan></text>
    <text class="cls-25" transform="translate(332.173 268.947)"><tspan x="0" y="0">만큼 더하기</tspan></text>
    <g>
      <g>
        <circle class="cls-16" cx="296.226" cy="260.598" r="19.903"/>
        <path class="cls-18" d="m296.226,241.695c10.423,0,18.903,8.48,18.903,18.903s-8.48,18.903-18.903,18.903-18.903-8.48-18.903-18.903,8.48-18.903,18.903-18.903m0-2c-11.497,0-20.903,9.406-20.903,20.903s9.406,20.903,20.903,20.903,20.903-9.406,20.903-20.903-9.407-20.903-20.903-20.903h0Z"/>
      </g>
      <text class="cls-27" transform="translate(289.973 267.659)"><tspan x="0" y="0">1</tspan></text>
    </g>
  </g>
  <g>
    <g>
      <g>
        <path class="cls-33" d="m466.032,176.885H73.489l-12.543,11.548h0l-12.023-10.98c-.238-.218-.622-.049-.622.274v54.841l.171.168,11.328,10.345c.663.605,1.678.603,2.338-.004l10.91-10.045c.212-.195.49-.304.779-.304l392.207-.101c15.329,0,27.871-12.542,27.871-27.871s-12.542-27.871-27.871-27.871Z"/>
        <path class="cls-19" d="m486.981,204.8c.233,11.599-9.583,22.21-22.59,21.903-11.361-.268-21.522-9.45-21.508-22.104.014-12.581,10.427-22.278,22.629-21.994,11.969.279,21.786,10.209,21.47,22.194Z"/>
        <path class="cls-2" d="m469.348,201.861c1.407,0,2.395-.012,3.384.004.851.014,1.445.399,1.556,1.288.12.962-.563,1.285-1.317,1.519-.079.025-.17.08-.239.061-4.954-1.325-5.974,2.691-7.776,5.688-1.973,3.282-4.638,5.369-8.75,4.954-1.005-.101-1.949-.347-2.123-1.35-.208-1.2,1.021-.942,1.691-1.305,3.006-1.631,3.894-4.763,5.328-7.535-.849-.677-1.708-.269-2.483-.419-.887-.172-1.685-.555-1.601-1.554.067-.795.741-1.257,1.574-1.335.33-.031.676-.081.994-.017,2.34.468,3.589-.727,4.689-2.649,1.419-2.479,3.285-4.62,6.33-5.208,1.965-.38,3.644.13,4.821,1.803.593.843.499,1.736-.279,2.472-.735.695-1.343.452-1.831-.318-.614-.968-1.097-.293-1.572.131-1.022.911-1.408,2.213-2.396,3.771Z"/>
      </g>
      <text class="cls-25" transform="translate(77.344 213.233)"><tspan x="0" y="0">점수 합계</tspan></text>
    </g>
    <g>
      <g>
        <path class="cls-12" d="m206.7,224.558c-10.975,0-19.903-8.928-19.903-19.903s8.929-19.903,19.903-19.903h201.463c10.975,0,19.903,8.928,19.903,19.903s-8.929,19.903-19.903,19.903h-201.463Z"/>
        <path class="cls-3" d="m408.163,185.751c10.423,0,18.903,8.48,18.903,18.903s-8.48,18.903-18.903,18.903h-201.462c-10.423,0-18.903-8.48-18.903-18.903s8.48-18.903,18.903-18.903h201.462m0-2h-201.462c-11.497,0-20.903,9.406-20.903,20.903s9.406,20.903,20.903,20.903h201.462c11.497,0,20.903-9.406,20.903-20.903s-9.406-20.903-20.903-20.903h0Z"/>
      </g>
      <rect class="cls-3" x="201.281" y="185.171" width="140.083" height="38.968" rx="3.871" ry="3.871"/>
      <text class="cls-26" transform="translate(354.272 211.716)"><tspan x="0" y="0">항목 수</tspan></text>
      <text class="cls-26" transform="translate(211.805 211.716)"><tspan x="0" y="0">반티 리스트 </tspan></text>
      <path class="cls-5" d="m325.67,199.977c1.503,0,3.006-.003,4.509.001.951.003,1.744.288,2.197,1.211.47.958.064,1.702-.534,2.425-1.451,1.754-2.859,3.543-4.343,5.268-1.318,1.533-2.389,1.523-3.72-.029-1.519-1.771-2.972-3.598-4.452-5.402-.521-.635-.812-1.313-.452-2.145.374-.865,1.045-1.293,1.954-1.309,1.614-.027,3.228-.008,4.842-.008v-.013Z"/>
    </g>
  </g>
  <g>
    <g>
      <path class="cls-29" d="m526.296,344.3H73.489l-12.543,11.141-12.024-10.593c-.238-.21-.622-.047-.622.265v52.811c0,.098.042.191.115.259l12.53,11.113,12.543-11.219h452.807c15.329,0,27.871-12.1,27.871-26.888h0c0-14.789-12.542-26.888-27.871-26.888Z"/>
      <g>
        <path class="cls-6" d="m502.011,371.694c.085-12.114,9.79-22.01,22.342-21.937,12.159.071,22.178,9.883,21.961,22.471-.203,11.764-9.754,21.773-22.498,21.598-12.042-.166-21.794-9.762-21.805-22.132Z"/>
        <path class="cls-20" d="m524.911,373.131c2.854.024,5.612,2.731,5.624,5.52.014,3.13-2.722,5.849-5.866,5.829-3.016-.018-5.566-2.746-5.533-5.919.031-3.007,2.636-5.457,5.775-5.43Z"/>
        <rect class="cls-20" x="527.298" y="363.516" width="9.448" height="9.448" transform="translate(416.21 -268.342) rotate(45)"/>
        <polygon class="cls-20" points="523.141 371.194 523.141 364.762 517.571 361.546 512 364.762 512 371.194 517.571 374.411 523.141 371.194"/>
      </g>
    </g>
    <text class="cls-24" transform="translate(322.198 379.752)"><tspan x="0" y="0">을(를)</tspan></text>
    <g>
      <g>
        <path class="cls-16" d="m95.255,391.31c-10.975,0-19.903-8.928-19.903-19.903s8.929-19.903,19.903-19.903h191.917c10.975,0,19.903,8.928,19.903,19.903s-8.929,19.903-19.903,19.903H95.255Z"/>
        <path class="cls-18" d="m287.172,352.503c10.423,0,18.903,8.48,18.903,18.903s-8.48,18.903-18.903,18.903H95.256c-10.423,0-18.903-8.48-18.903-18.903s8.48-18.903,18.903-18.903h191.917m0-2H95.256c-11.497,0-20.903,9.406-20.903,20.903s9.406,20.903,20.903,20.903h191.917c11.497,0,20.903-9.407,20.903-20.903s-9.406-20.903-20.903-20.903h0Z"/>
      </g>
      <text class="cls-28" transform="translate(89.791 378.469)"><tspan class="cls-34" x="0" y="0">반티 투표가 끝났습니다</tspan><tspan class="cls-35" x="197.637" y="0">.</tspan></text>
    </g>
    <g>
      <rect class="cls-4" x="394.398" y="352.308" width="95.645" height="38.968" rx="3.871" ry="3.871"/>
      <text class="cls-26" transform="translate(404.922 378.854)"><tspan x="0" y="0">말하기</tspan></text>
      <path class="cls-5" d="m473.543,367.115c1.503,0,3.006-.003,4.509.001.951.003,1.744.288,2.197,1.211.47.958.064,1.702-.534,2.425-1.451,1.754-2.859,3.543-4.343,5.268-1.318,1.533-2.389,1.523-3.72-.029-1.519-1.771-2.972-3.598-4.452-5.402-.521-.635-.812-1.313-.452-2.145.374-.865,1.045-1.293,1.954-1.309,1.614-.027,3.228-.008,4.842-.008v-.013Z"/>
    </g>
  </g>
</svg>