<?xml version="1.0" encoding="UTF-8"?>
<svg id="_레이어_1" data-name="레이어 1" xmlns="http://www.w3.org/2000/svg" viewBox="0 0 1348.737 758.442">
  <defs>
    <style>
      .cls-1 {
        letter-spacing: -.057em;
      }

      .cls-2, .cls-3, .cls-4, .cls-5, .cls-6, .cls-7, .cls-8, .cls-9, .cls-10, .cls-11, .cls-12, .cls-13, .cls-14, .cls-15, .cls-16, .cls-17, .cls-18, .cls-19, .cls-20, .cls-21, .cls-22, .cls-23, .cls-24, .cls-25, .cls-26, .cls-27 {
        stroke-width: 0px;
      }

      .cls-2, .cls-28, .cls-29, .cls-30, .cls-31 {
        fill: #fefefe;
      }

      .cls-32, .cls-33, .cls-34 {
        letter-spacing: -.025em;
      }

      .cls-3 {
        fill: #fe7a22;
      }

      .cls-4 {
        fill: #dc47d7;
      }

      .cls-5 {
        fill: #b819b3;
      }

      .cls-6 {
        fill: #c72042;
      }

      .cls-33, .cls-28, .cls-29, .cls-34, .cls-30, .cls-35, .cls-31, .cls-36 {
        font-family: Pretendard-Bold-KSCpc-EUC-H, Pretendard;
        font-weight: 700;
      }

      .cls-33, .cls-13, .cls-36 {
        fill: #fff;
      }

      .cls-33, .cls-29, .cls-34, .cls-35, .cls-36 {
        font-size: 22px;
      }

      .cls-7 {
        fill: #fefdfe;
      }

      .cls-8 {
        fill: #c62042;
      }

      .cls-37 {
        fill: #fe3a61;
        stroke: #c62142;
      }

      .cls-37, .cls-38, .cls-39, .cls-40, .cls-41 {
        stroke-width: 2px;
      }

      .cls-37, .cls-39, .cls-40 {
        stroke-linecap: round;
        stroke-linejoin: round;
      }

      .cls-42 {
        stroke-dasharray: 0 0 6.861 2.941;
      }

      .cls-42, .cls-38, .cls-43, .cls-44, .cls-45, .cls-41 {
        stroke-miterlimit: 10;
      }

      .cls-42, .cls-43, .cls-44, .cls-45 {
        fill: none;
        stroke: red;
        stroke-width: 3px;
      }

      .cls-38 {
        stroke: #009400;
      }

      .cls-38, .cls-27 {
        fill: #00b300;
      }

      .cls-9 {
        fill: red;
      }

      .cls-10 {
        fill: #1b3ad8;
      }

      .cls-28, .cls-30, .cls-31 {
        font-size: 26px;
      }

      .cls-11 {
        fill: #b719b2;
      }

      .cls-12 {
        fill: #ff7f00;
      }

      .cls-39 {
        fill: #19baea;
        stroke: #1498c0;
      }

      .cls-14 {
        fill: #6dddfe;
      }

      .cls-15 {
        fill: #1498c0;
      }

      .cls-16, .cls-40 {
        fill: #dd47d8;
      }

      .cls-44 {
        stroke-dasharray: 0 0 7.11 3.047;
      }

      .cls-17 {
        fill: #4562f5;
      }

      .cls-45 {
        stroke-dasharray: 0 0 6.997 2.999;
      }

      .cls-18 {
        fill: #ecf8ff;
      }

      .cls-40 {
        stroke: #b819b3;
      }

      .cls-19 {
        fill: #fafdfa;
      }

      .cls-20 {
        fill: #f577f1;
      }

      .cls-21 {
        fill: #fedd81;
      }

      .cls-41 {
        fill: #de5c04;
        stroke: #a14100;
      }

      .cls-22 {
        fill: #f4af18;
      }

      .cls-23 {
        fill: #f677f2;
      }

      .cls-30 {
        letter-spacing: -.025em;
      }

      .cls-24 {
        fill: #fe9b00;
      }

      .cls-46 {
        letter-spacing: -.01em;
      }

      .cls-31 {
        letter-spacing: -.01em;
      }

      .cls-25 {
        fill: #a14100;
      }

      .cls-47 {
        letter-spacing: -.042em;
      }

      .cls-26 {
        fill: #fe5576;
      }
    </style>
  </defs>
  <path class="cls-18" d="m48.922,177.453h1284.874c7.418,0,13.441,6.023,13.441,13.441v226.921c0,7.418-6.023,13.441-13.441,13.441H48.922v-253.804h0Z"/>
  <g>
    <path class="cls-38" d="m334.856,33.954c-2.293-12.791-13.66-22.101-26.741-22.14-81.918-.248-163.835-.501-245.753-.712-2.727-.007-4.859-.438-7.168-2.399C48.028,2.617,39.547.119,30.1,1.274,20.381,2.463,12.681,7.161,7.067,15.04,2.193,21.879.212,29.582,1.283,38.024c1.177,9.281,5.523,16.675,12.825,22.461,2.333,1.849,6.893,4.567,6.893,4.567l11.959,10.71c.84.872,1.302.777,2.094-.032l11.135-10.678c86.873.298,175.353.627,262.226.887.891.002,1.782-.029,2.673-.045.198-.088.388-.231.594-.256,15.315-1.89,25.945-16.233,23.175-31.684Z"/>
    <path class="cls-2" d="m34.016,62.097c-15.48-.051-28.037-12.66-27.997-28.114.04-15.539,12.694-28.067,28.28-27.997,15.45.069,27.973,12.72,27.913,28.197-.06,15.443-12.708,27.964-28.196,27.914Z"/>
    <path class="cls-27" d="m22.752,33.067c.099-1.896-.183-4.236.152-6.562.711-4.937,4.657-8.567,9.628-8.799,1.609-.075,3.236-.154,4.823.234,4.693,1.146,7.831,5.11,7.914,10.093.06,3.614.045,7.23.006,10.844-.07,6.422-4.581,10.616-11.359,10.611-6.621-.005-11.083-4.255-11.16-10.647-.021-1.779-.003-3.559-.003-5.774Z"/>
    <path class="cls-19" d="m32.083,26.919c.035-.717.008-1.442.123-2.144.154-.937.826-1.465,1.736-1.493.99-.03,1.793.497,1.874,1.509.118,1.478.107,2.978-.004,4.457-.07.929-.81,1.468-1.722,1.499-.995.033-1.71-.518-1.884-1.517-.131-.754-.088-1.539-.124-2.311Z"/>
    <text class="cls-28" transform="translate(73.185 46.255) rotate(.173)"><tspan x="0" y="0">오브젝트를 클릭했을 때</tspan></text>
  </g>
  <g>
    <g>
      <path class="cls-40" d="m420.559,65.326H46.465s0,0,0,0l-12.543,11.548s0,0,0,0l-12.023-10.98c-.238-.218-.622-.049-.622.274v54.741c0,.047.011.092.028.135h-.003l.004.004c.02.048.048.093.087.13h.056l11.328,10.345c.663.605,1.678.603,2.338-.005l10.91-10.045c.212-.195.49-.304.779-.304l373.757-.101c15.329,0,27.871-12.542,27.871-27.871h0c0-15.329-12.542-27.871-27.871-27.871Z"/>
      <g>
        <path class="cls-11" d="m441.508,93.241c.233,11.599-9.583,22.21-22.59,21.903-11.361-.268-21.522-9.45-21.508-22.104.014-12.581,10.427-22.278,22.629-21.994,11.969.279,21.786,10.209,21.47,22.194Z"/>
        <path class="cls-23" d="m419.776,83.078c1.421.066,3.283.498,4.796,1.905,2.464,2.29,2.614,5.317.342,7.812-.823.903-1.728,1.735-2.634,2.558-.847.769-1.497,1.641-1.723,2.78-.285,1.438-1.202,2.017-2.552,1.624-1.294-.377-1.297-1.572-1.154-2.621.299-2.203,1.86-3.593,3.427-4.952.334-.29.717-.537.999-.87,1.487-1.758,1.36-3.4-.321-4.537-1.47-.995-3.897-.403-4.808,1.208-.326.577-.531,1.221-.815,1.823-.524,1.11-1.42,1.65-2.58,1.204-1.144-.44-1.405-1.351-1.1-2.592.769-3.131,3.806-5.339,8.123-5.343Z"/>
        <path class="cls-20" d="m418.75,105.793c-1.271-.012-2.113-.925-2.059-2.258.054-1.311.741-2.044,2.063-2.095,1.32-.051,2.369,1,2.32,2.267-.048,1.226-1.02,2.098-2.324,2.086Z"/>
      </g>
    </g>
    <g>
      <path class="cls-5" d="m52.511,79.466v27.721c0,3.45,2.808,6.244,6.257,6.235,25.312-.061,13.119-.046,38.445-.044,3.444,0,6.242-2.791,6.242-6.235v-27.63c0-3.441-2.787-6.231-6.228-6.235l-38.474-.046c-3.447-.004-6.243,2.789-6.243,6.235Z"/>
      <text class="cls-29" transform="translate(62.89 101.167)"><tspan x="0" y="0">n</tspan></text>
      <path class="cls-7" d="m89.875,89.433c1.503,0,3.006-.003,4.509.001.951.003,1.744.288,2.197,1.211.47.958.064,1.702-.534,2.425-1.451,1.754-2.859,3.543-4.343,5.268-1.318,1.533-2.389,1.523-3.72-.029-1.519-1.771-2.972-3.598-4.452-5.402-.521-.635-.812-1.313-.452-2.145.374-.865,1.045-1.293,1.954-1.309,1.614-.027,3.228-.008,4.842-.008v-.013Z"/>
    </g>
    <text class="cls-31" transform="translate(119.275 101.677)"><tspan x="0" y="0">을(를)</tspan></text>
    <text class="cls-31" transform="translate(252.382 101.677)"><tspan x="0" y="0">(으)로정하기</tspan></text>
    <g>
      <g>
        <circle class="cls-21" cx="216.435" cy="93.326" r="19.903"/>
        <path class="cls-24" d="m216.434,74.423c10.423,0,18.903,8.48,18.903,18.903s-8.48,18.903-18.903,18.903-18.903-8.48-18.903-18.903,8.48-18.903,18.903-18.903m0-2c-11.497,0-20.903,9.406-20.903,20.903s9.407,20.903,20.903,20.903,20.903-9.406,20.903-20.903-9.406-20.903-20.903-20.903h0Z"/>
      </g>
      <text class="cls-34" transform="translate(210.182 100.388)"><tspan x="0" y="0">0</tspan></text>
    </g>
  </g>
  <g>
    <path class="cls-39" d="m720.269,596.847H72.983s-12.037,11.07-12.037,11.07l-12.592-11.07v-52.638c0-.43.509-.657.829-.37l11.752,10.538,12.387-11.471,635.305-.092c16.082,0,29.096-13.803,27.779-30.148-1.174-14.566-13.732-25.593-28.345-25.593H72.947s-12.133,11.19-12.133,11.19l-12.487-11.326.026-309.923,12.441,11.461,12.387-11.472,635.444-.091c16.083,0,29.098-13.806,27.779-30.152-1.175-14.565-13.733-25.591-28.346-25.591H46.465s-12.543,11.549-12.543,11.549l-12.023-10.98c-.238-.218-.622-.049-.622.274l.171,506.399,12.379,11.613,12.516-11.613h674.371c8.969,0,16.191-7.482,15.764-16.545-.399-8.489-7.712-15.02-16.21-15.02Z"/>
    <path class="cls-15" d="m726.374,149.238c.233,11.599-9.583,22.21-22.59,21.903-11.361-.268-21.522-9.45-21.508-22.104.014-12.581,10.427-22.278,22.629-21.994,11.969.279,21.786,10.209,21.47,22.194Z"/>
    <path class="cls-14" d="m712.458,150.771c-.095,0-.185.021-.279.028l-4.684-7.075c.647-.892.943-2.055.623-3.302-.356-1.388-1.5-2.503-2.899-2.812-2.553-.562-4.81,1.366-4.81,3.821,0,.859.284,1.646.753,2.292l-4.684,7.075c-.094-.007-.183-.028-.279-.028-2.466,0-4.4,2.277-3.814,4.843.323,1.416,1.474,2.567,2.89,2.89,2.566.586,4.843-1.348,4.843-3.814,0-1.153-.507-2.18-1.3-2.897l4.386-6.625c.358.108.731.183,1.124.183s.766-.076,1.124-.183l4.386,6.625c-1.013.917-1.56,2.338-1.178,3.884.344,1.389,1.482,2.51,2.878,2.828,2.564.583,4.839-1.35,4.839-3.815,0-2.165-1.755-3.919-3.919-3.919Z"/>
    <text class="cls-28" transform="translate(76.551 526.115)"><tspan x="0" y="0">아니면</tspan></text>
  </g>
  <g>
    <g>
      <path class="cls-37" d="m526.296,542.977H73.489l-12.543,11.141-12.024-10.593c-.238-.21-.622-.047-.622.265v52.811c0,.098.042.191.115.259l12.53,11.113,12.543-11.219h452.807c15.329,0,27.871-12.1,27.871-26.888h0c0-14.789-12.542-26.888-27.871-26.888Z"/>
      <g>
        <path class="cls-8" d="m502.011,570.371c.085-12.114,9.79-22.01,22.342-21.937,12.159.071,22.178,9.883,21.961,22.471-.203,11.764-9.754,21.773-22.498,21.598-12.042-.166-21.794-9.762-21.805-22.132Z"/>
        <path class="cls-26" d="m524.911,571.808c2.854.024,5.612,2.731,5.624,5.52.014,3.13-2.722,5.849-5.866,5.829-3.016-.018-5.566-2.746-5.533-5.919.031-3.007,2.636-5.457,5.775-5.43Z"/>
        <rect class="cls-26" x="527.298" y="562.193" width="9.448" height="9.448" transform="translate(556.696 -210.15) rotate(45)"/>
        <polygon class="cls-26" points="523.141 569.872 523.141 563.439 517.571 560.223 512 563.439 512 569.872 517.571 573.088 523.141 569.872"/>
      </g>
    </g>
    <text class="cls-30" transform="translate(322.198 578.43)"><tspan x="0" y="0">을(를)</tspan></text>
    <g>
      <g>
        <path class="cls-21" d="m95.255,589.987c-10.975,0-19.903-8.928-19.903-19.903s8.929-19.903,19.903-19.903h191.917c10.975,0,19.903,8.929,19.903,19.903s-8.929,19.903-19.903,19.903H95.255Z"/>
        <path class="cls-24" d="m287.172,551.181c10.423,0,18.903,8.48,18.903,18.903s-8.48,18.903-18.903,18.903H95.256c-10.423,0-18.903-8.48-18.903-18.903s8.48-18.903,18.903-18.903h191.917m0-2H95.256c-11.497,0-20.903,9.406-20.903,20.903s9.406,20.903,20.903,20.903h191.917c11.497,0,20.903-9.406,20.903-20.903s-9.406-20.903-20.903-20.903h0Z"/>
      </g>
      <text class="cls-35" transform="translate(89.791 577.146)"><tspan class="cls-46" x="0" y="0">반티 투표가 끝났습니다</tspan><tspan class="cls-47" x="197.637" y="0">.</tspan></text>
    </g>
    <g>
      <rect class="cls-6" x="394.398" y="550.986" width="95.645" height="38.968" rx="3.871" ry="3.871"/>
      <text class="cls-33" transform="translate(404.922 577.531)"><tspan x="0" y="0">말하기</tspan></text>
      <path class="cls-7" d="m473.543,565.792c1.503,0,3.006-.003,4.509.001.951.003,1.744.288,2.197,1.211.47.958.064,1.702-.534,2.425-1.451,1.754-2.859,3.543-4.343,5.268-1.318,1.533-2.389,1.523-3.72-.029-1.519-1.771-2.972-3.598-4.452-5.402-.521-.635-.812-1.313-.452-2.145.374-.865,1.045-1.293,1.954-1.309,1.614-.027,3.228-.008,4.842-.008v-.013Z"/>
    </g>
  </g>
  <g>
    <path class="cls-39" d="m527.436,202.524c-1.153-14.594-13.757-25.639-28.397-25.639H73.509c-.013,0-.026.005-.036.014l-12.492,11.501c-.02.019-.051.019-.072,0l-11.987-10.948c-.238-.217-.622-.048-.622.274l.171,253.41c0,.015.006.029.017.039l12.327,11.563c.02.019.052.019.072,0l12.465-11.565c.01-.009.023-.014.036-.014h444.129c8.526,0,15.886-6.55,16.262-15.068.399-9.041-6.814-16.497-15.767-16.497H98.55c-.014,0-.027.005-.037.015l-11.561,11.175c-.021.02-.053.02-.074,0l-11.485-11.175c-.01-.01-.016-.024-.016-.038v-165.337c0-.576.685-.876,1.109-.486l11.297,10.406c.02.019.052.019.072,0l12.336-11.424c.01-.009.023-.014.036-.014l399.427-.091c16.067,0,29.072-13.779,27.783-30.103Z"/>
    <text class="cls-28" transform="translate(342.132 214.075)"><tspan x="0" y="0">번 반복하기 </tspan></text>
    <g>
      <g>
        <path class="cls-16" d="m104.616,225.076c-10.975,0-19.903-8.928-19.903-19.903s8.929-19.903,19.903-19.903h200.327c10.975,0,19.903,8.928,19.903,19.903s-8.929,19.903-19.903,19.903H104.616Z"/>
        <path class="cls-5" d="m304.943,186.27c10.423,0,18.903,8.48,18.903,18.903s-8.48,18.903-18.903,18.903H104.616c-10.423,0-18.903-8.48-18.903-18.903s8.48-18.903,18.903-18.903h200.328m0-2H104.616c-11.497,0-20.903,9.406-20.903,20.903s9.406,20.903,20.903,20.903h200.328c11.497,0,20.903-9.406,20.903-20.903s-9.407-20.903-20.903-20.903h0Z"/>
      </g>
      <rect class="cls-5" x="99.196" y="185.689" width="140.083" height="38.968" rx="3.871" ry="3.871"/>
      <text class="cls-33" transform="translate(252.188 212.235)"><tspan x="0" y="0">항목 수</tspan></text>
      <text class="cls-33" transform="translate(109.721 212.235)"><tspan x="0" y="0">반티 리스트</tspan></text>
      <path class="cls-7" d="m223.586,200.496c1.503,0,3.006-.003,4.509.001.951.003,1.744.288,2.197,1.211.47.958.064,1.702-.534,2.425-1.451,1.754-2.859,3.543-4.343,5.268-1.318,1.533-2.389,1.523-3.72-.029-1.519-1.771-2.972-3.598-4.452-5.402-.521-.635-.812-1.313-.452-2.145.374-.865,1.045-1.293,1.954-1.309,1.614-.027,3.228-.008,4.842-.008v-.013Z"/>
    </g>
    <text class="cls-28" transform="translate(597.732 157.142)"><tspan x="0" y="0">이라면</tspan></text>
    <text class="cls-28" transform="translate(58.671 157.142)"><tspan x="0" y="0">만일</tspan></text>
    <g>
      <path class="cls-15" d="m517.401,204.8c.233,11.599-9.583,22.21-22.59,21.903-11.361-.268-21.522-9.45-21.508-22.104.014-12.581,10.427-22.278,22.629-21.994,11.969.279,21.786,10.209,21.47,22.194Z"/>
      <path class="cls-14" d="m503.485,206.332c-.095,0-.185.021-.279.028l-4.684-7.075c.647-.892.942-2.055.623-3.302-.356-1.388-1.5-2.504-2.899-2.812-2.553-.562-4.81,1.366-4.81,3.821,0,.859.284,1.646.753,2.292l-4.684,7.075c-.094-.007-.183-.028-.279-.028-2.466,0-4.4,2.277-3.814,4.843.323,1.416,1.474,2.567,2.89,2.89,2.566.586,4.843-1.348,4.843-3.814,0-1.153-.507-2.18-1.3-2.897l4.386-6.625c.358.108.731.183,1.124.183s.766-.076,1.124-.183l4.386,6.625c-1.013.917-1.56,2.338-1.178,3.884.344,1.389,1.482,2.51,2.877,2.828,2.564.583,4.839-1.35,4.839-3.815,0-2.165-1.755-3.919-3.919-3.919Z"/>
    </g>
  </g>
  <g>
    <g>
      <g>
        <polygon class="cls-17" points="134.641 168.699 119.115 148.796 134.641 128.892 566.05 128.892 581.576 148.796 566.05 168.699 134.641 168.699"/>
        <path class="cls-10" d="m565.561,129.892l14.747,18.903-14.747,18.903H135.129l-14.746-18.903,14.746-18.903h430.432m.977-2H134.153l-16.306,20.903,16.306,20.903h432.385l16.307-20.903-16.307-20.903h0Z"/>
      </g>
      <rect class="cls-10" x="355.187" y="128.989" width="29.373" height="39.613" rx="3.355" ry="3.355"/>
      <path class="cls-13" d="m366.171,149.111l7.654,8.706v-3.029s-5.546-6.309-5.546-6.309l5.546-5.808v-2.896s-7.626,7.985-7.626,7.985c-.357.375-.37.961-.027,1.351Z"/>
    </g>
    <g>
      <g>
        <path class="cls-16" d="m420.722,168.699c-10.975,0-19.903-8.928-19.903-19.903s8.929-19.903,19.903-19.903h123.18c10.975,0,19.903,8.929,19.903,19.903s-8.929,19.903-19.903,19.903h-123.18Z"/>
        <path class="cls-5" d="m543.901,129.892c10.423,0,18.903,8.48,18.903,18.903s-8.48,18.903-18.903,18.903h-123.179c-10.423,0-18.903-8.48-18.903-18.903s8.48-18.903,18.903-18.903h123.179m0-2h-123.179c-11.497,0-20.903,9.406-20.903,20.903s9.406,20.903,20.903,20.903h123.179c11.497,0,20.903-9.406,20.903-20.903s-9.406-20.903-20.903-20.903h0Z"/>
      </g>
      <rect class="cls-5" x="415.303" y="129.312" width="100.859" height="38.968" rx="3.871" ry="3.871"/>
      <text class="cls-33" transform="translate(529.07 155.854)"><tspan x="0" y="0">값</tspan></text>
      <text class="cls-33" transform="translate(425.827 155.854)"><tspan x="0" y="0">총 인원 </tspan></text>
      <path class="cls-7" d="m500.468,144.118c1.503,0,3.006-.003,4.509.001.951.003,1.744.288,2.197,1.211.47.958.064,1.702-.534,2.425-1.451,1.754-2.859,3.543-4.343,5.268-1.318,1.533-2.389,1.523-3.72-.029-1.519-1.771-2.972-3.598-4.452-5.402-.521-.635-.812-1.313-.452-2.145.374-.865,1.045-1.293,1.954-1.309,1.614-.027,3.228-.008,4.842-.008v-.013Z"/>
    </g>
    <g>
      <g>
        <path class="cls-16" d="m155.838,168.526c-10.975,0-19.903-8.928-19.903-19.903s8.929-19.903,19.903-19.903h165.313c10.975,0,19.903,8.928,19.903,19.903s-8.929,19.903-19.903,19.903h-165.313Z"/>
        <path class="cls-5" d="m321.152,129.72c10.423,0,18.903,8.48,18.903,18.903s-8.48,18.903-18.903,18.903h-165.314c-10.423,0-18.903-8.48-18.903-18.903s8.48-18.903,18.903-18.903h165.314m0-2h-165.314c-11.497,0-20.903,9.406-20.903,20.903h0c0,11.497,9.406,20.903,20.903,20.903h165.314c11.497,0,20.903-9.406,20.903-20.903h0c0-11.497-9.407-20.903-20.903-20.903h0Z"/>
      </g>
      <rect class="cls-5" x="150.419" y="129.139" width="140.083" height="38.968" rx="3.871" ry="3.871"/>
      <text class="cls-33" transform="translate(303.41 155.684)"><tspan x="0" y="0">값</tspan></text>
      <text class="cls-33" transform="translate(160.943 155.684)"><tspan x="0" y="0">투표한 사람</tspan></text>
      <path class="cls-7" d="m274.809,143.945c1.503,0,3.006-.003,4.509.001.951.003,1.744.288,2.197,1.211.47.958.064,1.702-.534,2.425-1.451,1.754-2.859,3.543-4.343,5.268-1.318,1.533-2.389,1.523-3.72-.029-1.519-1.771-2.972-3.598-4.452-5.402-.521-.635-.812-1.313-.452-2.145.374-.865,1.045-1.293,1.954-1.309,1.614-.027,3.228-.008,4.842-.008v-.013Z"/>
    </g>
  </g>
  <g>
    <g>
      <path class="cls-40" d="m426.745,232.784H100.357s0,0,0,0l-12.543,11.548s0,0,0,0l-12.023-10.98c-.238-.218-.622-.049-.622.274v54.741c0,.047.011.092.028.135h-.003l.004.004c.02.048.048.093.087.13h.056l11.328,10.345c.663.605,1.678.603,2.338-.005l10.91-10.045c.212-.195.49-.304.779-.304l326.051-.101c15.329,0,27.871-12.542,27.871-27.871h0c0-15.329-12.542-27.871-27.871-27.871Z"/>
      <g>
        <path class="cls-11" d="m447.694,260.699c.233,11.599-9.583,22.21-22.59,21.903-11.361-.268-21.522-9.45-21.508-22.104.014-12.581,10.427-22.278,22.629-21.994,11.969.279,21.786,10.209,21.47,22.194Z"/>
        <path class="cls-23" d="m425.962,250.536c1.421.066,3.283.498,4.796,1.905,2.464,2.29,2.614,5.317.342,7.812-.823.903-1.728,1.735-2.634,2.558-.847.769-1.497,1.641-1.723,2.78-.285,1.438-1.202,2.017-2.552,1.624-1.294-.377-1.297-1.572-1.154-2.621.299-2.203,1.86-3.593,3.427-4.952.334-.29.717-.537.999-.87,1.487-1.758,1.36-3.4-.321-4.537-1.47-.995-3.897-.403-4.808,1.208-.326.577-.531,1.221-.815,1.823-.524,1.11-1.42,1.65-2.58,1.204-1.144-.44-1.405-1.351-1.1-2.592.769-3.131,3.806-5.339,8.123-5.343Z"/>
        <path class="cls-20" d="m424.936,273.25c-1.271-.012-2.113-.925-2.059-2.258.054-1.311.741-2.044,2.063-2.095,1.32-.051,2.369,1,2.32,2.267-.048,1.226-1.02,2.098-2.324,2.086Z"/>
      </g>
    </g>
    <g>
      <path class="cls-5" d="m106.402,246.923v27.721c0,3.45,2.808,6.244,6.257,6.235,25.312-.061,14.144-.046,39.469-.044,3.444,0,6.242-2.791,6.242-6.235v-27.63c0-3.441-2.787-6.231-6.228-6.235l-39.498-.046c-3.447-.004-6.243,2.789-6.243,6.235Z"/>
      <text class="cls-29" transform="translate(116.782 268.623)"><tspan x="0" y="0">n</tspan></text>
      <path class="cls-7" d="m144.792,256.89c1.503,0,3.006-.003,4.509.001.951.003,1.744.288,2.197,1.211.47.958.064,1.702-.534,2.425-1.451,1.754-2.859,3.543-4.343,5.268-1.318,1.533-2.389,1.523-3.72-.029-1.519-1.771-2.972-3.598-4.452-5.402-.521-.635-.812-1.313-.452-2.145.374-.865,1.045-1.293,1.954-1.309,1.614-.027,3.228-.008,4.842-.008v-.013Z"/>
    </g>
    <text class="cls-31" transform="translate(174.191 269.134)"><tspan x="0" y="0">에</tspan></text>
    <text class="cls-31" transform="translate(269.953 269.134)"><tspan x="0" y="0">만큼 더하기</tspan></text>
    <g>
      <g>
        <circle class="cls-21" cx="234.005" cy="260.784" r="19.903"/>
        <path class="cls-24" d="m234.006,241.88c10.423,0,18.903,8.48,18.903,18.903s-8.48,18.903-18.903,18.903-18.903-8.48-18.903-18.903,8.48-18.903,18.903-18.903m0-2c-11.497,0-20.903,9.406-20.903,20.903s9.406,20.903,20.903,20.903,20.903-9.406,20.903-20.903-9.407-20.903-20.903-20.903h0Z"/>
      </g>
      <text class="cls-34" transform="translate(227.753 267.845)"><tspan x="0" y="0">1</tspan></text>
    </g>
  </g>
  <g>
    <g>
      <path class="cls-40" d="m485.706,431.256H73.489s0,0,0,0l-12.543,11.548s0,0,0,0l-12.023-10.98c-.238-.218-.622-.049-.622.274v54.741c0,.047.011.092.028.135h-.003l.004.004c.02.048.048.093.087.13h.056l11.328,10.345c.663.605,1.678.603,2.338-.005l10.91-10.045c.212-.195.49-.304.779-.304l411.881-.101c15.329,0,27.871-12.542,27.871-27.871h0c0-15.329-12.542-27.871-27.871-27.871Z"/>
      <g>
        <path class="cls-11" d="m506.655,459.171c.233,11.599-9.583,22.21-22.59,21.903-11.361-.268-21.522-9.45-21.508-22.104.014-12.581,10.427-22.278,22.629-21.994,11.969.279,21.786,10.209,21.47,22.194Z"/>
        <path class="cls-23" d="m484.923,449.008c1.421.066,3.283.498,4.796,1.905,2.464,2.29,2.614,5.317.342,7.812-.823.903-1.728,1.735-2.634,2.558-.847.769-1.497,1.641-1.723,2.78-.285,1.438-1.202,2.017-2.552,1.624-1.294-.377-1.297-1.572-1.154-2.621.299-2.203,1.86-3.593,3.427-4.952.334-.29.717-.537.999-.87,1.487-1.758,1.36-3.4-.321-4.537-1.47-.995-3.897-.403-4.808,1.208-.326.577-.531,1.221-.815,1.823-.524,1.11-1.42,1.65-2.58,1.204-1.144-.44-1.405-1.351-1.1-2.592.769-3.131,3.806-5.339,8.123-5.343Z"/>
        <path class="cls-20" d="m483.897,471.723c-1.271-.012-2.113-.925-2.059-2.258.054-1.311.741-2.044,2.063-2.095,1.32-.051,2.369,1,2.32,2.267-.048,1.226-1.02,2.098-2.324,2.086Z"/>
      </g>
    </g>
    <g>
      <path class="cls-5" d="m79.534,445.396v27.721c0,3.45,2.808,6.244,6.257,6.235,25.312-.061,99.973-.046,125.299-.044,3.444,0,6.242-2.791,6.242-6.235v-27.63c0-3.441-2.787-6.231-6.228-6.235l-125.328-.046c-3.447-.004-6.243,2.789-6.243,6.235Z"/>
      <text class="cls-29" transform="translate(89.913 467.096)"><tspan x="0" y="0">투표한 사람</tspan></text>
      <path class="cls-7" d="m203.753,455.363c1.503,0,3.006-.003,4.509.001.951.003,1.744.288,2.197,1.211.47.958.064,1.702-.534,2.425-1.451,1.754-2.859,3.543-4.343,5.268-1.318,1.533-2.389,1.523-3.72-.029-1.519-1.771-2.972-3.598-4.452-5.402-.521-.635-.812-1.313-.452-2.145.374-.865,1.045-1.293,1.954-1.309,1.614-.027,3.228-.008,4.842-.008v-.013Z"/>
    </g>
    <text class="cls-31" transform="translate(233.152 467.606)"><tspan x="0" y="0">에</tspan></text>
    <text class="cls-31" transform="translate(328.914 467.606)"><tspan x="0" y="0">만큼 더하기</tspan></text>
    <g>
      <g>
        <path class="cls-21" d="m292.967,479.16c-10.975,0-19.903-8.929-19.903-19.903s8.929-19.903,19.903-19.903,19.902,8.928,19.902,19.903-8.928,19.903-19.902,19.903Z"/>
        <path class="cls-24" d="m292.967,440.353c10.423,0,18.903,8.48,18.903,18.903s-8.48,18.903-18.903,18.903-18.903-8.48-18.903-18.903,8.48-18.903,18.903-18.903m0-2c-11.497,0-20.903,9.406-20.903,20.903s9.407,20.903,20.903,20.903,20.903-9.406,20.903-20.903-9.407-20.903-20.903-20.903h0Z"/>
      </g>
      <text class="cls-34" transform="translate(286.715 466.318)"><tspan x="0" y="0">1</tspan></text>
    </g>
  </g>
  <g>
    <g>
      <g>
        <path class="cls-40" d="m1299.896,288.396H100.357s0,0,0,0l-12.543,11.548s0,0,0,0l-12.023-10.98c-.238-.218-.622-.049-.622.274v54.741c0,.047.011.092.028.135h-.003l.004.004c.02.048.048.093.087.13h.056l11.328,10.345c.663.605,1.678.603,2.338-.005l10.91-10.045c.212-.195.49-.304.779-.304l1199.203-.101c15.329,0,27.871-12.542,27.871-27.871h0c0-15.329-12.542-27.871-27.871-27.871Z"/>
        <g>
          <path class="cls-11" d="m1320.845,316.31c.233,11.599-9.583,22.21-22.59,21.903-11.361-.268-21.522-9.45-21.508-22.104.014-12.581,10.427-22.278,22.629-21.994,11.969.279,21.786,10.209,21.47,22.194Z"/>
          <path class="cls-23" d="m1299.113,306.148c1.421.066,3.283.498,4.796,1.905,2.464,2.29,2.614,5.317.342,7.812-.823.903-1.728,1.735-2.634,2.558-.847.769-1.497,1.641-1.723,2.78-.285,1.438-1.202,2.017-2.552,1.624-1.294-.377-1.297-1.572-1.154-2.621.299-2.203,1.86-3.593,3.427-4.952.334-.29.717-.537.999-.87,1.487-1.758,1.36-3.4-.321-4.537-1.47-.995-3.897-.403-4.808,1.208-.326.577-.531,1.221-.815,1.823-.524,1.11-1.42,1.65-2.58,1.204-1.144-.44-1.405-1.351-1.1-2.592.769-3.131,3.806-5.339,8.123-5.343Z"/>
          <path class="cls-20" d="m1298.087,328.862c-1.271-.012-2.113-.925-2.059-2.258.054-1.311.741-2.044,2.063-2.095,1.32-.051,2.369,1,2.32,2.267-.048,1.226-1.02,2.098-2.324,2.086Z"/>
        </g>
      </g>
      <text class="cls-31" transform="translate(1005.7 324.743)"><tspan x="0" y="0">을(를) 묻고 대답 기다리기</tspan></text>
    </g>
    <g>
      <g>
        <path class="cls-22" d="m127.305,336.068c-10.975,0-19.902-8.928-19.902-19.903s8.928-19.903,19.902-19.903h842.985c10.975,0,19.903,8.928,19.903,19.903s-8.929,19.903-19.903,19.903H127.305Z"/>
        <path class="cls-12" d="m970.291,297.262c10.423,0,18.903,8.48,18.903,18.903s-8.48,18.903-18.903,18.903H127.306c-10.423,0-18.903-8.48-18.903-18.903s8.48-18.903,18.903-18.903h842.985m0-2H127.306c-11.497,0-20.903,9.406-20.903,20.903s9.407,20.903,20.903,20.903h842.985c11.497,0,20.903-9.406,20.903-20.903s-9.407-20.903-20.903-20.903h0Z"/>
      </g>
      <g>
        <g>
          <path class="cls-16" d="m140.656,336.068c-10.975,0-19.903-8.928-19.903-19.903s8.929-19.903,19.903-19.903h389.58c10.975,0,19.903,8.928,19.903,19.903s-8.929,19.903-19.903,19.903H140.656Z"/>
          <path class="cls-5" d="m530.236,297.262c10.423,0,18.903,8.48,18.903,18.903s-8.48,18.903-18.903,18.903H140.655c-10.423,0-18.903-8.48-18.903-18.903s8.48-18.903,18.903-18.903h389.581m0-2H140.655c-11.497,0-20.903,9.406-20.903,20.903s9.406,20.903,20.903,20.903h389.581c11.497,0,20.903-9.406,20.903-20.903s-9.407-20.903-20.903-20.903h0Z"/>
        </g>
        <rect class="cls-5" x="135.236" y="296.681" width="141.003" height="38.968" rx="3.871" ry="3.871"/>
        <text class="cls-33" transform="translate(289.601 323.228)"><tspan x="0" y="0">의</tspan></text>
        <text class="cls-33" transform="translate(453.277 323.228)"><tspan x="0" y="0">번째 항목</tspan></text>
        <text class="cls-33" transform="translate(564.76 323.228)"><tspan x="0" y="0">과(와)</tspan></text>
        <text class="cls-33" transform="translate(850.58 323.228)"><tspan x="0" y="0">을 (를) 합친 값</tspan></text>
        <text class="cls-33" transform="translate(145.76 323.228)"><tspan x="0" y="0">반티 리스트</tspan></text>
        <path class="cls-7" d="m258.545,311.488c1.503,0,3.006-.003,4.509.001.951.003,1.744.288,2.197,1.211.47.958.064,1.702-.534,2.425-1.451,1.754-2.859,3.543-4.343,5.268-1.318,1.533-2.389,1.523-3.72-.029-1.519-1.771-2.972-3.598-4.452-5.402-.521-.635-.812-1.313-.452-2.145.374-.865,1.045-1.293,1.954-1.309,1.614-.027,3.228-.008,4.842-.008v-.013Z"/>
      </g>
      <g>
        <path class="cls-21" d="m651.641,336.068c-10.975,0-19.903-8.929-19.903-19.903s8.929-19.903,19.903-19.903h165.844c10.975,0,19.903,8.928,19.903,19.903s-8.929,19.903-19.903,19.903h-165.844Z"/>
        <path class="cls-24" d="m817.484,297.262c10.423,0,18.903,8.48,18.903,18.903s-8.48,18.903-18.903,18.903h-165.844c-10.423,0-18.903-8.48-18.903-18.903s8.48-18.903,18.903-18.903h165.844m0-2h-165.844c-11.497,0-20.903,9.406-20.903,20.903s9.406,20.903,20.903,20.903h165.844c11.497,0,20.903-9.406,20.903-20.903s-9.406-20.903-20.903-20.903h0Z"/>
      </g>
      <text class="cls-35" transform="translate(645.402 323.228)"><tspan class="cls-32" x="0" y="0">의 점수를 입력하세요</tspan><tspan class="cls-1" x="175.214" y="0">.</tspan></text>
      <g>
        <g>
          <path class="cls-16" d="m342.244,336.068c-10.975,0-19.903-8.928-19.903-19.903s8.929-19.903,19.903-19.903h78.417c10.975,0,19.903,8.928,19.903,19.903s-8.929,19.903-19.903,19.903h-78.417Z"/>
          <path class="cls-5" d="m420.661,297.262c10.423,0,18.903,8.48,18.903,18.903s-8.48,18.903-18.903,18.903h-78.418c-10.423,0-18.903-8.48-18.903-18.903s8.48-18.903,18.903-18.903h78.418m0-2h-78.418c-11.497,0-20.903,9.406-20.903,20.903s9.406,20.903,20.903,20.903h78.418c11.497,0,20.903-9.406,20.903-20.903s-9.407-20.903-20.903-20.903h0Z"/>
        </g>
        <rect class="cls-5" x="336.824" y="296.681" width="54.418" height="38.968" rx="3.871" ry="3.871"/>
        <text class="cls-33" transform="translate(404.799 323.228)"><tspan x="0" y="0">값</tspan></text>
        <path class="cls-7" d="m373.742,311.488c1.503,0,3.006-.003,4.509.001.951.003,1.744.288,2.197,1.211.47.958.064,1.702-.534,2.425-1.451,1.754-2.859,3.543-4.343,5.268-1.318,1.533-2.389,1.523-3.72-.029-1.519-1.771-2.972-3.598-4.452-5.402-.521-.635-.812-1.313-.452-2.145.374-.865,1.045-1.293,1.954-1.309,1.614-.027,3.228-.008,4.842-.008v-.013Z"/>
        <text class="cls-33" transform="translate(347.348 323.228)"><tspan x="0" y="0">n</tspan></text>
      </g>
    </g>
    <g>
      <g>
        <g>
          <path class="cls-40" d="m1284.859,344.078H100.357s0,0,0,0l-12.543,11.548s0,0,0,0l-12.023-10.98c-.238-.218-.622-.049-.622.274v54.741c0,.047.011.092.028.135h-.003l.004.004c.02.048.048.093.087.13h.056l11.328,10.345c.663.605,1.678.603,2.338-.005l10.91-10.045c.212-.195.49-.304.779-.304l1184.166-.101c15.329,0,27.871-12.542,27.871-27.871h0c0-15.329-12.542-27.871-27.871-27.871Z"/>
          <g>
            <path class="cls-11" d="m1305.808,371.993c.233,11.599-9.583,22.21-22.59,21.903-11.361-.268-21.522-9.45-21.508-22.104.014-12.581,10.427-22.278,22.629-21.994,11.969.279,21.786,10.209,21.47,22.194Z"/>
            <path class="cls-23" d="m1284.076,361.83c1.421.066,3.283.498,4.796,1.905,2.464,2.29,2.614,5.317.342,7.812-.823.903-1.728,1.735-2.634,2.558-.847.769-1.497,1.641-1.723,2.78-.285,1.438-1.202,2.017-2.552,1.624-1.294-.377-1.297-1.572-1.154-2.621.299-2.203,1.86-3.593,3.427-4.952.334-.29.717-.537.999-.87,1.487-1.758,1.36-3.4-.321-4.537-1.47-.995-3.897-.403-4.808,1.208-.326.577-.531,1.221-.815,1.823-.524,1.11-1.42,1.65-2.58,1.204-1.144-.44-1.405-1.351-1.1-2.592.769-3.131,3.806-5.339,8.123-5.343Z"/>
            <path class="cls-20" d="m1283.05,384.544c-1.271-.012-2.113-.925-2.059-2.258.054-1.311.741-2.044,2.063-2.095,1.32-.051,2.369,1,2.32,2.267-.048,1.226-1.02,2.098-2.324,2.086Z"/>
          </g>
        </g>
        <g>
          <path class="cls-5" d="m106.402,358.217v27.721c0,3.45,2.808,6.244,6.257,6.235,25.312-.061,83.095-.046,108.42-.044,3.444,0,6.242-2.791,6.242-6.235v-27.63c0-3.441-2.787-6.231-6.228-6.235l-108.449-.046c-3.447-.004-6.243,2.789-6.243,6.235Z"/>
          <text class="cls-29" transform="translate(116.781 379.915)"><tspan x="0" y="0">반티 총점</tspan></text>
          <path class="cls-7" d="m213.742,368.184c1.503,0,3.006-.003,4.509.001.951.003,1.744.288,2.197,1.211.47.958.064,1.702-.534,2.425-1.451,1.754-2.859,3.543-4.343,5.268-1.318,1.533-2.389,1.523-3.72-.029-1.519-1.771-2.972-3.598-4.452-5.402-.521-.635-.812-1.313-.452-2.145.374-.865,1.045-1.293,1.954-1.309,1.614-.027,3.228-.008,4.842-.008v-.013Z"/>
        </g>
        <text class="cls-31" transform="translate(243.141 380.425)"><tspan x="0" y="0">의</tspan></text>
        <text class="cls-31" transform="translate(406.787 380.425)"><tspan x="0" y="0">번째 항목을</tspan></text>
        <text class="cls-31" transform="translate(1106.593 380.425)"><tspan x="0" y="0" xml:space="preserve">(으)로  바꾸기</tspan></text>
      </g>
      <g>
        <g>
          <path class="cls-16" d="m299.212,392.195c-10.975,0-19.903-8.928-19.903-19.903s8.929-19.903,19.903-19.903h74.536c10.975,0,19.903,8.928,19.903,19.903s-8.929,19.903-19.903,19.903h-74.536Z"/>
          <path class="cls-5" d="m373.748,353.388c10.423,0,18.903,8.48,18.903,18.903s-8.48,18.903-18.903,18.903h-74.537c-10.423,0-18.903-8.48-18.903-18.903s8.48-18.903,18.903-18.903h74.537m0-2h-74.537c-11.497,0-20.903,9.406-20.903,20.903s9.407,20.903,20.903,20.903h74.537c11.497,0,20.903-9.406,20.903-20.903s-9.406-20.903-20.903-20.903h0Z"/>
        </g>
        <rect class="cls-5" x="293.793" y="352.807" width="52.216" height="38.968" rx="3.871" ry="3.871"/>
        <text class="cls-33" transform="translate(358.918 379.349)"><tspan x="0" y="0">값</tspan></text>
        <text class="cls-33" transform="translate(304.317 379.349)"><tspan x="0" y="0">n</tspan></text>
        <path class="cls-7" d="m330.315,367.614c1.503,0,3.006-.003,4.509.001.951.003,1.744.288,2.197,1.211.47.958.064,1.702-.534,2.425-1.451,1.754-2.859,3.543-4.343,5.268-1.318,1.533-2.389,1.523-3.72-.029-1.519-1.771-2.972-3.598-4.452-5.402-.521-.635-.812-1.313-.452-2.145.374-.865,1.045-1.293,1.954-1.309,1.614-.027,3.228-.008,4.842-.008v-.013Z"/>
      </g>
      <g>
        <g>
          <g>
            <path class="cls-22" d="m558.727,392.312c-10.975,0-19.903-8.928-19.903-19.903s8.929-19.903,19.903-19.903h515.392c10.975,0,19.902,8.929,19.902,19.903s-8.928,19.903-19.902,19.903h-515.392Z"/>
            <path class="cls-12" d="m1074.118,353.505c10.423,0,18.903,8.48,18.903,18.903s-8.48,18.903-18.903,18.903h-515.391c-10.423,0-18.903-8.48-18.903-18.903s8.48-18.903,18.903-18.903h515.391m0-2h-515.391c-11.497,0-20.903,9.406-20.903,20.903s9.407,20.903,20.903,20.903h515.391c11.497,0,20.903-9.406,20.903-20.903s-9.406-20.903-20.903-20.903h0Z"/>
          </g>
          <g>
            <g>
              <path class="cls-16" d="m572.077,392.312c-10.975,0-19.903-8.928-19.903-19.903s8.929-19.903,19.903-19.903h367.798c10.975,0,19.903,8.928,19.903,19.903s-8.929,19.903-19.903,19.903h-367.798Z"/>
              <path class="cls-5" d="m939.874,353.505c10.423,0,18.903,8.48,18.903,18.903s-8.48,18.903-18.903,18.903h-367.797c-10.423,0-18.903-8.48-18.903-18.903s8.48-18.903,18.903-18.903h367.797m0-2h-367.797c-11.497,0-20.903,9.406-20.903,20.903s9.406,20.903,20.903,20.903h367.797c11.497,0,20.903-9.406,20.903-20.903s-9.406-20.903-20.903-20.903h0Z"/>
            </g>
            <rect class="cls-5" x="566.658" y="352.925" width="119.22" height="38.968" rx="3.871" ry="3.871"/>
            <text class="cls-33" transform="translate(699.241 379.471)"><tspan x="0" y="0">의</tspan></text>
            <text class="cls-33" transform="translate(862.916 379.471)"><tspan x="0" y="0">번째 항목</tspan></text>
            <text class="cls-33" transform="translate(577.183 379.471)"><tspan x="0" y="0">반티 총점</tspan></text>
            <path class="cls-7" d="m668.184,367.731c1.503,0,3.006-.003,4.509.001.951.003,1.744.288,2.197,1.211.47.958.064,1.702-.534,2.425-1.451,1.754-2.859,3.543-4.343,5.268-1.318,1.533-2.389,1.523-3.72-.029-1.519-1.771-2.972-3.598-4.452-5.402-.521-.635-.812-1.313-.452-2.145.374-.865,1.045-1.293,1.954-1.309,1.614-.027,3.228-.008,4.842-.008v-.013Z"/>
          </g>
          <g>
            <g>
              <path class="cls-16" d="m751.882,392.312c-10.975,0-19.903-8.928-19.903-19.903s8.929-19.903,19.903-19.903h78.418c10.975,0,19.902,8.929,19.902,19.903s-8.928,19.903-19.902,19.903h-78.418Z"/>
              <path class="cls-5" d="m830.3,353.505c10.423,0,18.903,8.48,18.903,18.903s-8.48,18.903-18.903,18.903h-78.417c-10.423,0-18.903-8.48-18.903-18.903s8.48-18.903,18.903-18.903h78.417m0-2h-78.417c-11.497,0-20.903,9.406-20.903,20.903s9.406,20.903,20.903,20.903h78.417c11.497,0,20.903-9.406,20.903-20.903s-9.406-20.903-20.903-20.903h0Z"/>
            </g>
            <rect class="cls-5" x="746.463" y="352.925" width="54.418" height="38.968" rx="3.871" ry="3.871"/>
            <text class="cls-33" transform="translate(814.439 379.471)"><tspan x="0" y="0">값</tspan></text>
            <path class="cls-7" d="m783.38,367.731c1.503,0,3.006-.003,4.509.001.951.003,1.744.288,2.197,1.211.47.958.064,1.702-.534,2.425-1.451,1.754-2.859,3.543-4.343,5.268-1.318,1.533-2.389,1.523-3.72-.029-1.519-1.771-2.972-3.598-4.452-5.402-.521-.635-.812-1.313-.452-2.145.374-.865,1.045-1.293,1.954-1.309,1.614-.027,3.228-.008,4.842-.008v-.013Z"/>
            <text class="cls-33" transform="translate(756.988 379.471)"><tspan x="0" y="0">n</tspan></text>
          </g>
        </g>
        <g>
          <g>
            <path class="cls-11" d="m1079.931,363.592c-3.978-8.028-10.585-12.205-19.692-12.204l-23.634.017c-13.365.1-23.308,12.743-20.298,25.728,2.245,9.683,10.748,16.352,20.919,16.354l22.63.007c1.562,0,3.108-.072,4.657-.328,13.443-2.215,21.457-17.384,15.417-29.573Z"/>
            <path class="cls-4" d="m1047.471,353.396c42.548,0-29.54-.003,13.008.003,9.346.001,16.7,5.774,18.918,14.808,2.597,10.582-4.706,21.37-15.534,23.016-1.222.186-2.431.263-3.655.263-85.04,0,62.236.002-22.804,0-11.651,0-20.056-8.798-19.553-20.436.36-8.321,7.473-16.158,15.669-17.363,1.445-.212,2.876-.287,4.323-.287,42.437-.001-32.807,0,9.629,0Z"/>
          </g>
          <text class="cls-36" transform="translate(1030.208 377.758)"><tspan x="0" y="0">대답</tspan></text>
        </g>
        <rect class="cls-12" x="973.764" y="353.376" width="28.258" height="38.065" rx="2.645" ry="2.645"/>
        <text class="cls-33" transform="translate(980.699 378.471)"><tspan x="0" y="0">+</tspan></text>
      </g>
    </g>
  </g>
  <g>
    <polyline class="cls-43" points="52.422 431.256 48.922 431.256 48.922 427.756"/>
    <line class="cls-44" x1="48.922" y1="424.709" x2="48.922" y2="182.476"/>
    <polyline class="cls-43" points="48.922 180.953 48.922 177.453 52.422 177.453"/>
    <path class="cls-45" d="m55.42,177.453h1278.375c7.423,0,13.441,6.018,13.441,13.441v226.921c0,7.424-6.018,13.441-13.441,13.441H53.921"/>
  </g>
  <g>
    <g>
      <g>
        <path class="cls-41" d="m1102.489,689.68h-203.616l-12.543,11.548h0l-12.023-10.98c-.238-.218-.622-.049-.622.274v54.841l.171.168,11.328,10.345c.663.605,1.678.603,2.338-.004l10.91-10.045c.212-.195.49-.304.779-.304l203.279-.101c15.329,0,27.871-12.542,27.871-27.871s-12.542-27.871-27.871-27.871Z"/>
        <path class="cls-25" d="m1123.437,717.595c.233,11.599-9.583,22.21-22.59,21.903-11.361-.268-21.522-9.45-21.508-22.104.014-12.581,10.427-22.278,22.629-21.994,11.969.279,21.786,10.209,21.47,22.194Z"/>
        <path class="cls-3" d="m1105.804,714.656c1.407,0,2.395-.012,3.384.004.851.014,1.445.399,1.556,1.288.12.962-.563,1.285-1.317,1.519-.079.025-.17.08-.239.061-4.954-1.325-5.974,2.691-7.776,5.688-1.973,3.282-4.638,5.369-8.75,4.954-1.005-.101-1.949-.347-2.123-1.35-.208-1.2,1.021-.942,1.691-1.305,3.006-1.631,3.894-4.763,5.328-7.535-.849-.677-1.708-.269-2.483-.419-.887-.172-1.685-.555-1.601-1.554.067-.795.741-1.257,1.574-1.335.33-.031.676-.081.994-.017,2.34.468,3.589-.727,4.689-2.649,1.419-2.479,3.285-4.62,6.33-5.208,1.965-.38,3.644.13,4.821,1.803.593.843.499,1.736-.279,2.472-.735.695-1.343.452-1.831-.318-.614-.968-1.097-.293-1.572.131-1.022.911-1.408,2.213-2.396,3.771Z"/>
      </g>
      <text class="cls-31" transform="translate(902.728 726.028)"><tspan x="0" y="0">점수 합계</tspan></text>
    </g>
    <g>
      <g>
        <path class="cls-21" d="m1032.269,737.201c-10.975,0-19.903-8.928-19.903-19.903s8.929-19.903,19.903-19.903h10.968c10.975,0,19.903,8.929,19.903,19.903s-8.929,19.903-19.903,19.903h-10.968Z"/>
        <path class="cls-24" d="m1043.237,698.395c10.423,0,18.903,8.48,18.903,18.903s-8.48,18.903-18.903,18.903h-10.968c-10.423,0-18.903-8.48-18.903-18.903s8.48-18.903,18.903-18.903h10.968m0-2h-10.968c-11.497,0-20.903,9.406-20.903,20.903s9.406,20.903,20.903,20.903h10.968c11.497,0,20.903-9.406,20.903-20.903s-9.406-20.903-20.903-20.903h0Z"/>
      </g>
      <text class="cls-34" transform="translate(1026.016 724.361)"><tspan x="0" y="0">10</tspan></text>
    </g>
  </g>
  <g>
    <line class="cls-43" x1="1002.022" y1="431.828" x2="1002.022" y2="435.328"/>
    <line class="cls-42" x1="1002.022" y1="438.269" x2="1002.022" y2="652.436"/>
    <line class="cls-43" x1="1002.022" y1="653.906" x2="1002.022" y2="657.406"/>
    <polygon class="cls-9" points="987.063 653.029 1002.022 678.933 1016.979 653.029 987.063 653.029"/>
  </g>
</svg>