<?xml version="1.0" encoding="UTF-8"?>
<svg id="_레이어_2" data-name="레이어 2" xmlns="http://www.w3.org/2000/svg" viewBox="0 0 831.38 217.816">
  <defs>
    <style>
      .cls-1 {
        stroke: #bfbfbf;
      }

      .cls-1, .cls-2, .cls-3, .cls-4, .cls-5 {
        fill: #fff;
      }

      .cls-1, .cls-6, .cls-7, .cls-8 {
        stroke-miterlimit: 10;
      }

      .cls-2, .cls-9 {
        font-size: 26px;
      }

      .cls-2, .cls-9, .cls-4, .cls-5 {
        font-family: D2Coding, D2Coding;
      }

      .cls-9 {
        fill: #575e75;
      }

      .cls-6 {
        fill: #d400d4;
        stroke: #9f009f;
      }

      .cls-6, .cls-7, .cls-8 {
        stroke-width: 1.5px;
      }

      .cls-7 {
        fill: #e63022;
      }

      .cls-7, .cls-8 {
        stroke: #ad241a;
      }

      .cls-3, .cls-10, .cls-11 {
        stroke-width: 0px;
      }

      .cls-4 {
        font-size: 26.581px;
      }

      .cls-10 {
        fill: #b4281d;
      }

      .cls-5 {
        font-size: 25px;
      }

      .cls-8 {
        fill: #c4291d;
      }

      .cls-11 {
        fill: #d22e22;
      }
    </style>
  </defs>
  <g>
    <path class="cls-6" d="m84.158,179.241h-21.05c-1.723,0-3.364-.74-4.505-2.031l-8.586-9.72c-1.141-1.292-2.781-2.031-4.505-2.031h-13.331c-3.32,0-6.011-2.691-6.011-6.011v-76.272c0-3.32,2.691-6.011,6.011-6.011h13.331c1.723,0,3.364.74,4.505,2.031l8.586,9.72c1.141,1.292,2.781,2.031,4.505,2.031h21.05c1.691,0,3.304-.712,4.443-1.963l8.981-9.857c1.139-1.25,2.752-1.963,4.443-1.963h132.294c3.32,0,6.011-2.691,6.011-6.011V6.761c0-3.32-2.691-6.011-6.011-6.011H6.761C3.441.75.75,3.441.75,6.761v204.294c0,3.32,2.691,6.011,6.011,6.011h227.558c3.32,0,6.011-2.691,6.011-6.011v-39.586c0-3.32-2.691-6.011-6.011-6.011H102.025c-1.691,0-3.304.712-4.443,1.963l-8.981,9.857c-1.139,1.25-2.752,1.963-4.443,1.963Z"/>
    <g>
      <g>
        <rect class="cls-6" x="13.46" y="13.843" width="76.29" height="50.382" rx="5.743" ry="5.743"/>
        <path class="cls-3" d="m68.301,43.54l-6.78-6.353c-.801-.75-.27-2.093.827-2.093h13.56c1.097,0,1.628,1.343.827,2.093l-6.78,6.353c-.465.436-1.189.436-1.655,0Z"/>
        <text class="cls-5" transform="translate(25.125 47.152)"><tspan x="0" y="0">P1</tspan></text>
      </g>
      <text class="cls-5" transform="translate(102.297 46.946)"><tspan x="0" y="0">핀 누를 때</tspan></text>
    </g>
  </g>
  <g>
    <g>
      <g>
        <path class="cls-7" d="m102.017,77.166c-1.691,0-3.304.712-4.443,1.962l-8.981,9.857c-1.139,1.25-2.752,1.963-4.443,1.963h-21.051c-1.723,0-3.364-.74-4.505-2.031l-8.586-9.72c-1.141-1.292-2.781-2.031-4.505-2.031h-13.331c-3.32,0-6.011,2.691-6.011,6.011v76.098c0,3.32,2.691,6.011,6.011,6.011h13.331c1.723,0,3.364.74,4.505,2.031l8.586,9.72c1.141,1.292,2.781,2.031,4.505,2.031h21.051c1.691,0,3.304-.712,4.443-1.963l8.981-9.857c1.139-1.25,2.752-1.962,4.443-1.962h722.903c3.154,0,5.711-2.557,5.711-5.711v-76.698c0-3.154-2.557-5.711-5.711-5.711H102.017Z"/>
        <text class="cls-4" transform="translate(38.701 128.202)"><tspan x="0" y="0">재생</tspan></text>
      </g>
      <g>
        <rect class="cls-7" x="582.048" y="95.243" width="236.713" height="50.839" rx="6.195" ry="6.195"/>
        <text class="cls-4" transform="translate(599.664 128.79)"><tspan x="0" y="0">완료될 때까지</tspan></text>
        <g>
          <path class="cls-3" d="m795.339,126.754c-.437,0-.852-.165-1.169-.462l-6.78-6.354c-.516-.482-.681-1.219-.421-1.876.259-.657.884-1.082,1.59-1.082h13.561c.706,0,1.331.424,1.59,1.082.26.657.095,1.394-.421,1.876l-6.78,6.354c-.317.298-.732.462-1.169.462Z"/>
          <path class="cls-11" d="m802.119,117.48c1.097,0,1.628,1.343.828,2.093l-6.78,6.353c-.233.218-.53.327-.828.327s-.595-.109-.828-.327l-6.78-6.353c-.801-.75-.27-2.093.828-2.093h13.56m0-1h-13.56c-.913,0-1.72.549-2.056,1.398-.335.849-.122,1.801.544,2.425l6.78,6.353c.411.385.948.597,1.511.597s1.1-.212,1.511-.597l6.78-6.354c.667-.624.88-1.576.544-2.425-.335-.849-1.143-1.398-2.056-1.398h0Z"/>
        </g>
      </g>
    </g>
    <g>
      <rect class="cls-8" x="107.988" y="88.179" width="461.003" height="66.014" rx="33.007" ry="33.007"/>
      <g>
        <rect class="cls-1" x="116.415" y="97.132" width="64.601" height="48.106" rx="24.053" ry="24.053"/>
        <text class="cls-9" transform="translate(136.212 129.642)"><tspan x="0" y="0">솔</tspan></text>
      </g>
      <text class="cls-2" transform="translate(192.654 129.106)"><tspan x="0" y="0">음을</tspan></text>
      <rect class="cls-8" x="259.697" y="95.792" width="154.351" height="50.788" rx="25.394" ry="25.394"/>
      <text class="cls-2" transform="translate(426.176 129.106)"><tspan x="0" y="0">동안 재생</tspan></text>
      <text class="cls-2" transform="translate(280.358 129.106)"><tspan x="0" y="0">1</tspan></text>
      <text class="cls-2" transform="translate(339.477 129.106)"><tspan x="0" y="0">박자</tspan></text>
      <g>
        <path class="cls-3" d="m316.113,126.549c-.437,0-.852-.164-1.17-.462l-6.779-6.354c-.516-.482-.681-1.219-.421-1.876.26-.657.884-1.082,1.59-1.082h13.56c.707,0,1.331.425,1.591,1.082.26.657.095,1.394-.421,1.876l-6.78,6.354c-.318.298-.733.462-1.169.462Z"/>
        <path class="cls-10" d="m322.893,117.276c1.097,0,1.628,1.343.827,2.093l-6.78,6.353c-.233.218-.53.327-.827.327s-.595-.109-.827-.327l-6.78-6.353c-.801-.75-.27-2.093.827-2.093h13.56m0-1h-13.56c-.913,0-1.72.549-2.055,1.397-.336.849-.122,1.801.544,2.425l6.78,6.353c.411.385.948.597,1.511.597s1.1-.212,1.511-.597l6.78-6.353c.666-.624.88-1.576.544-2.425-.335-.849-1.142-1.397-2.055-1.397h0Z"/>
      </g>
    </g>
  </g>
</svg>