<?xml version="1.0" encoding="UTF-8"?>
<svg id="_레이어_1" data-name="레이어 1" xmlns="http://www.w3.org/2000/svg" viewBox="0 0 396.838 188.668">
  <defs>
    <style>
      .cls-1, .cls-2, .cls-3, .cls-4, .cls-5, .cls-6, .cls-7, .cls-8, .cls-9 {
        stroke-width: 0px;
      }

      .cls-1, .cls-10, .cls-11, .cls-12 {
        fill: #fefefe;
      }

      .cls-2 {
        fill: #b819b3;
      }

      .cls-3 {
        fill: #00b400;
      }

      .cls-4 {
        fill: #fefdfe;
      }

      .cls-13 {
        fill: #00b300;
        stroke: #009400;
        stroke-miterlimit: 10;
      }

      .cls-13, .cls-14 {
        stroke-width: 2px;
      }

      .cls-10, .cls-11, .cls-12 {
        font-family: Pretendard-Bold-KSCpc-EUC-H, Pretendard;
        font-weight: 700;
      }

      .cls-10, .cls-12 {
        font-size: 26px;
      }

      .cls-5 {
        fill: #b719b2;
      }

      .cls-6 {
        fill: #fff;
      }

      .cls-11 {
        font-size: 22px;
      }

      .cls-14 {
        fill: #dd47d8;
        stroke: #b819b3;
        stroke-linecap: round;
        stroke-linejoin: round;
      }

      .cls-7 {
        fill: #f577f1;
      }

      .cls-8 {
        fill: #f677f2;
      }

      .cls-12 {
        letter-spacing: -.01em;
      }

      .cls-9 {
        fill: #f2f2f2;
      }
    </style>
  </defs>
  <g>
    <g>
      <g>
        <path class="cls-13" d="m312.09,33.954c-2.293-12.791-13.66-22.1-26.741-22.14-81.918-.248-140.558-.501-222.476-.713-2.727-.007-4.859-.438-7.168-2.399C48.54,2.618,39.547.119,30.1,1.274,20.381,2.463,12.681,7.161,7.067,15.04,2.193,21.879.212,29.582,1.283,38.024c1.177,9.281,5.524,16.675,12.825,22.461,2.333,1.849,7.129,4.568,7.129,4.568,0,0,.815.588,1.321,1.095,3.187,3.196,7.271,6.365,10.402,9.615.84.872,1.302.778,2.094-.031.035-.036.104-.107.104-.107l9.162-8.399c1.278-1.315,3.032-2.055,4.866-2.049l238.663-.008c4.379,0,8.733-1.024,12.526-3.212,9.334-5.385,13.887-15.89,11.715-28.003Z"/>
        <g>
          <path class="cls-1" d="m34.679,61.097c-14.926-.049-27.038-12.211-27-27.111.038-14.888,12.219-27,27.151-27h.124c14.901.067,26.977,12.266,26.918,27.193-.058,14.843-12.216,26.918-27.103,26.918h-.091Z"/>
          <path class="cls-9" d="m34.831,7.986h.121c14.349.064,25.978,11.813,25.922,26.189-.056,14.293-11.765,25.921-26.102,25.921h-.087c-14.375-.047-26.04-11.759-26.003-26.108.037-14.337,11.768-26.001,26.151-26.002m0-2c-15.526,0-28.111,12.501-28.151,27.997-.04,15.454,12.517,28.063,27.997,28.114h.094c15.444,0,28.042-12.502,28.103-27.914.06-15.478-12.463-28.128-27.913-28.197-.044,0-.086,0-.13,0h0Z"/>
        </g>
      </g>
      <g>
        <rect class="cls-3" x="20.433" y="29.401" width="27.677" height="17.677" rx="1.839" ry="1.839"/>
        <g>
          <g>
            <path class="cls-6" d="m20.477,29.26c-.171,0-.328-.111-.393-.276l2.244-6.231,3.779-1.019-2.365,6.66-3.159.852c-.035.009-.07.014-.106.014Z"/>
            <path class="cls-3" d="m25.91,21.916l-2.263,6.374-3.096.835c-.024.006-.049.01-.074.01-.094,0-.181-.048-.237-.125l2.185-6.154,3.485-.939m.395-.366l-4.072,1.098-2.265,6.38c.082.214.286.356.509.356.046,0,.092-.006.139-.019l3.223-.869,2.466-6.946h0Z"/>
          </g>
          <g>
            <polygon class="cls-3" points="26.401 21.654 31.581 20.257 29.216 26.917 24.036 28.314 26.401 21.654"/>
            <path class="cls-3" d="m31.383,20.44l-2.263,6.374-4.886,1.317,2.263-6.374,4.886-1.317m.395-.366l-5.472,1.476-2.466,6.946,5.473-1.476,2.466-6.946h0Z"/>
          </g>
          <g>
            <polygon class="cls-6" points="31.874 20.178 35.684 19.15 33.319 25.81 29.509 26.838 31.874 20.178"/>
            <path class="cls-3" d="m35.486,19.333l-2.263,6.374-3.517.948,2.263-6.374,3.517-.948m.395-.366l-4.104,1.107-2.466,6.946,4.103-1.107,2.466-6.946h0Z"/>
          </g>
          <g>
            <path class="cls-3" d="m18.771,24.151c-.061-.225.073-.458.298-.519l2.967-.8-2.057,5.794-1.208-4.475Z"/>
            <path class="cls-3" d="m21.839,23.014l-1.844,5.193-1.103-4.089c-.043-.159.052-.323.21-.366l2.736-.738m.395-.366l-3.197.862c-.291.079-.465.381-.387.672l1.294,4.796c.005.019.018.032.025.049l2.265-6.38h0Z"/>
          </g>
          <g>
            <path class="cls-3" d="m45.344,17.215l1.235,4.58c.061.225-.073.458-.298.519l-3.038.819,2.101-5.918Z"/>
            <path class="cls-3" d="m45.329,17.634l1.131,4.193c.043.159-.051.323-.21.366l-2.808.757,1.887-5.316m.016-.793l-2.299,6.475,3.268-.881c.291-.079.465-.381.386-.672l-1.293-4.796c-.013-.046-.039-.084-.062-.125h0Z"/>
          </g>
          <g>
            <polygon class="cls-3" points="35.977 19.071 41.212 17.659 38.847 24.32 33.612 25.731 35.977 19.071"/>
            <path class="cls-3" d="m41.014,17.842l-2.263,6.374-4.941,1.333,2.263-6.374,4.941-1.333m.395-.365l-5.528,1.491-2.466,6.946,5.528-1.491,2.466-6.946h0Z"/>
          </g>
          <g>
            <path class="cls-6" d="m41.505,17.58l3.263-.88c.035-.009.069-.014.104-.014.13,0,.254.065.334.172l-2.255,6.354-3.811,1.028,2.364-6.66Z"/>
            <path class="cls-3" d="m44.872,16.811c.07,0,.138.027.192.075l-2.209,6.223-3.517.948,2.263-6.374,3.199-.863c.024-.006.048-.009.072-.009m0-.25c-.045,0-.091.006-.137.018l-3.326.897-2.466,6.946,4.103-1.107,2.299-6.475c-.098-.17-.278-.28-.473-.28h0Z"/>
          </g>
        </g>
        <rect class="cls-6" x="23.839" y="33.336" width="10.026" height="2" rx="1" ry="1"/>
        <rect class="cls-6" x="23.839" y="37.317" width="18.07" height="2" rx="1" ry="1"/>
        <rect class="cls-6" x="23.839" y="41.298" width="20.207" height="2" rx="1" ry="1"/>
      </g>
    </g>
    <text class="cls-10" transform="translate(74.78 46.25) rotate(.173)"><tspan x="0" y="0">장면이 시작되었을 때</tspan></text>
  </g>
  <g>
    <g>
      <path class="cls-14" d="m367.967,65.203H46.713s0,0,0,0l-12.543,11.548s0,0,0,0l-12.023-10.98c-.238-.218-.622-.049-.622.274v54.741c0,.047.011.092.028.135h-.003l.004.004c.02.048.048.093.087.13h.056l11.328,10.345c.663.605,1.678.603,2.338-.005l10.91-10.045c.212-.195.49-.304.779-.304l320.918-.101c15.329,0,27.871-12.542,27.871-27.871h0c0-15.329-12.542-27.871-27.871-27.871Z"/>
      <g>
        <path class="cls-5" d="m388.916,93.118c.233,11.599-9.583,22.21-22.59,21.903-11.361-.268-21.522-9.45-21.508-22.104.014-12.581,10.427-22.278,22.629-21.994,11.969.279,21.786,10.209,21.47,22.194Z"/>
        <path class="cls-8" d="m367.184,82.955c1.421.066,3.283.498,4.796,1.905,2.464,2.29,2.614,5.317.342,7.812-.823.903-1.728,1.735-2.634,2.558-.847.769-1.497,1.641-1.723,2.78-.285,1.438-1.202,2.017-2.552,1.624-1.294-.377-1.297-1.572-1.154-2.621.299-2.203,1.86-3.593,3.427-4.952.334-.29.717-.537.999-.87,1.487-1.758,1.36-3.4-.321-4.537-1.47-.995-3.897-.403-4.808,1.208-.326.577-.531,1.221-.815,1.823-.524,1.11-1.42,1.65-2.58,1.204-1.144-.44-1.405-1.351-1.1-2.592.769-3.131,3.806-5.339,8.123-5.343Z"/>
        <path class="cls-7" d="m366.158,105.669c-1.271-.012-2.113-.925-2.059-2.258.054-1.311.741-2.044,2.063-2.095,1.32-.051,2.369,1,2.32,2.267-.048,1.226-1.02,2.098-2.324,2.086Z"/>
      </g>
    </g>
    <g>
      <path class="cls-2" d="m111.515,79.342v27.721c0,3.45,2.808,6.244,6.257,6.235,25.312-.061,100.448-.046,125.773-.044,3.444,0,6.242-2.791,6.242-6.235v-27.63c0-3.441-2.787-6.231-6.228-6.235l-125.802-.046c-3.447-.004-6.243,2.789-6.243,6.235Z"/>
      <text class="cls-11" transform="translate(121.894 101.041)"><tspan x="0" y="0">투표한 사람</tspan></text>
      <path class="cls-4" d="m236.208,89.309c1.503,0,3.006-.003,4.509.001.951.003,1.744.288,2.197,1.211.47.958.064,1.702-.534,2.425-1.451,1.754-2.859,3.543-4.343,5.268-1.318,1.533-2.389,1.523-3.72-.029-1.519-1.771-2.972-3.598-4.452-5.402-.521-.635-.812-1.313-.452-2.145.374-.865,1.045-1.293,1.954-1.309,1.614-.027,3.228-.008,4.842-.008v-.013Z"/>
    </g>
    <text class="cls-12" transform="translate(50.257 101.551)"><tspan x="0" y="0">변수</tspan></text>
    <text class="cls-12" transform="translate(265.173 101.551)"><tspan x="0" y="0">숨기기</tspan></text>
  </g>
  <g>
    <g>
      <path class="cls-14" d="m327.781,121.019H46.713s0,0,0,0l-12.543,11.548s0,0,0,0l-12.023-10.98c-.238-.218-.622-.049-.622.274v54.741c0,.047.011.092.028.135h-.003l.004.004c.02.048.048.093.087.13h.056l11.328,10.345c.663.605,1.678.603,2.338-.005l10.91-10.045c.212-.195.49-.304.779-.304l280.732-.101c15.329,0,27.871-12.542,27.871-27.871h0c0-15.329-12.542-27.871-27.871-27.871Z"/>
      <g>
        <path class="cls-5" d="m348.73,148.934c.233,11.599-9.583,22.21-22.59,21.903-11.361-.268-21.522-9.45-21.508-22.104.014-12.581,10.427-22.278,22.629-21.994,11.969.279,21.786,10.209,21.47,22.194Z"/>
        <path class="cls-8" d="m326.998,138.771c1.421.066,3.283.498,4.796,1.905,2.464,2.29,2.614,5.317.342,7.812-.823.903-1.728,1.735-2.634,2.558-.847.769-1.497,1.641-1.723,2.78-.285,1.438-1.202,2.017-2.552,1.624-1.294-.377-1.297-1.572-1.154-2.621.299-2.203,1.86-3.593,3.427-4.952.334-.29.717-.537.999-.87,1.487-1.758,1.36-3.4-.321-4.537-1.47-.995-3.897-.403-4.808,1.208-.326.577-.531,1.221-.815,1.823-.524,1.11-1.42,1.65-2.58,1.204-1.144-.44-1.405-1.351-1.1-2.592.769-3.131,3.806-5.339,8.123-5.343Z"/>
        <path class="cls-7" d="m325.972,161.485c-1.271-.012-2.113-.925-2.059-2.258.054-1.311.741-2.044,2.063-2.095,1.32-.051,2.369,1,2.32,2.267-.048,1.226-1.02,2.098-2.324,2.086Z"/>
      </g>
    </g>
    <g>
      <path class="cls-2" d="m111.515,135.159v27.721c0,3.45,2.808,6.244,6.257,6.235,25.312-.061,60.262-.046,85.588-.044,3.444,0,6.242-2.791,6.242-6.235v-27.63c0-3.441-2.787-6.231-6.228-6.235l-85.617-.046c-3.447-.004-6.243,2.789-6.243,6.235Z"/>
      <text class="cls-11" transform="translate(121.894 156.857)"><tspan x="0" y="0">총 인원</tspan></text>
      <path class="cls-4" d="m196.023,145.125c1.503,0,3.006-.003,4.509.001.951.003,1.744.288,2.197,1.211.47.958.064,1.702-.534,2.425-1.451,1.754-2.859,3.543-4.343,5.268-1.318,1.533-2.389,1.523-3.72-.029-1.519-1.771-2.972-3.598-4.452-5.402-.521-.635-.812-1.313-.452-2.145.374-.865,1.045-1.293,1.954-1.309,1.614-.027,3.228-.008,4.842-.008v-.013Z"/>
    </g>
    <text class="cls-12" transform="translate(50.257 157.367)"><tspan x="0" y="0">변수</tspan></text>
    <text class="cls-12" transform="translate(224.987 157.367)"><tspan x="0" y="0">숨기기</tspan></text>
  </g>
</svg>