<?xml version="1.0" encoding="UTF-8"?>
<svg id="_레이어_1" data-name="레이어 1" xmlns="http://www.w3.org/2000/svg" viewBox="0 0 1088.05 184.561">
  <defs>
    <style>
      .cls-1 {
        fill: #8b19db;
      }

      .cls-1, .cls-2, .cls-3, .cls-4, .cls-5, .cls-6, .cls-7, .cls-8, .cls-9, .cls-10, .cls-11 {
        stroke-width: 0px;
      }

      .cls-2, .cls-12, .cls-13 {
        fill: #fefefe;
      }

      .cls-14 {
        letter-spacing: -.025em;
      }

      .cls-15 {
        fill: #fff;
      }

      .cls-15, .cls-16, .cls-12, .cls-17, .cls-13, .cls-18 {
        font-family: Pretendard-Bold-KSCpc-EUC-H, Pretendard;
        font-weight: 700;
      }

      .cls-15, .cls-16, .cls-17, .cls-18 {
        font-size: 22px;
      }

      .cls-15, .cls-17 {
        letter-spacing: -.025em;
      }

      .cls-3 {
        fill: #c62042;
      }

      .cls-19 {
        fill: #fe3a61;
        stroke: #c62142;
      }

      .cls-19, .cls-20 {
        stroke-linecap: round;
        stroke-linejoin: round;
      }

      .cls-19, .cls-20, .cls-21 {
        stroke-width: 2px;
      }

      .cls-4 {
        fill: #ff7f00;
      }

      .cls-16 {
        letter-spacing: -.01em;
      }

      .cls-12 {
        font-size: 25.605px;
      }

      .cls-5 {
        fill: #bd65fb;
      }

      .cls-22 {
        letter-spacing: -.045em;
      }

      .cls-20 {
        fill: #ad3efb;
        stroke: #8b19db;
      }

      .cls-6 {
        fill: #17a6d1;
      }

      .cls-7 {
        fill: #fedd81;
      }

      .cls-8 {
        fill: #f4af18;
      }

      .cls-13 {
        font-size: 26px;
        letter-spacing: -.025em;
      }

      .cls-9 {
        fill: #fe9b00;
      }

      .cls-21 {
        fill: #19baea;
        stroke: #1498c0;
        stroke-miterlimit: 10;
      }

      .cls-10 {
        fill: #f2f2f2;
      }

      .cls-11 {
        fill: #fe5576;
      }
    </style>
  </defs>
  <g>
    <g>
      <path class="cls-21" d="m21.64,65.053s-5.2-2.719-7.532-4.568c-7.301-5.786-11.647-13.18-12.825-22.461C.212,29.582,2.193,21.879,7.067,15.04,12.681,7.161,20.381,2.463,30.1,1.274c9.447-1.156,17.928,1.343,25.093,7.428,2.309,1.961,4.441,2.392,7.168,2.399,81.918.211,205.238.465,287.156.713,13.081.04,24.448,9.349,26.741,22.14,2.77,15.451-7.86,29.794-23.175,31.684-.205.025-.396.168-.594.256-.891.016-1.782.048-2.673.045-86.874-.26-215.15-.518-302.024-.816-1.521-.005-2.596.406-3.649,1.498-2.976,3.089-6.092,6.042-9.092,9.109-.791.809-1.254.903-2.094.031-3.131-3.25-6.346-6.419-9.533-9.615-.505-.507-1.787-1.095-1.787-1.095Z"/>
      <g>
        <path class="cls-2" d="m34.019,61.097c-14.926-.048-27.038-12.21-26.999-27.111.038-14.888,12.218-27,27.15-27h.125c14.9.067,26.976,12.266,26.917,27.193-.058,14.842-12.216,26.917-27.103,26.917h-.091Z"/>
        <path class="cls-10" d="m34.17,7.986h0,.12c14.349.064,25.978,11.813,25.922,26.189-.056,14.293-11.765,25.922-26.103,25.922h-.087c-14.375-.047-26.04-11.759-26.003-26.109.037-14.337,11.768-26.001,26.151-26.002m0-2c-15.526.001-28.111,12.502-28.151,27.997-.04,15.453,12.517,28.063,27.997,28.114.032,0,.062,0,.094,0,15.444,0,28.042-12.503,28.103-27.914.06-15.477-12.463-28.128-27.913-28.197-.044,0-.086,0-.129,0h0Z"/>
      </g>
      <text class="cls-12" transform="translate(73.232 46.159) rotate(.173)"><tspan x="0" y="0">복제본이 처음 생성되었을 때</tspan></text>
    </g>
    <g>
      <path class="cls-6" d="m40.648,26.59c0-3.646-2.987-6.594-6.648-6.531-3.55.061-6.487,3.116-6.415,6.665.039,1.91.9,3.616,2.241,4.784.647.564,1.193,1.235,1.51,2.033l.179.452h5.202l.23-.58c.288-.726.786-1.336,1.383-1.84,1.417-1.197,2.319-2.983,2.319-4.984Z"/>
      <path class="cls-6" d="m41.193,39.171h-3.883v-2.081h-6.387v2.081h-3.883c-3.033,0-5.492,2.459-5.492,5.492h25.137c0-3.033-2.459-5.492-5.492-5.492Z"/>
      <path class="cls-6" d="m24.765,48.025h18.702c1.256,0,2.274-1.018,2.274-2.274h-23.25c0,1.256,1.018,2.274,2.274,2.274Z"/>
    </g>
  </g>
  <g>
    <g>
      <path class="cls-19" d="m650.102,64.796H46.592l-12.543,11.141-12.024-10.593c-.238-.21-.622-.047-.622.265v52.811c0,.098.042.191.115.259l12.53,11.113,12.543-11.219h603.511c15.329,0,27.871-12.1,27.871-26.888h0c0-14.789-12.542-26.888-27.871-26.888Z"/>
      <g>
        <path class="cls-3" d="m625.817,92.19c.085-12.114,9.79-22.01,22.342-21.937,12.159.071,22.178,9.883,21.961,22.471-.203,11.764-9.754,21.773-22.498,21.598-12.042-.166-21.794-9.762-21.805-22.132Z"/>
        <path class="cls-11" d="m648.717,93.627c2.854.024,5.612,2.731,5.624,5.52.014,3.13-2.722,5.849-5.866,5.829-3.016-.018-5.566-2.746-5.533-5.919.031-3.007,2.636-5.457,5.775-5.43Z"/>
        <rect class="cls-11" x="651.105" y="84.012" width="9.448" height="9.448" transform="translate(254.833 -437.751) rotate(45)"/>
        <polygon class="cls-11" points="646.948 91.691 646.948 85.258 641.377 82.042 635.806 85.258 635.806 91.691 641.377 94.907 646.948 91.691"/>
      </g>
    </g>
    <text class="cls-13" transform="translate(47.683 100.25)"><tspan x="0" y="0">크기를</tspan></text>
    <text class="cls-13" transform="translate(481.392 99.25)"><tspan x="0" y="0">(으)로 정하기</tspan></text>
    <g>
      <g>
        <path class="cls-8" d="m146.952,111.53c-10.975,0-19.903-8.929-19.903-19.903s8.929-19.903,19.903-19.903h303.452c10.975,0,19.903,8.929,19.903,19.903s-8.929,19.903-19.903,19.903H146.952Z"/>
        <path class="cls-4" d="m450.405,72.724c10.423,0,18.903,8.48,18.903,18.903s-8.48,18.903-18.903,18.903H146.953c-10.423,0-18.903-8.48-18.903-18.903s8.48-18.903,18.903-18.903h303.452m0-2H146.953c-11.497,0-20.903,9.406-20.903,20.903h0c0,11.497,9.406,20.903,20.903,20.903h303.452c11.497,0,20.903-9.406,20.903-20.903h0c0-11.497-9.406-20.903-20.903-20.903h0Z"/>
      </g>
      <text class="cls-15" transform="translate(202.333 97.69)"><tspan x="0" y="0">부터</tspan></text>
      <text class="cls-15" transform="translate(315.252 97.69)"><tspan x="0" y="0" xml:space="preserve">사이의 무작위  수</tspan></text>
      <g>
        <g>
          <path class="cls-7" d="m272.336,111.53c-10.975,0-19.903-8.929-19.903-19.903s8.929-19.903,19.903-19.903h12.756c10.975,0,19.903,8.929,19.903,19.903s-8.929,19.903-19.903,19.903h-12.756Z"/>
          <path class="cls-9" d="m285.092,72.724c10.423,0,18.903,8.48,18.903,18.903s-8.48,18.903-18.903,18.903h-12.756c-10.423,0-18.903-8.48-18.903-18.903s8.48-18.903,18.903-18.903h12.756m0-2h-12.756c-11.497,0-20.903,9.406-20.903,20.903h0c0,11.497,9.406,20.903,20.903,20.903h12.756c11.497,0,20.903-9.406,20.903-20.903h0c0-11.497-9.406-20.903-20.903-20.903h0Z"/>
        </g>
        <text class="cls-16" transform="translate(265.873 98.69)"><tspan x="0" y="0">20</tspan></text>
      </g>
      <g>
        <g>
          <path class="cls-7" d="m160.653,111.53c-10.975,0-19.903-8.929-19.903-19.903s8.929-19.903,19.903-19.903h10.968c10.975,0,19.902,8.929,19.902,19.903s-8.928,19.903-19.902,19.903h-10.968Z"/>
          <path class="cls-9" d="m171.621,72.724c10.423,0,18.903,8.48,18.903,18.903s-8.48,18.903-18.903,18.903h-10.968c-10.423,0-18.903-8.48-18.903-18.903s8.48-18.903,18.903-18.903h10.968m0-2h-10.968c-11.497,0-20.903,9.406-20.903,20.903h0c0,11.497,9.406,20.903,20.903,20.903h10.968c11.497,0,20.903-9.406,20.903-20.903h0c0-11.497-9.406-20.903-20.903-20.903h0Z"/>
        </g>
        <text class="cls-17" transform="translate(154.401 98.69)"><tspan x="0" y="0">10</tspan></text>
      </g>
    </g>
  </g>
  <g>
    <path class="cls-20" d="m1059.179,118.565H46.592l-12.543,11.141-12.024-10.593c-.238-.21-.622-.047-.622.265v52.811c0,.098.042.191.115.259l12.53,11.113,12.543-11.219h1012.587c15.329,0,27.871-12.1,27.871-26.888h0c0-14.789-12.542-26.888-27.871-26.888Z"/>
    <text class="cls-13" transform="translate(47.683 154.019)"><tspan x="0" y="0">x:</tspan></text>
    <text class="cls-13" transform="translate(466.263 154.019)"><tspan x="0" y="0">y:</tspan></text>
    <text class="cls-13" transform="translate(865.231 154.019)"><tspan x="0" y="0">위치로 이동하기</tspan></text>
    <g>
      <g>
        <path class="cls-8" d="m99.707,165.336c-10.975,0-19.903-8.929-19.903-19.903s8.929-19.903,19.903-19.903h333.559c10.975,0,19.903,8.929,19.903,19.903s-8.929,19.903-19.903,19.903H99.707Z"/>
        <path class="cls-4" d="m433.265,126.53c10.423,0,18.903,8.48,18.903,18.903s-8.48,18.903-18.903,18.903H99.707c-10.423,0-18.903-8.48-18.903-18.903s8.48-18.903,18.903-18.903h333.559m0-2H99.707c-11.497,0-20.903,9.406-20.903,20.903h0c0,11.497,9.406,20.903,20.903,20.903h333.559c11.497,0,20.903-9.406,20.903-20.903h0c0-11.497-9.406-20.903-20.903-20.903h0Z"/>
      </g>
      <text class="cls-15" transform="translate(170.149 151.496)"><tspan x="0" y="0">부터</tspan></text>
      <text class="cls-15" transform="translate(298.113 151.497)"><tspan x="0" y="0" xml:space="preserve">사이의 무작위  수</tspan></text>
      <g>
        <g>
          <path class="cls-7" d="m240.152,165.336c-10.975,0-19.903-8.929-19.903-19.903s8.929-19.903,19.903-19.903h27.801c10.975,0,19.903,8.929,19.903,19.903s-8.929,19.903-19.903,19.903h-27.801Z"/>
          <path class="cls-9" d="m267.953,126.53c10.423,0,18.903,8.48,18.903,18.903s-8.48,18.903-18.903,18.903h-27.801c-10.423,0-18.903-8.48-18.903-18.903s8.48-18.903,18.903-18.903h27.801m0-2h-27.801c-11.497,0-20.903,9.406-20.903,20.903h0c0,11.497,9.406,20.903,20.903,20.903h27.801c11.497,0,20.903-9.406,20.903-20.903h0c0-11.497-9.406-20.903-20.903-20.903h0Z"/>
        </g>
        <text class="cls-16" transform="translate(233.689 152.496)"><tspan x="0" y="0">230</tspan></text>
      </g>
      <g>
        <g>
          <path class="cls-7" d="m113.407,165.336c-10.975,0-19.903-8.929-19.903-19.903s8.929-19.903,19.903-19.903h26.029c10.975,0,19.903,8.929,19.903,19.903s-8.929,19.903-19.903,19.903h-26.029Z"/>
          <path class="cls-9" d="m139.437,126.53c10.423,0,18.903,8.48,18.903,18.903s-8.48,18.903-18.903,18.903h-26.03c-10.423,0-18.903-8.48-18.903-18.903s8.48-18.903,18.903-18.903h26.03m0-2h-26.03c-11.497,0-20.903,9.406-20.903,20.903h0c0,11.497,9.406,20.903,20.903,20.903h26.03c11.497,0,20.903-9.406,20.903-20.903h0c0-11.497-9.406-20.903-20.903-20.903h0Z"/>
        </g>
        <text class="cls-18" transform="translate(101.056 152.496)"><tspan class="cls-22" x="0" y="0">-</tspan><tspan class="cls-14" x="8.882" y="0">230</tspan></text>
      </g>
    </g>
    <g>
      <g>
        <path class="cls-8" d="m519.836,165.336c-10.975,0-19.903-8.929-19.903-19.903s8.929-19.903,19.903-19.903h309.35c10.975,0,19.903,8.929,19.903,19.903s-8.929,19.903-19.903,19.903h-309.35Z"/>
        <path class="cls-4" d="m829.186,126.53c10.423,0,18.903,8.48,18.903,18.903s-8.48,18.903-18.903,18.903h-309.35c-10.423,0-18.903-8.48-18.903-18.903s8.48-18.903,18.903-18.903h309.35m0-2h-309.35c-11.497,0-20.903,9.406-20.903,20.903h0c0,11.497,9.406,20.903,20.903,20.903h309.35c11.497,0,20.903-9.406,20.903-20.903h0c0-11.497-9.406-20.903-20.903-20.903h0Z"/>
      </g>
      <text class="cls-15" transform="translate(566.069 151.496)"><tspan x="0" y="0">부터</tspan></text>
      <text class="cls-15" transform="translate(694.033 151.497)"><tspan x="0" y="0" xml:space="preserve">사이의 무작위  수</tspan></text>
      <g>
        <g>
          <path class="cls-7" d="m636.072,165.336c-10.975,0-19.903-8.929-19.903-19.903s8.929-19.903,19.903-19.903h27.802c10.975,0,19.902,8.929,19.902,19.903s-8.928,19.903-19.902,19.903h-27.802Z"/>
          <path class="cls-9" d="m663.874,126.53c10.423,0,18.903,8.48,18.903,18.903s-8.48,18.903-18.903,18.903h-27.801c-10.423,0-18.903-8.48-18.903-18.903s8.48-18.903,18.903-18.903h27.801m0-2h-27.801c-11.497,0-20.903,9.406-20.903,20.903h0c0,11.497,9.406,20.903,20.903,20.903h27.801c11.497,0,20.903-9.406,20.903-20.903h0c0-11.497-9.406-20.903-20.903-20.903h0Z"/>
        </g>
        <text class="cls-16" transform="translate(629.609 152.496)"><tspan x="0" y="0">150</tspan></text>
      </g>
      <g>
        <g>
          <circle class="cls-7" cx="533.536" cy="145.433" r="19.903"/>
          <path class="cls-9" d="m533.536,126.53c10.423,0,18.903,8.48,18.903,18.903s-8.48,18.903-18.903,18.903-18.903-8.48-18.903-18.903,8.48-18.903,18.903-18.903m0-2h0c-11.497,0-20.903,9.406-20.903,20.903h0c0,11.497,9.406,20.903,20.903,20.903h0c11.497,0,20.903-9.406,20.903-20.903h0c0-11.497-9.406-20.903-20.903-20.903h0Z"/>
        </g>
        <text class="cls-17" transform="translate(525.83 152.496)"><tspan x="0" y="0">0</tspan></text>
      </g>
    </g>
    <g>
      <path class="cls-1" d="m1035.813,145.335c.085-12.114,9.79-22.01,22.342-21.937,12.159.071,22.178,9.883,21.961,22.471-.203,11.764-9.754,21.773-22.498,21.598-12.042-.166-21.794-9.762-21.805-22.132Z"/>
      <g>
        <path class="cls-5" d="m1069.92,139.865l-5.089-3.84c-.502-.379-1.222-.021-1.222.609v1.614l-8.892-.884c-.449-.045-.838.308-.838.759v4.703c0,.451.389.803.838.759l8.892-.884v1.614c0,.629.719.988,1.222.609l5.089-3.84c.404-.305.404-.912,0-1.217Z"/>
        <path class="cls-5" d="m1046.011,151.002l5.089,3.84c.502.379,1.222.021,1.222-.609v-1.614l8.892.884c.449.045.838-.308.838-.759v-4.703c0-.451-.389-.803-.838-.759l-8.892.884v-1.614c0-.629-.719-.988-1.222-.609l-5.089,3.84c-.404.305-.404.912,0,1.217Z"/>
      </g>
    </g>
  </g>
</svg>