<?xml version="1.0" encoding="UTF-8"?>
<svg id="_레이어_1" data-name="레이어 1" xmlns="http://www.w3.org/2000/svg" viewBox="0 0 115 105">
  <defs>
    <style>
      .cls-1 {
        fill: #fff;
      }

      .cls-1, .cls-2 {
        stroke-width: 0px;
      }

      .cls-2 {
        fill: #17a6d1;
      }

      .cls-3 {
        fill: #fefefe;
        font-family: Pretendard-Bold-KSCpc-EUC-H, Pretendard;
        font-size: 26px;
        font-weight: 700;
        letter-spacing: -.025em;
      }
    </style>
  </defs>
  <rect class="cls-2" width="115" height="105"/>
  <text class="cls-3" transform="translate(35.679 93.533)"><tspan x="0" y="0">흐름</tspan></text>
  <path class="cls-1" d="m69.879,45.557c-.145,0-.282.033-.424.043l-7.132-10.773c.985-1.358,1.435-3.129.949-5.028-.541-2.113-2.284-3.813-4.414-4.282-3.887-.856-7.325,2.08-7.325,5.819,0,1.308.433,2.507,1.146,3.49l-7.132,10.773c-.143-.01-.279-.043-.424-.043-3.755,0-6.7,3.467-5.808,7.375.492,2.157,2.244,3.909,4.401,4.401,3.907.892,7.375-2.053,7.375-5.808,0-1.756-.773-3.32-1.98-4.412l6.679-10.088c.546.164,1.113.279,1.712.279s1.166-.115,1.712-.279l6.679,10.088c-1.543,1.396-2.376,3.561-1.794,5.915.523,2.116,2.256,3.823,4.382,4.306,3.905.888,7.369-2.056,7.369-5.809,0-3.296-2.672-5.968-5.968-5.968Z"/>
</svg>