<?xml version="1.0" encoding="UTF-8"?>
<svg id="_레이어_1" data-name="레이어 1" xmlns="http://www.w3.org/2000/svg" viewBox="0 0 256.382 41.806">
  <defs>
    <style>
      .cls-1 {
        fill: #fff;
        letter-spacing: -.025em;
      }

      .cls-1, .cls-2 {
        font-family: Pretendard-Bold-KSCpc-EUC-H, Pretendard;
        font-size: 22px;
        font-weight: 700;
      }

      .cls-3 {
        fill: #fefdfe;
      }

      .cls-3, .cls-4, .cls-5 {
        stroke-width: 0px;
      }

      .cls-4 {
        fill: #1b3ad8;
      }

      .cls-2 {
        fill: #fefefe;
      }

      .cls-5 {
        fill: #4562f5;
      }
    </style>
  </defs>
  <g>
    <polygon class="cls-5" points="16.795 40.807 1.268 20.903 16.795 1 239.587 1 255.114 20.903 239.587 40.807 16.795 40.807"/>
    <path class="cls-4" d="m239.099,2l14.746,18.903-14.746,18.903H17.283L2.537,20.903,17.283,2h221.816m.976-2H16.307L0,20.903l16.307,20.903h223.769l16.306-20.903L240.076,0h0Z"/>
  </g>
  <rect class="cls-4" x="81.352" y="1.097" width="93.677" height="39.613" rx="3.355" ry="3.355"/>
  <g>
    <g>
      <g>
        <polygon class="cls-5" points="35.854 40.807 20.327 20.903 35.854 1 55.299 1 70.826 20.903 55.299 40.807 35.854 40.807"/>
        <path class="cls-4" d="m54.811,2l14.746,18.903-14.746,18.903h-18.47l-14.746-18.903L36.342,2h18.47m.976-2h-20.422l-16.306,20.903,16.306,20.903h20.422l16.306-20.903L55.788,0h0Z"/>
      </g>
      <text class="cls-2" transform="translate(36.144 26.74)"><tspan x="0" y="0">참</tspan></text>
    </g>
    <g>
      <g>
        <polygon class="cls-5" points="201.083 40.807 185.556 20.903 201.083 1 220.529 1 236.055 20.903 220.529 40.807 201.083 40.807"/>
        <path class="cls-4" d="m220.041,2l14.746,18.903-14.746,18.903h-18.47l-14.746-18.903,14.746-18.903h18.47m.976-2h-20.422l-16.306,20.903,16.306,20.903h20.422l16.306-20.903L221.017,0h0Z"/>
      </g>
      <text class="cls-2" transform="translate(201.373 26.74)"><tspan x="0" y="0">참</tspan></text>
    </g>
    <g>
      <text class="cls-1" transform="translate(89.682 27.966)"><tspan x="0" y="0">그리고</tspan></text>
      <path class="cls-3" d="m157.862,16.225c1.503,0,3.006-.003,4.509.001.951.003,1.744.288,2.197,1.211.47.958.064,1.702-.534,2.425-1.451,1.754-2.859,3.543-4.343,5.268-1.318,1.533-2.389,1.523-3.72-.029-1.519-1.771-2.972-3.598-4.452-5.402-.521-.635-.812-1.313-.452-2.145.374-.865,1.045-1.293,1.954-1.309,1.614-.027,3.228-.008,4.842-.008v-.013Z"/>
    </g>
  </g>
</svg>