<?xml version="1.0" encoding="UTF-8"?>
<svg id="_레이어_2" data-name="레이어 2" xmlns="http://www.w3.org/2000/svg" viewBox="0 0 426.775 205.478">
  <defs>
    <style>
      .cls-1 {
        fill: #575e75;
      }

      .cls-1, .cls-2 {
        stroke-width: 0px;
      }

      .cls-2, .cls-3 {
        fill: #fff;
      }

      .cls-4 {
        fill: #1e90ff;
        stroke: #176cbf;
      }

      .cls-4, .cls-5, .cls-3, .cls-6 {
        stroke-miterlimit: 10;
      }

      .cls-4, .cls-3, .cls-6 {
        stroke-width: 1.5px;
      }

      .cls-5 {
        stroke-width: 1.582px;
      }

      .cls-5, .cls-6 {
        fill: #dc143c;
        stroke: #a50f2d;
      }

      .cls-3 {
        stroke: #bfbfbf;
      }
    </style>
  </defs>
  <path class="cls-4" d="m84.158,166.903h-21.05c-1.723,0-3.364-.74-4.505-2.031l-8.586-9.72c-1.141-1.292-2.781-2.031-4.505-2.031h-13.331c-3.32,0-6.011-2.691-6.011-6.011v-63.934c0-3.32,2.691-6.011,6.011-6.011h13.331c1.723,0,3.364.74,4.505,2.031l8.586,9.72c1.141,1.292,2.781,2.031,4.505,2.031h21.05c1.691,0,3.304-.712,4.443-1.963l8.981-9.857c1.139-1.25,2.752-1.963,4.443-1.963h165.297c3.32,0,6.011-2.691,6.011-6.011V6.761c0-3.32-2.691-6.011-6.011-6.011H6.761C3.441.75.75,3.441.75,6.761v191.956c0,3.32,2.691,6.011,6.011,6.011h260.561c3.32,0,6.011-2.691,6.011-6.011v-39.586c0-3.32-2.691-6.011-6.011-6.011H102.025c-1.691,0-3.304.712-4.443,1.963l-8.981,9.857c-1.139,1.25-2.752,1.963-4.443,1.963Z"/>
  <path class="cls-5" d="m97.429,79.128l-8.981,9.857c-1.139,1.25-2.752,1.963-4.443,1.963h-21.05c-1.723,0-3.364-.74-4.505-2.031l-8.586-9.72c-1.141-1.292-2.781-2.031-4.505-2.031h-13.331c-3.32,0-6.011,2.691-6.011,6.011v63.934c0,3.32,2.691,6.011,6.011,6.011h13.331c1.723,0,3.364.74,4.505,2.031l8.586,9.72c1.141,1.292,2.781,2.031,4.505,2.031h21.05c1.691,0,3.304-.712,4.443-1.963l8.981-9.857c1.139-1.25,2.752-1.963,4.443-1.963h318.102c3.32,0,6.011-2.691,6.011-6.011v-63.934c0-3.32-2.691-6.011-6.011-6.011H101.872c-1.691,0-3.304.712-4.443,1.963Z"/>
  <rect class="cls-6" x="101.59" y="88.957" width="110.488" height="50.382" rx="5.743" ry="5.743"/>
  <rect class="cls-3" x="263.175" y="89.443" width="80.167" height="50.382" rx="25.191" ry="25.191"/>
  <g>
    <path class="cls-2" d="m22.543,44.145l-1.594-1.414c1.045-.754,2.014-1.62,2.906-2.597.891-.977,1.646-2.096,2.263-3.356.617-1.26,1.076-2.678,1.376-4.256.3-1.577.381-3.334.245-5.271h2.34c.034,1.131,0,2.203-.103,3.214-.103,1.012-.248,1.98-.437,2.906.617,1.766,1.491,3.381,2.623,4.847s2.477,2.722,4.037,3.767l-1.44,1.646c-1.286-.908-2.439-1.984-3.459-3.227-1.02-1.243-1.89-2.644-2.61-4.204-.652,1.68-1.496,3.176-2.533,4.487-1.037,1.311-2.241,2.465-3.613,3.459Zm16.251-18.334h2.212v23.477h-2.212v-23.477Z"/>
    <path class="cls-2" d="m57.206,32.676c.651.823,1.444,1.586,2.379,2.289.934.703,1.83,1.286,2.687,1.749l-1.44,1.62c-.874-.514-1.732-1.123-2.571-1.826-.84-.703-1.611-1.474-2.314-2.314-.566.617-1.174,1.196-1.826,1.736-.652.54-1.303,1.025-1.954,1.453-.652.429-1.299.81-1.942,1.144-.643.334-1.247.604-1.813.81l-1.44-1.62c1.148-.411,2.254-.943,3.317-1.594,1.063-.651,2.031-1.371,2.906-2.16.874-.788,1.624-1.628,2.25-2.52.625-.891,1.058-1.8,1.298-2.726-.96.035-1.907.056-2.841.064-.935.009-1.873.013-2.816.013h-2.7v-1.903h7.599c1.123,0,2.284-.017,3.484-.051-.086,1.08-.33,2.105-.733,3.073-.403.969-.913,1.89-1.53,2.764Zm6.197,16.689v-6.557h-12.703v-1.903h14.914v8.46h-2.212Zm5.914-15.866h-3.703v6.069h-2.212v-13.783h2.212v5.734h3.703v1.98Z"/>
    <path class="cls-2" d="m72.711,32.573v-1.98h14.297v1.98h-14.297Zm1.543,6.557c0-.737.141-1.423.424-2.057.283-.634.677-1.183,1.183-1.646.505-.463,1.106-.827,1.8-1.093.694-.266,1.444-.399,2.25-.399s1.551.133,2.237.399c.685.266,1.281.63,1.787,1.093.505.463.9,1.012,1.183,1.646.283.634.425,1.32.425,2.057,0,.755-.142,1.449-.425,2.083-.283.635-.677,1.183-1.183,1.646-.506.463-1.102.823-1.787,1.08-.686.257-1.432.386-2.237.386s-1.556-.129-2.25-.386-1.295-.617-1.8-1.08c-.506-.463-.9-1.011-1.183-1.646-.283-.634-.424-1.328-.424-2.083Zm1.697-10.389v-1.98h7.843v1.98h-7.843Zm.514,10.414c0,.48.085.922.257,1.324.171.403.411.75.72,1.042.309.292.673.519,1.093.681.42.163.878.244,1.376.244.48,0,.93-.081,1.35-.244.42-.163.784-.39,1.093-.681.309-.291.549-.638.72-1.042.171-.403.257-.844.257-1.324s-.086-.921-.257-1.324c-.172-.403-.411-.754-.72-1.054-.309-.3-.673-.531-1.093-.694-.42-.163-.87-.244-1.35-.244-.498,0-.956.082-1.376.244-.42.163-.784.394-1.093.694-.309.3-.549.652-.72,1.054-.172.403-.257.845-.257,1.324Zm18.72-1.646h-3.986v11.7h-2.211v-23.4h2.211v9.797h3.986v1.903Z"/>
    <path class="cls-2" d="m110.846,29.41h5.091v-3.6h2.212v16.92h-2.212v-6.608h-5.091v2.571h-10.852v-11.649h10.852v2.366Zm-2.109,7.38v-7.869h-6.48v7.869h6.48Zm9.926,12.034h-15.197v-6.994h2.263v5.066h12.934v1.929Zm-7.817-14.58h5.117v-2.983h-5.117v2.983Z"/>
  </g>
  <g>
    <path class="cls-2" d="m137.169,111.946v1.903h-22.372v-1.903h22.372Zm-10.208-7.586c.36.497.852.973,1.478,1.427.626.455,1.32.862,2.083,1.222.763.36,1.565.673,2.405.939.84.266,1.654.45,2.442.553l-1.157,1.749c-.84-.154-1.655-.377-2.443-.669-.789-.291-1.538-.626-2.25-1.003-.712-.377-1.38-.788-2.006-1.234-.626-.446-1.178-.908-1.658-1.388-.498.549-1.063,1.067-1.698,1.556-.634.489-1.311.926-2.031,1.312-.72.386-1.462.72-2.224,1.003-.763.283-1.514.485-2.25.604l-1.132-1.697c1.217-.206,2.357-.531,3.42-.977,1.063-.446,1.989-.977,2.778-1.594.788-.617,1.405-1.299,1.851-2.044.446-.746.66-1.513.643-2.302h2.366c.034.446-.005.879-.116,1.299-.112.42-.279.836-.501,1.247Zm-8.409,20.571v-9.257h2.211v2.803h10.697v-2.803h2.211v9.257h-15.12Zm12.934-4.628h-10.748v2.726h10.748v-2.726Z"/>
    <path class="cls-2" d="m144.421,114.775v-10.929h14.683v1.929h-12.42v7.071h12.651v1.929h-6.351v5.143h9.643v1.877h-21.857v-1.877h9.952v-5.143h-6.3Z"/>
  </g>
  <g>
    <path class="cls-1" d="m289.532,123.309c-.977,0-1.856-.099-2.636-.296-.78-.197-1.504-.467-2.173-.81v-2.391h.308c.325.189.681.356,1.067.501.386.146.78.266,1.183.36.403.094.797.163,1.183.206.386.043.741.064,1.067.064.428,0,.831-.073,1.208-.218.377-.145.703-.338.977-.579.274-.24.488-.527.643-.862.155-.334.231-.698.231-1.093,0-2.074-1.097-3.112-3.291-3.112h-1.672v-2.186h1.466c.446-.017.857-.077,1.235-.18.376-.103.707-.266.99-.489.283-.223.501-.51.656-.862.154-.351.231-.793.231-1.324,0-.428-.069-.797-.206-1.106-.138-.308-.321-.566-.553-.771-.231-.206-.493-.356-.784-.45-.291-.094-.6-.141-.926-.141-.257,0-.557.022-.9.064-.343.043-.698.107-1.067.193-.369.086-.732.193-1.093.321-.36.129-.678.279-.951.45h-.309v-2.186c1.235-.788,2.64-1.183,4.217-1.183.72,0,1.415.086,2.083.257.668.172,1.256.446,1.762.823.505.377.908.866,1.208,1.466.3.6.45,1.32.45,2.16,0,.909-.24,1.706-.72,2.391-.48.686-1.063,1.209-1.749,1.569.772.343,1.436.857,1.993,1.543.557.686.836,1.577.836,2.674,0,.84-.15,1.581-.45,2.224-.301.643-.716,1.183-1.247,1.62-.532.437-1.162.771-1.891,1.003s-1.521.347-2.378.347Z"/>
    <path class="cls-1" d="m299.174,123.001v-2.391h3.317c0-2.074-.005-4.058-.012-5.953-.009-1.894-.013-3.879-.013-5.953-.24.154-.518.318-.836.489-.318.172-.643.339-.977.501-.335.163-.661.318-.977.463-.318.146-.587.27-.81.373h-.386v-2.443c.806-.36,1.595-.762,2.366-1.208.772-.446,1.371-.883,1.8-1.311h2.649v15.043h3.137v2.391h-9.257Z"/>
    <path class="cls-1" d="m315.863,105.284c1.766,0,3.12.737,4.063,2.212.943,1.474,1.414,3.78,1.414,6.917,0,1.594-.12,2.953-.36,4.076-.24,1.123-.596,2.044-1.067,2.764s-1.045,1.247-1.722,1.581c-.678.334-1.453.501-2.327.501-.909,0-1.701-.167-2.379-.501-.677-.334-1.247-.862-1.71-1.581s-.81-1.641-1.042-2.764c-.231-1.123-.347-2.482-.347-4.076,0-3.137.463-5.443,1.388-6.917.926-1.474,2.289-2.212,4.089-2.212Zm0,2.263c-.875,0-1.565.57-2.07,1.71-.506,1.14-.733,2.885-.681,5.233.017.395.029.772.039,1.132.008.36.029.694.064,1.003l4.706-7.354c-.429-1.148-1.114-1.723-2.057-1.723Zm-.026,13.603c.515,0,.947-.124,1.299-.373.352-.248.63-.643.836-1.183.206-.54.355-1.234.45-2.083s.141-1.864.141-3.047c0-.463-.008-.896-.025-1.298-.017-.403-.043-.793-.077-1.17l-4.731,7.431c.376,1.149,1.079,1.723,2.108,1.723Z"/>
  </g>
  <g>
    <path class="cls-2" d="m371.631,111.921c.737,1.131,1.594,2.237,2.571,3.317.977,1.08,2.04,2.032,3.188,2.854l-1.646,1.594c-1.028-.788-1.976-1.68-2.841-2.674-.866-.994-1.676-2.057-2.43-3.189-.943,1.389-2.005,2.649-3.188,3.78s-2.443,2.083-3.78,2.854l-1.569-1.491c1.371-.737,2.614-1.654,3.728-2.751,1.114-1.097,2.078-2.254,2.893-3.472.814-1.217,1.466-2.443,1.954-3.677.489-1.234.784-2.366.887-3.394-.977.035-1.933.056-2.867.064-.935.009-1.881.013-2.841.013h-2.417v-1.877h7.226c1.132,0,2.306-.017,3.523-.051-.051,1.388-.283,2.764-.694,4.127-.411,1.363-.977,2.687-1.697,3.973Zm2.931.334v-1.929h4.68v-8.511h2.212v23.477h-2.212v-13.037h-4.68Z"/>
    <path class="cls-2" d="m397.859,108.655c.651.823,1.444,1.586,2.379,2.289.934.703,1.83,1.286,2.687,1.749l-1.44,1.62c-.874-.514-1.732-1.123-2.571-1.826-.84-.703-1.612-1.474-2.315-2.314-.566.617-1.174,1.196-1.825,1.736-.652.54-1.303,1.025-1.954,1.453-.652.429-1.298.81-1.941,1.144-.643.334-1.247.604-1.813.81l-1.44-1.62c1.148-.411,2.254-.943,3.317-1.594,1.063-.651,2.023-1.371,2.88-2.16.857-.788,1.594-1.628,2.211-2.52.617-.891,1.045-1.8,1.286-2.726-.96.035-1.907.056-2.841.064-.935.009-1.873.013-2.816.013h-2.623v-1.903h7.598c1.123,0,2.284-.017,3.484-.051-.086,1.08-.33,2.105-.733,3.073-.403.969-.913,1.89-1.53,2.764Zm8.46,12.214c0,.669-.158,1.286-.475,1.851-.317.566-.796,1.054-1.438,1.466-.642.411-1.438.733-2.388.964s-2.049.347-3.298.347c-1.266,0-2.371-.116-3.312-.347-.941-.231-1.733-.553-2.374-.964-.642-.411-1.121-.9-1.438-1.466-.316-.566-.475-1.183-.475-1.851,0-1.337.633-2.426,1.9-3.266,1.266-.84,3.166-1.26,5.699-1.26s4.432.42,5.699,1.26c1.266.84,1.9,1.929,1.9,3.266Zm-2.314.052c0-.377-.103-.728-.309-1.054-.206-.325-.527-.608-.964-.849-.437-.24-.986-.428-1.646-.566-.66-.137-1.453-.206-2.379-.206-1.817,0-3.159.257-4.024.772-.866.514-1.299,1.149-1.299,1.903s.433,1.388,1.299,1.903c.865.514,2.207.772,4.024.772,1.834,0,3.176-.257,4.024-.772.848-.514,1.273-1.148,1.273-1.903Zm5.76-11.443h-3.703v6.634h-2.212v-14.323h2.212v5.709h3.703v1.98Z"/>
  </g>
  <path class="cls-2" d="m240.341,102.072h2.211v22.629h-2.211v-12.703h-2.546c-.051,2.589-.514,4.551-1.388,5.888-.874,1.337-2.066,2.006-3.574,2.006s-2.7-.707-3.574-2.121-1.311-3.475-1.311-6.184.437-4.77,1.311-6.184c.874-1.414,2.066-2.122,3.574-2.122,1.388,0,2.511.575,3.369,1.723.857,1.149,1.371,2.837,1.543,5.066h2.597v-7.997Zm-4.706,9.514c0-.943-.051-1.808-.154-2.597s-.266-1.466-.489-2.032c-.223-.566-.514-1.003-.874-1.311s-.797-.463-1.311-.463c-.498,0-.918.154-1.26.463-.343.309-.617.746-.823,1.311-.206.566-.356,1.243-.45,2.032s-.141,1.654-.141,2.597.047,1.809.141,2.597.245,1.466.45,2.031c.206.566.48,1.003.823,1.312.343.308.763.463,1.26.463.514,0,.951-.155,1.311-.463.36-.309.651-.746.874-1.312.223-.566.386-1.243.489-2.031s.154-1.654.154-2.597Zm11.7,13.706h-2.211v-23.477h2.211v23.477Z"/>
  <path class="cls-2" d="m187.396,118.693l-6.78-6.353c-.801-.75-.27-2.093.827-2.093h13.56c1.097,0,1.628,1.343.827,2.093l-6.78,6.353c-.465.436-1.189.436-1.655,0Z"/>
</svg>