<?xml version="1.0" encoding="UTF-8"?>
<svg id="_레이어_2" data-name="레이어 2" xmlns="http://www.w3.org/2000/svg" viewBox="0 0 311.638 117.218">
  <defs>
    <style>
      .cls-1 {
        fill: #1874cd;
      }

      .cls-1, .cls-2, .cls-3 {
        stroke-width: 0px;
      }

      .cls-2, .cls-4 {
        fill: #fff;
      }

      .cls-4 {
        font-family: D2Coding, D2Coding;
        font-size: 26.581px;
      }

      .cls-5 {
        fill: #1e90ff;
        stroke: #176cbf;
        stroke-miterlimit: 10;
        stroke-width: 1.5px;
      }

      .cls-3 {
        fill: #1e85e9;
      }
    </style>
  </defs>
  <path class="cls-5" d="m76.604.75c-1.691,0-3.304.712-4.443,1.962l-8.981,9.857c-1.139,1.25-2.752,1.963-4.443,1.963h-21.051c-1.723,0-3.364-.74-4.505-2.031L24.596,2.781c-1.141-1.292-2.781-2.031-4.505-2.031H6.761C3.441.75.75,3.441.75,6.761v89.914c0,3.32,2.691,6.011,6.011,6.011h13.331c1.723,0,3.364.74,4.505,2.031l8.586,9.72c1.141,1.292,2.781,2.031,4.505,2.031h21.051c1.691,0,3.304-.712,4.443-1.963l8.981-9.857c1.139-1.25,2.752-1.962,4.443-1.962h228.573c3.154,0,5.711-2.557,5.711-5.711V6.461c0-3.154-2.557-5.711-5.711-5.711H76.604Z"/>
  <text class="cls-4" transform="translate(15.87 58.734)"><tspan x="0" y="0">아이콘 출력</tspan></text>
  <g>
    <rect class="cls-5" x="180.859" y="13.607" width="116.71" height="75.29" rx="6.387" ry="6.387"/>
    <g>
      <rect class="cls-1" x="195.327" y="23.502" width="8.661" height="8.661" rx="1.016" ry="1.016"/>
      <rect class="cls-2" x="207.061" y="23.502" width="8.661" height="8.661" rx="1.016" ry="1.016"/>
      <rect class="cls-1" x="218.795" y="23.502" width="8.661" height="8.661" rx="1.016" ry="1.016"/>
      <rect class="cls-2" x="230.529" y="23.502" width="8.661" height="8.661" rx="1.016" ry="1.016"/>
      <rect class="cls-1" x="242.262" y="23.502" width="8.661" height="8.661" rx="1.016" ry="1.016"/>
      <rect class="cls-2" x="195.327" y="35.212" width="8.661" height="8.661" rx="1.016" ry="1.016"/>
      <rect class="cls-2" x="207.061" y="35.212" width="8.661" height="8.661" rx="1.016" ry="1.016"/>
      <rect class="cls-2" x="218.795" y="35.212" width="8.661" height="8.661" rx="1.016" ry="1.016"/>
      <rect class="cls-2" x="230.529" y="35.212" width="8.661" height="8.661" rx="1.016" ry="1.016"/>
      <rect class="cls-2" x="242.262" y="35.212" width="8.661" height="8.661" rx="1.016" ry="1.016"/>
      <rect class="cls-2" x="195.327" y="46.921" width="8.661" height="8.661" rx="1.016" ry="1.016"/>
      <rect class="cls-2" x="207.061" y="46.921" width="8.661" height="8.661" rx="1.016" ry="1.016"/>
      <rect class="cls-2" x="218.795" y="46.921" width="8.661" height="8.661" rx="1.016" ry="1.016"/>
      <rect class="cls-2" x="230.529" y="46.921" width="8.661" height="8.661" rx="1.016" ry="1.016"/>
      <rect class="cls-2" x="242.262" y="46.921" width="8.661" height="8.661" rx="1.016" ry="1.016"/>
      <rect class="cls-1" x="195.327" y="58.631" width="8.661" height="8.661" rx="1.016" ry="1.016"/>
      <rect class="cls-2" x="207.061" y="58.631" width="8.661" height="8.661" rx="1.016" ry="1.016"/>
      <rect class="cls-2" x="218.795" y="58.631" width="8.661" height="8.661" rx="1.016" ry="1.016"/>
      <rect class="cls-2" x="230.529" y="58.631" width="8.661" height="8.661" rx="1.016" ry="1.016"/>
      <rect class="cls-1" x="242.262" y="58.631" width="8.661" height="8.661" rx="1.016" ry="1.016"/>
      <rect class="cls-1" x="195.327" y="70.341" width="8.661" height="8.661" rx="1.016" ry="1.016"/>
      <rect class="cls-1" x="207.061" y="70.341" width="8.661" height="8.661" rx="1.016" ry="1.016"/>
      <rect class="cls-2" x="218.795" y="70.341" width="8.661" height="8.661" rx="1.016" ry="1.016"/>
      <rect class="cls-1" x="230.529" y="70.341" width="8.661" height="8.661" rx="1.016" ry="1.016"/>
      <rect class="cls-1" x="242.262" y="70.341" width="8.661" height="8.661" rx="1.016" ry="1.016"/>
    </g>
    <g>
      <path class="cls-2" d="m274.149,56.139c-.436,0-.851-.164-1.169-.462l-6.78-6.353c-.516-.483-.681-1.22-.421-1.877s.884-1.081,1.59-1.081h13.56c.707,0,1.331.424,1.59,1.081.26.657.094,1.394-.421,1.877l-6.78,6.353c-.318.298-.733.462-1.169.462Z"/>
      <path class="cls-3" d="m280.93,46.865c1.097,0,1.628,1.343.827,2.093l-6.78,6.353c-.233.218-.53.327-.827.327s-.595-.109-.827-.327l-6.78-6.353c-.801-.75-.27-2.093.827-2.093h13.56m0-1h-13.56c-.913,0-1.72.549-2.055,1.398-.336.849-.122,1.801.544,2.425l6.78,6.353c.411.385.948.597,1.511.597s1.1-.212,1.511-.597l6.78-6.353c.666-.624.88-1.576.544-2.425-.336-.849-1.142-1.398-2.055-1.398h0Z"/>
    </g>
  </g>
</svg>