<?xml version="1.0" encoding="UTF-8"?>
<svg id="_레이어_1" data-name="레이어 1" xmlns="http://www.w3.org/2000/svg" viewBox="0 0 510.129 69.806">
  <defs>
    <style>
      .cls-1 {
        fill: #c72345;
      }

      .cls-1, .cls-2, .cls-3, .cls-4, .cls-5, .cls-6, .cls-7, .cls-8, .cls-9 {
        stroke-width: 0px;
      }

      .cls-2, .cls-10, .cls-11 {
        fill: #fefefe;
      }

      .cls-3 {
        fill: #fbdb80;
      }

      .cls-4 {
        fill: #c62042;
      }

      .cls-12 {
        fill: #fe3a61;
        stroke: #c62142;
        stroke-linecap: round;
        stroke-linejoin: round;
        stroke-width: 2px;
      }

      .cls-5 {
        fill: #fcdc81;
      }

      .cls-6 {
        fill: #fe9b01;
      }

      .cls-13, .cls-10, .cls-11 {
        font-family: Pretendard-Bold-KSCpc-EUC-H, Pretendard;
        font-weight: 700;
      }

      .cls-13, .cls-11 {
        font-size: 22px;
        letter-spacing: -.025em;
      }

      .cls-7 {
        fill: #fedd81;
      }

      .cls-10 {
        font-size: 26px;
        letter-spacing: -.025em;
      }

      .cls-8 {
        fill: #fe9b00;
      }

      .cls-9 {
        fill: #fe5576;
      }
    </style>
  </defs>
  <path class="cls-12" d="m481.258,1H26.189c-.658,0-1.288.262-1.753.727l-10.791,10.821L1.622,1.568c-.238-.218-.622-.049-.622.274v54.741c0,.101.042.199.115.269l12.53,11.955,13.032-12.065h454.581c15.329,0,27.871-12.542,27.871-27.871h0c0-15.329-12.542-27.871-27.871-27.871Z"/>
  <g>
    <g>
      <path class="cls-4" d="m393.242,48.539c-14.548,0-29.095.001-43.643,0-3.175,0-4.593-1.41-4.594-4.569-.003-10.355-.003-20.71,0-31.065.001-3.029,1.457-4.455,4.54-4.455,29.207-.002,58.415-.002,87.622,0,3.418,0,4.878,1.469,4.879,4.903.002,10.132.003,20.264,0,30.397-.001,3.292-1.509,4.788-4.824,4.789-14.66.003-29.319.001-43.979.001Z"/>
      <path class="cls-4" d="m456.15,28.394c.085-12.114,9.79-22.01,22.342-21.937,12.159.071,22.178,9.883,21.961,22.471-.203,11.764-9.754,21.773-22.498,21.598-12.042-.166-21.794-9.762-21.805-22.132Z"/>
      <path class="cls-8" d="m66.835,49.541c-5.708,0-11.416.01-17.125-.003-9.626-.021-18.315-6.542-20.479-15.866-2.881-12.417,4.413-22.858,15.839-25.753,1.388-.352,2.872-.449,4.312-.453,11.696-.035,23.392-.041,35.088-.012,10.254.026,18.915,7.865,20.541,17.966,1.904,11.832-7.353,22.757-17.891,23.864-1.168.123-2.325.256-3.498.257-5.596.001-11.192,0-16.789,0Z"/>
      <path class="cls-6" d="m238.627,28.545c.462,11.521-9.772,20.946-20.786,21.039-11.933.1-21.41-9.928-21.395-21.035.015-11.196,9.427-21.07,20.981-21.145,11.874-.077,21.767,10.091,21.199,21.141Z"/>
      <path class="cls-2" d="m431.831,24.561c-.401-.888-1.172-1.308-2.152-1.313l-9.375.029c-.865.022-1.679.285-2.04,1.183-.34.847-.146,1.625.436,2.325,1.492,1.794,2.952,3.616,4.471,5.386,1.243,1.448,2.36,1.471,3.606.035,1.565-1.803,3.033-3.69,4.578-5.51.556-.655.83-1.35.476-2.135Z"/>
      <path class="cls-9" d="m479.05,29.831c2.854.024,5.612,2.731,5.624,5.52.014,3.13-2.722,5.849-5.866,5.829-3.016-.018-5.566-2.746-5.533-5.919.031-3.007,2.636-5.457,5.775-5.43Z"/>
      <rect class="cls-9" x="481.438" y="20.216" width="9.448" height="9.448" transform="translate(160.028 -336.464) rotate(45)"/>
      <path class="cls-7" d="m66.867,47.536c-5.703,0-11.407.01-17.11-.002-8.18-.017-15.561-5.265-18.108-12.855-2.695-8.032-.056-16.314,6.666-21.413,3.431-2.602,7.262-3.796,11.499-3.806,11.406-.027,22.813-.018,34.22-.006,9.023.01,16.48,5.837,18.65,14.541,2.323,9.316-2.808,18.901-11.85,22.327-2.183.827-4.4,1.19-6.69,1.203-5.759.032-11.518.011-17.277.011Z"/>
      <path class="cls-7" d="m236.617,28.66c.429,9.99-8.671,18.974-19.039,18.913-11.074-.066-19.206-9.679-19.129-19.142.082-10.145,8.896-19.056,19.081-19.017,10.739.041,19.646,9.25,19.087,19.247Z"/>
      <path class="cls-1" d="m380.679,26.824c1.256-.022,2.223.921,2.182,2.215-.04,1.272-.632,2.104-2.021,2.157-1.365.052-2.237-.744-2.28-2.075-.042-1.281.876-2.275,2.12-2.297Z"/>
      <path class="cls-5" d="m52.636,24.363c.004,1.683-1.052,2.808-2.623,2.794-1.468-.013-2.522-1.129-2.557-2.711-.036-1.593,1.114-2.915,2.559-2.943,1.45-.028,2.616,1.245,2.62,2.861Z"/>
      <path class="cls-3" d="m73.234,35.831c-.95.113-1.865-.088-2.736-.473-.583-.258-1.057-.687-1.064-1.362-.007-.654.373-1.181.963-1.44,1.923-.843,3.889-.884,5.751.1,1.309.691,1.198,1.984-.162,2.655-.851.42-1.772.629-2.752.52Z"/>
      <polygon class="cls-9" points="477.281 27.895 477.281 21.462 471.71 18.246 466.139 21.462 466.139 27.895 471.71 31.111 477.281 27.895"/>
    </g>
    <text class="cls-13" transform="translate(45.291 35.62)"><tspan x="0" y="0">안녕!</tspan></text>
    <text class="cls-13" transform="translate(209.291 35.609)"><tspan x="0" y="0">4</tspan></text>
    <text class="cls-10" transform="translate(118.453 36.107)"><tspan x="0" y="0">을(를)</tspan></text>
    <text class="cls-10" transform="translate(254.671 37.681)"><tspan x="0" y="0">초 동안</tspan></text>
    <text class="cls-11" transform="translate(356.071 35.451)"><tspan x="0" y="0">말하기</tspan></text>
  </g>
</svg>