<?xml version="1.0" encoding="UTF-8"?>
<svg id="_레이어_1" data-name="레이어 1" xmlns="http://www.w3.org/2000/svg" viewBox="0 0 1823.757 498.999">
  <defs>
    <style>
      .cls-1, .cls-2, .cls-3, .cls-4, .cls-5, .cls-6, .cls-7, .cls-8, .cls-9, .cls-10, .cls-11, .cls-12, .cls-13, .cls-14, .cls-15, .cls-16, .cls-17, .cls-18, .cls-19, .cls-20, .cls-21 {
        stroke-width: 0px;
      }

      .cls-1, .cls-22, .cls-23, .cls-24 {
        fill: #fefefe;
      }

      .cls-2 {
        fill: #009400;
      }

      .cls-3 {
        fill: #b819b3;
      }

      .cls-4 {
        fill: #c72042;
      }

      .cls-25, .cls-22, .cls-23, .cls-26, .cls-24 {
        font-family: Pretendard-Bold-KSCpc-EUC-H, Pretendard;
        font-weight: 700;
      }

      .cls-25, .cls-10 {
        fill: #fff;
      }

      .cls-25, .cls-23, .cls-26 {
        font-size: 22px;
      }

      .cls-25, .cls-26 {
        letter-spacing: -.025em;
      }

      .cls-5 {
        fill: #3bce3b;
      }

      .cls-6 {
        fill: #fefdfe;
      }

      .cls-7 {
        fill: #c62042;
      }

      .cls-27 {
        fill: #fe3a61;
        stroke: #c62142;
      }

      .cls-27, .cls-28, .cls-29, .cls-30 {
        stroke-width: 2px;
      }

      .cls-27, .cls-29, .cls-30 {
        stroke-linecap: round;
        stroke-linejoin: round;
      }

      .cls-28 {
        stroke: #009400;
        stroke-miterlimit: 10;
      }

      .cls-28, .cls-21 {
        fill: #00b300;
      }

      .cls-22, .cls-24 {
        font-size: 26px;
      }

      .cls-8 {
        fill: #b719b2;
      }

      .cls-9 {
        fill: #ff7f00;
      }

      .cls-29 {
        fill: #19baea;
        stroke: #1498c0;
      }

      .cls-11 {
        fill: #6dddfe;
      }

      .cls-12 {
        fill: #1498c0;
      }

      .cls-13, .cls-30 {
        fill: #dd47d8;
      }

      .cls-30 {
        stroke: #b819b3;
      }

      .cls-14 {
        fill: #fafdfa;
      }

      .cls-15 {
        fill: #f577f1;
      }

      .cls-16 {
        fill: #fedd81;
      }

      .cls-17 {
        fill: #f4af18;
      }

      .cls-18 {
        fill: #f677f2;
      }

      .cls-19 {
        fill: #fe9b00;
      }

      .cls-24 {
        letter-spacing: -.01em;
      }

      .cls-20 {
        fill: #fe5576;
      }
    </style>
  </defs>
  <g>
    <g>
      <path class="cls-28" d="m334.856,33.954c-2.293-12.791-13.66-22.101-26.741-22.14-81.918-.248-163.835-.501-245.753-.712-2.727-.007-4.859-.438-7.168-2.399C48.028,2.617,39.547.119,30.1,1.274,20.381,2.463,12.681,7.161,7.067,15.04,2.193,21.879.212,29.582,1.283,38.024c1.177,9.281,5.523,16.675,12.825,22.461,2.333,1.849,6.893,4.567,6.893,4.567l11.959,10.71c.84.872,1.302.777,2.094-.032l11.135-10.678c86.873.298,175.353.627,262.226.887.891.002,1.782-.029,2.673-.045.198-.088.388-.231.594-.256,15.315-1.89,25.945-16.233,23.175-31.684Z"/>
      <path class="cls-1" d="m34.016,62.097c-15.48-.051-28.037-12.66-27.997-28.114.04-15.539,12.694-28.067,28.28-27.997,15.45.069,27.973,12.72,27.913,28.197-.06,15.443-12.708,27.964-28.196,27.914Z"/>
      <path class="cls-21" d="m22.752,33.067c.099-1.896-.183-4.236.152-6.562.711-4.937,4.657-8.567,9.628-8.799,1.609-.075,3.236-.154,4.823.234,4.693,1.146,7.831,5.11,7.914,10.093.06,3.614.045,7.23.006,10.844-.07,6.422-4.581,10.616-11.359,10.611-6.621-.005-11.083-4.255-11.16-10.647-.021-1.779-.003-3.559-.003-5.774Z"/>
      <path class="cls-14" d="m32.083,26.919c.035-.717.008-1.442.123-2.144.154-.937.826-1.465,1.736-1.493.99-.03,1.793.497,1.874,1.509.118,1.478.107,2.978-.004,4.457-.07.929-.81,1.468-1.722,1.499-.995.033-1.71-.518-1.884-1.517-.131-.754-.088-1.539-.124-2.311Z"/>
      <text class="cls-22" transform="translate(73.185 46.255) rotate(.173)"><tspan x="0" y="0">오브젝트를 클릭했을 때</tspan></text>
    </g>
    <g>
      <g>
        <path class="cls-30" d="m389.722,65.015H46.465s0,0,0,0l-12.543,11.548s0,0,0,0l-12.023-10.98c-.238-.218-.622-.049-.622.274v54.741c0,.047.011.092.028.135h-.003l.004.004c.02.048.048.093.087.13h.056l11.328,10.345c.663.605,1.678.603,2.338-.005l10.91-10.045c.212-.195.49-.304.779-.304l342.92-.101c15.329,0,27.871-12.542,27.871-27.871h0c0-15.329-12.542-27.871-27.871-27.871Z"/>
        <g>
          <path class="cls-8" d="m410.671,92.93c.233,11.599-9.583,22.21-22.59,21.903-11.361-.268-21.522-9.45-21.508-22.104.014-12.581,10.427-22.278,22.629-21.994,11.969.279,21.786,10.209,21.47,22.194Z"/>
          <path class="cls-18" d="m388.939,82.767c1.421.066,3.283.498,4.796,1.905,2.464,2.29,2.614,5.317.342,7.812-.823.903-1.728,1.735-2.634,2.558-.847.769-1.497,1.641-1.723,2.78-.285,1.438-1.202,2.017-2.552,1.624-1.294-.377-1.297-1.572-1.154-2.621.299-2.203,1.86-3.593,3.427-4.952.334-.29.717-.537.999-.87,1.487-1.758,1.36-3.4-.321-4.537-1.47-.995-3.897-.403-4.808,1.208-.326.577-.531,1.221-.815,1.823-.524,1.11-1.42,1.65-2.58,1.204-1.144-.44-1.405-1.351-1.1-2.592.769-3.131,3.806-5.339,8.123-5.343Z"/>
          <path class="cls-15" d="m387.913,105.481c-1.271-.012-2.113-.925-2.059-2.258.054-1.311.741-2.044,2.063-2.095,1.32-.051,2.369,1,2.32,2.267-.048,1.226-1.02,2.098-2.324,2.086Z"/>
        </g>
      </g>
      <g>
        <path class="cls-3" d="m133.27,79.154v27.721c0,3.45,2.808,6.244,6.257,6.235,25.312-.061,100.448-.046,125.773-.044,3.444,0,6.242-2.791,6.242-6.235v-27.63c0-3.441-2.787-6.231-6.228-6.235l-125.802-.046c-3.447-.004-6.243,2.789-6.243,6.235Z"/>
        <text class="cls-23" transform="translate(143.649 100.854)"><tspan x="0" y="0">반티 리스트</tspan></text>
        <path class="cls-6" d="m257.963,89.121c1.503,0,3.006-.003,4.509.001.951.003,1.744.288,2.197,1.211.47.958.064,1.702-.534,2.425-1.451,1.754-2.859,3.543-4.343,5.268-1.318,1.533-2.389,1.523-3.72-.029-1.519-1.771-2.972-3.598-4.452-5.402-.521-.635-.812-1.313-.452-2.145.374-.865,1.045-1.293,1.954-1.309,1.614-.027,3.228-.008,4.842-.008v-.013Z"/>
      </g>
      <text class="cls-24" transform="translate(50.009 101.365)"><tspan x="0" y="0">리스트</tspan></text>
      <text class="cls-24" transform="translate(286.928 101.365)"><tspan x="0" y="0">숨기기</tspan></text>
    </g>
    <g>
      <g>
        <path class="cls-30" d="m369.539,120.831H46.465s0,0,0,0l-12.543,11.548s0,0,0,0l-12.023-10.98c-.238-.218-.622-.049-.622.274v54.741c0,.047.011.092.028.135h-.003l.004.004c.02.048.048.093.087.13h.056l11.328,10.345c.663.605,1.678.603,2.338-.005l10.91-10.045c.212-.195.49-.304.779-.304l322.736-.101c15.329,0,27.871-12.542,27.871-27.871h0c0-15.329-12.542-27.871-27.871-27.871Z"/>
        <g>
          <path class="cls-8" d="m390.487,148.746c.233,11.599-9.583,22.21-22.59,21.903-11.361-.268-21.522-9.45-21.508-22.104.014-12.581,10.427-22.278,22.629-21.994,11.969.279,21.786,10.209,21.47,22.194Z"/>
          <path class="cls-18" d="m368.756,138.583c1.421.066,3.283.498,4.796,1.905,2.464,2.29,2.614,5.317.342,7.812-.823.903-1.728,1.735-2.634,2.558-.847.769-1.497,1.641-1.723,2.78-.285,1.438-1.202,2.017-2.552,1.624-1.294-.377-1.297-1.572-1.154-2.621.299-2.203,1.86-3.593,3.427-4.952.334-.29.717-.537.999-.87,1.487-1.758,1.36-3.4-.321-4.537-1.47-.995-3.897-.403-4.808,1.208-.326.577-.531,1.221-.815,1.823-.524,1.11-1.42,1.65-2.58,1.204-1.144-.44-1.405-1.351-1.1-2.592.769-3.131,3.806-5.339,8.123-5.343Z"/>
          <path class="cls-15" d="m367.73,161.297c-1.271-.012-2.113-.925-2.059-2.258.054-1.311.741-2.044,2.063-2.095,1.32-.051,2.369,1,2.32,2.267-.048,1.226-1.02,2.098-2.324,2.086Z"/>
        </g>
      </g>
      <g>
        <path class="cls-3" d="m133.27,134.971v27.721c0,3.45,2.808,6.244,6.257,6.235,25.312-.061,80.264-.046,105.59-.044,3.444,0,6.242-2.791,6.242-6.235v-27.63c0-3.441-2.787-6.231-6.228-6.235l-105.619-.046c-3.447-.004-6.243,2.789-6.243,6.235Z"/>
        <text class="cls-23" transform="translate(143.649 156.671)"><tspan x="0" y="0">반티 총점</tspan></text>
        <path class="cls-6" d="m237.78,144.937c1.503,0,3.006-.003,4.509.001.951.003,1.744.288,2.197,1.211.47.958.064,1.702-.534,2.425-1.451,1.754-2.859,3.543-4.343,5.268-1.318,1.533-2.389,1.523-3.72-.029-1.519-1.771-2.972-3.598-4.452-5.402-.521-.635-.812-1.313-.452-2.145.374-.865,1.045-1.293,1.954-1.309,1.614-.027,3.228-.008,4.842-.008v-.013Z"/>
      </g>
      <text class="cls-24" transform="translate(50.009 157.181)"><tspan x="0" y="0">리스트</tspan></text>
      <text class="cls-24" transform="translate(266.745 157.181)"><tspan x="0" y="0">숨기기</tspan></text>
    </g>
    <g>
      <g>
        <path class="cls-30" d="m423.559,176.431H46.465s0,0,0,0l-12.543,11.548s0,0,0,0l-12.023-10.98c-.238-.218-.622-.049-.622.274v54.741c0,.047.011.092.028.135h-.003l.004.004c.02.048.048.093.087.13h.056l11.328,10.345c.663.605,1.678.603,2.338-.005l10.91-10.045c.212-.195.49-.304.779-.304l376.757-.101c15.329,0,27.871-12.542,27.871-27.871h0c0-15.329-12.542-27.871-27.871-27.871Z"/>
        <g>
          <path class="cls-8" d="m444.508,204.346c.233,11.599-9.583,22.21-22.59,21.903-11.361-.268-21.522-9.45-21.508-22.104.014-12.581,10.427-22.278,22.629-21.994,11.969.279,21.786,10.209,21.47,22.194Z"/>
          <path class="cls-18" d="m422.776,194.183c1.421.066,3.283.498,4.796,1.905,2.464,2.29,2.614,5.317.342,7.812-.823.903-1.728,1.735-2.634,2.558-.847.769-1.497,1.641-1.723,2.78-.285,1.438-1.202,2.017-2.552,1.624-1.294-.377-1.297-1.572-1.154-2.621.299-2.203,1.86-3.593,3.427-4.952.334-.29.717-.537.999-.87,1.487-1.758,1.36-3.4-.321-4.537-1.47-.995-3.897-.403-4.808,1.208-.326.577-.531,1.221-.815,1.823-.524,1.11-1.42,1.65-2.58,1.204-1.144-.44-1.405-1.351-1.1-2.592.769-3.131,3.806-5.339,8.123-5.343Z"/>
          <path class="cls-15" d="m421.75,216.898c-1.271-.012-2.113-.925-2.059-2.258.054-1.311.741-2.044,2.063-2.095,1.32-.051,2.369,1,2.32,2.267-.048,1.226-1.02,2.098-2.324,2.086Z"/>
        </g>
      </g>
      <g>
        <path class="cls-3" d="m52.511,190.571v27.721c0,3.45,2.808,6.244,6.257,6.235,25.312-.061,13.119-.046,38.445-.044,3.444,0,6.242-2.791,6.242-6.235v-27.63c0-3.441-2.787-6.231-6.228-6.235l-38.474-.046c-3.447-.004-6.243,2.789-6.243,6.235Z"/>
        <text class="cls-23" transform="translate(62.89 212.271)"><tspan x="0" y="0">n</tspan></text>
        <path class="cls-6" d="m89.875,200.538c1.503,0,3.006-.003,4.509.001.951.003,1.744.288,2.197,1.211.47.958.064,1.702-.534,2.425-1.451,1.754-2.859,3.543-4.343,5.268-1.318,1.533-2.389,1.523-3.72-.029-1.519-1.771-2.972-3.598-4.452-5.402-.521-.635-.812-1.313-.452-2.145.374-.865,1.045-1.293,1.954-1.309,1.614-.027,3.228-.008,4.842-.008v-.013Z"/>
      </g>
      <text class="cls-24" transform="translate(119.274 212.781)"><tspan x="0" y="0">을(를)</tspan></text>
      <text class="cls-24" transform="translate(252.382 212.781)"><tspan x="0" y="0">(으)로 정하기</tspan></text>
      <g>
        <g>
          <path class="cls-16" d="m216.435,224.334c-10.975,0-19.903-8.928-19.903-19.903s8.929-19.903,19.903-19.903,19.902,8.928,19.902,19.903-8.928,19.903-19.902,19.903Z"/>
          <path class="cls-19" d="m216.435,185.528c10.423,0,18.903,8.48,18.903,18.903s-8.48,18.903-18.903,18.903-18.903-8.48-18.903-18.903,8.48-18.903,18.903-18.903m0-2c-11.497,0-20.903,9.406-20.903,20.903s9.406,20.903,20.903,20.903,20.903-9.406,20.903-20.903-9.406-20.903-20.903-20.903h0Z"/>
        </g>
        <text class="cls-26" transform="translate(210.183 211.493)"><tspan x="0" y="0">1</tspan></text>
      </g>
    </g>
    <g>
      <g>
        <path class="cls-29" d="m479.25,399.73H73.484l-12.387,11.116-12.744-11.116v-111.307l12.441,11.461,12.387-11.471,393.98-.091c16.083,0,29.097-13.806,27.779-30.151-1.175-14.565-13.733-25.591-28.345-25.591H46.465l-12.543,11.548-12.023-10.98c-.238-.217-.622-.048-.622.274v54.741c0,.047.011.092.028.135h-.004l.091.134.056,142.864,12.379,11.613,12.516-11.613h432.907c8.716,0,15.783-7.066,15.783-15.783s-7.066-15.783-15.783-15.783Z"/>
        <g>
          <path class="cls-12" d="m484.91,260.495c.233,11.599-9.583,22.21-22.59,21.903-11.361-.268-21.522-9.45-21.508-22.104.014-12.581,10.427-22.278,22.629-21.994,11.969.279,21.786,10.209,21.47,22.194Z"/>
          <path class="cls-11" d="m470.994,262.027c-.095,0-.185.021-.279.028l-4.684-7.075c.647-.892.942-2.055.623-3.302-.356-1.388-1.5-2.504-2.899-2.812-2.553-.562-4.81,1.366-4.81,3.821,0,.859.284,1.646.753,2.292l-4.684,7.075c-.094-.007-.183-.028-.279-.028-2.466,0-4.4,2.277-3.814,4.843.323,1.416,1.474,2.567,2.89,2.89,2.566.586,4.843-1.348,4.843-3.814,0-1.153-.507-2.18-1.3-2.897l4.386-6.625c.358.108.731.183,1.124.183s.766-.076,1.124-.183l4.386,6.625c-1.013.917-1.56,2.338-1.178,3.884.344,1.389,1.482,2.51,2.877,2.828,2.564.583,4.839-1.35,4.839-3.815,0-2.165-1.755-3.919-3.919-3.919Z"/>
        </g>
        <text class="cls-22" transform="translate(312.603 268.253)"><tspan x="0" y="0">번 반복하기</tspan></text>
      </g>
      <g>
        <g>
          <path class="cls-13" d="m71.084,280.179c-10.975,0-19.903-8.928-19.903-19.903s8.929-19.903,19.903-19.903h206.968c10.975,0,19.903,8.928,19.903,19.903s-8.929,19.903-19.903,19.903H71.084Z"/>
          <path class="cls-3" d="m278.052,241.372c10.423,0,18.903,8.48,18.903,18.903s-8.48,18.903-18.903,18.903H71.084c-10.423,0-18.903-8.48-18.903-18.903s8.48-18.903,18.903-18.903h206.968m0-2H71.084c-11.497,0-20.903,9.406-20.903,20.903s9.406,20.903,20.903,20.903h206.968c11.497,0,20.903-9.407,20.903-20.903s-9.406-20.903-20.903-20.903h0Z"/>
        </g>
        <rect class="cls-3" x="65.665" y="240.792" width="141.935" height="38.968" rx="3.871" ry="3.871"/>
        <text class="cls-25" transform="translate(220.964 267.338)"><tspan x="0" y="0">항목 수</tspan></text>
        <text class="cls-25" transform="translate(76.19 267.338)"><tspan x="0" y="0">반티 리스트</tspan></text>
        <path class="cls-6" d="m189.907,255.598c1.503,0,3.006-.003,4.509.001.951.003,1.744.288,2.197,1.211.47.958.064,1.702-.534,2.425-1.451,1.754-2.859,3.543-4.343,5.268-1.318,1.533-2.389,1.523-3.72-.029-1.519-1.771-2.972-3.598-4.452-5.402-.521-.635-.812-1.313-.452-2.145.374-.865,1.045-1.293,1.954-1.309,1.614-.027,3.228-.008,4.842-.008v-.013Z"/>
      </g>
    </g>
    <g>
      <g>
        <path class="cls-30" d="m394.319,288.516H73.608s0,0,0,0l-12.543,11.548s0,0,0,0l-12.023-10.98c-.238-.218-.622-.049-.622.274v54.741c0,.047.011.092.028.135h-.003l.004.004c.02.048.048.093.087.13h.056l11.328,10.345c.663.605,1.678.603,2.338-.005l10.91-10.045c.212-.195.49-.304.779-.304l320.374-.101c15.329,0,27.871-12.542,27.871-27.871h0c0-15.329-12.542-27.871-27.871-27.871Z"/>
        <g>
          <path class="cls-8" d="m415.268,316.431c.233,11.599-9.583,22.21-22.59,21.903-11.361-.268-21.522-9.45-21.508-22.104.014-12.581,10.427-22.278,22.629-21.994,11.969.279,21.786,10.209,21.47,22.194Z"/>
          <path class="cls-18" d="m393.536,306.268c1.421.066,3.283.498,4.796,1.905,2.464,2.29,2.614,5.317.342,7.812-.823.903-1.728,1.735-2.634,2.558-.847.769-1.497,1.641-1.723,2.78-.285,1.438-1.202,2.017-2.552,1.624-1.294-.377-1.297-1.572-1.154-2.621.299-2.203,1.86-3.593,3.427-4.952.334-.29.717-.537.999-.87,1.487-1.758,1.36-3.4-.321-4.537-1.47-.995-3.897-.403-4.808,1.208-.326.577-.531,1.221-.815,1.823-.524,1.11-1.42,1.65-2.58,1.204-1.144-.44-1.405-1.351-1.1-2.592.769-3.131,3.806-5.339,8.123-5.343Z"/>
          <path class="cls-15" d="m392.51,328.982c-1.271-.012-2.113-.925-2.059-2.258.054-1.311.741-2.044,2.063-2.095,1.32-.051,2.369,1,2.32,2.267-.048,1.226-1.02,2.098-2.324,2.086Z"/>
        </g>
      </g>
      <g>
        <path class="cls-3" d="m79.654,302.655v27.721c0,3.45,2.808,6.244,6.257,6.235,25.312-.061,13.119-.046,38.445-.044,3.444,0,6.242-2.791,6.242-6.235v-27.63c0-3.441-2.787-6.231-6.228-6.235l-38.474-.046c-3.447-.004-6.243,2.789-6.243,6.235Z"/>
        <text class="cls-23" transform="translate(90.033 324.355)"><tspan x="0" y="0">n</tspan></text>
        <path class="cls-6" d="m117.018,312.622c1.503,0,3.006-.003,4.509.001.951.003,1.744.288,2.197,1.211.47.958.064,1.702-.534,2.425-1.451,1.754-2.859,3.543-4.343,5.268-1.318,1.533-2.389,1.523-3.72-.029-1.519-1.771-2.972-3.598-4.452-5.402-.521-.635-.812-1.313-.452-2.145.374-.865,1.045-1.293,1.954-1.309,1.614-.027,3.228-.008,4.842-.008v-.013Z"/>
      </g>
      <text class="cls-24" transform="translate(146.417 324.865)"><tspan x="0" y="0">에</tspan></text>
      <text class="cls-24" transform="translate(240.901 324.865)"><tspan x="0" y="0">만큼 더하기</tspan></text>
      <g>
        <g>
          <path class="cls-16" d="m204.593,336.419c-10.975,0-19.902-8.928-19.902-19.903s8.928-19.903,19.902-19.903,19.903,8.928,19.903,19.903-8.929,19.903-19.903,19.903Z"/>
          <path class="cls-19" d="m204.594,297.613c10.423,0,18.903,8.48,18.903,18.903s-8.48,18.903-18.903,18.903-18.903-8.48-18.903-18.903,8.48-18.903,18.903-18.903m0-2c-11.497,0-20.903,9.406-20.903,20.903s9.406,20.903,20.903,20.903,20.903-9.406,20.903-20.903-9.406-20.903-20.903-20.903h0Z"/>
        </g>
        <text class="cls-26" transform="translate(198.342 323.577)"><tspan x="0" y="0">1</tspan></text>
      </g>
    </g>
    <g>
      <g>
        <path class="cls-27" d="m1794.886,344.197H73.608s0,0,0,0l-12.543,11.548s0,0,0,0l-12.023-10.98c-.238-.218-.622-.049-.622.274v54.741c0,.047.011.092.028.135h-.003l.004.004c.02.048.048.093.087.13h.056l11.328,10.345c.663.605,1.678.603,2.338-.005l10.91-10.045c.212-.195.49-.304.779-.304l1720.941-.101c15.329,0,27.871-12.542,27.871-27.871h0c0-15.329-12.542-27.871-27.871-27.871Z"/>
        <text class="cls-22" transform="translate(1446.904 379.507)"><tspan x="0" y="0">을(를)</tspan></text>
        <text class="cls-22" transform="translate(1572.71 379.507)"><tspan x="0" y="0">초 동안</tspan></text>
        <g>
          <path class="cls-7" d="m1771.536,371.849c.085-12.114,9.79-22.01,22.342-21.937,12.159.071,22.178,9.883,21.961,22.471-.203,11.764-9.754,21.773-22.498,21.598-12.042-.166-21.794-9.762-21.805-22.132Z"/>
          <path class="cls-20" d="m1794.436,373.286c2.854.024,5.612,2.731,5.624,5.52.014,3.13-2.722,5.849-5.866,5.829-3.016-.018-5.566-2.746-5.533-5.919.031-3.007,2.636-5.457,5.775-5.43Z"/>
          <rect class="cls-20" x="1796.824" y="363.671" width="9.448" height="9.448" transform="translate(788.155 -1165.986) rotate(45)"/>
          <polygon class="cls-20" points="1792.667 371.349 1792.667 364.917 1787.096 361.701 1781.525 364.917 1781.525 371.349 1787.096 374.566 1792.667 371.349"/>
        </g>
      </g>
      <g>
        <path class="cls-17" d="m95.701,391.871c-10.975,0-19.903-8.929-19.903-19.903s8.929-19.903,19.903-19.903h1319.855c10.975,0,19.903,8.929,19.903,19.903s-8.929,19.903-19.903,19.903H95.701Z"/>
        <path class="cls-9" d="m1415.556,353.065c10.423,0,18.903,8.48,18.903,18.903s-8.48,18.903-18.903,18.903H95.7c-10.423,0-18.903-8.48-18.903-18.903s8.48-18.903,18.903-18.903h1319.856m0-2H95.7c-11.497,0-20.903,9.407-20.903,20.903s9.406,20.903,20.903,20.903h1319.856c11.497,0,20.903-9.407,20.903-20.903s-9.406-20.903-20.903-20.903h0Z"/>
      </g>
      <g>
        <path class="cls-17" d="m625.064,391.871c-10.975,0-19.903-8.929-19.903-19.903s8.929-19.903,19.903-19.903h641.59c10.975,0,19.902,8.929,19.902,19.903s-8.928,19.903-19.902,19.903h-641.59Z"/>
        <path class="cls-9" d="m1266.653,353.065c10.423,0,18.903,8.48,18.903,18.903s-8.48,18.903-18.903,18.903h-641.589c-10.423,0-18.903-8.48-18.903-18.903s8.48-18.903,18.903-18.903h641.589m0-2h-641.589c-11.497,0-20.903,9.407-20.903,20.903s9.406,20.903,20.903,20.903h641.589c11.497,0,20.903-9.407,20.903-20.903s-9.406-20.903-20.903-20.903h0Z"/>
      </g>
      <g>
        <g>
          <path class="cls-13" d="m109.05,391.871c-10.975,0-19.903-8.929-19.903-19.903s8.929-19.903,19.903-19.903h395.757c10.975,0,19.903,8.929,19.903,19.903s-8.929,19.903-19.903,19.903H109.05Z"/>
          <path class="cls-3" d="m504.808,353.065c10.423,0,18.903,8.48,18.903,18.903s-8.48,18.903-18.903,18.903H109.05c-10.423,0-18.903-8.48-18.903-18.903s8.48-18.903,18.903-18.903h395.757m0-2H109.05c-11.497,0-20.903,9.407-20.903,20.903s9.406,20.903,20.903,20.903h395.757c11.497,0,20.903-9.407,20.903-20.903s-9.406-20.903-20.903-20.903h0Z"/>
        </g>
        <rect class="cls-3" x="103.631" y="352.484" width="141.935" height="38.968" rx="3.871" ry="3.871"/>
        <text class="cls-25" transform="translate(258.931 379.03)"><tspan x="0" y="0">의</tspan></text>
        <text class="cls-25" transform="translate(427.85 379.03)"><tspan x="0" y="0">번째 항목</tspan></text>
        <text class="cls-25" transform="translate(539.333 379.03)"><tspan x="0" y="0">과(와)</tspan></text>
        <text class="cls-25" transform="translate(669.753 379.03)"><tspan x="0" y="0">과(와)</tspan></text>
        <text class="cls-25" transform="translate(1152.921 379.03)"><tspan x="0" y="0">을(를) 합친 값</tspan></text>
        <text class="cls-25" transform="translate(1300.663 379.03)"><tspan x="0" y="0">을(를) 합친 값</tspan></text>
        <text class="cls-25" transform="translate(114.157 379.031)"><tspan x="0" y="0">반티 리스트</tspan></text>
        <path class="cls-6" d="m227.873,367.291c1.503,0,3.006-.003,4.509.001.951.003,1.744.288,2.197,1.211.47.958.064,1.702-.534,2.425-1.451,1.754-2.859,3.543-4.343,5.268-1.318,1.533-2.389,1.523-3.72-.029-1.519-1.771-2.972-3.598-4.452-5.402-.521-.635-.812-1.313-.452-2.145.374-.865,1.045-1.293,1.954-1.309,1.614-.027,3.228-.008,4.842-.008v-.013Z"/>
        <g>
          <g>
            <path class="cls-13" d="m308.792,391.871c-10.975,0-19.903-8.929-19.903-19.903s8.929-19.903,19.903-19.903h83.821c10.975,0,19.903,8.929,19.903,19.903s-8.929,19.903-19.903,19.903h-83.821Z"/>
            <path class="cls-3" d="m392.614,353.065c10.423,0,18.903,8.48,18.903,18.903s-8.48,18.903-18.903,18.903h-83.822c-10.423,0-18.903-8.48-18.903-18.903s8.48-18.903,18.903-18.903h83.822m0-2h-83.822c-11.497,0-20.903,9.407-20.903,20.903s9.406,20.903,20.903,20.903h83.822c11.497,0,20.903-9.407,20.903-20.903s-9.406-20.903-20.903-20.903h0Z"/>
          </g>
          <rect class="cls-3" x="303.373" y="352.484" width="59.822" height="38.968" rx="3.871" ry="3.871"/>
          <text class="cls-25" transform="translate(376.752 379.03)"><tspan x="0" y="0">값</tspan></text>
          <text class="cls-25" transform="translate(313.898 379.031)"><tspan x="0" y="0" xml:space="preserve"> n</tspan></text>
          <path class="cls-6" d="m345.695,367.291c1.503,0,3.006-.003,4.509.001.951.003,1.744.288,2.197,1.211.47.958.064,1.702-.534,2.425-1.451,1.754-2.859,3.543-4.343,5.268-1.318,1.533-2.389,1.523-3.72-.029-1.519-1.771-2.972-3.598-4.452-5.402-.521-.635-.812-1.313-.452-2.145.374-.865,1.045-1.293,1.954-1.309,1.614-.027,3.228-.008,4.842-.008v-.013Z"/>
        </g>
      </g>
      <g>
        <circle class="cls-16" cx="637.568" cy="371.968" r="19.903"/>
        <path class="cls-19" d="m637.568,353.065c10.423,0,18.903,8.48,18.903,18.903s-8.48,18.903-18.903,18.903-18.903-8.48-18.903-18.903,8.48-18.903,18.903-18.903m0-2h0c-11.497,0-20.903,9.407-20.903,20.903s9.406,20.903,20.903,20.903h0c11.497,0,20.903-9.407,20.903-20.903s-9.406-20.903-20.903-20.903h0Z"/>
      </g>
      <text class="cls-26" transform="translate(634.33 379.031)"><tspan x="0" y="0">:</tspan></text>
      <g>
        <rect class="cls-4" x="1658.774" y="352.484" width="95.645" height="38.968" rx="3.871" ry="3.871"/>
        <text class="cls-25" transform="translate(1669.301 379.031)"><tspan x="0" y="0">말하기</tspan></text>
        <path class="cls-6" d="m1737.919,367.291c1.503,0,3.006-.003,4.509.001.951.003,1.744.288,2.197,1.211.47.958.064,1.702-.534,2.425-1.451,1.754-2.859,3.543-4.343,5.268-1.318,1.533-2.389,1.523-3.72-.029-1.519-1.771-2.972-3.598-4.452-5.402-.521-.635-.812-1.313-.452-2.145.374-.865,1.045-1.293,1.954-1.309,1.614-.027,3.228-.008,4.842-.008v-.013Z"/>
      </g>
      <g>
        <g>
          <g>
            <path class="cls-13" d="m755.996,391.871c-10.975,0-19.903-8.928-19.903-19.903s8.929-19.903,19.903-19.903h364.172c10.975,0,19.903,8.928,19.903,19.903s-8.929,19.903-19.903,19.903h-364.172Z"/>
            <path class="cls-3" d="m1120.167,353.065c10.423,0,18.903,8.48,18.903,18.903s-8.48,18.903-18.903,18.903h-364.172c-10.423,0-18.903-8.48-18.903-18.903s8.48-18.903,18.903-18.903h364.172m0-2h-364.172c-11.497,0-20.903,9.407-20.903,20.903s9.406,20.903,20.903,20.903h364.172c11.497,0,20.903-9.407,20.903-20.903s-9.406-20.903-20.903-20.903h0Z"/>
          </g>
          <rect class="cls-3" x="750.576" y="352.484" width="122.019" height="38.968" rx="3.871" ry="3.871"/>
          <text class="cls-25" transform="translate(885.506 379.03)"><tspan x="0" y="0">의</tspan></text>
          <text class="cls-25" transform="translate(761.104 379.03)"><tspan x="0" y="0">반티 총점</tspan></text>
          <path class="cls-6" d="m856.902,367.291c1.503,0,3.006-.003,4.509.001.951.003,1.744.288,2.197,1.211.47.958.064,1.702-.534,2.425-1.451,1.754-2.859,3.543-4.343,5.268-1.318,1.533-2.389,1.523-3.72-.029-1.519-1.771-2.972-3.598-4.452-5.402-.521-.635-.812-1.313-.452-2.145.374-.865,1.045-1.293,1.954-1.309,1.614-.027,3.228-.008,4.842-.008v-.013Z"/>
          <text class="cls-25" transform="translate(1044.495 379.03)"><tspan x="0" y="0">번째 항목</tspan></text>
        </g>
        <g>
          <g>
            <path class="cls-13" d="m936.778,391.871c-10.975,0-19.903-8.928-19.903-19.903s8.929-19.903,19.903-19.903h74.537c10.975,0,19.903,8.928,19.903,19.903s-8.929,19.903-19.903,19.903h-74.537Z"/>
            <path class="cls-3" d="m1011.315,353.065c10.423,0,18.903,8.48,18.903,18.903s-8.48,18.903-18.903,18.903h-74.537c-10.423,0-18.903-8.48-18.903-18.903s8.48-18.903,18.903-18.903h74.537m0-2h-74.537c-11.497,0-20.903,9.407-20.903,20.903s9.406,20.903,20.903,20.903h74.537c11.497,0,20.903-9.407,20.903-20.903s-9.406-20.903-20.903-20.903h0Z"/>
          </g>
          <rect class="cls-3" x="931.359" y="352.484" width="52.216" height="38.968" rx="3.871" ry="3.871"/>
          <text class="cls-25" transform="translate(996.486 379.027)"><tspan x="0" y="0">값</tspan></text>
          <text class="cls-25" transform="translate(941.885 379.027)"><tspan x="0" y="0">n</tspan></text>
          <path class="cls-6" d="m967.881,367.291c1.503,0,3.006-.003,4.509.001.951.003,1.744.288,2.197,1.211.47.958.064,1.702-.534,2.425-1.451,1.754-2.859,3.543-4.343,5.268-1.318,1.533-2.389,1.523-3.72-.029-1.519-1.771-2.972-3.598-4.452-5.402-.521-.635-.812-1.313-.452-2.145.374-.865,1.045-1.293,1.954-1.309,1.614-.027,3.228-.008,4.842-.008v-.013Z"/>
        </g>
      </g>
      <g>
        <circle class="cls-16" cx="1542.771" cy="371.968" r="19.903"/>
        <path class="cls-19" d="m1542.771,353.065c10.423,0,18.903,8.48,18.903,18.903s-8.48,18.903-18.903,18.903-18.903-8.48-18.903-18.903,8.48-18.903,18.903-18.903m0-2c-11.497,0-20.903,9.407-20.903,20.903s9.406,20.903,20.903,20.903,20.903-9.407,20.903-20.903-9.406-20.903-20.903-20.903h0Z"/>
      </g>
      <text class="cls-26" transform="translate(1536.535 379.031)"><tspan x="0" y="0">1</tspan></text>
    </g>
    <g>
      <path class="cls-28" d="m298.625,431.35H46.465l-12.543,11.548h0l-12.023-10.98c-.238-.218-.622-.049-.622.274v54.841l.171.168,11.328,10.345c.663.605,1.678.603,2.338-.004l10.91-10.045c.212-.195.49-.304.779-.304l251.823-.101c15.329,0,27.871-12.542,27.871-27.871s-12.542-27.871-27.871-27.871Z"/>
      <text class="cls-22" transform="translate(142.013 467.523) rotate(.173)"><tspan x="0" y="0">신호 보내기</tspan></text>
      <g>
        <path class="cls-2" d="m110.247,439.577c17.877,0-2.872,0,15.006,0,2.815,0,4.335,2.426,4.336,6.934.003,8.742.003,17.483,0,26.225-.001,4.509-1.521,6.935-4.336,6.935-35.754,0-32.883-.025-68.637.059-2.308.005-4.351-2.765-4.335-6.91.033-8.797.033-17.595,0-26.392-.015-4.145,2.027-6.926,4.335-6.912,17.877.11,35.754.061,53.631.061Z"/>
        <text class="cls-23" transform="translate(62.661 467.46)"><tspan x="0" y="0">결과</tspan></text>
        <path class="cls-6" d="m114.356,455.726c1.503,0,3.006-.003,4.509.001.951.003,1.744.288,2.197,1.211.47.958.064,1.702-.534,2.425-1.451,1.754-2.859,3.543-4.343,5.268-1.318,1.533-2.389,1.523-3.72-.029-1.519-1.771-2.972-3.598-4.452-5.402-.521-.635-.812-1.313-.452-2.145.374-.865,1.045-1.293,1.954-1.309,1.614-.027,3.228-.008,4.842-.008v-.013Z"/>
      </g>
      <g>
        <path class="cls-2" d="m272.875,459.224c.085-12.114,9.79-22.01,22.342-21.937,12.159.071,22.178,9.883,21.961,22.471-.203,11.764-9.754,21.773-22.498,21.598-12.042-.166-21.794-9.762-21.805-22.132Z"/>
        <g>
          <path class="cls-5" d="m307.259,454.003c0,1.542-.008,3.085.003,4.627.007.98-.264,1.487-1.38,1.043-2.268-.902-4.509-.654-6.762.172-1.828.67-3.715,1.034-5.658.417-.884-.281-1.324-.78-1.303-1.8.062-3.028.029-6.059.018-9.089-.004-1.006.123-1.673,1.394-1.023,1.992,1.019,3.969.447,5.902-.261,2.224-.814,4.426-1.176,6.743-.28.829.321,1.084.737,1.057,1.566-.05,1.541-.014,3.084-.015,4.627Z"/>
          <path class="cls-5" d="m290.623,458.205c0,3.197.023,6.395-.016,9.592-.01.805.134,1.195,1.061,1.136,1.142-.072,2.005.452,1.928,1.706-.072,1.164-.992,1.47-2.018,1.474-1.655.007-3.309.007-4.964,0-1.047-.005-1.902-.364-1.951-1.54-.05-1.196.799-1.68,1.838-1.632,1.034.048,1.134-.418,1.13-1.268-.03-5.898-.016-11.797-.015-17.695,0-.441.007-.882,0-1.323-.018-1.057.309-1.93,1.507-1.952,1.222-.022,1.511.85,1.507,1.911-.014,3.197-.005,6.394-.005,9.592Z"/>
        </g>
      </g>
    </g>
  </g>
  <rect class="cls-10" x="50.181" y="239.372" width="248.774" height="41.806" rx="20.903" ry="20.903"/>
</svg>