<?xml version="1.0" encoding="UTF-8"?>
<svg id="_레이어_2" data-name="레이어 2" xmlns="http://www.w3.org/2000/svg" viewBox="0 0 830.737 204.457">
  <defs>
    <style>
      .cls-1 {
        stroke: #bfbfbf;
      }

      .cls-1, .cls-2, .cls-3, .cls-4, .cls-5 {
        stroke-miterlimit: 10;
      }

      .cls-1, .cls-6, .cls-7, .cls-8, .cls-9 {
        fill: #fff;
      }

      .cls-2 {
        stroke: #f5aca7;
      }

      .cls-2, .cls-3, .cls-4, .cls-5 {
        stroke-width: 1.5px;
      }

      .cls-2, .cls-4 {
        fill: #e63022;
      }

      .cls-6, .cls-10 {
        font-size: 26px;
      }

      .cls-6, .cls-10, .cls-8, .cls-9 {
        font-family: D2Coding, D2Coding;
      }

      .cls-10 {
        fill: #575e75;
      }

      .cls-3 {
        fill: #d400d4;
        stroke: #9f009f;
      }

      .cls-4, .cls-5 {
        stroke: #ad241a;
      }

      .cls-7, .cls-11, .cls-12 {
        stroke-width: 0px;
      }

      .cls-8 {
        font-size: 26.581px;
      }

      .cls-11 {
        fill: #b4281d;
      }

      .cls-9 {
        font-size: 25px;
      }

      .cls-5 {
        fill: #c4291d;
      }

      .cls-12 {
        fill: #d22e22;
      }
    </style>
  </defs>
  <g>
    <g>
      <path class="cls-3" d="m84.158,165.882h-21.05c-1.723,0-3.364-.74-4.505-2.031l-8.586-9.72c-1.141-1.292-2.781-2.031-4.505-2.031h-13.331c-3.32,0-6.011-2.691-6.011-6.011v-62.913c0-3.32,2.691-6.011,6.011-6.011h13.331c1.723,0,3.364.74,4.505,2.031l8.586,9.72c1.141,1.292,2.781,2.031,4.505,2.031h21.05c1.691,0,3.304-.712,4.443-1.963l8.981-9.857c1.139-1.25,2.752-1.963,4.443-1.963h184.299c3.32,0,6.011-2.691,6.011-6.011V6.761c0-3.32-2.691-6.011-6.011-6.011H6.761C3.441.75.75,3.441.75,6.761v190.935c0,3.32,2.691,6.011,6.011,6.011h279.564c3.32,0,6.011-2.691,6.011-6.011v-39.586c0-3.32-2.691-6.011-6.011-6.011H102.025c-1.691,0-3.304.712-4.443,1.963l-8.981,9.857c-1.139,1.25-2.752,1.963-4.443,1.963Z"/>
      <g>
        <rect class="cls-3" x="13.46" y="13.843" width="89.291" height="50.382" rx="5.743" ry="5.743"/>
        <path class="cls-7" d="m81.302,43.54l-6.78-6.353c-.801-.75-.27-2.093.827-2.093h13.56c1.097,0,1.628,1.343.827,2.093l-6.78,6.353c-.465.436-1.189.436-1.655,0Z"/>
        <text class="cls-9" transform="translate(30.932 47.152)"><tspan x="0" y="0">A+B</tspan></text>
      </g>
    </g>
    <text class="cls-9" transform="translate(115.298 46.946)"><tspan x="0" y="0">버튼 누를 때</tspan></text>
  </g>
  <g>
    <g>
      <path class="cls-4" d="m102.017,77.145c-1.691,0-3.304.712-4.443,1.962l-8.981,9.857c-1.139,1.25-2.752,1.963-4.443,1.963h-21.051c-1.723,0-3.364-.74-4.505-2.031l-8.586-9.72c-1.141-1.292-2.781-2.031-4.505-2.031h-13.331c-3.32,0-6.011,2.691-6.011,6.011v63.097c0,3.32,2.691,6.011,6.011,6.011h13.331c1.723,0,3.364.74,4.505,2.031l8.586,9.72c1.141,1.292,2.781,2.031,4.505,2.031h21.051c1.691,0,3.304-.712,4.443-1.963l8.981-9.857c1.139-1.25,2.752-1.962,4.443-1.962h722.259c3.154,0,5.711-2.557,5.711-5.711v-63.697c0-3.154-2.557-5.711-5.711-5.711H102.017Z"/>
      <text class="cls-6" transform="translate(38.702 122.316)"><tspan x="0" y="0">재생</tspan></text>
      <g>
        <rect class="cls-4" x="577.857" y="89.025" width="236.713" height="50.839" rx="6.195" ry="6.195"/>
        <text class="cls-8" transform="translate(595.473 122.572)"><tspan x="0" y="0">완료될 때까지</tspan></text>
        <g>
          <path class="cls-7" d="m791.148,120.535c-.437,0-.852-.164-1.17-.462l-6.78-6.354c-.516-.483-.681-1.22-.421-1.876s.885-1.081,1.591-1.081h13.56c.707,0,1.331.424,1.591,1.082.259.657.094,1.393-.422,1.876l-6.779,6.354c-.318.298-.733.462-1.169.462Z"/>
          <path class="cls-12" d="m797.928,111.262c1.097,0,1.628,1.343.828,2.093l-6.78,6.353c-.233.218-.53.327-.828.327s-.595-.109-.827-.327l-6.78-6.353c-.801-.75-.27-2.093.827-2.093h13.56m0-1h-13.56c-.913,0-1.72.549-2.055,1.398s-.122,1.801.544,2.425l6.78,6.353c.411.385.948.597,1.511.597s1.101-.212,1.512-.598l6.78-6.353c.667-.624.88-1.576.544-2.425-.335-.849-1.142-1.397-2.055-1.397h0Z"/>
        </g>
      </g>
    </g>
    <g>
      <rect class="cls-2" x="101.714" y="84.217" width="467.241" height="60.454" rx="30.227" ry="30.227"/>
      <g>
        <rect class="cls-1" x="108.404" y="90.391" width="71.518" height="48.106" rx="24.053" ry="24.053"/>
        <text class="cls-10" transform="translate(129.879 121.901)"><tspan x="0" y="0">미</tspan></text>
      </g>
      <text class="cls-6" transform="translate(424.643 123.365)"><tspan x="0" y="0">동안 재생</tspan></text>
    </g>
    <text class="cls-6" transform="translate(191.605 122.316)"><tspan x="0" y="0">음을</tspan></text>
    <g>
      <rect class="cls-5" x="256.108" y="89.025" width="154.351" height="50.788" rx="25.394" ry="25.394"/>
      <text class="cls-6" transform="translate(276.769 122.339)"><tspan x="0" y="0">1</tspan></text>
      <text class="cls-6" transform="translate(335.888 122.339)"><tspan x="0" y="0">박자</tspan></text>
      <g>
        <path class="cls-7" d="m312.524,119.782c-.437,0-.852-.165-1.169-.462l-6.78-6.353c-.516-.483-.681-1.22-.421-1.876.26-.657.884-1.082,1.59-1.082h13.561c.706,0,1.33.424,1.59,1.082.26.657.095,1.394-.421,1.876l-6.78,6.353c-.317.298-.732.462-1.169.462Z"/>
        <path class="cls-11" d="m319.304,110.509c1.097,0,1.628,1.343.828,2.093l-6.78,6.353c-.233.218-.53.327-.827.327s-.595-.109-.828-.327l-6.78-6.353c-.801-.75-.27-2.093.827-2.093h13.56m0-1h-13.56c-.913,0-1.72.549-2.055,1.398-.336.849-.122,1.801.544,2.425l6.78,6.353c.411.385.948.597,1.511.597s1.1-.212,1.511-.597l6.78-6.353c.666-.624.88-1.576.544-2.425s-1.142-1.398-2.055-1.398h0Z"/>
      </g>
    </g>
  </g>
</svg>