<?xml version="1.0" encoding="UTF-8"?>
<svg id="_레이어_1" data-name="레이어 1" xmlns="http://www.w3.org/2000/svg" viewBox="0 0 289.72 146.701">
  <defs>
    <style>
      .cls-1 {
        fill: #fefefe;
        font-size: 26px;
      }

      .cls-1, .cls-2 {
        font-family: Pretendard-Bold-KSCpc-EUC-H, Pretendard;
        font-weight: 700;
      }

      .cls-3 {
        fill: #19baea;
        stroke: #1498c0;
        stroke-linecap: round;
        stroke-linejoin: round;
        stroke-width: 2px;
      }

      .cls-4 {
        fill: #6dddfe;
      }

      .cls-4, .cls-5, .cls-6, .cls-7 {
        stroke-width: 0px;
      }

      .cls-5 {
        fill: #1498c0;
      }

      .cls-2 {
        font-size: 22px;
        letter-spacing: -.025em;
      }

      .cls-6 {
        fill: #fedd81;
      }

      .cls-7 {
        fill: #fe9b00;
      }
    </style>
  </defs>
  <g>
    <path class="cls-3" d="m272.937,102.523H51.228l-11.613,11.226-11.538-11.226v-45.68l12.441,11.461,12.387-11.471,207.943-.091c16.083,0,29.097-13.805,27.779-30.151-1.175-14.565-13.733-25.591-28.345-25.591H26.188l-12.543,11.548L1.622,1.568c-.238-.218-.622-.049-.622.274v54.741c0,.047.011.092.028.135h-.004l.091.134.056,77.237,12.379,11.613,12.516-11.613h246.871c8.716,0,15.782-7.066,15.782-15.783s-7.066-15.783-15.782-15.783Z"/>
    <g>
      <path class="cls-5" d="m278.597,28.915c.233,11.599-9.583,22.21-22.59,21.903-11.361-.268-21.522-9.45-21.508-22.104.014-12.581,10.427-22.278,22.629-21.994,11.969.279,21.786,10.209,21.47,22.194Z"/>
      <path class="cls-4" d="m264.681,30.447c-.095,0-.185.021-.279.028l-4.684-7.075c.647-.892.942-2.055.623-3.302-.356-1.388-1.5-2.504-2.899-2.812-2.553-.562-4.81,1.366-4.81,3.821,0,.859.284,1.646.753,2.292l-4.684,7.075c-.094-.007-.183-.028-.279-.028-2.466,0-4.4,2.277-3.814,4.843.323,1.416,1.474,2.567,2.89,2.89,2.566.586,4.843-1.348,4.843-3.814,0-1.153-.507-2.18-1.3-2.897l4.386-6.625c.358.108.731.183,1.124.183s.766-.076,1.124-.183l4.386,6.625c-1.013.917-1.56,2.338-1.178,3.884.344,1.389,1.482,2.51,2.877,2.828,2.564.583,4.839-1.35,4.839-3.815,0-2.165-1.755-3.919-3.919-3.919Z"/>
    </g>
    <text class="cls-1" transform="translate(99.869 36.671)"><tspan x="0" y="0">번 반복하기</tspan></text>
  </g>
  <g>
    <g>
      <path class="cls-6" d="m50.808,47.64c-10.975,0-19.903-8.928-19.903-19.902S39.833,7.834,50.808,7.834h10.968c10.975,0,19.903,8.928,19.903,19.903s-8.928,19.903-19.903,19.903h-10.968Z"/>
      <path class="cls-7" d="m61.776,8.834c10.423,0,18.903,8.48,18.903,18.903s-8.48,18.903-18.903,18.903h-10.968c-10.423,0-18.903-8.48-18.903-18.903s8.48-18.903,18.903-18.903h10.968m0-2h-10.968c-11.497,0-20.903,9.406-20.903,20.903h0c0,11.497,9.406,20.903,20.903,20.903h10.968c11.497,0,20.903-9.406,20.903-20.903h0c0-11.497-9.406-20.903-20.903-20.903h0Z"/>
    </g>
    <text class="cls-2" transform="translate(44.424 34.8)"><tspan x="0" y="0">10</tspan></text>
  </g>
</svg>