<?xml version="1.0" encoding="UTF-8"?>
<svg id="_레이어_2" data-name="레이어 2" xmlns="http://www.w3.org/2000/svg" viewBox="0 0 652.883 734.598">
  <defs>
    <style>
      .cls-1 {
        fill: #c72345;
      }

      .cls-1, .cls-2, .cls-3, .cls-4, .cls-5, .cls-6, .cls-7, .cls-8, .cls-9, .cls-10, .cls-11, .cls-12, .cls-13, .cls-14, .cls-15, .cls-16, .cls-17, .cls-18, .cls-19, .cls-20, .cls-21 {
        stroke-width: 0px;
      }

      .cls-2, .cls-22, .cls-23, .cls-24, .cls-25, .cls-26 {
        fill: #fefefe;
      }

      .cls-27, .cls-28, .cls-29, .cls-26 {
        letter-spacing: -.025em;
      }

      .cls-3 {
        fill: #fe7a22;
      }

      .cls-30 {
        letter-spacing: -.05em;
      }

      .cls-4 {
        fill: #b819b3;
      }

      .cls-31 {
        fill: #dc47d7;
        stroke: #b719b2;
        stroke-miterlimit: 10;
      }

      .cls-31, .cls-32, .cls-33, .cls-34, .cls-35 {
        stroke-width: 2px;
      }

      .cls-28, .cls-22, .cls-23, .cls-29, .cls-24, .cls-36, .cls-25, .cls-26 {
        font-family: Pretendard-Bold-KSCpc-EUC-H, Pretendard;
        font-weight: 700;
      }

      .cls-28, .cls-11 {
        fill: #fff;
      }

      .cls-28, .cls-23, .cls-29, .cls-36, .cls-26 {
        font-size: 22px;
      }

      .cls-5 {
        fill: #f8c435;
      }

      .cls-6 {
        fill: #fefdfe;
      }

      .cls-37 {
        letter-spacing: -.057em;
      }

      .cls-7 {
        fill: #c62042;
      }

      .cls-32 {
        fill: #fe3a61;
        stroke: #c62142;
      }

      .cls-32, .cls-33, .cls-34, .cls-35 {
        stroke-linecap: round;
        stroke-linejoin: round;
      }

      .cls-38 {
        letter-spacing: -.042em;
      }

      .cls-8 {
        fill: #1b3ad8;
      }

      .cls-22, .cls-24, .cls-25 {
        font-size: 26px;
      }

      .cls-9 {
        fill: #b719b2;
      }

      .cls-10 {
        fill: #fe9b01;
      }

      .cls-33 {
        fill: #19baea;
        stroke: #1498c0;
      }

      .cls-12 {
        fill: #6dddfe;
      }

      .cls-13 {
        fill: #1498c0;
      }

      .cls-34 {
        fill: #de5c04;
        stroke: #a14100;
      }

      .cls-14, .cls-35 {
        fill: #dd47d8;
      }

      .cls-15 {
        fill: #4562f5;
      }

      .cls-35 {
        stroke: #b819b3;
      }

      .cls-16 {
        fill: #f577f1;
      }

      .cls-17 {
        fill: #fedd81;
      }

      .cls-18 {
        fill: #f677f2;
      }

      .cls-24 {
        letter-spacing: -.025em;
      }

      .cls-19 {
        fill: #fe9b00;
      }

      .cls-39 {
        letter-spacing: -.01em;
      }

      .cls-25 {
        letter-spacing: -.01em;
      }

      .cls-20 {
        fill: #a14100;
      }

      .cls-21 {
        fill: #fe5576;
      }
    </style>
  </defs>
  <g>
    <path class="cls-34" d="m466.038,703.356c-1.175-14.565-13.733-25.591-28.345-25.591l-383.612.568h0s-1.375,0-1.375,0l-11.613,11.226-13.016-11.226V56.843l12.441,11.461,12.387-11.471,273.855-.091c16.083,0,29.097-13.806,27.779-30.151-1.175-14.565-13.733-25.591-28.345-25.591L1.622,1.568c-.238-.217-.622-.048-.622.274l.171,731.756,437.088-.091c16.083,0,29.097-13.806,27.779-30.151Z"/>
    <path class="cls-20" d="m344.509,28.507c.233,11.599-9.583,22.21-22.59,21.903-11.361-.268-21.522-9.45-21.508-22.104.014-12.581,10.427-22.278,22.629-21.994,11.969.279,21.786,10.209,21.47,22.194Z"/>
    <path class="cls-3" d="m326.876,25.568c1.407,0,2.395-.012,3.384.004.851.014,1.445.399,1.556,1.288.12.962-.563,1.285-1.317,1.519-.079.025-.977.08-1.047.061-3.895-.745-5.166,2.691-6.968,5.688-1.973,3.282-4.638,5.369-8.75,4.954-1.005-.101-1.949-.347-2.123-1.35-.208-1.2,1.021-.942,1.691-1.305,3.006-1.631,3.894-4.763,5.328-7.535-.849-.677-1.708-.269-2.483-.419-.887-.172-1.685-.555-1.601-1.554.067-.795.741-1.257,1.574-1.335.33-.031.676-.081.994-.017,2.34.468,3.589-.727,4.689-2.649,1.419-2.479,3.285-4.62,6.33-5.208,1.965-.38,3.644.13,4.821,1.803.593.843.499,1.736-.279,2.472-.735.695-1.343.452-1.831-.318-.614-.968-1.097-.293-1.572.131-1.022.911-1.408,2.213-2.396,3.771Z"/>
    <text class="cls-25" transform="translate(54.017 714.002)"><tspan x="0" y="0">결과값을</tspan></text>
    <text class="cls-25" transform="translate(310.514 714.002)"><tspan x="0" y="0">(으)로 정하기</tspan></text>
    <g>
      <g>
        <path class="cls-14" d="m174.655,725.558c-10.975,0-19.903-8.929-19.903-19.903s8.929-19.903,19.903-19.903h100.177c10.975,0,19.903,8.929,19.903,19.903s-8.929,19.903-19.903,19.903h-100.177Z"/>
        <path class="cls-4" d="m274.832,686.751c10.423,0,18.903,8.48,18.903,18.903s-8.48,18.903-18.903,18.903h-100.177c-10.423,0-18.903-8.48-18.903-18.903s8.48-18.903,18.903-18.903h100.177m0-2h-100.177c-11.497,0-20.903,9.406-20.903,20.903h0c0,11.497,9.406,20.903,20.903,20.903h100.177c11.497,0,20.903-9.406,20.903-20.903h0c0-11.497-9.406-20.903-20.903-20.903h0Z"/>
      </g>
      <rect class="cls-4" x="169.235" y="686.171" width="77.857" height="38.968" rx="3.871" ry="3.871"/>
      <text class="cls-28" transform="translate(260.004 712.713)"><tspan x="0" y="0">값</tspan></text>
      <text class="cls-28" transform="translate(179.76 712.713)"><tspan x="0" y="0">정답</tspan></text>
      <path class="cls-6" d="m231.399,700.977c1.503,0,3.006-.003,4.509.001.951.003,1.744.288,2.197,1.211.47.958.064,1.702-.534,2.425-1.451,1.754-2.859,3.543-4.343,5.268-1.318,1.533-2.389,1.523-3.72-.029-1.519-1.771-2.972-3.598-4.452-5.402-.521-.635-.812-1.313-.452-2.145.374-.865,1.045-1.293,1.954-1.309,1.614-.027,3.228-.008,4.842-.008v-.013Z"/>
    </g>
    <g>
      <path class="cls-5" d="m282.034,16.001c-.019-2.311-1.424-3.584-3.714-3.788-1.024-.091-2.059-.045-3.089-.065-.8-.016-1.602-.079-1.818-1.054-.956-4.323-3.974-5.172-7.924-5.16l-79.09.039c-1.724,0-3.441-.053-4.959.989-1.426.98-2.614,2.39-2.425,4.002.201,1.71,2.138.862,3.242,1.062,3.776.686,4.647,1.535,4.651,5.389.009,7.293.007,14.587.001,21.88-.003,4.263-1.371,5.669-5.632,5.818-2.678.094-2.979.684-1.574,2.99,1.549,2.542,3.94,2.917,6.671,2.915l79.864-.026c.515,0,1.03-.015,1.545-.013,2.331.011,4.337-1.203,4.849-3.179.806-3.113,2.747-3.06,5.157-3.034,2.719.03,4.236-1.411,4.257-4.055.065-8.237.056-16.474-.012-24.71Z"/>
      <text class="cls-29" transform="translate(203.453 34.992)"><tspan x="0" y="0">업다운</tspan></text>
    </g>
    <text class="cls-25" transform="translate(27.015 36.942)"><tspan x="0" y="0">함수 정의하기</tspan></text>
  </g>
  <g>
    <g>
      <path class="cls-35" d="m453.299,55.429H53.203s0,0,0,0l-12.543,11.548s0,0,0,0l-12.023-10.98c-.238-.218-.622-.049-.622.274v54.741c0,.047.011.092.028.135h-.003l.004.004c.02.048.048.093.087.13h.056l11.328,10.345c.663.605,1.678.603,2.338-.005l10.91-10.045c.212-.195.49-.304.779-.304l399.76-.101c15.329,0,27.871-12.542,27.871-27.871h0c0-15.329-12.542-27.871-27.871-27.871Z"/>
      <g>
        <path class="cls-9" d="m474.248,83.344c.233,11.599-9.583,22.21-22.59,21.903-11.361-.268-21.522-9.45-21.508-22.104.014-12.581,10.427-22.278,22.629-21.994,11.969.279,21.786,10.209,21.47,22.194Z"/>
        <path class="cls-18" d="m452.516,73.181c1.421.066,3.283.498,4.796,1.905,2.464,2.29,2.614,5.317.342,7.812-.823.903-1.728,1.735-2.634,2.558-.847.769-1.497,1.641-1.723,2.78-.285,1.438-1.202,2.017-2.552,1.624-1.294-.377-1.297-1.572-1.154-2.621.299-2.203,1.86-3.593,3.427-4.952.334-.29.717-.537.999-.87,1.487-1.758,1.36-3.4-.321-4.537-1.47-.995-3.897-.403-4.808,1.208-.326.577-.531,1.221-.815,1.823-.524,1.11-1.42,1.65-2.58,1.204-1.144-.44-1.405-1.351-1.1-2.592.769-3.131,3.806-5.339,8.123-5.343Z"/>
        <path class="cls-16" d="m451.49,95.896c-1.271-.012-2.113-.925-2.059-2.258.054-1.311.741-2.044,2.063-2.095,1.32-.051,2.369,1,2.32,2.267-.048,1.226-1.02,2.098-2.324,2.086Z"/>
      </g>
    </g>
    <g>
      <path class="cls-4" d="m59.248,69.569v27.721c0,3.45,2.808,6.244,6.257,6.235,25.312-.061,39.122-.046,64.447-.044,3.444,0,6.242-2.791,6.242-6.235v-27.63c0-3.441-2.787-6.231-6.228-6.235l-64.476-.046c-3.447-.004-6.243,2.789-6.243,6.235Z"/>
      <text class="cls-23" transform="translate(69.627 91.269)"><tspan x="0" y="0">성공</tspan></text>
      <path class="cls-6" d="m122.615,79.535c1.503,0,3.006-.003,4.509.001.951.003,1.744.288,2.197,1.211.47.958.064,1.702-.534,2.425-1.451,1.754-2.859,3.543-4.343,5.268-1.318,1.533-2.389,1.523-3.72-.029-1.519-1.771-2.972-3.598-4.452-5.402-.521-.635-.812-1.313-.452-2.145.374-.865,1.045-1.293,1.954-1.309,1.614-.027,3.228-.008,4.842-.008v-.013Z"/>
    </g>
    <text class="cls-25" transform="translate(152.014 91.779)"><tspan x="0" y="0">을(를)</tspan></text>
    <text class="cls-25" transform="translate(285.122 91.779)"><tspan x="0" y="0">(으)로정하기</tspan></text>
    <g>
      <g>
        <path class="cls-17" d="m249.175,103.332c-10.975,0-19.903-8.929-19.903-19.903s8.929-19.903,19.903-19.903,19.903,8.929,19.903,19.903-8.928,19.903-19.903,19.903Z"/>
        <path class="cls-19" d="m249.174,64.526c10.423,0,18.903,8.48,18.903,18.903s-8.48,18.903-18.903,18.903-18.903-8.48-18.903-18.903,8.48-18.903,18.903-18.903m0-2c-11.497,0-20.903,9.406-20.903,20.903s9.406,20.903,20.903,20.903,20.903-9.406,20.903-20.903-9.406-20.903-20.903-20.903h0Z"/>
      </g>
      <text class="cls-29" transform="translate(242.923 90.491)"><tspan x="0" y="0">0</tspan></text>
    </g>
  </g>
  <g>
    <g>
      <path class="cls-31" d="m624.012,111.205H53.203l-12.543,11.141-12.024-10.593c-.238-.21-.622-.047-.622.265v52.811c0,.098.042.191.115.259l12.53,11.113,12.543-11.219h570.809c15.329,0,27.871-12.1,27.871-26.888h0c0-14.789-12.542-26.888-27.871-26.888Z"/>
      <path class="cls-9" d="m599.727,138.599c.085-12.114,9.79-22.01,22.342-21.937,12.159.071,22.178,9.883,21.961,22.471-.203,11.764-9.754,21.773-22.498,21.598-12.042-.166-21.794-9.762-21.805-22.132Z"/>
      <text class="cls-24" transform="translate(326.699 146.887)"><tspan x="0" y="0">을(를) 묻고 대답 기다리기</tspan></text>
      <path class="cls-18" d="m621.687,128.654c3.973.048,6.605,2.132,7.169,5.536.236,1.421-.185,2.643-1.127,3.671-.864.943-1.773,1.854-2.731,2.702-1.025.909-1.869,1.892-2.145,3.28-.232,1.167-.936,1.732-2.155,1.54-1.232-.194-1.334-1.074-1.385-2.104-.103-2.069,1.042-3.441,2.431-4.709.657-.599,1.396-1.122,1.982-1.782,1.412-1.588,1.315-3.285-.17-4.344-1.397-.997-3.888-.624-4.788.786-.444.696-.76,1.483-1.061,2.257-.461,1.186-1.382,1.378-2.45,1.155-1.088-.227-1.328-1.054-1.254-2.043.193-2.571,1.812-4.116,3.935-5.163,1.186-.585,2.528-.865,3.748-.783Z"/>
      <path class="cls-16" d="m621.204,151.366c-1.32,0-2.19-.878-2.179-2.197.011-1.354.827-2.157,2.191-2.156,1.361,0,2.177.81,2.183,2.167.006,1.3-.885,2.187-2.195,2.186Z"/>
    </g>
    <g>
      <g>
        <path class="cls-17" d="m76.004,157.965c-10.975,0-19.903-8.929-19.903-19.903s8.929-19.903,19.903-19.903h213.153c10.975,0,19.903,8.929,19.903,19.903s-8.929,19.903-19.903,19.903H76.004Z"/>
        <path class="cls-19" d="m289.157,119.159c10.423,0,18.903,8.48,18.903,18.903s-8.48,18.903-18.903,18.903H76.004c-10.423,0-18.903-8.48-18.903-18.903s8.48-18.903,18.903-18.903h213.153m0-2H76.004c-11.497,0-20.903,9.406-20.903,20.903h0c0,11.497,9.406,20.903,20.903,20.903h213.153c11.497,0,20.903-9.406,20.903-20.903h0c0-11.497-9.406-20.903-20.903-20.903h0Z"/>
      </g>
      <text class="cls-36" transform="translate(70.54 145.125)"><tspan class="cls-39" x="0" y="0">숫자를 입력하세요(1~50)</tspan><tspan class="cls-38" x="224.026" y="0">.</tspan></text>
    </g>
  </g>
  <g>
    <path class="cls-33" d="m562.924,646.183H79.72s-12.037,11.07-12.037,11.07l-12.592-11.07v-255.054c0-.43.509-.657.829-.37l11.752,10.538,12.387-11.471,471.222-.092c16.082,0,29.096-13.803,27.779-30.148-1.174-14.566-13.732-25.593-28.345-25.593H79.684s-12.133,11.19-12.133,11.19l-12.487-11.326.026-112.033,12.441,11.461,12.387-11.472,471.361-.091c16.083,0,29.098-13.806,27.779-30.152-1.175-14.565-13.733-25.591-28.346-25.591H53.203s-12.543,11.549-12.543,11.549l-12.023-10.98c-.238-.218-.622-.049-.622.274l.171,510.925,12.379,11.613,12.516-11.613h510.289c8.969,0,16.191-7.482,15.764-16.545-.399-8.489-7.712-15.02-16.21-15.02Z"/>
    <path class="cls-13" d="m569.029,194.048c.233,11.599-9.583,22.21-22.59,21.903-11.361-.268-21.522-9.45-21.508-22.104.014-12.581,10.427-22.278,22.629-21.994,11.969.279,21.786,10.209,21.47,22.194Z"/>
    <path class="cls-12" d="m555.113,195.581c-.095,0-.185.021-.279.028l-4.684-7.075c.647-.892.943-2.055.623-3.302-.356-1.388-1.5-2.503-2.899-2.812-2.553-.562-4.81,1.366-4.81,3.821,0,.859.284,1.646.753,2.292l-4.684,7.075c-.094-.007-.183-.028-.279-.028-2.466,0-4.4,2.277-3.814,4.843.323,1.416,1.474,2.567,2.89,2.89,2.566.586,4.843-1.348,4.843-3.814,0-1.153-.507-2.18-1.3-2.897l4.386-6.625c.358.108.731.183,1.124.183s.766-.076,1.124-.183l4.386,6.625c-1.013.917-1.56,2.338-1.178,3.884.344,1.389,1.482,2.51,2.878,2.828,2.564.583,4.839-1.35,4.839-3.815,0-2.165-1.755-3.919-3.919-3.919Z"/>
    <text class="cls-22" transform="translate(83.287 373.035)"><tspan x="0" y="0">아니면</tspan></text>
  </g>
  <g>
    <text class="cls-22" transform="translate(440.388 201.952)"><tspan x="0" y="0">이라면</tspan></text>
    <text class="cls-22" transform="translate(65.407 201.952)"><tspan x="0" y="0">만일</tspan></text>
  </g>
  <g>
    <g>
      <g>
        <polygon class="cls-15" points="141.379 213.509 125.852 193.606 141.379 173.702 408.705 173.702 424.231 193.606 408.705 213.509 141.379 213.509"/>
        <path class="cls-8" d="m408.217,174.702l14.746,18.903-14.746,18.903H141.867l-14.746-18.903,14.746-18.903h266.35m.976-2H140.89l-16.306,20.903,16.306,20.903h268.303l16.306-20.903-16.306-20.903h0Z"/>
      </g>
      <rect class="cls-8" x="220.844" y="173.799" width="29.373" height="39.613" rx="3.355" ry="3.355"/>
      <path class="cls-11" d="m231.828,193.921l7.654,8.706v-3.029s-5.546-6.309-5.546-6.309l5.546-5.808v-2.896s-7.626,7.985-7.626,7.985c-.357.375-.37.961-.027,1.351Z"/>
    </g>
    <g>
      <g>
        <path class="cls-14" d="m286.379,213.509c-10.975,0-19.903-8.929-19.903-19.903s8.929-19.903,19.903-19.903h100.177c10.975,0,19.903,8.929,19.903,19.903s-8.929,19.903-19.903,19.903h-100.177Z"/>
        <path class="cls-4" d="m386.557,174.702c10.423,0,18.903,8.48,18.903,18.903s-8.48,18.903-18.903,18.903h-100.177c-10.423,0-18.903-8.48-18.903-18.903s8.48-18.903,18.903-18.903h100.177m0-2h-100.177c-11.497,0-20.903,9.406-20.903,20.903h0c0,11.497,9.406,20.903,20.903,20.903h100.177c11.497,0,20.903-9.406,20.903-20.903h0c0-11.497-9.406-20.903-20.903-20.903h0Z"/>
      </g>
      <rect class="cls-4" x="280.96" y="174.122" width="77.857" height="38.968" rx="3.871" ry="3.871"/>
      <text class="cls-28" transform="translate(371.727 200.664)"><tspan x="0" y="0">값</tspan></text>
      <text class="cls-28" transform="translate(291.483 200.664)"><tspan x="0" y="0">정답</tspan></text>
      <path class="cls-6" d="m343.123,188.928c1.503,0,3.006-.003,4.509.001.951.003,1.744.288,2.197,1.211.47.958.064,1.702-.534,2.425-1.451,1.754-2.859,3.543-4.343,5.268-1.318,1.533-2.389,1.523-3.72-.029-1.519-1.771-2.972-3.598-4.452-5.402-.521-.635-.812-1.313-.452-2.145.374-.865,1.045-1.293,1.954-1.309,1.614-.027,3.228-.008,4.842-.008v-.013Z"/>
    </g>
    <g>
      <g>
        <path class="cls-14" d="m162.575,213.336c-10.975,0-19.903-8.929-19.903-19.903s8.928-19.903,19.903-19.903h24.234c10.975,0,19.903,8.929,19.903,19.903s-8.929,19.903-19.903,19.903h-24.234Z"/>
        <path class="cls-4" d="m186.809,174.53c10.423,0,18.903,8.48,18.903,18.903s-8.48,18.903-18.903,18.903h-24.234c-10.423,0-18.903-8.48-18.903-18.903s8.48-18.903,18.903-18.903h24.234m0-2h-24.234c-11.497,0-20.903,9.406-20.903,20.903s9.406,20.903,20.903,20.903h24.234c11.497,0,20.903-9.406,20.903-20.903s-9.406-20.903-20.903-20.903h0Z"/>
      </g>
      <text class="cls-28" transform="translate(157.067 200.494)"><tspan x="0" y="0">대답</tspan></text>
    </g>
  </g>
  <g>
    <path class="cls-33" d="m589.956,614.542H106.752s-12.037,11.07-12.037,11.07l-12.592-11.07v-55.413c0-.43.509-.657.829-.37l11.752,10.538,12.387-11.471,471.222-.092c16.082,0,29.096-13.803,27.779-30.148-1.174-14.566-13.732-25.593-28.345-25.593H106.717s-12.133,11.19-12.133,11.19l-12.487-11.326.026-55.965,12.441,11.461,12.387-11.472,471.361-.091c16.083,0,29.098-13.806,27.779-30.152-1.175-14.565-13.733-25.591-28.346-25.591H80.235s-12.543,11.549-12.543,11.549l-12.023-10.98c-.238-.218-.622,13.718-.622,8.041l.171,247.449,12.379,11.613,12.516-11.613h510.289c8.969,0,16.191-7.482,15.764-16.545-.399-8.489-7.712-15.02-16.21-15.02Z"/>
    <path class="cls-13" d="m596.061,418.116c.233,11.599-9.583,22.21-22.59,21.903-11.361-.268-21.522-9.45-21.508-22.104.014-12.581,10.427-22.278,22.629-21.994,11.969.279,21.786,10.209,21.47,22.194Z"/>
    <path class="cls-12" d="m582.145,419.649c-.095,0-.185.021-.279.028l-4.684-7.075c.647-.892.943-2.055.623-3.302-.356-1.388-1.5-2.503-2.899-2.812-2.553-.562-4.81,1.366-4.81,3.821,0,.859.284,1.646.753,2.292l-4.684,7.075c-.094-.007-.183-.028-.279-.028-2.466,0-4.4,2.277-3.814,4.843.323,1.416,1.474,2.567,2.89,2.89,2.566.586,4.843-1.348,4.843-3.814,0-1.153-.507-2.18-1.3-2.897l4.386-6.625c.358.108.731.183,1.124.183s.766-.076,1.124-.183l4.386,6.625c-1.013.917-1.56,2.338-1.178,3.884.344,1.389,1.482,2.51,2.878,2.828,2.564.583,4.839-1.35,4.839-3.815,0-2.165-1.755-3.919-3.919-3.919Z"/>
    <text class="cls-22" transform="translate(110.32 541.035)"><tspan x="0" y="0">아니면</tspan></text>
  </g>
  <g>
    <text class="cls-22" transform="translate(467.421 426.02)"><tspan x="0" y="0">이라면</tspan></text>
    <text class="cls-22" transform="translate(92.44 426.02)"><tspan x="0" y="0">만일</tspan></text>
  </g>
  <g>
    <g>
      <g>
        <polygon class="cls-15" points="168.411 437.577 152.884 417.674 168.411 397.77 435.737 397.77 451.264 417.674 435.737 437.577 168.411 437.577"/>
        <path class="cls-8" d="m435.249,398.77l14.746,18.903-14.746,18.903H168.899l-14.746-18.903,14.746-18.903h266.35m.976-2H167.922l-16.306,20.903,16.306,20.903h268.303l16.306-20.903-16.306-20.903h0Z"/>
      </g>
      <rect class="cls-8" x="247.876" y="397.867" width="29.373" height="39.613" rx="3.355" ry="3.355"/>
      <path class="cls-11" d="m258.861,417.989l7.654,8.706v-3.029s-5.546-6.309-5.546-6.309l5.546-5.808v-2.896s-7.626,7.985-7.626,7.985c-.357.375-.37.961-.027,1.351Z"/>
    </g>
    <g>
      <g>
        <path class="cls-14" d="m313.412,437.577c-10.975,0-19.903-8.929-19.903-19.903s8.929-19.903,19.903-19.903h100.177c10.975,0,19.903,8.929,19.903,19.903s-8.929,19.903-19.903,19.903h-100.177Z"/>
        <path class="cls-4" d="m413.589,398.77c10.423,0,18.903,8.48,18.903,18.903s-8.48,18.903-18.903,18.903h-100.177c-10.423,0-18.903-8.48-18.903-18.903s8.48-18.903,18.903-18.903h100.177m0-2h-100.177c-11.497,0-20.903,9.406-20.903,20.903s9.406,20.903,20.903,20.903h100.177c11.497,0,20.903-9.406,20.903-20.903s-9.406-20.903-20.903-20.903h0Z"/>
      </g>
      <rect class="cls-4" x="307.992" y="398.19" width="77.857" height="38.968" rx="3.871" ry="3.871"/>
      <text class="cls-28" transform="translate(398.759 424.732)"><tspan x="0" y="0">값</tspan></text>
      <text class="cls-28" transform="translate(318.515 424.732)"><tspan x="0" y="0">정답</tspan></text>
      <path class="cls-6" d="m370.156,412.996c1.503,0,3.006-.003,4.509.001.951.003,1.744.288,2.197,1.211.47.958.064,1.702-.534,2.425-1.451,1.754-2.859,3.543-4.343,5.268-1.318,1.533-2.389,1.523-3.72-.029-1.519-1.771-2.972-3.598-4.452-5.402-.521-.635-.812-1.313-.452-2.145.374-.865,1.045-1.293,1.954-1.309,1.614-.027,3.228-.008,4.842-.008v-.013Z"/>
    </g>
    <g>
      <g>
        <path class="cls-14" d="m189.608,437.404c-10.975,0-19.903-8.929-19.903-19.903s8.929-19.903,19.903-19.903h24.233c10.975,0,19.903,8.929,19.903,19.903s-8.929,19.903-19.903,19.903h-24.233Z"/>
        <path class="cls-4" d="m213.841,398.598c10.423,0,18.903,8.48,18.903,18.903s-8.48,18.903-18.903,18.903h-24.234c-10.423,0-18.903-8.48-18.903-18.903s8.48-18.903,18.903-18.903h24.234m0-2h-24.234c-11.497,0-20.903,9.406-20.903,20.903h0c0,11.497,9.406,20.903,20.903,20.903h24.234c11.497,0,20.903-9.406,20.903-20.903h0c0-11.497-9.406-20.903-20.903-20.903h0Z"/>
      </g>
      <text class="cls-28" transform="translate(184.099 424.563)"><tspan x="0" y="0">대답</tspan></text>
    </g>
  </g>
  <g>
    <path class="cls-32" d="m541.611,445.917H107.543c-.658,0-1.288.262-1.753.727l-10.791,10.821-12.024-10.981c-.238-.218-.622-.049-.622.274v54.741c0,.101.042.199.115.269l12.53,11.955,13.032-12.065h433.579c15.329,0,27.871-12.542,27.871-27.871h0c0-15.329-12.542-27.871-27.871-27.871Z"/>
    <g>
      <g>
        <path class="cls-7" d="m453.595,493.456c-14.548,0-29.095.001-43.643,0-3.175,0-4.593-1.41-4.594-4.569-.003-10.355-.003-20.71,0-31.065.001-3.029,1.457-4.455,4.54-4.455,29.207-.002,58.415-.002,87.622,0,3.418,0,4.878,1.469,4.879,4.903.002,10.132.003,20.264,0,30.397-.001,3.292-1.509,4.788-4.824,4.789-14.66.003-29.319.001-43.979.001Z"/>
        <path class="cls-7" d="m516.503,473.31c.085-12.114,9.79-22.01,22.342-21.937,12.159.071,22.178,9.883,21.961,22.471-.203,11.764-9.754,21.773-22.498,21.598-12.042-.166-21.794-9.762-21.805-22.132Z"/>
        <path class="cls-19" d="m165.365,470.337c-1.626-10.101-10.287-17.94-20.541-17.966-11.696-.029-2.39-.022-14.086.012-1.44.004-2.924.101-4.312.453-11.425,2.895-18.72,13.336-15.839,25.753,2.163,9.324,10.852,15.844,20.479,15.866l12.911.002c1.172,0,2.33-.134,3.498-.257,10.538-1.106,19.795-12.031,17.891-23.864Z"/>
        <path class="cls-10" d="m298.979,473.462c.462,11.521-9.772,20.946-20.786,21.039-11.933.1-21.41-9.928-21.395-21.035.015-11.196,9.427-21.07,20.981-21.145,11.874-.077,21.767,10.091,21.199,21.141Z"/>
        <path class="cls-2" d="m492.183,469.477c-.401-.888-1.172-1.308-2.152-1.313l-9.375.029c-.865.022-1.679.285-2.04,1.183-.34.847-.146,1.625.436,2.325,1.492,1.794,2.952,3.616,4.471,5.386,1.243,1.448,2.36,1.471,3.606.035,1.565-1.803,3.033-3.69,4.578-5.51.556-.655.83-1.35.476-2.135Z"/>
        <path class="cls-21" d="m539.403,474.748c2.854.024,5.612,2.731,5.624,5.52.014,3.13-2.722,5.849-5.866,5.829-3.016-.018-5.566-2.746-5.533-5.919.031-3.007,2.636-5.457,5.775-5.43Z"/>
        <rect class="cls-21" x="541.79" y="465.132" width="9.448" height="9.448" transform="translate(492.309 -248.826) rotate(45)"/>
        <path class="cls-17" d="m163.037,468.912c-2.17-8.704-9.627-14.531-18.65-14.541-11.406-.013-1.811-.021-13.217.006-4.237.01-8.068,1.204-11.499,3.806-6.722,5.098-9.361,13.381-6.666,21.413,2.547,7.59,9.928,12.838,18.108,12.855l13.385-.009c2.29-.013,4.506-.376,6.69-1.203,9.042-3.426,14.173-13.011,11.85-22.326Z"/>
        <path class="cls-17" d="m296.969,473.577c.429,9.99-8.671,18.974-19.039,18.913-11.074-.066-19.206-9.679-19.129-19.142.082-10.145,8.896-19.056,19.081-19.017,10.739.041,19.646,9.25,19.087,19.247Z"/>
        <path class="cls-1" d="m441.032,471.741c1.256-.022,2.223.921,2.182,2.215-.04,1.272-.632,2.104-2.021,2.157-1.365.052-2.237-.744-2.28-2.075-.042-1.281.876-2.275,2.12-2.297Z"/>
        <polygon class="cls-21" points="537.633 472.811 537.633 466.379 532.063 463.162 526.492 466.379 526.492 472.811 532.063 476.028 537.633 472.811"/>
      </g>
      <text class="cls-29" transform="translate(273.646 480.527)"><tspan x="0" y="0">1</tspan></text>
      <text class="cls-24" transform="translate(178.804 481.024)"><tspan x="0" y="0">을(를)</tspan></text>
      <text class="cls-24" transform="translate(315.023 482.599)"><tspan x="0" y="0">초 동안</tspan></text>
      <text class="cls-26" transform="translate(416.423 480.368)"><tspan x="0" y="0">말하기</tspan></text>
    </g>
    <text class="cls-29" transform="translate(123.647 480.537)"><tspan x="0" y="0">UP</tspan></text>
  </g>
  <g>
    <path class="cls-32" d="m579.614,558.336H107.543c-.658,0-1.288.262-1.753.727l-10.791,10.821-12.024-10.981c-.238-.218-.622-.049-.622.274v54.741c0,.101.042.199.115.269l12.53,11.955,13.032-12.065h471.582c15.329,0,27.871-12.542,27.871-27.871h0c0-15.329-12.542-27.871-27.871-27.871Z"/>
    <g>
      <g>
        <path class="cls-7" d="m491.599,605.875c-14.548,0-29.095.001-43.643,0-3.175,0-4.593-1.41-4.594-4.569-.003-10.355-.003-20.71,0-31.065.001-3.029,1.457-4.455,4.54-4.455,29.207-.002,58.415-.002,87.622,0,3.418,0,4.878,1.469,4.879,4.903.002,10.132.003,20.264,0,30.397-.001,3.292-1.509,4.788-4.824,4.789-14.66.003-29.319.001-43.979.001Z"/>
        <path class="cls-7" d="m554.506,585.729c.085-12.114,9.79-22.01,22.342-21.937,12.159.071,22.178,9.883,21.961,22.471-.203,11.764-9.754,21.773-22.498,21.598-12.042-.166-21.794-9.762-21.805-22.132Z"/>
        <path class="cls-19" d="m148.19,606.877c-5.708,0-11.416.01-17.125-.003-9.626-.021-18.315-6.542-20.479-15.866-2.881-12.417,4.413-22.858,15.839-25.753,1.388-.352,2.872-.449,4.312-.453,11.696-.035,40.394-.041,52.09-.012,10.254.026,18.915,7.865,20.541,17.966,1.904,11.832-7.353,22.757-17.891,23.864-1.168.123-2.325.256-3.498.257-5.596.001-28.194,0-33.79,0Z"/>
        <path class="cls-10" d="m336.983,585.88c.462,11.521-9.772,20.946-20.786,21.039-11.933.1-21.41-9.928-21.395-21.035.015-11.196,9.427-21.07,20.981-21.145,11.874-.077,21.767,10.091,21.199,21.141Z"/>
        <path class="cls-2" d="m530.187,581.896c-.401-.888-1.172-1.308-2.152-1.313l-9.375.029c-.865.022-1.679.285-2.04,1.183-.34.847-.146,1.625.436,2.325,1.492,1.794,2.952,3.616,4.471,5.386,1.243,1.448,2.36,1.471,3.606.035,1.565-1.803,3.033-3.69,4.578-5.51.556-.655.83-1.35.476-2.135Z"/>
        <path class="cls-21" d="m577.407,587.167c2.854.024,5.612,2.731,5.624,5.52.014,3.13-2.722,5.849-5.866,5.829-3.016-.018-5.566-2.746-5.533-5.919.031-3.007,2.636-5.457,5.775-5.43Z"/>
        <rect class="cls-21" x="579.794" y="577.551" width="9.448" height="9.448" transform="translate(582.932 -242.772) rotate(45)"/>
        <path class="cls-17" d="m148.222,604.872c-5.703,0-11.407.01-17.11-.002-8.18-.017-15.561-5.265-18.108-12.855-2.695-8.032-.056-16.314,6.666-21.413,3.431-2.602,7.262-3.796,11.499-3.806,11.406-.027,39.815-.018,51.221-.006,9.023.01,16.48,5.837,18.65,14.541,2.323,9.316-2.808,18.901-11.85,22.327-2.183.827-4.4,1.19-6.69,1.203-5.759.032-28.52.011-34.279.011Z"/>
        <path class="cls-17" d="m334.973,585.996c.429,9.99-8.671,18.974-19.039,18.913-11.074-.066-19.206-9.679-19.129-19.142.082-10.145,8.896-19.056,19.081-19.017,10.739.041,19.646,9.25,19.087,19.247Z"/>
        <path class="cls-1" d="m479.035,584.16c1.256-.022,2.223.921,2.182,2.215-.04,1.272-.632,2.104-2.021,2.157-1.365.052-2.237-.744-2.28-2.075-.042-1.281.876-2.275,2.12-2.297Z"/>
        <polygon class="cls-21" points="575.637 585.23 575.637 578.798 570.066 575.581 564.496 578.798 564.496 585.23 570.066 588.446 575.637 585.23"/>
      </g>
      <text class="cls-29" transform="translate(311.646 592.946)"><tspan x="0" y="0">1</tspan></text>
      <text class="cls-24" transform="translate(216.808 593.444)"><tspan x="0" y="0">을(를)</tspan></text>
      <text class="cls-24" transform="translate(353.027 595.018)"><tspan x="0" y="0">초 동안</tspan></text>
      <text class="cls-26" transform="translate(454.426 592.788)"><tspan x="0" y="0">말하기</tspan></text>
    </g>
    <text class="cls-36" transform="translate(123.647 592.957)"><tspan class="cls-27" x="0" y="0">D</tspan><tspan class="cls-30" x="14.876" y="0">O</tspan><tspan class="cls-27" x="30.332" y="0">WN</tspan></text>
  </g>
  <g>
    <path class="cls-32" d="m582.485,221.948H80.446c-.658,0-1.288.262-1.753.727l-10.791,10.821-12.024-10.981c-.238-.218-.622-.049-.622.274v54.741c0,.101.042.199.115.269l12.53,11.955,13.032-12.065h501.55c15.329,0,27.871-12.542,27.871-27.871h0c0-15.329-12.542-27.871-27.871-27.871Z"/>
    <g>
      <g>
        <path class="cls-7" d="m494.469,269.488c-14.548,0-29.095.001-43.643,0-3.175,0-4.593-1.41-4.594-4.569-.003-10.355-.003-20.71,0-31.065.001-3.029,1.457-4.455,4.54-4.455,29.207-.002,58.415-.002,87.622,0,3.418,0,4.878,1.469,4.879,4.903.002,10.132.003,20.264,0,30.397-.001,3.292-1.509,4.788-4.824,4.789-14.66.003-29.319.001-43.979.001Z"/>
        <path class="cls-7" d="m557.377,249.342c.085-12.114,9.79-22.01,22.342-21.937,12.159.071,22.178,9.883,21.961,22.471-.203,11.764-9.754,21.773-22.498,21.598-12.042-.166-21.794-9.762-21.805-22.132Z"/>
        <path class="cls-19" d="m121.093,270.49c-5.708,0-11.416.01-17.125-.003-9.626-.021-18.315-6.542-20.479-15.866-2.881-12.417,4.413-22.858,15.839-25.753,1.388-.352,2.872-.449,4.312-.453,11.696-.035,70.361-.041,82.057-.012,10.254.026,18.915,7.865,20.541,17.966,1.904,11.832-7.353,22.757-17.891,23.864-1.168.123-2.325.256-3.498.257-5.596.001-58.161,0-63.758,0Z"/>
        <path class="cls-10" d="m339.853,249.493c.462,11.521-9.772,20.946-20.786,21.039-11.933.1-21.41-9.928-21.395-21.035.015-11.196,9.427-21.07,20.981-21.145,11.874-.077,21.767,10.091,21.199,21.141Z"/>
        <path class="cls-2" d="m533.057,245.509c-.401-.888-1.172-1.308-2.152-1.313l-9.375.029c-.865.022-1.679.285-2.04,1.183-.34.847-.146,1.625.436,2.325,1.492,1.794,2.952,3.616,4.471,5.386,1.243,1.448,2.36,1.471,3.606.035,1.565-1.803,3.033-3.69,4.578-5.51.556-.655.83-1.35.476-2.135Z"/>
        <path class="cls-21" d="m580.277,250.78c2.854.024,5.612,2.731,5.624,5.52.014,3.13-2.722,5.849-5.866,5.829-3.016-.018-5.566-2.746-5.533-5.919.031-3.007,2.636-5.457,5.775-5.43Z"/>
        <rect class="cls-21" x="582.664" y="241.164" width="9.448" height="9.448" transform="translate(345.911 -343.327) rotate(45)"/>
        <path class="cls-17" d="m121.125,268.485c-5.703,0-11.407.01-17.11-.002-8.18-.017-15.561-5.265-18.108-12.855-2.695-8.032-.056-16.314,6.666-21.413,3.431-2.602,7.262-3.796,11.499-3.806,11.406-.027,69.782-.018,81.188-.006,9.023.01,16.48,5.837,18.65,14.541,2.323,9.316-2.808,18.901-11.85,22.327-2.183.827-4.4,1.19-6.69,1.203-5.759.032-58.487.011-64.246.011Z"/>
        <path class="cls-17" d="m337.844,249.608c.429,9.99-8.671,18.974-19.039,18.913-11.074-.066-19.206-9.679-19.129-19.142.082-10.145,8.896-19.056,19.081-19.017,10.739.041,19.646,9.25,19.087,19.247Z"/>
        <path class="cls-1" d="m481.906,247.773c1.256-.022,2.223.921,2.182,2.215-.04,1.272-.632,2.104-2.021,2.157-1.365.052-2.237-.744-2.28-2.075-.042-1.281.876-2.275,2.12-2.297Z"/>
        <polygon class="cls-21" points="578.507 248.843 578.507 242.41 572.937 239.194 567.366 242.41 567.366 248.843 572.937 252.059 578.507 248.843"/>
      </g>
      <text class="cls-29" transform="translate(314.517 256.559)"><tspan x="0" y="0">1</tspan></text>
      <text class="cls-24" transform="translate(219.678 257.057)"><tspan x="0" y="0">을(를)</tspan></text>
      <text class="cls-24" transform="translate(355.897 258.631)"><tspan x="0" y="0">초 동안</tspan></text>
      <text class="cls-26" transform="translate(457.297 256.401)"><tspan x="0" y="0">말하기</tspan></text>
    </g>
    <text class="cls-36" transform="translate(96.55 256.57)"><tspan class="cls-27" x="0" y="0">정답입니다</tspan><tspan class="cls-37" x="92.318" y="0">.</tspan></text>
  </g>
  <g>
    <g>
      <path class="cls-35" d="m441.833,277.728H80.446s0,0,0,0l-12.543,11.548s0,0,0,0l-12.023-10.98c-.238-.218-.622-.049-.622.274v54.741c0,.047.011.092.028.135h-.003l.004.004c.02.048.048.093.087.13h.056l11.328,10.345c.663.605,1.678.603,2.338-.005l10.91-10.045c.212-.195.49-.304.779-.304l361.05-.101c15.329,0,27.871-12.542,27.871-27.871h0c0-15.329-12.542-27.871-27.871-27.871Z"/>
      <g>
        <path class="cls-9" d="m462.782,305.643c.233,11.599-9.583,22.21-22.59,21.903-11.361-.268-21.522-9.45-21.508-22.104.014-12.581,10.427-22.278,22.629-21.994,11.969.279,21.786,10.209,21.47,22.194Z"/>
        <path class="cls-18" d="m441.05,295.48c1.421.066,3.283.498,4.796,1.905,2.464,2.29,2.614,5.317.342,7.812-.823.903-1.728,1.735-2.634,2.558-.847.769-1.497,1.641-1.723,2.78-.285,1.438-1.202,2.017-2.552,1.624-1.294-.377-1.297-1.572-1.154-2.621.299-2.203,1.86-3.593,3.427-4.952.334-.29.717-.537.999-.87,1.487-1.758,1.36-3.4-.321-4.537-1.47-.995-3.897-.403-4.808,1.208-.326.577-.531,1.221-.815,1.823-.524,1.11-1.42,1.65-2.58,1.204-1.144-.44-1.405-1.351-1.1-2.592.769-3.131,3.806-5.339,8.123-5.343Z"/>
        <path class="cls-16" d="m440.024,318.195c-1.271-.012-2.113-.925-2.059-2.258.054-1.311.741-2.044,2.063-2.095,1.32-.051,2.369,1,2.32,2.267-.048,1.226-1.02,2.098-2.324,2.086Z"/>
      </g>
    </g>
    <g>
      <path class="cls-4" d="m86.492,291.868v27.721c0,3.45,2.808,6.244,6.257,6.235,25.312-.061,39.122-.046,64.447-.044,3.444,0,6.242-2.791,6.242-6.235v-27.63c0-3.441-2.787-6.231-6.228-6.235l-64.476-.046c-3.447-.004-6.243,2.789-6.243,6.235Z"/>
      <text class="cls-23" transform="translate(96.871 313.568)"><tspan x="0" y="0">성공</tspan></text>
      <path class="cls-6" d="m149.859,301.835c1.503,0,3.006-.003,4.509.001.951.003,1.744.288,2.197,1.211.47.958.064,1.702-.534,2.425-1.451,1.754-2.859,3.543-4.343,5.268-1.318,1.533-2.389,1.523-3.72-.029-1.519-1.771-2.972-3.598-4.452-5.402-.521-.635-.812-1.313-.452-2.145.374-.865,1.045-1.293,1.954-1.309,1.614-.027,3.228-.008,4.842-.008v-.013Z"/>
    </g>
    <text class="cls-25" transform="translate(179.258 314.078)"><tspan x="0" y="0">을</tspan></text>
    <text class="cls-25" transform="translate(273.656 314.078)"><tspan x="0" y="0">(으)로정하기</tspan></text>
    <g>
      <g>
        <path class="cls-17" d="m237.708,325.631c-10.975,0-19.903-8.928-19.903-19.903s8.928-19.903,19.903-19.903,19.903,8.929,19.903,19.903-8.929,19.903-19.903,19.903Z"/>
        <path class="cls-19" d="m237.709,286.825c10.423,0,18.903,8.48,18.903,18.903s-8.48,18.903-18.903,18.903-18.903-8.48-18.903-18.903,8.48-18.903,18.903-18.903m0-2c-11.497,0-20.903,9.406-20.903,20.903h0c0,11.497,9.406,20.903,20.903,20.903s20.903-9.406,20.903-20.903h0c0-11.497-9.406-20.903-20.903-20.903h0Z"/>
      </g>
      <text class="cls-29" transform="translate(231.457 312.79)"><tspan x="0" y="0">0</tspan></text>
    </g>
  </g>
  <g>
    <path class="cls-11" d="m237.708,325.631c-10.975,0-19.903-8.928-19.903-19.903s8.928-19.903,19.903-19.903,19.903,8.929,19.903,19.903-8.929,19.903-19.903,19.903Z"/>
    <path class="cls-19" d="m237.709,286.825c10.423,0,18.903,8.48,18.903,18.903s-8.48,18.903-18.903,18.903-18.903-8.48-18.903-18.903,8.48-18.903,18.903-18.903m0-2c-11.497,0-20.903,9.406-20.903,20.903h0c0,11.497,9.406,20.903,20.903,20.903s20.903-9.406,20.903-20.903h0c0-11.497-9.406-20.903-20.903-20.903h0Z"/>
  </g>
  <g>
    <path class="cls-11" d="m286.379,213.509c-10.975,0-19.903-8.929-19.903-19.903s8.929-19.903,19.903-19.903h100.177c10.975,0,19.903,8.929,19.903,19.903s-8.929,19.903-19.903,19.903h-100.177Z"/>
    <path class="cls-4" d="m386.557,174.702c10.423,0,18.903,8.48,18.903,18.903s-8.48,18.903-18.903,18.903h-100.177c-10.423,0-18.903-8.48-18.903-18.903s8.48-18.903,18.903-18.903h100.177m0-2h-100.177c-11.497,0-20.903,9.406-20.903,20.903h0c0,11.497,9.406,20.903,20.903,20.903h100.177c11.497,0,20.903-9.406,20.903-20.903h0c0-11.497-9.406-20.903-20.903-20.903h0Z"/>
  </g>
  <g>
    <path class="cls-11" d="m313.412,437.577c-10.975,0-19.903-8.929-19.903-19.903s8.929-19.903,19.903-19.903h100.177c10.975,0,19.903,8.929,19.903,19.903s-8.929,19.903-19.903,19.903h-100.177Z"/>
    <path class="cls-4" d="m413.589,398.77c10.423,0,18.903,8.48,18.903,18.903s-8.48,18.903-18.903,18.903h-100.177c-10.423,0-18.903-8.48-18.903-18.903s8.48-18.903,18.903-18.903h100.177m0-2h-100.177c-11.497,0-20.903,9.406-20.903,20.903s9.406,20.903,20.903,20.903h100.177c11.497,0,20.903-9.406,20.903-20.903s-9.406-20.903-20.903-20.903h0Z"/>
  </g>
  <g>
    <path class="cls-11" d="m174.655,725.558c-10.975,0-19.903-8.929-19.903-19.903s8.929-19.903,19.903-19.903h100.177c10.975,0,19.903,8.929,19.903,19.903s-8.929,19.903-19.903,19.903h-100.177Z"/>
    <path class="cls-4" d="m274.832,686.751c10.423,0,18.903,8.48,18.903,18.903s-8.48,18.903-18.903,18.903h-100.177c-10.423,0-18.903-8.48-18.903-18.903s8.48-18.903,18.903-18.903h100.177m0-2h-100.177c-11.497,0-20.903,9.406-20.903,20.903h0c0,11.497,9.406,20.903,20.903,20.903h100.177c11.497,0,20.903-9.406,20.903-20.903h0c0-11.497-9.406-20.903-20.903-20.903h0Z"/>
  </g>
  <g>
    <path class="cls-11" d="m131.11,493.451c-8.55-.019-16.385-5.585-19.053-13.537-2.796-8.334-.045-17.177,7.01-22.528,3.494-2.65,7.565-3.999,12.101-4.009l7.004-.017c.57.001,1.862.006,6.217.011,9.456.011,17.34,6.159,19.619,15.299,2.44,9.783-2.92,19.887-12.466,23.503-2.215.839-4.517,1.254-7.038,1.268l-13.393.009Z"/>
    <path class="cls-19" d="m137.732,454.36c.474,0,.759.005,6.655.012,9.023.01,16.48,5.836,18.65,14.541,2.323,9.315-2.808,18.901-11.85,22.326-2.183.827-4.4,1.19-6.689,1.203l-13.385.009c-8.18-.017-15.561-5.265-18.108-12.855-2.695-8.032-.056-16.314,6.666-21.413,3.431-2.602,7.262-3.796,11.499-3.806,5.51-.013,6.119-.018,6.562-.018m0-2l-.726.002c-.737.002-2.245.007-5.841.016-4.758.011-9.031,1.428-12.703,4.213-7.402,5.615-10.289,14.895-7.354,23.642,2.802,8.353,11.027,14.2,20,14.219l13.391-.009c2.652-.015,5.068-.451,7.396-1.333,10.02-3.796,15.644-14.406,13.082-24.681-2.392-9.593-10.666-16.046-20.589-16.057-4.368-.005-5.654-.009-6.22-.011h-.437Z"/>
  </g>
</svg>