<?xml version="1.0" encoding="UTF-8"?>
<svg id="_레이어_2" data-name="레이어 2" xmlns="http://www.w3.org/2000/svg" viewBox="0 0 297.75 69">
  <defs>
    <style>
      .cls-1 {
        fill: #e63022;
      }

      .cls-1, .cls-2 {
        stroke-width: 0px;
      }

      .cls-2, .cls-3 {
        fill: #fff;
      }

      .cls-3 {
        font-family: D2Coding, D2Coding;
        font-size: 26.581px;
      }
    </style>
  </defs>
  <g>
    <rect class="cls-1" width="297.75" height="69"/>
    <text class="cls-3" transform="translate(80.488 45.938)"><tspan x="0" y="0">음악</tspan></text>
  </g>
  <path class="cls-2" d="m33.047,19.242l-.089-.004-.089.004c-13.307.668-16.449,12.797-16.251,19.116l.042,1.356,3.334.803c-.101,3.363,1.962,6.427,5.174,7.278,1.332.353,2.683.278,3.92-.142.537-.183.887-.704.887-1.272v-11.832c0-.589-.374-1.135-.943-1.287-.003,0-.007-.002-.01-.003-3.231-.857-6.563.807-8.129,3.814l-.68-.164c.246-3.665,1.917-13.513,12.746-14.11,10.832.597,12.501,10.449,12.747,14.11l-.301.073c-1.586-2.949-4.882-4.571-8.08-3.723-.003,0-.007.002-.01.003-.569.152-.943.698-.943,1.287v11.832c0,.568.35,1.089.887,1.272,1.237.421,2.587.496,3.92.142,3.244-.86,5.318-3.977,5.171-7.38l2.908-.7.042-1.356c.198-6.319-2.944-18.448-16.251-19.116Z"/>
</svg>