<?xml version="1.0" encoding="UTF-8"?>
<svg id="_레이어_1" data-name="레이어 1" xmlns="http://www.w3.org/2000/svg" viewBox="0 0 1080.433 609.802">
  <defs>
    <style>
      .cls-1, .cls-2, .cls-3, .cls-4, .cls-5, .cls-6, .cls-7, .cls-8, .cls-9, .cls-10, .cls-11, .cls-12, .cls-13, .cls-14, .cls-15, .cls-16, .cls-17, .cls-18, .cls-19, .cls-20, .cls-21, .cls-22 {
        stroke-width: 0px;
      }

      .cls-1, .cls-23, .cls-24 {
        fill: #fefefe;
      }

      .cls-2 {
        fill: #009400;
      }

      .cls-3 {
        fill: #dc47d7;
      }

      .cls-25 {
        letter-spacing: -.032em;
      }

      .cls-4 {
        fill: #b819b3;
      }

      .cls-5 {
        fill: #c72042;
      }

      .cls-6 {
        fill: #fefdfe;
      }

      .cls-7 {
        fill: #c62042;
      }

      .cls-26 {
        fill: #fe3a61;
        stroke: #c62142;
      }

      .cls-26, .cls-27, .cls-28 {
        stroke-linecap: round;
        stroke-linejoin: round;
        stroke-width: 2px;
      }

      .cls-8 {
        fill: none;
      }

      .cls-9 {
        fill: #1b3ad8;
      }

      .cls-23 {
        font-size: 26px;
      }

      .cls-23, .cls-24, .cls-29, .cls-30 {
        font-family: Pretendard-Bold-KSCpc-EUC-H, Pretendard;
        font-weight: 700;
      }

      .cls-10 {
        fill: #b719b2;
      }

      .cls-27 {
        fill: #19baea;
        stroke: #1498c0;
      }

      .cls-11, .cls-30 {
        fill: #fff;
      }

      .cls-12 {
        fill: #6dddfe;
      }

      .cls-13 {
        fill: #1498c0;
      }

      .cls-24, .cls-29, .cls-30 {
        font-size: 22px;
      }

      .cls-14, .cls-28 {
        fill: #dd47d8;
      }

      .cls-15 {
        fill: #4562f5;
      }

      .cls-28 {
        stroke: #b819b3;
      }

      .cls-16 {
        fill: #f577f1;
      }

      .cls-17 {
        fill: #fedd81;
      }

      .cls-18 {
        fill: #f677f2;
      }

      .cls-19 {
        fill: #fe9b00;
      }

      .cls-20 {
        fill: #f2f2f2;
      }

      .cls-21 {
        fill: #fe5576;
      }

      .cls-22 {
        fill: #00b300;
      }
    </style>
  </defs>
  <g>
    <g>
      <g>
        <path class="cls-22" d="m21.639,65.056s-5.2-2.719-7.532-4.568c-7.301-5.786-11.647-13.18-12.825-22.461C.211,29.585,2.193,21.881,7.066,15.042,12.681,7.163,20.381,2.466,30.1,1.277c9.447-1.156,17.928,1.343,25.093,7.428,2.309,1.961,4.441,2.392,7.168,2.399,81.918.211,208.299.465,290.217.713,13.081.04,24.448,9.349,26.741,22.14,2.77,15.451-7.86,29.794-23.175,31.684-.205.025-.396.168-.594.256-.891.016-1.782.048-2.673.045-87.321-.261-217.679-.521-304.556-.82-.618-.002-1.189.276-1.6.738-3.002,3.368-7.553,6.555-10.8,9.874-.791.809-1.254.903-2.094.031-3.131-3.25-7.215-6.419-10.402-9.615-.505-.507-1.787-1.095-1.787-1.095Z"/>
        <path class="cls-2" d="m34.858,77.381h-.007c-.761-.003-1.331-.494-1.743-.922-1.629-1.691-3.568-3.401-5.442-5.054-1.684-1.485-3.426-3.021-4.947-4.548-.256-.257-1.045-.685-1.497-.893l-.046-.022c-.216-.113-5.311-2.784-7.69-4.67C5.915,55.272,1.475,47.493.29,38.153c-1.095-8.632.911-16.603,5.962-23.691C12.092,6.266,20.075,1.496,29.978.284c9.769-1.195,18.471,1.381,25.862,7.659,2.119,1.799,3.996,2.155,6.523,2.161,31.289.081,69.063.167,108.37.258,63.604.146,131.218.302,181.847.455,13.686.042,25.345,9.7,27.723,22.964,1.389,7.748-.392,15.468-5.015,21.738-4.586,6.22-11.341,10.167-19.021,11.115.029,0-.012.026-.054.048-.084.046-.169.091-.255.129l-.186.083-1.036.022c-.621.014-1.239.03-1.861.027-36.774-.11-81.182-.219-126.76-.332-62.686-.155-127.507-.315-177.797-.488h-.003c-.314,0-.616.143-.848.403-1.688,1.895-3.855,3.735-5.95,5.514-1.692,1.438-3.442,2.924-4.88,4.394-.458.469-1.028.948-1.779.948Zm-12.776-13.223c.291.135,1.47.701,2.053,1.287,1.477,1.481,3.194,2.995,4.854,4.46,1.904,1.68,3.874,3.417,5.56,5.167.149.155.249.236.309.278.064-.045.174-.135.35-.314,1.502-1.536,3.289-3.053,5.016-4.52,2.043-1.735,4.156-3.529,5.752-5.321.608-.682,1.461-1.072,2.341-1.072h.009c50.29.173,115.11.333,177.795.488,45.579.113,89.986.222,126.761.332.608-.002,1.206-.013,1.808-.027l.611-.013c.179-.096.417-.216.723-.254,7.129-.879,13.4-4.543,17.657-10.317,4.293-5.823,5.947-12.997,4.656-20.198-2.207-12.312-13.041-21.277-25.76-21.316-50.629-.153-118.242-.309-181.846-.455-39.307-.09-77.082-.177-108.371-.258-2.834-.007-5.248-.458-7.813-2.637-6.947-5.901-15.131-8.324-24.324-7.198C20.898,3.41,13.382,7.903,7.881,15.622c-4.75,6.666-6.636,14.162-5.606,22.278,1.132,8.928,5.206,16.06,12.454,21.804,2.159,1.711,6.989,4.262,7.353,4.454Z"/>
      </g>
      <text class="cls-23" transform="translate(73.78 47.543) rotate(.173)"><tspan x="0" y="0">시작하기 버튼을 클릭했을 때</tspan></text>
      <g>
        <g>
          <path class="cls-1" d="m34.019,61.099c-14.926-.049-27.039-12.211-27-27.111.039-14.888,12.218-27,27.151-27h.125c14.901.067,26.976,12.266,26.917,27.194-.058,14.842-12.216,26.917-27.103,26.917h-.09Z"/>
          <path class="cls-20" d="m34.17,7.988h0,.12c14.35.064,25.978,11.813,25.922,26.189-.056,14.293-11.765,25.922-26.103,25.922h-.087c-14.375-.047-26.04-11.759-26.003-26.109.037-14.337,11.768-26.001,26.151-26.002m0-2c-15.526.001-28.111,12.502-28.151,27.997-.04,15.453,12.517,28.063,27.997,28.114.032,0,.062,0,.094,0,15.444,0,28.042-12.503,28.103-27.914.061-15.477-12.463-28.128-27.913-28.197-.044,0-.086,0-.129,0h0Z"/>
        </g>
        <path class="cls-22" d="m26.49,33.989c0-2.979-.003-5.959.002-8.938.001-.871-.04-1.782.9-2.272.89-.464,1.669-.113,2.434.376,4.656,2.978,9.324,5.939,13.977,8.921,2.063,1.322,2.073,2.615.042,3.913-4.656,2.976-9.325,5.932-13.976,8.916-.771.494-1.55.863-2.428.428-.92-.456-.963-1.342-.958-2.244.016-3.033.006-6.067.006-9.101Z"/>
      </g>
    </g>
    <g>
      <g>
        <path class="cls-27" d="m259.829,64.83H47.587s0,0,0,0l-12.543,11.548s0,0,0,0l-12.023-10.98c-.238-.218-.622-.049-.622.274v54.741c0,.047.011.092.028.135h-.003l.004.004c.02.048.048.093.087.13h.056l11.328,10.345c.663.605,1.678.603,2.338-.005l10.91-10.045c.212-.195.49-.304.779-.304l211.905-.101c15.329,0,27.871-12.542,27.871-27.871h0c0-15.329-12.542-27.871-27.871-27.871Z"/>
        <g>
          <path class="cls-13" d="m280.577,92.745c.233,11.599-9.583,22.21-22.59,21.903-11.361-.268-21.522-9.45-21.508-22.104.014-12.581,10.427-22.278,22.629-21.994,11.969.279,21.786,10.209,21.47,22.194Z"/>
          <path class="cls-12" d="m266.661,94.277c-.095,0-.185.021-.279.028l-4.684-7.075c.468-.646.753-1.433.753-2.292,0-2.165-1.755-3.919-3.919-3.919s-3.919,1.755-3.919,3.919c0,.859.284,1.646.753,2.292l-4.684,7.075c-.094-.007-.183-.028-.279-.028-2.165,0-3.919,1.755-3.919,3.919s1.755,3.919,3.919,3.919,3.919-1.755,3.919-3.919c0-1.153-.507-2.18-1.3-2.897l4.386-6.625c.358.108.731.183,1.124.183s.766-.076,1.124-.183l4.386,6.625c-.793.717-1.3,1.744-1.3,2.897,0,2.165,1.755,3.919,3.919,3.919s3.919-1.755,3.919-3.919-1.755-3.919-3.919-3.919Z"/>
        </g>
      </g>
      <g>
        <g>
          <path class="cls-17" d="m70.759,112.339c-10.975,0-19.903-8.929-19.903-19.903s8.929-19.903,19.903-19.903h.831c10.975,0,19.903,8.929,19.903,19.903s-8.928,19.903-19.903,19.903h-.831Z"/>
          <path class="cls-19" d="m71.589,73.532c10.423,0,18.903,8.48,18.903,18.903s-8.48,18.903-18.903,18.903h-.831c-10.423,0-18.903-8.48-18.903-18.903s8.48-18.903,18.903-18.903h.831m0-2h-.831c-11.497,0-20.903,9.406-20.903,20.903h0c0,11.497,9.406,20.903,20.903,20.903h.831c11.497,0,20.903-9.406,20.903-20.903h0c0-11.497-9.406-20.903-20.903-20.903h0Z"/>
        </g>
        <text class="cls-29" transform="translate(64.231 99.253)"><tspan x="0" y="0">3</tspan></text>
        <text class="cls-23" transform="translate(105.222 102.072)"><tspan x="0" y="0">초 기다리기</tspan></text>
      </g>
    </g>
    <g>
      <path class="cls-28" d="m596.859,120.673H47.587s0,0,0,0l-12.543,11.548s0,0,0,0l-12.023-10.98c-.238-.218-.622-.049-.622.274v54.741c0,.047.011.092.028.135h-.003l.004.004c.02.048.048.093.087.13h.056l11.328,10.345c.663.605,1.678.603,2.338-.005l10.91-10.045c.212-.195.49-.304.779-.304l548.935-.101c15.329,0,27.871-12.542,27.871-27.871h0c0-15.329-12.542-27.871-27.871-27.871Z"/>
      <g>
        <path class="cls-10" d="m617.808,148.588c.233,11.599-9.583,22.21-22.59,21.903-11.361-.268-21.522-9.45-21.508-22.104.014-12.581,10.427-22.278,22.629-21.994,11.969.279,21.786,10.209,21.47,22.194Z"/>
        <path class="cls-18" d="m596.076,138.425c1.421.066,3.283.498,4.796,1.905,2.464,2.29,2.614,5.317.342,7.812-.823.903-1.728,1.735-2.634,2.558-.847.769-1.497,1.641-1.723,2.78-.285,1.438-1.202,2.017-2.552,1.624-1.294-.377-1.297-1.572-1.154-2.621.299-2.203,1.86-3.593,3.427-4.952.334-.29.717-.537.999-.87,1.487-1.758,1.36-3.4-.321-4.537-1.47-.995-3.897-.403-4.808,1.208-.326.577-.531,1.221-.815,1.823-.524,1.11-1.42,1.65-2.58,1.204-1.144-.44-1.405-1.351-1.1-2.592.769-3.131,3.806-5.339,8.123-5.343Z"/>
        <path class="cls-16" d="m595.05,161.14c-1.271-.012-2.113-.925-2.059-2.258.054-1.311.741-2.044,2.063-2.095,1.32-.051,2.369,1,2.32,2.267-.048,1.226-1.02,2.098-2.324,2.086Z"/>
      </g>
    </g>
    <g>
      <path class="cls-17" d="m68.557,167.937c-10.975,0-19.903-8.929-19.903-19.903s8.929-19.903,19.903-19.903h197.439c10.975,0,19.903,8.929,19.903,19.903s-8.928,19.903-19.903,19.903H68.557Z"/>
      <path class="cls-19" d="m265.996,129.13c10.423,0,18.903,8.48,18.903,18.903s-8.48,18.903-18.903,18.903H68.557c-10.423,0-18.903-8.48-18.903-18.903s8.48-18.903,18.903-18.903h197.439m0-2H68.557c-11.497,0-20.903,9.406-20.903,20.903s9.406,20.903,20.903,20.903h197.439c11.497,0,20.903-9.406,20.903-20.903s-9.406-20.903-20.903-20.903h0Z"/>
    </g>
    <text class="cls-29" transform="translate(66.095 155.096)"><tspan x="0" y="0">비밀번호를 입력하세요</tspan><tspan class="cls-25" x="195.207" y="0">.</tspan></text>
    <text class="cls-23" transform="translate(299.934 156.38)"><tspan x="0" y="0">을(를) 묻고 대답 기다리기</tspan></text>
    <g>
      <g>
        <path class="cls-28" d="m506.019,176.753H47.587s0,0,0,0l-12.543,11.548s0,0,0,0l-12.023-10.98c-.238-.218-.622-.049-.622.274v54.741c0,.047.011.092.028.135h-.003l.004.004c.02.048.048.093.087.13h.056l11.328,10.345c.663.605,1.678.603,2.338-.005l10.91-10.045c.212-.195.49-.304.779-.304l458.095-.101c15.329,0,27.871-12.542,27.871-27.871h0c0-15.329-12.542-27.871-27.871-27.871Z"/>
        <g>
          <path class="cls-10" d="m526.968,204.668c.233,11.599-9.583,22.21-22.59,21.903-11.361-.268-21.522-9.45-21.508-22.104.014-12.581,10.427-22.278,22.629-21.994,11.969.279,21.786,10.209,21.47,22.194Z"/>
          <path class="cls-18" d="m505.236,194.505c1.421.066,3.283.498,4.796,1.905,2.464,2.29,2.614,5.317.342,7.812-.823.903-1.728,1.735-2.634,2.558-.847.769-1.497,1.641-1.723,2.78-.285,1.438-1.202,2.017-2.552,1.624-1.294-.377-1.297-1.572-1.154-2.621.299-2.203,1.86-3.593,3.427-4.952.334-.29.717-.537.999-.87,1.487-1.758,1.36-3.4-.321-4.537-1.47-.995-3.897-.403-4.808,1.208-.326.577-.531,1.221-.815,1.823-.524,1.11-1.42,1.65-2.58,1.204-1.144-.44-1.405-1.351-1.1-2.592.769-3.131,3.806-5.339,8.123-5.343Z"/>
          <path class="cls-16" d="m504.21,217.219c-1.271-.012-2.113-.925-2.059-2.258.054-1.311.741-2.044,2.063-2.095,1.32-.051,2.369,1,2.32,2.267-.048,1.226-1.02,2.098-2.324,2.086Z"/>
        </g>
      </g>
      <g>
        <g>
          <path class="cls-10" d="m317.955,195.908c-3.978-8.028-10.585-12.205-19.692-12.204l-23.634.017c-13.365.1-23.308,12.743-20.298,25.728,2.245,9.683,10.748,16.352,20.919,16.354l22.63.007c1.562,0,3.108-.072,4.657-.328,13.443-2.215,21.457-17.384,15.417-29.573Z"/>
          <path class="cls-3" d="m285.495,185.712c42.548,0-29.54-.003,13.008.003,9.346.001,16.7,5.774,18.918,14.808,2.597,10.582-4.706,21.37-15.534,23.016-1.222.186-2.431.263-3.655.263-85.04,0,62.236.002-22.804,0-11.651,0-20.056-8.798-19.553-20.436.36-8.321,7.473-16.158,15.669-17.363,1.445-.212,2.876-.287,4.323-.287,42.437-.001-32.807,0,9.629,0Z"/>
        </g>
        <text class="cls-30" transform="translate(268.232 211.366)"><tspan x="0" y="0">대답</tspan></text>
      </g>
      <g>
        <path class="cls-4" d="m109.269,184.71c17.877,0,35.182,0,53.059,0,2.815,0,4.335,2.426,4.336,6.934.003,8.742.003,17.483,0,26.225-.001,4.509-1.521,6.935-4.336,6.935-35.754,0-70.936-.025-106.69.059-2.308.005-4.351-2.765-4.335-6.91.033-8.797.033-17.595,0-26.392-.015-4.145,2.027-6.926,4.335-6.912,17.877.11,35.754.061,53.631.061Z"/>
        <text class="cls-24" transform="translate(61.683 212.591)"><tspan x="0" y="0">비밀번호</tspan></text>
        <path class="cls-6" d="m150.657,200.859c1.503,0,3.006-.003,4.509.001.951.003,1.744.288,2.197,1.211.47.958.064,1.702-.534,2.425-1.451,1.754-2.859,3.543-4.343,5.268-1.318,1.533-2.389,1.523-3.72-.029-1.519-1.771-2.972-3.598-4.452-5.402-.521-.635-.812-1.313-.452-2.145.374-.865,1.045-1.293,1.954-1.309,1.614-.027,3.228-.008,4.842-.008v-.013Z"/>
      </g>
      <text class="cls-23" transform="translate(333.668 213.101)"><tspan x="0" y="0">(으)로 정하기</tspan></text>
      <text class="cls-23" transform="translate(179.604 213.101)"><tspan x="0" y="0">을(를)</tspan></text>
    </g>
    <g>
      <g>
        <path class="cls-28" d="m554.665,232.769H47.587s0,0,0,0l-12.543,11.548s0,0,0,0l-12.023-10.98c-.238-.218-.622-.049-.622.274v54.741c0,.047.011.092.028.135h-.003l.004.004c.02.048.048.093.087.13h.056l11.328,10.345c.663.605,1.678.603,2.338-.005l10.91-10.045c.212-.195.49-.304.779-.304l506.742-.101c15.329,0,27.871-12.542,27.871-27.871h0c0-15.329-12.542-27.871-27.871-27.871Z"/>
        <g>
          <path class="cls-10" d="m575.614,260.684c.233,11.599-9.583,22.21-22.59,21.903-11.361-.268-21.522-9.45-21.508-22.104.014-12.581,10.427-22.278,22.629-21.994,11.969.279,21.786,10.209,21.47,22.194Z"/>
          <path class="cls-18" d="m553.882,250.521c1.421.066,3.283.498,4.796,1.905,2.464,2.29,2.614,5.317.342,7.812-.823.903-1.728,1.735-2.634,2.558-.847.769-1.497,1.641-1.723,2.78-.285,1.438-1.202,2.017-2.552,1.624-1.294-.377-1.297-1.572-1.154-2.621.299-2.203,1.86-3.593,3.427-4.952.334-.29.717-.537.999-.87,1.487-1.758,1.36-3.4-.321-4.537-1.47-.995-3.897-.403-4.808,1.208-.326.577-.531,1.221-.815,1.823-.524,1.11-1.42,1.65-2.58,1.204-1.144-.44-1.405-1.351-1.1-2.592.769-3.131,3.806-5.339,8.123-5.343Z"/>
          <path class="cls-16" d="m552.856,273.236c-1.271-.012-2.113-.925-2.059-2.258.054-1.311.741-2.044,2.063-2.095,1.32-.051,2.369,1,2.32,2.267-.048,1.226-1.02,2.098-2.324,2.086Z"/>
        </g>
      </g>
      <g>
        <path class="cls-17" d="m68.557,280.367c-10.975,0-19.903-8.929-19.903-19.903s8.929-19.903,19.903-19.903h158.201c10.975,0,19.903,8.929,19.903,19.903s-8.929,19.903-19.903,19.903H68.557Z"/>
        <path class="cls-19" d="m226.758,241.56c10.423,0,18.903,8.48,18.903,18.903s-8.48,18.903-18.903,18.903H68.557c-10.423,0-18.903-8.48-18.903-18.903s8.48-18.903,18.903-18.903h158.201m0-2H68.557c-11.497,0-20.903,9.406-20.903,20.903s9.406,20.903,20.903,20.903h158.201c11.497,0,20.903-9.406,20.903-20.903s-9.406-20.903-20.903-20.903h0Z"/>
      </g>
      <text class="cls-29" transform="translate(66.095 268.815)"><tspan x="0" y="0">코드를 입력하세요</tspan><tspan class="cls-25" x="157.18" y="0">.</tspan></text>
      <text class="cls-23" transform="translate(259.476 270.1)"><tspan x="0" y="0">을(를) 묻고 대답 기다리기</tspan></text>
    </g>
    <g>
      <g>
        <path class="cls-28" d="m468.099,289.291H47.587s0,0,0,0l-12.543,11.548s0,0,0,0l-12.023-10.98c-.238-.218-.622-.049-.622.274v54.741c0,.047.011.092.028.135h-.003l.004.004c.02.048.048.093.087.13h.056l11.328,10.345c.663.605,1.678.603,2.338-.005l10.91-10.045c.212-.195.49-.304.779-.304l420.175-.101c15.329,0,27.871-12.542,27.871-27.871h0c0-15.329-12.542-27.871-27.871-27.871Z"/>
        <g>
          <path class="cls-10" d="m489.048,317.206c.233,11.599-9.583,22.21-22.59,21.903-11.361-.268-21.522-9.45-21.508-22.104.014-12.581,10.427-22.278,22.629-21.994,11.969.279,21.786,10.209,21.47,22.194Z"/>
          <path class="cls-18" d="m467.316,307.043c1.421.066,3.283.498,4.796,1.905,2.464,2.29,2.614,5.317.342,7.812-.823.903-1.728,1.735-2.634,2.558-.847.769-1.497,1.641-1.723,2.78-.285,1.438-1.202,2.017-2.552,1.624-1.294-.377-1.297-1.572-1.154-2.621.299-2.203,1.86-3.593,3.427-4.952.334-.29.717-.537.999-.87,1.487-1.758,1.36-3.4-.321-4.537-1.47-.995-3.897-.403-4.808,1.208-.326.577-.531,1.221-.815,1.823-.524,1.11-1.42,1.65-2.58,1.204-1.144-.44-1.405-1.351-1.1-2.592.769-3.131,3.806-5.339,8.123-5.343Z"/>
          <path class="cls-16" d="m466.29,329.758c-1.271-.012-2.113-.925-2.059-2.258.054-1.311.741-2.044,2.063-2.095,1.32-.051,2.369,1,2.32,2.267-.048,1.226-1.02,2.098-2.324,2.086Z"/>
        </g>
      </g>
      <g>
        <g>
          <path class="cls-10" d="m280.035,308.446c-3.978-8.028-10.585-12.205-19.692-12.204l-23.634.017c-13.365.1-23.308,12.743-20.298,25.728,2.245,9.683,10.748,16.352,20.919,16.354l22.63.007c1.562,0,3.108-.072,4.657-.328,13.443-2.215,21.457-17.384,15.417-29.573Z"/>
          <path class="cls-3" d="m247.575,298.25c42.548,0-29.54-.003,13.008.003,9.346.001,16.7,5.774,18.918,14.808,2.597,10.582-4.706,21.37-15.534,23.016-1.222.186-2.431.263-3.655.263-85.04,0,62.236.002-22.804,0-11.651,0-20.056-8.798-19.553-20.436.36-8.321,7.473-16.158,15.669-17.363,1.445-.212,2.876-.287,4.323-.287,42.437-.001-32.807,0,9.629,0Z"/>
        </g>
        <text class="cls-30" transform="translate(230.312 323.904)"><tspan x="0" y="0">대답</tspan></text>
      </g>
      <g>
        <path class="cls-4" d="m109.269,297.249c17.877,0-2.738,0,15.139,0,2.815,0,4.335,2.426,4.336,6.934.003,8.742.003,17.483,0,26.225-.001,4.509-1.521,6.935-4.336,6.935-35.754,0-33.016-.025-68.77.059-2.308.005-4.351-2.765-4.335-6.91.033-8.797.033-17.595,0-26.392-.015-4.145,2.027-6.926,4.335-6.912,17.877.11,35.754.061,53.631.061Z"/>
        <text class="cls-24" transform="translate(61.683 325.13)"><tspan x="0" y="0">코드</tspan></text>
        <path class="cls-6" d="m112.737,313.398c1.503,0,3.006-.003,4.509.001.951.003,1.744.288,2.197,1.211.47.958.064,1.702-.534,2.425-1.451,1.754-2.859,3.543-4.343,5.268-1.318,1.533-2.389,1.523-3.72-.029-1.519-1.771-2.972-3.598-4.452-5.402-.521-.635-.812-1.313-.452-2.145.374-.865,1.045-1.293,1.954-1.309,1.614-.027,3.228-.008,4.842-.008v-.013Z"/>
      </g>
      <text class="cls-23" transform="translate(295.748 325.64)"><tspan x="0" y="0">(으)로 정하기</tspan></text>
      <text class="cls-23" transform="translate(141.684 325.64)"><tspan x="0" y="0">을(를)</tspan></text>
    </g>
    <g>
      <path class="cls-27" d="m1061.519,565.624H72.627l-10.506,11.226-12.645-11.226v-54.641l12.441,11.461,12.387-11.471,977.258-.091c16.083,0,29.097-13.805,27.779-30.15-1.175-14.565-13.733-25.592-28.345-25.592H74.266l-12.35,11.436-12.415-11.436h-.027v-54.172l12.441,11.461,12.387-11.471,968.349-.091c16.083,0,29.097-13.805,27.779-30.151-1.175-14.565-13.733-25.591-28.345-25.591H47.587l-12.543,11.548-12.023-10.98c-.238-.218-.622-.049-.622.274v54.741c0,.047.011.092.028.135h-.004l.091-1.866.056,198.213,12.379,11.613,12.516-11.613h1014.054c8.716,0,15.782-7.066,15.782-15.783s-7.066-15.783-15.782-15.783Z"/>
      <g>
        <path class="cls-13" d="m1063.208,373.1c.233,11.599-9.583,22.21-22.59,21.903-11.361-.268-21.522-9.45-21.508-22.104.014-12.581,10.427-22.278,22.629-21.994,11.969.279,21.786,10.209,21.47,22.194Z"/>
        <path class="cls-12" d="m1049.292,374.632c-.095,0-.185.021-.279.028l-4.684-7.075c.647-.892.942-2.055.623-3.302-.356-1.388-1.5-2.504-2.899-2.812-2.553-.562-4.81,1.366-4.81,3.821,0,.859.284,1.646.753,2.292l-4.684,7.075c-.094-.007-.183-.028-.279-.028-2.466,0-4.4,2.277-3.814,4.843.323,1.416,1.474,2.567,2.89,2.89,2.566.586,4.843-1.348,4.843-3.814,0-1.153-.507-2.18-1.3-2.897l4.386-6.625c.358.108.731.183,1.124.183s.766-.076,1.124-.183l4.386,6.625c-1.013.917-1.56,2.338-1.178,3.884.344,1.389,1.482,2.51,2.877,2.828,2.564.583,4.839-1.35,4.839-3.815,0-2.165-1.755-3.919-3.919-3.919Z"/>
      </g>
      <text class="cls-23" transform="translate(54.303 382.384)"><tspan x="0" y="0">만일</tspan></text>
      <text class="cls-23" transform="translate(916.407 382.384)"><tspan x="0" y="0">(이)라면</tspan></text>
      <text class="cls-23" transform="translate(78.266 494.102)"><tspan x="0" y="0">아니면</tspan></text>
      <polygon class="cls-8" points="52.502 455.14 52.475 455.116 52.475 455.14 52.502 455.14"/>
      <line class="cls-27" x1="52.475" y1="455.116" x2="52.502" y2="455.14"/>
      <g>
        <g>
          <g>
            <polygon class="cls-15" points="126.4 392.65 110.874 372.747 126.4 352.844 886.588 352.844 902.115 372.747 886.588 392.65 126.4 392.65"/>
            <path class="cls-9" d="m886.1,353.844l14.746,18.903-14.746,18.903H126.889l-14.746-18.903,14.746-18.903h759.212m.976-2H125.912l-16.306,20.903,16.306,20.903h761.165l16.307-20.903-16.307-20.903h0Z"/>
          </g>
          <polygon class="cls-8" points="349.681 366.755 349.681 378.872 355.228 373.064 349.681 366.755"/>
        </g>
        <rect class="cls-9" x="483.342" y="353.81" width="93.319" height="37.935" rx="3.871" ry="3.871"/>
        <g>
          <g>
            <polygon class="cls-15" points="140.388 392.65 124.861 372.747 140.388 352.844 452.434 352.844 467.96 372.747 452.434 392.65 140.388 392.65"/>
            <path class="cls-9" d="m451.946,353.844l14.746,18.903-14.746,18.903H140.876l-14.746-18.903,14.746-18.903h311.069m.976-2H139.9l-16.307,20.903,16.307,20.903h313.022l16.306-20.903-16.306-20.903h0Z"/>
          </g>
          <g>
            <g>
              <path class="cls-14" d="m159.69,392.65c-10.975,0-19.903-8.929-19.903-19.903s8.928-19.903,19.903-19.903h136.787c10.975,0,19.903,8.929,19.903,19.903s-8.929,19.903-19.903,19.903h-136.787Z"/>
              <path class="cls-4" d="m296.477,353.844c10.423,0,18.903,8.48,18.903,18.903s-8.48,18.903-18.903,18.903h-136.786c-10.423,0-18.903-8.48-18.903-18.903s8.48-18.903,18.903-18.903h136.786m0-2h-136.786c-11.497,0-20.903,9.406-20.903,20.903h0c0,11.497,9.406,20.903,20.903,20.903h136.786c11.497,0,20.903-9.406,20.903-20.903h0c0-11.497-9.406-20.903-20.903-20.903h0Z"/>
            </g>
            <rect class="cls-4" x="154.597" y="353.81" width="113.935" height="37.935" rx="3.871" ry="3.871"/>
            <text class="cls-30" transform="translate(281.647 379.809)"><tspan x="0" y="0">값</tspan></text>
            <text class="cls-30" transform="translate(164.796 379.81)"><tspan x="0" y="0">비밀번호</tspan></text>
            <path class="cls-6" d="m253.043,368.069c1.503,0,3.006-.003,4.509.001.951.003,1.744.288,2.197,1.211.47.958.064,1.702-.534,2.425-1.451,1.754-2.859,3.543-4.343,5.268-1.318,1.533-2.389,1.523-3.72-.029-1.519-1.771-2.972-3.598-4.452-5.402-.521-.635-.812-1.313-.452-2.145.374-.865,1.045-1.293,1.954-1.309,1.614-.027,3.228-.008,4.842-.008v-.013Z"/>
          </g>
          <g>
            <g>
              <path class="cls-17" d="m397.092,392.65c-10.975,0-19.903-8.929-19.903-19.903s8.929-19.903,19.903-19.903h33.925c10.975,0,19.903,8.929,19.903,19.903s-8.929,19.903-19.903,19.903h-33.925Z"/>
              <path class="cls-19" d="m431.017,353.844c10.423,0,18.903,8.48,18.903,18.903s-8.48,18.903-18.903,18.903h-33.926c-10.423,0-18.903-8.48-18.903-18.903s8.48-18.903,18.903-18.903h33.926m0-2h-33.926c-11.497,0-20.903,9.406-20.903,20.903h0c0,11.497,9.406,20.903,20.903,20.903h33.926c11.497,0,20.903-9.406,20.903-20.903h0c0-11.497-9.406-20.903-20.903-20.903h0Z"/>
            </g>
            <text class="cls-29" transform="translate(388.839 381.1)"><tspan x="0" y="0">1234</tspan></text>
          </g>
        </g>
        <rect class="cls-9" x="329.721" y="352.94" width="30.968" height="39.613" rx="3.355" ry="3.355"/>
        <text class="cls-30" transform="translate(335.168 379.809)"><tspan x="0" y="0">＝</tspan></text>
        <g>
          <g>
            <polygon class="cls-15" points="606.105 392.65 590.578 372.747 606.105 352.844 870.282 352.844 885.809 372.747 870.282 392.65 606.105 392.65"/>
            <path class="cls-9" d="m869.794,353.844l14.746,18.903-14.746,18.903h-263.201l-14.746-18.903,14.746-18.903h263.201m.976-2h-265.154l-16.306,20.903,16.306,20.903h265.154l16.306-20.903-16.306-20.903h0Z"/>
          </g>
          <g>
            <g>
              <path class="cls-14" d="m625.407,392.65c-10.975,0-19.903-8.929-19.903-19.903s8.929-19.903,19.903-19.903h101.14c10.975,0,19.903,8.929,19.903,19.903s-8.929,19.903-19.903,19.903h-101.14Z"/>
              <path class="cls-4" d="m726.547,353.844c10.423,0,18.903,8.48,18.903,18.903s-8.48,18.903-18.903,18.903h-101.14c-10.423,0-18.903-8.48-18.903-18.903s8.48-18.903,18.903-18.903h101.14m0-2h-101.14c-11.497,0-20.903,9.406-20.903,20.903h0c0,11.497,9.406,20.903,20.903,20.903h101.14c11.497,0,20.903-9.406,20.903-20.903h0c0-11.497-9.406-20.903-20.903-20.903h0Z"/>
            </g>
            <rect class="cls-4" x="619.988" y="353.81" width="78.82" height="37.935" rx="3.871" ry="3.871"/>
            <text class="cls-30" transform="translate(711.717 379.809)"><tspan x="0" y="0">값</tspan></text>
            <text class="cls-30" transform="translate(630.513 379.81)"><tspan x="0" y="0">코드</tspan></text>
            <path class="cls-6" d="m683.114,368.069c1.503,0,3.006-.003,4.509.001.951.003,1.744.288,2.197,1.211.47.958.064,1.702-.534,2.425-1.451,1.754-2.859,3.543-4.343,5.268-1.318,1.533-2.389,1.523-3.72-.029-1.519-1.771-2.972-3.598-4.452-5.402-.521-.635-.812-1.313-.452-2.145.374-.865,1.045-1.293,1.954-1.309,1.614-.027,3.228-.008,4.842-.008v-.013Z"/>
          </g>
          <g>
            <g>
              <path class="cls-17" d="m824.942,392.65c-10.975,0-19.903-8.929-19.903-19.903s8.929-19.903,19.903-19.903h24.925c10.975,0,19.903,8.929,19.903,19.903s-8.928,19.903-19.903,19.903h-24.925Z"/>
              <path class="cls-19" d="m849.867,353.844c10.423,0,18.903,8.48,18.903,18.903s-8.48,18.903-18.903,18.903h-24.925c-10.423,0-18.903-8.48-18.903-18.903s8.48-18.903,18.903-18.903h24.925m0-2h-24.925c-11.497,0-20.903,9.406-20.903,20.903h0c0,11.497,9.406,20.903,20.903,20.903h24.925c11.497,0,20.903-9.406,20.903-20.903h0c0-11.497-9.406-20.903-20.903-20.903h0Z"/>
            </g>
            <text class="cls-29" transform="translate(816.69 381.1)"><tspan x="0" y="0">여름</tspan></text>
          </g>
        </g>
        <rect class="cls-9" x="759.232" y="352.94" width="30.968" height="39.613" rx="3.355" ry="3.355"/>
        <text class="cls-30" transform="translate(764.678 379.809)"><tspan x="0" y="0">＝</tspan></text>
        <g>
          <text class="cls-30" transform="translate(492.431 381.1)"><tspan x="0" y="0">그리고</tspan></text>
          <path class="cls-6" d="m560.611,368.069c1.503,0,3.006-.003,4.509.001.951.003,1.744.288,2.197,1.211.47.958.064,1.702-.534,2.425-1.451,1.754-2.859,3.543-4.343,5.268-1.318,1.533-2.389,1.523-3.72-.029-1.519-1.771-2.972-3.598-4.452-5.402-.521-.635-.812-1.313-.452-2.145.374-.865,1.045-1.293,1.954-1.309,1.614-.027,3.228-.008,4.842-.008v-.013Z"/>
        </g>
      </g>
      <g>
        <g>
          <path class="cls-26" d="m658.104,400.966H74.632l-12.543,11.141-12.024-10.593c-.238-.21-.622-.047-.622.265v52.811c0,.098.042.191.115.259l12.53,11.113,12.543-11.219h583.472c15.329,0,27.871-12.1,27.871-26.888h0c0-14.789-12.542-26.888-27.871-26.888Z"/>
          <g>
            <path class="cls-7" d="m633.818,428.36c.085-12.114,9.79-22.01,22.342-21.937,12.159.071,22.178,9.883,21.961,22.471-.203,11.764-9.754,21.773-22.498,21.598-12.042-.166-21.794-9.762-21.805-22.132Z"/>
            <path class="cls-21" d="m656.718,429.797c2.854.024,5.612,2.731,5.624,5.52.014,3.13-2.722,5.849-5.866,5.829-3.016-.018-5.566-2.746-5.533-5.919.031-3.007,2.636-5.457,5.775-5.43Z"/>
            <rect class="cls-21" x="659.106" y="420.182" width="9.448" height="9.448" transform="translate(494.885 -344.947) rotate(45)"/>
            <polygon class="cls-21" points="654.949 427.861 654.949 421.428 649.378 418.212 643.808 421.428 643.808 427.861 649.378 431.077 654.949 427.861"/>
          </g>
        </g>
        <text class="cls-23" transform="translate(294.869 436.419)"><tspan x="0" y="0">을(를)</tspan></text>
        <text class="cls-23" transform="translate(432.277 436.419)"><tspan x="0" y="0">초 동안</tspan></text>
        <g>
          <g>
            <path class="cls-17" d="m96.399,447.976c-10.975,0-19.903-8.929-19.903-19.903s8.928-19.903,19.903-19.903h164.775c10.975,0,19.903,8.929,19.903,19.903s-8.929,19.903-19.903,19.903H96.399Z"/>
            <path class="cls-19" d="m261.174,409.169c10.423,0,18.903,8.48,18.903,18.903s-8.48,18.903-18.903,18.903H96.399c-10.423,0-18.903-8.48-18.903-18.903s8.48-18.903,18.903-18.903h164.775m0-2H96.399c-11.497,0-20.903,9.406-20.903,20.903h0c0,11.497,9.406,20.903,20.903,20.903h164.775c11.497,0,20.903-9.406,20.903-20.903h0c0-11.497-9.406-20.903-20.903-20.903h0Z"/>
          </g>
          <text class="cls-29" transform="translate(90.936 436.426)"><tspan x="0" y="0">어서 오세요</tspan><tspan class="cls-25" x="100.139" y="0">,</tspan><tspan x="105.757" y="0" xml:space="preserve"> 주인님! </tspan></text>
        </g>
        <g>
          <rect class="cls-5" x="523.205" y="408.974" width="95.645" height="38.968" rx="3.871" ry="3.871"/>
          <text class="cls-30" transform="translate(533.73 436.812)"><tspan x="0" y="0">말하기</tspan></text>
          <path class="cls-6" d="m602.35,423.781c1.503,0,3.006-.003,4.509.001.951.003,1.744.288,2.197,1.211.47.958.064,1.702-.534,2.425-1.451,1.754-2.859,3.543-4.343,5.268-1.318,1.533-2.389,1.523-3.72-.029-1.519-1.771-2.972-3.598-4.452-5.402-.521-.635-.812-1.313-.452-2.145.374-.865,1.045-1.293,1.954-1.309,1.614-.027,3.228-.008,4.842-.008v-.013Z"/>
        </g>
        <g>
          <g>
            <circle class="cls-17" cx="394.104" cy="428.073" r="19.903"/>
            <path class="cls-19" d="m394.104,409.169c10.423,0,18.903,8.48,18.903,18.903s-8.48,18.903-18.903,18.903-18.903-8.48-18.903-18.903,8.48-18.903,18.903-18.903m0-2c-11.497,0-20.903,9.406-20.903,20.903s9.406,20.903,20.903,20.903,20.903-9.406,20.903-20.903-9.406-20.903-20.903-20.903h0Z"/>
          </g>
          <text class="cls-29" transform="translate(385.851 436.426)"><tspan x="0" y="0">4</tspan></text>
        </g>
      </g>
      <g>
        <g>
          <path class="cls-26" d="m705.188,511.321H74.761l-12.543,11.141-12.024-10.593c-.238-.21-.622-.047-.622.265v52.811c0,.098.042.191.115.259l12.53,11.113,12.543-11.219h630.427c15.329,0,27.871-12.1,27.871-26.888h0c0-14.789-12.542-26.888-27.871-26.888Z"/>
          <g>
            <path class="cls-7" d="m680.903,538.714c.085-12.114,9.79-22.01,22.342-21.937,12.159.071,22.178,9.883,21.961,22.471-.203,11.764-9.754,21.773-22.498,21.598-12.042-.166-21.794-9.762-21.805-22.132Z"/>
            <path class="cls-21" d="m703.803,540.152c2.854.024,5.612,2.731,5.624,5.52.014,3.13-2.722,5.849-5.866,5.829-3.016-.018-5.566-2.746-5.533-5.919.031-3.007,2.636-5.457,5.775-5.43Z"/>
            <rect class="cls-21" x="706.19" y="530.536" width="9.448" height="9.448" transform="translate(586.708 -345.918) rotate(45)"/>
            <polygon class="cls-21" points="702.034 538.215 702.034 531.783 696.463 528.566 690.892 531.783 690.892 538.215 696.463 541.432 702.034 538.215"/>
          </g>
        </g>
        <text class="cls-23" transform="translate(344.954 548.064)"><tspan x="0" y="0">을(를)</tspan></text>
        <text class="cls-23" transform="translate(479.361 548.064)"><tspan x="0" y="0">초 동안</tspan></text>
        <g>
          <g>
            <path class="cls-17" d="m96.528,558.33c-10.975,0-19.903-8.929-19.903-19.903s8.929-19.903,19.903-19.903h217.037c10.975,0,19.903,8.929,19.903,19.903s-8.929,19.903-19.903,19.903H96.528Z"/>
            <path class="cls-19" d="m313.565,519.524c10.423,0,18.903,8.48,18.903,18.903s-8.48,18.903-18.903,18.903H96.528c-10.423,0-18.903-8.48-18.903-18.903s8.48-18.903,18.903-18.903h217.037m0-2H96.528c-11.497,0-20.903,9.406-20.903,20.903s9.406,20.903,20.903,20.903h217.037c11.497,0,20.903-9.406,20.903-20.903s-9.406-20.903-20.903-20.903h0Z"/>
          </g>
          <text class="cls-29" transform="translate(91.065 546.781)"><tspan x="0" y="0">허가되지 않은 사람입니다</tspan><tspan class="cls-25" x="219.291" y="0">.</tspan></text>
        </g>
        <g>
          <rect class="cls-5" x="570.29" y="519.329" width="95.645" height="38.968" rx="3.871" ry="3.871"/>
          <text class="cls-30" transform="translate(580.815 547.166)"><tspan x="0" y="0">말하기</tspan></text>
          <path class="cls-6" d="m649.435,534.135c1.503,0,3.006-.003,4.509.001.951.003,1.744.288,2.197,1.211.47.958.064,1.702-.534,2.425-1.451,1.754-2.859,3.543-4.343,5.268-1.318,1.533-2.389,1.523-3.72-.029-1.519-1.771-2.972-3.598-4.452-5.402-.521-.635-.812-1.313-.452-2.145.374-.865,1.045-1.293,1.954-1.309,1.614-.027,3.228-.008,4.842-.008v-.013Z"/>
        </g>
        <g>
          <g>
            <circle class="cls-17" cx="441.189" cy="538.427" r="19.903"/>
            <path class="cls-19" d="m441.189,519.524c10.423,0,18.903,8.48,18.903,18.903s-8.48,18.903-18.903,18.903-18.903-8.48-18.903-18.903,8.48-18.903,18.903-18.903m0-2h0c-11.497,0-20.903,9.406-20.903,20.903h0c0,11.497,9.406,20.903,20.903,20.903h0c11.497,0,20.903-9.406,20.903-20.903h0c0-11.497-9.406-20.903-20.903-20.903h0Z"/>
          </g>
          <text class="cls-29" transform="translate(432.936 546.78)"><tspan x="0" y="0">4</tspan></text>
        </g>
      </g>
    </g>
  </g>
  <path class="cls-11" d="m109.269,184.71c17.877,0,35.182,0,53.059,0,2.815,0,4.335,2.426,4.336,6.934.003,8.742.003,17.483,0,26.225-.001,4.509-1.521,6.935-4.336,6.935-35.754,0-70.936-.025-106.69.059-2.308.005-4.351-2.765-4.335-6.91.033-8.797.033-17.595,0-26.392-.015-4.145,2.027-6.926,4.335-6.912,17.877.11,35.754.061,53.631.061Z"/>
  <path class="cls-11" d="m109.269,297.249c17.877,0-2.738,0,15.139,0,2.815,0,4.335,2.426,4.336,6.934.003,8.742.003,17.483,0,26.225-.001,4.509-1.521,6.935-4.336,6.935-35.754,0-33.016-.025-68.77.059-2.308.005-4.351-2.765-4.335-6.91.033-8.797.033-17.595,0-26.392-.015-4.145,2.027-6.926,4.335-6.912,17.877.11,35.754.061,53.631.061Z"/>
  <rect class="cls-11" x="483.342" y="353.81" width="93.319" height="37.935" rx="3.871" ry="3.871"/>
  <rect class="cls-11" x="619.988" y="353.81" width="78.82" height="37.935" rx="3.871" ry="3.871"/>
  <rect class="cls-11" x="154.597" y="353.81" width="113.935" height="37.935" rx="3.871" ry="3.871"/>
</svg>