<?xml version="1.0" encoding="UTF-8"?>
<svg id="_레이어_1" data-name="레이어 1" xmlns="http://www.w3.org/2000/svg" viewBox="0 0 542.662 333.619">
  <defs>
    <style>
      .cls-1 {
        fill: #8b19db;
      }

      .cls-1, .cls-2, .cls-3, .cls-4, .cls-5, .cls-6, .cls-7, .cls-8, .cls-9, .cls-10, .cls-11, .cls-12, .cls-13, .cls-14 {
        stroke-width: 0px;
      }

      .cls-2, .cls-15, .cls-16, .cls-17 {
        fill: #fefefe;
      }

      .cls-18, .cls-19 {
        letter-spacing: -.025em;
      }

      .cls-3 {
        fill: #c72042;
      }

      .cls-19, .cls-15, .cls-16, .cls-20, .cls-17, .cls-21 {
        font-family: Pretendard-Bold-KSCpc-EUC-H, Pretendard;
        font-weight: 700;
      }

      .cls-19, .cls-20, .cls-21 {
        font-size: 22px;
      }

      .cls-19, .cls-21 {
        fill: #fff;
      }

      .cls-4 {
        fill: #fefdfe;
      }

      .cls-5 {
        fill: #c62042;
      }

      .cls-22 {
        fill: #fe3a61;
        stroke: #c62142;
      }

      .cls-22, .cls-23, .cls-24, .cls-25 {
        stroke-width: 2px;
      }

      .cls-22, .cls-24, .cls-25 {
        stroke-linecap: round;
        stroke-linejoin: round;
      }

      .cls-23 {
        stroke: #009400;
        stroke-miterlimit: 10;
      }

      .cls-23, .cls-14 {
        fill: #00b300;
      }

      .cls-26 {
        letter-spacing: -.113em;
      }

      .cls-15, .cls-16, .cls-17 {
        font-size: 26px;
      }

      .cls-24 {
        fill: #19baea;
        stroke: #1498c0;
      }

      .cls-6 {
        fill: #6dddfe;
      }

      .cls-7 {
        fill: #1498c0;
      }

      .cls-8 {
        fill: #008380;
      }

      .cls-27 {
        letter-spacing: -.054em;
      }

      .cls-9 {
        fill: #bd65fb;
      }

      .cls-10 {
        fill: #00b6b1;
      }

      .cls-25 {
        fill: #ad3efb;
        stroke: #8b19db;
      }

      .cls-11 {
        fill: #fedd81;
      }

      .cls-16 {
        letter-spacing: -.025em;
      }

      .cls-12 {
        fill: #fe9b00;
      }

      .cls-17 {
        letter-spacing: -.01em;
      }

      .cls-13 {
        fill: #fe5576;
      }
    </style>
  </defs>
  <g>
    <g>
      <path class="cls-23" d="m378.366,33.954c-2.293-12.79-13.661-22.1-26.741-22.14-81.917-.248-207.345-.502-289.263-.713-2.727-.007-4.859-.438-7.168-2.398C48.028,2.617,39.547.119,30.1,1.274,20.381,2.464,12.681,7.161,7.067,15.04,2.193,21.879.212,29.582,1.283,38.024c1.177,9.281,5.523,16.675,12.825,22.461,2.165,1.716,6.8,4.434,7.455,4.816.055.032.101.067.148.11l11.686,10.762c.84.872,2.14.793,2.931-.015l10.743-9.885c.259-.239.6-.372.952-.372l301.593.032c1.539.004,3.069-.064,4.601-.205l.974-.089c15.315-1.89,25.945-16.233,23.175-31.685Z"/>
      <path class="cls-2" d="m34.016,62.097c-15.479-.051-28.037-12.66-27.997-28.114.04-15.539,12.694-28.067,28.28-27.997,15.45.069,27.973,12.719,27.913,28.197-.06,15.443-12.708,27.965-28.196,27.914Z"/>
      <text class="cls-15" transform="translate(73.186 46.249) rotate(.173)"><tspan x="0" y="0">시작하기 버튼을 클릭했을 때</tspan></text>
    </g>
    <path class="cls-14" d="m27.49,33.709c0-2.979-.003-5.959.002-8.938.001-.871-.04-1.782.9-2.272.89-.464,1.669-.113,2.434.376,4.656,2.978,9.324,5.939,13.977,8.921,2.063,1.322,2.073,2.615.042,3.913-4.656,2.976-9.325,5.932-13.976,8.916-.771.495-1.55.863-2.428.428-.92-.456-.963-1.342-.958-2.244.016-3.033.006-6.067.006-9.101Z"/>
  </g>
  <g>
    <path class="cls-24" d="m248.507,289.441H73.833l-11.952,10.3-12.334-10.977V122.827c0-.398.474-.606.766-.336l11.675,10.755,12.896-11.471,161.98-.091c16.083,0,29.097-13.805,27.779-30.15-1.175-14.565-13.733-25.592-28.345-25.592H47.659l-12.543,11.548-12.023-10.98c-.238-.218-.622-.049-.622.274v54.741c0,.047.011.092.028.135h-.004l.091.134.056,199.212,12.379,11.613,12.516-11.613h201.416c8.969,0,16.191-7.482,15.764-16.546-.4-8.489-7.712-15.02-16.21-15.02Z"/>
    <g>
      <path class="cls-7" d="m254.613,93.857c.233,11.599-9.583,22.21-22.59,21.903-11.361-.268-21.522-9.45-21.508-22.104.014-12.581,10.427-22.278,22.629-21.994,11.969.279,21.786,10.209,21.47,22.194Z"/>
      <path class="cls-6" d="m240.697,95.389c-.095,0-.185.021-.279.028l-4.684-7.075c.647-.892.943-2.055.623-3.301-.355-1.388-1.5-2.504-2.899-2.812-2.553-.562-4.81,1.366-4.81,3.821,0,.859.284,1.646.753,2.292l-4.684,7.075c-.094-.007-.183-.028-.279-.028-2.466,0-4.4,2.277-3.814,4.843.323,1.417,1.474,2.567,2.89,2.89,2.566.586,4.843-1.348,4.843-3.814,0-1.154-.507-2.18-1.3-2.897l4.386-6.625c.358.108.731.183,1.124.183s.766-.076,1.124-.183l4.386,6.625c-1.013.917-1.56,2.338-1.178,3.884.344,1.39,1.482,2.511,2.877,2.828,2.564.583,4.839-1.35,4.839-3.815,0-2.165-1.755-3.919-3.919-3.919Z"/>
    </g>
    <text class="cls-15" transform="translate(56.481 101.614)"><tspan x="0" y="0">계속 반복하기</tspan></text>
  </g>
  <g>
    <g>
      <path class="cls-22" d="m363.291,121.892H74.704l-12.543,11.548-12.024-10.981c-.238-.218-.622-.049-.622.274v54.741c0,.102.042.198.115.269l12.53,11.519,12.543-11.629h288.587c15.329,0,27.871-12.542,27.871-27.871h0c0-15.329-12.542-27.871-27.871-27.871Z"/>
      <path class="cls-5" d="m339.006,149.286c.085-12.114,9.79-22.01,22.342-21.937,12.159.071,22.178,9.883,21.961,22.471-.203,11.764-9.754,21.773-22.498,21.598-12.042-.166-21.794-9.762-21.805-22.132Z"/>
      <path class="cls-13" d="m361.906,150.724c2.854.024,5.612,2.731,5.624,5.52.014,3.13-2.722,5.849-5.866,5.829-3.016-.018-5.566-2.746-5.533-5.919.031-3.007,2.636-5.457,5.775-5.43Z"/>
      <rect class="cls-13" x="364.293" y="141.108" width="9.448" height="9.448" transform="translate(211.201 -218.221) rotate(45)"/>
      <polygon class="cls-13" points="360.136 148.787 360.136 142.354 354.566 139.138 348.995 142.354 348.995 148.787 354.566 152.003 360.136 148.787"/>
      <text class="cls-16" transform="translate(169.365 158.512)"><tspan x="0" y="0">모양으로 바꾸기</tspan></text>
      <g>
        <rect class="cls-3" x="81.339" y="130.675" width="75.887" height="38.968" rx="3.871" ry="3.871"/>
        <text class="cls-19" transform="translate(91.864 158.512)"><tspan x="0" y="0">다음</tspan></text>
        <path class="cls-4" d="m140.727,145.481c1.503,0,3.006-.003,4.509.001.951.003,1.744.288,2.197,1.211.47.958.064,1.702-.534,2.425-1.451,1.754-2.859,3.543-4.343,5.268-1.318,1.533-2.389,1.523-3.72-.029-1.519-1.771-2.972-3.598-4.452-5.402-.521-.635-.812-1.313-.452-2.145.374-.865,1.045-1.293,1.954-1.309,1.614-.027,3.228-.008,4.842-.008v-.013Z"/>
      </g>
    </g>
    <g>
      <g>
        <g>
          <path class="cls-25" d="m513.175,177.541H74.704s0,0,0,0l-12.543,11.548h0l-12.023-10.98c-.238-.218-.622-.049-.622.274v54.841l.171.168,11.328,10.345c.662.605,1.677.603,2.337-.005l10.91-10.045c.212-.195.49-.304.779-.304l438.75-.101c16.067,0,29.071-13.778,27.783-30.102-1.152-14.595-13.758-25.64-28.399-25.64Z"/>
          <g>
            <path class="cls-1" d="m490.641,205.231c.085-12.114,9.79-22.01,22.342-21.937,12.159.071,22.178,9.883,21.961,22.471-.203,11.764-9.754,21.773-22.498,21.598-12.042-.166-21.794-9.762-21.805-22.132Z"/>
            <g>
              <path class="cls-9" d="m524.691,199.718l-4.943-3.73c-.539-.406-1.31-.022-1.31.652v1.443c0,.032-.028.058-.06.055l-8.772-.872c-.481-.048-.898.33-.898.813v4.582c0,.483.417.861.898.813l8.772-.872c.032-.003.06.022.06.055v1.443c0,.675.771,1.059,1.31.652l4.943-3.73c.433-.327.433-.978,0-1.305Z"/>
              <path class="cls-9" d="m500.897,210.942l4.943,3.73c.539.406,1.31.022,1.31-.652v-1.443c0-.032.028-.058.06-.055l8.772.872c.481.048.898-.33.898-.813v-4.582c0-.483-.417-.861-.898-.813l-8.772.872c-.032.003-.06-.022-.06-.055v-1.443c0-.675-.771-1.059-1.31-.652l-4.943,3.73c-.433.327-.433.978,0,1.305Z"/>
            </g>
          </g>
        </g>
        <text class="cls-17" transform="translate(78.558 213.89)"><tspan x="0" y="0">x 좌표를</tspan></text>
        <text class="cls-17" transform="translate(361.831 213.89)"><tspan x="0" y="0">만큼 바꾸기</tspan></text>
      </g>
      <g>
        <g>
          <path class="cls-10" d="m196.942,225.214c-10.975,0-19.903-8.929-19.903-19.903s8.928-19.903,19.903-19.903h134.268c10.975,0,19.903,8.929,19.903,19.903s-8.928,19.903-19.903,19.903h-134.268Z"/>
          <path class="cls-8" d="m331.21,186.407c10.423,0,18.903,8.48,18.903,18.903s-8.48,18.903-18.903,18.903h-134.268c-10.423,0-18.903-8.48-18.903-18.903s8.48-18.903,18.903-18.903h134.268m0-2h-134.268c-11.497,0-20.903,9.406-20.903,20.903s9.406,20.903,20.903,20.903h134.268c11.497,0,20.903-9.406,20.903-20.903s-9.406-20.903-20.903-20.903h0Z"/>
        </g>
        <text class="cls-21" transform="translate(192.458 212.373)"><tspan x="0" y="0">마이크 소리 크기</tspan></text>
      </g>
    </g>
    <g>
      <g>
        <path class="cls-24" d="m301.532,233.24H74.704s0,0,0,0l-12.543,11.548s0,0,0,0l-12.023-10.98c-.238-.218-.622-.049-.622.274v54.741c0,.047.011.092.028.135h-.003l.004.004c.02.048.048.093.087.13h.056l11.328,10.345c.663.605,1.678.603,2.338-.005l10.91-10.045c.212-.195.49-.304.779-.304l226.491-.101c15.329,0,27.871-12.542,27.871-27.871h0c0-15.329-12.542-27.871-27.871-27.871Z"/>
        <g>
          <path class="cls-7" d="m322.281,261.155c.233,11.599-9.583,22.21-22.59,21.903-11.361-.268-21.522-9.45-21.508-22.104.014-12.581,10.427-22.278,22.629-21.994,11.969.279,21.786,10.209,21.47,22.194Z"/>
          <path class="cls-6" d="m308.365,262.687c-.095,0-.185.021-.279.028l-4.684-7.075c.468-.646.753-1.433.753-2.292,0-2.165-1.755-3.919-3.919-3.919s-3.919,1.755-3.919,3.919c0,.859.284,1.646.753,2.292l-4.684,7.075c-.094-.007-.183-.028-.279-.028-2.165,0-3.919,1.755-3.919,3.919s1.755,3.919,3.919,3.919,3.919-1.755,3.919-3.919c0-1.153-.507-2.18-1.3-2.897l4.386-6.625c.358.108.731.183,1.124.183s.766-.076,1.124-.183l4.386,6.625c-.793.717-1.3,1.744-1.3,2.897,0,2.165,1.755,3.919,3.919,3.919s3.919-1.755,3.919-3.919-1.755-3.919-3.919-3.919Z"/>
        </g>
      </g>
      <g>
        <g>
          <path class="cls-11" d="m97.306,280.749c-10.975,0-19.903-8.929-19.903-19.903s8.929-19.903,19.903-19.903h16.971c10.975,0,19.903,8.929,19.903,19.903s-8.929,19.903-19.903,19.903h-16.971Z"/>
          <path class="cls-12" d="m114.277,241.943c10.423,0,18.903,8.48,18.903,18.903s-8.48,18.903-18.903,18.903h-16.971c-10.423,0-18.903-8.48-18.903-18.903s8.48-18.903,18.903-18.903h16.971m0-2h-16.971c-11.497,0-20.903,9.406-20.903,20.903h0c0,11.497,9.407,20.903,20.903,20.903h16.971c11.497,0,20.903-9.406,20.903-20.903h0c0-11.497-9.407-20.903-20.903-20.903h0Z"/>
        </g>
        <text class="cls-20" transform="translate(92.378 268.123)"><tspan class="cls-27" x="0" y="0">0</tspan><tspan class="cls-26" x="13.34" y="0">.</tspan><tspan class="cls-18" x="17.065" y="0">1</tspan></text>
        <text class="cls-15" transform="translate(146.925 270.483)"><tspan x="0" y="0">초 기다리기</tspan></text>
      </g>
    </g>
  </g>
</svg>