<?xml version="1.0" encoding="UTF-8"?>
<svg id="_레이어_2" data-name="레이어 2" xmlns="http://www.w3.org/2000/svg" viewBox="0 0 672.189 389.129">
  <defs>
    <style>
      .cls-1, .cls-2, .cls-3, .cls-4, .cls-5, .cls-6, .cls-7, .cls-8, .cls-9, .cls-10, .cls-11, .cls-12, .cls-13, .cls-14 {
        stroke-width: 0px;
      }

      .cls-1, .cls-15, .cls-16 {
        fill: #fefefe;
      }

      .cls-2 {
        fill: #009400;
      }

      .cls-17 {
        letter-spacing: -.032em;
      }

      .cls-18 {
        fill: #8222ff;
        stroke: #6308d8;
      }

      .cls-18, .cls-19, .cls-20, .cls-21 {
        stroke-width: 2px;
      }

      .cls-18, .cls-19, .cls-21 {
        stroke-linecap: round;
        stroke-linejoin: round;
      }

      .cls-3 {
        fill: #c72042;
      }

      .cls-22 {
        letter-spacing: -.025em;
      }

      .cls-22, .cls-15, .cls-16, .cls-23, .cls-24 {
        font-family: Pretendard-Bold-KSCpc-EUC-H, Pretendard;
        font-weight: 700;
      }

      .cls-22, .cls-23, .cls-24 {
        font-size: 22px;
      }

      .cls-22, .cls-24 {
        fill: #fff;
      }

      .cls-4 {
        fill: #fefdfe;
      }

      .cls-5 {
        fill: #c62042;
      }

      .cls-19 {
        fill: #fe3a61;
        stroke: #c62142;
      }

      .cls-20 {
        stroke: #009400;
        stroke-miterlimit: 10;
      }

      .cls-20, .cls-14 {
        fill: #00b300;
      }

      .cls-6 {
        fill: none;
      }

      .cls-15, .cls-16 {
        font-size: 26px;
      }

      .cls-21 {
        fill: #19baea;
        stroke: #1498c0;
      }

      .cls-7 {
        fill: #af71ff;
      }

      .cls-8 {
        fill: #6dddfe;
      }

      .cls-9 {
        fill: #1498c0;
      }

      .cls-10 {
        fill: #6308d8;
      }

      .cls-11 {
        fill: #fedd81;
      }

      .cls-16 {
        letter-spacing: -.025em;
      }

      .cls-12 {
        fill: #fe9b00;
      }

      .cls-13 {
        fill: #fe5576;
      }
    </style>
  </defs>
  <g>
    <g>
      <g>
        <path class="cls-20" d="m371.815,33.954c-2.293-12.79-13.661-22.1-26.741-22.14-81.917-.248-200.794-.502-282.712-.713-2.727-.007-4.859-.438-7.168-2.399C48.028,2.617,39.547.119,30.1,1.274,20.381,2.464,12.681,7.161,7.067,15.04,2.193,21.879.212,29.582,1.283,38.024c1.177,9.281,5.523,16.675,12.825,22.461,2.165,1.716,6.8,4.434,7.455,4.816.055.032.101.067.148.11l11.686,10.762c.84.872,2.14.793,2.931-.015l10.743-9.885c.26-.239.6-.372.952-.372l295.042.032c1.539.004,3.069-.064,4.601-.205l.974-.089c15.315-1.89,25.945-16.233,23.175-31.685Z"/>
        <path class="cls-1" d="m34.016,62.097c-15.48-.051-28.037-12.66-27.997-28.114.04-15.539,12.694-28.067,28.28-27.997,15.45.069,27.973,12.72,27.913,28.197-.06,15.443-12.708,27.965-28.196,27.914Z"/>
        <text class="cls-15" transform="translate(201.744 46.248) rotate(.173)"><tspan x="0" y="0">키를 눌렀을 때</tspan></text>
      </g>
      <path class="cls-14" d="m27.49,33.709c0-2.979-.003-5.959.002-8.938.001-.871-.04-1.782.9-2.272.89-.464,1.669-.113,2.434.376,4.656,2.978,9.324,5.939,13.977,8.921,2.063,1.322,2.073,2.615.042,3.913-4.656,2.976-9.325,5.932-13.976,8.916-.771.495-1.55.863-2.428.428-.92-.456-.963-1.342-.958-2.244.016-3.033.006-6.067.006-9.101Z"/>
    </g>
    <g>
      <rect class="cls-2" x="73.186" y="18.447" width="113.508" height="38.968" rx="3.871" ry="3.871"/>
      <text class="cls-22" transform="translate(83.711 46.283)"><tspan x="0" y="0">스페이스</tspan></text>
      <path class="cls-4" d="m170.194,33.253c1.503,0,3.006-.003,4.509.001.951.003,1.744.288,2.197,1.211.47.958.064,1.702-.534,2.425-1.451,1.754-2.859,3.543-4.343,5.268-1.318,1.533-2.389,1.523-3.72-.029-1.519-1.771-2.972-3.598-4.452-5.402-.521-.635-.812-1.313-.452-2.145.374-.865,1.045-1.293,1.954-1.309,1.614-.027,3.228-.008,4.842-.008v-.013Z"/>
    </g>
  </g>
  <g>
    <g>
      <path class="cls-18" d="m320.044,65.922H47.178l-12.543,11.548-12.024-10.981c-.238-.218-.622-.049-.622.274v54.741c0,.102.042.198.115.269l12.53,11.519,12.543-11.629h272.866c15.329,0,27.871-12.542,27.871-27.871h0c0-15.329-12.542-27.871-27.871-27.871Z"/>
      <path class="cls-10" d="m295.759,93.315c.085-12.114,9.79-22.01,22.342-21.937,12.159.071,22.178,9.883,21.961,22.471-.203,11.764-9.754,21.773-22.498,21.598-12.042-.166-21.794-9.762-21.805-22.132Z"/>
      <text class="cls-16" transform="translate(50.994 102.542)"><tspan x="0" y="0">학습한 모델로 분류하기</tspan></text>
    </g>
    <g>
      <path class="cls-7" d="m312.619,107.602h11.917v-2.308c0-1.188-.12-3.844.74-4.664,1.611-1.538,3.936-4.26,4.907-8.682.295-1.346.701-5.069-1.924-8.199-3.663-4.368-8.436-4.478-9.277-4.511-.931-.037-5.858-.23-9.382,3.613-2.686,2.929-3.174,6.696-2.912,9.167.017.16.117.401.108.755-.047,1.783-1.93,2.377-1.941,3.37-.007.647.35,1.456,1.78,1.375.14,1.927.328,3.472.485,4.583.062.443.103.695.27.97.927,1.532,4.139,1.107,5.284.917l-.054,3.613Z"/>
      <g>
        <path class="cls-10" d="m312.305,95.537l2.626-7.573h2.019l2.615,7.573h-1.684l-.565-1.747h-2.741l-.575,1.747h-1.695Zm4.613-2.971l-.952-2.897h-.052l-.942,2.897h1.946Z"/>
        <path class="cls-10" d="m321.718,95.537h-1.569v-7.573h1.569v7.573Z"/>
      </g>
    </g>
  </g>
  <g>
    <path class="cls-21" d="m550.492,344.951H72.217l-11.613,11.226-11.538-11.226v-55.835l12.441,11.461,12.387-11.471,464.509-.091c16.083,0,29.097-13.805,27.779-30.15-1.175-14.565-13.733-25.592-28.345-25.592H73.857l-12.35,11.436-12.415-11.436h-.027v-55.584l12.441,11.461,12.387-11.471,464.509-.091c16.083,0,29.097-13.805,27.779-30.151-1.175-14.565-13.733-25.591-28.345-25.591H47.178l-12.543,11.548-12.023-10.98c-.238-.218-.622-.049-.622.274v54.741c0,.047.011.092.028.135h-.004l.091.134.056,198.818,12.379,11.613,12.516-11.613h503.437c8.716,0,15.782-7.066,15.782-15.783s-7.066-15.783-15.782-15.783Z"/>
    <g>
      <path class="cls-9" d="m556.152,149.762c.233,11.599-9.583,22.21-22.59,21.903-11.361-.268-21.522-9.45-21.508-22.104.014-12.581,10.427-22.278,22.629-21.994,11.969.279,21.786,10.209,21.47,22.194Z"/>
      <path class="cls-8" d="m542.236,151.294c-.095,0-.185.021-.279.028l-4.684-7.075c.647-.892.942-2.055.623-3.302-.356-1.388-1.5-2.504-2.899-2.812-2.553-.562-4.81,1.366-4.81,3.821,0,.859.284,1.646.753,2.292l-4.684,7.075c-.094-.007-.183-.028-.279-.028-2.466,0-4.4,2.277-3.814,4.843.323,1.416,1.474,2.567,2.89,2.89,2.566.586,4.843-1.348,4.843-3.814,0-1.153-.507-2.18-1.3-2.897l4.386-6.625c.358.108.731.183,1.124.183s.766-.076,1.124-.183l4.386,6.625c-1.013.917-1.56,2.338-1.178,3.884.344,1.389,1.482,2.51,2.877,2.828,2.564.583,4.839-1.35,4.839-3.815,0-2.165-1.755-3.919-3.919-3.919Z"/>
    </g>
    <text class="cls-15" transform="translate(50.894 158.808)"><tspan x="0" y="0">만일</tspan></text>
    <text class="cls-15" transform="translate(409.083 157.808)"><tspan x="0" y="0">(이)라면</tspan></text>
    <text class="cls-15" transform="translate(74.857 272.235)"><tspan x="0" y="0">아니면</tspan></text>
    <polygon class="cls-6" points="49.093 233.273 49.066 233.249 49.066 233.273 49.093 233.273"/>
    <g>
      <polygon class="cls-18" points="377.161 128.713 122.502 128.713 106.196 149.616 122.502 170.52 377.161 170.52 393.467 149.616 377.161 128.713"/>
      <text class="cls-24" transform="translate(122.953 156.969)"><tspan x="0" y="0">분류 결과가</tspan></text>
      <g>
        <rect class="cls-10" x="234.667" y="129.273" width="79.138" height="40.687" rx="3.955" ry="3.955"/>
        <text class="cls-24" transform="translate(326.715 156.969)"><tspan x="0" y="0">인가?</tspan></text>
        <text class="cls-24" transform="translate(245.192 156.969)"><tspan x="0" y="0">주인</tspan></text>
        <path class="cls-4" d="m298.111,144.939c1.503,0,3.006-.003,4.509.001.951.003,1.744.288,2.197,1.211.47.958.064,1.702-.534,2.425-1.451,1.754-2.859,3.543-4.343,5.268-1.318,1.533-2.389,1.523-3.72-.029-1.519-1.771-2.972-3.598-4.452-5.402-.521-.635-.812-1.313-.452-2.145.374-.865,1.045-1.293,1.954-1.309,1.614-.027,3.228-.008,4.842-.008v-.013Z"/>
      </g>
    </g>
  </g>
  <g>
    <path class="cls-19" d="m638.317,177.541H74.092l-12.543,11.548-12.024-10.981c-.238-.218-.622-.049-.622.274v54.741c0,.102.042.198.115.269l12.53,11.519,12.543-11.629h564.225c15.329,0,27.871-12.542,27.871-27.871h0c0-15.329-12.542-27.871-27.871-27.871Z"/>
    <path class="cls-5" d="m614.032,204.935c.085-12.114,9.79-22.01,22.342-21.937,12.159.071,22.178,9.883,21.961,22.471-.203,11.764-9.754,21.773-22.498,21.598-12.042-.166-21.794-9.762-21.805-22.132Z"/>
    <path class="cls-13" d="m636.932,206.372c2.854.024,5.612,2.731,5.624,5.52.014,3.13-2.722,5.849-5.866,5.829-3.016-.018-5.566-2.746-5.533-5.919.031-3.007,2.636-5.457,5.775-5.43Z"/>
    <rect class="cls-13" x="639.319" y="196.757" width="9.448" height="9.448" transform="translate(331.104 -396.395) rotate(45)"/>
    <polygon class="cls-13" points="635.163 204.435 635.163 198.003 629.592 194.787 624.021 198.003 624.021 204.435 629.592 207.652 635.163 204.435"/>
    <text class="cls-16" transform="translate(296.647 214.514)"><tspan x="0" y="0">을(를)</tspan></text>
    <text class="cls-16" transform="translate(423.099 214.514)"><tspan x="0" y="0">초 동안</tspan></text>
    <g>
      <rect class="cls-3" x="508.519" y="186.323" width="95.637" height="38.968" rx="3.871" ry="3.871"/>
      <text class="cls-22" transform="translate(519.044 214.159)"><tspan x="0" y="0">말하기</tspan></text>
      <path class="cls-4" d="m587.657,201.129c1.503,0,3.006-.003,4.509.001.951.003,1.744.288,2.197,1.211.47.958.064,1.702-.534,2.425-1.451,1.754-2.859,3.543-4.343,5.268-1.318,1.533-2.389,1.523-3.72-.029-1.519-1.771-2.972-3.598-4.452-5.402-.521-.635-.812-1.313-.452-2.145.374-.865,1.045-1.293,1.954-1.309,1.614-.027,3.228-.008,4.842-.008v-.013Z"/>
    </g>
    <g>
      <g>
        <rect class="cls-11" x="73.04" y="185.904" width="209.53" height="39.806" rx="19.405" ry="19.405"/>
        <path class="cls-12" d="m263.165,186.904c10.149,0,18.406,8.257,18.406,18.405v.996c0,10.149-8.257,18.405-18.406,18.405H92.446c-10.149,0-18.405-8.257-18.405-18.405v-.996c0-10.149,8.257-18.405,18.405-18.405h170.719m0-2H92.446c-11.223,0-20.405,9.182-20.405,20.405v.996c0,11.223,9.182,20.405,20.405,20.405h170.719c11.223,0,20.406-9.182,20.406-20.405v-.996c0-11.223-9.182-20.405-20.406-20.405h0Z"/>
      </g>
      <text class="cls-23" transform="translate(89.924 214.159)"><tspan x="0" y="0">주인님! 안녕하세요?</tspan></text>
    </g>
    <g>
      <g>
        <path class="cls-11" d="m392.337,185.904h.808c10.71,0,19.405,8.695,19.405,19.405v.995c0,10.71-8.695,19.406-19.406,19.406h-.807c-10.71,0-19.405-8.695-19.405-19.405v-.996c0-10.71,8.695-19.405,19.405-19.405Z"/>
        <path class="cls-12" d="m393.145,186.904c10.149,0,18.405,8.257,18.405,18.405v.996c0,10.149-8.257,18.405-18.405,18.405h-.807c-10.149,0-18.405-8.257-18.405-18.405v-.996c0-10.149,8.257-18.405,18.405-18.405h.807m0-2h-.807c-11.223,0-20.405,9.182-20.405,20.405v.996c0,11.223,9.182,20.405,20.405,20.405h.807c11.223,0,20.405-9.182,20.405-20.405v-.996c0-11.223-9.182-20.405-20.405-20.405h0Z"/>
      </g>
      <text class="cls-23" transform="translate(385.17 213.385)"><tspan x="0" y="0">4</tspan></text>
    </g>
  </g>
  <g>
    <path class="cls-19" d="m643.318,289.05H74.092l-12.543,11.548-12.024-10.981c-.238-.218-.622-.049-.622.274v54.741c0,.102.042.198.115.269l12.53,11.519,12.543-11.629h569.226c15.329,0,27.871-12.542,27.871-27.871h0c0-15.329-12.542-27.871-27.871-27.871Z"/>
    <path class="cls-5" d="m619.032,316.444c.085-12.114,9.79-22.01,22.342-21.937,12.159.071,22.178,9.883,21.961,22.471-.203,11.764-9.754,21.773-22.498,21.598-12.042-.166-21.794-9.762-21.805-22.132Z"/>
    <path class="cls-13" d="m641.932,317.881c2.854.024,5.612,2.731,5.624,5.52.014,3.13-2.722,5.849-5.866,5.829-3.016-.018-5.566-2.746-5.533-5.919.031-3.007,2.636-5.457,5.775-5.43Z"/>
    <rect class="cls-13" x="644.32" y="308.266" width="9.448" height="9.448" transform="translate(411.418 -367.271) rotate(45)"/>
    <polygon class="cls-13" points="640.163 315.945 640.163 309.512 634.592 306.296 629.022 309.512 629.022 315.945 634.592 319.161 640.163 315.945"/>
    <text class="cls-16" transform="translate(301.647 326.023)"><tspan x="0" y="0">을(를)</tspan></text>
    <text class="cls-16" transform="translate(428.099 326.023)"><tspan x="0" y="0">초 동안</tspan></text>
    <g>
      <rect class="cls-3" x="513.52" y="297.832" width="95.637" height="38.968" rx="3.871" ry="3.871"/>
      <text class="cls-22" transform="translate(524.045 325.668)"><tspan x="0" y="0">말하기</tspan></text>
      <path class="cls-4" d="m592.657,312.639c1.503,0,3.006-.003,4.509.001.951.003,1.744.288,2.197,1.211.47.958.064,1.702-.534,2.425-1.451,1.754-2.859,3.543-4.343,5.268-1.318,1.533-2.389,1.523-3.72-.029-1.519-1.771-2.972-3.598-4.452-5.402-.521-.635-.812-1.313-.452-2.145.374-.865,1.045-1.293,1.954-1.309,1.614-.027,3.228-.008,4.842-.008v-.013Z"/>
    </g>
    <g>
      <g>
        <path class="cls-11" d="m92.446,297.413h175.72c10.71,0,19.406,8.695,19.406,19.406v.996c0,10.71-8.695,19.405-19.405,19.405H92.446c-10.71,0-19.405-8.695-19.405-19.405v-.996c0-10.71,8.695-19.405,19.405-19.405Z"/>
        <path class="cls-12" d="m268.166,298.413c10.149,0,18.405,8.257,18.405,18.405v.996c0,10.149-8.257,18.405-18.405,18.405H92.446c-10.149,0-18.405-8.257-18.405-18.405v-.996c0-10.149,8.257-18.405,18.405-18.405h175.72m0-2H92.446c-11.223,0-20.405,9.182-20.405,20.405v.996c0,11.223,9.182,20.405,20.405,20.405h175.72c11.223,0,20.405-9.182,20.405-20.405v-.996c0-11.223-9.182-20.405-20.405-20.405h0Z"/>
      </g>
      <text class="cls-23" transform="translate(89.924 325.668)"><tspan x="0" y="0">인식되지 않았습니다</tspan><tspan class="cls-17" x="176.193" y="0">.</tspan></text>
    </g>
    <g>
      <g>
        <path class="cls-11" d="m397.338,297.413h.807c10.71,0,19.406,8.695,19.406,19.406v.995c0,10.71-8.695,19.406-19.406,19.406h-.807c-10.71,0-19.405-8.695-19.405-19.405v-.996c0-10.71,8.695-19.405,19.405-19.405Z"/>
        <path class="cls-12" d="m398.145,298.413c10.149,0,18.405,8.257,18.405,18.405v.996c0,10.149-8.257,18.405-18.405,18.405h-.807c-10.149,0-18.405-8.257-18.405-18.405v-.996c0-10.149,8.257-18.405,18.405-18.405h.807m0-2h-.807c-11.223,0-20.405,9.182-20.405,20.405v.996c0,11.223,9.182,20.405,20.405,20.405h.807c11.223,0,20.405-9.182,20.405-20.405v-.996c0-11.223-9.182-20.405-20.405-20.405h0Z"/>
      </g>
      <text class="cls-23" transform="translate(390.171 324.894)"><tspan x="0" y="0">4</tspan></text>
    </g>
  </g>
</svg>