<?xml version="1.0" encoding="UTF-8"?>
<svg id="_레이어_1" data-name="레이어 1" xmlns="http://www.w3.org/2000/svg" viewBox="0 0 483.396 67.334">
  <defs>
    <style>
      .cls-1 {
        fill: #dc47d7;
        stroke: #b719b2;
        stroke-miterlimit: 10;
        stroke-width: 2px;
      }

      .cls-2 {
        fill: #fefdfe;
      }

      .cls-2, .cls-3, .cls-4, .cls-5, .cls-6, .cls-7 {
        stroke-width: 0px;
      }

      .cls-3 {
        fill: #b719b2;
      }

      .cls-8, .cls-9 {
        font-size: 22px;
      }

      .cls-8, .cls-9, .cls-10 {
        font-family: Pretendard-Bold-KSCpc-EUC-H, Pretendard;
        font-weight: 700;
      }

      .cls-8, .cls-10 {
        fill: #fefefe;
      }

      .cls-9 {
        letter-spacing: -.025em;
      }

      .cls-4 {
        fill: #f577f1;
      }

      .cls-5 {
        fill: #fedd81;
      }

      .cls-6 {
        fill: #f677f2;
      }

      .cls-10 {
        font-size: 26px;
        letter-spacing: -.025em;
      }

      .cls-7 {
        fill: #fe9b00;
      }
    </style>
  </defs>
  <g>
    <path class="cls-1" d="m454.525,1H26.189l-12.543,11.141L1.622,1.548c-.238-.21-.622-.047-.622.265v52.811c0,.098.042.191.115.259l12.53,11.113,12.543-11.219h428.337c15.329,0,27.871-12.1,27.871-26.888h0c0-14.789-12.542-26.888-27.871-26.888Z"/>
    <path class="cls-3" d="m430.24,28.394c.085-12.114,9.79-22.01,22.342-21.937,12.159.071,22.178,9.883,21.961,22.471-.203,11.764-9.754,21.773-22.498,21.598-12.042-.166-21.794-9.762-21.805-22.132Z"/>
    <text class="cls-10" transform="translate(301.006 36.682)"><tspan x="0" y="0">에 추가하기</tspan></text>
    <text class="cls-10" transform="translate(84.931 36.682)"><tspan x="0" y="0">항목을</tspan></text>
    <path class="cls-6" d="m452.2,18.449c3.973.048,6.605,2.132,7.169,5.536.236,1.421-.185,2.643-1.127,3.671-.864.943-1.773,1.854-2.731,2.702-1.025.909-1.869,1.892-2.145,3.28-.232,1.167-.936,1.732-2.155,1.54-1.232-.194-1.334-1.074-1.385-2.104-.103-2.069,1.042-3.441,2.431-4.709.657-.599,1.396-1.122,1.982-1.782,1.412-1.588,1.315-3.285-.17-4.344-1.397-.997-3.888-.624-4.788.786-.444.696-.76,1.483-1.061,2.257-.461,1.186-1.382,1.378-2.45,1.155-1.088-.227-1.328-1.054-1.254-2.043.193-2.571,1.812-4.116,3.935-5.163,1.186-.585,2.528-.865,3.748-.783Z"/>
    <path class="cls-4" d="m451.717,41.161c-1.32,0-2.19-.878-2.179-2.197.011-1.354.827-2.157,2.191-2.156,1.361,0,2.177.81,2.183,2.167.006,1.3-.885,2.187-2.195,2.186Z"/>
  </g>
  <g>
    <path class="cls-3" d="m281.012,8.446l-109.602-.061c-3.657-.014-6.893,2.767-6.868,6.912.052,8.797.052,17.595,0,26.392-.024,4.145,3.212,6.915,6.869,6.91,56.653-.084,52.948-.059,109.602-.059,4.46,0,6.868-2.426,6.87-6.935.004-8.742.004-17.483,0-26.225-.002-4.508-2.41-6.934-6.871-6.934Z"/>
    <path class="cls-2" d="m270.871,23.237c1.503,0,3.006-.003,4.509.001.951.003,1.744.288,2.197,1.211.47.958.064,1.702-.534,2.425-1.451,1.754-2.859,3.543-4.343,5.268-1.318,1.533-2.389,1.523-3.72-.029-1.519-1.771-2.972-3.598-4.452-5.402-.521-.635-.812-1.313-.452-2.145.374-.865,1.045-1.293,1.954-1.309,1.614-.027,3.228-.008,4.842-.008v-.013Z"/>
    <text class="cls-8" transform="translate(174.922 36.329)"><tspan x="0" y="0">반티 총점</tspan></text>
  </g>
  <g>
    <g>
      <circle class="cls-5" cx="53.373" cy="27.825" r="19.903" transform="translate(17.358 76.051) rotate(-80.782)"/>
      <path class="cls-7" d="m53.373,8.922c10.423,0,18.903,8.48,18.903,18.903s-8.48,18.903-18.903,18.903-18.903-8.48-18.903-18.903,8.48-18.903,18.903-18.903m0-2c-11.497,0-20.903,9.406-20.903,20.903h0c0,11.497,9.406,20.903,20.903,20.903s20.903-9.406,20.903-20.903h0c0-11.497-9.406-20.903-20.903-20.903h0Z"/>
    </g>
    <text class="cls-9" transform="translate(45.829 34.887)"><tspan x="0" y="0">0</tspan></text>
  </g>
</svg>