<?xml version="1.0" encoding="UTF-8"?>
<svg id="_레이어_1" data-name="레이어 1" xmlns="http://www.w3.org/2000/svg" viewBox="0 0 1368.651 639.811">
  <defs>
    <style>
      .cls-1, .cls-2, .cls-3, .cls-4, .cls-5, .cls-6, .cls-7, .cls-8, .cls-9, .cls-10, .cls-11, .cls-12, .cls-13, .cls-14, .cls-15, .cls-16, .cls-17, .cls-18, .cls-19 {
        stroke-width: 0px;
      }

      .cls-1, .cls-20, .cls-21, .cls-22, .cls-23 {
        fill: #fefefe;
      }

      .cls-2, .cls-24 {
        fill: #dc47d7;
      }

      .cls-3 {
        fill: #b819b3;
      }

      .cls-24 {
        stroke: #b719b2;
      }

      .cls-24, .cls-25, .cls-26, .cls-27, .cls-28, .cls-29 {
        stroke-width: 2px;
      }

      .cls-24, .cls-25, .cls-28 {
        stroke-miterlimit: 10;
      }

      .cls-30, .cls-20, .cls-21, .cls-31, .cls-32, .cls-22, .cls-33, .cls-23, .cls-34 {
        font-family: Pretendard-Bold-KSCpc-EUC-H, Pretendard;
        font-weight: 700;
      }

      .cls-30, .cls-21, .cls-31, .cls-32, .cls-33, .cls-34 {
        font-size: 22px;
      }

      .cls-30, .cls-27, .cls-31, .cls-34 {
        fill: #fff;
      }

      .cls-30, .cls-32 {
        letter-spacing: -.025em;
      }

      .cls-4 {
        fill: #fefdfe;
      }

      .cls-25 {
        stroke: #009400;
      }

      .cls-25, .cls-19 {
        fill: #00b300;
      }

      .cls-35 {
        letter-spacing: -.042em;
      }

      .cls-5 {
        fill: none;
      }

      .cls-6 {
        fill: #1b3ad8;
      }

      .cls-20, .cls-22, .cls-23 {
        font-size: 26px;
      }

      .cls-7 {
        fill: #b719b2;
      }

      .cls-8 {
        fill: #ff7f00;
      }

      .cls-26 {
        fill: #19baea;
        stroke: #1498c0;
      }

      .cls-26, .cls-27, .cls-29 {
        stroke-linecap: round;
        stroke-linejoin: round;
      }

      .cls-9 {
        fill: #6dddfe;
      }

      .cls-10 {
        fill: #1498c0;
      }

      .cls-11, .cls-29 {
        fill: #dd47d8;
      }

      .cls-12 {
        fill: #4562f5;
      }

      .cls-27 {
        stroke: #c62142;
      }

      .cls-31, .cls-36 {
        letter-spacing: -.01em;
      }

      .cls-28 {
        stroke: #fe9b00;
      }

      .cls-28, .cls-15 {
        fill: #fedd81;
      }

      .cls-29 {
        stroke: #b819b3;
      }

      .cls-13 {
        fill: #fafdfa;
      }

      .cls-14 {
        fill: #f577f1;
      }

      .cls-16 {
        fill: #f4af18;
      }

      .cls-17 {
        fill: #f677f2;
      }

      .cls-22 {
        letter-spacing: -.025em;
      }

      .cls-18 {
        fill: #fe9b00;
      }

      .cls-23 {
        letter-spacing: -.01em;
      }
    </style>
  </defs>
  <path class="cls-28" d="m425.558,414.654h0"/>
  <path class="cls-26" d="m33.983,55.475s-.001-.01-.003-.015v.015s.003,0,.003,0Z"/>
  <g>
    <g>
      <path class="cls-25" d="m21.64,65.053s-5.2-2.719-7.532-4.568c-7.301-5.786-11.647-13.18-12.825-22.461C.212,29.582,2.193,21.879,7.067,15.04,12.681,7.161,20.381,2.463,30.1,1.274c9.447-1.156,17.928,1.343,25.093,7.428,2.309,1.961,4.441,2.392,7.168,2.399,81.918.211,163.835.465,245.753.713,13.081.04,24.448,9.349,26.741,22.14,2.77,15.451-7.86,29.794-23.175,31.684-.205.025-.396.168-.594.256-.891.016-1.782.048-2.673.045-86.874-.26-173.747-.518-260.621-.816-1.521-.005-2.596.406-3.649,1.498-2.976,3.089-6.092,6.042-9.092,9.109-.791.809-1.254.903-2.094.031-3.131-3.25-6.346-6.419-9.533-9.615-.505-.507-1.787-1.095-1.787-1.095Z"/>
      <path class="cls-1" d="m34.016,62.097c-15.48-.051-28.037-12.66-27.997-28.114.04-15.539,12.694-28.067,28.28-27.997,15.45.069,27.973,12.72,27.913,28.197-.06,15.443-12.708,27.964-28.196,27.914Z"/>
      <path class="cls-19" d="m22.752,33.067c.099-1.896-.183-4.236.152-6.562.711-4.937,4.657-8.567,9.628-8.799,1.609-.075,3.236-.154,4.823.234,4.693,1.146,7.831,5.11,7.914,10.093.06,3.614.045,7.23.006,10.844-.07,6.422-4.581,10.616-11.359,10.611-6.621-.005-11.083-4.255-11.16-10.647-.021-1.779-.003-3.559-.003-5.774Z"/>
      <path class="cls-13" d="m32.083,26.92c.035-.717.008-1.442.123-2.144.154-.937.826-1.465,1.736-1.493.99-.03,1.793.497,1.874,1.509.118,1.478.107,2.978-.004,4.457-.07.929-.81,1.468-1.722,1.499-.995.033-1.71-.518-1.884-1.517-.131-.754-.088-1.539-.124-2.311Z"/>
      <text class="cls-20" transform="translate(73.185 46.249) rotate(.173)"><tspan x="0" y="0">오브젝트를 클릭했을 때</tspan></text>
    </g>
    <g>
      <g>
        <g>
          <path class="cls-29" d="m428.261,65.356H46.465s0,0,0,0l-12.543,11.548s0,0,0,0l-12.023-10.98c-.238-.218-.622-.049-.622.274v54.741c0,.047.011.092.028.135h-.003l.004.004c.02.048.048.093.087.13h.056l11.328,10.345c.663.605,1.678.603,2.338-.005l10.91-10.045c.212-.195.49-.304.779-.304l381.459-.101c15.329,0,27.871-12.542,27.871-27.871h0c0-15.329-12.542-27.871-27.871-27.871Z"/>
          <g>
            <path class="cls-7" d="m449.21,93.271c.233,11.599-9.583,22.21-22.59,21.903-11.361-.268-21.522-9.45-21.508-22.104.014-12.581,10.427-22.278,22.629-21.994,11.969.279,21.786,10.209,21.47,22.194Z"/>
            <path class="cls-17" d="m427.478,83.108c1.421.066,3.283.498,4.796,1.905,2.464,2.29,2.614,5.317.342,7.812-.823.903-1.728,1.735-2.634,2.558-.847.769-1.497,1.641-1.723,2.78-.285,1.438-1.202,2.017-2.552,1.624-1.294-.377-1.297-1.572-1.154-2.621.299-2.203,1.86-3.593,3.427-4.952.334-.29.717-.537.999-.87,1.487-1.758,1.36-3.4-.321-4.537-1.47-.995-3.897-.403-4.808,1.208-.326.577-.531,1.221-.815,1.823-.524,1.11-1.42,1.65-2.58,1.204-1.144-.44-1.405-1.351-1.1-2.592.769-3.131,3.806-5.339,8.123-5.343Z"/>
            <path class="cls-14" d="m426.452,105.822c-1.271-.012-2.113-.925-2.059-2.258.054-1.311.741-2.044,2.063-2.095,1.32-.051,2.369,1,2.32,2.267-.048,1.226-1.02,2.098-2.324,2.086Z"/>
          </g>
        </g>
        <g>
          <path class="cls-3" d="m50.182,79.495v27.721c0,3.45,2.808,6.244,6.257,6.235,25.312-.061,16.186-.046,41.511-.044,3.444,0,6.242-2.791,6.242-6.235v-27.63c0-3.441-2.787-6.231-6.228-6.235l-41.54-.046c-3.447-.004-6.243,2.789-6.243,6.235Z"/>
          <text class="cls-21" transform="translate(60.561 101.193)"><tspan x="0" y="0">n</tspan></text>
          <path class="cls-4" d="m90.613,89.462c1.503,0,3.006-.003,4.509.001.951.003,1.744.288,2.197,1.211.47.958.064,1.702-.534,2.425-1.451,1.754-2.859,3.543-4.343,5.268-1.318,1.533-2.389,1.523-3.72-.029-1.519-1.771-2.972-3.598-4.452-5.402-.521-.635-.812-1.313-.452-2.145.374-.865,1.045-1.293,1.954-1.309,1.614-.027,3.228-.008,4.842-.008v-.013Z"/>
        </g>
        <text class="cls-23" transform="translate(119.562 101.703)"><tspan x="0" y="0">을(를)</tspan></text>
        <text class="cls-23" transform="translate(253.53 101.703)"><tspan x="0" y="0">(으)로 정하기</tspan></text>
      </g>
      <g>
        <g>
          <path class="cls-15" d="m218.528,113.029c-10.975,0-19.903-8.929-19.903-19.903s8.928-19.903,19.903-19.903,19.903,8.928,19.903,19.903-8.929,19.903-19.903,19.903Z"/>
          <path class="cls-18" d="m218.528,74.222c10.423,0,18.903,8.48,18.903,18.903s-8.48,18.903-18.903,18.903-18.903-8.48-18.903-18.903,8.48-18.903,18.903-18.903m0-2c-11.497,0-20.903,9.407-20.903,20.903s9.406,20.903,20.903,20.903,20.903-9.406,20.903-20.903-9.406-20.903-20.903-20.903h0Z"/>
        </g>
        <text class="cls-32" transform="translate(211.824 100.187)"><tspan x="0" y="0">0</tspan></text>
      </g>
    </g>
    <path class="cls-26" d="m60.934,553.253l12.387-11.471,663.52-.091c16.083,0,29.097-13.805,27.779-30.15-1.175-14.565-13.733-25.591-28.345-25.591H73.653l-12.543,11.548-12.756-10.81V177.24l12.441,11.461,12.387-11.471,636.471-.091c16.083,0,29.097-13.805,27.779-30.15-1.175-14.565-13.733-25.591-28.345-25.591H46.465l-12.543,11.548-12.023-10.98c-.238-.218-.622-.049-.622.274v54.741c0,.042.011.081.025.119l.09-1.851.056,451.951,12.379,11.612,12.516-11.612h702.586c8.716,0,15.782-7.066,15.782-15.783s-7.066-15.783-15.782-15.783H71.504l-10.506,11.226-12.645-11.226v-53.662l12.581,11.281Z"/>
    <path class="cls-10" d="m730.208,149.372c.233,11.599-9.583,22.21-22.59,21.903-11.361-.268-21.522-9.45-21.508-22.104.014-12.581,10.427-22.278,22.629-21.994,11.969.279,21.786,10.209,21.47,22.194Z"/>
    <path class="cls-9" d="m716.291,150.904c-.095,0-.185.021-.279.028l-4.684-7.075c.647-.892.942-2.055.623-3.302-.356-1.388-1.5-2.504-2.899-2.812-2.553-.562-4.81,1.366-4.81,3.821,0,.859.284,1.646.753,2.292l-4.684,7.075c-.094-.007-.183-.028-.279-.028-2.466,0-4.4,2.277-3.814,4.843.323,1.416,1.474,2.567,2.89,2.89,2.566.586,4.843-1.348,4.843-3.814,0-1.153-.507-2.18-1.3-2.897l4.386-6.625c.358.108.731.183,1.124.183s.766-.076,1.124-.183l4.386,6.625c-1.013.917-1.56,2.338-1.178,3.884.344,1.389,1.482,2.51,2.877,2.828,2.564.583,4.839-1.35,4.839-3.815,0-2.165-1.755-3.919-3.919-3.919Z"/>
    <text class="cls-20" transform="translate(53.181 157.365)"><tspan x="0" y="0">만일</tspan></text>
    <text class="cls-20" transform="translate(76.181 524.634)"><tspan x="0" y="0">아니면</tspan></text>
    <text class="cls-20" transform="translate(583.406 157.365)"><tspan x="0" y="0">(이)라면</tspan></text>
    <g>
      <polygon class="cls-12" points="109.752 149.019 125.279 129.115 553.537 128.715 569.063 148.617 553.536 168.521 125.278 168.921 109.752 149.019"/>
      <path class="cls-6" d="m553.049,129.715l14.746,18.902-14.747,18.904-427.282.399-14.746-18.902,14.747-18.904,427.282-.399m.976-2.001l-429.235.401-16.307,20.903,16.307,20.903,429.235-.401,16.307-20.903-16.307-20.903h0Z"/>
    </g>
    <polygon class="cls-5" points="384.451 143.027 384.451 155.144 389.997 149.336 384.451 143.027"/>
    <g>
      <g>
        <path class="cls-11" d="m146.971,168.922c-10.975,0-19.903-8.928-19.903-19.903s8.928-19.903,19.903-19.903h159.682c10.975,0,19.903,8.929,19.903,19.903s-8.929,19.903-19.903,19.903h-159.682Z"/>
        <path class="cls-3" d="m306.653,130.115c10.423,0,18.903,8.48,18.903,18.903s-8.48,18.903-18.903,18.903h-159.681c-10.423,0-18.903-8.48-18.903-18.903s8.48-18.903,18.903-18.903h159.681m0-2h-159.681c-11.497,0-20.903,9.407-20.903,20.903s9.406,20.903,20.903,20.903h159.681c11.497,0,20.903-9.406,20.903-20.903s-9.406-20.903-20.903-20.903h0Z"/>
      </g>
      <rect class="cls-3" x="141.552" y="129.535" width="137.361" height="38.968" rx="3.871" ry="3.871"/>
      <text class="cls-30" transform="translate(291.823 156.081)"><tspan x="0" y="0">값</tspan></text>
      <text class="cls-30" transform="translate(152.077 156.081)"><tspan x="0" y="0">투표한 사람</tspan></text>
      <path class="cls-4" d="m263.219,144.341c1.503,0,3.006-.003,4.509.001.951.003,1.744.288,2.197,1.211.47.958.064,1.702-.534,2.425-1.451,1.754-2.859,3.543-4.343,5.268-1.318,1.533-2.389,1.523-3.72-.029-1.519-1.771-2.972-3.598-4.452-5.402-.521-.635-.812-1.313-.452-2.145.374-.865,1.045-1.293,1.954-1.309,1.614-.027,3.228-.008,4.842-.008v-.013Z"/>
    </g>
    <rect class="cls-6" x="341.41" y="129.212" width="30.968" height="39.613" rx="3.355" ry="3.355"/>
    <text class="cls-30" transform="translate(346.856 156.08)"><tspan x="0" y="0">＝</tspan></text>
    <g>
      <path class="cls-26" d="m520.253,398.662l-419.764-.142-12.506,11.226-12.645-11.226v-165.802l12.441,11.461,12.387-11.471,409.355-.091c16.083,0,29.097-13.805,27.779-30.151-1.175-14.565-13.733-25.591-28.345-25.591H73.448l-12.543,11.548-12.023-10.98c-.238-.218-.622-.049-.622.274v54.741c0,.042.011.081.025.119l.09-1.851.056,199.359,12.379,11.613,12.516-11.613,446.926.142c8.716,0,15.782-7.066,15.782-15.783s-7.066-15.783-15.782-15.783Z"/>
      <path class="cls-10" d="m530.075,204.849c.233,11.599-9.583,22.21-22.59,21.903-11.361-.268-21.522-9.45-21.508-22.104.014-12.581,10.427-22.278,22.629-21.994,11.969.279,21.786,10.209,21.47,22.194Z"/>
      <path class="cls-9" d="m516.159,206.381c-.095,0-.185.021-.279.028l-4.684-7.075c.647-.892.942-2.055.623-3.302-.356-1.388-1.5-2.504-2.899-2.812-2.553-.562-4.81,1.366-4.81,3.821,0,.859.284,1.646.753,2.292l-4.684,7.075c-.094-.007-.183-.028-.279-.028-2.466,0-4.4,2.277-3.814,4.843.323,1.416,1.474,2.567,2.89,2.89,2.566.586,4.843-1.348,4.843-3.814,0-1.153-.507-2.18-1.3-2.897l4.386-6.625c.358.108.731.183,1.124.183s.766-.076,1.124-.183l4.386,6.625c-1.013.917-1.56,2.338-1.178,3.884.344,1.389,1.482,2.51,2.877,2.828,2.564.583,4.839-1.35,4.839-3.815,0-2.165-1.755-3.919-3.919-3.919Z"/>
      <text class="cls-20" transform="translate(349.211 212.842)"><tspan x="0" y="0">번 반복하기</tspan></text>
      <polygon class="cls-5" points="449.962 198.504 449.962 210.621 455.508 204.813 449.962 198.504"/>
      <g>
        <g>
          <path class="cls-11" d="m106.554,224.399c-10.975,0-19.903-8.928-19.903-19.903s8.929-19.903,19.903-19.903h198.209c10.975,0,19.903,8.928,19.903,19.903s-8.929,19.903-19.903,19.903H106.554Z"/>
          <path class="cls-3" d="m304.763,185.593c10.423,0,18.903,8.48,18.903,18.903s-8.48,18.903-18.903,18.903H106.554c-10.423,0-18.903-8.48-18.903-18.903s8.48-18.903,18.903-18.903h198.209m0-2H106.554c-11.497,0-20.903,9.406-20.903,20.903s9.406,20.903,20.903,20.903h198.209c11.497,0,20.903-9.406,20.903-20.903s-9.406-20.903-20.903-20.903h0Z"/>
        </g>
        <rect class="cls-3" x="101.135" y="185.012" width="137.029" height="38.968" rx="3.871" ry="3.871"/>
        <text class="cls-30" transform="translate(251.074 211.558)"><tspan x="0" y="0">항목 수</tspan></text>
        <text class="cls-30" transform="translate(111.66 211.558)"><tspan x="0" y="0">반티 리스트</tspan></text>
        <path class="cls-4" d="m222.47,199.818c1.503,0,3.006-.003,4.509.001.951.003,1.744.288,2.197,1.211.47.958.064,1.702-.534,2.425-1.451,1.754-2.859,3.543-4.343,5.268-1.318,1.533-2.389,1.523-3.72-.029-1.519-1.771-2.972-3.598-4.452-5.402-.521-.635-.812-1.313-.452-2.145.374-.865,1.045-1.293,1.954-1.309,1.614-.027,3.228-.008,4.842-.008v-.013Z"/>
      </g>
    </g>
    <g>
      <g>
        <g>
          <g>
            <path class="cls-29" d="m419.58,232.516H100.587s0,0,0,0l-12.543,11.548s0,0,0,0l-12.023-10.98c-.238-.218-.622-.049-.622.274v54.741c0,.047.011.092.028.135h-.003l.004.004c.02.048.048.093.087.13h.056l11.328,10.345c.663.605,1.678.603,2.338-.005l10.91-10.045c.212-.195.49-.304.779-.304l318.656-.101c15.329,0,27.871-12.542,27.871-27.871h0c0-15.329-12.542-27.871-27.871-27.871Z"/>
            <g>
              <path class="cls-7" d="m440.529,260.431c.233,11.599-9.583,22.21-22.59,21.903-11.361-.268-21.522-9.45-21.508-22.104.014-12.581,10.427-22.278,22.629-21.994,11.969.279,21.786,10.209,21.47,22.194Z"/>
              <path class="cls-17" d="m418.797,250.268c1.421.066,3.283.498,4.796,1.905,2.464,2.29,2.614,5.317.342,7.812-.823.903-1.728,1.735-2.634,2.558-.847.769-1.497,1.641-1.723,2.78-.285,1.438-1.202,2.017-2.552,1.624-1.294-.377-1.297-1.572-1.154-2.621.299-2.203,1.86-3.593,3.427-4.952.334-.29.717-.537.999-.87,1.487-1.758,1.36-3.4-.321-4.537-1.47-.995-3.897-.403-4.808,1.208-.326.577-.531,1.221-.815,1.823-.524,1.11-1.42,1.65-2.58,1.204-1.144-.44-1.405-1.351-1.1-2.592.769-3.131,3.806-5.339,8.123-5.343Z"/>
              <path class="cls-14" d="m417.771,272.983c-1.271-.012-2.113-.925-2.059-2.258.054-1.311.741-2.044,2.063-2.095,1.32-.051,2.369,1,2.32,2.267-.048,1.226-1.02,2.098-2.324,2.086Z"/>
            </g>
          </g>
          <g>
            <path class="cls-3" d="m104.304,246.656v27.721c0,3.45,2.808,6.244,6.257,6.235,25.312-.061,16.186-.046,41.511-.044,3.444,0,6.242-2.791,6.242-6.235v-27.63c0-3.441-2.787-6.231-6.228-6.235l-41.54-.046c-3.447-.004-6.243,2.789-6.243,6.235Z"/>
            <text class="cls-21" transform="translate(114.684 268.354)"><tspan x="0" y="0">n</tspan></text>
            <path class="cls-4" d="m144.735,256.623c1.503,0,3.006-.003,4.509.001.951.003,1.744.288,2.197,1.211.47.958.064,1.702-.534,2.425-1.451,1.754-2.859,3.543-4.343,5.268-1.318,1.533-2.389,1.523-3.72-.029-1.519-1.771-2.972-3.598-4.452-5.402-.521-.635-.812-1.313-.452-2.145.374-.865,1.045-1.293,1.954-1.309,1.614-.027,3.228-.008,4.842-.008v-.013Z"/>
          </g>
          <text class="cls-23" transform="translate(173.684 268.864)"><tspan x="0" y="0">에</tspan></text>
          <text class="cls-23" transform="translate(266.268 268.864)"><tspan x="0" y="0">만큼 더하기</tspan></text>
        </g>
        <g>
          <g>
            <path class="cls-15" d="m230.266,280.189c-10.975,0-19.903-8.928-19.903-19.903s8.928-19.903,19.903-19.903,19.903,8.928,19.903,19.903-8.929,19.903-19.903,19.903Z"/>
            <path class="cls-18" d="m230.266,241.383c10.423,0,18.903,8.48,18.903,18.903s-8.48,18.903-18.903,18.903-18.903-8.48-18.903-18.903,8.48-18.903,18.903-18.903m0-2c-11.497,0-20.903,9.406-20.903,20.903s9.406,20.903,20.903,20.903,20.903-9.407,20.903-20.903-9.406-20.903-20.903-20.903h0Z"/>
          </g>
          <text class="cls-32" transform="translate(224.562 267.348)"><tspan x="0" y="0">1</tspan></text>
        </g>
      </g>
      <g>
        <g>
          <g>
            <path class="cls-29" d="m1339.78,288.728H100.587s0,0,0,0l-12.543,11.548s0,0,0,0l-12.023-10.98c-.238-.218-.622-.049-.622.274v54.741c0,.047.011.092.028.135h-.003l.004.004c.02.048.048.093.087.13h.056l11.328,10.345c.663.605,1.678.603,2.338-.005l10.91-10.045c.212-.195.49-.304.779-.304l1238.856-.101c15.329,0,27.871-12.542,27.871-27.871h0c0-15.329-12.542-27.871-27.871-27.871Z"/>
            <g>
              <path class="cls-7" d="m1360.729,316.643c.233,11.599-9.583,22.21-22.59,21.903-11.361-.268-21.522-9.45-21.508-22.104.014-12.581,10.427-22.278,22.629-21.994,11.969.279,21.786,10.209,21.47,22.194Z"/>
              <path class="cls-17" d="m1338.997,306.48c1.421.066,3.283.498,4.796,1.905,2.464,2.29,2.614,5.317.342,7.812-.823.903-1.728,1.735-2.634,2.558-.847.769-1.497,1.641-1.723,2.78-.285,1.438-1.202,2.017-2.552,1.624-1.294-.377-1.297-1.572-1.154-2.621.299-2.203,1.86-3.593,3.427-4.952.334-.29.717-.537.999-.87,1.487-1.758,1.36-3.4-.321-4.537-1.47-.995-3.897-.403-4.808,1.208-.326.577-.531,1.221-.815,1.823-.524,1.11-1.42,1.65-2.58,1.204-1.144-.44-1.405-1.351-1.1-2.592.769-3.131,3.806-5.339,8.123-5.343Z"/>
              <path class="cls-14" d="m1337.971,329.194c-1.271-.012-2.113-.925-2.059-2.258.054-1.311.741-2.044,2.063-2.095,1.32-.051,2.369,1,2.32,2.267-.048,1.226-1.02,2.098-2.324,2.086Z"/>
            </g>
          </g>
          <text class="cls-23" transform="translate(1037.046 325.076)"><tspan x="0" y="0">을(를) 묻고 대답 기다리기</tspan></text>
        </g>
        <g>
          <g>
            <g>
              <path class="cls-16" d="m127.207,337.228c-10.975,0-19.903-8.929-19.903-19.903s8.928-19.903,19.903-19.903h868.529c10.975,0,19.903,8.929,19.903,19.903s-8.929,19.903-19.903,19.903H127.207Z"/>
              <path class="cls-8" d="m995.736,298.421c10.423,0,18.903,8.48,18.903,18.903s-8.48,18.903-18.903,18.903H127.207c-10.423,0-18.903-8.48-18.903-18.903s8.48-18.903,18.903-18.903h868.529m0-2H127.207c-11.497,0-20.903,9.407-20.903,20.903s9.406,20.903,20.903,20.903h868.529c11.497,0,20.903-9.407,20.903-20.903s-9.406-20.903-20.903-20.903h0Z"/>
            </g>
            <text class="cls-31" transform="translate(875.433 324.387)"><tspan x="0" y="0">을(를) 합친 값</tspan></text>
          </g>
          <g>
            <g>
              <path class="cls-11" d="m142.451,337.574c-10.975,0-19.903-8.929-19.903-19.903s8.929-19.903,19.903-19.903h398.853c10.975,0,19.903,8.929,19.903,19.903s-8.928,19.903-19.903,19.903H142.451Z"/>
              <path class="cls-3" d="m541.303,298.767c10.423,0,18.903,8.48,18.903,18.903s-8.48,18.903-18.903,18.903H142.451c-10.423,0-18.903-8.48-18.903-18.903s8.48-18.903,18.903-18.903h398.853m0-2H142.451c-11.497,0-20.903,9.407-20.903,20.903s9.406,20.903,20.903,20.903h398.853c11.497,0,20.903-9.407,20.903-20.903s-9.406-20.903-20.903-20.903h0Z"/>
            </g>
            <rect class="cls-3" x="137.031" y="298.186" width="138.02" height="38.968" rx="3.871" ry="3.871"/>
            <text class="cls-30" transform="translate(287.962 324.732)"><tspan x="0" y="0">의</tspan></text>
            <text class="cls-30" transform="translate(147.556 324.732)"><tspan x="0" y="0">반티 리스트</tspan></text>
            <path class="cls-4" d="m259.358,312.993c1.503,0,3.006-.003,4.509.001.951.003,1.744.288,2.197,1.211.47.958.064,1.702-.534,2.425-1.451,1.754-2.859,3.543-4.343,5.268-1.318,1.533-2.389,1.523-3.72-.029-1.519-1.771-2.972-3.598-4.452-5.402-.521-.635-.812-1.313-.452-2.145.374-.865,1.045-1.293,1.954-1.309,1.614-.027,3.228-.008,4.842-.008v-.013Z"/>
            <g>
              <g>
                <path class="cls-11" d="m344.184,337.574c-10.975,0-19.903-8.929-19.903-19.903s8.928-19.903,19.903-19.903h77.273c10.975,0,19.903,8.929,19.903,19.903s-8.929,19.903-19.903,19.903h-77.273Z"/>
                <path class="cls-3" d="m421.456,298.767c10.423,0,18.903,8.48,18.903,18.903s-8.48,18.903-18.903,18.903h-77.273c-10.423,0-18.903-8.48-18.903-18.903s8.48-18.903,18.903-18.903h77.273m0-2h-77.273c-11.497,0-20.903,9.407-20.903,20.903s9.406,20.903,20.903,20.903h77.273c11.497,0,20.903-9.407,20.903-20.903s-9.406-20.903-20.903-20.903h0Z"/>
              </g>
              <rect class="cls-3" x="338.764" y="298.186" width="54.952" height="38.968" rx="3.871" ry="3.871"/>
              <text class="cls-30" transform="translate(406.627 324.732)"><tspan x="0" y="0">값</tspan></text>
              <text class="cls-30" transform="translate(459.207 324.732)"><tspan x="0" y="0">번째 항목</tspan></text>
              <text class="cls-30" transform="translate(349.289 324.732)"><tspan x="0" y="0">n</tspan></text>
              <path class="cls-4" d="m378.023,312.993c1.503,0,3.006-.003,4.509.001.951.003,1.744.288,2.197,1.211.47.958.064,1.702-.534,2.425-1.451,1.754-2.859,3.543-4.343,5.268-1.318,1.533-2.389,1.523-3.72-.029-1.519-1.771-2.972-3.598-4.452-5.402-.521-.635-.812-1.313-.452-2.145.374-.865,1.045-1.293,1.954-1.309,1.614-.027,3.228-.008,4.842-.008v-.013Z"/>
            </g>
          </g>
          <g>
            <g>
              <path class="cls-15" d="m665.509,337.574c-10.975,0-19.903-8.928-19.903-19.903s8.929-19.903,19.903-19.903h175.154c10.975,0,19.903,8.928,19.903,19.903s-8.929,19.903-19.903,19.903h-175.154Z"/>
              <path class="cls-18" d="m840.663,298.767c10.423,0,18.903,8.48,18.903,18.903s-8.48,18.903-18.903,18.903h-175.154c-10.423,0-18.903-8.48-18.903-18.903s8.48-18.903,18.903-18.903h175.154m0-2h-175.154c-11.497,0-20.903,9.407-20.903,20.903s9.406,20.903,20.903,20.903h175.154c11.497,0,20.903-9.407,20.903-20.903s-9.406-20.903-20.903-20.903h0Z"/>
            </g>
            <text class="cls-33" transform="translate(662.046 324.733)"><tspan class="cls-36" x="0" y="0">의 점수를 입력하세요</tspan><tspan class="cls-35" x="178.844" y="0">.</tspan></text>
          </g>
          <text class="cls-31" transform="translate(578.392 324.387)"><tspan x="0" y="0">과(와)</tspan></text>
        </g>
      </g>
      <g>
        <g>
          <g>
            <path class="cls-24" d="m1318.164,344.409H100.587l-12.543,11.141-12.024-10.593c-.238-.21-.622-.047-.622.265v52.811c0,.098.042.191.115.259l12.53,11.113,12.543-11.219h1217.577c15.329,0,27.871-12.1,27.871-26.888h0c0-14.789-12.542-26.888-27.871-26.888Z"/>
            <path class="cls-7" d="m1293.878,370.803c.085-12.114,9.79-22.01,22.342-21.937,12.159.071,22.178,9.883,21.961,22.471-.203,11.764-9.754,21.773-22.498,21.598-12.042-.166-21.794-9.762-21.805-22.132Z"/>
            <path class="cls-17" d="m1315.838,360.858c3.973.048,6.605,2.132,7.169,5.536.236,1.421-.185,2.643-1.127,3.671-.864.943-1.773,1.854-2.731,2.702-1.025.909-1.869,1.892-2.145,3.28-.232,1.167-.936,1.732-2.155,1.54-1.232-.194-1.334-1.074-1.385-2.104-.103-2.069,1.042-3.441,2.431-4.709.657-.599,1.396-1.122,1.982-1.782,1.412-1.588,1.315-3.285-.17-4.344-1.397-.997-3.888-.624-4.788.786-.444.696-.76,1.483-1.061,2.257-.461,1.186-1.382,1.378-2.45,1.155-1.088-.227-1.328-1.054-1.254-2.043.193-2.571,1.812-4.116,3.935-5.163,1.186-.585,2.528-.865,3.748-.783Z"/>
            <path class="cls-14" d="m1315.355,383.57c-1.32,0-2.19-.878-2.179-2.197.011-1.354.827-2.157,2.191-2.156,1.361,0,2.177.81,2.183,2.167.006,1.3-.885,2.187-2.195,2.186Z"/>
          </g>
          <text class="cls-22" transform="translate(244.226 379.562)"><tspan x="0" y="0">의</tspan></text>
          <text class="cls-22" transform="translate(416.097 379.562)"><tspan x="0" y="0">번째 항목을</tspan></text>
          <path class="cls-7" d="m223.378,350.856l-112.641-.061c-3.657-.014-6.893,2.767-6.868,6.912.052,8.797.052,17.595,0,26.392-.024,4.145,3.212,6.915,6.869,6.91,56.653-.084,55.988-.059,112.641-.059,4.46,0,6.868-2.426,6.87-6.935.004-8.742.004-17.483,0-26.225-.002-4.508-2.41-6.934-6.871-6.934Z"/>
          <path class="cls-4" d="m213.236,365.646c1.503,0,3.006-.003,4.509.001.951.003,1.744.288,2.197,1.211.47.958.064,1.702-.534,2.425-1.451,1.754-2.859,3.543-4.343,5.268-1.318,1.533-2.389,1.523-3.72-.029-1.519-1.771-2.972-3.598-4.452-5.402-.521-.635-.812-1.313-.452-2.145.374-.865,1.045-1.293,1.954-1.309,1.614-.027,3.228-.008,4.842-.008v-.013Z"/>
          <text class="cls-21" transform="translate(114.248 378.737)"><tspan x="0" y="0">반티 총점</tspan></text>
        </g>
        <g>
          <path class="cls-11" d="m303.241,391.294c-10.975,0-19.903-8.928-19.903-19.903s8.929-19.903,19.903-19.903h77.273c10.975,0,19.903,8.929,19.903,19.903s-8.929,19.903-19.903,19.903h-77.273Z"/>
          <path class="cls-3" d="m380.513,352.488c10.423,0,18.903,8.48,18.903,18.903s-8.48,18.903-18.903,18.903h-77.273c-10.423,0-18.903-8.48-18.903-18.903s8.48-18.903,18.903-18.903h77.273m0-2h-77.273c-11.497,0-20.903,9.406-20.903,20.903s9.406,20.903,20.903,20.903h77.273c11.497,0,20.903-9.407,20.903-20.903s-9.406-20.903-20.903-20.903h0Z"/>
        </g>
        <rect class="cls-3" x="297.821" y="351.907" width="54.952" height="38.968" rx="3.871" ry="3.871"/>
        <text class="cls-30" transform="translate(365.684 378.452)"><tspan x="0" y="0">값</tspan></text>
        <text class="cls-30" transform="translate(308.346 378.452)"><tspan x="0" y="0">n</tspan></text>
        <path class="cls-4" d="m337.08,366.713c1.503,0,3.006-.003,4.509.001.951.003,1.744.288,2.197,1.211.47.958.064,1.702-.534,2.425-1.451,1.754-2.859,3.543-4.343,5.268-1.318,1.533-2.389,1.523-3.72-.029-1.519-1.771-2.972-3.598-4.452-5.402-.521-.635-.812-1.313-.452-2.145.374-.865,1.045-1.293,1.954-1.309,1.614-.027,3.228-.008,4.842-.008v-.013Z"/>
        <g>
          <g>
            <path class="cls-16" d="m566.161,391.58c-10.975,0-19.903-8.929-19.903-19.903s8.928-19.903,19.903-19.903h538.458c10.975,0,19.903,8.928,19.903,19.903s-8.929,19.903-19.903,19.903h-538.458Z"/>
            <path class="cls-8" d="m1104.619,352.773c10.423,0,18.903,8.48,18.903,18.903s-8.48,18.903-18.903,18.903h-538.458c-10.423,0-18.903-8.48-18.903-18.903s8.48-18.903,18.903-18.903h538.458m0-2h-538.458c-11.497,0-20.903,9.407-20.903,20.903s9.406,20.903,20.903,20.903h538.458c11.497,0,20.903-9.406,20.903-20.903s-9.406-20.903-20.903-20.903h0Z"/>
          </g>
          <g>
            <g>
              <path class="cls-11" d="m581.405,391.926c-10.975,0-19.903-8.928-19.903-19.903s8.929-19.903,19.903-19.903h382.851c10.975,0,19.903,8.928,19.903,19.903s-8.929,19.903-19.903,19.903h-382.851Z"/>
              <path class="cls-3" d="m964.256,353.119c10.423,0,18.903,8.48,18.903,18.903s-8.48,18.903-18.903,18.903h-382.851c-10.423,0-18.903-8.48-18.903-18.903s8.48-18.903,18.903-18.903h382.851m0-2h-382.851c-11.497,0-20.903,9.407-20.903,20.903s9.406,20.903,20.903,20.903h382.851c11.497,0,20.903-9.406,20.903-20.903s-9.406-20.903-20.903-20.903h0Z"/>
            </g>
            <rect class="cls-3" x="575.985" y="352.539" width="122.019" height="38.968" rx="3.871" ry="3.871"/>
            <text class="cls-30" transform="translate(710.914 379.084)"><tspan x="0" y="0">의</tspan></text>
            <text class="cls-30" transform="translate(586.51 379.084)"><tspan x="0" y="0">반티 총점</tspan></text>
            <path class="cls-4" d="m682.311,367.345c1.503,0,3.006-.003,4.509.001.951.003,1.744.288,2.197,1.211.47.958.064,1.702-.534,2.425-1.451,1.754-2.859,3.543-4.343,5.268-1.318,1.533-2.389,1.523-3.72-.029-1.519-1.771-2.972-3.598-4.452-5.402-.521-.635-.812-1.313-.452-2.145.374-.865,1.045-1.293,1.954-1.309,1.614-.027,3.228-.008,4.842-.008v-.013Z"/>
            <g>
              <g>
                <path class="cls-11" d="m767.136,391.926c-10.975,0-19.903-8.928-19.903-19.903s8.929-19.903,19.903-19.903h77.273c10.975,0,19.903,8.928,19.903,19.903s-8.929,19.903-19.903,19.903h-77.273Z"/>
                <path class="cls-3" d="m844.409,353.119c10.423,0,18.903,8.48,18.903,18.903s-8.48,18.903-18.903,18.903h-77.273c-10.423,0-18.903-8.48-18.903-18.903s8.48-18.903,18.903-18.903h77.273m0-2h-77.273c-11.497,0-20.903,9.407-20.903,20.903s9.406,20.903,20.903,20.903h77.273c11.497,0,20.903-9.406,20.903-20.903s-9.406-20.903-20.903-20.903h0Z"/>
              </g>
              <rect class="cls-3" x="761.717" y="352.539" width="54.952" height="38.968" rx="3.871" ry="3.871"/>
              <text class="cls-30" transform="translate(829.579 379.084)"><tspan x="0" y="0">값</tspan></text>
              <text class="cls-30" transform="translate(882.159 379.084)"><tspan x="0" y="0">번째 항목</tspan></text>
              <text class="cls-30" transform="translate(772.241 379.084)"><tspan x="0" y="0">n</tspan></text>
              <path class="cls-4" d="m800.976,367.345c1.503,0,3.006-.003,4.509.001.951.003,1.744.288,2.197,1.211.47.958.064,1.702-.534,2.425-1.451,1.754-2.859,3.543-4.343,5.268-1.318,1.533-2.389,1.523-3.72-.029-1.519-1.771-2.972-3.598-4.452-5.402-.521-.635-.812-1.313-.452-2.145.374-.865,1.045-1.293,1.954-1.309,1.614-.027,3.228-.008,4.842-.008v-.013Z"/>
            </g>
          </g>
          <g>
            <g>
              <path class="cls-7" d="m1108.212,362.978c-3.978-8.028-10.585-12.205-19.692-12.204l-23.634.017c-13.365.1-23.308,12.743-20.298,25.728,2.245,9.683,10.748,16.352,20.919,16.354l22.63.007c1.562,0,3.108-.072,4.657-.328,13.443-2.215,21.457-17.384,15.417-29.573Z"/>
              <path class="cls-2" d="m1075.752,352.782c42.548,0-29.54-.003,13.008.003,9.346.001,16.7,5.774,18.918,14.808,2.597,10.582-4.706,21.37-15.534,23.016-1.222.186-2.431.263-3.655.263-85.04,0,62.236.002-22.804,0-11.651,0-20.056-8.798-19.553-20.436.36-8.321,7.473-16.158,15.669-17.363,1.445-.212,2.876-.287,4.323-.287,42.437-.001-32.807,0,9.629,0Z"/>
            </g>
            <text class="cls-34" transform="translate(1058.489 377.144)"><tspan x="0" y="0">대답</tspan></text>
          </g>
        </g>
        <rect class="cls-8" x="1000.205" y="352.645" width="28.258" height="38.065" rx="2.645" ry="2.645"/>
        <text class="cls-31" transform="translate(1008.353 377.445)"><tspan x="0" y="0">x</tspan></text>
        <text class="cls-23" transform="translate(1141.458 379.562)"><tspan x="0" y="0">(으)로 바꾸기</tspan></text>
      </g>
    </g>
    <g>
      <g>
        <g>
          <path class="cls-29" d="m482.356,430.301H73.449s0,0,0,0l-12.543,11.548s0,0,0,0l-12.023-10.98c-.238-.218-.622-.049-.622.274v54.741c0,.047.011.092.028.135h-.003l.004.004c.02.048.048.093.087.13h.056l11.328,10.345c.663.605,1.678.603,2.338-.005l10.91-10.045c.212-.195.49-.304.779-.304l408.571-.101c15.329,0,27.871-12.542,27.871-27.871h0c0-15.329-12.542-27.871-27.871-27.871Z"/>
          <g>
            <path class="cls-7" d="m503.305,458.216c.233,11.599-9.583,22.21-22.59,21.903-11.361-.268-21.522-9.45-21.508-22.104.014-12.581,10.427-22.278,22.629-21.994,11.969.279,21.786,10.209,21.47,22.194Z"/>
            <path class="cls-17" d="m481.573,448.053c1.421.066,3.283.498,4.796,1.905,2.464,2.29,2.614,5.317.342,7.812-.823.903-1.728,1.735-2.634,2.558-.847.769-1.497,1.641-1.723,2.78-.285,1.438-1.202,2.017-2.552,1.624-1.294-.377-1.297-1.572-1.154-2.621.299-2.203,1.86-3.593,3.427-4.952.334-.29.717-.537.999-.87,1.487-1.758,1.36-3.4-.321-4.537-1.47-.995-3.897-.403-4.808,1.208-.326.577-.531,1.221-.815,1.823-.524,1.11-1.42,1.65-2.58,1.204-1.144-.44-1.405-1.351-1.1-2.592.769-3.131,3.806-5.339,8.123-5.343Z"/>
            <path class="cls-14" d="m480.547,470.768c-1.271-.012-2.113-.925-2.059-2.258.054-1.311.741-2.044,2.063-2.095,1.32-.051,2.369,1,2.32,2.267-.048,1.226-1.02,2.098-2.324,2.086Z"/>
          </g>
        </g>
        <g>
          <path class="cls-3" d="m77.165,444.441v27.721c0,3.45,2.808,6.244,6.257,6.235,25.312-.061,102.128-.046,127.453-.044,3.444,0,6.242-2.791,6.242-6.235v-27.63c0-3.441-2.787-6.231-6.228-6.235l-127.482-.046c-3.447-.004-6.243,2.789-6.243,6.235Z"/>
          <text class="cls-21" transform="translate(87.545 466.138)"><tspan x="0" y="0">투표한 사람</tspan></text>
          <path class="cls-4" d="m203.539,454.407c1.503,0,3.006-.003,4.509.001.951.003,1.744.288,2.197,1.211.47.958.064,1.702-.534,2.425-1.451,1.754-2.859,3.543-4.343,5.268-1.318,1.533-2.389,1.523-3.72-.029-1.519-1.771-2.972-3.598-4.452-5.402-.521-.635-.812-1.313-.452-2.145.374-.865,1.045-1.293,1.954-1.309,1.614-.027,3.228-.008,4.842-.008v-.013Z"/>
        </g>
        <text class="cls-23" transform="translate(232.488 466.649)"><tspan x="0" y="0">에</tspan></text>
        <text class="cls-23" transform="translate(328.069 466.649)"><tspan x="0" y="0">만큼 더하기</tspan></text>
      </g>
      <g>
        <g>
          <circle class="cls-15" cx="293.066" cy="458.071" r="19.903"/>
          <path class="cls-18" d="m293.066,439.167c10.423,0,18.903,8.48,18.903,18.903s-8.48,18.903-18.903,18.903-18.903-8.48-18.903-18.903,8.48-18.903,18.903-18.903m0-2c-11.497,0-20.903,9.407-20.903,20.903s9.406,20.903,20.903,20.903,20.903-9.407,20.903-20.903-9.406-20.903-20.903-20.903h0Z"/>
        </g>
        <text class="cls-32" transform="translate(286.362 465.133)"><tspan x="0" y="0">0</tspan></text>
      </g>
    </g>
    <g>
      <g>
        <path class="cls-11" d="m408.689,168.922c-10.975,0-19.903-8.928-19.903-19.903s8.928-19.903,19.903-19.903h123.18c10.975,0,19.903,8.929,19.903,19.903s-8.929,19.903-19.903,19.903h-123.18Z"/>
        <path class="cls-3" d="m531.869,130.116c10.423,0,18.903,8.48,18.903,18.903s-8.48,18.903-18.903,18.903h-123.18c-10.423,0-18.903-8.48-18.903-18.903s8.48-18.903,18.903-18.903h123.18m0-2h-123.18c-11.497,0-20.903,9.406-20.903,20.903s9.406,20.903,20.903,20.903h123.18c11.497,0,20.903-9.406,20.903-20.903s-9.406-20.903-20.903-20.903h0Z"/>
      </g>
      <rect class="cls-3" x="403.27" y="129.535" width="100.859" height="38.968" rx="3.871" ry="3.871"/>
      <text class="cls-30" transform="translate(517.039 156.081)"><tspan x="0" y="0">값</tspan></text>
      <text class="cls-30" transform="translate(413.795 156.081)"><tspan x="0" y="0">총 인원</tspan></text>
      <path class="cls-4" d="m488.435,144.341c1.503,0,3.006-.003,4.509.001.951.003,1.744.288,2.197,1.211.47.958.064,1.702-.534,2.425-1.451,1.754-2.859,3.543-4.343,5.268-1.318,1.533-2.389,1.523-3.72-.029-1.519-1.771-2.972-3.598-4.452-5.402-.521-.635-.812-1.313-.452-2.145.374-.865,1.045-1.293,1.954-1.309,1.614-.027,3.228-.008,4.842-.008v-.013Z"/>
    </g>
    <path class="cls-27" d="m541.53,541.779H73.449l-12.543,11.141-12.024-10.593c-.238-.21-.622-.047-.622.265v52.811c0,.098.042.191.115.259l12.53,11.113,12.543-11.219h468.081c15.329,0,27.871-12.1,27.871-26.888h0c0-14.789-12.542-26.888-27.871-26.888Z"/>
  </g>
  <rect class="cls-1" x="107.466" y="127.399" width="462.866" height="42.839" rx="10" ry="10"/>
</svg>