<?xml version="1.0" encoding="UTF-8"?>
<svg id="_레이어_1" data-name="레이어 1" xmlns="http://www.w3.org/2000/svg" viewBox="0 0 1007.911 657.676">
  <defs>
    <style>
      .cls-1 {
        stroke-dasharray: 0 0 6.993 2.997;
      }

      .cls-1, .cls-2, .cls-3 {
        fill: none;
        stroke: #638faa;
        stroke-miterlimit: 10;
        stroke-width: 3px;
      }

      .cls-4 {
        fill: #fe7a22;
      }

      .cls-4, .cls-5, .cls-6, .cls-7, .cls-8, .cls-9, .cls-10, .cls-11, .cls-12, .cls-13, .cls-14, .cls-15, .cls-16, .cls-17, .cls-18, .cls-19, .cls-20, .cls-21 {
        stroke-width: 0px;
      }

      .cls-5 {
        fill: #b819b3;
      }

      .cls-22, .cls-23, .cls-24, .cls-25, .cls-26 {
        font-family: Pretendard-Bold-KSCpc-EUC-H, Pretendard;
        font-weight: 700;
      }

      .cls-22, .cls-11 {
        fill: #fff;
      }

      .cls-22, .cls-24, .cls-25 {
        font-size: 22px;
      }

      .cls-22, .cls-25 {
        letter-spacing: -.025em;
      }

      .cls-6 {
        fill: #f8c435;
      }

      .cls-7 {
        fill: #fefdfe;
      }

      .cls-8 {
        fill: #ffde82;
      }

      .cls-9 {
        fill: #1b3ad8;
      }

      .cls-23, .cls-24, .cls-26 {
        fill: #fefefe;
      }

      .cls-23, .cls-26 {
        font-size: 26px;
      }

      .cls-10 {
        fill: #b719b2;
      }

      .cls-27 {
        fill: #19baea;
        stroke: #1498c0;
      }

      .cls-27, .cls-28, .cls-29 {
        stroke-linecap: round;
        stroke-linejoin: round;
        stroke-width: 2px;
      }

      .cls-12 {
        fill: #6dddfe;
      }

      .cls-13 {
        fill: #1498c0;
      }

      .cls-3 {
        stroke-dasharray: 0 0 7.001 3;
      }

      .cls-28 {
        fill: #de5c04;
        stroke: #a14100;
      }

      .cls-14, .cls-29 {
        fill: #dd47d8;
      }

      .cls-15 {
        fill: #4562f5;
      }

      .cls-16 {
        fill: #ecf8ff;
      }

      .cls-29 {
        stroke: #b819b3;
      }

      .cls-17 {
        fill: #f577f1;
      }

      .cls-18 {
        fill: #fedd81;
      }

      .cls-19 {
        fill: #f677f2;
      }

      .cls-20 {
        fill: #fe9b00;
      }

      .cls-26 {
        letter-spacing: -.01em;
      }

      .cls-21 {
        fill: #a14100;
      }
    </style>
  </defs>
  <g>
    <g>
      <g>
        <path class="cls-28" d="m592.095,624.964H52.706l-11.613,11.226-13.016-11.226V57.724l12.623,10.761,12.599-11.653,526.708-.091c16.083,0,29.097-13.806,27.779-30.151-1.175-14.565-13.733-25.591-28.345-25.591L1.622,1.568c-.238-.217-.622-.048-.622.274l.171,654.687h590.924c8.716,0,15.782-7.066,15.782-15.783s-7.066-15.783-15.782-15.783Z"/>
        <path class="cls-21" d="m597.755,28.915c.233,11.599-9.583,22.21-22.59,21.903-11.361-.268-21.522-9.45-21.508-22.104.014-12.581,10.427-22.278,22.629-21.994,11.969.279,21.786,10.209,21.47,22.194Z"/>
        <path class="cls-4" d="m580.121,25.976c1.407,0,2.395-.012,3.384.004.851.014,1.445.399,1.556,1.288.12.962-.563,1.285-1.317,1.519-.079.025-.977.08-1.047.061-3.895-.745-5.166,2.691-6.968,5.688-1.973,3.282-4.638,5.369-8.75,4.954-1.005-.101-1.949-.347-2.123-1.35-.208-1.2,1.021-.942,1.691-1.305,3.006-1.631,3.894-4.763,5.328-7.535-.849-.677-1.708-.269-2.483-.419-.887-.172-1.685-.555-1.601-1.554.067-.795.741-1.257,1.574-1.335.33-.031.676-.081.994-.017,2.34.468,3.589-.727,4.689-2.649,1.419-2.479,3.285-4.62,6.33-5.208,1.965-.38,3.644.13,4.821,1.803.593.843.499,1.736-.279,2.472-.735.695-1.343.452-1.831-.318-.614-.968-1.097-.293-1.572.131-1.022.911-1.408,2.213-2.396,3.771Z"/>
      </g>
      <text class="cls-26" transform="translate(27.015 37.348)"><tspan x="0" y="0">함수 정의하기</tspan></text>
      <path class="cls-8" d="m543.03,16.409c-.019-2.311-1.424-3.584-3.714-3.788-1.024-.091-2.059-.045-3.089-.065-.8-.016-1.602-.079-1.818-1.054-.956-4.323-3.974-5.172-7.924-5.16l-162.797.039c-1.724,0-3.441-.053-4.959.989-1.426.98-2.614,2.39-2.425,4.002.201,1.71,2.138.862,3.242,1.062,3.776.686,4.647,1.535,4.651,5.389.009,7.293.007,14.587.001,21.88-.003,4.263-1.371,5.669-5.632,5.818-2.678.094-2.979.684-1.574,2.99,1.549,2.542,3.94,2.917,6.671,2.915l163.57-.026c.515,0,1.03-.015,1.545-.013,2.331.011,4.337-1.203,4.849-3.179.806-3.113,2.747-3.06,5.157-3.034,2.719.03,4.236-1.411,4.257-4.055.065-8.237.056-16.474-.012-24.71Z"/>
      <g>
        <path class="cls-6" d="m365.74,16.409c-.019-2.311-1.424-3.584-3.714-3.788-1.024-.091-2.059-.045-3.089-.065-.8-.016-1.602-.079-1.818-1.054-.956-4.323-3.974-5.172-7.924-5.16l-162.797.039c-1.724,0-3.441-.053-4.959.989-1.426.98-2.614,2.39-2.425,4.002.201,1.71,2.138.862,3.242,1.062,3.776.686,4.647,1.535,4.651,5.389.009,7.293.007,14.587.001,21.88-.003,4.263-1.371,5.669-5.632,5.818-2.678.094-2.979.684-1.574,2.99,1.549,2.542,3.94,2.917,6.671,2.915l163.57-.026c.515,0,1.03-.015,1.545-.013,2.331.011,4.337-1.203,4.849-3.179.806-3.113,2.747-3.06,5.157-3.034,2.719.03,4.236-1.411,4.257-4.055.065-8.237.056-16.474-.012-24.71Z"/>
        <text class="cls-25" transform="translate(205.454 37.398)"><tspan x="0" y="0">정사각형 그리기</tspan></text>
      </g>
      <g>
        <path class="cls-18" d="m394.654,48.787c-10.975,0-19.903-8.929-19.903-19.903s8.929-19.903,19.903-19.903h108.707c10.975,0,19.903,8.928,19.903,19.903s-8.929,19.903-19.903,19.903h-108.707Z"/>
        <path class="cls-20" d="m503.361,9.98c10.423,0,18.903,8.48,18.903,18.903s-8.48,18.903-18.903,18.903h-108.707c-10.423,0-18.903-8.48-18.903-18.903s8.48-18.903,18.903-18.903h108.707m0-2h-108.707c-11.497,0-20.903,9.406-20.903,20.903s9.406,20.903,20.903,20.903h108.707c11.497,0,20.903-9.406,20.903-20.903s-9.406-20.903-20.903-20.903h0Z"/>
      </g>
      <text class="cls-25" transform="translate(388.062 35.947)"><tspan x="0" y="0">문자/숫자 값 1</tspan></text>
    </g>
    <g>
      <g>
        <path class="cls-27" d="m381.801,593.313H55.187V112.725l314.526-.101c16.083,0,29.097-13.806,27.779-30.151-1.175-14.565-13.733-25.591-28.345-25.591H53.298l-12.543,11.548-12.023-10.98c-.238-.217-.622-.048-.622.274v54.741c0,.047.011.092.028.135h-.004l.091.134.056,512.145,12.379,11.613,12.516-11.613h328.625c8.716,0,15.783-7.066,15.783-15.783s-7.066-15.783-15.783-15.783Z"/>
        <g>
          <path class="cls-13" d="m387.461,84.797c.233,11.599-9.583,22.21-22.59,21.903-11.361-.268-21.522-9.45-21.508-22.104.014-12.581,10.427-22.278,22.629-21.994,11.969.279,21.786,10.209,21.47,22.194Z"/>
          <path class="cls-12" d="m373.545,86.329c-.095,0-.185.021-.279.028l-4.684-7.075c.647-.892.942-2.055.623-3.302-.356-1.388-1.5-2.504-2.899-2.812-2.553-.562-4.81,1.366-4.81,3.821,0,.859.284,1.646.753,2.292l-4.684,7.075c-.094-.007-.183-.028-.279-.028-2.466,0-4.4,2.277-3.814,4.843.323,1.416,1.474,2.567,2.89,2.89,2.566.586,4.843-1.348,4.843-3.814,0-1.153-.507-2.18-1.3-2.897l4.386-6.625c.358.108.731.183,1.124.183s.766-.076,1.124-.183l4.386,6.625c-1.013.917-1.56,2.338-1.178,3.884.344,1.389,1.482,2.51,2.877,2.828,2.564.583,4.839-1.35,4.839-3.815,0-2.165-1.755-3.919-3.919-3.919Z"/>
        </g>
        <text class="cls-23" transform="translate(215.154 92.553)"><tspan x="0" y="0">번 반복하기</tspan></text>
      </g>
      <g>
        <g>
          <path class="cls-18" d="m77.917,104.481c-10.975,0-19.903-8.929-19.903-19.903s8.929-19.903,19.903-19.903h105.603c10.975,0,19.903,8.928,19.903,19.903s-8.929,19.903-19.903,19.903h-105.603Z"/>
          <path class="cls-20" d="m183.519,65.675c10.423,0,18.903,8.48,18.903,18.903s-8.48,18.903-18.903,18.903h-105.602c-10.423,0-18.903-8.48-18.903-18.903s8.48-18.903,18.903-18.903h105.602m0-2h-105.602c-11.497,0-20.903,9.406-20.903,20.903s9.406,20.903,20.903,20.903h105.602c11.497,0,20.903-9.406,20.903-20.903s-9.406-20.903-20.903-20.903h0Z"/>
        </g>
        <text class="cls-25" transform="translate(71.665 91.639)"><tspan x="0" y="0">문자/숫자 값 1</tspan></text>
      </g>
    </g>
  </g>
  <g>
    <path class="cls-16" d="m940.656,592.256H55.186V112.725h885.469c9.62,0,17.419,7.799,17.419,17.419v444.692c0,9.62-7.799,17.419-17.419,17.419Z"/>
    <g>
      <polyline class="cls-2" points="58.687 592.256 55.187 592.256 55.187 588.756"/>
      <line class="cls-1" x1="55.187" y1="585.759" x2="55.187" y2="117.724"/>
      <polyline class="cls-2" points="55.187 116.225 55.187 112.725 58.687 112.725"/>
      <path class="cls-3" d="m61.687,112.725h878.969c9.62,0,17.419,7.799,17.419,17.419v444.692c0,9.62-7.799,17.419-17.419,17.419H60.187"/>
    </g>
  </g>
  <g>
    <g>
      <g>
        <polygon class="cls-15" points="433.867 276.726 418.34 256.823 433.867 236.92 598.148 236.92 613.674 256.823 598.148 276.726 433.867 276.726"/>
        <path class="cls-9" d="m597.66,237.92l14.746,18.903-14.746,18.903h-163.305l-14.746-18.903,14.746-18.903h163.305m.976-2h-165.258l-16.306,20.903,16.306,20.903h165.258l16.306-20.903-16.306-20.903h0Z"/>
      </g>
      <g>
        <g>
          <path class="cls-18" d="m456.136,276.726c-10.975,0-19.903-8.928-19.903-19.903s8.929-19.903,19.903-19.903h10.968c10.975,0,19.903,8.928,19.903,19.903s-8.929,19.903-19.903,19.903h-10.968Z"/>
          <path class="cls-20" d="m467.104,237.92c10.423,0,18.903,8.48,18.903,18.903s-8.48,18.903-18.903,18.903h-10.968c-10.423,0-18.903-8.48-18.903-18.903s8.48-18.903,18.903-18.903h10.968m0-2h-10.968c-11.497,0-20.903,9.407-20.903,20.903s9.406,20.903,20.903,20.903h10.968c11.497,0,20.903-9.406,20.903-20.903s-9.406-20.903-20.903-20.903h0Z"/>
        </g>
        <text class="cls-25" transform="translate(449.883 263.887)"><tspan x="0" y="0">10</tspan></text>
      </g>
      <g>
        <g>
          <path class="cls-18" d="m564.911,276.726c-10.975,0-19.903-8.928-19.903-19.903s8.929-19.903,19.903-19.903h10.968c10.975,0,19.903,8.928,19.903,19.903s-8.929,19.903-19.903,19.903h-10.968Z"/>
          <path class="cls-20" d="m575.878,237.92c10.423,0,18.903,8.48,18.903,18.903s-8.48,18.903-18.903,18.903h-10.968c-10.423,0-18.903-8.48-18.903-18.903s8.48-18.903,18.903-18.903h10.968m0-2h-10.968c-11.497,0-20.903,9.407-20.903,20.903s9.406,20.903,20.903,20.903h10.968c11.497,0,20.903-9.406,20.903-20.903s-9.406-20.903-20.903-20.903h0Z"/>
        </g>
        <text class="cls-25" transform="translate(558.658 263.887)"><tspan x="0" y="0">10</tspan></text>
      </g>
      <rect class="cls-9" x="501.321" y="237.017" width="29.373" height="39.613" rx="3.355" ry="3.355"/>
      <path class="cls-11" d="m519.71,256.508l-7.654-8.706v3.029s5.546,6.309,5.546,6.309l-5.546,5.808v2.896s7.626-7.985,7.626-7.985c.357-.375.37-.961.027-1.351Z"/>
    </g>
    <g>
      <g>
        <g>
          <path class="cls-14" d="m113.534,361.322c-10.975,0-19.903-8.929-19.903-19.903s8.929-19.903,19.903-19.903h294.752c10.975,0,19.903,8.928,19.903,19.903s-8.929,19.903-19.903,19.903H113.534Z"/>
          <path class="cls-5" d="m408.285,322.515c10.423,0,18.903,8.48,18.903,18.903s-8.48,18.903-18.903,18.903H113.533c-10.423,0-18.903-8.48-18.903-18.903s8.48-18.903,18.903-18.903h294.752m0-2H113.533c-11.497,0-20.903,9.407-20.903,20.903s9.406,20.903,20.903,20.903h294.752c11.497,0,20.903-9.407,20.903-20.903s-9.406-20.903-20.903-20.903h0Z"/>
        </g>
        <rect class="cls-5" x="108.114" y="321.935" width="122.019" height="38.968" rx="3.871" ry="3.871"/>
        <text class="cls-22" transform="translate(243.042 348.481)"><tspan x="0" y="0">의</tspan></text>
        <text class="cls-22" transform="translate(118.64 348.481)"><tspan x="0" y="0">반티 총점</tspan></text>
        <path class="cls-7" d="m214.44,336.741c1.503,0,3.006-.003,4.509.001.951.003,1.744.288,2.197,1.211.47.958.064,1.702-.534,2.425-1.451,1.754-2.859,3.543-4.343,5.268-1.318,1.533-2.389,1.523-3.72-.029-1.519-1.771-2.972-3.598-4.452-5.402-.521-.635-.812-1.313-.452-2.145.374-.865,1.045-1.293,1.954-1.309,1.614-.027,3.228-.008,4.842-.008v-.013Z"/>
        <text class="cls-22" transform="translate(332.611 348.481)"><tspan x="0" y="0">번째 항목</tspan></text>
      </g>
      <g>
        <g>
          <circle class="cls-18" cx="297.343" cy="341.222" r="19.903"/>
          <path class="cls-20" d="m297.343,322.319c10.423,0,18.903,8.48,18.903,18.903s-8.48,18.903-18.903,18.903-18.903-8.48-18.903-18.903,8.48-18.903,18.903-18.903m0-2c-11.497,0-20.903,9.407-20.903,20.903s9.406,20.903,20.903,20.903,20.903-9.407,20.903-20.903-9.406-20.903-20.903-20.903h0Z"/>
        </g>
        <text class="cls-25" transform="translate(291.091 348.285)"><tspan x="0" y="0">1</tspan></text>
      </g>
    </g>
    <g>
      <path class="cls-27" d="m376.206,245.549h-240.373l-11.613,11.226-11.538-11.226v-46.29l12.441,11.461,12.387-11.471,226.607-.091c16.083,0,29.097-13.806,27.779-30.151-1.175-14.565-13.733-25.591-28.345-25.591H110.793l-12.543,11.548-12.023-10.98c-.238-.217-.622-.048-.622.274v54.741c0,.047.011.092.028.135h-.004l.091.134.056,77.847,12.379,11.613,12.516-11.613h265.535c8.716,0,15.783-7.066,15.783-15.783s-7.066-15.783-15.783-15.783Z"/>
      <g>
        <path class="cls-13" d="m381.866,171.331c.233,11.599-9.583,22.21-22.59,21.903-11.361-.268-21.522-9.45-21.508-22.104.014-12.581,10.427-22.278,22.629-21.994,11.969.279,21.786,10.209,21.47,22.194Z"/>
        <path class="cls-12" d="m367.95,172.863c-.095,0-.185.021-.279.028l-4.684-7.075c.647-.892.942-2.055.623-3.302-.356-1.388-1.5-2.504-2.899-2.812-2.553-.562-4.81,1.366-4.81,3.821,0,.859.284,1.646.753,2.292l-4.684,7.075c-.094-.007-.183-.028-.279-.028-2.466,0-4.4,2.277-3.814,4.843.323,1.416,1.474,2.567,2.89,2.89,2.566.586,4.843-1.348,4.843-3.814,0-1.153-.507-2.18-1.3-2.897l4.386-6.625c.358.108.731.183,1.124.183s.766-.076,1.124-.183l4.386,6.625c-1.013.917-1.56,2.338-1.178,3.884.344,1.389,1.482,2.51,2.877,2.828,2.564.583,4.839-1.35,4.839-3.815,0-2.165-1.755-3.919-3.919-3.919Z"/>
      </g>
      <text class="cls-23" transform="translate(114.509 179.088)"><tspan x="0" y="0">만일</tspan></text>
      <text class="cls-23" transform="translate(234.797 179.088)"><tspan x="0" y="0">(이)라면</tspan></text>
      <g>
        <polygon class="cls-15" points="186.607 191.089 171.081 171.186 186.607 151.282 206.052 151.282 221.579 171.186 206.052 191.089 186.607 191.089"/>
        <path class="cls-9" d="m205.564,152.282l14.746,18.903-14.746,18.903h-18.47l-14.746-18.903,14.746-18.903h18.47m.976-2h-20.422l-16.306,20.903,16.306,20.903h20.422l16.306-20.903-16.306-20.903h0Z"/>
      </g>
      <text class="cls-24" transform="translate(186.896 177.023)"><tspan x="0" y="0">참</tspan></text>
    </g>
    <g>
      <g>
        <path class="cls-14" d="m629.399,361.224c-10.975,0-19.903-8.929-19.903-19.903s8.929-19.903,19.903-19.903h123.179c10.975,0,19.903,8.929,19.903,19.903s-8.929,19.903-19.903,19.903h-123.179Z"/>
        <path class="cls-5" d="m752.578,322.417c10.423,0,18.903,8.48,18.903,18.903s-8.48,18.903-18.903,18.903h-123.18c-10.423,0-18.903-8.48-18.903-18.903s8.48-18.903,18.903-18.903h123.18m0-2h-123.18c-11.497,0-20.903,9.407-20.903,20.903s9.406,20.903,20.903,20.903h123.18c11.497,0,20.903-9.407,20.903-20.903s-9.406-20.903-20.903-20.903h0Z"/>
      </g>
      <rect class="cls-5" x="623.979" y="321.837" width="100.859" height="38.968" rx="3.871" ry="3.871"/>
      <text class="cls-22" transform="translate(737.748 348.38)"><tspan x="0" y="0">값</tspan></text>
      <text class="cls-22" transform="translate(634.504 348.38)"><tspan x="0" y="0">최댓 값</tspan></text>
      <path class="cls-7" d="m709.145,336.643c1.503,0,3.006-.003,4.509.001.951.003,1.744.288,2.197,1.211.47.958.064,1.702-.534,2.425-1.451,1.754-2.859,3.543-4.343,5.268-1.318,1.533-2.389,1.523-3.72-.029-1.519-1.771-2.972-3.598-4.452-5.402-.521-.635-.812-1.313-.452-2.145.374-.865,1.045-1.293,1.954-1.309,1.614-.027,3.228-.008,4.842-.008v-.013Z"/>
    </g>
    <g>
      <g>
        <path class="cls-14" d="m482.69,361.224c-10.975,0-19.903-8.928-19.903-19.903s8.929-19.903,19.903-19.903h74.537c10.975,0,19.903,8.928,19.903,19.903s-8.929,19.903-19.903,19.903h-74.537Z"/>
        <path class="cls-5" d="m557.227,322.417c10.423,0,18.903,8.48,18.903,18.903s-8.48,18.903-18.903,18.903h-74.537c-10.423,0-18.903-8.48-18.903-18.903s8.48-18.903,18.903-18.903h74.537m0-2h-74.537c-11.497,0-20.903,9.407-20.903,20.903s9.406,20.903,20.903,20.903h74.537c11.497,0,20.903-9.407,20.903-20.903s-9.406-20.903-20.903-20.903h0Z"/>
      </g>
      <rect class="cls-5" x="477.271" y="321.837" width="52.216" height="38.968" rx="3.871" ry="3.871"/>
      <text class="cls-22" transform="translate(542.397 348.38)"><tspan x="0" y="0">값</tspan></text>
      <text class="cls-22" transform="translate(487.796 348.38)"><tspan x="0" y="0">n</tspan></text>
      <path class="cls-7" d="m513.794,336.643c1.503,0,3.006-.003,4.509.001.951.003,1.744.288,2.197,1.211.47.958.064,1.702-.534,2.425-1.451,1.754-2.859,3.543-4.343,5.268-1.318,1.533-2.389,1.523-3.72-.029-1.519-1.771-2.972-3.598-4.452-5.402-.521-.635-.812-1.313-.452-2.145.374-.865,1.045-1.293,1.954-1.309,1.614-.027,3.228-.008,4.842-.008v-.013Z"/>
    </g>
    <g>
      <g>
        <g>
          <path class="cls-29" d="m609.143,402.867H110.794s0,0,0,0l-12.543,11.548s0,0,0,0l-12.023-10.98c-.238-.218-.622-.049-.622.274v54.741c0,.047.011.092.028.135h-.003l.004.004c.02.048.048.093.087.13h.056l11.328,10.345c.663.605,1.678.603,2.338-.005l10.91-10.045c.212-.195.49-.304.779-.304l498.012-.101c15.329,0,27.871-12.542,27.871-27.871h0c0-15.329-12.542-27.871-27.871-27.871Z"/>
          <g>
            <path class="cls-10" d="m630.092,430.782c.233,11.599-9.583,22.21-22.59,21.903-11.361-.268-21.522-9.45-21.508-22.104.014-12.581,10.427-22.278,22.629-21.994,11.969.279,21.786,10.209,21.47,22.194Z"/>
            <path class="cls-19" d="m608.36,420.619c1.421.066,3.283.498,4.796,1.905,2.464,2.29,2.614,5.317.342,7.812-.823.903-1.728,1.735-2.634,2.558-.847.769-1.497,1.641-1.723,2.78-.285,1.438-1.202,2.017-2.552,1.624-1.294-.377-1.297-1.572-1.154-2.621.299-2.203,1.86-3.593,3.427-4.952.334-.29.717-.537.999-.87,1.487-1.758,1.36-3.4-.321-4.537-1.47-.995-3.897-.403-4.808,1.208-.326.577-.531,1.221-.815,1.823-.524,1.11-1.42,1.65-2.58,1.204-1.144-.44-1.405-1.351-1.1-2.592.769-3.131,3.806-5.339,8.123-5.343Z"/>
            <path class="cls-17" d="m607.334,443.334c-1.271-.012-2.113-.925-2.059-2.258.054-1.311.741-2.044,2.063-2.095,1.32-.051,2.369,1,2.32,2.267-.048,1.226-1.02,2.098-2.324,2.086Z"/>
          </g>
        </g>
        <g>
          <path class="cls-5" d="m116.839,417.007v27.721c0,3.45,2.808,6.244,6.257,6.235,25.312-.061,59.055-.046,84.38-.044,3.444,0,6.242-2.791,6.242-6.235v-27.63c0-3.441-2.787-6.231-6.228-6.235l-84.409-.046c-3.447-.004-6.243,2.789-6.243,6.235Z"/>
          <text class="cls-24" transform="translate(127.218 438.705)"><tspan x="0" y="0">최댓값</tspan></text>
          <path class="cls-7" d="m200.139,426.974c1.503,0,3.006-.003,4.509.001.951.003,1.744.288,2.197,1.211.47.958.064,1.702-.534,2.425-1.451,1.754-2.859,3.543-4.343,5.268-1.318,1.533-2.389,1.523-3.72-.029-1.519-1.771-2.972-3.598-4.452-5.402-.521-.635-.812-1.313-.452-2.145.374-.865,1.045-1.293,1.954-1.309,1.614-.027,3.228-.008,4.842-.008v-.013Z"/>
        </g>
        <text class="cls-26" transform="translate(229.538 439.216)"><tspan x="0" y="0">(을)를</tspan></text>
        <text class="cls-26" transform="translate(436.723 439.216)"><tspan x="0" y="0">(으)로 정하기</tspan></text>
      </g>
      <g>
        <g>
          <path class="cls-14" d="m329.289,450.54c-10.975,0-19.903-8.928-19.903-19.903s8.929-19.903,19.903-19.903h74.536c10.975,0,19.903,8.928,19.903,19.903s-8.929,19.903-19.903,19.903h-74.536Z"/>
          <path class="cls-5" d="m403.825,411.734c10.423,0,18.903,8.48,18.903,18.903s-8.48,18.903-18.903,18.903h-74.537c-10.423,0-18.903-8.48-18.903-18.903s8.48-18.903,18.903-18.903h74.537m0-2h-74.537c-11.497,0-20.903,9.406-20.903,20.903s9.406,20.903,20.903,20.903h74.537c11.497,0,20.903-9.406,20.903-20.903s-9.406-20.903-20.903-20.903h0Z"/>
        </g>
        <rect class="cls-5" x="323.869" y="411.153" width="52.216" height="38.968" rx="3.871" ry="3.871"/>
        <text class="cls-22" transform="translate(388.995 437.696)"><tspan x="0" y="0">값</tspan></text>
        <text class="cls-22" transform="translate(334.395 437.696)"><tspan x="0" y="0">n</tspan></text>
        <path class="cls-7" d="m360.392,425.959c1.503,0,3.006-.003,4.509.001.951.003,1.744.288,2.197,1.211.47.958.064,1.702-.534,2.425-1.451,1.754-2.859,3.543-4.343,5.268-1.318,1.533-2.389,1.523-3.72-.029-1.519-1.771-2.972-3.598-4.452-5.402-.521-.635-.812-1.313-.452-2.145.374-.865,1.045-1.293,1.954-1.309,1.614-.027,3.228-.008,4.842-.008v-.013Z"/>
      </g>
    </g>
    <g>
      <g>
        <g>
          <path class="cls-29" d="m896.699,500.373H110.794s0,0,0,0l-12.543,11.548s0,0,0,0l-12.023-10.98c-.238-.218-.622-.049-.622.274v54.741c0,.047.011.092.028.135h-.003l.004.004c.02.048.048.093.087.13h.056l11.328,10.345c.663.605,1.678.603,2.338-.005l10.91-10.045c.212-.195.49-.304.779-.304l785.569-.101c15.329,0,27.871-12.542,27.871-27.871h0c0-15.329-12.542-27.871-27.871-27.871Z"/>
          <g>
            <path class="cls-10" d="m917.648,528.288c.233,11.599-9.583,22.21-22.59,21.903-11.361-.268-21.522-9.45-21.508-22.104.014-12.581,10.427-22.278,22.629-21.994,11.969.279,21.786,10.209,21.47,22.194Z"/>
            <path class="cls-19" d="m895.916,518.125c1.421.066,3.283.498,4.796,1.905,2.464,2.29,2.614,5.317.342,7.812-.823.903-1.728,1.735-2.634,2.558-.847.769-1.497,1.641-1.723,2.78-.285,1.438-1.202,2.017-2.552,1.624-1.294-.377-1.297-1.572-1.154-2.621.299-2.203,1.86-3.593,3.427-4.952.334-.29.717-.537.999-.87,1.487-1.758,1.36-3.4-.321-4.537-1.47-.995-3.897-.403-4.808,1.208-.326.577-.531,1.221-.815,1.823-.524,1.11-1.42,1.65-2.58,1.204-1.144-.44-1.405-1.351-1.1-2.592.769-3.131,3.806-5.339,8.123-5.343Z"/>
            <path class="cls-17" d="m894.89,540.84c-1.271-.012-2.113-.925-2.059-2.258.054-1.311.741-2.044,2.063-2.095,1.32-.051,2.369,1,2.32,2.267-.048,1.226-1.02,2.098-2.324,2.086Z"/>
          </g>
        </g>
        <g>
          <path class="cls-5" d="m116.839,514.513v27.721c0,3.45,2.808,6.244,6.257,6.235,25.312-.061,59.055-.046,84.38-.044,3.444,0,6.242-2.791,6.242-6.235v-27.63c0-3.441-2.787-6.231-6.228-6.235l-84.409-.046c-3.447-.004-6.243,2.789-6.243,6.235Z"/>
          <text class="cls-24" transform="translate(127.218 536.211)"><tspan x="0" y="0">최댓값</tspan></text>
          <path class="cls-7" d="m200.139,524.48c1.503,0,3.006-.003,4.509.001.951.003,1.744.288,2.197,1.211.47.958.064,1.702-.534,2.425-1.451,1.754-2.859,3.543-4.343,5.268-1.318,1.533-2.389,1.523-3.72-.029-1.519-1.771-2.972-3.598-4.452-5.402-.521-.635-.812-1.313-.452-2.145.374-.865,1.045-1.293,1.954-1.309,1.614-.027,3.228-.008,4.842-.008v-.013Z"/>
        </g>
        <text class="cls-26" transform="translate(229.537 536.722)"><tspan x="0" y="0">(을)를</tspan></text>
        <text class="cls-26" transform="translate(724.279 536.722)"><tspan x="0" y="0">(으)로 정하기</tspan></text>
      </g>
      <g>
        <g>
          <g>
            <path class="cls-14" d="m329.289,548.194c-10.975,0-19.903-8.928-19.903-19.903s8.929-19.903,19.903-19.903h362.234c10.975,0,19.903,8.928,19.903,19.903s-8.929,19.903-19.903,19.903h-362.234Z"/>
            <path class="cls-5" d="m691.523,509.387c10.423,0,18.903,8.48,18.903,18.903s-8.48,18.903-18.903,18.903h-362.234c-10.423,0-18.903-8.48-18.903-18.903s8.48-18.903,18.903-18.903h362.234m0-2h-362.234c-11.497,0-20.903,9.406-20.903,20.903s9.406,20.903,20.903,20.903h362.234c11.497,0,20.903-9.406,20.903-20.903s-9.406-20.903-20.903-20.903h0Z"/>
          </g>
          <rect class="cls-5" x="323.869" y="508.807" width="122.019" height="38.968" rx="3.871" ry="3.871"/>
          <text class="cls-22" transform="translate(458.797 535.353)"><tspan x="0" y="0">의</tspan></text>
          <text class="cls-22" transform="translate(334.395 535.353)"><tspan x="0" y="0">반티 총점</tspan></text>
          <path class="cls-7" d="m430.194,523.613c1.503,0,3.006-.003,4.509.001.951.003,1.744.288,2.197,1.211.47.958.064,1.702-.534,2.425-1.451,1.754-2.859,3.543-4.343,5.268-1.318,1.533-2.389,1.523-3.72-.029-1.519-1.771-2.972-3.598-4.452-5.402-.521-.635-.812-1.313-.452-2.145.374-.865,1.045-1.293,1.954-1.309,1.614-.027,3.228-.008,4.842-.008v-.013Z"/>
          <text class="cls-22" transform="translate(615.849 535.353)"><tspan x="0" y="0">번째 항목</tspan></text>
        </g>
        <g>
          <g>
            <path class="cls-14" d="m512.098,548.046c-10.975,0-19.903-8.928-19.903-19.903s8.929-19.903,19.903-19.903h74.536c10.975,0,19.903,8.928,19.903,19.903s-8.929,19.903-19.903,19.903h-74.536Z"/>
            <path class="cls-5" d="m586.635,509.24c10.423,0,18.903,8.48,18.903,18.903s-8.48,18.903-18.903,18.903h-74.537c-10.423,0-18.903-8.48-18.903-18.903s8.48-18.903,18.903-18.903h74.537m0-2h-74.537c-11.497,0-20.903,9.406-20.903,20.903s9.406,20.903,20.903,20.903h74.537c11.497,0,20.903-9.406,20.903-20.903s-9.406-20.903-20.903-20.903h0Z"/>
          </g>
          <rect class="cls-5" x="506.678" y="508.659" width="52.216" height="38.968" rx="3.871" ry="3.871"/>
          <text class="cls-22" transform="translate(571.805 535.202)"><tspan x="0" y="0">값</tspan></text>
          <text class="cls-22" transform="translate(517.204 535.202)"><tspan x="0" y="0">n</tspan></text>
          <path class="cls-7" d="m543.201,523.466c1.503,0,3.006-.003,4.509.001.951.003,1.744.288,2.197,1.211.47.958.064,1.702-.534,2.425-1.451,1.754-2.859,3.543-4.343,5.268-1.318,1.533-2.389,1.523-3.72-.029-1.519-1.771-2.972-3.598-4.452-5.402-.521-.635-.812-1.313-.452-2.145.374-.865,1.045-1.293,1.954-1.309,1.614-.027,3.228-.008,4.842-.008v-.013Z"/>
        </g>
      </g>
    </g>
  </g>
</svg>