<?xml version="1.0" encoding="UTF-8"?>
<svg id="_레이어_1" data-name="레이어 1" xmlns="http://www.w3.org/2000/svg" viewBox="0 0 1227.887 180.083">
  <defs>
    <style>
      .cls-1 {
        fill: #c72345;
      }

      .cls-1, .cls-2, .cls-3, .cls-4, .cls-5, .cls-6, .cls-7, .cls-8, .cls-9, .cls-10, .cls-11, .cls-12, .cls-13, .cls-14, .cls-15, .cls-16, .cls-17 {
        stroke-width: 0px;
      }

      .cls-2, .cls-18, .cls-19, .cls-20, .cls-21 {
        fill: #fefefe;
      }

      .cls-3 {
        fill: #009400;
      }

      .cls-22, .cls-23, .cls-24, .cls-21 {
        letter-spacing: -.025em;
      }

      .cls-4 {
        fill: #b819b3;
      }

      .cls-23 {
        fill: #fff;
      }

      .cls-23, .cls-18, .cls-19, .cls-24, .cls-20, .cls-25, .cls-21 {
        font-family: Pretendard-Bold-KSCpc-EUC-H, Pretendard;
        font-weight: 700;
      }

      .cls-23, .cls-19, .cls-24, .cls-25, .cls-21 {
        font-size: 22px;
      }

      .cls-5 {
        fill: #3bce3b;
      }

      .cls-6 {
        fill: #fefdfe;
      }

      .cls-26 {
        letter-spacing: -.057em;
      }

      .cls-7 {
        fill: #c62042;
      }

      .cls-27 {
        fill: #fe3a61;
        stroke: #c62142;
        stroke-linecap: round;
        stroke-linejoin: round;
      }

      .cls-27, .cls-28 {
        stroke-width: 2px;
      }

      .cls-18, .cls-20 {
        font-size: 26px;
      }

      .cls-28 {
        fill: #00b400;
        stroke: #009400;
        stroke-miterlimit: 10;
      }

      .cls-8 {
        fill: #fe9b01;
      }

      .cls-9 {
        fill: #ff7f00;
      }

      .cls-10 {
        fill: #dd47d8;
      }

      .cls-11 {
        fill: #fafdfa;
      }

      .cls-12 {
        fill: #fedd81;
      }

      .cls-13 {
        fill: #f4af18;
      }

      .cls-20 {
        letter-spacing: -.025em;
      }

      .cls-14 {
        fill: #fe9b00;
      }

      .cls-15 {
        fill: #fe5576;
      }

      .cls-16 {
        fill: #00b300;
      }

      .cls-17 {
        fill: #009300;
      }
    </style>
  </defs>
  <path class="cls-27" d="m1199.016,67.102H48.089l-12.543,11.548-12.024-10.981c-.238-.218-.622-.049-.622.274v54.741c0,.102.042.198.115.269l12.53,11.519,12.543-11.629h1150.927c15.329,0,27.871-12.542,27.871-27.871h0c0-15.329-12.542-27.871-27.871-27.871Z"/>
  <path class="cls-28" d="m312.306,123.231H48.089l-12.543,11.548-12.024-10.981c-.238-.218-.622-.049-.622.274v54.741c0,.102.042.198.115.269l289.29-.11c15.329,0,27.871-12.542,27.871-27.871h0c0-15.329-12.542-27.871-27.871-27.871Z"/>
  <path class="cls-7" d="m1111.823,114.641c-14.548,0-29.095.001-43.643,0-3.175,0-4.593-1.41-4.594-4.569-.003-10.355-.003-20.71,0-31.065.001-3.029,1.457-4.455,4.54-4.455,29.207-.002,58.415-.002,87.622,0,3.418,0,4.878,1.469,4.879,4.903.002,10.132.003,20.264,0,30.397-.001,3.292-1.509,4.788-4.824,4.789-14.66.003-29.319.001-43.979.001Z"/>
  <path class="cls-7" d="m1174.73,94.496c.085-12.114,9.79-22.01,22.342-21.937,12.159.071,22.178,9.883,21.961,22.471-.203,11.764-9.754,21.773-22.498,21.598-12.042-.166-21.794-9.762-21.805-22.132Z"/>
  <path class="cls-3" d="m288.956,150.883c.085-12.114,9.79-22.01,22.342-21.937,12.159.071,22.178,9.883,21.961,22.471-.203,11.764-9.754,21.773-22.498,21.598-12.042-.166-21.794-9.762-21.805-22.132Z"/>
  <path class="cls-8" d="m957.207,94.647c.462,11.521-9.772,20.946-20.786,21.039-11.933.1-21.41-9.928-21.395-21.035.015-11.196,9.427-21.07,20.981-21.145,11.874-.077,21.767,10.091,21.199,21.141Z"/>
  <path class="cls-2" d="m1150.411,90.663c-.401-.888-1.172-1.308-2.152-1.313l-9.375.029c-.865.022-1.679.285-2.04,1.183-.34.847-.146,1.625.436,2.325,1.492,1.794,2.952,3.616,4.471,5.386,1.243,1.448,2.36,1.471,3.606.035,1.565-1.803,3.033-3.69,4.578-5.51.556-.655.83-1.35.476-2.135Z"/>
  <path class="cls-15" d="m1197.631,95.933c2.854.024,5.612,2.731,5.624,5.52.014,3.13-2.722,5.849-5.866,5.829-3.016-.018-5.566-2.746-5.533-5.919.031-3.007,2.636-5.457,5.775-5.43Z"/>
  <rect class="cls-15" x="1200.018" y="86.318" width="9.448" height="9.448" transform="translate(417.237 -825.216) rotate(45)"/>
  <path class="cls-12" d="m955.197,94.762c.429,9.99-8.671,18.974-19.039,18.913-11.074-.066-19.206-9.679-19.129-19.142.082-10.145,8.896-19.056,19.081-19.017,10.739.041,19.646,9.25,19.087,19.247Z"/>
  <path class="cls-1" d="m1099.259,92.926c1.256-.022,2.223.921,2.182,2.215-.04,1.272-.632,2.104-2.021,2.157-1.365.052-2.237-.744-2.28-2.075-.042-1.281.876-2.275,2.12-2.297Z"/>
  <polygon class="cls-15" points="1195.861 93.996 1195.861 87.564 1190.29 84.348 1184.72 87.564 1184.72 93.996 1190.29 97.213 1195.861 93.996"/>
  <text class="cls-24" transform="translate(927.872 101.712)"><tspan x="0" y="0">4</tspan></text>
  <text class="cls-20" transform="translate(837.032 102.21)"><tspan x="0" y="0">을(를)</tspan></text>
  <text class="cls-20" transform="translate(973.25 103.784)"><tspan x="0" y="0">초 동안</tspan></text>
  <text class="cls-21" transform="translate(1074.65 101.554)"><tspan x="0" y="0">말하기</tspan></text>
  <g>
    <path class="cls-13" d="m71.942,114.283c-10.975,0-19.903-8.928-19.903-19.903s8.928-19.903,19.903-19.903h728.928c10.975,0,19.903,8.929,19.903,19.903s-8.929,19.903-19.903,19.903H71.942Z"/>
    <path class="cls-9" d="m800.871,75.477c10.423,0,18.903,8.48,18.903,18.903s-8.48,18.903-18.903,18.903H71.942c-10.423,0-18.903-8.48-18.903-18.903s8.48-18.903,18.903-18.903h728.928m0-2H71.942c-11.497,0-20.903,9.406-20.903,20.903h0c0,11.497,9.406,20.903,20.903,20.903h728.928c11.497,0,20.903-9.406,20.903-20.903h0c0-11.497-9.406-20.903-20.903-20.903h0Z"/>
  </g>
  <g>
    <path class="cls-12" d="m416.354,114.345c-10.975,0-19.903-8.929-19.903-19.903s8.929-19.903,19.903-19.903h233.548c10.975,0,19.903,8.929,19.903,19.903s-8.929,19.903-19.903,19.903h-233.548Z"/>
    <path class="cls-14" d="m649.903,75.538c10.423,0,18.903,8.48,18.903,18.903s-8.48,18.903-18.903,18.903h-233.548c-10.423,0-18.903-8.48-18.903-18.903s8.48-18.903,18.903-18.903h233.548m0-2h-233.548c-11.497,0-20.903,9.406-20.903,20.903h0c0,11.497,9.406,20.903,20.903,20.903h233.548c11.497,0,20.903-9.406,20.903-20.903h0c0-11.497-9.406-20.903-20.903-20.903h0Z"/>
  </g>
  <g>
    <path class="cls-10" d="m85.774,114.283c-10.975,0-19.903-8.928-19.903-19.903s8.929-19.903,19.903-19.903h206.968c10.975,0,19.903,8.929,19.903,19.903s-8.929,19.903-19.903,19.903H85.774Z"/>
    <path class="cls-4" d="m292.741,75.477c10.423,0,18.903,8.48,18.903,18.903s-8.48,18.903-18.903,18.903H85.774c-10.423,0-18.903-8.48-18.903-18.903s8.48-18.903,18.903-18.903h206.968m0-2H85.774c-11.497,0-20.903,9.406-20.903,20.903h0c0,11.497,9.406,20.903,20.903,20.903h206.968c11.497,0,20.903-9.406,20.903-20.903h0c0-11.497-9.406-20.903-20.903-20.903h0Z"/>
  </g>
  <rect class="cls-4" x="80.354" y="74.897" width="141.935" height="38.968" rx="3.871" ry="3.871"/>
  <text class="cls-23" transform="translate(235.653 101.443)"><tspan x="0" y="0">항목 수</tspan></text>
  <text class="cls-23" transform="translate(326.75 101.443)"><tspan x="0" y="0">과(와)</tspan></text>
  <text class="cls-23" transform="translate(681.879 101.443)"><tspan x="0" y="0">을(를) 합친 값</tspan></text>
  <text class="cls-25" transform="translate(414.492 101.443)"><tspan class="cls-22" x="0" y="0">개의 반티가 등록되었습니다</tspan><tspan class="cls-26" x="230.604" y="0">.</tspan></text>
  <text class="cls-23" transform="translate(90.879 101.443)"><tspan x="0" y="0">반티 리스트</tspan></text>
  <path class="cls-6" d="m204.596,89.703c1.503,0,3.006-.003,4.509.001.951.003,1.744.288,2.197,1.211.47.958.064,1.702-.534,2.425-1.451,1.754-2.859,3.543-4.343,5.268-1.318,1.533-2.389,1.523-3.72-.029-1.519-1.771-2.972-3.598-4.452-5.402-.521-.635-.812-1.313-.452-2.145.374-.865,1.045-1.293,1.954-1.309,1.614-.027,3.228-.008,4.842-.008v-.013Z"/>
  <path class="cls-3" d="m110.643,130.657c17.877,0,35.754,0,53.631,0,2.815,0,4.335,2.426,4.336,6.934.003,8.742.003,17.483,0,26.225-.001,4.509-1.521,6.935-4.336,6.935-35.754,0-71.508-.025-107.263.059-2.308.005-4.351-2.765-4.335-6.91.033-8.797.033-17.595,0-26.392-.015-4.145,2.027-6.926,4.335-6.912,17.877.11,35.754.061,53.631.061Z"/>
  <text class="cls-19" transform="translate(63.057 158.54)"><tspan x="0" y="0">투표하기</tspan></text>
  <text class="cls-18" transform="translate(185.379 158.54)"><tspan x="0" y="0">시작하기</tspan></text>
  <path class="cls-6" d="m151.435,146.477c1.503,0,3.006-.003,4.509.001.951.003,1.744.288,2.197,1.211.47.958.064,1.702-.534,2.425-1.451,1.754-2.859,3.543-4.343,5.268-1.318,1.533-2.389,1.523-3.72-.029-1.519-1.771-2.972-3.598-4.452-5.402-.521-.635-.812-1.313-.452-2.145.374-.865,1.045-1.293,1.954-1.309,1.614-.027,3.228-.008,4.842-.008v-.013Z"/>
  <g>
    <path class="cls-17" d="m320.275,66.162h-8.084c.277-.924,1.135-.768,1.786-.902,8.831-1.819,15.283-6.702,19.271-14.806,5.736-11.655,1.461-26.601-9.566-33.547-4.664-2.938-9.735-4.326-15.226-4.326-82.032.003-164.064-.006-246.096.04-2.483.001-4.347-.646-6.295-2.304C44.73.67,27.836-.454,15.005,9.53,2.899,18.95-.948,35.497,5.703,49.269c3.245,6.719,8.235,11.842,14.963,15.216.795.399,1.871.554,2.075,1.708-.654.364-.69,1-.722,1.637C8.395,62.346-.426,48.827.016,34.107.456,19.423,9.998,6.294,24.086,1.864c12.756-4.011,24.419-1.551,34.517,7.387.874.774,1.729.837,2.733.837,82.41-.004,164.821-.002,247.231-.006,9.768,0,17.734,3.752,23.751,11.443,11.182,14.295,6.078,35.84-10.304,43.699-.593.284-1.159.624-1.738.937Z"/>
    <path class="cls-16" d="m22.742,66.193c-2.483-1.566-5.208-2.703-7.546-4.545-7.319-5.764-11.687-13.145-12.892-22.422-1.096-8.439.862-16.148,5.715-23.002C13.609,8.328,21.294,3.608,31.01,2.389c9.443-1.184,17.932,1.289,25.116,7.353,2.315,1.954,4.448,2.378,7.175,2.377,81.918-.036,163.836-.03,245.754-.029,13.081,0,24.476,9.276,26.808,22.059,2.817,15.443-7.77,29.818-23.079,31.754-.205.026-.396.17-.593.258-.891.019-1.782.053-2.673.053-86.874.003-173.748.006-260.622-.029-1.521,0-2.594.413-3.644,1.509-2.967,3.097-6.074,6.061-9.065,9.136-.789.811-1.251.907-2.094.038-3.141-3.24-6.365-6.399-9.562-9.586-.507-.505-.955-1.117-1.79-1.09Z"/>
    <path class="cls-2" d="m35.109,63.2c-15.48-.004-28.075-12.576-28.082-28.029-.007-15.539,12.61-28.105,28.196-28.082,15.45.022,28.012,12.635,27.998,28.113-.014,15.443-12.624,28.003-28.112,27.999Z"/>
    <path class="cls-16" d="m23.86,33.716c.099-1.896-.183-4.236.152-6.562.711-4.937,4.657-8.567,9.628-8.799,1.609-.075,3.236-.154,4.823.234,4.693,1.146,7.831,5.11,7.914,10.093.06,3.614.045,7.23.006,10.844-.07,6.422-4.581,10.616-11.359,10.611-6.621-.005-11.083-4.255-11.16-10.647-.021-1.779-.003-3.559-.003-5.774Z"/>
    <path class="cls-11" d="m33.191,27.569c.035-.717.008-1.442.123-2.144.154-.937.826-1.465,1.736-1.493.99-.03,1.793.497,1.874,1.509.118,1.478.107,2.978-.004,4.457-.07.929-.81,1.468-1.722,1.499-.995.033-1.71-.518-1.884-1.517-.131-.754-.088-1.539-.124-2.311Z"/>
    <text class="cls-18" transform="translate(74.29 47.254)"><tspan x="0" y="0">오브젝트를 클릭했을 때</tspan></text>
  </g>
  <g>
    <path class="cls-5" d="m323.34,145.661c0,1.542-.008,3.085.003,4.627.007.98-.264,1.487-1.38,1.043-2.268-.902-4.509-.654-6.762.172-1.828.67-3.715,1.034-5.658.417-.884-.281-1.324-.78-1.303-1.8.062-3.028.029-6.059.018-9.089-.004-1.006.123-1.673,1.394-1.023,1.992,1.019,3.969.447,5.902-.261,2.224-.814,4.426-1.176,6.743-.28.829.321,1.084.737,1.057,1.566-.05,1.541-.014,3.084-.015,4.627Z"/>
    <path class="cls-5" d="m306.704,149.864c0,3.197.023,6.395-.016,9.592-.01.805.134,1.195,1.061,1.136,1.142-.072,2.005.452,1.928,1.706-.072,1.164-.992,1.47-2.018,1.474-1.655.007-3.309.007-4.964,0-1.047-.005-1.902-.364-1.951-1.54-.05-1.196.799-1.68,1.838-1.632,1.034.048,1.134-.418,1.13-1.268-.03-5.898-.016-11.797-.015-17.695,0-.441.007-.882,0-1.323-.018-1.057.309-1.93,1.507-1.952,1.222-.022,1.511.85,1.507,1.911-.014,3.197-.005,6.394-.005,9.592Z"/>
  </g>
  <rect class="cls-2" x="63.838" y="72.924" width="255.484" height="42.839" rx="10" ry="10"/>
</svg>