<?xml version="1.0" encoding="UTF-8"?>
<svg xmlns="http://www.w3.org/2000/svg" viewBox="0 0 222.937 82.563">
  <defs>
    <style>
      .cls-1, .cls-2, .cls-3, .cls-4 {
        stroke-width: 0px;
      }

      .cls-1, .cls-5 {
        fill: #4f80ff;
      }

      .cls-6, .cls-2, .cls-7 {
        fill: #fff;
      }

      .cls-6, .cls-5 {
        font-family: Pretendard-Bold-KSCpc-EUC-H, Pretendard;
        font-size: 10.606px;
        font-weight: 700;
      }

      .cls-3 {
        fill: #f8fcff;
      }

      .cls-8 {
        font-family: Pretendard-SemiBold-KSCpc-EUC-H, Pretendard;
        font-size: 10.274px;
        font-weight: 600;
        letter-spacing: .01em;
      }

      .cls-4 {
        fill: #979797;
      }

      .cls-7 {
        stroke: #e2e2e2;
        stroke-miterlimit: 10;
        stroke-width: .75px;
      }

      .cls-9 {
        fill: none;
        stroke: red;
        stroke-dasharray: 0 0 4.058 2.029;
        stroke-linejoin: round;
        stroke-width: 1.5px;
      }
    </style>
  </defs>
  <g id="_레이어_1" data-name="레이어 1">
    <g>
      <rect class="cls-3" y="0" width="222.937" height="82.563"/>
      <path class="cls-7" d="m222.937,40.242H11.775c-1.322,0-2.393-1.071-2.393-2.393V14.581c0-1.322,1.071-2.393,2.393-2.393h211.163"/>
      <text class="cls-8" transform="translate(26.195 30.77)"><tspan x="0" y="0">월평균 미세먼지농도</tspan></text>
      <rect class="cls-7" x="13.751" y="49.907" width="22.666" height="22.965" rx="3.314" ry="3.314"/>
      <rect class="cls-1" x="93.993" y="49.554" width="51.148" height="23.671"/>
      <g>
        <path class="cls-2" d="m45.893,72.975c-1.188,0-2.156-.967-2.156-2.156v-18.86c0-1.188.967-2.156,2.156-2.156h47.851v23.171h-47.851Z"/>
        <path class="cls-1" d="m93.493,50.054v22.67h-47.601c-1.051,0-1.906-.854-1.906-1.905v-18.86c0-1.051.855-1.905,1.906-1.905h47.601m.5-.5h-48.101c-1.329,0-2.406,1.077-2.406,2.405v18.86c0,1.329,1.077,2.405,2.406,2.405h48.101v-23.67h0Z"/>
      </g>
      <g>
        <path class="cls-2" d="m145.391,72.975v-23.171h47.167c1.189,0,2.156.967,2.156,2.156v18.86c0,1.188-.967,2.156-2.156,2.156h-47.167Z"/>
        <path class="cls-1" d="m192.557,50.054c1.051,0,1.906.854,1.906,1.905v18.86c0,1.051-.855,1.905-1.906,1.905h-46.917v-22.67h46.917m0-.5h-47.417v23.67h47.417c1.328,0,2.406-1.077,2.406-2.405v-18.86c0-1.329-1.077-2.405-2.406-2.405h0Z"/>
      </g>
      <g>
        <path class="cls-4" d="m22.119,54.656l-3.299-.083c-.231-.006-.421.184-.415.415l.083,3.299c.009.356.439.528.691.276l.93-.93,2.31,2.31c.066.066.172.066.238,0l1.118-1.118c.066-.066.066-.172,0-.238l-2.31-2.31.93-.93c.252-.252.08-.682-.276-.691Z"/>
        <path class="cls-4" d="m31.679,58.286l.083-3.299c.006-.231-.184-.421-.415-.415l-3.299.083c-.356.009-.528.439-.276.691l.93.93-2.31,2.31c-.066.066-.066.172,0,.238l1.118,1.118c.066.066.172.066.238,0l2.31-2.31.93.93c.252.252.682.08.691-.276Z"/>
        <path class="cls-4" d="m28.048,68.124l3.299.083c.231.006.421-.184.415-.415l-.083-3.299c-.009-.356-.439-.528-.691-.276l-.93.93-2.31-2.31c-.066-.066-.172-.066-.238,0l-1.118,1.118c-.066.066-.066.172,0,.238l2.31,2.31-.93.93c-.252.252-.08.682.276.691Z"/>
        <path class="cls-4" d="m18.488,64.493l-.083,3.299c-.006.231.184.421.415.415l3.299-.083c.356-.009.528-.439.276-.691l-.93-.93,2.31-2.31c.066-.066.066-.172,0-.238l-1.118-1.118c-.066-.066-.172-.066-.238,0l-2.31,2.31-.93-.93c-.252-.252-.682-.08-.691.276Z"/>
      </g>
      <text class="cls-5" transform="translate(54.585 66.023)"><tspan x="0" y="0">테이블</tspan></text>
      <text class="cls-6" transform="translate(109.949 66.023)"><tspan x="0" y="0">차트</tspan></text>
      <text class="cls-5" transform="translate(160.729 66.023)"><tspan x="0" y="0">정보</tspan></text>
    </g>
  </g>
  <g id="_레이어_2" data-name="레이어 2">
    <rect class="cls-9" x="88.565" y="45.355" width="62.047" height="31.484" rx="2.572" ry="2.572"/>
  </g>
</svg>