<?xml version="1.0" encoding="UTF-8"?>
<svg id="_레이어_1" data-name="레이어 1" xmlns="http://www.w3.org/2000/svg" viewBox="0 0 249.806 249.806">
  <defs>
    <style>
      .cls-1 {
        fill: #d75555;
      }

      .cls-1, .cls-2, .cls-3, .cls-4, .cls-5, .cls-6, .cls-7, .cls-8 {
        stroke-width: 0px;
      }

      .cls-2 {
        fill: #7f5858;
      }

      .cls-3 {
        fill: #e6e6e6;
      }

      .cls-4 {
        fill: none;
      }

      .cls-5 {
        fill: #dd5858;
      }

      .cls-6 {
        fill: #f4f4f4;
      }

      .cls-7 {
        fill: #cacaca;
      }

      .cls-8 {
        fill: #fe5555;
      }
    </style>
  </defs>
  <g>
    <path class="cls-7" d="m127.031,187.893c-28.428.512-39.714-4.156-42.304-6.876.178,3.275.281,5.311.281,5.609,0,2.164,9.694,8.421,41.995,7.839,32.301-.582,37.685-3.346,38.703-6.111.145-.394.376-2.661.666-6.249-1.504,2.667-8.112,5.226-39.342,5.788Z"/>
    <path class="cls-3" d="m79.571,91.014s4.044,69.484,5.157,90.003c2.589,2.72,13.876,7.388,42.304,6.876,31.23-.563,37.837-3.122,39.342-5.788,1.74-21.572,5.591-91.091,5.591-91.091h-92.393Z"/>
  </g>
  <g>
    <path class="cls-8" d="m171.527,69.48c-2.91-2.037-27.936-8.439-30.773-9.021-.36-.074-.809-.156-1.324-.243.274.205.435.417.435.637,0,1.463-6.419,2.649-14.336,2.649s-14.336-1.186-14.336-2.649c0-.186.106-.368.303-.543-8.999,2.303-28.933,7.813-31.125,9.024-2.765,1.528-3.492,4.583-3.492,4.583-.825,1.04,22.963,9.106,47.288,9.385,25.034.287,50.635-7.233,50.561-7.639-.146-.8-.291-4.147-3.201-6.184Z"/>
    <path class="cls-5" d="m111.193,60.853c0,1.463,6.418,2.649,14.336,2.649s14.336-1.186,14.336-2.649c0-.22-.161-.433-.435-.637-3.538-.599-10.264-1.433-13.901-1.454-4.167-.024-8.055.388-9.729.533-.347.03-1.953.414-4.304,1.015-.197.175-.303.357-.303.543Z"/>
  </g>
  <g>
    <path class="cls-4" d="m114.236,60.454s0,0,0,0c.002-.026.003-.053.005-.079-.021.024-.039.052-.061.075.018.002.037.002.055.004,0,0,0,0,0,0Z"/>
    <path class="cls-3" d="m80.697,97.134c-.036-.198-.093-.377-.166-.542-.163-.041-.327-.076-.49-.118.197.262.419.476.656.66Z"/>
    <path class="cls-1" d="m174.003,72.973c-.181.098-.362.192-.542.284-2.36,1.205-4.653,1.818-7.033-.459-.731-.699-1.708-1.483-2.907-1.544-.753-.038-1.525-.057-1.998.695-.503.8-.143,1.479.465,1.973,2.222,1.808.971,2.388-.935,2.704-2.831.47-5.665.93-8.507,1.321-1.65.227-3.153.075-3.8-1.905-.223-.683-.783-1.261-1.208-1.873-.869-1.252-2.105-1.683-3.406-.97-1.293.708-.878,1.918-.31,2.946,1.064,1.925.271,2.213-1.615,2.459-3.9.509-7.794.426-11.697.514-1.602.036-2.496-.344-2.332-2.166.169-1.87-.27-3.482-2.58-3.444-2.121.035-2.61,1.539-2.433,3.31.196,1.961-.761,2.358-2.481,2.303-3.621-.116-7.237.012-10.858-.519-1.778-.26-1.809-.799-1.089-2.077.275-.488.523-.994.735-1.511.298-.726.378-1.478-.196-2.104-.671-.731-1.484-.59-2.323-.289-1.552.558-2.353,1.802-2.893,3.229-.616,1.629-1.675,2.344-3.433,2.131-3.761-.455-7.566-.634-11.219-1.828.047-1.039.929-1.397,1.444-2.009.549-.653,1.232-1.252.634-2.191-.544-.854-1.44-.788-2.271-.657-.939.148-1.781.604-2.448,1.275-2.201,2.212-4.615,2.476-7.327.999-.486-.265-1.054-.378-1.613-.507-.173-.04-.346-.082-.515-.13-2.313,4.806.377,8.782,2.135,12.913h0c.139-.069.277-.111.415-.143.001.008.006.015.007.023.011.106.008.202.002.296.801.336,1.593.702,2.421.938,11.949,3.401,23.481,4.343,36.52,4.634,13.04.291,29.326-1.047,34.161-1.601,4.836-.554,12.714-1.513,18.715-4.122-.017-.035-.035-.069-.051-.104.072.012.142.02.215.035.177-.323.417-.628.521-.973,1.162-3.866,3.828-7.529,1.629-11.859Z"/>
    <path class="cls-1" d="m79.87,85.728c-.001-.008-.005-.015-.007-.023-.138.031-.276.074-.415.143.142.056.283.117.424.176.006-.094.008-.19-.002-.296Z"/>
    <path class="cls-1" d="m171.69,85.873c.054-.024.109-.045.163-.069-.072-.015-.143-.023-.215-.035.017.035.034.069.051.104Z"/>
    <path class="cls-8" d="m173.434,73.175c.011.027.017.055.028.082.18-.092.361-.186.542-.284-.209.052-.413.081-.62.121.016.028.034.053.05.081Z"/>
    <path class="cls-8" d="m77.862,72.992c.08-.138.171-.259.256-.39-.264.049-.531.147-.804.333,0,0,0,0,0,0,.169.049.342.09.515.13.012-.025.02-.049.033-.073Z"/>
    <path class="cls-2" d="m116.436,61.201s0,0-.001,0c0,0-.001,0-.002,0-.834,0,.003,0,.003,0Z"/>
  </g>
  <g>
    <path class="cls-6" d="m145.519,108.807c-2.695-.107-3.888,1.331-4.128,3.555l-2.135,60.378c-.059,1.844,1.296,3.73,4.053,3.73s3.598-2.264,3.598-2.955,2.216-61.006,2.216-61.006c.031-2.074-1.033-3.601-3.604-3.703Z"/>
    <path class="cls-6" d="m105.692,108.807c2.695-.107,3.888,1.331,4.128,3.555l2.135,60.378c.059,1.844-1.296,3.73-4.053,3.73-2.757,0-3.598-2.264-3.598-2.955,0-.691-2.216-61.006-2.216-61.006-.031-2.074,1.033-3.601,3.604-3.703Z"/>
    <path class="cls-6" d="m85.85,116.854c-.136-1.834-.309-3.667-.398-5.502-.103-2.118.896-3.768,3.362-3.887,2.514-.122,3.969,1.277,4.151,3.578.557,7.057,1.142,14.112,1.655,21.171.906,12.468,1.766,24.939,2.644,37.409.039.55.081,1.101.092,1.652.041,2.003-.432,3.718-3.129,3.989-2.393.241-4.081-1.11-4.363-3.672-.342-3.108-.509-6.232-.736-9.35-1.104-15.128-2.203-30.257-3.304-45.386l.027-.002Z"/>
    <path class="cls-6" d="m166.348,111.026c-1.492,20.557-2.917,40.185-4.346,59.813-.027.366-.083.731-.15,1.094-.39,2.122-1.75,3.4-4.201,3.199-2.521-.208-3.426-1.78-3.273-3.905,1.042-14.491,2.085-28.982,3.139-43.472.393-5.41.781-10.821,1.243-16.226.24-2.807,1.877-4.39,4.238-4.084,2.911.377,3.386,2.312,3.35,3.582Z"/>
    <path class="cls-6" d="m129.375,144.239c0,9.655.006,19.309-.004,28.964-.003,3.065-1.393,4.703-3.863,4.623-2.374-.077-3.648-1.613-3.65-4.547-.02-19.401-.022-38.802-.026-58.202,0-.643-.029-1.297.087-1.927.338-1.835,1.416-3.1,3.654-3.082,2.344.02,3.648,1.255,3.751,3.279.136,2.661.071,5.331.073,7.998.006,7.632.002,15.263.002,22.895h-.024Z"/>
  </g>
  <path class="cls-2" d="m137.206,60.454s0,0,0,0c-.001-.014-.002-.028-.003-.042-.04-1.271-.065-2.541-.125-3.81-.192-4.018-2.405-7.161-5.872-8.739-.013-.006-.026-.012-.039-.018-.214-.096-.431-.187-.653-.271-.175-.068-.354-.132-.534-.192-.077-.025-.154-.05-.231-.073-.351-.109-.713-.197-1.082-.274-.614-.129-1.247-.218-1.904-.256-.023-.001-.044-.005-.067-.007-.028-.002-.055,0-.084-.002-.237-.011-.474-.017-.716-.016h0c-.241-.001-.479.005-.716.016-.028.002-.055,0-.084.002-.023.001-.044.005-.067.007-.657.038-1.291.128-1.904.256-.368.077-.731.165-1.082.274-.078.023-.154.048-.231.073-.181.06-.359.123-.534.192-.223.084-.44.175-.653.271-.013.006-.026.012-.039.018-3.467,1.578-5.68,4.72-5.872,8.739-.061,1.269-.085,2.54-.125,3.81,0,.014-.002.028-.003.042,0,0,0,0,0,0,0,0,0,.001.001.002,0,.017,0,.033-.001.05,0,0,0,0,0,0,.021.027.046.043.068.067h0s.069.626,2.129.626h.002c.838,0,1.884.207,2.44-.376.208-.218.336-.578.325-1.185,0,0,0,0,0,0h0c-.024-2.01-.546-4.079.835-5.905,1.132-1.496,3.122-2.401,5.322-2.477.063,0,.126-.001.188,0,.063,0,.125,0,.188,0,2.2.075,4.19.981,5.322,2.477,1.382,1.826.859,3.895.835,5.905h0s0,0,0,0c-.011.607.117.968.325,1.185.556.582,1.602.376,2.44.376h.002c2.06,0,2.129-.626,2.129-.626h0c.022-.025.046-.04.068-.067,0,0,0,0,0,0,0-.017,0-.033-.001-.05,0,0,0-.001.001-.002Z"/>
  <path class="cls-7" d="m175.849,89.899c-.026-.137-.052-.274-.085-.416-.335-1.428-1.761-2.697-2.139-2.944-.378-.247-1.279-.692-1.279-.692l-.492-.043c-.054.024-.109.045-.163.069-6,2.609-12.434,3.262-18.822,3.803-3.203.271-6.41.504-9.62.696-3.423.131-6.85.222-10.269.358-2.361.094-4.722.135-7.083.148-2.361-.013-4.722-.054-7.083-.148-3.419-.136-6.846-.226-10.269-.358-3.209-.192-6.416-.425-9.62-.696-6.388-.541-12.821-1.194-18.822-3.803-.054-.024-.109-.045-.163-.069l-.492.043s-.9.445-1.278.692c-.379.247-1.804,1.516-2.14,2.944-.033.142-.059.279-.085.416-.113.352-.156.779-.14,1.174-.075,2.258,1.142,3.792,4.236,5.4,0,0,0,0,0,0,.163.042.327.077.49.118,4.623,1.176,9.299,1.974,14.003,2.615,1.517.216,3.036.408,4.559.581,2.234.264,4.473.508,6.714.751,5.846.634,11.733.698,17.514.72.772.003,1.546.004,2.32.005.085,0,.171,0,.256,0s.17,0,.255,0c.774,0,1.548-.002,2.32-.005,5.781-.022,11.669-.086,17.514-.72,2.241-.243,4.48-.487,6.714-.751,1.523-.173,3.042-.365,4.559-.581,4.704-.641,9.381-1.44,14.003-2.615.163-.041.327-.076.49-.118,0,0,0,0,0,0,3.094-1.608,4.311-3.142,4.236-5.4.015-.396-.027-.822-.141-1.174Z"/>
</svg>