<?xml version="1.0" encoding="UTF-8"?>
<svg id="_레이어_2" data-name="레이어 2" xmlns="http://www.w3.org/2000/svg" viewBox="0 0 274.083 160.28">
  <defs>
    <style>
      .cls-1 {
        fill: #d400d4;
        stroke: #9f009f;
        stroke-miterlimit: 10;
        stroke-width: 1.5px;
      }

      .cls-2 {
        fill: #fff;
        stroke-width: 0px;
      }
    </style>
  </defs>
  <path class="cls-1" d="m84.158,121.705h-21.05c-1.723,0-3.364-.74-4.505-2.031l-8.586-9.72c-1.141-1.292-2.781-2.031-4.505-2.031h-13.331c-3.32,0-6.011-2.691-6.011-6.011v-18.737c0-3.32,2.691-6.011,6.011-6.011h13.331c1.723,0,3.364.74,4.505,2.031l8.586,9.72c1.141,1.292,2.781,2.031,4.505,2.031h21.05c1.691,0,3.304-.712,4.443-1.963l8.981-9.857c1.139-1.25,2.752-1.963,4.443-1.963h165.297c3.32,0,6.011-2.691,6.011-6.011V6.761c0-3.32-2.691-6.011-6.011-6.011H6.761C3.441.75.75,3.441.75,6.761v146.759c0,3.32,2.691,6.011,6.011,6.011h260.561c3.32,0,6.011-2.691,6.011-6.011v-39.586c0-3.32-2.691-6.011-6.011-6.011H102.025c-1.691,0-3.304.712-4.443,1.963l-8.981,9.857c-1.139,1.25-2.752,1.963-4.443,1.963Z"/>
  <rect class="cls-1" x="13.46" y="13.843" width="70.29" height="50.382" rx="5.743" ry="5.743"/>
  <g>
    <path class="cls-2" d="m109.771,35.555h5.503v-8.254h2.212v23.477h-2.212v-13.294h-5.503v6.891h-10.492l.026-15.3h2.263v5.811h6.017v-5.811h2.186v6.48Zm-2.16,1.209h-6.069v5.734h6.069v-5.734Z"/>
    <path class="cls-2" d="m145.771,40.029v1.903h-22.372v-1.903h22.372Zm-3.163,10.388h-15.557v-6.531h2.211v4.603h13.346v1.929Zm-15.48-12.368v-10.106h14.734v1.903h-12.523v2.289h12.317v1.8h-12.317v2.263h12.883v1.851h-15.094Z"/>
    <path class="cls-2" d="m162.228,42.395v-1.877h21.857v1.877h-9.566v8.254h-2.263v-8.254h-10.028Zm3.883-5.349v-9.18h2.263v7.277h12.934v1.903h-15.197Z"/>
    <path class="cls-2" d="m210.056,38.178v1.8h-22.372v-1.8h22.372Zm-18.874,12.6v-5.426h13.191v-1.929h-13.191v-1.8h15.377v5.426h-13.191v1.929h13.809v1.8h-15.994Zm.103-22.911h14.991v5.246h-12.78v1.8h13.346v1.723h-15.557v-5.169h12.806v-1.774h-12.806v-1.826Z"/>
    <path class="cls-2" d="m232.556,41.958v1.851c-.411.138-.896.249-1.453.334-.557.086-1.136.129-1.736.129h-2.185v-14.889h4.963v1.877h-2.751v11.083h.643c.531,0,1.011-.039,1.44-.116.428-.077.789-.167,1.08-.27Zm6.583-.103v1.826c-.394.172-.926.313-1.594.424-.668.112-1.371.167-2.109.167h-2.185v-14.889h4.86v1.877h-2.726v11.109h.591c.651,0,1.264-.055,1.839-.167.574-.111,1.016-.227,1.324-.347Zm7.431,8.923h-2.134v-12.934h-2.34v12.343h-2.083v-22.628h2.083v8.383h2.34v-8.64h2.134v23.477Z"/>
  </g>
  <path class="cls-2" d="m38.491,29.512l5.04,17.434h-2.314l-1.286-4.68h-5.452l-1.286,4.68h-2.263l4.937-17.434h2.623Zm-1.286,2.057l-.206,1.054-2.031,7.869h4.474l-2.006-7.869-.231-1.054Z"/>
  <path class="cls-2" d="m62.3,43.54l-6.78-6.353c-.801-.75-.27-2.093.827-2.093h13.56c1.097,0,1.628,1.343.827,2.093l-6.78,6.353c-.465.436-1.189.436-1.655,0Z"/>
</svg>