<?xml version="1.0" encoding="UTF-8"?>
<svg id="_레이어_2" data-name="레이어 2" xmlns="http://www.w3.org/2000/svg" viewBox="0 0 443.89 280.12">
  <defs>
    <style>
      .cls-1 {
        font-size: 26px;
      }

      .cls-1, .cls-2, .cls-3, .cls-4 {
        fill: #fff;
      }

      .cls-1, .cls-3, .cls-5 {
        font-family: D2Coding, D2Coding;
      }

      .cls-6 {
        fill: #d400d4;
        stroke: #9f009f;
      }

      .cls-6, .cls-7, .cls-4, .cls-8 {
        stroke-miterlimit: 10;
        stroke-width: 1.5px;
      }

      .cls-2, .cls-9, .cls-10 {
        stroke-width: 0px;
      }

      .cls-3 {
        font-size: 26.581px;
      }

      .cls-7 {
        fill: #1e90ff;
        stroke: #176cbf;
      }

      .cls-5 {
        fill: #575e75;
        font-size: 23px;
      }

      .cls-9 {
        fill: #c91539;
      }

      .cls-10 {
        fill: #c203c2;
      }

      .cls-4 {
        stroke: #bfbfbf;
      }

      .cls-8 {
        fill: #dc143c;
        stroke: #a50f2d;
      }
    </style>
  </defs>
  <g>
    <path class="cls-6" d="m84.158,241.545h-21.05c-1.723,0-3.364-.74-4.505-2.031l-8.586-9.72c-1.141-1.292-2.781-2.031-4.505-2.031h-13.331c-3.32,0-6.011-2.691-6.011-6.011V83.176c0-3.32,2.691-6.011,6.011-6.011h13.331c1.723,0,3.364.74,4.505,2.031l8.586,9.72c1.141,1.292,2.781,2.031,4.505,2.031h21.05c1.691,0,3.304-.712,4.443-1.963l8.981-9.857c1.139-1.25,2.752-1.963,4.443-1.963h193.47c3.32,0,6.011-2.691,6.011-6.011V6.761c0-3.32-2.691-6.011-6.011-6.011H6.761C3.441.75.75,3.441.75,6.761v266.598c0,3.32,2.691,6.011,6.011,6.011h288.734c3.32,0,6.011-2.691,6.011-6.011v-39.586c0-3.32-2.691-6.011-6.011-6.011H102.025c-1.691,0-3.304.712-4.443,1.963l-8.981,9.857c-1.139,1.25-2.752,1.963-4.443,1.963Z"/>
    <g>
      <text class="cls-1" transform="translate(164.071 49.455)"><tspan x="0" y="0">감지될 때</tspan></text>
      <g>
        <rect class="cls-6" x="13.289" y="13.386" width="132.68" height="50.839" rx="6.097" ry="6.097"/>
        <text class="cls-1" transform="translate(25.805 46.933)"><tspan x="0" y="0">흔들림</tspan></text>
        <g>
          <path class="cls-2" d="m121.892,44.897c-.437,0-.852-.165-1.169-.463l-6.78-6.353c-.516-.482-.681-1.219-.421-1.876.26-.657.884-1.082,1.59-1.082h13.561c.706,0,1.33.425,1.59,1.082.26.657.095,1.394-.421,1.876l-6.78,6.353c-.317.298-.732.463-1.169.463Z"/>
          <path class="cls-10" d="m128.672,35.623c1.097,0,1.628,1.343.827,2.093l-6.78,6.353c-.233.218-.53.327-.827.327s-.595-.109-.827-.327l-6.78-6.353c-.801-.75-.27-2.093.827-2.093h13.56m0-1h-13.56c-.913,0-1.72.549-2.055,1.397-.336.849-.122,1.801.544,2.425l6.78,6.353c.411.385.948.597,1.511.597s1.1-.212,1.511-.597l6.78-6.353c.666-.624.88-1.576.544-2.425-.335-.849-1.142-1.397-2.055-1.397h0Z"/>
        </g>
      </g>
    </g>
  </g>
  <g>
    <g>
      <g>
        <path class="cls-8" d="m102.152,77.337c-1.691,0-3.304.712-4.443,1.962l-8.981,9.857c-1.139,1.25-2.752,1.963-4.443,1.963h-21.051c-1.723,0-3.364-.74-4.505-2.031l-8.586-9.72c-1.141-1.292-2.781-2.031-4.505-2.031h-13.331c-3.32,0-6.011,2.691-6.011,6.011v63.097c0,3.32,2.691,6.011,6.011,6.011h13.331c1.723,0,3.364.74,4.505,2.031l8.586,9.72c1.141,1.292,2.781,2.031,4.505,2.031h21.051c1.691,0,3.304-.712,4.443-1.963l8.981-9.857c1.139-1.25,2.752-1.962,4.443-1.962h335.277c3.154,0,5.711-2.557,5.711-5.711v-63.697c0-3.154-2.557-5.711-5.711-5.711H102.152Z"/>
        <text class="cls-3" transform="translate(373.525 122.507)"><tspan x="0" y="0">증가</tspan></text>
        <text class="cls-3" transform="translate(257.138 122.507)"><tspan x="0" y="0">값</tspan></text>
      </g>
      <g>
        <rect class="cls-4" x="300.51" y="90.432" width="60.126" height="48.194" rx="24.097" ry="24.097"/>
        <text class="cls-5" transform="translate(324.823 121.786)"><tspan x="0" y="0">1</tspan></text>
      </g>
    </g>
    <g>
      <rect class="cls-8" x="100.558" y="89.109" width="144.151" height="50.839" rx="6.097" ry="6.097"/>
      <text class="cls-1" transform="translate(113.074 122.656)"><tspan x="0" y="0">걸음 수</tspan></text>
      <g>
        <path class="cls-2" d="m220.632,120.62c-.437,0-.852-.164-1.17-.462l-6.779-6.354c-.516-.483-.681-1.22-.421-1.876.26-.657.884-1.082,1.59-1.082h13.56c.707,0,1.331.425,1.591,1.082s.095,1.394-.421,1.876l-6.78,6.353c-.318.298-.733.462-1.169.462Z"/>
        <path class="cls-9" d="m227.412,111.346c1.097,0,1.628,1.343.828,2.093l-6.78,6.353c-.233.218-.53.327-.827.327s-.595-.109-.828-.327l-6.78-6.353c-.801-.75-.27-2.093.827-2.093h13.56m0-1h-13.56c-.913,0-1.72.549-2.055,1.398-.336.849-.122,1.801.544,2.425l6.78,6.353c.411.385.948.597,1.511.597s1.1-.212,1.511-.598l6.78-6.353c.666-.624.88-1.576.544-2.425-.336-.849-1.142-1.398-2.055-1.398h0Z"/>
      </g>
    </g>
  </g>
  <g>
    <g>
      <path class="cls-7" d="m102.152,152.577c-1.691,0-3.304.712-4.443,1.962l-8.981,9.857c-1.139,1.25-2.752,1.963-4.443,1.963h-21.051c-1.723,0-3.364-.74-4.505-2.031l-8.586-9.72c-1.141-1.292-2.781-2.031-4.505-2.031h-13.331c-3.32,0-6.011,2.691-6.011,6.011v63.097c0,3.32,2.691,6.011,6.011,6.011h13.331c1.723,0,3.364.74,4.505,2.031l8.586,9.72c1.141,1.292,2.781,2.031,4.505,2.031h21.051c1.691,0,3.304-.712,4.443-1.963l8.981-9.857c1.139-1.25,2.752-1.962,4.443-1.962h212.04c3.154,0,5.711-2.557,5.711-5.711v-63.697c0-3.154-2.557-5.711-5.711-5.711H102.152Z"/>
      <text class="cls-3" transform="translate(38.837 197.748)"><tspan x="0" y="0">숫자 출력</tspan></text>
    </g>
    <g>
      <path class="cls-8" d="m165.258,189.769h0c0,14.93,13.004,27.032,29.044,27.032h85.937c16.041,0,29.044-12.103,29.044-27.032h0c0-14.93-13.004-27.032-29.044-27.032h-85.937c-16.041,0-29.044,12.103-29.044,27.032Z"/>
      <g>
        <text class="cls-1" transform="translate(178.705 197.089)"><tspan x="0" y="0">걸음 수</tspan></text>
        <g>
          <path class="cls-2" d="m286.263,194.656c-.437,0-.852-.164-1.17-.462l-6.779-6.354c-.516-.482-.681-1.219-.421-1.876.259-.657.884-1.082,1.59-1.082h13.56c.707,0,1.331.425,1.591,1.082.26.657.095,1.393-.421,1.875l-6.78,6.354c-.317.298-.732.462-1.169.462Z"/>
          <path class="cls-9" d="m293.043,185.383c1.097,0,1.628,1.343.827,2.093l-6.78,6.353c-.233.218-.53.327-.828.327s-.595-.109-.827-.327l-6.78-6.353c-.801-.75-.27-2.093.828-2.093h13.56m0-1h-13.56c-.913,0-1.72.549-2.055,1.398-.336.849-.122,1.801.544,2.425l6.78,6.353c.411.385.948.597,1.511.597s1.1-.212,1.511-.597l6.78-6.353c.666-.624.88-1.576.544-2.425-.336-.849-1.142-1.398-2.055-1.398h0Z"/>
        </g>
      </g>
    </g>
  </g>
</svg>