<?xml version="1.0" encoding="UTF-8"?>
<svg id="_레이어_1" data-name="레이어 1" xmlns="http://www.w3.org/2000/svg" viewBox="0 0 697.201 292.381">
  <defs>
    <style>
      .cls-1, .cls-2, .cls-3, .cls-4, .cls-5, .cls-6, .cls-7, .cls-8, .cls-9, .cls-10 {
        stroke-width: 0px;
      }

      .cls-1, .cls-11, .cls-12 {
        fill: #fefefe;
      }

      .cls-2 {
        fill: #00b400;
      }

      .cls-13 {
        fill: #dc47d7;
        stroke: #b719b2;
      }

      .cls-13, .cls-14 {
        stroke-miterlimit: 10;
        stroke-width: 2px;
      }

      .cls-3 {
        fill: #fefdfe;
      }

      .cls-14 {
        fill: #00b300;
        stroke: #009400;
      }

      .cls-11 {
        font-size: 26px;
      }

      .cls-11, .cls-12, .cls-15 {
        font-family: Pretendard-Bold-KSCpc-EUC-H, Pretendard;
        font-weight: 700;
      }

      .cls-4 {
        fill: #b719b2;
      }

      .cls-5 {
        fill: #fff;
      }

      .cls-12, .cls-15 {
        font-size: 22px;
      }

      .cls-6 {
        fill: #f577f1;
      }

      .cls-7 {
        fill: #fedd81;
      }

      .cls-8 {
        fill: #f677f2;
      }

      .cls-9 {
        fill: #fe9b00;
      }

      .cls-10 {
        fill: #f2f2f2;
      }
    </style>
  </defs>
  <g>
    <g>
      <g>
        <g>
          <g>
            <path class="cls-14" d="m312.09,33.954c-2.293-12.79-13.66-22.1-26.741-22.14-81.918-.248-140.558-.502-222.476-.713-2.727-.007-4.859-.438-7.168-2.399C48.54,2.617,39.547.119,30.1,1.274,20.381,2.464,12.681,7.161,7.067,15.04,2.193,21.879.212,29.582,1.283,38.024c1.177,9.281,5.524,16.675,12.825,22.461,2.333,1.849,7.532,4.568,7.532,4.568,0,0,1.264.606,1.787,1.095,3.349,3.13,8.218,7.251,11.452,10.286l10.508-9.208c1.278-1.315,4.278-2.055,6.113-2.049,21.626.072,157.068.533,232.724.759.957.003,1.904-.04,2.857-.128l1.837-.17c15.315-1.89,25.945-16.233,23.174-31.684Z"/>
            <text/>
          </g>
          <g>
            <path class="cls-1" d="m34.68,61.097c-14.926-.049-27.038-12.211-27-27.111.038-14.888,12.218-26.999,27.15-26.999h.126c14.901.066,26.976,12.265,26.917,27.192-.058,14.843-12.216,26.918-27.103,26.918h-.091Z"/>
            <path class="cls-10" d="m34.831,7.986h.12c14.35.064,25.978,11.813,25.922,26.189-.056,14.293-11.765,25.922-26.102,25.922h-.087c-14.375-.047-26.04-11.759-26.003-26.109.037-14.337,11.768-26.001,26.151-26.002m0-2c-15.526,0-28.111,12.502-28.151,27.997-.04,15.453,12.517,28.063,27.997,28.114.032,0,.062,0,.094,0,15.444,0,28.042-12.503,28.102-27.914.061-15.477-12.463-28.128-27.913-28.197-.044,0-.085,0-.129,0h0Z"/>
          </g>
        </g>
        <g>
          <rect class="cls-2" x="20.433" y="29.401" width="27.677" height="17.677" rx="1.839" ry="1.839"/>
          <g>
            <g>
              <path class="cls-5" d="m20.477,29.259c-.171,0-.328-.11-.392-.275l2.244-6.231,3.779-1.02-2.365,6.66-3.159.852c-.035.01-.071.015-.107.015Z"/>
              <path class="cls-2" d="m25.91,21.916l-2.263,6.374-3.096.835c-.024.007-.049.01-.074.01-.094,0-.182-.048-.237-.125l2.185-6.154,3.485-.94m.395-.365l-4.072,1.098-2.265,6.38c.082.214.286.356.509.356.046,0,.092-.006.139-.019l3.223-.869,2.466-6.947h0Z"/>
            </g>
            <g>
              <polygon class="cls-2" points="26.401 21.654 31.58 20.257 29.216 26.917 24.037 28.314 26.401 21.654"/>
              <path class="cls-2" d="m31.383,20.44l-2.263,6.374-4.886,1.318,2.263-6.374,4.886-1.318m.395-.365l-5.472,1.476-2.466,6.947,5.473-1.476,2.466-6.947h0Z"/>
            </g>
            <g>
              <polygon class="cls-5" points="31.874 20.178 35.684 19.15 33.319 25.81 29.509 26.838 31.874 20.178"/>
              <path class="cls-2" d="m35.486,19.333l-2.263,6.374-3.517.948,2.263-6.374,3.517-.948m.395-.365l-4.104,1.107-2.466,6.947,4.103-1.107,2.466-6.947h0Z"/>
            </g>
            <g>
              <path class="cls-2" d="m18.771,24.151c-.029-.108-.014-.223.042-.321s.147-.169.256-.197l2.967-.801-2.057,5.795-1.208-4.476Z"/>
              <path class="cls-2" d="m21.839,23.014l-1.844,5.193-1.103-4.089c-.043-.159.052-.323.21-.366l2.736-.738m.395-.365l-3.197.862c-.291.079-.465.381-.387.672l1.294,4.796c.005.018.018.031.025.049l2.265-6.38h0Z"/>
            </g>
            <g>
              <path class="cls-2" d="m45.345,17.214l1.235,4.58c.061.226-.073.459-.299.52l-3.038.819,2.101-5.919Z"/>
              <path class="cls-2" d="m45.329,17.634l1.131,4.193c.021.076.01.157-.03.226-.04.07-.104.119-.18.14l-2.808.757,1.887-5.316m.016-.793l-2.299,6.475,3.268-.881c.291-.079.465-.381.386-.672l-1.293-4.796c-.013-.047-.039-.084-.062-.125h0Z"/>
            </g>
            <g>
              <polygon class="cls-2" points="35.977 19.071 41.212 17.659 38.847 24.32 33.612 25.731 35.977 19.071"/>
              <path class="cls-2" d="m41.014,17.842l-2.263,6.374-4.941,1.333,2.263-6.374,4.941-1.333m.395-.365l-5.528,1.491-2.466,6.947,5.528-1.491,2.466-6.946h0Z"/>
            </g>
            <g>
              <path class="cls-5" d="m41.505,17.58l3.262-.879c.035-.01.07-.015.105-.015.129,0,.253.064.334.172l-2.256,6.354-3.81,1.028,2.365-6.661Z"/>
              <path class="cls-2" d="m44.872,16.811c.07,0,.138.028.192.076l-2.209,6.222-3.517.948,2.263-6.374,3.199-.863c.024-.007.048-.01.072-.01m0-.25c-.045,0-.091.006-.137.018l-3.326.897-2.466,6.946,4.103-1.107,2.299-6.475c-.098-.17-.278-.281-.473-.281h0Z"/>
            </g>
          </g>
          <rect class="cls-5" x="23.839" y="33.336" width="10.026" height="2" rx="1" ry="1"/>
          <rect class="cls-5" x="23.839" y="37.317" width="18.07" height="2" rx="1" ry="1"/>
          <rect class="cls-5" x="23.839" y="41.298" width="20.207" height="2" rx="1" ry="1"/>
        </g>
      </g>
      <text class="cls-11" transform="translate(74.781 45.541) rotate(.173)"><tspan x="0" y="0">장면이 시작되었을 때</tspan></text>
    </g>
    <g>
      <g>
        <path class="cls-13" d="m333.261,172.277H47.422l-12.543,11.141-12.024-10.593c-.238-.21-.622-.047-.622.265v52.811c0,.098.042.191.115.259l12.53,11.113,12.543-11.219h285.838c15.329,0,27.871-12.1,27.871-26.888h0c0-14.789-12.542-26.888-27.871-26.888Z"/>
        <path class="cls-4" d="m308.975,198.945c.085-12.114,9.79-22.01,22.342-21.937,12.159.071,22.178,9.883,21.961,22.471-.203,11.764-9.754,21.773-22.498,21.598-12.042-.166-21.794-9.762-21.805-22.132Z"/>
        <text class="cls-11" transform="translate(50.627 207.25)"><tspan x="0" y="0">변수</tspan></text>
        <text class="cls-11" transform="translate(229.487 207.25)"><tspan x="0" y="0">보이기</tspan></text>
        <path class="cls-8" d="m330.935,189c3.973.048,6.605,2.132,7.169,5.536.236,1.421-.185,2.643-1.127,3.671-.864.943-1.773,1.854-2.731,2.702-1.025.909-1.869,1.892-2.145,3.28-.232,1.167-.936,1.732-2.155,1.54-1.232-.194-1.334-1.074-1.385-2.104-.103-2.069,1.042-3.441,2.431-4.709.657-.599,1.396-1.122,1.982-1.782,1.412-1.588,1.315-3.285-.17-4.344-1.397-.997-3.888-.624-4.788.786-.444.696-.76,1.483-1.061,2.257-.461,1.186-1.382,1.378-2.45,1.155-1.088-.227-1.328-1.054-1.254-2.043.193-2.571,1.812-4.116,3.935-5.163,1.186-.585,2.528-.865,3.748-.783Z"/>
        <path class="cls-6" d="m330.452,211.712c-1.32,0-2.19-.878-2.179-2.197.011-1.354.827-2.157,2.191-2.156,1.361,0,2.177.81,2.183,2.167.006,1.3-.885,2.187-2.195,2.186Z"/>
      </g>
      <g>
        <path class="cls-4" d="m205.953,179.723l-91.007-.061c-3.657-.014-6.893,2.767-6.868,6.912.052,8.797.052,17.595,0,26.392-.024,4.145,3.212,6.915,6.869,6.91,56.653-.084,34.354-.059,91.007-.059,4.46,0,6.868-2.426,6.87-6.935.004-8.742.004-17.483,0-26.225-.002-4.508-2.41-6.934-6.871-6.934Z"/>
        <path class="cls-3" d="m195.812,194.514c1.503,0,3.006-.003,4.509.001.951.003,1.744.288,2.197,1.211.47.958.064,1.702-.534,2.425-1.451,1.754-2.859,3.543-4.343,5.268-1.318,1.533-2.389,1.523-3.72-.029-1.519-1.771-2.972-3.598-4.452-5.402-.521-.635-.812-1.313-.452-2.145.374-.865,1.045-1.293,1.954-1.309,1.614-.027,3.228-.008,4.842-.008v-.013Z"/>
        <text class="cls-12" transform="translate(118.458 206.896)"><tspan x="0" y="0">총 인원</tspan></text>
      </g>
    </g>
    <g>
      <path class="cls-13" d="m45.386,67.101l-10.508,9.333-12.023-10.594c-.242-.213-.622-.041-.622.281v52.795c0,.098.042.191.115.259l12.53,11.113,12.543-11.219h621.891c14.85,0,26.888-12.038,26.888-26.888h0c0-14.85-12.038-26.888-26.888-26.888H50.145c-1.754,0-3.447.643-4.759,1.808Z"/>
      <path class="cls-4" d="m644.873,91.686c.085-12.114,9.79-22.01,22.342-21.937,12.159.071,22.178,9.883,21.961,22.471-.203,11.764-9.754,21.773-22.498,21.598-12.042-.166-21.794-9.762-21.805-22.132Z"/>
      <text class="cls-11" transform="translate(371.846 100.85)"><tspan x="0" y="0">을(를) 묻고 대답 기다리기</tspan></text>
      <path class="cls-8" d="m666.833,81.741c3.973.048,6.605,2.132,7.169,5.536.236,1.421-.185,2.643-1.127,3.671-.864.943-1.773,1.854-2.731,2.702-1.025.909-1.869,1.892-2.145,3.28-.232,1.167-.936,1.732-2.155,1.54-1.232-.194-1.334-1.074-1.385-2.104-.103-2.069,1.042-3.441,2.431-4.709.657-.599,1.396-1.122,1.982-1.782,1.412-1.588,1.315-3.285-.17-4.344-1.397-.997-3.888-.624-4.788.786-.444.696-.76,1.483-1.061,2.257-.461,1.186-1.382,1.378-2.45,1.155-1.088-.227-1.328-1.054-1.254-2.043.193-2.571,1.812-4.116,3.935-5.163,1.186-.585,2.528-.865,3.748-.783Z"/>
      <path class="cls-6" d="m666.35,104.454c-1.32,0-2.19-.878-2.179-2.197.011-1.354.827-2.157,2.191-2.156,1.361,0,2.177.81,2.183,2.167.006,1.3-.885,2.187-2.195,2.186Z"/>
      <g>
        <g>
          <path class="cls-7" d="m64.941,112.406c-10.975,0-19.903-8.929-19.903-19.903s8.928-19.903,19.903-19.903h273.613c10.975,0,19.903,8.929,19.903,19.903s-8.929,19.903-19.903,19.903H64.941Z"/>
          <path class="cls-9" d="m338.554,73.6c10.423,0,18.903,8.48,18.903,18.903s-8.48,18.903-18.903,18.903H64.941c-10.423,0-18.903-8.48-18.903-18.903s8.48-18.903,18.903-18.903h273.613m0-2H64.941c-11.497,0-20.903,9.406-20.903,20.903s9.406,20.903,20.903,20.903h273.613c11.497,0,20.903-9.406,20.903-20.903s-9.406-20.903-20.903-20.903h0Z"/>
        </g>
        <text class="cls-15" transform="translate(59.477 99.565)"><tspan x="0" y="0">우리 반 학생은 모두 몇 명인가요?</tspan></text>
      </g>
    </g>
    <g>
      <g>
        <path class="cls-13" d="m496.363,118.919H47.422l-12.543,11.141-12.024-10.594c-.242-.213-.622-.041-.622.281v52.795c0,.098.042.192.115.259l12.53,11.113,12.543-11.219h448.94c14.85,0,26.888-12.038,26.888-26.888h0c0-14.85-12.038-26.888-26.888-26.888Z"/>
        <path class="cls-4" d="m471.994,145.312c.085-12.114,9.79-22.01,22.342-21.937,12.159.071,22.178,9.883,21.961,22.471-.203,11.764-9.754,21.773-22.498,21.598-12.042-.166-21.794-9.762-21.805-22.132Z"/>
        <text class="cls-11" transform="translate(319.24 153.891)"><tspan x="0" y="0">(으)로 정하기</tspan></text>
        <text class="cls-11" transform="translate(174.552 153.891)"><tspan x="0" y="0">을(를)</tspan></text>
        <path class="cls-8" d="m493.954,135.367c3.973.048,6.605,2.132,7.169,5.536.236,1.421-.185,2.643-1.127,3.671-.864.943-1.773,1.854-2.731,2.702-1.025.909-1.869,1.892-2.145,3.28-.232,1.167-.936,1.732-2.155,1.54-1.232-.194-1.334-1.074-1.385-2.104-.103-2.069,1.042-3.441,2.431-4.709.657-.599,1.396-1.122,1.982-1.782,1.412-1.588,1.315-3.285-.17-4.344-1.397-.997-3.888-.624-4.788.786-.444.696-.76,1.483-1.061,2.257-.461,1.186-1.382,1.378-2.45,1.155-1.088-.227-1.328-1.054-1.254-2.043.193-2.571,1.812-4.116,3.935-5.163,1.186-.585,2.528-.865,3.748-.783Z"/>
        <path class="cls-6" d="m493.471,158.08c-1.32,0-2.19-.878-2.179-2.197.011-1.354.827-2.157,2.191-2.156,1.361,0,2.177.81,2.183,2.167.006,1.3-.885,2.187-2.195,2.186Z"/>
      </g>
      <g>
        <path class="cls-4" d="m151.579,126.365l-91.007-.061c-3.657-.014-6.893,2.767-6.868,6.912.052,8.797.052,17.595,0,26.392-.024,4.145,3.212,6.915,6.869,6.91,56.653-.084,34.354-.059,91.007-.059,4.46,0,6.868-2.426,6.87-6.935.004-8.742.004-17.483,0-26.225-.002-4.508-2.41-6.934-6.871-6.934Z"/>
        <path class="cls-3" d="m141.437,141.156c1.503,0,3.006-.003,4.509.001.951.003,1.744.288,2.197,1.211.47.958.064,1.702-.534,2.425-1.451,1.754-2.859,3.543-4.343,5.268-1.318,1.533-2.389,1.523-3.72-.029-1.519-1.771-2.972-3.598-4.452-5.402-.521-.635-.812-1.313-.452-2.145.374-.865,1.045-1.293,1.954-1.309,1.614-.027,3.228-.008,4.842-.008v-.013Z"/>
        <text class="cls-12" transform="translate(64.083 153.538)"><tspan x="0" y="0">총 인원</tspan></text>
      </g>
      <g>
        <g>
          <path class="cls-7" d="m272.678,165.646c-10.975,0-19.903-8.929-19.903-19.903s8.929-19.903,19.903-19.903h10.968c10.975,0,19.903,8.929,19.903,19.903s-8.929,19.903-19.903,19.903h-10.968Z"/>
          <path class="cls-9" d="m283.646,126.84c10.423,0,18.903,8.48,18.903,18.903s-8.48,18.903-18.903,18.903h-10.968c-10.423,0-18.903-8.48-18.903-18.903s8.48-18.903,18.903-18.903h10.968m0-2h-10.968c-11.497,0-20.903,9.406-20.903,20.903s9.406,20.903,20.903,20.903h10.968c11.497,0,20.903-9.406,20.903-20.903s-9.406-20.903-20.903-20.903h0Z"/>
        </g>
        <text class="cls-15" transform="translate(265.425 153.097)"><tspan x="0" y="0">10</tspan></text>
      </g>
    </g>
    <g>
      <g>
        <path class="cls-13" d="m372.599,226.047H47.422l-12.543,11.141-12.024-10.593c-.238-.21-.622-.047-.622.265v52.811c0,.098.042.191.115.259l12.53,11.113,12.543-11.219h325.176c15.329,0,27.871-12.1,27.871-26.888h0c0-14.789-12.542-26.888-27.871-26.888Z"/>
        <path class="cls-4" d="m348.313,252.989c.085-12.114,9.79-22.01,22.342-21.937,12.159.071,22.178,9.883,21.961,22.471-.203,11.764-9.754,21.773-22.498,21.598-12.042-.166-21.794-9.762-21.805-22.132Z"/>
        <text class="cls-11" transform="translate(50.627 261.02)"><tspan x="0" y="0">변수</tspan></text>
        <text class="cls-11" transform="translate(268.825 261.02)"><tspan x="0" y="0">보이기</tspan></text>
        <path class="cls-8" d="m370.273,243.044c3.973.048,6.605,2.132,7.169,5.536.236,1.421-.185,2.643-1.127,3.671-.864.943-1.773,1.854-2.731,2.702-1.025.909-1.869,1.892-2.145,3.28-.232,1.167-.936,1.732-2.155,1.54-1.232-.194-1.334-1.074-1.385-2.104-.103-2.069,1.042-3.441,2.431-4.709.657-.599,1.396-1.122,1.982-1.782,1.412-1.588,1.315-3.285-.17-4.344-1.397-.997-3.888-.624-4.788.786-.444.696-.76,1.483-1.061,2.257-.461,1.186-1.382,1.378-2.45,1.155-1.088-.227-1.328-1.054-1.254-2.043.193-2.571,1.812-4.116,3.935-5.163,1.186-.585,2.528-.865,3.748-.783Z"/>
        <path class="cls-6" d="m369.79,265.756c-1.32,0-2.19-.878-2.179-2.197.011-1.354.827-2.157,2.191-2.156,1.361,0,2.177.81,2.183,2.167.006,1.3-.885,2.187-2.195,2.186Z"/>
      </g>
      <g>
        <path class="cls-4" d="m217.209,233.493c28.327,0-.634,0,27.692,0,4.461,0,6.868,2.426,6.871,6.934.004,8.742.004,17.483,0,26.225-.002,4.509-2.41,6.935-6.87,6.935-56.653,0-73.302-.025-129.955.059-3.657.005-6.893-2.765-6.869-6.91.052-8.797.052-17.595,0-26.392-.025-4.145,3.211-6.926,6.868-6.912,28.326.11,73.936.061,102.262.061Z"/>
        <path class="cls-3" d="m234.759,248.284c1.503,0,3.006-.003,4.509.001.951.003,1.744.288,2.197,1.211.47.958.064,1.702-.534,2.425-1.451,1.754-2.859,3.543-4.343,5.268-1.318,1.533-2.389,1.523-3.72-.029-1.519-1.771-2.972-3.598-4.452-5.402-.521-.635-.812-1.313-.452-2.145.374-.865,1.045-1.293,1.954-1.309,1.614-.027,3.228-.008,4.842-.008v-.013Z"/>
        <text class="cls-12" transform="translate(118.458 260.666)"><tspan x="0" y="0">투표한 사람</tspan></text>
      </g>
    </g>
  </g>
  <rect class="cls-5" x="251.775" y="124.84" width="52.774" height="41.806" rx="20.903" ry="20.903"/>
</svg>