<?xml version="1.0" encoding="UTF-8"?>
<svg id="_레이어_1" data-name="레이어 1" xmlns="http://www.w3.org/2000/svg" viewBox="0 0 616.072 187.981">
  <defs>
    <style>
      .cls-1, .cls-2, .cls-3, .cls-4, .cls-5, .cls-6, .cls-7, .cls-8, .cls-9, .cls-10 {
        stroke-width: 0px;
      }

      .cls-1, .cls-11, .cls-12 {
        fill: #fefefe;
      }

      .cls-13 {
        stroke: #009400;
        stroke-miterlimit: 10;
      }

      .cls-13, .cls-14 {
        stroke-width: 2px;
      }

      .cls-13, .cls-10 {
        fill: #00b300;
      }

      .cls-2 {
        fill: #f5f5f5;
      }

      .cls-11, .cls-15, .cls-12 {
        font-family: Pretendard-Bold-KSCpc-EUC-H, Pretendard;
        font-weight: 700;
      }

      .cls-11, .cls-12 {
        font-size: 26px;
      }

      .cls-3 {
        fill: #b719b2;
      }

      .cls-4 {
        fill: #fff;
      }

      .cls-14 {
        fill: #dd47d8;
        stroke: #b819b3;
        stroke-linecap: round;
        stroke-linejoin: round;
      }

      .cls-5 {
        fill: #fafdfa;
      }

      .cls-6 {
        fill: #f577f1;
      }

      .cls-7 {
        fill: #fedd81;
      }

      .cls-8 {
        fill: #f677f2;
      }

      .cls-15 {
        font-size: 22px;
      }

      .cls-9 {
        fill: #fe9b00;
      }

      .cls-16 {
        letter-spacing: -.01em;
      }

      .cls-12 {
        letter-spacing: -.01em;
      }

      .cls-17 {
        letter-spacing: -.042em;
      }
    </style>
  </defs>
  <rect class="cls-4" x="52.159" y="131.319" width="69.488" height="41.806" rx="20.903" ry="20.903"/>
  <g>
    <g>
      <path class="cls-13" d="m334.856,33.954c-2.293-12.791-13.66-22.101-26.741-22.14-81.918-.248-163.835-.501-245.753-.712-2.727-.007-4.859-.438-7.168-2.399C48.028,2.617,39.547.119,30.1,1.274,20.381,2.463,12.681,7.161,7.067,15.04,2.193,21.879.212,29.582,1.283,38.024c1.177,9.281,5.523,16.675,12.825,22.461,2.333,1.849,6.893,4.567,6.893,4.567l11.959,10.71c.84.872,1.302.777,2.094-.032l11.135-10.678c86.873.298,175.353.627,262.226.887.891.002,1.782-.029,2.673-.045.198-.088.388-.231.594-.256,15.315-1.89,25.945-16.233,23.175-31.684Z"/>
      <path class="cls-1" d="m34.016,62.097c-15.48-.051-28.037-12.66-27.997-28.114.04-15.539,12.694-28.067,28.28-27.997,15.45.069,27.973,12.72,27.913,28.197-.06,15.443-12.708,27.964-28.196,27.914Z"/>
      <path class="cls-10" d="m22.752,33.067c.099-1.896-.183-4.236.152-6.562.711-4.937,4.657-8.567,9.628-8.799,1.609-.075,3.236-.154,4.823.234,4.693,1.146,7.831,5.11,7.914,10.093.06,3.614.045,7.23.006,10.844-.07,6.422-4.581,10.616-11.359,10.611-6.621-.005-11.083-4.255-11.16-10.647-.021-1.779-.003-3.559-.003-5.774Z"/>
      <path class="cls-5" d="m32.083,26.919c.035-.717.008-1.442.123-2.144.154-.937.826-1.465,1.736-1.493.99-.03,1.793.497,1.874,1.509.118,1.478.107,2.978-.004,4.457-.07.929-.81,1.468-1.722,1.499-.995.033-1.71-.518-1.884-1.517-.131-.754-.088-1.539-.124-2.311Z"/>
      <text class="cls-11" transform="translate(73.185 46.255) rotate(.173)"><tspan x="0" y="0">오브젝트를 클릭했을 때</tspan></text>
    </g>
    <g>
      <g>
        <g>
          <path class="cls-14" d="m587.201,64.848H46.38s0,0,0,0l-12.543,11.548s0,0,0,0l-12.023-10.98c-.238-.218-.622-.049-.622.274v54.741c0,.047.011.092.028.135h-.003l.004.004c.02.048.048.093.087.13h.056l11.328,10.345c.663.605,1.678.603,2.338-.005l10.91-10.045c.212-.195.49-.304.779-.304l540.484-.101c15.329,0,27.871-12.542,27.871-27.871h0c0-15.329-12.542-27.871-27.871-27.871Z"/>
          <g>
            <path class="cls-3" d="m608.15,92.763c.233,11.599-9.583,22.21-22.59,21.903-11.361-.268-21.522-9.45-21.508-22.104.014-12.581,10.427-22.278,22.629-21.994,11.969.279,21.786,10.209,21.47,22.194Z"/>
            <path class="cls-8" d="m586.418,82.6c1.421.066,3.283.498,4.796,1.905,2.464,2.29,2.614,5.317.342,7.812-.823.903-1.728,1.735-2.634,2.558-.847.769-1.497,1.641-1.723,2.78-.285,1.438-1.202,2.017-2.552,1.624-1.294-.377-1.297-1.572-1.154-2.621.299-2.203,1.86-3.593,3.427-4.952.334-.29.717-.537.999-.87,1.487-1.758,1.36-3.4-.321-4.537-1.47-.995-3.897-.403-4.808,1.208-.326.577-.531,1.221-.815,1.823-.524,1.11-1.42,1.65-2.58,1.204-1.144-.44-1.405-1.351-1.1-2.592.769-3.131,3.806-5.339,8.123-5.343Z"/>
            <path class="cls-6" d="m585.392,105.315c-1.271-.012-2.113-.925-2.059-2.258.054-1.311.741-2.044,2.063-2.095,1.32-.051,2.369,1,2.32,2.267-.048,1.226-1.02,2.098-2.324,2.086Z"/>
          </g>
        </g>
        <text class="cls-12" transform="translate(292.35 101.196)"><tspan x="0" y="0">을(를) 묻고 대답 기다리기</tspan></text>
      </g>
      <g>
        <g>
          <path class="cls-7" d="m70.972,111.56c-10.975,0-19.903-8.929-19.903-19.903s8.929-19.903,19.903-19.903h190.552c10.975,0,19.903,8.929,19.903,19.903s-8.929,19.903-19.903,19.903H70.972Z"/>
          <path class="cls-9" d="m261.524,72.754c10.423,0,18.903,8.48,18.903,18.903s-8.48,18.903-18.903,18.903H70.972c-10.423,0-18.903-8.48-18.903-18.903s8.48-18.903,18.903-18.903h190.552m0-2H70.972c-11.497,0-20.903,9.406-20.903,20.903h0c0,11.497,9.406,20.903,20.903,20.903h190.552c11.497,0,20.903-9.406,20.903-20.903h0c0-11.497-9.406-20.903-20.903-20.903h0Z"/>
        </g>
        <text class="cls-15" transform="translate(65.509 98.719)"><tspan class="cls-16" x="0" y="0">반티 이름을 입력하세요</tspan><tspan class="cls-17" x="197.637" y="0">.</tspan><tspan class="cls-16" x="202.928" y="0"> </tspan></text>
      </g>
    </g>
    <g>
      <g>
        <path class="cls-14" d="m488.297,120.332H46.38s0,0,0,0l-12.543,11.548s0,0,0,0l-12.023-10.98c-.238-.218-.622-.049-.622.274v54.741c0,.047.011.092.028.135h-.003l.004.004c.02.048.048.093.087.13h.056l11.328,10.345c.663.605,1.678.603,2.338-.005l10.91-10.045c.212-.195.49-.304.779-.304l441.58-.101c15.329,0,27.871-12.542,27.871-27.871h0c0-15.329-12.542-27.871-27.871-27.871Z"/>
        <g>
          <path class="cls-3" d="m509.246,148.247c.233,11.599-9.583,22.21-22.59,21.903-11.361-.268-21.522-9.45-21.508-22.104.014-12.581,10.427-22.278,22.629-21.994,11.969.279,21.786,10.209,21.47,22.194Z"/>
          <path class="cls-8" d="m487.514,138.084c1.421.066,3.283.498,4.796,1.905,2.464,2.29,2.614,5.317.342,7.812-.823.903-1.728,1.735-2.634,2.558-.847.769-1.497,1.641-1.723,2.78-.285,1.438-1.202,2.017-2.552,1.624-1.294-.377-1.297-1.572-1.154-2.621.299-2.203,1.86-3.593,3.427-4.952.334-.29.717-.537.999-.87,1.487-1.758,1.36-3.4-.321-4.537-1.47-.995-3.897-.403-4.808,1.208-.326.577-.531,1.221-.815,1.823-.524,1.11-1.42,1.65-2.58,1.204-1.144-.44-1.405-1.351-1.1-2.592.769-3.131,3.806-5.339,8.123-5.343Z"/>
          <path class="cls-6" d="m486.488,160.799c-1.271-.012-2.113-.925-2.059-2.258.054-1.311.741-2.044,2.063-2.095,1.32-.051,2.369,1,2.32,2.267-.048,1.226-1.02,2.098-2.324,2.086Z"/>
        </g>
      </g>
      <rect class="cls-2" x="50.069" y="127.076" width="64.938" height="40.968" rx="20.484" ry="20.484"/>
      <rect class="cls-1" x="207.136" y="126.237" width="249.097" height="42.839" rx="10" ry="10"/>
    </g>
    <text class="cls-11" transform="translate(127.334 156.312)"><tspan x="0" y="0">항목을</tspan></text>
  </g>
</svg>