<?xml version="1.0" encoding="UTF-8"?>
<svg id="_레이어_1" data-name="레이어 1" xmlns="http://www.w3.org/2000/svg" viewBox="0 0 553.151 497.462">
  <defs>
    <style>
      .cls-1 {
        fill: #8b19db;
      }

      .cls-1, .cls-2, .cls-3, .cls-4, .cls-5, .cls-6, .cls-7, .cls-8, .cls-9, .cls-10, .cls-11, .cls-12, .cls-13, .cls-14, .cls-15, .cls-16, .cls-17, .cls-18 {
        stroke-width: 0px;
      }

      .cls-2, .cls-19, .cls-20 {
        fill: #fefefe;
      }

      .cls-21 {
        letter-spacing: -.071em;
      }

      .cls-3 {
        fill: #fe7a22;
      }

      .cls-4 {
        fill: #b819b3;
      }

      .cls-22, .cls-20 {
        letter-spacing: -.01em;
      }

      .cls-23, .cls-19, .cls-24, .cls-20 {
        font-family: Pretendard-Bold-KSCpc-EUC-H, Pretendard;
        font-weight: 700;
      }

      .cls-23, .cls-8 {
        fill: #fff;
      }

      .cls-23, .cls-24 {
        font-size: 22px;
        letter-spacing: -.025em;
      }

      .cls-5 {
        fill: #ffb250;
      }

      .cls-25 {
        stroke: #009400;
      }

      .cls-25, .cls-26, .cls-27, .cls-28, .cls-29, .cls-30 {
        stroke-width: 2px;
      }

      .cls-25, .cls-27, .cls-30 {
        stroke-miterlimit: 10;
      }

      .cls-25, .cls-18 {
        fill: #00b300;
      }

      .cls-6 {
        fill: #fc6500;
      }

      .cls-19, .cls-20 {
        font-size: 26px;
      }

      .cls-7 {
        fill: #b719b2;
      }

      .cls-26 {
        fill: #19baea;
        stroke: #1498c0;
      }

      .cls-26, .cls-28, .cls-29 {
        stroke-linecap: round;
        stroke-linejoin: round;
      }

      .cls-9 {
        fill: #6dddfe;
      }

      .cls-10 {
        fill: #1498c0;
      }

      .cls-11, .cls-29 {
        fill: #dd47d8;
      }

      .cls-27 {
        fill: #ff9b00;
        stroke: #fc6500;
      }

      .cls-12 {
        fill: #bd65fb;
      }

      .cls-28 {
        fill: #ad3efb;
        stroke: #8b19db;
      }

      .cls-29 {
        stroke: #b819b3;
      }

      .cls-13 {
        fill: #f577f1;
      }

      .cls-14 {
        fill: #fedd81;
      }

      .cls-30 {
        fill: #de5c04;
        stroke: #a14100;
      }

      .cls-15 {
        fill: #f677f2;
      }

      .cls-16 {
        fill: #fe9b00;
      }

      .cls-17 {
        fill: #a14100;
      }
    </style>
  </defs>
  <g>
    <g>
      <g>
        <path class="cls-25" d="m378.366,33.954c-2.293-12.79-13.661-22.1-26.741-22.14-81.917-.248-207.345-.502-289.263-.713-2.727-.007-4.859-.438-7.168-2.398C48.028,2.617,39.547.119,30.1,1.274,20.381,2.464,12.681,7.161,7.067,15.04,2.193,21.879.212,29.582,1.283,38.024c1.177,9.281,5.523,16.675,12.825,22.461,2.333,1.849,7.532,4.568,7.532,4.568,0,0,1.282.588,1.787,1.095,3.187,3.195,7.25,6.364,10.38,9.614.84.872,1.302.777,2.094-.031l11.007-10.152c.317-.292.728-.454,1.159-.452,86.107.293,215.637.549,301.549.806,1.539.005,3.069-.064,4.601-.205l.974-.09c15.315-1.89,25.945-16.233,23.175-31.685Z"/>
        <path class="cls-2" d="m34.016,62.097c-15.48-.051-28.037-12.66-27.997-28.114.04-15.539,12.694-28.067,28.28-27.997,15.45.069,27.973,12.72,27.913,28.197-.06,15.443-12.708,27.964-28.196,27.914Z"/>
        <text class="cls-19" transform="translate(73.185 46.25) rotate(.173)"><tspan x="0" y="0">시작하기 버튼을 클릭했을 때</tspan></text>
      </g>
      <path class="cls-18" d="m27.49,33.709c0-2.979-.003-5.959.002-8.938.001-.871-.04-1.782.9-2.272.89-.464,1.669-.113,2.434.376,4.656,2.978,9.324,5.939,13.977,8.921,2.063,1.322,2.073,2.615.042,3.913-4.656,2.976-9.325,5.932-13.976,8.916-.771.494-1.55.863-2.428.428-.92-.456-.963-1.342-.958-2.244.016-3.033.006-6.067.006-9.101Z"/>
    </g>
    <g>
      <g>
        <g>
          <g>
            <path class="cls-28" d="m436.724,65.72H47.4l-12.543,11.548h0l-12.023-10.98c-.238-.218-.622-.049-.622.274v54.841l.171.168,11.328,10.345c.663.605,1.678.603,2.338-.004l10.91-10.045c.212-.195.49-.304.779-.304l388.987-.101c15.329,0,27.871-12.542,27.871-27.871s-12.542-27.871-27.871-27.871Z"/>
            <g>
              <path class="cls-1" d="m413.575,93.411c.085-12.114,9.79-22.01,22.342-21.937,12.159.071,22.178,9.883,21.961,22.471-.203,11.764-9.754,21.773-22.498,21.598-12.042-.166-21.794-9.762-21.805-22.132Z"/>
              <g>
                <path class="cls-12" d="m447.682,87.941l-5.089-3.84c-.502-.379-1.222-.021-1.222.609v1.614l-8.892-.884c-.449-.045-.838.308-.838.759v4.703c0,.451.389.803.838.759l8.892-.884v1.614c0,.629.719.988,1.222.609l5.089-3.84c.404-.305.404-.912,0-1.217Z"/>
                <path class="cls-12" d="m423.773,99.077l5.089,3.84c.502.379,1.222.021,1.222-.609v-1.614l8.892.884c.449.045.838-.308.838-.759v-4.703c0-.451-.389-.803-.838-.759l-8.892.884v-1.614c0-.629-.719-.988-1.222-.609l-5.089,3.84c-.404.305-.404.912,0,1.217Z"/>
              </g>
            </g>
          </g>
          <text class="cls-19" transform="translate(51.255 102.07)"><tspan class="cls-22" x="0" y="0" xml:space="preserve">X:           </tspan><tspan class="cls-21" x="87.696" y="0">Y</tspan><tspan class="cls-22" x="103.94" y="0">:</tspan></text>
          <text class="cls-20" transform="translate(240.057 102.07)"><tspan x="0" y="0">위치로 이동하기</tspan></text>
        </g>
        <g>
          <path class="cls-14" d="m192.64,113.393c-10.975,0-19.903-8.929-19.903-19.903s8.929-19.903,19.903-19.903h9.414c10.975,0,19.903,8.929,19.903,19.903s-8.929,19.903-19.903,19.903h-9.414Z"/>
          <path class="cls-16" d="m202.054,74.587c10.423,0,18.903,8.48,18.903,18.903s-8.48,18.903-18.903,18.903h-9.414c-10.423,0-18.903-8.48-18.903-18.903s8.48-18.903,18.903-18.903h9.414m0-2h-9.414c-11.497,0-20.903,9.406-20.903,20.903h0c0,11.497,9.406,20.903,20.903,20.903h9.414c11.497,0,20.903-9.406,20.903-20.903h0c0-11.497-9.406-20.903-20.903-20.903h0Z"/>
        </g>
        <text class="cls-24" transform="translate(184.047 100.551)"><tspan x="0" y="0">50</tspan></text>
        <g>
          <circle class="cls-14" cx="105.666" cy="93.49" r="19.903"/>
          <path class="cls-16" d="m105.665,74.587c10.423,0,18.903,8.48,18.903,18.903s-8.48,18.903-18.903,18.903-18.903-8.48-18.903-18.903,8.48-18.903,18.903-18.903m0-2c-11.497,0-20.903,9.406-20.903,20.903s9.406,20.903,20.903,20.903,20.903-9.406,20.903-20.903-9.406-20.903-20.903-20.903h0Z"/>
        </g>
        <text class="cls-24" transform="translate(98.008 100.551)"><tspan x="0" y="0">0</tspan></text>
      </g>
      <g>
        <g>
          <g>
            <path class="cls-27" d="m234.295,121.596H47.4l-12.543,11.548h0l-12.023-10.98c-.238-.218-.622-.049-.622.274v54.841l.171.168,11.328,10.345c.663.605,1.678.603,2.338-.004l10.91-10.045c.212-.195.49-.304.779-.304l186.558-.101c15.329,0,27.871-12.542,27.871-27.871s-12.542-27.871-27.871-27.871Z"/>
            <path class="cls-6" d="m255.244,149.511c.233,11.599-9.583,22.21-22.59,21.903-11.361-.268-21.522-9.45-21.508-22.104.014-12.581,10.427-22.278,22.629-21.994,11.969.279,21.786,10.209,21.47,22.194Z"/>
            <g>
              <path class="cls-5" d="m232.986,152.843c-.521,0-1.047-.154-1.507-.474-1.198-.834-1.493-2.481-.659-3.679l7.808-11.217c.834-1.198,2.481-1.493,3.679-.659,1.198.834,1.493,2.481.659,3.679l-7.808,11.217c-.514.738-1.336,1.133-2.172,1.133Z"/>
              <path class="cls-5" d="m231.141,153.241c-1.151-.831-3.517-1.662-5.371.767s.128,4.731-2.813,6.586c0,0,4.448,1.779,8.184-1.535,3.676-3.261,0-5.818,0-5.818Z"/>
            </g>
          </g>
          <text class="cls-20" transform="translate(51.255 157.948)"><tspan x="0" y="0">모든 붓 지우기</tspan></text>
        </g>
        <g>
          <g>
            <path class="cls-27" d="m251.016,177.596H47.4l-12.543,11.548h0l-12.023-10.98c-.238-.218-.622-.049-.622.274v54.841l.171.168,11.328,10.345c.663.605,1.678.603,2.338-.004l10.91-10.045c.212-.195.49-.304.779-.304l203.279-.101c15.329,0,27.871-12.542,27.871-27.871s-12.542-27.871-27.871-27.871Z"/>
            <path class="cls-6" d="m271.965,205.511c.233,11.599-9.583,22.21-22.59,21.903-11.361-.268-21.522-9.45-21.508-22.104.014-12.581,10.427-22.278,22.629-21.994,11.969.279,21.786,10.209,21.47,22.194Z"/>
            <g>
              <path class="cls-5" d="m249.706,208.843c-.521,0-1.047-.154-1.507-.474-1.198-.834-1.493-2.481-.659-3.679l7.808-11.217c.834-1.198,2.481-1.493,3.679-.659,1.198.834,1.493,2.481.659,3.679l-7.808,11.217c-.514.738-1.336,1.133-2.172,1.133Z"/>
              <path class="cls-5" d="m247.862,209.241c-1.151-.831-3.517-1.662-5.371.767s.128,4.731-2.813,6.586c0,0,4.448,1.779,8.184-1.535,3.676-3.261,0-5.818,0-5.818Z"/>
            </g>
          </g>
          <text class="cls-20" transform="translate(51.255 213.949)"><tspan x="0" y="0">그리기 시작하기</tspan></text>
        </g>
      </g>
    </g>
    <g>
      <g>
        <g>
          <path class="cls-29" d="m524.28,233.456H47.4s0,0,0,0l-12.543,11.548s0,0,0,0l-12.023-10.98c-.238-.218-.622-.049-.622.274v54.741c0,.047.011.092.028.135h-.003l.004.004c.02.048.048.093.087.13h.056l11.328,10.345c.663.605,1.678.603,2.338-.005l10.91-10.045c.212-.195.49-.304.779-.304l476.543-.101c15.329,0,27.871-12.542,27.871-27.871h0c0-15.329-12.542-27.871-27.871-27.871Z"/>
          <g>
            <path class="cls-7" d="m545.229,261.371c.233,11.599-9.583,22.21-22.59,21.903-11.361-.268-21.522-9.45-21.508-22.104.014-12.581,10.427-22.278,22.629-21.994,11.969.279,21.786,10.209,21.47,22.194Z"/>
            <path class="cls-15" d="m523.497,251.208c1.421.066,3.283.498,4.796,1.905,2.464,2.29,2.614,5.317.342,7.812-.823.903-1.728,1.735-2.634,2.558-.847.769-1.497,1.641-1.723,2.78-.285,1.438-1.202,2.017-2.552,1.624-1.294-.377-1.297-1.572-1.154-2.621.299-2.203,1.86-3.593,3.427-4.952.334-.29.717-.537.999-.87,1.487-1.758,1.36-3.4-.321-4.537-1.47-.995-3.897-.403-4.808,1.208-.326.577-.531,1.221-.815,1.823-.524,1.11-1.42,1.65-2.58,1.204-1.144-.44-1.405-1.351-1.1-2.592.769-3.131,3.806-5.339,8.123-5.343Z"/>
            <path class="cls-13" d="m522.471,273.923c-1.271-.012-2.113-.925-2.059-2.258.054-1.311.741-2.044,2.063-2.095,1.32-.051,2.369,1,2.32,2.267-.048,1.226-1.02,2.098-2.324,2.086Z"/>
          </g>
        </g>
        <text class="cls-20" transform="translate(229.086 269.806)"><tspan x="0" y="0">을(를) 묻고 대답 기다리기</tspan></text>
        <g>
          <g>
            <path class="cls-14" d="m72.02,280.511c-10.975,0-19.903-8.929-19.903-19.903s8.929-19.903,19.903-19.903h119.271c10.975,0,19.903,8.928,19.903,19.903s-8.929,19.903-19.903,19.903h-119.271Z"/>
            <path class="cls-16" d="m191.292,241.705c10.423,0,18.903,8.48,18.903,18.903s-8.48,18.903-18.903,18.903h-119.272c-10.423,0-18.903-8.48-18.903-18.903s8.48-18.903,18.903-18.903h119.272m0-2h-119.272c-11.497,0-20.903,9.406-20.903,20.903s9.406,20.903,20.903,20.903h119.272c11.497,0,20.903-9.406,20.903-20.903s-9.406-20.903-20.903-20.903h0Z"/>
          </g>
          <text class="cls-24" transform="translate(66.347 267.672)"><tspan x="0" y="0">한 변의 길이는?</tspan></text>
        </g>
      </g>
      <g>
        <g>
          <path class="cls-26" d="m22.327,345.267l.056,139.582,12.38,11.613,12.516-11.613h227.161c7.696,0,13.935-6.239,13.935-13.935h0c0-7.696-6.239-13.935-13.935-13.935H73.777l-11.565,10.387-12.924-10.387v-111.719l12.441,11.461,12.387-11.471,187.096-.091c15.329,0,27.871-12.542,27.871-27.871h0c0-15.329-12.542-27.871-27.871-27.871H47.4s-12.543,11.548-12.543,11.548h0s-12.023-10.98-12.023-10.98c-.238-.218-.622-.049-.622.274v54.741c0,.047.011.092.028.135h-.003"/>
          <g>
            <path class="cls-10" d="m281.961,317.331c.233,11.599-9.583,22.21-22.59,21.903-11.361-.268-21.522-9.45-21.508-22.104.014-12.581,10.427-22.278,22.629-21.994,11.969.279,21.786,10.209,21.47,22.194Z"/>
            <path class="cls-9" d="m268.045,318.863c-.095,0-.185.021-.279.028l-4.684-7.075c.647-.892.942-2.055.623-3.302-.356-1.388-1.5-2.504-2.899-2.812-2.553-.562-4.81,1.366-4.81,3.821,0,.859.284,1.646.753,2.292l-4.684,7.075c-.094-.007-.183-.028-.279-.028-2.466,0-4.4,2.277-3.814,4.843.323,1.416,1.474,2.567,2.89,2.89,2.566.586,4.843-1.348,4.843-3.814,0-1.153-.507-2.18-1.3-2.897l4.386-6.625c.358.108.731.183,1.124.183s.766-.076,1.124-.183l4.386,6.625c-1.013.917-1.56,2.338-1.178,3.884.344,1.389,1.482,2.51,2.877,2.828,2.564.583,4.839-1.35,4.839-3.815,0-2.165-1.755-3.919-3.919-3.919Z"/>
          </g>
        </g>
        <g>
          <g>
            <circle class="cls-14" cx="70.331" cy="316.74" r="19.903"/>
            <path class="cls-16" d="m70.331,297.837c10.423,0,18.903,8.48,18.903,18.903s-8.48,18.903-18.903,18.903-18.903-8.48-18.903-18.903,8.48-18.903,18.903-18.903m0-2c-11.497,0-20.903,9.406-20.903,20.903s9.406,20.903,20.903,20.903,20.903-9.406,20.903-20.903-9.406-20.903-20.903-20.903h0Z"/>
          </g>
          <text class="cls-24" transform="translate(62.739 323.803)"><tspan x="0" y="0">4</tspan></text>
          <text class="cls-19" transform="translate(105.665 325.087)"><tspan x="0" y="0">번 반복하기 </tspan></text>
        </g>
      </g>
      <g>
        <g>
          <path class="cls-30" d="m328.413,345.001l-253.796.101h0l-12.543,11.548h0l-12.023-10.98c-.238-.218-.622-.049-.622.274v54.841l.171.168,11.328,10.345c.663.605,1.678.603,2.338-.004l10.91-10.045c.212-.195.49-.304.779-.304l253.46-.202c15.329,0,27.871-12.542,27.871-27.871s-12.542-27.871-27.871-27.871Z"/>
          <path class="cls-17" d="m349.362,372.916c.233,11.599-9.583,22.21-22.59,21.903-11.361-.268-21.522-9.45-21.508-22.104.014-12.581,10.427-22.278,22.629-21.994,11.969.279,21.786,10.209,21.47,22.194Z"/>
          <path class="cls-3" d="m331.728,369.977c1.407,0,2.395-.012,3.384.004.851.014,1.445.399,1.556,1.288.12.962-.563,1.285-1.317,1.519-.079.025-.17.08-.239.061-4.954-1.325-5.974,2.691-7.776,5.688-1.973,3.282-4.638,5.369-8.75,4.954-1.005-.101-1.949-.347-2.123-1.35-.208-1.2,1.021-.942,1.691-1.305,3.006-1.631,3.894-4.763,5.328-7.535-.849-.677-1.708-.269-2.483-.419-.887-.172-1.685-.555-1.601-1.554.067-.795.741-1.257,1.574-1.335.33-.031.676-.081.994-.017,2.34.468,3.589-.727,4.689-2.649,1.419-2.479,3.285-4.62,6.33-5.208,1.965-.38,3.644.13,4.821,1.803.593.843.499,1.736-.279,2.472-.735.695-1.343.452-1.831-.318-.614-.968-1.097-.293-1.572.131-1.022.911-1.408,2.213-2.396,3.771Z"/>
        </g>
        <text class="cls-20" transform="translate(78.472 381.45)"><tspan x="0" y="0">사각형 그리기</tspan></text>
        <g>
          <g>
            <path class="cls-11" d="m248.727,392.674c-10.975,0-19.903-8.928-19.903-19.903s8.929-19.903,19.903-19.903h25.709c10.975,0,19.903,8.928,19.903,19.903s-8.929,19.903-19.903,19.903h-25.709Z"/>
            <path class="cls-4" d="m274.436,353.867c10.423,0,18.903,8.48,18.903,18.903s-8.48,18.903-18.903,18.903h-25.71c-10.423,0-18.903-8.48-18.903-18.903s8.48-18.903,18.903-18.903h25.71m0-2h-25.71c-11.497,0-20.903,9.407-20.903,20.903s9.406,20.903,20.903,20.903h25.71c11.497,0,20.903-9.406,20.903-20.903s-9.406-20.903-20.903-20.903h0Z"/>
          </g>
          <text class="cls-23" transform="translate(243.043 379.834)"><tspan x="0" y="0">대답</tspan></text>
        </g>
      </g>
      <g>
        <g>
          <g>
            <path class="cls-28" d="m452.744,401.006H74.616l-12.543,11.548h0l-12.023-10.98c-.238-.218-.622-.049-.622.274v54.841l.171.168,11.328,10.345c.663.605,1.678.603,2.338-.004l10.91-10.045c.212-.195.49-.304.779-.304l377.791-.101c15.329,0,27.871-12.542,27.871-27.871s-12.542-27.871-27.871-27.871Z"/>
            <g>
              <path class="cls-1" d="m429.595,428.697c.085-12.114,9.79-22.01,22.342-21.937,12.159.071,22.178,9.883,21.961,22.471-.203,11.764-9.754,21.773-22.498,21.598-12.042-.166-21.794-9.762-21.805-22.132Z"/>
              <g>
                <path class="cls-12" d="m463.702,423.227l-5.089-3.84c-.502-.379-1.222-.021-1.222.609v1.614l-8.892-.884c-.449-.045-.838.308-.838.759v4.703c0,.451.389.803.838.759l8.892-.884v1.614c0,.629.719.988,1.222.609l5.089-3.84c.404-.305.404-.912,0-1.217Z"/>
                <path class="cls-12" d="m439.793,434.364l5.089,3.84c.502.379,1.222.021,1.222-.609v-1.614l8.892.884c.449.045.838-.308.838-.759v-4.703c0-.451-.389-.803-.838-.759l-8.892.884v-1.614c0-.629-.719-.988-1.222-.609l-5.089,3.84c-.404.305-.404.912,0,1.217Z"/>
              </g>
            </g>
          </g>
          <text class="cls-20" transform="translate(78.471 437.355)"><tspan x="0" y="0">이동 방향을</tspan></text>
          <text class="cls-20" transform="translate(277.794 437.355)"><tspan x="0" y="0">만큼 회전하기</tspan></text>
        </g>
        <g>
          <path class="cls-14" d="m231.693,448.679c-10.975,0-19.903-8.929-19.903-19.903s8.929-19.903,19.903-19.903h9.414c10.975,0,19.903,8.929,19.903,19.903s-8.929,19.903-19.903,19.903h-9.414Z"/>
          <path class="cls-16" d="m241.108,409.873c10.423,0,18.903,8.48,18.903,18.903s-8.48,18.903-18.903,18.903h-9.414c-10.423,0-18.903-8.48-18.903-18.903s8.48-18.903,18.903-18.903h9.414m0-2h-9.414c-11.497,0-20.903,9.407-20.903,20.903s9.406,20.903,20.903,20.903h9.414c11.497,0,20.903-9.407,20.903-20.903s-9.406-20.903-20.903-20.903h0Z"/>
        </g>
        <text class="cls-24" transform="translate(220.103 435.839)"><tspan x="0" y="0">45º</tspan></text>
      </g>
    </g>
  </g>
  <rect class="cls-8" x="49.428" y="295.837" width="41.806" height="41.806" rx="20.903" ry="20.903"/>
  <rect class="cls-8" x="227.824" y="351.868" width="67.516" height="41.806" rx="20.903" ry="20.903"/>
  <rect class="cls-8" x="210.79" y="407.873" width="51.221" height="41.806" rx="20.903" ry="20.903"/>
</svg>