<?xml version="1.0" encoding="UTF-8"?>
<svg id="_레이어_1" data-name="레이어 1" xmlns="http://www.w3.org/2000/svg" viewBox="0 0 926.676 434.89">
  <defs>
    <style>
      .cls-1, .cls-2, .cls-3, .cls-4, .cls-5, .cls-6, .cls-7, .cls-8, .cls-9, .cls-10, .cls-11, .cls-12, .cls-13, .cls-14 {
        stroke-width: 0px;
      }

      .cls-1, .cls-15, .cls-16 {
        fill: #fefefe;
      }

      .cls-17 {
        letter-spacing: -.032em;
      }

      .cls-18 {
        fill: #dc47d7;
        stroke: #b719b2;
      }

      .cls-18, .cls-19 {
        stroke-miterlimit: 10;
      }

      .cls-18, .cls-19, .cls-20 {
        stroke-width: 2px;
      }

      .cls-2 {
        fill: #fefdfe;
      }

      .cls-19 {
        stroke: #009400;
      }

      .cls-19, .cls-14 {
        fill: #00b300;
      }

      .cls-15 {
        font-size: 26px;
      }

      .cls-15, .cls-16, .cls-21, .cls-22 {
        font-family: Pretendard-Bold-KSCpc-EUC-H, Pretendard;
        font-weight: 700;
      }

      .cls-3 {
        fill: #b719b2;
      }

      .cls-4 {
        fill: #ff7f00;
      }

      .cls-20 {
        fill: #19baea;
        stroke: #1498c0;
        stroke-linecap: round;
        stroke-linejoin: round;
      }

      .cls-5, .cls-22 {
        fill: #fff;
      }

      .cls-6 {
        fill: #6dddfe;
      }

      .cls-7 {
        fill: #1498c0;
      }

      .cls-16, .cls-21, .cls-22 {
        font-size: 22px;
      }

      .cls-8 {
        fill: #fafdfa;
      }

      .cls-9 {
        fill: #f577f1;
      }

      .cls-10 {
        fill: #fedd81;
      }

      .cls-11 {
        fill: #f4af18;
      }

      .cls-12 {
        fill: #f677f2;
      }

      .cls-13 {
        fill: #fe9b00;
      }
    </style>
  </defs>
  <g>
    <g>
      <path class="cls-19" d="m21.64,65.053s-5.2-2.719-7.532-4.568c-7.301-5.786-11.647-13.18-12.825-22.461C.212,29.582,2.193,21.879,7.067,15.04,12.681,7.161,20.381,2.463,30.1,1.274c9.447-1.156,17.928,1.343,25.093,7.428,2.309,1.961,4.441,2.392,7.168,2.399,81.918.211,163.835.465,245.753.713,13.081.04,24.448,9.349,26.741,22.14,2.77,15.451-7.86,29.794-23.175,31.684-.205.025-.396.168-.594.256-.891.016-1.782.048-2.673.045-86.874-.26-173.747-.518-260.621-.816-1.521-.005-2.596.406-3.649,1.498-2.976,3.089-6.092,6.042-9.092,9.109-.791.809-1.254.903-2.094.031-3.131-3.25-6.346-6.419-9.533-9.615-.505-.507-1.787-1.095-1.787-1.095Z"/>
      <path class="cls-1" d="m34.016,62.097c-15.48-.051-28.037-12.66-27.997-28.114.04-15.539,12.694-28.067,28.28-27.997,15.45.069,27.973,12.72,27.913,28.197-.06,15.443-12.708,27.964-28.196,27.914Z"/>
      <path class="cls-14" d="m22.752,33.067c.099-1.896-.183-4.236.152-6.562.711-4.937,4.657-8.567,9.628-8.799,1.609-.075,3.236-.154,4.823.234,4.693,1.146,7.831,5.11,7.914,10.093.06,3.614.045,7.23.006,10.844-.07,6.422-4.581,10.616-11.359,10.611-6.621-.005-11.083-4.255-11.16-10.647-.021-1.779-.003-3.559-.003-5.774Z"/>
      <path class="cls-8" d="m32.083,26.92c.035-.717.008-1.442.123-2.144.154-.937.826-1.465,1.736-1.493.99-.03,1.793.497,1.874,1.509.118,1.478.107,2.978-.004,4.457-.07.929-.81,1.468-1.722,1.499-.995.033-1.71-.518-1.884-1.517-.131-.754-.088-1.539-.124-2.311Z"/>
      <text class="cls-15" transform="translate(73.185 47.541) rotate(.173)"><tspan x="0" y="0">오브젝트를 클릭했을 때</tspan></text>
    </g>
    <g>
      <g>
        <path class="cls-18" d="m425.169,64.707H46.509l-12.543,11.141-12.024-10.593c-.238-.21-.622-.047-.622.265v52.811c0,.098.042.191.115.259l12.53,11.113,12.543-11.219h378.66c15.329,0,27.871-12.1,27.871-26.888h0c0-14.789-12.542-26.888-27.871-26.888Z"/>
        <path class="cls-3" d="m400.883,91.101c.085-12.114,9.79-22.01,22.342-21.937,12.159.071,22.178,9.883,21.961,22.471-.203,11.764-9.754,21.773-22.498,21.598-12.042-.166-21.794-9.762-21.805-22.132Z"/>
        <text class="cls-15" transform="translate(250.861 101.68)"><tspan x="0" y="0">(으)로 정하기</tspan></text>
        <text class="cls-15" transform="translate(114.975 101.68)"><tspan x="0" y="0">을(를)</tspan></text>
        <path class="cls-12" d="m422.843,81.156c3.973.048,6.605,2.132,7.169,5.536.236,1.421-.185,2.643-1.127,3.671-.864.943-1.773,1.854-2.731,2.702-1.025.909-1.869,1.892-2.145,3.28-.232,1.167-.936,1.732-2.155,1.54-1.232-.194-1.334-1.074-1.385-2.104-.103-2.069,1.042-3.441,2.431-4.709.657-.599,1.396-1.122,1.982-1.782,1.412-1.588,1.315-3.285-.17-4.344-1.397-.997-3.888-.624-4.788.786-.444.696-.76,1.483-1.061,2.257-.461,1.186-1.382,1.378-2.45,1.155-1.088-.227-1.328-1.054-1.254-2.043.193-2.571,1.812-4.116,3.935-5.163,1.186-.585,2.528-.865,3.748-.783Z"/>
        <path class="cls-9" d="m422.36,103.868c-1.32,0-2.19-.878-2.179-2.197.011-1.354.827-2.157,2.191-2.156,1.361,0,2.177.81,2.183,2.167.006,1.3-.885,2.187-2.195,2.186Z"/>
      </g>
      <g>
        <path class="cls-3" d="m95.894,72.153l-39.236-.061c-3.657-.014-6.893,2.767-6.868,6.912.052,8.797.052,17.595,0,26.392-.024,4.145,3.212,6.915,6.869,6.91,56.653-.084-17.417-.059,39.236-.059,4.46,0,6.868-2.426,6.87-6.935.004-8.742.004-17.483,0-26.225-.002-4.508-2.41-6.934-6.871-6.934Z"/>
        <path class="cls-2" d="m83.752,86.944c1.503,0,3.006-.003,4.509.001.951.003,1.744.288,2.197,1.211.47.958.064,1.702-.534,2.425-1.451,1.754-2.859,3.543-4.343,5.268-1.318,1.533-2.389,1.523-3.72-.029-1.519-1.771-2.972-3.598-4.452-5.402-.521-.635-.812-1.313-.452-2.145.374-.865,1.045-1.293,1.954-1.309,1.614-.027,3.228-.008,4.842-.008v-.013Z"/>
        <text class="cls-16" transform="translate(59.169 101.326)"><tspan x="0" y="0">n</tspan></text>
      </g>
      <g>
        <g>
          <circle class="cls-10" cx="209.371" cy="91.532" r="19.903"/>
          <path class="cls-13" d="m209.371,72.629c10.423,0,18.903,8.48,18.903,18.903s-8.48,18.903-18.903,18.903-18.903-8.48-18.903-18.903,8.48-18.903,18.903-18.903m0-2c-11.497,0-20.903,9.406-20.903,20.903s9.406,20.903,20.903,20.903,20.903-9.406,20.903-20.903-9.406-20.903-20.903-20.903h0Z"/>
        </g>
        <text class="cls-21" transform="translate(202.15 99.175)"><tspan x="0" y="0">0</tspan></text>
      </g>
    </g>
    <g>
      <g>
        <path class="cls-20" d="m293.257,336.433H71.548l-11.613,11.226-11.538-11.226v-161.935l12.441,11.461,12.387-11.471,207.943-.091c16.083,0,29.097-13.805,27.779-30.151-1.175-14.565-13.733-25.591-28.345-25.591H46.509l-12.543,11.548-12.023-10.98c-.238-.218-.622-.049-.622.274v54.741c0,.047.011.092.028.135h-.004l.091.134.056,193.492,12.379,11.613,12.516-11.613h246.871c8.716,0,15.782-7.066,15.782-15.783s-7.066-15.783-15.782-15.783Z"/>
        <g>
          <path class="cls-7" d="m298.917,146.571c.233,11.599-9.583,22.21-22.59,21.903-11.361-.268-21.522-9.45-21.508-22.104.014-12.581,10.427-22.278,22.629-21.994,11.969.279,21.786,10.209,21.47,22.194Z"/>
          <path class="cls-6" d="m285.001,148.103c-.095,0-.185.021-.279.028l-4.684-7.075c.647-.892.942-2.055.623-3.302-.356-1.388-1.5-2.504-2.899-2.812-2.553-.562-4.81,1.366-4.81,3.821,0,.859.284,1.646.753,2.292l-4.684,7.075c-.094-.007-.183-.028-.279-.028-2.466,0-4.4,2.277-3.814,4.843.323,1.416,1.474,2.567,2.89,2.89,2.566.586,4.843-1.348,4.843-3.814,0-1.153-.507-2.18-1.3-2.897l4.386-6.625c.358.108.731.183,1.124.183s.766-.076,1.124-.183l4.386,6.625c-1.013.917-1.56,2.338-1.178,3.884.344,1.389,1.482,2.51,2.877,2.828,2.564.583,4.839-1.35,4.839-3.815,0-2.165-1.755-3.919-3.919-3.919Z"/>
        </g>
        <text class="cls-15" transform="translate(120.189 155.618)"><tspan x="0" y="0">번 반복하기</tspan></text>
      </g>
      <g>
        <g>
          <path class="cls-10" d="m71.128,165.297c-10.975,0-19.903-8.929-19.903-19.903s8.928-19.903,19.903-19.903h10.968c10.975,0,19.903,8.929,19.903,19.903s-8.928,19.903-19.903,19.903h-10.968Z"/>
          <path class="cls-13" d="m82.096,126.49c10.423,0,18.903,8.48,18.903,18.903s-8.48,18.903-18.903,18.903h-10.968c-10.423,0-18.903-8.48-18.903-18.903s8.48-18.903,18.903-18.903h10.968m0-2h-10.968c-11.497,0-20.903,9.406-20.903,20.903s9.406,20.903,20.903,20.903h10.968c11.497,0,20.903-9.406,20.903-20.903s-9.406-20.903-20.903-20.903h0Z"/>
        </g>
        <text class="cls-21" transform="translate(64.743 152.456)"><tspan x="0" y="0">10</tspan></text>
      </g>
    </g>
    <g>
      <path class="cls-18" d="m392.368,174.961H73.718l-12.543,11.141-12.024-10.593c-.238-.21-.622-.047-.622.265v52.811c0,.098.042.191.115.259l12.53,11.113,12.543-11.219h318.65c15.329,0,27.871-12.1,27.871-26.888h0c0-14.789-12.542-26.888-27.871-26.888Z"/>
      <path class="cls-3" d="m368.083,201.354c.085-12.114,9.79-22.01,22.342-21.937,12.159.071,22.178,9.883,21.961,22.471-.203,11.764-9.754,21.773-22.498,21.598-12.042-.166-21.794-9.762-21.805-22.132Z"/>
      <text class="cls-15" transform="translate(234.943 211.933)"><tspan x="0" y="0">만큼 더하기</tspan></text>
      <text class="cls-15" transform="translate(142.185 211.933)"><tspan x="0" y="0">에</tspan></text>
      <path class="cls-12" d="m390.043,191.409c3.973.048,6.605,2.132,7.169,5.536.236,1.421-.185,2.643-1.127,3.671-.864.943-1.773,1.854-2.731,2.702-1.025.909-1.869,1.892-2.145,3.28-.232,1.167-.936,1.732-2.155,1.54-1.232-.194-1.334-1.074-1.385-2.104-.103-2.069,1.042-3.441,2.431-4.709.657-.599,1.396-1.122,1.982-1.782,1.412-1.588,1.315-3.285-.17-4.344-1.397-.997-3.888-.624-4.788.786-.444.696-.76,1.483-1.061,2.257-.461,1.186-1.382,1.378-2.45,1.155-1.088-.227-1.328-1.054-1.254-2.043.193-2.571,1.812-4.116,3.935-5.163,1.186-.585,2.528-.865,3.748-.783Z"/>
      <path class="cls-9" d="m389.56,214.122c-1.32,0-2.19-.878-2.179-2.197.011-1.354.827-2.157,2.191-2.156,1.361,0,2.177.81,2.183,2.167.006,1.3-.885,2.187-2.195,2.186Z"/>
    </g>
    <g>
      <path class="cls-3" d="m123.104,182.407l-39.236-.061c-3.657-.014-6.893,2.767-6.868,6.912.052,8.797.052,17.595,0,26.392-.024,4.145,3.212,6.915,6.869,6.91,56.653-.084-17.417-.059,39.236-.059,4.46,0,6.868-2.426,6.87-6.935.004-8.742.004-17.483,0-26.225-.002-4.508-2.41-6.934-6.871-6.934Z"/>
      <path class="cls-2" d="m110.962,197.198c1.503,0,3.006-.003,4.509.001.951.003,1.744.288,2.197,1.211.47.958.064,1.702-.534,2.425-1.451,1.754-2.859,3.543-4.343,5.268-1.318,1.533-2.389,1.523-3.72-.029-1.519-1.771-2.972-3.598-4.452-5.402-.521-.635-.812-1.313-.452-2.145.374-.865,1.045-1.293,1.954-1.309,1.614-.027,3.228-.008,4.842-.008v-.013Z"/>
      <text class="cls-16" transform="translate(86.379 211.58)"><tspan x="0" y="0">n</tspan></text>
    </g>
    <g>
      <g>
        <path class="cls-10" d="m195.685,221.688c-10.975,0-19.903-8.928-19.903-19.902s8.928-19.903,19.903-19.903,19.903,8.929,19.903,19.903-8.929,19.902-19.903,19.902Z"/>
        <path class="cls-13" d="m195.685,182.882c10.423,0,18.903,8.48,18.903,18.903s-8.48,18.903-18.903,18.903-18.903-8.48-18.903-18.903,8.48-18.903,18.903-18.903m0-2c-11.497,0-20.903,9.406-20.903,20.903h0c0,11.497,9.406,20.903,20.903,20.903s20.903-9.406,20.903-20.903h0c0-11.497-9.406-20.903-20.903-20.903h0Z"/>
      </g>
      <text class="cls-21" transform="translate(190.141 209.074)"><tspan x="0" y="0">1</tspan></text>
    </g>
    <g>
      <g>
        <path class="cls-18" d="m897.805,228.767H73.718l-12.543,11.141-12.024-10.593c-.238-.21-.622-.047-.622.265v52.811c0,.098.042.191.115.259l12.53,11.113,12.543-11.219h824.087c15.329,0,27.871-12.1,27.871-26.888h0c0-14.789-12.542-26.888-27.871-26.888Z"/>
        <path class="cls-3" d="m873.52,255.161c.085-12.114,9.79-22.01,22.342-21.937,12.159.071,22.178,9.883,21.961,22.471-.203,11.764-9.754,21.773-22.498,21.598-12.042-.166-21.794-9.762-21.805-22.132Z"/>
        <text class="cls-15" transform="translate(604.128 263.739)"><tspan x="0" y="0">을(를) 묻고 대답 기다리기</tspan></text>
        <path class="cls-12" d="m895.48,245.216c3.973.048,6.605,2.132,7.169,5.536.236,1.421-.185,2.643-1.127,3.671-.864.943-1.773,1.854-2.731,2.702-1.025.909-1.869,1.892-2.145,3.28-.232,1.167-.936,1.732-2.155,1.54-1.232-.194-1.334-1.074-1.385-2.104-.103-2.069,1.042-3.441,2.431-4.709.657-.599,1.396-1.122,1.982-1.782,1.412-1.588,1.315-3.285-.17-4.344-1.397-.997-3.888-.624-4.788.786-.444.696-.76,1.483-1.061,2.257-.461,1.186-1.382,1.378-2.45,1.155-1.088-.227-1.328-1.054-1.254-2.043.193-2.571,1.812-4.116,3.935-5.163,1.186-.585,2.528-.865,3.748-.783Z"/>
        <path class="cls-9" d="m894.997,267.928c-1.32,0-2.19-.878-2.179-2.197.011-1.354.827-2.157,2.191-2.156,1.361,0,2.177.81,2.183,2.167.006,1.3-.885,2.187-2.195,2.186Z"/>
      </g>
      <g>
        <g>
          <path class="cls-11" d="m97.902,275.163c-10.975,0-19.903-8.929-19.903-19.903s8.929-19.903,19.903-19.903h469.465c10.975,0,19.903,8.929,19.903,19.903s-8.929,19.903-19.903,19.903H97.902Z"/>
          <path class="cls-4" d="m567.367,236.356c10.423,0,18.903,8.48,18.903,18.903s-8.48,18.903-18.903,18.903H97.902c-10.423,0-18.903-8.48-18.903-18.903s8.48-18.903,18.903-18.903h469.465m0-2H97.902c-11.497,0-20.903,9.406-20.903,20.903s9.406,20.903,20.903,20.903h469.465c11.497,0,20.903-9.406,20.903-20.903s-9.406-20.903-20.903-20.903h0Z"/>
        </g>
        <text class="cls-22" transform="translate(156.283 261.322)"><tspan x="0" y="0">과(와)</tspan></text>
        <text class="cls-22" transform="translate(447.786 261.322)"><tspan x="0" y="0">을(를) 합친 값</tspan></text>
        <g>
          <g>
            <path class="cls-10" d="m243.318,275.163c-10.975,0-19.903-8.929-19.903-19.903s8.929-19.903,19.903-19.903h172.307c10.975,0,19.903,8.929,19.903,19.903s-8.928,19.903-19.903,19.903h-172.307Z"/>
            <path class="cls-13" d="m415.625,236.356c10.423,0,18.903,8.48,18.903,18.903s-8.48,18.903-18.903,18.903h-172.307c-10.423,0-18.903-8.48-18.903-18.903s8.48-18.903,18.903-18.903h172.307m0-2h-172.307c-11.497,0-20.903,9.406-20.903,20.903s9.406,20.903,20.903,20.903h172.307c11.497,0,20.903-9.406,20.903-20.903s-9.406-20.903-20.903-20.903h0Z"/>
          </g>
          <text class="cls-21" transform="translate(237.853 263.612)"><tspan x="0" y="0">의 점수를 입력하세요</tspan><tspan class="cls-17" x="181.264" y="0">.</tspan></text>
        </g>
        <g>
          <g>
            <path class="cls-10" d="m111.602,275.163c-10.975,0-19.903-8.929-19.903-19.903s8.928-19.903,19.903-19.903h10.968c10.975,0,19.903,8.929,19.903,19.903s-8.928,19.903-19.903,19.903h-10.968Z"/>
            <path class="cls-13" d="m122.57,236.356c10.423,0,18.903,8.48,18.903,18.903s-8.48,18.903-18.903,18.903h-10.968c-10.423,0-18.903-8.48-18.903-18.903s8.48-18.903,18.903-18.903h10.968m0-2h-10.968c-11.497,0-20.903,9.406-20.903,20.903s9.406,20.903,20.903,20.903h10.968c11.497,0,20.903-9.406,20.903-20.903s-9.406-20.903-20.903-20.903h0Z"/>
          </g>
          <text class="cls-21" transform="translate(105.349 262.322)"><tspan x="0" y="0">10</tspan></text>
        </g>
      </g>
    </g>
    <g>
      <g>
        <path class="cls-18" d="m649.981,282.45H73.718l-12.543,11.141-12.024-10.593c-.238-.21-.622-.047-.622.265v52.811c0,.098.042.191.115.259l12.53,11.113,12.543-11.219h576.263c15.329,0,27.871-12.1,27.871-26.888h0c0-14.789-12.542-26.888-27.871-26.888Z"/>
        <path class="cls-3" d="m625.696,308.844c.085-12.114,9.79-22.01,22.342-21.937,12.159.071,22.178,9.883,21.961,22.471-.203,11.764-9.754,21.773-22.498,21.598-12.042-.166-21.794-9.762-21.805-22.132Z"/>
        <text class="cls-15" transform="translate(279.447 319.423)"><tspan x="0" y="0">번째 항목을</tspan></text>
        <path class="cls-12" d="m647.656,298.899c3.973.048,6.605,2.132,7.169,5.536.236,1.421-.185,2.643-1.127,3.671-.864.943-1.773,1.854-2.731,2.702-1.025.909-1.869,1.892-2.145,3.28-.232,1.167-.936,1.732-2.155,1.54-1.232-.194-1.334-1.074-1.385-2.104-.103-2.069,1.042-3.441,2.431-4.709.657-.599,1.396-1.122,1.982-1.782,1.412-1.588,1.315-3.285-.17-4.344-1.397-.997-3.888-.624-4.788.786-.444.696-.76,1.483-1.061,2.257-.461,1.186-1.382,1.378-2.45,1.155-1.088-.227-1.328-1.054-1.254-2.043.193-2.571,1.812-4.116,3.935-5.163,1.186-.585,2.528-.865,3.748-.783Z"/>
        <path class="cls-9" d="m647.173,321.611c-1.32,0-2.19-.878-2.179-2.197.011-1.354.827-2.157,2.191-2.156,1.361,0,2.177.81,2.183,2.167.006,1.3-.885,2.187-2.195,2.186Z"/>
      </g>
      <g>
        <path class="cls-3" d="m189.072,289.897l-108.624-.061c-3.657-.014-6.893,2.767-6.868,6.912.052,8.797.052,17.595,0,26.392-.024,4.145,3.212,6.915,6.869,6.91,56.653-.084,51.971-.059,108.624-.059,4.46,0,6.868-2.426,6.87-6.935.004-8.742.004-17.483,0-26.225-.002-4.508-2.41-6.934-6.871-6.934Z"/>
        <path class="cls-2" d="m178.93,304.687c1.503,0,3.006-.003,4.509.001.951.003,1.744.288,2.197,1.211.47.958.064,1.702-.534,2.425-1.451,1.754-2.859,3.543-4.343,5.268-1.318,1.533-2.389,1.523-3.72-.029-1.519-1.771-2.972-3.598-4.452-5.402-.521-.635-.812-1.313-.452-2.145.374-.865,1.045-1.293,1.954-1.309,1.614-.027,3.228-.008,4.842-.008v-.013Z"/>
        <text class="cls-16" transform="translate(83.959 319.069)"><tspan x="0" y="0">반티 총점</tspan></text>
      </g>
      <g>
        <g>
          <path class="cls-10" d="m234.275,329.179c-10.975,0-19.903-8.929-19.903-19.903s8.929-19.903,19.903-19.903h10.968c10.975,0,19.903,8.929,19.903,19.903s-8.928,19.903-19.903,19.903h-10.968Z"/>
          <path class="cls-13" d="m245.242,290.372c10.423,0,18.903,8.48,18.903,18.903s-8.48,18.903-18.903,18.903h-10.968c-10.423,0-18.903-8.48-18.903-18.903s8.48-18.903,18.903-18.903h10.968m0-2h-10.968c-11.497,0-20.903,9.406-20.903,20.903s9.406,20.903,20.903,20.903h10.968c11.497,0,20.903-9.406,20.903-20.903s-9.406-20.903-20.903-20.903h0Z"/>
        </g>
        <text class="cls-21" transform="translate(228.022 316.338)"><tspan x="0" y="0">10</tspan></text>
      </g>
      <text class="cls-15" transform="translate(477.694 318.132)"><tspan x="0" y="0">(으)로 바꾸기</tspan></text>
      <g>
        <g>
          <path class="cls-10" d="m432.169,329.179c-10.975,0-19.903-8.929-19.903-19.903s8.929-19.903,19.903-19.903h10.968c10.975,0,19.903,8.929,19.903,19.903s-8.929,19.903-19.903,19.903h-10.968Z"/>
          <path class="cls-13" d="m443.136,290.372c10.423,0,18.903,8.48,18.903,18.903s-8.48,18.903-18.903,18.903h-10.968c-10.423,0-18.903-8.48-18.903-18.903s8.48-18.903,18.903-18.903h10.968m0-2h-10.968c-11.497,0-20.903,9.406-20.903,20.903s9.406,20.903,20.903,20.903h10.968c11.497,0,20.903-9.406,20.903-20.903s-9.406-20.903-20.903-20.903h0Z"/>
        </g>
        <text class="cls-21" transform="translate(425.916 316.338)"><tspan x="0" y="0">10</tspan></text>
      </g>
    </g>
    <g>
      <path class="cls-18" d="m450.115,368.556H46.509l-12.543,11.141-12.024-10.593c-.238-.21-.622-.047-.622.265v52.811c0,.098.042.191.115.259l12.53,11.113,12.543-11.219h403.607c15.329,0,27.871-12.1,27.871-26.888h0c0-14.789-12.542-26.888-27.871-26.888Z"/>
      <path class="cls-3" d="m425.83,395.95c.085-12.114,9.79-22.01,22.342-21.937,12.159.071,22.178,9.883,21.961,22.471-.203,11.764-9.754,21.773-22.498,21.598-12.042-.166-21.794-9.762-21.805-22.132Z"/>
      <path class="cls-12" d="m447.79,386.005c3.973.048,6.605,2.132,7.169,5.536.236,1.421-.185,2.643-1.127,3.671-.864.943-1.773,1.854-2.731,2.702-1.025.909-1.869,1.892-2.145,3.28-.232,1.167-.936,1.732-2.155,1.54-1.232-.194-1.334-1.074-1.385-2.104-.103-2.069,1.042-3.441,2.431-4.709.657-.599,1.396-1.122,1.982-1.782,1.412-1.588,1.315-3.285-.17-4.344-1.397-.997-3.888-.624-4.788.786-.444.696-.76,1.483-1.061,2.257-.461,1.186-1.382,1.378-2.45,1.155-1.088-.227-1.328-1.054-1.254-2.043.193-2.571,1.812-4.116,3.935-5.163,1.186-.585,2.528-.865,3.748-.783Z"/>
      <path class="cls-9" d="m447.307,408.717c-1.32,0-2.19-.878-2.179-2.197.011-1.354.827-2.157,2.191-2.156,1.361,0,2.177.81,2.183,2.167.006,1.3-.885,2.187-2.195,2.186Z"/>
      <g>
        <path class="cls-3" d="m179.735,375.142l-123.077-.061c-3.657-.014-6.893,2.767-6.868,6.912.052,8.797.052,17.595,0,26.392-.024,4.145,3.212,6.915,6.869,6.91,56.653-.084,66.424-.059,123.077-.059,4.46,0,6.868-2.426,6.87-6.935.004-8.742.004-17.483,0-26.225-.002-4.508-2.41-6.934-6.871-6.934Z"/>
        <path class="cls-2" d="m169.593,389.932c1.503,0,3.006-.003,4.509.001.951.003,1.744.288,2.197,1.211.47.958.064,1.702-.534,2.425-1.451,1.754-2.859,3.543-4.343,5.268-1.318,1.533-2.389,1.523-3.72-.029-1.519-1.771-2.972-3.598-4.452-5.402-.521-.635-.812-1.313-.452-2.145.374-.865,1.045-1.293,1.954-1.309,1.614-.027,3.228-.008,4.842-.008v-.013Z"/>
        <text class="cls-16" transform="translate(60.169 404.314)"><tspan x="0" y="0">투표한 사람 </tspan></text>
      </g>
      <g>
        <g>
          <path class="cls-10" d="m261.326,414.423c-10.975,0-19.903-8.928-19.903-19.902s8.928-19.903,19.903-19.903,19.903,8.929,19.903,19.903-8.929,19.902-19.903,19.902Z"/>
          <path class="cls-13" d="m261.326,375.617c10.423,0,18.903,8.48,18.903,18.903s-8.48,18.903-18.903,18.903-18.903-8.48-18.903-18.903,8.48-18.903,18.903-18.903m0-2c-11.497,0-20.903,9.406-20.903,20.903s9.406,20.903,20.903,20.903,20.903-9.406,20.903-20.903-9.406-20.903-20.903-20.903h0Z"/>
        </g>
        <text class="cls-21" transform="translate(255.073 402.873)"><tspan x="0" y="0">1</tspan></text>
      </g>
      <text class="cls-15" transform="translate(297.5 404.667)"><tspan x="0" y="0">만큼 더하기</tspan></text>
      <text class="cls-15" transform="translate(202.708 404.667)"><tspan x="0" y="0">에</tspan></text>
    </g>
  </g>
  <g>
    <path class="cls-5" d="m71.128,165.297c-10.975,0-19.903-8.929-19.903-19.903s8.928-19.903,19.903-19.903h10.968c10.975,0,19.903,8.929,19.903,19.903s-8.928,19.903-19.903,19.903h-10.968Z"/>
    <path class="cls-5" d="m82.096,126.49c10.423,0,18.903,8.48,18.903,18.903s-8.48,18.903-18.903,18.903h-10.968c-10.423,0-18.903-8.48-18.903-18.903s8.48-18.903,18.903-18.903h10.968m0-2h-10.968c-11.497,0-20.903,9.406-20.903,20.903s9.406,20.903,20.903,20.903h10.968c11.497,0,20.903-9.406,20.903-20.903s-9.406-20.903-20.903-20.903h0Z"/>
  </g>
  <g>
    <path class="cls-5" d="m111.602,275.163c-10.975,0-19.903-8.929-19.903-19.903s8.928-19.903,19.903-19.903h10.968c10.975,0,19.903,8.929,19.903,19.903s-8.928,19.903-19.903,19.903h-10.968Z"/>
    <path class="cls-5" d="m122.57,236.356c10.423,0,18.903,8.48,18.903,18.903s-8.48,18.903-18.903,18.903h-10.968c-10.423,0-18.903-8.48-18.903-18.903s8.48-18.903,18.903-18.903h10.968m0-2h-10.968c-11.497,0-20.903,9.406-20.903,20.903s9.406,20.903,20.903,20.903h10.968c11.497,0,20.903-9.406,20.903-20.903s-9.406-20.903-20.903-20.903h0Z"/>
  </g>
  <g>
    <path class="cls-5" d="m234.275,329.179c-10.975,0-19.903-8.929-19.903-19.903s8.929-19.903,19.903-19.903h10.968c10.975,0,19.903,8.929,19.903,19.903s-8.928,19.903-19.903,19.903h-10.968Z"/>
    <path class="cls-5" d="m245.242,290.372c10.423,0,18.903,8.48,18.903,18.903s-8.48,18.903-18.903,18.903h-10.968c-10.423,0-18.903-8.48-18.903-18.903s8.48-18.903,18.903-18.903h10.968m0-2h-10.968c-11.497,0-20.903,9.406-20.903,20.903s9.406,20.903,20.903,20.903h10.968c11.497,0,20.903-9.406,20.903-20.903s-9.406-20.903-20.903-20.903h0Z"/>
  </g>
  <g>
    <path class="cls-5" d="m432.168,329.179c-10.975,0-19.903-8.929-19.903-19.903s8.929-19.903,19.903-19.903h10.968c10.975,0,19.903,8.929,19.903,19.903s-8.929,19.903-19.903,19.903h-10.968Z"/>
    <path class="cls-5" d="m443.136,290.372c10.423,0,18.903,8.48,18.903,18.903s-8.48,18.903-18.903,18.903h-10.968c-10.423,0-18.903-8.48-18.903-18.903s8.48-18.903,18.903-18.903h10.968m0-2h-10.968c-11.497,0-20.903,9.406-20.903,20.903s9.406,20.903,20.903,20.903h10.968c11.497,0,20.903-9.406,20.903-20.903s-9.406-20.903-20.903-20.903h0Z"/>
  </g>
</svg>