<?xml version="1.0" encoding="UTF-8"?>
<svg id="_레이어_1" data-name="레이어 1" xmlns="http://www.w3.org/2000/svg" viewBox="0 0 84 35">
  <defs>
    <style>
      .cls-1 {
        fill: #fee671;
      }

      .cls-1, .cls-2, .cls-3 {
        stroke-width: 0px;
      }

      .cls-2 {
        fill: #fdf6b5;
      }

      .cls-3 {
        fill: #5bba47;
      }
    </style>
  </defs>
  <g>
    <path class="cls-2" d="m79.953,0H4.047C1.812,0,0,1.744,0,3.895v23.369c0,2.151,1.812,3.895,4.047,3.895h75.906c2.235,0,4.047-1.744,4.047-3.895V3.895c0-2.151-1.812-3.895-4.047-3.895Z"/>
    <path class="cls-1" d="m79.953,31.159H4.047c-2.235,0-4.047-1.744-4.047-3.895v3.841c0,2.151,1.812,3.895,4.047,3.895h75.906c2.235,0,4.047-1.744,4.047-3.895v-3.841c0,2.151-1.812,3.895-4.047,3.895Z"/>
  </g>
  <g>
    <path class="cls-3" d="m10.709,7.634h-1.291c-2.39,0-4.345,1.955-4.345,4.345v7.738c0,2.39,1.955,4.345,4.345,4.345h1.291c2.39,0,4.345-1.955,4.345-4.345v-7.738c0-2.39-1.955-4.345-4.345-4.345Zm.961,12.073c0,.884-.723,1.607-1.607,1.607s-1.607-.723-1.607-1.607v-7.719c0-.884.723-1.607,1.607-1.607s1.607.723,1.607,1.607v7.719Z"/>
    <path class="cls-3" d="m21.727,13.774h-1.014v-4.927c0-.953-.779-1.732-1.732-1.732s-1.732.779-1.732,1.732v14.199c0,.953.779,1.732,1.732,1.732s1.732-.779,1.732-1.732v-6.148h1.014c.862,0,1.562-.699,1.562-1.562h0c0-.862-.699-1.562-1.562-1.562Z"/>
    <path class="cls-3" d="m31.835,24.88h0c-.018,0-.021,0,0,0Z"/>
    <path class="cls-3" d="m38.847,17.324h-13.982c-.628-.002-1.07.311-1.409.785-.284.398-.056,1.282.337,1.636.295.266.618.336.996.334,1.625-.009,3.249-.004,4.874-.003.397,0,.52.119.522.527.004.851-.019,1.702.01,2.552.017.505.138,1.005.559,1.346.344.306.903.365,1.081.376v.002c.006,0,.012,0,.021,0,.009,0,.015,0,.021,0v-.002c.178-.011.738-.07,1.081-.376.42-.341.541-.841.559-1.346.029-.85.006-1.701.01-2.552.002-.408.125-.527.522-.527,1.625,0,3.249-.005,4.874.003.377.002.7-.068.996-.334.393-.354.62-1.238.337-1.636-.339-.475-.781-.788-1.409-.785Z"/>
    <path class="cls-3" d="m31.878,24.88h0c.021,0,.018,0,0,0Z"/>
    <path class="cls-3" d="m25.243,15.84l13.212.004c.848.014,1.399-.648,1.403-1.426.008-1.753,0-3.506.005-5.259,0-.289-.03-.561-.134-.836-.192-.506-.666-.863-1.212-.863-4.352,0-8.704,0-13.056-.002-.308,0-.577.062-.86.213-.529.283-.72.746-.727,1.272-.025,1.839-.009,3.68-.011,5.519,0,.658.672,1.385,1.379,1.378Zm2.161-5.214c.009-.206.137-.278.354-.277l8.076.006c.36,0,.546.18.549.536.004.503.004,1.006,0,1.51-.002.336-.197.533-.534.534-2.709.002-5.419,0-8.128.006-.202,0-.302-.082-.313-.26-.041-.684-.033-1.369-.004-2.054Z"/>
    <path class="cls-3" d="m58.51,9.237c0-.834-.076-2.098-1.271-2.098-.353,0-.404-.002-.757-.002-.807,0-1.468.673-1.47,1.48-.004,2.257.015,5.307.015,5.307,0,0-1.605-.002-3.014-.003.465-1.335.733-2.715.817-4.141.062-1.06-.767-1.978-1.828-2.024-.235-.01-.471-.013-.706-.013-1.256-.001-2.512,0-3.768,0h0c-1.058.001-1.53,0-2.932,0-.855,0-1.543.694-1.543,1.549s.689,1.549,1.544,1.549c1.963,0,3.205,0,4.804.001.293,0,.491.237.433.525-.159.793-.358,1.572-.658,2.326-.701,1.761-1.756,3.281-3.111,4.597-.777.753-1.615,1.425-2.497,2.039-.436.303-.803.971-.803,1.502v.142c0,1.253,1.379,2.158,2.441,1.494.008-.005.017-.011.025-.016,2.581-1.674,4.718-3.773,6.294-6.41,1.334.002,4.498-.002,4.498-.002,0,0-.012,2.849-.01,6.083,0,.722.582,1.327,1.304,1.326.231,0,.587-.002.958-.002.683-.001,1.237-.555,1.237-1.238v-4.967c0-3.383,0-5.62,0-9.002Z"/>
    <path class="cls-3" d="m77.296,13.55h-.794v-4.735c0-.892-.73-1.621-1.621-1.621h-.184c-.892,0-1.621.73-1.621,1.621v14.291c0,.892.73,1.621,1.621,1.621h.184c.892,0,1.621-.73,1.621-1.621v-6.13h.794c.892,0,1.621-.73,1.621-1.621v-.184c0-.892-.73-1.621-1.621-1.621Z"/>
    <path class="cls-3" d="m70.826,20.131l-6.709.261v-11.086c0-.892-.73-1.621-1.621-1.621s-1.621.73-1.621,1.621v12.745c0,.825.626,1.503,1.426,1.602.097.03.199.048.306.044l8.346-.324c.895-.035,1.592-.788,1.557-1.683-.035-.895-.788-1.592-1.683-1.557Z"/>
  </g>
</svg>