<?xml version="1.0" encoding="UTF-8"?>
<svg id="_레이어_1" data-name="레이어 1" xmlns="http://www.w3.org/2000/svg" viewBox="0 0 48.419 35">
  <defs>
    <style>
      .cls-1 {
        fill: #fee671;
      }

      .cls-1, .cls-2, .cls-3 {
        stroke-width: 0px;
      }

      .cls-2 {
        fill: #176eb3;
      }

      .cls-3 {
        fill: #fdf6b5;
      }
    </style>
  </defs>
  <g>
    <path class="cls-3" d="m44.302,0H4.117C1.843,0,0,1.744,0,3.895v23.369c0,2.151,1.843,3.895,4.117,3.895h40.185c2.274,0,4.117-1.744,4.117-3.895V3.895c0-2.151-1.843-3.895-4.117-3.895Z"/>
    <path class="cls-1" d="m44.302,31.159H4.117c-2.274,0-4.117-1.744-4.117-3.895v3.841c0,2.151,1.843,3.895,4.117,3.895h40.185c2.274,0,4.117-1.744,4.117-3.895v-3.841c0,2.151-1.843,3.895-4.117,3.895Z"/>
  </g>
  <g>
    <path class="cls-2" d="m35.836,10.418c-.046-1.243-.587-2.233-1.617-2.944-.724-.5-1.538-.756-2.401-.894-1.559-.249-3.054-.077-4.433.709-1.158.66-1.841,1.657-1.886,3.026l.011,2.972c.071,1.171.674,2.052,1.617,2.693.78.53,1.662.785,2.61.872,1.217.112,2.393.031,3.543-.413,1.558-.602,2.591-1.917,2.564-3.69-.012-.777.022-1.555-.008-2.331Zm-3.446,2.391c-.003.683-.522,1.265-1.208,1.362-.813.114-1.571.084-2.099-.688-.12-.175-.123-.359-.142-.545-.078-.775-.074-1.555-.016-2.327.064-.863.449-1.213,1.365-1.404.842-.176,1.669.19,2.003.882.071.147.1.296.099.457v2.264Z"/>
    <path class="cls-2" d="m18.465,16.936c-.064-.677-.609-1.156-1.343-1.057-.959.128-1.933.181-2.884.256-.206.016-.362-.034-.424-.24-.152-.504.008-.719.527-.72.315,0,.631-.003.946-.001.349.002.671-.114.957-.286.991-.595,1.343-1.496,1.173-2.75-.112-.832-1.067-1.929-2.189-1.883l-5.979-.005c-1.381-.099-2.468,1.049-2.461,2.442.006,1.123.596,1.987,1.648,2.37.518.188,1.049.11,1.573.104.416-.004.439.209.44.531.001.326-.031.534-.444.524-.923-.023-1.847-.012-2.77-.005-.751.006-1.22.493-1.231,1.262-.01.654.474,1.171,1.168,1.175,3.396.02,6.794.054,10.174-.369.794-.1,1.192-.58,1.12-1.346Zm-8.163-3.847c-.205-.003-.422-.113-.415-.395.008-.307.215-.358.463-.358h3.575c.235,0,.433.058.452.339.02.303-.217.409-.433.413-1.214.019-2.429.019-3.642,0Z"/>
    <path class="cls-2" d="m34.432,24.225c-2.151,0-4.302,0-6.453,0-1.099,0-1.767-.659-1.774-1.758-.006-1.047-.005-2.094,0-3.141.003-.849.418-1.412,1.211-1.657.723-.223,1.693.08,2.08.683.155.242.257.52.253.827-.008.619.016,1.239-.008,1.857-.014.352.095.467.457.466,3.615-.012,7.23-.008,10.845-.007.613,0,1.142.363,1.296.882.199.67.011,1.287-.516,1.637-.25.166-.536.213-.837.213-2.185-.004-4.37-.002-6.554-.002Z"/>
    <path class="cls-2" d="m24.519,11.694c-.421-.541-1.028-.596-1.651-.556-.309.02-.415-.095-.409-.405.016-.923.008-1.846.005-2.768-.003-.751-.507-1.424-1.244-1.671-.67-.225-1.543.056-1.966.634-.345.47-.383,1.016-.383,1.571l.008,8.778c.007.572.158,1.127.637,1.499.61.474,1.312.575,1.995.215.649-.343.976-.926.958-1.69-.019-.821-.01-1.643-.003-2.465.008-1.001-.136-.854.848-.867.056,0,.113.002.169-.001.539-.03.946-.289,1.189-.76.271-.526.208-1.05-.153-1.513Z"/>
    <path class="cls-2" d="m22.469,23.009c-.025-.709-.003-1.419-.005-2.128-.003-.805-.497-1.305-1.295-1.305h-12.944c-.261,0-.517.017-.743.171-.46.312-.642.872-.47,1.456.149.507.638.873,1.19.873,3.357.002,6.714.001,10.071.002.597,0,.612,0,.595.594-.03,1.037.411,1.721,1.413,1.934.959.205,2.23-.396,2.189-1.597Z"/>
    <path class="cls-2" d="m42.054,8.013c-.007-1.314-1.3-2.132-2.495-1.594-.753.34-1.038.971-1.041,1.74-.011,3.186-.001,6.371-.01,9.557-.001.369.064.714.186,1.055.244.684,1.244,1.192,1.94.988,1.019-.299,1.421-.829,1.422-1.886l-.002-9.861Z"/>
    <path class="cls-2" d="m16.554,7.304c-.732-.002-1.465-.01-2.197.004-.282.006-.427-.06-.467-.374-.055-.435-.284-.766-.725-.932-.638-.24-1.292-.198-1.926-.062-.491.105-.831.46-.849,1.005-.01.289-.138.364-.399.361-.789-.008-1.577-.002-2.366-.002-.158,0-.31.009-.458.087-.552.29-.819.814-.685,1.366.129.532.639.93,1.225.932h8.855c.722-.005,1.246-.542,1.236-1.24-.009-.648-.545-1.142-1.246-1.144Z"/>
  </g>
</svg>