<?xml version="1.0" encoding="UTF-8"?>
<svg id="_레이어_1" data-name="레이어 1" xmlns="http://www.w3.org/2000/svg" viewBox="0 0 195 45">
  <defs>
    <style>
      .cls-1 {
        fill: #ed68aa;
      }

      .cls-1, .cls-2 {
        stroke-width: 0px;
      }

      .cls-2 {
        fill: #fce8f2;
      }
    </style>
  </defs>
  <path class="cls-1" d="m194.941,29.948c-.02-3.782-.039-7.565-.058-11.347-1.156,1.196-2.711.981-4.138.994-1.368.013-1.982.253-1.848,1.816.193,2.246.034,4.52.06,6.782.014,1.159-.542,1.721-1.709,1.729-1.113.007-1.639-.431-1.835-1.617-.308-1.869.066-3.689.042-5.529-.064-4.829-.167-9.657-.22-14.486-.016-1.474.629-2.053,1.968-1.928,1.113.104,1.526.757,1.521,1.781-.009,2.159-.003,4.319.007,6.478.009,1.964.289,2.242,2.336,1.965,1.207-.163,2.385-.39,3.569.056.653-4.608.194-9.24.284-13.86C194.97.18,194.695,0,192.034,0H3.319C.093,0,.012.081,0,3.304c0,.051,0,.103,0,.154C0,16.418,0,29.378.001,42.338c0,.463-.005.927.027,1.388.055.777.441,1.242,1.299,1.236.633-.005,1.267.01,1.9.01l189.896.029c1.306.013,1.708-.391,1.729-1.527.02-1.078.096-2.154.147-3.232-.02-3.431-.04-6.862-.059-10.293Zm-26.411-21.542c2.215-.017,4.43-.043,6.645-.084,1.258-.023,2.499.004,3.755-.352,1.544-.438,3.423,1.32,3.221,2.931-.378,3.005-.868,5.995-.862,9.037.003,1.586-1.189,1.531-2.347,1.555-1.196.024-1.586-.551-1.505-1.628.154-2.048.202-4.106.436-6.144.259-2.262.179-2.43-2.089-2.434-.475,0-.949,0-1.424,0-1.42.009-2.836-.057-4.211.465-.468.177-1.044.128-1.568.11-1.123-.039-2.103-.579-2.063-1.672.035-.972.779-1.774,2.013-1.783Zm-10.894,2.662c-.048-.632-.448-.914-1.056-.891-1.156.043-2.313.19-3.466.167-1.014-.02-2.4.416-2.468-1.32-.067-1.724,1.206-1.644,2.394-1.629,1.059.013,2.094-.159,3.139-.289,1.054-.131,1.462-.664,1.454-1.638-.004-.408-.035-.849.106-1.218.295-.771.863-1.339,1.781-1.234,1.036.119,1.582.795,1.596,1.787.032,2.206.01,4.412.01,6.618.024,0,.048,0,.072,0,0,2.001-.012,4.002.005,6.004.009,1.118-.331,1.977-1.645,1.963-1.299-.014-1.625-.873-1.645-1.986-.045-2.486-.07-2.514-2.619-1.975-1.146.242-2.29.336-3.449.28-.894-.043-1.496-.543-1.678-1.372-.189-.858.456-1.317,1.126-1.661,1.178-.604,2.482-.318,3.729-.43.576-.051,1.159-.039,1.731-.113.608-.079.931-.446.885-1.064ZM3.175,18.232c-.572-3.6-1.121-7.2-1.017-10.867.036-1.279.296-2.275,1.778-2.423,1.151-.115,1.889.78,1.932,2.277.09,3.164-.296,3.017,3.297,2.966.053,0,.106,0,.158-.001,3.365-.09,4.577.805,4.267-3.954-.071-1.086.405-1.612,1.564-1.609,1.119.003,2.06.194,2.095,1.512.045,1.694.011,3.39.011,5.728-.082,1.504.165,3.657-.333,5.8-.323,1.392-1.119,2.167-2.469,2.467-2.965.66-5.981.487-8.97.319-1.195-.067-2.114-.959-2.313-2.216Zm20.025,15.269c-2.99.116-5.996-.137-8.962.53-.793.178-1.663.094-2.486-.212-1.268-.47-2.014-1.223-1.935-2.638.061-1.074.012-2.154.012-3.231h-.047c0-1.18.01-2.36-.003-3.539-.012-1.172.801-1.509,1.757-1.53,1.018-.022,1.911.292,1.93,1.53.024,1.589.038,3.173.174,4.762.089,1.034.444,1.512,1.526,1.434,2.504-.18,5.042.306,7.52-.519,1.08-.359,2.261.443,2.408,1.399.192,1.253-.455,1.958-1.896,2.014Zm6.101-19.434c-.997.07-1.987.247-2.984.3-1.098.058-1.431.63-1.417,1.615.037,2.519.012,5.039.045,7.559.016,1.23-.357,2.249-1.763,2.248-1.415,0-1.752-1.038-1.753-2.258-.006-6.067-.03-12.135-.06-18.202-.006-1.148.04-2.307,1.6-2.315,1.515-.008,1.698,1.109,1.693,2.274,0,.206,0,.411,0,.788.073,1.212.184,2.595.229,3.979.03.948.538,1.259,1.425,1.213.999-.051,2-.136,2.998-.113.972.022,1.621.503,1.568,1.537-.048.943-.664,1.31-1.581,1.375Zm5.513-4.724c3.544.117,6.986-.89,10.523-.843,1.094.014,1.928.313,2.034,1.448.118,1.263-.924,1.525-1.882,1.61-3.087.275-6.182.476-9.09.691-.662-.046-1.135-.068-1.605-.114-.871-.085-1.319-.556-1.332-1.418-.013-.896.517-1.402,1.352-1.374Zm12.389,16.65c-3.266.045-6.429,1.065-9.725.926-2.446-.103-3.448-.766-3.629-3.105-.174-2.246-.134-4.513-.104-6.769.017-1.313,1.033-1.737,2.163-1.761,2.211-.047,4.399-.499,6.62-.384.843,0,1.685-.001,2.528,0,.94.002,2.07-.196,2.13,1.174.064,1.446-1.024,1.591-2.167,1.568-1.74-.037-3.467.082-5.197.275-2.47.275-2.75.529-2.752,2.935,0,.154,0,.308,0,.462.006,2.68.404,2.961,3.193,2.483,2.283-.392,4.594-.537,6.916-.509.93.012,1.697.162,1.685,1.32-.012,1.098-.694,1.373-1.659,1.387Zm7.915,2.152c.019,1.141-.425,1.768-1.635,1.766-1.203-.002-1.666-.639-1.662-1.767.011-3.29-.001-6.58-.03-9.87-.029-3.286.143-6.575-.25-9.854-.139-1.162.216-2.035,1.666-2.068,1.424-.033,1.586.818,1.604,1.92.069,4.157.484,8.307.294,11.294,0,3.645-.028,6.112.012,8.579Zm17.582-12.12c.058,1.892-.984,3.558-1.021,5.434-.026,1.345-.961,1.964-2.364,1.81-1.218-.134-1.927-1.021-1.7-2.299.5-2.817.926-5.656,1.645-8.422.472-1.815.414-3.668.826-5.465.222-.967.256-2.127,1.554-2.409,2.261-.492,3.364.686,2.729,2.857q-.895,3.062,1.906,4.687c2.159,1.254,4.33,2.49,6.464,3.784.93.564,1.664,1.315,1.266,2.54-.291.896-1.027,1.09-1.894,1.091-1.825-.145-3.043-1.498-4.567-2.241-1.213-.591-2.337-1.358-3.492-2.059-.874-.531-1.379-.168-1.352.692Zm17.832,18.316c-1.943.091-3.894.025-5.842.025v.098c-1.843,0-3.686-.008-5.528.003-1.126.007-1.809-.493-1.937-1.594-.29-2.493-.647-4.989-.458-7.501.085-1.137.878-1.957,2.042-1.988,1.294-.034,2.006.827,2.054,2.079.055,1.435.068,2.874.019,4.308-.042,1.237.464,1.713,1.757,1.764,2.185.087,4.286-.318,6.4-.718.412-.078.83-.145,1.248-.162,1.248-.049,2.106.641,2.217,1.735.12,1.179-.806,1.896-1.972,1.95Zm.653-7.803c-1.208-.032-1.894-.67-1.877-1.986.045-3.445.019-6.891.008-10.337-.006-1.873-.171-2.053-2.082-2.008-1.837.042-3.68-.132-5.498.426-1.035.317-2.259-.569-2.392-1.499-.151-1.052.623-1.822,1.966-1.861,1.635-.047,3.274.02,4.908-.054,2.402-.109,2.817-.569,2.805-2.896-.004-.826-.097-1.664.704-2.249.713-.521,1.509-.438,2.273-.231.703.19.699.858.703,1.412.019,3.442.01,6.885.01,10.327l.28,8.947c.014,1.245-.5,2.046-1.806,2.011Zm14.919-8.53c-.344.916-.691,1.831-1.041,2.745-.363.946-.908,1.754-2.092,1.301-1.183-.453-1.206-1.374-.783-2.434,1.221-3.059,2.417-6.128,3.581-9.208.689-1.824.56-1.971-1.37-1.772-1.413.146-2.825.313-4.23.519-1.231.181-2.229-.195-2.367-1.417-.145-1.285,1.028-1.326,1.988-1.416,2.199-.206,4.399-.41,6.685-.623,2.472-.024,3.592,1.637,2.766,3.988-1.236,3.517-2.154,2.922,1.915,5.294,1.081.63,2.178,1.235,3.284,1.82.905.479,1.454,1.197.965,2.129-.534,1.018-1.582.979-2.483.499-1.384-.737-2.693-1.605-4.042-2.406-1.587-.942-2.128-.745-2.777.981Zm5.802,16.786c-4.759-2.34-5.886-7.535-2.197-10.885,2.31-2.098,4.944-2.268,7.447-.404.7.521,1.599.487,2.284,1.001,1.368,1.026,1.966,2.376,1.963,4.584.851,4.784-5.992,7.428-9.497,5.704Zm9.595-11.461c-1.306-.047-1.879-.618-1.879-1.919.002-2.356-.081-4.713-.169-7.067-.049-1.321-.95-1.307-1.91-1.009-1.316.408-2.655.635-4.033.662-1.241.024-2.125-.583-2.204-1.739-.082-1.194.819-1.881,2.004-1.964,1.524-.107,3.058-.113,4.586-.098,1.154.011,1.624-.479,1.57-1.59-.052-1.077-.015-2.158-.022-3.237-.008-1.169.627-1.624,1.779-1.674,1.205-.051,1.996.343,2.011,1.59.035,2.826.011,5.653.011,8.479.036,0,.071,0,.106,0,0,2.569-.032,5.139.014,7.708.023,1.301-.501,1.907-1.866,1.858Zm24.043-4.592c-1.268-.332-1.208-1.164-.952-2.181.525-2.09.967-4.201,1.429-6.306.369-1.683.093-1.982-2.335-1.904-1.228.103-3.061.276-4.896.401-.516.035-1.051-.02-1.562-.115-.783-.145-1.425-.516-1.366-1.415.056-.854.531-1.604,1.428-1.578,3.338.095,6.582-.784,9.894-.814,2.132-.02,3.572,2.155,2.754,4.556-.889,2.611-.98,5.348-1.755,7.959-.366,1.234-1.268,1.757-2.639,1.397Zm14.256,15.739c-2.786.133-5.488.947-8.304.928-4.027-.027-4.298-.24-4.361-4.185-.053-3.335.237-3.618,3.656-4.358,1.483-.321,2.932-.781,4.442-1.029.826-.136,1.457-.716,1.378-1.626-.092-1.066-1.002-.828-1.708-.869-1.44-.084-2.825.228-4.218.52-.609.128-1.259.192-1.875.135-.757-.071-1.231-.573-1.321-1.321-.086-.714.317-1.19.969-1.419.692-.242,1.404-.516,2.126-.578,2.309-.196,4.624-.362,6.941-.421,1.803-.046,2.342.55,2.401,2.3.01.308,0,.617.005.925.081,4.496.012,4.071-4.7,5.304-1.107.29-2.197.689-3.339.865-1.222.189-1.307,1.042-1.183,1.971.138,1.032.963.928,1.703.873,2.463-.184,4.842-1.038,7.353-.862.883.062,1.953-.133,1.997,1.16.043,1.249-.791,1.632-1.96,1.688Zm22.363-6.513c-4.756-.181-9.43.802-14.225.921-1.189-.085-2.772.402-2.972-1.554-.123-1.202.841-1.713,3.115-1.74q2.836-.033,2.838-2.845c.001-1.541.032-3.082-.008-4.622-.029-1.117.489-1.596,1.608-1.588,1.106.008,1.861.381,1.873,1.58.017,1.797.06,3.597-.002,5.392-.044,1.263.451,1.789,1.761,1.698,1.944-.135,3.892-.222,5.84-.278,1.045-.03,2.255-.162,2.298,1.387.039,1.422-.963,1.694-2.125,1.649Z"/>
  <path class="cls-2" d="m194.883,18.601c-1.156,1.196-2.712.98-4.138.993-1.368.012-1.982.253-1.848,1.816.193,2.246.034,4.52.06,6.782.014,1.159-.542,1.721-1.709,1.729-1.113.007-1.639-.431-1.835-1.617-.308-1.869.066-3.689.042-5.53-.063-4.829-.167-9.657-.22-14.486-.016-1.474.629-2.053,1.968-1.928,1.113.104,1.526.757,1.522,1.781-.009,2.159-.003,4.318.007,6.478.009,1.964.289,2.242,2.336,1.965,1.207-.163,2.385-.39,3.569.056.196.64.343,1.286.247,1.961Z"/>
  <path class="cls-2" d="m17.261,11.861c-.082,1.504.165,3.657-.333,5.8-.323,1.392-1.119,2.167-2.47,2.467-2.965.66-5.981.487-8.97.319-1.195-.067-2.113-.959-2.313-2.216-.571-3.6-1.121-7.2-1.017-10.867.036-1.279.296-2.275,1.778-2.423,1.151-.115,1.889.78,1.932,2.277.091,3.164-.296,3.017,3.297,2.966.053,0,.105,0,.158-.001,3.365-.09,4.577.805,4.267-3.954-.071-1.086.405-1.612,1.564-1.609,1.119.003,2.06.194,2.095,1.513.045,1.694.011,3.389.011,5.728Zm-6.191,1.096c-1.152.109-2.302.283-3.456.306-1.078.022-1.675.479-1.455,1.487.243,1.112-.42,2.936,1.669,2.902,1.559-.026,3.149-.147,4.685-.572.773-.214,1.117-.653,1.219-1.406.312-2.3-.052-2.68-2.663-2.717Z"/>
  <path class="cls-2" d="m82.111,19.633c-1.825-.145-3.043-1.498-4.567-2.241-1.213-.591-2.337-1.358-3.492-2.059-.874-.531-1.379-.168-1.352.692.058,1.892-.984,3.558-1.021,5.434-.026,1.345-.961,1.964-2.364,1.81-1.218-.134-1.927-1.021-1.7-2.299.5-2.817.926-5.656,1.645-8.422.472-1.815.414-3.668.826-5.465.222-.967.256-2.127,1.554-2.409,2.261-.492,3.364.686,2.729,2.857q-.895,3.062,1.906,4.687c2.159,1.254,4.33,2.49,6.464,3.784.93.564,1.664,1.315,1.266,2.54-.291.896-1.027,1.09-1.894,1.091Z"/>
  <path class="cls-2" d="m147.136,31.222c-.053-3.335.237-3.618,3.656-4.358,1.483-.321,2.932-.782,4.442-1.029.826-.135,1.457-.715,1.378-1.626-.092-1.066-1.002-.829-1.708-.87-1.44-.084-2.825.228-4.218.52-.609.128-1.259.192-1.875.135-.757-.071-1.231-.572-1.321-1.321-.086-.714.317-1.19.969-1.419.692-.242,1.404-.516,2.126-.578,2.309-.196,4.624-.362,6.941-.421,1.802-.046,2.342.55,2.401,2.3.01.308,0,.617.005.925.081,4.496.012,4.071-4.7,5.304-1.107.29-2.197.689-3.339.866-1.222.189-1.308,1.042-1.183,1.971.138,1.032.963.928,1.703.873,2.463-.184,4.842-1.038,7.353-.862.883.062,1.953-.133,1.997,1.16.043,1.249-.791,1.632-1.96,1.688-2.786.133-5.488.947-8.304.928-4.027-.027-4.298-.24-4.361-4.185Z"/>
  <path class="cls-2" d="m121.403,29.088c.851,4.784-5.992,7.428-9.497,5.705-4.759-2.34-5.886-7.535-2.197-10.886,2.31-2.098,4.944-2.268,7.447-.404.7.521,1.599.487,2.284,1.001,1.368,1.026,1.966,2.376,1.963,4.584Zm-9.777-.485c-.024,1.985.596,2.862,2.222,3.14,1.691.289,3.14-.321,3.586-1.509.584-1.557,0-2.713-1.843-3.674-.276-.144-.587-.274-.792-.492-.646-.684-1.256-.451-1.968-.089-1.146.583-1.191,1.582-1.204,2.624Z"/>
  <path class="cls-2" d="m92.712,15.579c0-3.442.009-6.885-.01-10.327-.003-.554,0-1.222-.703-1.412-.763-.206-1.56-.29-2.273.231-.801.586-.709,1.423-.704,2.249.012,2.328-.403,2.788-2.805,2.896-1.633.074-3.273.007-4.908.054-1.343.038-2.117.809-1.966,1.861.133.93,1.357,1.817,2.392,1.499,1.819-.557,3.662-.383,5.498-.426,1.911-.045,2.076.136,2.082,2.008.011,3.446.037,6.892-.008,10.337-.017,1.317.669,1.955,1.877,1.986,1.306.035,1.82-.766,1.806-2.011l-.28-8.947Z"/>
  <path class="cls-2" d="m123.354,13.765c0,2.57-.032,5.14.014,7.708.023,1.301-.501,1.907-1.866,1.858-1.306-.047-1.879-.618-1.879-1.919.002-2.356-.081-4.712-.169-7.067-.049-1.321-.95-1.307-1.91-1.009-1.316.408-2.655.635-4.033.662-1.241.024-2.125-.583-2.204-1.739-.082-1.194.819-1.881,2.005-1.964,1.524-.107,3.058-.113,4.586-.098,1.154.011,1.624-.479,1.57-1.59-.052-1.077-.015-2.158-.022-3.237-.008-1.169.627-1.625,1.78-1.674,1.205-.051,1.996.343,2.012,1.59.035,2.826.011,5.653.011,8.479.035,0,.071,0,.106,0Z"/>
  <path class="cls-2" d="m161.197,11.42c0,2.001-.012,4.002.005,6.004.009,1.118-.331,1.977-1.645,1.963-1.299-.014-1.625-.873-1.645-1.986-.045-2.486-.07-2.514-2.619-1.975-1.146.243-2.29.336-3.449.28-.894-.043-1.496-.543-1.678-1.372-.189-.858.456-1.317,1.126-1.661,1.178-.605,2.482-.318,3.729-.43.576-.052,1.159-.039,1.731-.113.608-.079.931-.446.885-1.064-.048-.632-.448-.914-1.056-.891-1.156.043-2.313.19-3.466.167-1.014-.02-2.4.416-2.468-1.32-.067-1.724,1.206-1.644,2.394-1.629,1.059.013,2.094-.159,3.139-.288,1.054-.131,1.462-.664,1.454-1.638-.003-.408-.035-.849.106-1.218.295-.771.863-1.339,1.781-1.234,1.036.119,1.582.795,1.596,1.787.032,2.206.01,4.412.01,6.618.024,0,.048,0,.072,0Z"/>
  <path class="cls-2" d="m24.661,6.076c.073,1.212.184,2.595.229,3.979.031.948.538,1.259,1.425,1.213.999-.051,2-.136,2.998-.113.972.022,1.62.503,1.568,1.537-.047.943-.664,1.31-1.581,1.375-.997.07-1.987.247-2.984.3-1.097.058-1.431.629-1.417,1.615.037,2.519.012,5.039.045,7.558.016,1.23-.357,2.249-1.763,2.248-1.415,0-1.752-1.038-1.753-2.258-.006-6.067-.03-12.135-.06-18.202-.006-1.148.041-2.307,1.6-2.315,1.515-.008,1.698,1.109,1.693,2.274,0,.206,0,.411,0,.788Z"/>
  <path class="cls-2" d="m106.476,5.702c2.472-.024,3.592,1.637,2.766,3.988-1.236,3.517-2.154,2.922,1.915,5.294,1.081.63,2.178,1.235,3.284,1.82.905.479,1.454,1.197.965,2.129-.534,1.018-1.582.979-2.483.499-1.384-.737-2.693-1.605-4.042-2.406-1.587-.942-2.128-.745-2.777.981-.344.916-.691,1.831-1.042,2.745-.363.946-.908,1.754-2.092,1.301-1.183-.453-1.206-1.374-.783-2.434,1.221-3.059,2.417-6.128,3.581-9.208.689-1.824.56-1.971-1.37-1.772-1.413.146-2.825.312-4.23.519-1.231.181-2.229-.196-2.367-1.417-.145-1.285,1.028-1.326,1.988-1.416,2.199-.206,4.399-.41,6.685-.623Z"/>
  <path class="cls-2" d="m174.36,11.285c-1.42.009-2.836-.057-4.211.465-.468.178-1.044.128-1.568.11-1.123-.039-2.103-.579-2.063-1.673.035-.973.779-1.774,2.013-1.783,2.215-.017,4.43-.043,6.645-.084,1.258-.023,2.499.005,3.755-.352,1.544-.438,3.423,1.32,3.221,2.931-.378,3.005-.868,5.996-.862,9.037.003,1.586-1.189,1.531-2.347,1.555-1.196.024-1.586-.551-1.505-1.628.154-2.048.202-4.106.436-6.144.259-2.262.179-2.43-2.089-2.434-.475,0-.949,0-1.424,0Z"/>
  <path class="cls-2" d="m42.528,14.899c.843,0,1.685-.001,2.528,0,.94.002,2.07-.196,2.13,1.174.064,1.446-1.024,1.591-2.167,1.568-1.74-.036-3.467.082-5.197.275-2.47.275-2.75.529-2.752,2.935,0,.154,0,.308,0,.462.006,2.68.404,2.961,3.193,2.483,2.284-.392,4.594-.538,6.915-.509.93.011,1.697.163,1.685,1.32-.012,1.098-.694,1.373-1.659,1.386-3.266.045-6.429,1.065-9.725.926-2.446-.103-3.448-.766-3.629-3.105-.174-2.247-.134-4.513-.104-6.769.017-1.313,1.033-1.737,2.163-1.761,2.211-.047,4.399-.499,6.62-.384Z"/>
  <path class="cls-2" d="m167.939,28.887c-1.189-.085-2.772.402-2.972-1.554-.123-1.202.841-1.713,3.115-1.74q2.836-.033,2.838-2.845c.001-1.541.032-3.082-.008-4.622-.029-1.117.489-1.596,1.608-1.588,1.106.008,1.861.381,1.873,1.58.017,1.797.06,3.597-.002,5.392-.044,1.263.451,1.789,1.761,1.698,1.944-.135,3.892-.222,5.84-.278,1.045-.03,2.255-.162,2.298,1.387.039,1.422-.964,1.694-2.125,1.649-4.756-.181-9.43.802-14.225.921Z"/>
  <path class="cls-2" d="m84.69,34.464c-1.843,0-3.686-.009-5.528.003-1.126.007-1.809-.493-1.937-1.594-.29-2.492-.647-4.989-.458-7.501.085-1.137.878-1.957,2.042-1.988,1.294-.034,2.006.827,2.054,2.079.055,1.435.068,2.874.019,4.308-.042,1.237.464,1.713,1.757,1.764,2.185.087,4.286-.318,6.4-.718.412-.078.83-.145,1.248-.162,1.248-.049,2.106.641,2.217,1.735.12,1.179-.806,1.896-1.972,1.95-1.943.091-3.894.025-5.842.025,0,.033,0,.065,0,.098Z"/>
  <path class="cls-2" d="m143.688,8.349c-1.228.103-3.061.276-4.896.401-.516.035-1.051-.02-1.562-.115-.783-.145-1.425-.516-1.366-1.415.056-.854.531-1.604,1.428-1.578,3.338.095,6.582-.784,9.894-.814,2.131-.02,3.572,2.155,2.754,4.556-.889,2.611-.98,5.348-1.755,7.959-.366,1.234-1.268,1.757-2.639,1.397-1.268-.333-1.208-1.164-.952-2.181.525-2.09.967-4.201,1.429-6.306.369-1.683.093-1.982-2.335-1.904Z"/>
  <path class="cls-2" d="m9.782,27.95c0-1.18.01-2.36-.003-3.539-.013-1.172.801-1.509,1.757-1.53,1.018-.022,1.911.291,1.93,1.53.024,1.589.038,3.173.174,4.762.089,1.034.444,1.511,1.526,1.434,2.504-.18,5.042.306,7.52-.519,1.08-.359,2.261.443,2.408,1.399.192,1.253-.455,1.958-1.896,2.014-2.99.116-5.996-.137-8.962.529-.793.178-1.663.094-2.486-.212-1.268-.47-2.014-1.223-1.935-2.638.061-1.074.012-2.154.012-3.231h-.047Z"/>
  <path class="cls-2" d="m55.105,19.566c0,3.645-.028,6.112.012,8.579.019,1.141-.425,1.768-1.635,1.766-1.203-.002-1.666-.639-1.662-1.767.011-3.29-.001-6.58-.03-9.87-.029-3.285.143-6.575-.25-9.854-.139-1.162.216-2.035,1.666-2.069,1.424-.033,1.586.818,1.604,1.92.069,4.157.484,8.307.294,11.294Z"/>
  <path class="cls-2" d="m36.399,12.249c-.662-.046-1.135-.068-1.605-.114-.871-.085-1.319-.557-1.332-1.418-.013-.896.517-1.402,1.352-1.374,3.544.117,6.986-.89,10.523-.843,1.094.014,1.928.313,2.034,1.448.118,1.263-.924,1.525-1.882,1.61-3.087.275-6.182.476-9.09.691Z"/>
  <path class="cls-1" d="m11.069,12.957c2.61.037,2.975.417,2.663,2.717-.102.753-.446,1.192-1.219,1.406-1.536.425-3.126.546-4.685.572-2.089.034-1.426-1.79-1.669-2.902-.22-1.008.377-1.465,1.455-1.487,1.154-.023,2.304-.198,3.456-.306Z"/>
  <path class="cls-1" d="m111.625,28.603c.014-1.042.059-2.041,1.205-2.624.712-.362,1.322-.595,1.968.089.205.217.515.347.792.492,1.844.961,2.427,2.117,1.843,3.674-.445,1.188-1.895,1.798-3.586,1.509-1.625-.278-2.246-1.155-2.222-3.14Z"/>
</svg>