<?xml version="1.0" encoding="UTF-8"?>
<svg id="_레이어_1" data-name="레이어 1" xmlns="http://www.w3.org/2000/svg" viewBox="0 0 186.919 45.084">
  <defs>
    <style>
      .cls-1 {
        fill: #f8c435;
        stroke-width: 0px;
      }

      .cls-2 {
        font-family: Pretendard-Bold-KSCpc-EUC-H, Pretendard;
        font-size: 22px;
        font-weight: 700;
        letter-spacing: -.025em;
      }
    </style>
  </defs>
  <path class="cls-1" d="m186.863,10.068c-.019-2.311-1.424-3.584-3.714-3.788-1.024-.091-2.059-.045-3.089-.065-.8-.016-1.602-.079-1.818-1.054C177.285.838,174.268-.012,170.317,0L7.521.039c-1.724,0-3.441-.053-4.959.989C1.137,2.008-.052,3.418.137,5.03c.201,1.71,2.138.862,3.242,1.062,3.776.686,4.647,1.535,4.651,5.389.009,7.293.007,14.587.001,21.88-.003,4.263-1.371,5.669-5.632,5.818-2.678.094-2.979.684-1.574,2.99,1.549,2.542,3.94,2.917,6.671,2.915l163.57-.026c.515,0,1.03-.015,1.545-.013,2.331.011,4.337-1.203,4.849-3.179.806-3.113,2.747-3.06,5.157-3.034,2.719.03,4.236-1.411,4.257-4.055.065-8.237.056-16.474-.012-24.71Z"/>
  <text class="cls-2" transform="translate(26.578 31.057)"><tspan x="0" y="0">정사각형 그리기</tspan></text>
</svg>