<?xml version="1.0" encoding="UTF-8"?>
<svg id="_레이어_1" data-name="레이어 1" xmlns="http://www.w3.org/2000/svg" viewBox="0 0 146.149 139.621">
  <defs>
    <style>
      .cls-1 {
        fill: #feeb00;
      }

      .cls-1, .cls-2 {
        stroke-width: 0px;
      }

      .cls-2 {
        fill: #fefe00;
      }
    </style>
  </defs>
  <path class="cls-1" d="m112.651,136.506c-.873,0-1.719-.199-2.514-.59l-32.922-16.209c-1.281-.63-2.712-.964-4.14-.964s-2.859.333-4.14.964l-32.923,16.209c-.795.392-1.641.59-2.514.59-1.681,0-3.27-.744-4.36-2.042-1.077-1.282-1.529-2.97-1.239-4.63l5.853-33.465c.5-2.859-.377-5.839-2.345-7.971L4.628,59.384c-1.45-1.571-1.896-3.795-1.164-5.804.732-2.009,2.505-3.424,4.626-3.694l35.592-4.524c3.098-.394,5.786-2.295,7.19-5.085L67.995,6.246c.972-1.931,2.918-3.13,5.08-3.13s4.108,1.2,5.08,3.131l17.124,34.031c1.404,2.79,4.092,4.691,7.19,5.085l35.592,4.524c2.121.27,3.893,1.685,4.625,3.694.732,2.009.286,4.233-1.164,5.804l-26.78,29.014c-1.968,2.133-2.845,5.112-2.345,7.971l5.853,33.465c.29,1.659-.161,3.347-1.239,4.629-1.09,1.298-2.68,2.042-4.36,2.042Z"/>
  <path class="cls-2" d="m73.075,6.231c.911,0,1.822.472,2.297,1.415l17.124,34.032c1.867,3.711,5.459,6.251,9.58,6.775l35.592,4.524c2.073.264,2.982,2.759,1.565,4.294l-26.78,29.014c-2.64,2.86-3.795,6.787-3.124,10.621l5.853,33.465c.29,1.659-1.026,3.019-2.531,3.019-.375,0-.761-.084-1.138-.27l-32.923-16.209c-1.739-.856-3.627-1.284-5.516-1.284s-3.777.428-5.516,1.284l-32.923,16.209c-.376.185-.763.27-1.138.27-1.505,0-2.821-1.36-2.53-3.019l5.853-33.465c.67-3.834-.485-7.761-3.124-10.621L6.917,57.271c-1.417-1.536-.508-4.031,1.565-4.294l35.592-4.524c4.122-.524,7.713-3.063,9.58-6.775L70.778,7.646c.475-.944,1.386-1.415,2.297-1.415m0-6.231c-3.346,0-6.359,1.857-7.862,4.846l-17.124,34.032c-.937,1.863-2.732,3.132-4.8,3.395l-35.592,4.524c-3.283.417-6.026,2.608-7.16,5.717-1.133,3.109-.443,6.552,1.802,8.983l26.78,29.014c1.314,1.424,1.899,3.413,1.565,5.322l-5.853,33.465c-.449,2.568.252,5.182,1.922,7.17,1.684,2.004,4.142,3.153,6.745,3.153,1.354,0,2.663-.306,3.89-.911l32.923-16.209c.855-.421,1.811-.643,2.764-.643s1.909.223,2.764.643l32.923,16.209c1.227.604,2.536.911,3.89.911,2.603,0,5.062-1.149,6.745-3.153,1.671-1.989,2.372-4.602,1.922-7.17l-5.853-33.465c-.334-1.908.251-3.898,1.566-5.322l26.779-29.014c2.245-2.432,2.935-5.874,1.802-8.984-1.133-3.109-3.877-5.3-7.16-5.717l-35.592-4.524c-2.068-.263-3.863-1.532-4.8-3.394L80.937,4.845c-1.504-2.989-4.517-4.845-7.862-4.845h0Z"/>
</svg>