<?xml version="1.0" encoding="UTF-8"?>
<svg id="_레이어_1" data-name="레이어 1" xmlns="http://www.w3.org/2000/svg" viewBox="0 0 200.984 72.935">
  <defs>
    <style>
      .cls-1, .cls-2 {
        stroke-width: 0px;
      }

      .cls-2 {
        fill: #fff;
      }
    </style>
  </defs>
  <path class="cls-2" d="m23.27,35.29c-6.899,0-13.799,0-20.698,0C.117,35.289.002,35.406,0,37.904c-.002,2.054.249,2.313,2.28,2.314,8.399.002,16.799,0,25.198,0q1.626,0,1.628,1.671c.001,9.36,0,18.721,0,28.081,0,2.875.09,2.963,2.984,2.963,1.897,0,2.092-.197,2.092-2.139,0-9.627,0-19.254.001-28.881,0-1.658.04-1.696,1.665-1.696,8.399,0,16.798,0,25.198,0,2.668,0,2.829-.165,2.783-2.831-.031-1.753-.372-2.095-2.131-2.097-3.2-.004-6.399.002-9.599-.004-1.228-.002-1.258-.052-1.065-1.225.577-3.51,1.191-7.015,1.714-10.533.791-5.311,1.217-10.649.899-16.025-.164-2.762-1.185-4.121-3.616-4.709-.574-.139-1.189-.15-1.785-.151-12.166-.008-24.331-.006-36.497-.006-2.99,0-3.009.018-2.964,2.973.025,1.659.248,1.886,1.938,1.888,5.433.005,10.866.003,16.299.003,6.599,0,13.199-.002,19.798.001,1.403,0,1.854.428,1.945,1.817.022.332.016.666.023.999.166,8.007-1.031,15.862-2.614,23.677-.205,1.013-.693,1.318-1.708,1.313-7.066-.04-14.132-.021-21.198-.021Zm68.171,0c-7.033,0-14.067,0-21.1,0-1.934,0-2.222.282-2.231,2.168,0,.133,0,.267,0,.4-.001,2.1.253,2.36,2.346,2.361,8.433.002,16.866,0,25.3,0,1.474,0,1.479.001,1.479,1.51.002,9.394,0,18.789.001,28.183,0,2.967.057,3.023,3.022,3.023,1.847,0,2.035-.192,2.035-2.084,0-9.661,0-19.322.001-28.983,0-1.577.075-1.649,1.622-1.649,6,0,12,0,18,0,2.733,0,5.467.021,8.2-.021.498-.008,1.392-.219,1.421-.431.173-1.253.338-2.569.12-3.794-.157-.883-1.247-.675-1.994-.677-3.2-.012-6.4.002-9.6-.013-.537-.003-1.177.124-.999-.87.631-3.535,1.241-7.074,1.775-10.625.799-5.311,1.224-10.649.958-16.028-.146-2.951-1.169-4.397-3.682-4.978-.576-.133-1.19-.137-1.787-.137-12.267-.007-24.533-.005-36.8-.005-2.536,0-2.638.101-2.63,2.619.006,2.108.141,2.244,2.295,2.244,11.733.001,23.467,0,35.2.001.333,0,.667-.005,1,.007.819.03,1.308.469,1.429,1.264.075.491.076.995.087,1.494.172,8.007-1.011,15.864-2.6,23.68-.216,1.065-.715,1.369-1.768,1.363-7.033-.042-14.066-.022-21.1-.021Zm50.322-13.161c0,4.064,0,8.128,0,12.192,0,.067-.002.133.001.2.261,4.814,1.921,6.164,6.207,6.207,6.437.065,12.861-.207,19.253-.938,3.835-.439,7.646-1.093,11.462-1.686,1.276-.198,1.584-.612,1.458-1.806-.062-.591-.231-1.172-.364-1.755-.264-1.155-.576-1.331-1.747-1.143-3.054.491-6.103,1.024-9.17,1.42-6.613.854-13.252,1.284-19.926.968-1.764-.084-2.078-.357-2.079-2.148-.004-7.462-.003-14.924,0-22.386,0-1.535.265-1.79,1.815-1.79,7.1,0,14.199-.006,21.299.003,3.237.004,2.983.109,2.979-2.992-.003-1.706-.194-1.893-1.901-1.893-8-.002-15.999-.004-23.999,0-3.82.002-5.272,1.441-5.283,5.254-.013,4.097-.003,8.195-.004,12.292Zm43.089,4.619c0,7.993,0,15.986.001,23.978,0,.499.032.999.03,1.498-.004.861.365,1.284,1.274,1.228.763-.047,1.532-.003,2.299-.01,1.261-.011,1.404-.156,1.449-1.454.009-.266.006-.533.006-.799,0-7.16.018-14.321-.024-21.481-.006-.985.3-1.257,1.247-1.232,2.231.058,4.465.042,6.697.014,2.904-.036,3.272.717,3.127-3.364-.042-1.178-.337-1.457-1.526-1.461-2.766-.009-5.532-.037-8.297.015-.955.018-1.254-.268-1.248-1.243.041-6.66.024-13.321.023-19.982,0-2.408-.053-2.457-2.466-2.455-2.493.003-2.59.094-2.591,2.569-.003,8.059-.001,16.119-.001,24.178Zm-11.896,45.205c5.065,0,10.13,0,15.195,0,1.1,0,2.199.011,3.299-.003,1.338-.017,1.668-.344,1.684-1.638.008-.633-.022-1.266.004-1.898.037-.883-.448-1.28-1.245-1.377-.395-.048-.798-.029-1.198-.029-11.33-.001-22.659,0-33.989-.002-2.059,0-2.248-.187-2.249-2.213-.003-3.93,0-7.86-.001-11.789q0-2.995-3.001-2.967c-1.718.016-2.053.337-2.055,2.065-.008,4.563-.009,9.125.007,13.688.002.663.066,1.333.175,1.987.465,2.809,1.369,3.692,4.186,4.113.393.059.796.06,1.195.06,5.998.004,11.996.002,17.994.002Z"/>
  <path class="cls-1" d="m23.27,35.289c7.066,0,14.132-.019,21.198.021,1.015.006,1.503-.3,1.708-1.313,1.582-7.815,2.78-15.67,2.614-23.677-.007-.333-.001-.667-.023-.999-.092-1.389-.543-1.817-1.945-1.817-6.599-.003-13.199-.001-19.798-.001-5.433,0-10.866.003-16.299-.003-1.69-.002-1.913-.229-1.938-1.888-.045-2.955-.026-2.973,2.964-2.973,12.166,0,24.331-.002,36.497.006.596,0,1.211.012,1.785.151,2.431.588,3.453,1.948,3.616,4.709.318,5.376-.108,10.714-.899,16.025-.524,3.518-1.137,7.023-1.714,10.533-.193,1.173-.164,1.223,1.065,1.225,3.2.006,6.399,0,9.599.004,1.759.002,2.1.344,2.131,2.097.047,2.666-.115,2.831-2.783,2.831-8.399,0-16.798,0-25.198,0-1.625,0-1.665.038-1.665,1.696-.001,9.627,0,19.254-.001,28.881,0,1.942-.195,2.14-2.092,2.139-2.894,0-2.983-.088-2.984-2.963,0-9.36,0-18.721,0-28.081q0-1.671-1.628-1.671c-8.399,0-16.799.001-25.198,0C.249,40.218-.002,39.958,0,37.904c.002-2.498.117-2.615,2.571-2.615,6.899,0,13.799,0,20.698,0Z"/>
  <path class="cls-1" d="m91.441,35.289c7.033,0,14.067-.02,21.1.021,1.053.006,1.552-.298,1.768-1.363,1.589-7.816,2.772-15.673,2.6-23.68-.011-.499-.011-1.003-.087-1.494-.122-.795-.61-1.234-1.429-1.264-.333-.012-.667-.007-1-.007-11.733,0-23.467,0-35.2-.001-2.154,0-2.289-.136-2.295-2.244-.008-2.517.094-2.619,2.63-2.619,12.267,0,24.533-.002,36.8.005.597,0,1.211.004,1.787.137,2.512.581,3.536,2.026,3.682,4.978.266,5.379-.159,10.717-.958,16.028-.534,3.55-1.144,7.09-1.775,10.625-.178.995.462.868.999.87,3.2.016,6.4.001,9.6.013.747.003,1.837-.206,1.994.677.219,1.226.053,2.541-.12,3.794-.029.211-.923.423-1.421.431-2.733.042-5.466.021-8.2.021-6,0-12-.001-18,0-1.548,0-1.622.072-1.622,1.649-.002,9.661,0,19.322-.001,28.983,0,1.893-.188,2.084-2.035,2.084-2.966,0-3.022-.056-3.022-3.023,0-9.394,0-18.789-.001-28.183,0-1.509-.005-1.51-1.479-1.51-8.433,0-16.866,0-25.3,0-2.093,0-2.348-.261-2.346-2.361,0-.133,0-.267,0-.4.009-1.886.298-2.168,2.231-2.168,7.033,0,14.067,0,21.1,0Z"/>
  <path class="cls-1" d="m141.763,22.128c0-4.097-.009-8.195.003-12.292.012-3.813,1.463-5.252,5.283-5.254,8-.005,15.999-.002,23.999,0,1.707,0,1.898.188,1.901,1.893.005,3.101.258,2.996-2.979,2.992-7.1-.01-14.199-.004-21.299-.003-1.55,0-1.814.255-1.815,1.79-.003,7.462-.003,14.924,0,22.386,0,1.79.315,2.064,2.079,2.148,6.674.316,13.313-.113,19.926-.968,3.067-.396,6.116-.929,9.17-1.42,1.171-.188,1.483-.012,1.747,1.143.133.583.302,1.163.364,1.755.126,1.193-.182,1.607-1.458,1.806-3.816.594-7.627,1.248-11.462,1.686-6.393.731-12.816,1.003-19.253.938-4.286-.043-5.945-1.393-6.207-6.207-.004-.066-.001-.133-.001-.2,0-4.064,0-8.128,0-12.192Z"/>
  <path class="cls-1" d="m184.851,26.747c0-8.059-.002-16.119.001-24.178,0-2.475.098-2.566,2.591-2.569,2.413-.003,2.465.047,2.466,2.455,0,6.661.018,13.321-.023,19.982-.006.975.293,1.261,1.248,1.243,2.765-.053,5.531-.025,8.297-.015,1.189.004,1.484.283,1.526,1.461.145,4.081-.223,3.327-3.127,3.364-2.232.028-4.466.044-6.697-.014-.947-.025-1.253.248-1.247,1.232.042,7.16.024,14.32.024,21.481,0,.266.004.533-.006.799-.045,1.297-.188,1.443-1.449,1.454-.766.007-1.535-.037-2.299.01-.909.056-1.278-.367-1.274-1.228.002-.499-.03-.999-.03-1.498-.002-7.993-.001-15.986-.001-23.978Z"/>
  <path class="cls-1" d="m172.955,71.952c-5.998,0-11.996.001-17.994-.002-.399,0-.802-.001-1.195-.06-2.817-.422-3.722-1.304-4.186-4.113-.108-.655-.172-1.324-.175-1.987-.015-4.563-.015-9.125-.007-13.688.003-1.728.337-2.048,2.055-2.065q3.001-.029,3.001,2.967c0,3.93-.002,7.86.001,11.789.002,2.025.19,2.212,2.249,2.213,11.33.002,22.659,0,33.989.002.4,0,.803-.019,1.198.029.797.097,1.282.494,1.245,1.377-.026.632.004,1.265-.004,1.898-.017,1.294-.347,1.62-1.684,1.638-1.099.014-2.199.003-3.299.003-5.065,0-10.13,0-15.195,0Z"/>
</svg>