<?xml version="1.0" encoding="UTF-8"?>
<svg id="_레이어_1" data-name="레이어 1" xmlns="http://www.w3.org/2000/svg" viewBox="0 0 51.999 108.404">
  <defs>
    <style>
      .cls-1 {
        fill: #285d23;
      }

      .cls-1, .cls-2, .cls-3, .cls-4, .cls-5, .cls-6, .cls-7, .cls-8, .cls-9, .cls-10, .cls-11 {
        stroke-width: 0px;
      }

      .cls-2, .cls-12 {
        fill: #fefefe;
      }

      .cls-12 {
        font-size: 4.474px;
      }

      .cls-12, .cls-13 {
        font-family: Pretendard-Bold-KSCpc-EUC-H, Pretendard;
        font-weight: 700;
      }

      .cls-3 {
        fill: #f4fcf6;
      }

      .cls-4 {
        fill: #68dd7f;
      }

      .cls-5 {
        fill: #67dd7d;
      }

      .cls-6 {
        fill: #347834;
      }

      .cls-7 {
        fill: #232323;
      }

      .cls-8 {
        fill: #67dd7e;
      }

      .cls-14 {
        fill: none;
        stroke: #f4fcf6;
        stroke-linecap: round;
        stroke-miterlimit: 10;
        stroke-width: 3px;
      }

      .cls-13 {
        fill: #040404;
        font-size: 4.99px;
      }

      .cls-9 {
        fill: #55b784;
      }

      .cls-10 {
        fill: #080800;
      }

      .cls-11 {
        fill: #242424;
      }
    </style>
  </defs>
  <g>
    <polygon class="cls-10" points="12.928 107.979 12.927 107.977 12.926 107.977 12.928 107.979"/>
    <path class="cls-10" d="m51.903,6.512c-.25-.665-.858-.735-1.487-.734l-13.696.003c-.445,0-.845.032-.82-.648.057-1.598-.672-2.385-2.357-2.35-1.56.032-3.328.549-4.358-1.292-.021.021-.042.042-.063.064,0,0-.002,0-.003-.001.022-.021.044-.041.066-.062-1.382-1.578-4.385-2.107-5.841-.581-1.586,1.662-3.257,2.128-5.385,1.917-1.511-.15-2.145.832-2.189,2.193-.02.643-.218.776-.816.773-4.504-.022-9.008-.007-13.512-.015-.639-.001-1.171.188-1.374.821-.199.619.045,1.078.621,1.452,2.89,1.876,5.619,3.955,7.896,6.572,1.171,1.178,2.221,2.439,3.208,3.764.25.441.45.793.7,1.234,0,0,.024.043.024.043l.006.331c0,13.037.002,26.074-.003,39.111,0,.416.135.746.437,1.018l.014.013h.008c-.008.009-.016.015-.024.024-.009.211.184.233.304.274.407.142.836.159,1.265.159,2.789,0,5.579-.002,8.368.001.681,0,.732.056.743.731.003.215,0,.429,0,.644l.015,41.552c0,.469-.155.516-.538.512l-9.651.058c-.62.055-1.016.46-1.026,1.08-.012.708-.005,1.417-.002,2.126.002.342.274,1.087.704,1.105h24.781c.705-.073,1.217-.616,1.232-1.322.012-.58.013-1.16,0-1.74-.014-.615-.481-1.213-.99-1.239l-9.588-.077c-.232,0-.472.053-.698-.054-.027-.121-.078-.242-.078-.363l-.013-42.459c0-.566.268-.618.713-.617,2.983.01,5.966-.013,8.949.013,1.218.01,1.763-.433,1.76-1.744-.033-12.607-.021-25.213-.011-37.82,0-.345.048-.735.211-1.029,1.269-2.297,3.039-4.217,4.724-6.199,2.19-2.067,4.466-4.027,7.05-5.594.644-.39,1.004-.904.724-1.647Z"/>
  </g>
  <path class="cls-11" d="m38.444,46.364c0,3.929-.008,7.857.006,11.786.003.918-.319,1.366-1.321,1.363-7.508-.024-15.016-.025-22.524,0-1.053.004-1.406-.465-1.405-1.438.009-7.857.011-15.714-.005-23.572-.001-.691.207-.926.923-.923,7.808.023,15.617.023,23.425,0,.728-.002.916.255.912.935-.022,3.95-.011,7.9-.011,11.85Z"/>
  <path class="cls-7" d="m38.444,19.702c0,3.931-.012,7.862.01,11.792.004.763-.245,1.081-1.041,1.079-7.727-.018-15.453-.016-23.18-.001-.738.001-1.039-.255-1.038-1.015.015-7.926.011-15.852.008-23.778,0-.826.318-1.261,1.224-1.259,7.598.017,15.196.017,22.794,0,.908-.002,1.224.436,1.223,1.261-.003,3.974-.001,7.947-.001,11.921Z"/>
  <g>
    <path class="cls-1" d="m36.517,19.645c0,2.449,0,4.897,0,7.346,0,2.017-1.255,3.367-3.294,3.366-5.104-.003-10.208-.049-15.311-.121-1.705-.024-2.893-1.702-2.891-4.111.005-4.743.057-9.485.12-14.227.023-1.747,1.613-3.157,3.58-3.166,4.786-.023,9.573-.028,14.359.002,2.071.013,3.436,1.453,3.437,3.501,0,2.47,0,4.94,0,7.41Z"/>
    <path class="cls-6" d="m17.071,10.788c.276-.605.818-.77,1.403-.771,4.933-.011,9.866-.038,14.798.013,1.462.015,2.083,1.007,2.075,2.391-.029,5.039-.038,10.079-.146,15.117-.024,1.115-1.017,1.641-2.011,1.652-4.911.053-9.823.069-14.733-.009-1.159-.018-2.041-.706-2.04-2.076.004-5.044.006-10.088-.005-15.132-.001-.541.144-.954.659-1.185.06.123.069.261.014.376-.394.834-.293,1.722-.294,2.597-.004,4.186-.004,8.373.001,12.559,0,.425-.035.854.165,1.263.31.631.75,1.005,1.498,1.005,4.913-.002,9.825.01,14.738-.011,1.073-.005,1.647-.567,1.652-1.629.024-4.916.021-9.833.002-14.749-.004-.95-.627-1.573-1.606-1.671-.32-.032-.643-.022-.965-.022-4.226,0-8.452.002-12.678-.002-.667,0-1.329-.007-1.964.25-.176.071-.37.12-.563.034Z"/>
    <path class="cls-5" d="m17.071,10.788c.562-.319,1.145-.528,1.812-.526,4.655.011,9.311-.001,13.966.01,1.438.004,2.271.601,2.258,2.2-.038,4.809-.014,9.619-.014,14.428,0,1.294-.642,1.931-1.938,1.93-4.87-.004-9.74-.009-14.61.003-1.362.004-1.965-.772-1.975-1.995-.036-4.637-.002-9.275-.027-13.912-.004-.776.097-1.488.528-2.138,0,0,0,0,0,0Z"/>
    <path class="cls-3" d="m25.835,26.376c-3.705-.002-6.795-3.004-6.81-6.616-.016-3.813,3.114-7.04,6.825-7.038,3.74.003,6.777,3.101,6.77,6.905-.007,3.814-2.96,6.751-6.785,6.749Z"/>
    <path class="cls-8" d="m25.835,25.482c-2.604.302-5.971-2.485-5.849-5.889.121-3.358,2.509-5.853,5.868-5.857,3.371-.004,5.907,2.607,5.904,6.079-.003,3.056-2.726,5.663-5.923,5.667Z"/>
    <path class="cls-3" d="m22.253,20.338c2.442,0,4.583-.015,6.723.012.443.006,1.033-.266,1.309.218.295.517-.186,1.001-.432,1.401-.954,1.552-2.417,2.393-4.22,2.294-2.146-.119-3.656-1.321-4.25-3.389-.305-1.06.756-.464.87-.536Z"/>
    <path class="cls-4" d="m29.061,21.396c-.155-.279-.518-.157-.686-.159l-3.988-.118c-.429,0-.859.005-1.288-.001-.507-.007-.548.227-.315.599,1.255,2.005,4.545,2.144,5.957.244.1-.134.387-.443.32-.564Z"/>
    <circle class="cls-3" cx="23.686" cy="18.137" r=".779"/>
    <path class="cls-14" d="m27.088,18.311s.853-1.351,1.984,0"/>
  </g>
  <g>
    <g>
      <path class="cls-2" d="m36.659,37.777c0-.865-.701-1.567-1.567-1.567h-18.425c-.865,0-1.567.701-1.567,1.567v9.954h21.558v-9.954Z"/>
      <path class="cls-9" d="m15.101,47.73v7.242c0,.865.701,1.567,1.567,1.567h18.425c.865,0,1.567-.701,1.567-1.567v-7.242H15.101Z"/>
    </g>
    <g>
      <text class="cls-13" transform="translate(17.255 43.732)"><tspan x="0" y="0">미세먼지</tspan></text>
      <text class="cls-12" transform="translate(22.013 53.396)"><tspan x="0" y="0">보통</tspan></text>
    </g>
  </g>
</svg>