<?xml version="1.0" encoding="UTF-8"?>
<svg id="_레이어_1" data-name="레이어 1" xmlns="http://www.w3.org/2000/svg" viewBox="0 0 43.017 63.123">
  <defs>
    <style>
      .cls-1, .cls-2 {
        stroke-width: 0px;
      }

      .cls-2 {
        fill: #fff;
      }
    </style>
  </defs>
  <path class="cls-2" d="m25.798,21.176c-.036-.006-.072-.012-.107-.019-.017-.143-.044-.285-.051-.429-.055-1.145-.133-2.289-.155-3.434-.05-2.645-.058-5.291-.113-7.936-.033-1.595-.091-3.191-.202-4.783-.063-.913-.459-1.746-.985-2.485-.882-1.239-2.112-1.909-3.628-2.05-1.92-.179-3.654.22-5.076,1.615-.742.728-1.291,1.593-1.684,2.54-.778,1.877-1.158,3.835-1.086,5.879.082,2.356.427,4.682.734,7.013.164,1.243.378,2.479.573,3.717.154.975.302,1.95.473,2.922.194,1.103.421,2.2.613,3.303.094.539-.004.612-.533.485-2.492-.595-4.92.523-6.064,2.809-.163.327-.334.333-.667.255-.646-.149-1.332-.346-1.969-.264-1.205.156-2.27.726-3.104,1.637-1.633,1.784-2.421,3.957-2.673,6.31-.222,2.073-.075,4.135.669,6.121.605,1.617,1.517,2.984,3.007,3.921.151.095.302.305.322.477.115,1.001.381,1.962.777,2.88.543,1.26,1.375,2.322,2.406,3.221,1.731,1.51,3.753,2.461,5.959,3.036.327.085.406.226.369.535-.044.362-.034.73-.06,1.094-.063.908.357,1.603.998,2.174.957.85,2.123,1.212,3.373,1.309,2.547.198,5.093.026,7.636-.096,1.153-.055,2.307-.187,3.448-.367,1.276-.2,2.331-.844,3.099-1.894.506-.692.852-1.474.739-2.349-.064-.497-.274-.977-.447-1.455-.081-.224-.065-.358.153-.48.509-.284,1.017-.573,1.51-.884,2.301-1.454,4.216-3.282,5.549-5.686.873-1.574,1.419-3.245,1.654-5.028.18-1.363.184-2.716.006-4.081-.242-1.852-.739-3.591-1.915-5.091-1.006-1.283-2.153-2.415-3.447-3.402-.175-.133-.351-.259-.277-.535.234-.881.439-1.771.688-2.648.381-1.345.779-2.685,1.188-4.022.409-1.337.828-2.671,1.262-4.001.388-1.19.799-2.372,1.204-3.557.444-1.301.884-2.602,1.338-3.899.553-1.581,1.25-3.111,1.581-4.771.269-1.348.144-2.639-.471-3.84-.884-1.726-2.352-2.743-4.252-3.063-1.345-.227-2.664-.059-3.922.525-1.354.628-2.404,1.611-3.271,2.79-1.156,1.571-2.006,3.307-2.518,5.191-.443,1.631-.834,3.277-1.229,4.92-.407,1.691-.788,3.389-1.187,5.082-.063.266-.156.524-.235.786Z"/>
  <path class="cls-1" d="m25.798,21.176c.079-.262.172-.52.235-.786.398-1.693.78-3.391,1.187-5.082.395-1.644.787-3.289,1.229-4.92.511-1.884,1.362-3.62,2.518-5.191.867-1.179,1.917-2.163,3.271-2.79,1.258-.583,2.578-.752,3.922-.525,1.9.321,3.368,1.338,4.252,3.063.615,1.201.74,2.493.471,3.84-.331,1.661-1.027,3.19-1.581,4.771-.454,1.297-.894,2.599-1.338,3.899-.404,1.185-.816,2.367-1.204,3.557-.433,1.329-.853,2.663-1.262,4.001-.408,1.337-.807,2.677-1.188,4.022-.248.877-.453,1.767-.688,2.648-.074.277.102.402.277.535,1.294.987,2.441,2.12,3.447,3.402,1.176,1.5,1.674,3.239,1.915,5.091.178,1.365.173,2.718-.006,4.081-.235,1.783-.781,3.455-1.654,5.028-1.333,2.404-3.249,4.232-5.549,5.686-.493.311-1.001.6-1.51.884-.219.122-.234.256-.153.48.173.478.383.959.447,1.455.113.875-.233,1.658-.739,2.349-.768,1.05-1.823,1.694-3.099,1.894-1.141.179-2.295.311-3.448.367-2.543.122-5.089.294-7.636.096-1.25-.097-2.416-.458-3.373-1.309-.642-.57-1.062-1.266-.998-2.174.025-.365.016-.733.06-1.094.037-.31-.042-.45-.369-.535-2.206-.575-4.228-1.526-5.959-3.036-1.032-.9-1.863-1.961-2.406-3.221-.396-.918-.661-1.879-.777-2.88-.02-.172-.171-.382-.322-.477-1.49-.938-2.401-2.304-3.007-3.921-.744-1.986-.891-4.048-.669-6.121.252-2.353,1.039-4.526,2.673-6.31.834-.912,1.899-1.482,3.104-1.637.636-.082,1.323.115,1.969.264.333.077.504.071.667-.255,1.144-2.287,3.573-3.404,6.064-2.809.529.126.627.054.533-.485-.192-1.103-.419-2.2-.613-3.303-.171-.972-.32-1.947-.473-2.922-.195-1.238-.409-2.475-.573-3.717-.307-2.331-.651-4.657-.734-7.013-.072-2.044.308-4.002,1.086-5.879.393-.947.942-1.811,1.684-2.54C16.904.26,18.638-.139,20.558.04c1.515.141,2.746.812,3.628,2.05.526.739.921,1.572.985,2.485.111,1.591.168,3.188.202,4.783.055,2.645.062,5.291.113,7.936.022,1.145.099,2.29.155,3.434.007.143.033.286.051.429.036.006.072.012.107.019Zm-1.666,35.689c.004.038.009.076.013.114-.231.097-.453.239-.693.285-1.219.233-2.438.472-3.665.649-1.264.182-2.54.286-3.807.448-.151.019-.364.156-.411.287-.318.89-.248,1.542.736,1.948.809.334,1.695.556,2.566.652,3.086.342,6.156.059,9.207-.435,1.013-.164,1.931-.598,2.633-1.384.605-.678.567-1.318-.149-1.888-.434-.345-.926-.621-1.408-.9-.346-.2-.718-.355-1.175-.578.549-.192.976-.363,1.416-.492,1.757-.518,3.362-1.333,4.835-2.421,2.593-1.916,4.262-4.464,5.018-7.571.496-2.038.429-4.106-.134-6.148-.457-1.659-1.251-3.115-2.525-4.279-.721-.658-1.491-1.288-2.494-1.442-1.116-.171-2.243-.365-3.367-.378-4.228-.052-8.457-.037-12.686-.042-.936,0-1.64.455-2.1,1.238-.852,1.451-.733,3.692.713,5.13,1.667,1.657,3.753,2.394,6.022,2.664,1.456.173,2.922.13,4.355-.239.61-.157,1.205-.375,1.809-.559.101-.031.211-.031.426-.061-.138.181-.191.274-.266.346-.801.765-1.787,1.184-2.847,1.386-.948.181-1.852.316-2.582,1.083-1.327,1.393-2.14,3.023-2.554,4.88-.098.441-.213.879-.32,1.318-.536-2.672.203-4.972,2.114-6.957-.195-.055-.284-.091-.376-.103-.616-.082-1.235-.141-1.847-.243-.326-.054-.44.025-.504.363-.139.728-.311,1.454-.753,2.077-.691.973-1.599,1.599-2.775,1.873-1.307.304-2.609.385-3.895-.023-.689-.219-1.343-.551-2.008-.845-.177-.078-.332-.175-.476.037-.593.869-1.499,1.204-2.465,1.417-.486.107-.984.166-1.478.232-.27.036-.414.159-.342.436.157.6.271,1.219.504,1.789.691,1.69,1.918,2.941,3.415,3.939,1.159.772,2.413,1.345,3.723,1.824,1.528.559,3.083.93,4.708.876,1.814-.06,3.624-.199,5.437-.302.15-.009.302-.001.453-.001Zm1.826-24.854v-.018c1.45,0,2.9,0,4.351,0,1.048,0,2.096-.008,3.144-.005.262,0,.445-.07.512-.354.163-.698.334-1.395.509-2.09.231-.921.456-1.843.705-2.759.335-1.231.686-2.459,1.039-3.685.38-1.321.742-2.648,1.164-3.956.537-1.666,1.118-3.317,1.695-4.969.256-.734.544-1.457.827-2.181.297-.758.647-1.498.901-2.269.328-.998.374-2.037.223-3.075-.112-.773-.478-1.433-1.064-1.947-.924-.812-2.044-1.058-3.233-.994-1.993.106-3.388,1.232-4.489,2.778-.745,1.047-1.265,2.22-1.66,3.44-.434,1.34-.852,2.687-1.218,4.047-.218.809-.304,1.652-.482,2.473-.329,1.509-.691,3.012-1.024,4.52-.354,1.604-.696,3.211-1.035,4.818-.203.963-.422,1.925-.575,2.896-.129.818.15,1.119.976,1.187.169.014.342-.025.51-.009.264.025.529.061.786.124.08.02.202.163.187.213-.029.093-.136.21-.226.226-.359.065-.723.128-1.086.134-2.181.033-4.362.054-6.543.067-.186.001-.38-.066-.556-.137-.081-.032-.186-.158-.176-.224.013-.082.128-.195.213-.209.334-.056.674-.088,1.012-.113.714-.052,1.433-.065,2.143-.148.57-.066.839-.35.934-.915.052-.309.068-.633.044-.945-.168-2.163-.394-4.321-.52-6.486-.196-3.37-.343-6.744-.479-10.118-.039-.96-.024-1.93.068-2.885.15-1.552.081-3.061-.494-4.527-.791-2.017-2.46-2.499-4.322-2.015-1.815.471-2.831,1.858-3.428,3.555-.502,1.426-.711,2.916-.641,4.424.125,2.677.332,5.348.806,7.993.257,1.438.438,2.889.688,4.328.269,1.546.573,3.086.876,4.625.305,1.552.63,3.1.943,4.65.099.491.148.537.646.537,2.45,0,4.899,0,7.349,0Zm-17.43,5.646c.024,2.24.518,4.336,1.484,6.357.812,1.698,2.109,2.505,3.934,2.579,1.044.043,2.05-.105,3.043-.467,1.358-.495,2.036-1.463,2.218-2.85.048-.365-.085-.571-.431-.685-1.042-.342-1.973-.891-2.789-1.617-.787-.701-1.383-1.54-1.622-2.587-.239-1.047-.241-2.113-.051-3.159.246-1.356.882-2.466,2.227-3.047.101-.044.204-.261.185-.378-.136-.828-.549-1.504-1.219-2.009-1.301-.98-3.28-.91-4.601.409-1.148,1.146-1.644,2.608-1.967,4.124-.232,1.09-.281,2.219-.411,3.33Zm-6.696,2.373c.047,1.687.428,3.377,1.268,4.958.338.635.739,1.204,1.385,1.557,1.191.65,2.461.658,3.727.343.435-.108.828-.434,1.204-.71.285-.209.282-.501.074-.807-.218-.321-.424-.655-.589-1.005-.704-1.491-1.074-3.082-1.249-4.708-.242-2.249-.023-4.476.504-6.674.027-.115-.047-.341-.135-.381-.372-.168-.758-.36-1.155-.407-1.728-.205-2.856.81-3.61,2.135-.973,1.709-1.388,3.626-1.424,5.7Z"/>
  <path class="cls-2" d="m24.131,56.865c-.151,0-.302-.007-.453.001-1.812.103-3.623.242-5.437.302-1.624.053-3.179-.317-4.708-.876-1.311-.48-2.565-1.052-3.723-1.824-1.498-.998-2.724-2.249-3.415-3.939-.233-.57-.348-1.189-.504-1.789-.072-.277.073-.4.342-.436.494-.066.992-.125,1.478-.232.966-.212,1.872-.548,2.465-1.417.145-.212.3-.115.476-.037.665.293,1.318.626,2.008.845,1.286.408,2.587.327,3.895.023,1.176-.273,2.084-.9,2.775-1.873.443-.623.615-1.35.753-2.077.064-.338.179-.417.504-.363.612.102,1.231.161,1.847.243.092.012.181.049.376.103-1.911,1.985-2.65,4.285-2.114,6.957.107-.439.222-.877.32-1.318.413-1.856,1.227-3.486,2.554-4.88.73-.766,1.634-.902,2.582-1.083,1.06-.202,2.047-.621,2.847-1.386.075-.071.128-.165.266-.346-.216.03-.326.031-.426.061-.604.184-1.198.401-1.809.559-1.433.369-2.899.412-4.355.239-2.269-.27-4.355-1.007-6.022-2.664-1.446-1.438-1.565-3.678-.713-5.13.46-.783,1.163-1.239,2.1-1.238,4.229.004,8.458-.01,12.686.042,1.124.014,2.251.207,3.367.378,1.003.154,1.773.783,2.494,1.442,1.275,1.164,2.069,2.62,2.525,4.279.562,2.042.629,4.11.134,6.148-.756,3.107-2.425,5.655-5.018,7.571-1.473,1.088-3.078,1.903-4.835,2.421-.439.13-.867.3-1.416.492.458.223.83.378,1.175.578.482.279.975.554,1.408.9.716.57.754,1.21.149,1.888-.702.786-1.62,1.22-2.633,1.384-3.05.494-6.12.777-9.207.435-.871-.097-1.757-.318-2.566-.652-.984-.406-1.054-1.059-.736-1.948.047-.131.26-.268.411-.287,1.268-.162,2.543-.266,3.807-.448,1.228-.177,2.447-.416,3.665-.649.24-.046.463-.187.693-.285-.004-.038-.009-.076-.013-.114Z"/>
  <path class="cls-2" d="m25.958,32.011c-2.45,0-4.899,0-7.349,0-.499,0-.547-.047-.646-.537-.313-1.55-.638-3.098-.943-4.65-.303-1.54-.606-3.08-.876-4.625-.251-1.439-.431-2.89-.688-4.328-.474-2.645-.681-5.316-.806-7.993-.07-1.507.139-2.997.641-4.424.597-1.697,1.613-3.083,3.428-3.555,1.862-.484,3.531-.002,4.322,2.015.575,1.466.644,2.976.494,4.527-.092.955-.107,1.925-.068,2.885.136,3.374.282,6.747.479,10.118.126,2.165.352,4.324.52,6.486.024.313.008.636-.044.945-.095.565-.364.849-.934.915-.71.083-1.429.096-2.143.148-.339.025-.678.057-1.012.113-.085.014-.199.127-.213.209-.011.066.095.192.176.224.176.07.37.138.556.137,2.181-.013,4.362-.034,6.543-.067.363-.006.728-.068,1.086-.134.091-.017.197-.133.226-.226.016-.05-.107-.193-.187-.213-.257-.063-.522-.099-.786-.124-.168-.016-.341.023-.51.009-.826-.068-1.104-.369-.976-1.187.153-.971.372-1.933.575-2.896.339-1.607.68-3.214,1.035-4.818.333-1.508.695-3.011,1.024-4.52.179-.821.265-1.664.482-2.473.366-1.36.783-2.707,1.218-4.047.395-1.219.914-2.393,1.66-3.44,1.101-1.546,2.496-2.672,4.489-2.778,1.189-.064,2.309.182,3.233.994.586.515.951,1.175,1.064,1.947.151,1.038.105,2.077-.223,3.075-.254.772-.604,1.511-.901,2.269-.284.724-.571,1.447-.827,2.181-.577,1.652-1.158,3.304-1.695,4.969-.422,1.308-.784,2.635-1.164,3.956-.353,1.227-.704,2.454-1.039,3.685-.249.916-.474,1.838-.705,2.759-.174.695-.346,1.392-.509,2.09-.066.284-.25.355-.512.354-1.048-.003-2.096.004-3.144.005-1.45.001-2.9,0-4.351,0v.018Z"/>
  <path class="cls-2" d="m8.528,37.656c.131-1.111.179-2.24.411-3.33.323-1.516.819-2.977,1.967-4.124,1.321-1.319,3.3-1.389,4.601-.409.67.505,1.083,1.182,1.219,2.009.019.117-.084.334-.185.378-1.345.581-1.981,1.691-2.227,3.047-.19,1.046-.188,2.112.051,3.159.239,1.046.835,1.886,1.622,2.587.816.727,1.746,1.276,2.789,1.617.347.114.479.32.431.685-.182,1.388-.859,2.356-2.218,2.85-.993.362-1.999.509-3.043.467-1.825-.075-3.122-.881-3.934-2.579-.967-2.022-1.461-4.117-1.484-6.357Z"/>
  <path class="cls-2" d="m1.832,40.03c.036-2.075.451-3.991,1.424-5.7.754-1.325,1.882-2.34,3.61-2.135.397.047.783.24,1.155.407.088.04.162.266.135.381-.527,2.199-.746,4.425-.504,6.674.175,1.626.546,3.216,1.249,4.708.165.35.371.685.589,1.005.208.306.211.598-.074.807-.376.276-.769.602-1.204.71-1.266.315-2.536.307-3.727-.343-.646-.352-1.048-.921-1.385-1.557-.84-1.58-1.221-3.271-1.268-4.958Z"/>
</svg>