<?xml version="1.0" encoding="UTF-8"?>
<svg id="_레이어_1" data-name="레이어 1" xmlns="http://www.w3.org/2000/svg" viewBox="0 0 230.343 68.649">
  <defs>
    <style>
      .cls-1 {
        fill: #fe7a22;
      }

      .cls-1, .cls-2, .cls-3, .cls-4 {
        stroke-width: 0px;
      }

      .cls-5 {
        font-size: 22px;
        letter-spacing: -.025em;
      }

      .cls-5, .cls-6 {
        font-family: Pretendard-Bold-KSCpc-EUC-H, Pretendard;
        font-weight: 700;
      }

      .cls-2 {
        fill: #fedd81;
      }

      .cls-7 {
        fill: #de5c04;
        stroke: #a14100;
        stroke-miterlimit: 10;
        stroke-width: 2px;
      }

      .cls-3 {
        fill: #fe9b00;
      }

      .cls-6 {
        fill: #fefefe;
        font-size: 26px;
        letter-spacing: -.01em;
      }

      .cls-4 {
        fill: #a14100;
      }
    </style>
  </defs>
  <g>
    <g>
      <path class="cls-7" d="m201.472,1H26.189l-12.543,11.548h0L1.622,1.568c-.238-.218-.622-.049-.622.274v54.841l.171.168,11.328,10.345c.663.605,1.678.603,2.338-.004l10.91-10.045c.212-.195.49-.304.779-.304l174.947-.101c15.329,0,27.871-12.542,27.871-27.871S216.801,1,201.472,1Z"/>
      <path class="cls-4" d="m222.421,28.915c.233,11.599-9.583,22.21-22.59,21.903-11.361-.268-21.522-9.45-21.508-22.104.014-12.581,10.427-22.278,22.629-21.994,11.969.279,21.786,10.209,21.47,22.194Z"/>
      <path class="cls-1" d="m204.788,25.976c1.407,0,2.395-.012,3.384.004.851.014,1.445.399,1.556,1.288.12.962-.563,1.285-1.317,1.519-.079.025-.17.08-.239.061-4.954-1.325-5.974,2.691-7.776,5.688-1.973,3.282-4.638,5.369-8.75,4.954-1.005-.101-1.949-.347-2.123-1.35-.208-1.2,1.021-.942,1.691-1.305,3.006-1.631,3.894-4.763,5.328-7.535-.849-.677-1.708-.269-2.483-.419-.887-.172-1.685-.555-1.601-1.554.067-.795.741-1.257,1.574-1.335.33-.031.676-.081.994-.017,2.34.468,3.589-.727,4.689-2.649,1.419-2.479,3.285-4.62,6.33-5.208,1.965-.38,3.644.13,4.821,1.803.593.843.499,1.736-.279,2.472-.735.695-1.343.452-1.831-.318-.614-.968-1.097-.293-1.572.131-1.022.911-1.408,2.213-2.396,3.771Z"/>
    </g>
    <text class="cls-6" transform="translate(30.044 37.349)"><tspan x="0" y="0">최댓값</tspan></text>
  </g>
  <g>
    <g>
      <path class="cls-2" d="m132.488,48.673c-10.975,0-19.903-8.928-19.903-19.903s8.929-19.903,19.903-19.903h10.968c10.975,0,19.903,8.929,19.903,19.903s-8.929,19.903-19.903,19.903h-10.968Z"/>
      <path class="cls-3" d="m143.456,9.866c10.423,0,18.903,8.48,18.903,18.903s-8.48,18.903-18.903,18.903h-10.968c-10.423,0-18.903-8.48-18.903-18.903s8.48-18.903,18.903-18.903h10.968m0-2h-10.968c-11.497,0-20.903,9.407-20.903,20.903s9.406,20.903,20.903,20.903h10.968c11.497,0,20.903-9.407,20.903-20.903s-9.406-20.903-20.903-20.903h0Z"/>
    </g>
    <text class="cls-5" transform="translate(126.104 35.832)"><tspan x="0" y="0">10</tspan></text>
  </g>
</svg>