<?xml version="1.0" encoding="UTF-8"?>
<svg id="_레이어_1" data-name="레이어 1" xmlns="http://www.w3.org/2000/svg" viewBox="0 0 84 35">
  <defs>
    <style>
      .cls-1 {
        fill: #fee671;
      }

      .cls-1, .cls-2, .cls-3 {
        stroke-width: 0px;
      }

      .cls-2 {
        fill: #fdf6b5;
      }

      .cls-3 {
        fill: #5bba47;
      }
    </style>
  </defs>
  <g>
    <path class="cls-2" d="m79.953,0H4.047C1.812,0,0,1.744,0,3.895v23.369c0,2.151,1.812,3.895,4.047,3.895h75.906c2.235,0,4.047-1.744,4.047-3.895V3.895c0-2.151-1.812-3.895-4.047-3.895Z"/>
    <path class="cls-1" d="m79.953,31.159H4.047c-2.235,0-4.047-1.744-4.047-3.895v3.841c0,2.151,1.812,3.895,4.047,3.895h75.906c2.235,0,4.047-1.744,4.047-3.895v-3.841c0,2.151-1.812,3.895-4.047,3.895Z"/>
  </g>
  <g>
    <path class="cls-3" d="m7.892,15.044c-.871-.074-1.557-.593-1.501-1.575.056-.871.704-1.315,1.594-1.278,3.371.186,4.834-.778,4.834-2.148v-.259c0-.204-.129-.315-.333-.315h-4.261c-1.074,0-1.519-.704-1.519-1.427s.426-1.426,1.519-1.426h5.706c1.203,0,1.907.333,2.241,1.038h2.89c.13-1.019.944-1.538,1.834-1.538.981,0,1.853.63,1.853,1.834v7.132h-3.705v-1.204h-2.575c-.63,0-1.111-.259-1.315-.76-1.463,1.519-4.112,2.186-7.261,1.927Zm14.301,6.243c.74,0,1.056.593,1.056,1.148,0,.519-.297,1.074-1.056,1.074h-12.541c-1.686,0-2.594-1.093-2.594-2.39v-.444c0-1.26.908-2.112,2.594-2.112h9.354v-.445c0-.222-.056-.315-.297-.315h-10.429c-.723,0-1.019-.519-1.019-1.074,0-.519.314-1.093,1.019-1.093h12.281c1.631,0,2.205.481,2.205,1.908v3.001h-11.393c-.26,0-.39.148-.39.333v.093c0,.167.13.315.39.315h10.818Zm-3.149-9.929v-1.186h-2.649c-.019.426-.092.833-.203,1.204.093-.019.185-.019.277-.019h2.575Z"/>
    <path class="cls-3" d="m34.616,19.86c1.111,0,1.556.778,1.556,1.537,0,.778-.463,1.5-1.556,1.5h-8.8c-1.093,0-1.556-.722-1.556-1.5,0-.759.444-1.537,1.556-1.537h.871v-5.891c0-1.148.723-1.519,1.704-1.519.963,0,1.704.389,1.704,1.519v5.891h4.521Zm-8.429-10.003c-1.074,0-1.575-.796-1.575-1.574s.482-1.593,1.575-1.593h6.613c2.093,0,2.741.796,2.741,2.556v2.26c0,2.741-.223,4.483-.704,5.835-.352.963-1.463,1.371-2.538,1.056-.852-.259-1.111-1.186-.833-2.038.37-1.111.537-2.612.537-4.872v-1.186c0-.315-.148-.445-.444-.445h-5.372Zm15.004,2.742c1.131,0,1.464.871,1.464,1.612,0,.759-.352,1.611-1.464,1.611h-.666v7.688h-3.705V7.949c0-1.204.87-1.834,1.853-1.834s1.853.63,1.853,1.834v4.649h.666Z"/>
    <path class="cls-3" d="m58.374,20.101c1.111,0,1.557.759,1.557,1.519,0,.796-.463,1.519-1.557,1.519h-14.227c-1.093,0-1.556-.722-1.556-1.519,0-.76.444-1.519,1.556-1.519h5.225v-3.186h-3.205c-2.223,0-2.649-.704-2.649-2.816v-6.002c0-1.204.927-1.648,1.908-1.648.927,0,1.89.519,1.89,1.686v.76h7.873v-.797c0-1.204.907-1.648,1.89-1.648.944,0,1.889.463,1.889,1.648v8.818h-5.816v3.186h5.224Zm-11.059-6.725c0,.371.13.556.574.556h7.299v-2.167h-7.873v1.611Z"/>
    <path class="cls-3" d="m67.797,13.71v-3.242c0-.259-.166-.463-.463-.463h-4.279c-1.111,0-1.648-.796-1.648-1.575,0-.759.519-1.611,1.648-1.611h5.558c2.038,0,2.834.944,2.834,2.649v4.26c0,6.391-3.89,8.873-8.429,9.04-.981.056-1.889-.5-1.833-1.593.037-.778.5-1.371,1.426-1.482,2.982-.315,5.187-1.593,5.187-5.983Zm6.243,9.799V7.949c0-1.204.87-1.834,1.853-1.834s1.853.63,1.853,1.834v15.56h-3.705Z"/>
  </g>
</svg>