<?xml version="1.0" encoding="UTF-8"?>
<svg id="_레이어_1" data-name="레이어 1" xmlns="http://www.w3.org/2000/svg" viewBox="0 0 44.743 35">
  <defs>
    <style>
      .cls-1 {
        fill: #fff;
      }

      .cls-1, .cls-2 {
        stroke-width: 0px;
      }

      .cls-2 {
        fill: #295feb;
      }
    </style>
  </defs>
  <path class="cls-2" d="m33.472,0H11.271C5.072,0,0,5.079,0,11.287v23.713h44.743V11.287c0-6.208-5.072-11.287-11.271-11.287Z"/>
  <path class="cls-1" d="m28.092,16.323h-4.544v-4.544c0-.65-.527-1.176-1.176-1.176s-1.176.527-1.176,1.176v4.544h-4.544c-.65,0-1.176.527-1.176,1.176s.527,1.176,1.176,1.176h4.544v4.544c0,.65.527,1.176,1.176,1.176s1.176-.527,1.176-1.176v-4.544h4.544c.65,0,1.176-.527,1.176-1.176s-.527-1.176-1.176-1.176Z"/>
</svg>