<?xml version="1.0" encoding="UTF-8"?>
<svg id="_레이어_1" data-name="레이어 1" xmlns="http://www.w3.org/2000/svg" viewBox="0 0 37.554 35">
  <defs>
    <style>
      .cls-1 {
        fill: #7f1a1b;
      }

      .cls-1, .cls-2, .cls-3, .cls-4, .cls-5, .cls-6, .cls-7 {
        stroke-width: 0px;
      }

      .cls-2 {
        fill: #ef5453;
      }

      .cls-3 {
        fill: #fbecaa;
      }

      .cls-4 {
        fill: #e9c15a;
      }

      .cls-5 {
        fill: #f0d07d;
      }

      .cls-6 {
        fill: #bd3635;
      }

      .cls-7 {
        fill: #ec2528;
      }
    </style>
  </defs>
  <path class="cls-3" d="m7.878,5.431c.002-.012.008-.02.01-.032-.05-.064.061-.361.361-1.083L.069,7.594l5.597,2.397,7.669-3.509c-1.776-.534-5.005-.134-5.457-1.051Z"/>
  <path class="cls-3" d="m19.012,3.74c-.063.016-.12.031-.181.047.605-.011,1.21.052,1.781.202l3.934-1.717L19.018,0l-1.716.688c.902.568,1.552,1.543,1.71,3.052Z"/>
  <path class="cls-3" d="m22.706,14.088c-1.211-.359-2.451-1.342-2.92-2.362-.202-.658-.554-1.272-.85-1.903-.129-.282-.82-.584-.854-.84l-7.21,3.212,8.215,3.476,3.619-1.583Z"/>
  <path class="cls-3" d="m30.749,9.216c-.054.143-.118.288-.192.436l1.048.544.293-.128,5.587-2.474-7.905-3.25-2.767,1.175c2.849.117,5.032,1.155,3.937,3.698Z"/>
  <path class="cls-3" d="m14.16,6.747l.024.011s-.003-.006-.004-.009c-.007,0-.013-.001-.02-.001Z"/>
  <path class="cls-2" d="m23.25,5.781c1.185-.211,2.425-.31,3.563-.263l2.767-1.175-5.035-2.07-3.934,1.717c1.095.289,2.06.88,2.638,1.792Z"/>
  <path class="cls-2" d="m31.605,10.196l-1.048-.544c-.217.437-.546.91-1.147,1.504l2.195-.96Z"/>
  <polygon class="cls-5" points="10.872 12.194 10.872 12.221 10.872 31.375 19.087 35 19.087 15.74 19.087 15.671 10.872 12.194"/>
  <polygon class="cls-5" points="0 7.594 0 26.578 5.666 29.078 5.666 9.991 0 7.594"/>
  <path class="cls-4" d="m24.137,14.166c-.304.019-.722.165-.786.052-.19-.018-.383-.055-.579-.11-.022-.006-.044-.014-.066-.02l-3.619,1.583v19.329l7.312-3.334V13.239c-1.181.564-2.262.926-2.262.926Z"/>
  <polygon class="cls-4" points="31.898 10.067 31.605 10.197 31.605 29.291 37.554 26.578 37.554 7.594 31.898 10.067"/>
  <polygon class="cls-4" points="31.605 10.197 31.898 10.067 31.605 10.196 31.605 10.197"/>
  <polygon class="cls-7" points="5.712 10.011 5.666 9.991 5.666 29.078 10.872 31.375 10.872 12.221 5.712 10.011"/>
  <polygon class="cls-7" points="5.712 10.011 10.872 12.221 10.872 12.194 5.712 10.011"/>
  <path class="cls-7" d="m29.384,11.181c-.243.239-.524.494-.864.777-.58.483-1.37.923-2.121,1.281v18.426l5.206-2.375V10.197l-2.221.984Z"/>
  <path class="cls-7" d="m29.41,11.156c-.008.008-.018.017-.026.025l2.221-.984h0s-2.195.958-2.195.958Z"/>
  <polygon class="cls-2" points="5.666 9.991 5.666 9.991 5.712 10.011 5.666 9.991"/>
  <path class="cls-2" d="m10.872,12.194l7.21-3.212c-.001-.008-.003-.015-.003-.023-.082.028-.162.052-.239.053-2.022.048-3.26-1.08-3.655-2.254l-.024-.011c-.16-.005-.313-.035-.375-.098-.134-.066-.289-.119-.451-.168l-7.669,3.509.046.02,5.16,2.184Z"/>
  <path class="cls-1" d="m14.117,6.471c-.006.009-.012.016-.018.025-3.51-3.937-6.021-.854-6.21-1.097-.002.012-.008.02-.01.032.452.917,3.681.518,5.457,1.051.162.049.316.102.451.168.062.063.215.092.375.098.007,0,.013.001.02.001-.031-.093-.044-.185-.064-.278Z"/>
  <path class="cls-6" d="m20.612,3.99c-.57-.151-1.176-.214-1.781-.202-2.008.522-3.449.917-4.521,2.414-.064.09-.132.171-.194.269.02.093.033.185.064.278.001.003.003.006.004.009.395,1.175,1.594,2.316,3.655,2.254.077-.002.158-.025.239-.053.002-.05.021-.098.087-.144.047-.032.102-.044.15-.071-.082.027-.167.045-.246.082-.029-.121-.027-.24-.01-.358.11-.777,1.172-1.492,2.651-2.025.762-.275,1.632-.5,2.539-.662-.578-.911-1.543-1.502-2.638-1.792Z"/>
  <path class="cls-1" d="m22.873,10.718c-.192-.246-.402-.482-.638-.698-1.056-.969-2.483-1.589-3.648-1.359-.02.004-.04.009-.06.013-.073.016-.14.047-.211.07-.049.027-.114.026-.16.058-.066.046-.076.107-.077.157,0,.008.002.016.003.023.034.256.726.558.854.84.296.631.648,1.246.85,1.903.469,1.02,1.709,2.003,2.92,2.362.022.007.044.014.066.02.196.054.389.092.579.11-.019-.034-.01-.088.048-.179.053-.085.083-.175.122-.262.009-.019.018-.038.026-.057.406-.966.055-2.066-.675-3.001Z"/>
  <path class="cls-7" d="m26.812,5.518c-1.138-.047-2.378.052-3.563.263-.907.162-1.777.387-2.539.662-1.479.533-2.546,1.239-2.657,2.016-.017.118-.013.246.016.367.078-.037.164-.055.246-.082.07-.023.138-.054.211-.07.02-.005.04-.009.06-.013,1.165-.231,2.592.389,3.648,1.359.236.217.446.453.638.698.731.936,1.082,2.036.675,3.001-.008.019-.018.038-.026.057-.04.088-.069.177-.122.262-.058.091-.067.146-.048.179.064.113.482-.033.786-.052,0,0,1.081-.362,2.262-.926.75-.359,1.541-.799,2.121-1.281.34-.283.621-.539.864-.777.008-.008.018-.017.026-.025.601-.594.93-1.067,1.147-1.504.073-.148.138-.292.192-.436,1.095-2.543-1.088-3.581-3.937-3.698Z"/>
  <path class="cls-7" d="m17.302.688c-2.512-1.582-7.027.07-8.682,2.738-.147.352-.269.644-.371.89-.3.722-.411,1.019-.361,1.083.189.243,2.701-2.839,6.21,1.097.006-.009.012-.016.018-.025-.017-.076-.043-.152-.052-.227l.185-.017c.009-.019.022-.034.031-.053.009.009.02.018.029.027,1.072-1.497,2.513-1.892,4.521-2.414.062-.016.119-.031.181-.047-.158-1.51-.808-2.484-1.71-3.052Z"/>
  <path class="cls-7" d="m14.065,6.244c.009.075.035.152.052.227.062-.098.129-.179.194-.269-.009-.009-.02-.018-.029-.027-.009.019-.023.034-.031.053l-.185.017Z"/>
</svg>