<?xml version="1.0" encoding="UTF-8"?>
<svg id="_레이어_1" data-name="레이어 1" xmlns="http://www.w3.org/2000/svg" viewBox="0 0 35 35">
  <defs>
    <style>
      .cls-1 {
        fill: #4b4c4c;
      }

      .cls-1, .cls-2, .cls-3, .cls-4, .cls-5 {
        stroke-width: 0px;
      }

      .cls-2 {
        fill: #e88f23;
      }

      .cls-3 {
        fill: #f09114;
      }

      .cls-4 {
        fill: #040000;
      }

      .cls-5 {
        fill: #fff;
      }
    </style>
  </defs>
  <g>
    <path class="cls-1" d="m33.954,7.932c-.026,0-.053,0-.08-.002-.003,0-.007,0-.011,0h-.046c-.023,0-.046.001-.069.001H1.189c-.111,0-.213-.006-.309-.019v2.292c0,6.005,0,12.01,0,18.016v.173c-.001.725-.003,1.409.208,2.034.159.473.339.967.623,1.359.728,1.006,1.564,1.666,2.558,2.017.553.196.984.317,1.422.317,1.972-.003,3.94-.004,5.908-.004h2.886s2.886,0,2.886,0h.88v.002h2.002s2.882,0,2.882,0c2.445,0,4.309.001,6.043.004.409,0,.834-.133,1.285-.273l.103-.032c.475-.147.953-.412,1.507-.835.458-.35.789-.667,1.04-1,.383-.506.635-1.011.771-1.543l.013-.051c.106-.415.206-.807.211-1.176.001-.117.003-.234.005-.35.004-.296.008-.602.008-.9,0-6.68.001-13.36,0-20.04-.052.007-.108.01-.166.01Z"/>
    <path class="cls-1" d="m34.995,28.592c-.003.21-.006.42-.008.63-.003.246-.035.486-.082.723s-.108.473-.168.71c-.044.172-.097.339-.159.502-.062.163-.132.321-.21.475-.078.154-.163.304-.256.451-.092.146-.192.289-.297.429-.34.449-.756.824-1.208,1.168-.205.157-.415.304-.631.439-.144.089-.291.173-.442.249-.19.096-.388.179-.592.248-.039.013-.076.028-.115.04-.134.042-.268.084-.402.124-.026.008-.052.015-.078.022-.041.012-.083.024-.124.036-.028.008-.057.015-.085.022-.039.01-.079.021-.119.031-.031.007-.063.014-.094.02-.037.008-.074.017-.111.024-.033.006-.066.011-.099.017-.036.006-.072.013-.109.018-.032.004-.064.007-.097.01-.038.004-.076.009-.114.012-.033.002-.066.002-.099.004-.038.002-.075.004-.114.004h-.004c-2.007-.003-4.014-.004-6.02-.004-.007,0-.014,0-.021,0-1.922,0-3.842,0-5.764,0v-.002h0c-1.924,0-3.848,0-5.771,0h-.011c-1.964,0-3.928,0-5.892.004h-.005c-.039,0-.078-.003-.117-.004-.035-.001-.07-.001-.105-.004-.039-.003-.077-.007-.115-.011-.035-.004-.07-.006-.105-.01-.039-.005-.077-.012-.115-.018-.034-.005-.068-.01-.102-.016-.044-.008-.087-.018-.13-.028-.028-.006-.056-.011-.084-.018-.051-.012-.102-.026-.152-.039-.02-.005-.04-.01-.06-.015-.053-.015-.106-.031-.159-.047-.017-.005-.035-.01-.052-.015-.14-.044-.28-.092-.42-.141-.079-.028-.156-.057-.232-.088-.116-.047-.228-.098-.339-.151-.228-.11-.445-.234-.653-.37-.104-.069-.206-.14-.305-.215-.101-.076-.2-.156-.297-.239-.015-.013-.031-.027-.046-.04-.111-.097-.22-.199-.324-.304-.002-.002-.003-.003-.005-.005-.28-.281-.537-.589-.776-.92-.061-.084-.116-.171-.169-.26-.129-.216-.238-.443-.334-.678-.032-.078-.063-.157-.092-.236-.052-.138-.1-.279-.148-.419C-.021,29.889,0,29.056,0,28.219,0,23.368,0,18.517,0,13.666c0-2.425,0-4.851,0-7.276,0-.098.001-.196.002-.294,0-.098,0-.196,0-.293-.003-.159.005-.316.021-.471.008-.078.019-.155.031-.231.063-.383.177-.756.321-1.124.127-.323.263-.64.433-.939.034-.06.069-.119.106-.177s.075-.116.115-.172c.04-.056.082-.112.126-.167.082-.102.166-.201.252-.298.086-.097.174-.191.265-.282.362-.365.76-.685,1.197-.954.219-.135.447-.257.686-.366.103-.047.207-.091.312-.132.002,0,.005-.002.007-.003.102-.04.205-.077.308-.111.003,0,.005-.002.008-.002,0,0,0,0,0,0,.261-.094.528-.174.798-.235.213-.048.442-.079.68-.092.413-.022.817-.042,1.232-.042,2.779,0,5.559,0,8.338,0,4.297,0,8.74,0,13.111-.004h.007c.751,0,1.438.087,2.073.263.47.111.933.257,1.35.506.083.05.165.102.245.156.242.163.473.342.708.515.328.241.616.519.87.825.127.153.246.312.357.478.111.165.214.336.311.512.038.069.074.138.108.209s.067.141.099.213c.188.431.32.886.407,1.357.059.319.087.638.101.958.008.192.013.384.013.576,0,2.377,0,4.754,0,7.131,0,4.754.001,9.509,0,14.263,0,.21-.002.42-.005.63Z"/>
    <path class="cls-2" d="m1.323,7.027c5.393,0,10.785,0,16.178,0h16.113c.036,0,.073-.001.109-.001.021,0,.042,0,.063.002.011,0,.021,0,.031,0,.169,0,.248-.086.243-.269-.007-.272-.008-.544-.033-.817-.08-.888-.287-1.733-.764-2.499-.419-.674-.946-1.244-1.613-1.679-1.001-.652-2.112-.886-3.294-.886h-.007c-7.149.006-14.299.002-21.448.005-.395,0-.791.02-1.185.041-.178.01-.358.032-.532.071-.577.131-1.121.345-1.638.641-1.164.668-1.919,1.658-2.357,2.909-.239.683-.275,1.389-.257,2.103.009.378.002.379.39.379Z"/>
  </g>
  <g>
    <path class="cls-5" d="m9.962,24.103c-.036-.013-.079-.018-.132-.018h-4.051s-.001,0-.002,0c-.023,0-.044.001-.063.003-.039.004-.072.013-.099.028-.014.007-.026.016-.036.026-.021.02-.037.046-.047.079s-.015.072-.015.119v4.019c0,.047.004.087.013.121.027.102.099.147.244.147.003,0,.006,0,.009,0h4.07s.006.001.009.001c.079,0,.131-.015.165-.047.002-.002.004-.003.006-.005.014-.015.023-.034.03-.055.006-.018.011-.038.013-.061.002-.017.002-.036.002-.056v-4.085c0-.023-.001-.044-.004-.063-.011-.085-.048-.131-.112-.153Z"/>
    <path class="cls-5" d="m29.449,11.408c-.015-.153-.087-.203-.259-.203-.003,0-.007,0-.01,0l-4.022.005c-.249.009-.253.065-.254.419-.002,1.231-.001,2.463,0,3.694,0,.036.003.072.006.108s.006.072.005.108c0,.064.014.105.044.131,0,0,0,.001.002.002.013.011.03.018.048.023.026.007.057.011.093.011,0,0,.001,0,.002,0h4.093s.001,0,.002,0c.037,0,.069-.003.097-.008.017-.003.033-.008.047-.013.004-.002.009-.003.013-.005.039-.019.066-.051.08-.1.01-.033.014-.073.014-.123-.004-.663-.007-1.326-.007-1.988,0-.663.002-1.326.007-1.988,0-.026,0-.05-.003-.072Z"/>
    <path class="cls-5" d="m29.421,17.817c-.018-.065-.056-.101-.112-.121-.04-.014-.088-.02-.149-.02-.004,0-.008,0-.012,0h-4.006s-.006,0-.009,0c-.173,0-.224.06-.223.237.007,1.311.004,2.622.004,3.934,0,.277.01.286.301.286h3.876c.315,0,.339-.025.339-.33,0-1.282-.006-2.565.006-3.847,0-.057-.004-.102-.015-.139Z"/>
    <path class="cls-5" d="m18.639,15.683c.036.01.079.014.129.014h3.921s.004,0,.006,0c.05,0,.091-.004.125-.014.067-.019.105-.059.122-.126.004-.017.007-.035.009-.056.002-.02.003-.042.002-.066v-.004c-.007-.657-.003-1.315-.003-1.972,0-.658-.004-1.315.002-1.973,0-.001,0-.002,0-.004.002-.185-.055-.262-.245-.265-.005,0-.008,0-.013,0-.002,0-.003,0-.005,0h-3.916s-.004,0-.005,0c-.178,0-.259.053-.276.203-.002.022-.004.045-.003.071.005,1.31.005,2.621,0,3.931,0,.155.043.232.15.26Z"/>
    <path class="cls-5" d="m5.561,21.903c.012.194.072.229.307.229l3.919.003h.003c.151,0,.233-.039.264-.147.005-.018.009-.038.012-.06.002-.022.004-.046.003-.072v-3.933c.002-.083-.012-.139-.04-.178-.037-.051-.101-.069-.201-.069-.003,0-.006,0-.009,0h-4.006s-.005,0-.008,0c-.187,0-.253.063-.252.265l.005,3.868c0,.035,0,.066.002.093Z"/>
    <path class="cls-5" d="m22.693,24.116s-.004,0-.007,0h-3.919s-.003.001-.005.001c-.021,0-.039.001-.057.003-.162.014-.217.092-.216.276l.003,3.934c0,.094.005.157.025.199.013.028.033.047.062.059.029.012.068.019.12.021.026.001.055.002.087.002h3.876c.066,0,.117-.002.157-.008.039-.006.067-.017.086-.036.019-.019.031-.046.037-.085.006-.039.008-.089.008-.155l.004-3.934c.003-.197-.046-.279-.261-.279Z"/>
    <path class="cls-5" d="m22.746,17.677s-.007,0-.011,0h-4.009s-.002,0-.003,0c-.174,0-.238.055-.235.238v3.955c0,.147.042.224.145.253.034.01.075.014.124.014h3.944s.002,0,.003,0c.191,0,.25-.075.249-.257v-3.977c.002-.166-.047-.223-.207-.225Z"/>
    <path class="cls-5" d="m16.482,24.295c-.013-.13-.078-.178-.234-.178-.001,0-.002,0-.004,0h-3.939s-.003,0-.004,0c-.197,0-.263.068-.261.264l.002,3.975c0,.176.057.259.251.259.001,0,.002,0,.003,0h3.917s.003,0,.004,0c.17,0,.248-.051.264-.195.002-.021.003-.043.003-.068v-3.997c0-.022,0-.042-.003-.061Z"/>
    <path class="cls-5" d="m12.056,21.904c.009.029.022.052.041.07.037.035.095.05.178.05h3.963s.002,0,.003,0c.086,0,.143-.016.179-.051.002-.002.005-.003.006-.005.015-.016.025-.036.033-.06.011-.034.017-.075.017-.127v-3.953c0-.021,0-.04-.001-.058-.011-.123-.068-.167-.212-.167-.003,0-.006,0-.009,0h-4.004s-.004.001-.006.001c-.088,0-.145.016-.175.065-.012.02-.02.045-.024.077-.002.016-.003.034-.003.053v3.996c0,.042.005.078.013.107Z"/>
    <path class="cls-3" d="m12.314,15.681h3.832c.037,0,.069-.001.097-.002.028-.001.053-.003.075-.007.043-.007.073-.018.093-.039.041-.041.046-.118.046-.261l.003-3.868c0-.023,0-.044-.002-.064-.009-.111-.054-.163-.159-.179-.024-.004-.051-.006-.082-.006h-3.902s-.003,0-.004,0c-.052,0-.094.005-.128.016-.089.028-.126.095-.126.232v3.912c0,.188.078.266.257.266Z"/>
    <g>
      <path class="cls-4" d="m34.999,13.699c0-2.377,0-4.754,0-7.131,0-.193-.005-.384-.013-.576-.014-.32-.042-.639-.101-.958-.087-.471-.219-.926-.407-1.357-.031-.072-.064-.143-.099-.213s-.071-.14-.108-.209c-.096-.175-.2-.346-.311-.512-.111-.165-.23-.325-.357-.478-.254-.306-.542-.584-.87-.825-.235-.173-.466-.352-.708-.515-.081-.054-.162-.107-.245-.156-.417-.248-.88-.394-1.35-.506-.635-.176-1.322-.263-2.073-.263h-.007c-4.371.003-8.814.004-13.111.004-2.779,0-5.559,0-8.338,0-.415,0-.82.02-1.232.042-.239.013-.468.044-.68.092-.271.062-.537.141-.798.235,0,0,0,0,0,0-.003,0-.005.002-.008.002-.103.034-.206.071-.308.111-.002,0-.005.002-.007.003-.105.041-.209.085-.312.132-.239.109-.467.231-.686.366-.437.27-.835.59-1.197.954-.091.091-.179.185-.265.282-.086.097-.17.196-.252.298-.044.055-.086.11-.126.167-.04.056-.079.114-.115.172s-.072.117-.106.177c-.17.299-.306.615-.433.939-.145.368-.259.741-.321,1.124-.012.077-.023.154-.031.231-.016.155-.024.312-.021.471.002.098.001.196,0,.293,0,.098-.002.196-.002.294,0,2.425,0,4.851,0,7.276,0,4.851,0,9.702,0,14.553,0,.837-.022,1.67.254,2.487.048.141.096.281.148.419.03.079.06.158.092.236.096.234.205.461.334.678.053.088.108.175.169.26.239.331.497.639.776.92.002.002.003.003.005.005.105.105.213.207.324.304.015.013.031.027.046.04.096.083.195.162.297.239.099.075.201.146.305.215.207.136.424.26.653.37.111.053.223.104.339.151.076.031.154.06.232.088.14.05.28.097.42.141.017.005.035.01.052.015.053.016.106.032.159.047.02.006.04.01.06.015.051.014.101.027.152.039.028.007.056.012.084.018.043.009.087.019.13.028.034.006.068.011.102.016.038.006.077.013.115.018.035.005.07.007.105.01.038.004.077.009.115.011.035.002.07.002.105.004.039.001.077.004.117.004h.005c1.964-.003,3.928-.004,5.892-.004h.011c1.924,0,3.848,0,5.771,0h0v.002c1.922,0,3.842,0,5.764,0,.007,0,.014,0,.021,0,2.007,0,4.014,0,6.02.004h.004c.038,0,.076-.003.114-.004.033-.001.066-.001.099-.004.038-.003.076-.008.114-.012.032-.004.065-.006.097-.01.037-.005.073-.012.109-.018.033-.006.066-.01.099-.017.037-.007.074-.016.111-.024.031-.007.063-.013.094-.02.04-.01.079-.02.119-.031.028-.007.057-.014.085-.022.042-.011.083-.024.124-.036.026-.008.052-.015.078-.022.134-.04.268-.082.402-.124.039-.012.077-.026.115-.04.204-.07.402-.152.592-.248.151-.076.298-.16.442-.249.216-.134.425-.282.631-.439.452-.345.868-.719,1.208-1.168.106-.139.205-.282.297-.429.092-.146.178-.297.256-.451.078-.154.148-.312.21-.475.062-.163.115-.33.159-.502.06-.236.122-.472.168-.71s.079-.478.082-.723c.002-.21.006-.42.008-.63.003-.21.005-.42.005-.63,0-4.754,0-9.509,0-14.263ZM1.191,4.545c.438-1.251,1.192-2.241,2.357-2.909.516-.296,1.06-.51,1.638-.641.174-.04.354-.062.532-.071.395-.021.79-.041,1.185-.041,7.149-.002,14.299.001,21.448-.005h.007c1.182,0,2.293.234,3.294.886.667.435,1.194,1.005,1.613,1.679.477.766.683,1.611.764,2.499.025.273.025.544.033.817.005.183-.074.269-.243.269-.01,0-.02,0-.031,0-.021-.001-.042-.002-.063-.002-.036,0-.073.001-.109.001h-16.113c-5.393,0-10.785,0-16.178,0-.388,0-.38,0-.39-.379-.018-.714.018-1.42.257-2.103Zm32.921,24.317c-.002.117-.003.234-.005.35-.004.369-.104.761-.211,1.176l-.013.051c-.136.532-.388,1.037-.771,1.543-.252.333-.582.65-1.04,1-.553.422-1.032.687-1.507.835l-.103.032c-.45.14-.875.273-1.285.273-1.734-.003-3.598-.004-6.043-.004h-2.882s-2.002,0-2.002,0v-.002h-3.766s-2.886,0-2.886,0c-1.968,0-3.936,0-5.908.004-.439,0-.869-.121-1.422-.317-.993-.352-1.83-1.012-2.558-2.017-.284-.392-.463-.886-.623-1.359-.211-.624-.209-1.309-.208-2.034v-.173c0-6.005,0-12.01,0-18.016v-2.292c.095.013.198.019.309.019h10.875s2.175,0,2.175,0h19.51c.023,0,.046,0,.069,0h.042s.003,0,.004,0c.004,0,.007,0,.011,0,.028.002.054.002.08.002.058,0,.114-.004.166-.01.002,6.68.001,13.36,0,20.04,0,.298-.004.604-.008.9Z"/>
      <path class="cls-4" d="m10.254,23.274c-.13-.046-.269-.068-.424-.068h-4.051c-.057,0-.111.003-.163.009-.15.017-.289.059-.414.125-.082.043-.159.098-.227.162-.13.122-.229.28-.284.455-.038.12-.056.246-.056.385v4.017c0,.123.014.236.042.343.102.388.444.803,1.096.803h.01s4.068.001,4.068.001h.01c.353,0,.589-.131.734-.256.031-.026.061-.054.088-.084.094-.101.167-.228.215-.372.027-.083.045-.165.053-.252.004-.045.006-.092.006-.142v-4.082c0-.059-.003-.117-.011-.175-.053-.411-.312-.736-.693-.87Zm-4.471,5.352s-.006,0-.009,0c-.145,0-.217-.046-.244-.147-.009-.034-.013-.074-.013-.121v-4.019c0-.047.004-.086.015-.119s.026-.059.047-.079c.011-.01.023-.019.036-.026.027-.014.06-.023.099-.028.02-.002.041-.003.063-.003h4.05s.002,0,.003,0c.053,0,.096.006.132.018.064.022.101.068.112.153.002.019.004.04.004.063v4.085c0,.02,0,.039-.002.056-.002.023-.007.043-.013.061-.007.022-.016.041-.03.055-.002.002-.004.003-.006.005-.034.032-.086.047-.165.047-.003,0-.006,0-.009,0h-4.07Z"/>
      <path class="cls-4" d="m30.325,11.324c-.058-.607-.503-.999-1.135-.999h-.012s-4.022.005-4.022.005h-.015s-.015,0-.015,0c-.564.02-.835.305-.962.54-.139.256-.139.51-.14.756-.002,1.102-.001,2.203,0,3.305v.391c0,.071.005.132.009.177.001.014.002.025.003.036-.002.345.137.576.262.714l.031.039.069.057.006.005.006.005c.103.083.224.145.357.184.106.031.217.045.337.045h.012s4.083,0,4.083,0c.093,0,.177-.008.261-.023.062-.012.122-.028.18-.049.038-.013.074-.028.109-.045.257-.126.448-.352.533-.634.035-.117.052-.242.051-.381-.004-.671-.007-1.338-.007-1.983,0-.67.002-1.337.007-1.982,0-.057-.002-.109-.007-.161Zm-.873,4.132c0,.05-.004.09-.014.123-.015.049-.041.08-.08.1-.004.002-.009.003-.013.005-.014.006-.03.01-.047.013-.028.005-.06.008-.097.008h-4.095s-.001,0-.002,0c-.037,0-.067-.004-.093-.011-.019-.005-.035-.013-.048-.023,0,0,0-.001-.002-.002-.03-.025-.045-.066-.044-.131,0-.036-.002-.072-.005-.108s-.006-.072-.006-.108c0-1.231-.002-2.463,0-3.694,0-.354.005-.41.254-.419l4.022-.005s.007,0,.01,0c.171,0,.244.051.259.203.002.022.003.046.003.072-.005.663-.007,1.326-.007,1.988,0,.663.002,1.326.007,1.988Z"/>
      <path class="cls-4" d="m30.268,17.579c-.095-.337-.339-.597-.669-.712-.134-.047-.277-.069-.439-.069h-.014s-4.004,0-4.004,0h-.01c-.326,0-.594.103-.797.308-.205.205-.307.479-.306.813.005.937.005,1.891.004,2.814,0,.372,0,.744,0,1.115,0,.204,0,.584.315.883.296.281.653.281.866.281h3.876c.208,0,.594,0,.902-.3.317-.309.317-.699.317-.908,0-.341,0-.683,0-1.024-.001-.923-.002-1.878.007-2.814.001-.142-.014-.268-.048-.386Zm-5.354,4.268c0-1.311.003-2.623-.004-3.934,0-.177.05-.237.223-.237.003,0,.006,0,.009,0h4.006s.008,0,.012,0c.061,0,.109.006.149.02.056.02.094.056.112.121.01.037.015.083.015.139-.012,1.282-.006,2.564-.006,3.847,0,.305-.025.329-.339.33h-3.876c-.291,0-.301-.009-.301-.286Z"/>
      <path class="cls-4" d="m18.411,16.532c.11.029.227.044.357.044h3.921c.139,0,.259-.015.371-.046.367-.103.642-.386.735-.756.016-.062.026-.126.032-.192.004-.047.006-.096.006-.149h0s0-.009,0-.009c-.005-.465-.004-.94-.003-1.399,0-.188,0-.376,0-.564,0-.182,0-.364,0-.546,0-.463-.002-.942.003-1.41v-.004s0-.011,0-.011c.005-.666-.43-1.125-1.085-1.148-.017,0-.034-.002-.053-.002h-.011s-3.91,0-3.91,0c-.773,0-1.105.53-1.155.985-.006.055-.009.112-.009.171.005,1.329.005,2.65,0,3.924-.003.661.412,1.008.802,1.112Zm.078-5.04c0-.026.001-.049.003-.071.017-.151.097-.203.276-.203h3.922s.003,0,.005,0c.005,0,.009,0,.013,0,.19.004.247.08.245.265,0,.001,0,.002,0,.004-.006.658-.002,1.315-.002,1.973,0,.657-.004,1.315.003,1.972v.004c0,.024,0,.046-.002.066-.002.02-.005.039-.009.056-.017.067-.054.107-.122.126-.034.01-.075.014-.125.014h-3.922s-.003,0-.005,0c-.051,0-.094-.004-.129-.014-.107-.029-.15-.105-.15-.26.005-1.31.005-2.621,0-3.931Z"/>
      <path class="cls-4" d="m4.683,21.956c.015.247.144,1.054,1.185,1.055l3.919.003c.655,0,1.004-.403,1.114-.781.019-.066.033-.135.041-.206.006-.056.009-.113.009-.175v-3.929c.003-.268-.068-.504-.209-.697-.144-.196-.418-.429-.911-.429h-.009s-4.006,0-4.006,0h-.008c-.336,0-.612.106-.82.315-.209.211-.314.491-.312.834l.005,3.863c0,.053.001.101.004.144Zm5.146-4.279c.1,0,.164.018.201.069.028.038.041.094.041.178v3.933c-.001.026-.002.05-.005.072-.002.022-.006.042-.012.06-.031.108-.114.147-.264.147h-.003l-3.919-.003c-.235,0-.295-.035-.307-.229-.002-.028-.002-.059-.002-.093l-.005-3.868c-.001-.202.065-.265.252-.265.003,0,.005,0,.008,0h4.006s.006,0,.009,0Z"/>
      <path class="cls-4" d="m22.693,23.238h-.01s-3.907.001-3.907.001h-.014c-.053,0-.096.003-.131.006-.624.053-1.025.507-1.022,1.155l.003,3.931c0,.177.013.369.107.571.104.223.287.399.516.496.164.07.317.085.418.09.039.002.084.003.133.003h3.876c.106,0,.196-.003.291-.018.225-.035.417-.128.569-.278.106-.104.243-.287.289-.57.017-.103.019-.202.019-.294l.004-3.93c.002-.136.003-.528-.31-.844-.21-.212-.49-.32-.832-.32Zm-.03,5.375h-3.876c-.032,0-.061,0-.087-.002-.052-.003-.091-.009-.12-.021-.029-.012-.049-.031-.062-.059-.02-.042-.025-.105-.025-.199l-.003-3.934c0-.184.055-.262.216-.276.018-.002.036-.003.057-.003.002,0,.003,0,.005,0h3.919s.004-.001.007-.001c.215,0,.264.082.261.279l-.004,3.934c0,.065-.002.116-.008.155-.006.039-.017.066-.037.085-.019.019-.047.03-.086.036-.039.006-.09.007-.157.007Z"/>
      <path class="cls-4" d="m22.78,16.799c-.014,0-.029-.001-.045-.001h-3.996s-.016,0-.016,0c-.334,0-.607.106-.813.314-.204.207-.306.479-.303.808v3.946c-.003.649.404.994.788,1.102.112.031.23.047.362.047h3.931s0,0,0,0h.016c.415,0,.672-.171.816-.315.209-.209.314-.486.313-.824v-3.974c.004-.642-.419-1.084-1.053-1.104Zm.173,5.08c0,.182-.058.257-.249.257-.001,0-.002,0-.003,0h-3.94s-.002,0-.003,0c-.048,0-.09-.004-.124-.014-.103-.029-.146-.105-.144-.253v-3.955c-.004-.183.059-.238.234-.238,0,0,.002,0,.003,0h4.006s.002,0,.003,0c.004,0,.007,0,.011,0,.161.003.209.059.209.225v3.977Z"/>
      <path class="cls-4" d="m17.357,24.205c-.049-.481-.411-.966-1.11-.966h-.009s-3.934,0-3.934,0h-.005c-.342,0-.621.108-.831.32-.209.211-.313.489-.31.828l.002,3.971c-.002.332.104.61.314.821.144.145.403.317.817.317h.014s3.906,0,3.906,0c.763,0,1.092-.525,1.143-.974.006-.054.009-.11.009-.171v-3.993c0-.05-.002-.101-.007-.151Zm-.876,4.215c-.016.144-.095.195-.264.195h-3.921s-.002,0-.003,0c-.193,0-.252-.084-.251-.259l-.002-3.975c-.002-.196.064-.264.261-.264h3.943s.002,0,.004,0c.156,0,.221.047.234.178.002.019.003.039.003.061v3.997c0,.025,0,.047-.003.068Z"/>
      <path class="cls-4" d="m11.213,22.156c.052.175.148.332.277.454.204.194.468.292.785.292h3.962c.359,0,.598-.129.744-.252.031-.026.061-.053.089-.083.099-.106.175-.234.224-.38.042-.126.063-.26.063-.409v-3.95c0-.047-.001-.094-.005-.14-.053-.575-.49-.963-1.088-.963h-.011s-4.002.001-4.002.001c-.555,0-.823.307-.934.49-.077.128-.126.272-.144.429-.006.05-.009.103-.009.158v3.994c0,.127.016.245.05.358Zm5.049-4.551c.144,0,.201.043.212.167.002.018.002.037.002.058v3.953c0,.052-.006.093-.018.127-.008.023-.018.044-.033.06-.002.002-.004.003-.006.005-.037.035-.094.051-.179.051h-3.963s-.002,0-.002,0c-.083,0-.14-.014-.178-.05-.019-.018-.032-.041-.041-.07-.009-.029-.013-.064-.013-.107v-3.996c0-.019,0-.037.002-.053.004-.032.012-.057.024-.077.03-.05.087-.065.175-.065.002,0,.004,0,.006,0h4.004s.006-.001.009-.001Z"/>
      <path class="cls-4" d="m12.314,16.56h3.832c.052,0,.096-.001.135-.003.065-.003.119-.008.172-.016.232-.036.428-.133.582-.288.301-.302.302-.678.302-.879l.003-3.864c0-.05-.001-.097-.005-.143-.043-.513-.397-.895-.901-.973-.072-.011-.143-.017-.217-.017h-3.902c-.146,0-.274.019-.395.057-.36.113-.745.454-.742,1.074v3.908c-.002.415.173.678.319.825.146.146.405.32.817.32Zm-.257-5.056c0-.136.037-.204.126-.232.035-.011.077-.016.128-.016h3.901s.003,0,.005,0c.031,0,.058.003.082.006.105.016.149.069.159.179.002.019.002.041.002.064l-.003,3.868c0,.143-.005.22-.046.261-.021.021-.05.032-.093.039-.021.003-.046.005-.075.007-.028.001-.061.002-.097.002h-3.786c-.015,0-.031,0-.046,0h0c-.178,0-.257-.078-.257-.266v-3.912Z"/>
    </g>
  </g>
</svg>