<?xml version="1.0" encoding="UTF-8"?>
<svg id="_레이어_1" data-name="레이어 1" xmlns="http://www.w3.org/2000/svg" viewBox="0 0 85 35">
  <defs>
    <style>
      .cls-1 {
        fill: #fee671;
      }

      .cls-1, .cls-2, .cls-3, .cls-4, .cls-5 {
        stroke-width: 0px;
      }

      .cls-2 {
        fill: #21be30;
      }

      .cls-3 {
        fill: #20be30;
      }

      .cls-4 {
        fill: #fdf6b5;
      }

      .cls-5 {
        fill: #1fbd2f;
      }
    </style>
  </defs>
  <g>
    <path class="cls-4" d="m80.883,0H4.117C1.843,0,0,1.744,0,3.895v23.369c0,2.151,1.843,3.895,4.117,3.895h76.766c2.274,0,4.117-1.744,4.117-3.895V3.895c0-2.151-1.843-3.895-4.117-3.895Z"/>
    <path class="cls-1" d="m80.883,31.159H4.117c-2.274,0-4.117-1.744-4.117-3.895v3.841c0,2.151,1.843,3.895,4.117,3.895h76.766c2.274,0,4.117-1.744,4.117-3.895v-3.841c0,2.151-1.843,3.895-4.117,3.895Z"/>
  </g>
  <g>
    <g>
      <path class="cls-5" d="m56.739,15.468c0-3.013,0-6.027,0-9.04,0-.743.105-.845.864-.848.507-.002,1.014-.002,1.522,0,.616.003.729.111.73.72.003,2.053.011,4.107-.007,6.16-.003.369.097.48.465.463.639-.03,1.281-.014,1.922-.006.423.006.544.13.551.556.008.467.009.933,0,1.4-.008.474-.156.627-.626.635-.627.01-1.255.021-1.882-.004-.331-.013-.431.084-.429.422.013,2.893.008,5.787.007,8.68,0,.764-.022.786-.787.789-.587.003-1.175-.007-1.762.001-.368.005-.541-.177-.559-.528-.008-.16-.009-.32-.009-.48,0-2.973,0-5.947,0-8.92Z"/>
      <path class="cls-5" d="m54.447,16.228c-.742-4.496-8.457-4.65-9.092-.012-1.234,6.611,10.216,6.601,9.092.012Zm-4.568,2.52c-2.324.063-2.265-3.359-.016-3.409,2.226-.067,2.418,3.563.016,3.409Z"/>
      <rect class="cls-3" x="46.369" y="6.6" width="6.986" height="2.474" rx="1.237" ry="1.237"/>
      <rect class="cls-3" x="43.968" y="9.912" width="11.788" height="2.474" rx="1.237" ry="1.237"/>
      <path class="cls-5" d="m68.05,7.209c1.068,0,2.135,0,3.203,0,.2,0,.4.002.6.011,1.099.048,1.619.623,1.554,1.727-.094,1.584-.453,3.102-1.106,4.553-1.58,3.506-4.2,6.014-7.522,7.851-.451.249-.668.19-.954-.216-.291-.414-.573-.835-.843-1.262-.293-.463-.233-.747.244-1.03,1.288-.765,2.504-1.624,3.581-2.668,1.152-1.118,2.049-2.411,2.645-3.907.252-.634.42-1.289.555-1.956.085-.422.063-.466-.364-.467-1.748-.002-3.497,0-5.245-.001-.651,0-.727-.077-.732-.741-.003-.44-.006-.88.002-1.32.007-.439.136-.568.58-.57,1.268-.005,2.536-.002,3.804-.002h0Z"/>
      <path class="cls-5" d="m78.754,15.636c0,3.052,0,6.103,0,9.155,0,.65-.062.714-.706.72-.587.005-1.174.005-1.761,0-.532-.004-.628-.093-.628-.636-.003-6.183-.002-12.366,0-18.55,0-.485.136-.617.622-.625.587-.009,1.174-.007,1.761-.003.576.004.709.135.71.703.002,3.078,0,6.157.001,9.235Z"/>
    </g>
    <g>
      <g>
        <path class="cls-3" d="m8.85,18.582v1.326c0,.351.284.635.635.635h8.305c.351,0,.635.284.635.635v3.517c0,.351.284.635.635.635h1.731c.351,0,.635-.284.635-.635v-6.114c0-.351-.284-.635-.635-.635h-11.306c-.351,0-.635.284-.635.635Z"/>
        <path class="cls-3" d="m23.766,10.3h-1.657c-.376,0-.681-.305-.681-.681v-3.034c0-.376-.305-.681-.681-.681h-1.448c-.376,0-.681.305-.681.681v9.796c0,.376.305.681.681.681h1.448c.376,0,.681-.305.681-.681v-2.732c0-.376.305-.681.681-.681h1.657c.376,0,.681-.305.681-.681v-1.305c0-.376-.305-.681-.681-.681Z"/>
        <path class="cls-3" d="m16.734,14.449c-2.877-1.979-3.539-6.25-3.673-7.512-.04-.38-.36-.667-.743-.667h-1.338c-.383,0-.702.287-.743.667-.134,1.262-.795,5.533-3.673,7.512-.328.226-.417.669-.203,1.01l.568.901c.107.17.274.288.471.331.196.044.396.008.565-.1,1.626-1.045,2.864-2.505,3.684-4.345.82,1.84,2.057,3.3,3.684,4.345.122.078.26.118.401.118.054,0,.109-.006.164-.018.196-.044.363-.161.471-.331l.568-.901c.215-.341.126-.784-.203-1.01Z"/>
      </g>
      <g>
        <path class="cls-2" d="m31.005,13.815l1.644-4.807c.262-.766-.307-1.563-1.117-1.563h-5.976c-.475,0-.86.385-.86.86v.83c0,.473.382.857.855.86l3.193.017c.102,0,.176.098.148.196-.17.605-.759,2.518-1.878,4.314-.923,1.481-2.282,3.014-3.05,3.837-.321.343-.307.88.031,1.206l.797.768c.349.337.908.318,1.234-.042l3.124-3.449,2.959,3.263c.326.359.884.378,1.233.042l.819-.788c.329-.317.353-.836.054-1.182l-3.047-3.521c-.2-.231-.262-.551-.163-.841Z"/>
        <path class="cls-5" d="m38.072,15.476c0-2.811,0-5.622,0-8.433,0-.693-.098-.788-.806-.791-.473-.002-.946-.002-1.419,0-.574.003-.68.104-.681.671-.003,1.915-.01,3.403.007,5.318.003.344-.09.448-.434.432-.596-.028-1.195-.013-1.792-.005-.395.005-.507.121-.514.519-.008.435-.008.871,0,1.306.008.443.145.585.584.592.585.009,1.171.019,1.755-.003.308-.012.402.079.4.393-.012,2.699-.007,5.826-.007,8.525,0,.712.02.733.734.736.548.002,1.096-.006,1.643.001.343.005.504-.165.522-.493.008-.149.008-.298.008-.448,0-2.774,0-5.547,0-8.321Z"/>
        <path class="cls-5" d="m41.786,6.513c0-.744-.105-.846-.865-.849-.508-.002-.802-.002-1.31,0-.617.003-.73.111-.731.721v18.338c0,.765.021.787.787.79.588.003.963-.007,1.551.001.369.005.542-.177.56-.529.008-.16.009-.32.009-.481,0-2.979,0-5.957,0-8.936,0-3.019,0-6.037,0-9.056Z"/>
      </g>
    </g>
  </g>
</svg>