<?xml version="1.0" encoding="UTF-8"?>
<svg id="_레이어_1" data-name="레이어 1" xmlns="http://www.w3.org/2000/svg" viewBox="0 0 41.283 60">
  <defs>
    <style>
      .cls-1 {
        fill: #eda06b;
      }

      .cls-1, .cls-2, .cls-3, .cls-4 {
        stroke-width: 0px;
      }

      .cls-2 {
        fill: #bb682f;
      }

      .cls-3 {
        fill: #128e23;
      }

      .cls-4 {
        fill: #20a02f;
      }
    </style>
  </defs>
  <path class="cls-4" d="m35.567,46.063L6.22,1.312c-.059-.089-.146-.099-.182-.099-.044,0-.085.013-.122.039L1.264,4.541c-.062.044-.084.103-.092.145-.008.042-.008.106.034.17l29.346,44.751,5.014-3.543Z"/>
  <path class="cls-3" d="m37.19,46.383L7.186.63c-.268-.409-.704-.63-1.148-.63-.269,0-.54.081-.779.25L.607,3.538C-.027,3.985-.19,4.881.241,5.538l30.004,45.754h0,0s6.946-4.908,6.946-4.908ZM1.173,4.685c.008-.042.03-.101.092-.145L5.917,1.252c.037-.026.078-.039.122-.039.035,0,.123.01.182.099l29.346,44.751-5.014,3.543L1.207,4.855c-.042-.064-.042-.128-.034-.17Z"/>
  <polygon class="cls-1" points="32.178 51.392 39.683 57.934 36.572 48.287 32.178 51.392"/>
  <rect class="cls-2" x="29.465" y="48.837" width="8.505" height="0" transform="translate(-22.002 28.41) rotate(-35.246)"/>
  <path class="cls-2" d="m41.241,58.944l-4.05-12.56h0,0s-6.946,4.908-6.946,4.908l9.772,8.518c.153.133.324.191.49.191.481,0,.918-.488.735-1.056Zm-9.063-7.551l4.394-3.105,3.111,9.647-7.505-6.542Z"/>
</svg>