<?xml version="1.0" encoding="UTF-8"?>
<svg id="_레이어_1" data-name="레이어 1" xmlns="http://www.w3.org/2000/svg" viewBox="0 0 140 50">
  <defs>
    <style>
      .cls-1 {
        font-family: Pretendard-Bold-KSCpc-EUC-H, Pretendard;
        font-size: 15px;
        font-weight: 700;
      }

      .cls-2 {
        fill: none;
        stroke: #8da5b4;
      }

      .cls-2, .cls-3 {
        stroke-linecap: round;
        stroke-linejoin: round;
        stroke-width: 1.5px;
      }

      .cls-3 {
        fill: #fff;
        stroke: #abc5d5;
      }

      .cls-4 {
        fill: #d7dde0;
      }

      .cls-4, .cls-5 {
        stroke-width: 0px;
      }

      .cls-5 {
        fill: #f7fcff;
      }
    </style>
  </defs>
  <g>
    <rect class="cls-5" x=".25" y=".25" width="139.5" height="49.5" rx="2.592" ry="2.592"/>
    <path class="cls-4" d="m137.157.5c1.292,0,2.342,1.051,2.342,2.342v44.315c0,1.292-1.051,2.342-2.342,2.342H2.842c-1.292,0-2.342-1.051-2.342-2.342V2.842C.5,1.551,1.551.5,2.842.5h134.315m0-.5H2.842C1.272,0,0,1.273,0,2.842v44.315c0,1.57,1.272,2.842,2.842,2.842h134.315c1.57,0,2.842-1.273,2.842-2.842V2.842c0-1.57-1.273-2.842-2.842-2.842h0Z"/>
  </g>
  <g>
    <g>
      <circle class="cls-3" cx="25.006" cy="24.982" r="11.177"/>
      <g>
        <path class="cls-2" d="m18.087,23.538s1.516,4.516,6.806,4.516,7.032-4.516,7.032-4.516"/>
        <g>
          <line class="cls-2" x1="28.727" y1="27.243" x2="30.477" y2="29.315"/>
          <line class="cls-2" x1="21.259" y1="27.269" x2="19.582" y2="29.269"/>
        </g>
        <line class="cls-2" x1="25.006" y1="28.135" x2="25.006" y2="30.78"/>
      </g>
    </g>
    <text class="cls-1" transform="translate(50.605 30.426)"><tspan x="0" y="0">코드</tspan></text>
  </g>
</svg>