<?xml version="1.0" encoding="UTF-8"?>
<svg id="_레이어_1" data-name="레이어 1" xmlns="http://www.w3.org/2000/svg" viewBox="0 0 399.903 77.369">
  <defs>
    <style>
      .cls-1, .cls-2, .cls-3, .cls-4, .cls-5 {
        stroke-width: 0px;
      }

      .cls-1, .cls-6, .cls-7 {
        fill: #fefefe;
      }

      .cls-2 {
        fill: #009400;
      }

      .cls-3 {
        fill: #00b400;
      }

      .cls-4 {
        fill: #fefdfe;
      }

      .cls-8 {
        fill: #00b300;
        stroke: #009400;
        stroke-miterlimit: 10;
        stroke-width: 2px;
      }

      .cls-6 {
        font-size: 26px;
      }

      .cls-6, .cls-7 {
        font-family: Pretendard-Bold-KSCpc-EUC-H, Pretendard;
        font-weight: 700;
      }

      .cls-7 {
        font-size: 22px;
      }

      .cls-5 {
        fill: #f2f2f2;
      }
    </style>
  </defs>
  <path class="cls-8" d="m398.464,33.954c-2.293-12.79-13.66-22.1-26.741-22.14-81.918-.248-227.443-.502-309.361-.713-2.727-.007-4.859-.438-7.168-2.399C48.028,2.617,39.547.119,30.1,1.274,20.381,2.463,12.681,7.161,7.067,15.04,2.193,21.879.212,29.582,1.283,38.024c1.177,9.281,5.524,16.675,12.825,22.461,2.04,1.617,6.09,3.722,7.073,4.225.147.075.282.172.401.286l11.318,10.9c.643.62,1.658.631,2.315.026l10.886-10.023c.313-.288.718-.448,1.143-.446,87.06.295,238.123.228,324.778.487.891.003,1.782-.029,2.673-.045.198-.088.388-.231.594-.257,15.315-1.89,25.945-16.233,23.175-31.684Z"/>
  <g>
    <path class="cls-1" d="m34.019,61.097c-14.927-.048-27.039-12.21-27-27.111.038-14.888,12.218-27,27.15-27h.125c14.901.067,26.977,12.265,26.918,27.193-.059,14.842-12.216,26.917-27.103,26.917h-.091Z"/>
    <path class="cls-5" d="m34.17,7.986h.121c14.35.064,25.978,11.812,25.922,26.189-.056,14.293-11.765,25.922-26.102,25.922h-.087c-14.375-.047-26.04-11.76-26.003-26.109.037-14.337,11.768-26.001,26.151-26.002m0-2c-15.526,0-28.111,12.502-28.151,27.997-.04,15.454,12.517,28.063,27.997,28.114.032,0,.062,0,.094,0,15.444,0,28.042-12.503,28.102-27.914.061-15.477-12.463-28.128-27.913-28.197-.044,0-.086,0-.13,0h0Z"/>
  </g>
  <text class="cls-6" transform="translate(208.823 46.251) rotate(.173)"><tspan x="0" y="0">신호를 받았을 때</tspan></text>
  <g>
    <path class="cls-2" d="m133.116,18.305c17.877,0,41.07,0,58.947,0,2.815,0,4.335,2.426,4.336,6.934.003,8.742.003,17.483,0,26.225-.001,4.509-1.521,6.935-4.336,6.935-35.754,0-76.824-.025-112.578.059-2.308.005-4.351-2.765-4.335-6.91.033-8.797.033-17.595,0-26.392-.015-4.145,2.027-6.926,4.335-6.912,17.877.11,35.754.061,53.631.061Z"/>
    <text class="cls-7" transform="translate(85.53 46.188)"><tspan x="0" y="0">대상 없음</tspan></text>
    <path class="cls-4" d="m181.166,34.454c1.503,0,3.006-.003,4.509.001.951.003,1.744.288,2.197,1.211.47.958.064,1.702-.534,2.425-1.451,1.754-2.859,3.543-4.343,5.268-1.318,1.533-2.389,1.523-3.72-.029-1.519-1.771-2.972-3.598-4.452-5.402-.521-.635-.812-1.313-.452-2.145.374-.865,1.045-1.293,1.954-1.309,1.614-.027,3.228-.008,4.842-.008v-.013Z"/>
  </g>
  <g>
    <path class="cls-3" d="m27.646,34.608h-.141l-4.232,12.492h16.332l-2.189-7.805c-3.859-.251-7.305-2.005-9.77-4.687Z"/>
    <path class="cls-3" d="m40.898,29.902l.36-.915.36-.915,1.763-4.482c1.417-.239,2.502-1.466,2.502-2.95,0-1.654-1.346-3-3-3-1.604,0-2.907,1.268-2.985,2.853l-4.144,1.677-.905.366-.905.366-5.662-5.697c-1.562,2.119-2.496,4.729-2.496,7.563,0,3.959,1.802,7.496,4.628,9.839,1.856,1.538,4.156,2.556,6.678,2.845.482.055.971.091,1.468.091,2.806,0,5.392-.915,7.499-2.449l-5.161-5.194Zm1.026-8.071l.028-.072.076.03-.105.042Zm.959-2.19c.551,0,1,.449,1,1s-.449,1-1,1-1-.449-1-1,.449-1,1-1Zm-3.165,7.797l-.36.915-3.885-3.91.905-.366.905-.366,3.195-1.293c.242.326.547.598.899.804l-1.299,3.302-.36.915Z"/>
  </g>
</svg>