<?xml version="1.0" encoding="UTF-8"?>
<svg id="_레이어_1" data-name="레이어 1" xmlns="http://www.w3.org/2000/svg" viewBox="0 0 377.698 77.378">
  <defs>
    <style>
      .cls-1, .cls-2 {
        fill: #fefefe;
      }

      .cls-1, .cls-3, .cls-4 {
        stroke-width: 0px;
      }

      .cls-2 {
        font-family: Pretendard-Bold-KSCpc-EUC-H, Pretendard;
        font-size: 25.605px;
        font-weight: 700;
      }

      .cls-3 {
        fill: #17a6d1;
      }

      .cls-5 {
        fill: #19baea;
        stroke: #1498c0;
        stroke-miterlimit: 10;
        stroke-width: 2px;
      }

      .cls-4 {
        fill: #f2f2f2;
      }
    </style>
  </defs>
  <g>
    <path class="cls-5" d="m21.64,65.053s-5.2-2.719-7.532-4.568c-7.301-5.786-11.647-13.18-12.825-22.461C.212,29.582,2.193,21.879,7.067,15.04,12.681,7.161,20.381,2.463,30.1,1.274c9.447-1.156,17.928,1.343,25.093,7.428,2.309,1.961,4.441,2.392,7.168,2.399,81.918.211,205.238.465,287.156.713,13.081.04,24.448,9.349,26.741,22.14,2.77,15.451-7.86,29.794-23.175,31.684-.205.025-.396.168-.594.256-.891.016-1.782.048-2.673.045-86.874-.26-215.15-.518-302.024-.816-1.521-.005-2.596.406-3.649,1.498-2.976,3.089-6.092,6.042-9.092,9.109-.791.809-1.254.903-2.094.031-3.131-3.25-6.346-6.419-9.533-9.615-.505-.507-1.787-1.095-1.787-1.095Z"/>
    <g>
      <path class="cls-1" d="m34.019,61.097c-14.927-.048-27.039-12.21-27-27.111.038-14.888,12.218-27,27.15-27h.125c14.901.067,26.977,12.266,26.918,27.193-.059,14.842-12.216,26.917-27.103,26.917h-.091Z"/>
      <path class="cls-4" d="m34.17,7.986h0,.12c14.349.064,25.978,11.813,25.922,26.189-.056,14.293-11.765,25.922-26.103,25.922h-.087c-14.375-.047-26.04-11.759-26.003-26.109.037-14.337,11.768-26.001,26.151-26.002m0-2c-15.526.001-28.111,12.502-28.151,27.997-.04,15.453,12.517,28.063,27.997,28.114.032,0,.062,0,.094,0,15.444,0,28.042-12.503,28.103-27.914.06-15.477-12.463-28.128-27.913-28.197-.044,0-.086,0-.129,0h0Z"/>
    </g>
    <text class="cls-2" transform="translate(73.231 46.159) rotate(.173)"><tspan x="0" y="0">복제본이 처음 생성되었을 때</tspan></text>
  </g>
  <g>
    <path class="cls-3" d="m40.648,26.59c0-3.646-2.987-6.594-6.648-6.531-3.55.061-6.487,3.116-6.415,6.665.039,1.91.9,3.616,2.241,4.784.647.564,1.193,1.235,1.51,2.033l.179.452h5.202l.23-.58c.288-.726.786-1.336,1.383-1.84,1.417-1.197,2.319-2.983,2.319-4.984Z"/>
    <path class="cls-3" d="m41.193,39.171h-3.883v-2.081h-6.387v2.081h-3.883c-3.033,0-5.492,2.459-5.492,5.492h25.137c0-3.033-2.459-5.492-5.492-5.492Z"/>
    <path class="cls-3" d="m24.765,48.025h18.702c1.256,0,2.274-1.018,2.274-2.274h-23.25c0,1.256,1.018,2.274,2.274,2.274Z"/>
  </g>
</svg>