<?xml version="1.0" encoding="UTF-8"?>
<svg id="_레이어_1" data-name="레이어 1" xmlns="http://www.w3.org/2000/svg" viewBox="0 0 416.919 140.789">
  <defs>
    <style>
      .cls-1 {
        fill: #fff;
        letter-spacing: -.025em;
      }

      .cls-1, .cls-2, .cls-3 {
        font-family: Pretendard-Bold-KSCpc-EUC-H, Pretendard;
        font-weight: 700;
      }

      .cls-1, .cls-3 {
        font-size: 22px;
      }

      .cls-4 {
        fill: #fefdfe;
      }

      .cls-4, .cls-5, .cls-6, .cls-7, .cls-8 {
        stroke-width: 0px;
      }

      .cls-5 {
        fill: #1b3ad8;
      }

      .cls-2 {
        font-size: 26px;
      }

      .cls-2, .cls-3 {
        fill: #fefefe;
      }

      .cls-9 {
        fill: #19baea;
        stroke: #1498c0;
        stroke-linecap: round;
        stroke-linejoin: round;
        stroke-width: 2px;
      }

      .cls-6 {
        fill: #6dddfe;
      }

      .cls-7 {
        fill: #1498c0;
      }

      .cls-8 {
        fill: #4562f5;
      }
    </style>
  </defs>
  <path class="cls-9" d="m400.137,96.61H52.706l-11.613,11.226-13.016-11.226v-39.767l12.441,11.461,12.387-11.471,335.143-.091c16.083,0,29.097-13.806,27.779-30.151-1.175-14.565-13.733-25.591-28.345-25.591H26.188l-12.543,11.548L1.622,1.568c-.238-.217-.622-.048-.622.274l.171,126.333,12.379,11.613,12.516-11.613h374.071c8.716,0,15.782-7.066,15.782-15.783s-7.066-15.783-15.782-15.783Z"/>
  <path class="cls-7" d="m405.797,28.915c.233,11.599-9.583,22.21-22.59,21.903-11.361-.268-21.522-9.45-21.508-22.104.014-12.581,10.427-22.278,22.629-21.994,11.969.279,21.786,10.209,21.47,22.194Z"/>
  <path class="cls-6" d="m391.88,30.447c-.095,0-.185.021-.279.028l-4.684-7.075c.647-.892.942-2.055.623-3.302-.356-1.388-1.5-2.504-2.899-2.812-2.553-.562-4.81,1.366-4.81,3.821,0,.859.284,1.646.753,2.292l-4.684,7.075c-.094-.007-.183-.028-.279-.028-2.466,0-4.4,2.277-3.814,4.843.323,1.416,1.474,2.567,2.89,2.89,2.566.586,4.843-1.348,4.843-3.814,0-1.153-.507-2.18-1.3-2.897l4.386-6.625c.358.108.731.183,1.124.183s.766-.076,1.124-.183l4.386,6.625c-1.013.917-1.56,2.338-1.178,3.884.344,1.389,1.482,2.51,2.877,2.828,2.564.583,4.839-1.35,4.839-3.815,0-2.165-1.755-3.919-3.919-3.919Z"/>
  <text class="cls-2" transform="translate(256.728 36.672)"><tspan x="0" y="0">반복하기</tspan></text>
  <g>
    <g>
      <polygon class="cls-8" points="46.699 48.673 31.172 28.77 46.699 8.867 65.85 8.867 81.376 28.77 65.85 48.673 46.699 48.673"/>
      <path class="cls-5" d="m65.361,9.866l14.747,18.903-14.747,18.903h-18.175l-14.746-18.903,14.746-18.903h18.175m.977-2h-20.128l-16.306,20.903,16.306,20.903h20.128l16.307-20.903-16.307-20.903h0Z"/>
    </g>
    <text class="cls-1" transform="translate(48.103 35.832)"><tspan x="0" y="0">참</tspan></text>
  </g>
  <g>
    <g>
      <rect class="cls-7" x="97.226" y="8.963" width="141.427" height="39.613" rx="3.355" ry="3.355"/>
      <path class="cls-4" d="m221.482,24.789c1.294,0,2.588-.003,3.883,0,.819.002,1.502.248,1.892,1.043.405.825.055,1.466-.46,2.088-1.25,1.51-2.462,3.051-3.74,4.537-1.135,1.32-2.057,1.312-3.204-.025-1.308-1.525-2.559-3.098-3.834-4.652-.449-.547-.699-1.13-.389-1.847.322-.745.9-1.114,1.683-1.127,1.39-.024,2.78-.007,4.17-.007v-.011Z"/>
    </g>
    <text class="cls-3" transform="translate(106.839 35.517)"><tspan x="0" y="0">이 될때까지</tspan></text>
  </g>
</svg>