<?xml version="1.0" encoding="UTF-8"?>
<svg id="_레이어_1" data-name="레이어 1" xmlns="http://www.w3.org/2000/svg" viewBox="0 0 351.161 68.649">
  <defs>
    <style>
      .cls-1 {
        fill: #009400;
      }

      .cls-1, .cls-2, .cls-3 {
        stroke-width: 0px;
      }

      .cls-2 {
        fill: #3bce3b;
      }

      .cls-3 {
        fill: #fefdfe;
      }

      .cls-4 {
        fill: #00b300;
        stroke: #009400;
        stroke-miterlimit: 10;
        stroke-width: 2px;
      }

      .cls-5 {
        font-size: 26px;
      }

      .cls-5, .cls-6 {
        fill: #fefefe;
        font-family: Pretendard-Bold-KSCpc-EUC-H, Pretendard;
        font-weight: 700;
      }

      .cls-6 {
        font-size: 22px;
      }
    </style>
  </defs>
  <path class="cls-4" d="m322.29,1H26.189l-12.543,11.548h0L1.622,1.568c-.238-.218-.622-.049-.622.274v54.841l.171.168,11.328,10.345c.663.605,1.678.603,2.338-.004l10.91-10.045c.212-.195.49-.304.779-.304l295.764-.101c15.329,0,27.871-12.542,27.871-27.871s-12.542-27.871-27.871-27.871Z"/>
  <text class="cls-5" transform="translate(165.677 37.174) rotate(.173)"><tspan x="0" y="0">신호 보내기</tspan></text>
  <g>
    <path class="cls-1" d="m89.971,9.227c17.877,0,41.07,0,58.947,0,2.815,0,4.335,2.426,4.336,6.934.003,8.742.003,17.483,0,26.225-.001,4.509-1.521,6.935-4.336,6.935-35.754,0-76.824-.025-112.578.059-2.308.005-4.351-2.765-4.335-6.91.033-8.797.033-17.595,0-26.392-.015-4.145,2.027-6.926,4.335-6.912,17.877.11,35.754.061,53.631.061Z"/>
    <text class="cls-6" transform="translate(42.385 37.111)"><tspan x="0" y="0">대상 없음</tspan></text>
    <path class="cls-3" d="m138.021,25.376c1.503,0,3.006-.003,4.509.001.951.003,1.744.288,2.197,1.211.47.958.064,1.702-.534,2.425-1.451,1.754-2.859,3.543-4.343,5.268-1.318,1.533-2.389,1.523-3.72-.029-1.519-1.771-2.972-3.598-4.452-5.402-.521-.635-.812-1.313-.452-2.145.374-.865,1.045-1.293,1.954-1.309,1.614-.027,3.228-.008,4.842-.008v-.013Z"/>
  </g>
  <g>
    <path class="cls-1" d="m296.54,28.874c.085-12.114,9.79-22.01,22.342-21.937,12.159.071,22.178,9.883,21.961,22.471-.203,11.764-9.754,21.773-22.498,21.598-12.042-.166-21.794-9.762-21.805-22.132Z"/>
    <g>
      <path class="cls-2" d="m330.924,23.653c0,1.542-.008,3.085.003,4.627.007.98-.264,1.487-1.38,1.043-2.268-.902-4.509-.654-6.762.172-1.828.67-3.715,1.034-5.658.417-.884-.281-1.324-.78-1.303-1.8.062-3.028.029-6.059.018-9.089-.004-1.006.123-1.673,1.394-1.023,1.992,1.019,3.969.447,5.902-.261,2.224-.814,4.426-1.176,6.743-.28.829.321,1.084.737,1.057,1.566-.05,1.541-.014,3.084-.015,4.627Z"/>
      <path class="cls-2" d="m314.288,27.855c0,3.197.023,6.395-.016,9.592-.01.805.134,1.195,1.061,1.136,1.142-.072,2.005.452,1.928,1.706-.072,1.164-.992,1.47-2.018,1.474-1.655.007-3.309.007-4.964,0-1.047-.005-1.902-.364-1.951-1.54-.05-1.196.799-1.68,1.838-1.632,1.034.048,1.134-.418,1.13-1.268-.03-5.898-.016-11.797-.015-17.695,0-.441.007-.882,0-1.323-.018-1.057.309-1.93,1.507-1.952,1.222-.022,1.511.85,1.507,1.911-.014,3.197-.005,6.394-.005,9.592Z"/>
    </g>
  </g>
</svg>