<?xml version="1.0" encoding="UTF-8"?>
<svg id="_레이어_1" data-name="레이어 1" xmlns="http://www.w3.org/2000/svg" viewBox="0 0 286.993 68.649">
  <defs>
    <style>
      .cls-1 {
        fill: #f4af18;
        stroke: #ff7f00;
        stroke-linecap: round;
        stroke-linejoin: round;
        stroke-width: 2px;
      }

      .cls-2 {
        fill: #fefdfe;
      }

      .cls-2, .cls-3, .cls-4 {
        stroke-width: 0px;
      }

      .cls-3 {
        fill: #ffde82;
      }

      .cls-4 {
        fill: #ff7f00;
      }

      .cls-5 {
        font-size: 22px;
      }

      .cls-5, .cls-6 {
        fill: #fefefe;
        font-family: Pretendard-Bold-KSCpc-EUC-H, Pretendard;
        font-weight: 700;
      }

      .cls-6 {
        font-size: 26px;
        letter-spacing: -.01em;
      }
    </style>
  </defs>
  <g>
    <path class="cls-1" d="m258.122,1H26.189l-12.543,11.548h0L1.622,1.568c-.238-.218-.622-.049-.622.274v54.841l.171.168,11.328,10.345c.663.605,1.678.603,2.338-.004l10.91-10.045c.212-.195.49-.304.779-.304l231.597-.101c15.329,0,27.871-12.542,27.871-27.871s-12.542-27.871-27.871-27.871Z"/>
    <g>
      <path class="cls-4" d="m279.071,28.915c.233,11.599-9.583,22.21-22.59,21.903-11.361-.268-21.522-9.45-21.508-22.104.014-12.581,10.427-22.278,22.629-21.994,11.969.279,21.786,10.209,21.47,22.194Z"/>
      <g>
        <rect class="cls-3" x="244.445" y="16.189" width="25.161" height="25.161" rx="2.274" ry="2.274"/>
        <g>
          <path class="cls-4" d="m251.357,25.652h-2.11c-.21,0-.38-.17-.38-.38v-1.158c0-.21.17-.38.38-.38h2.11c.21,0,.38-.17.38-.38v-2.11c0-.21.17-.38.38-.38h1.158c.21,0,.38.17.38.38v2.11c0,.21.17.38.38.38h2.11c.21,0,.38.17.38.38v1.158c0,.21-.17.38-.38.38h-2.11c-.21,0-.38.17-.38.38v2.11c0,.21-.17.38-.38.38h-1.158c-.21,0-.38-.17-.38-.38v-2.11c0-.21-.17-.38-.38-.38Z"/>
          <path class="cls-4" d="m251.071,33.179l-1.492-1.492c-.148-.148-.148-.389,0-.538l.819-.819c.148-.148.389-.148.538,0l1.492,1.492c.148.148.389.148.538,0l1.492-1.492c.148-.148.389-.148.538,0l.819.819c.148.148.148.389,0,.538l-1.492,1.492c-.148.148-.148.389,0,.538l1.492,1.492c.148.148.148.389,0,.538l-.819.819c-.148.148-.389.148-.538,0l-1.492-1.492c-.148-.148-.389-.148-.538,0l-1.492,1.492c-.148.148-.389.148-.538,0l-.819-.819c-.148-.148-.148-.389,0-.538l1.492-1.492c.148-.148.148-.389,0-.538Z"/>
          <path class="cls-4" d="m264.804,25.658h-5.359c-.21,0-.38-.17-.38-.38v-1.17c0-.21.17-.38.38-.38h5.359c.21,0,.38.17.38.38v1.17c0,.21-.17.38-.38.38Z"/>
          <g>
            <path class="cls-4" d="m264.804,32.669h-5.359c-.21,0-.38-.17-.38-.38v-1.17c0-.21.17-.38.38-.38h5.359c.21,0,.38.17.38.38v1.17c0,.21-.17.38-.38.38Z"/>
            <path class="cls-4" d="m264.804,36.157h-5.359c-.21,0-.38-.17-.38-.38v-1.17c0-.21.17-.38.38-.38h5.359c.21,0,.38.17.38.38v1.17c0,.21-.17.38-.38.38Z"/>
          </g>
        </g>
      </g>
    </g>
  </g>
  <g>
    <path class="cls-4" d="m110.001,15.14v27.721c0,3.45,2.808,6.244,6.257,6.235,25.312-.061,72.917-.046,98.242-.044,3.444,0,6.242-2.791,6.242-6.235V15.186c0-3.441-2.787-6.231-6.228-6.235l-98.271-.046c-3.447-.004-6.243,2.789-6.243,6.235Z"/>
    <text class="cls-5" transform="translate(120.381 36.839)"><tspan x="0" y="0">시작하기</tspan></text>
    <path class="cls-2" d="m207.163,25.106c1.503,0,3.006-.003,4.509.001.951.003,1.744.288,2.197,1.211.47.958.064,1.702-.534,2.425-1.451,1.754-2.859,3.543-4.343,5.268-1.318,1.533-2.389,1.523-3.72-.029-1.519-1.771-2.972-3.598-4.452-5.402-.521-.635-.812-1.313-.452-2.145.374-.865,1.045-1.293,1.954-1.309,1.614-.027,3.228-.008,4.842-.008v-.013Z"/>
  </g>
  <text class="cls-6" transform="translate(30.044 37.349)"><tspan x="0" y="0">초시계</tspan></text>
</svg>